<?xml version="1.0" encoding="utf-8"?>
<svg height="100%" style="fill-rule:evenodd;clip-rule:evenodd;stroke-linecap:round;stroke-linejoin:round;" width="100%" version="1.1" viewBox="0 0 150 150" xmlns="http://www.w3.org/2000/svg" xmlns:bx="https://boxy-svg.com">
  <defs>
    <bx:grid x="0" y="0" width="15" height="15"/>
  </defs>
  <g transform="matrix(3.437574, 0, 0, 3.437574, -336.481969, -51.430547)" style="">
    <path d="M 133.182 34.87 C 133.414 35.476 133.457 36.061 133.372 36.625 C 133.161 38.025 132.209 39.237 131.575 40.178 C 130.645 41.536 130.37 44.232 129.905 46.405 C 128.637 52.276 127.073 57.521 119.695 57.521 C 112.338 57.521 110.753 52.276 109.484 46.405 C 109.019 44.232 108.766 41.536 107.836 40.178 C 107.18 39.237 106.229 38.025 106.017 36.625 C 105.954 36.061 105.996 35.476 106.208 34.87 C 106.427 34.283 106.728 33.929 106.985 33.489 C 106.458 31.646 106.795 29.771 106.856 29.158 C 107.292 25.621 107.893 23.989 109.904 21.415 C 112.163 18.527 115.833 16.037 119.71 16.037 C 123.566 16.037 127.235 18.527 129.495 21.415 C 131.506 23.989 132.107 25.621 132.543 29.158 C 132.604 29.773 132.943 31.656 132.43 33.503 C 132.685 33.937 132.976 34.289 133.182 34.87 Z" id="Shape-2" style="fill: none; stroke: rgb(0, 0, 0); stroke-width: 0.872709px;"/>
    <path d="M 114.428 32.209 C 114.888 31.457 115.391 30.866 116.06 30.812 C 116.897 30.731 117.483 31.161 117.944 32.021" id="Shape-3" style="fill: none; stroke: rgb(0, 0, 0); stroke-width: 0.872709px;"/>
    <path d="M 124.975 32.209 C 124.514 31.457 124.012 30.866 123.342 30.812 C 122.505 30.731 121.919 31.161 121.459 32.021" id="Shape-4" style="fill: none; stroke: rgb(0, 0, 0); stroke-width: 0.872709px;"/>
    <path d="M 121.459 37.834 C 121.004 38.727 120.446 39.27 119.66 39.239 C 118.874 39.207 118.398 38.823 117.944 37.834" id="Shape-5" style="fill: none; stroke: rgb(0, 0, 0); stroke-width: 0.872709px;"/>
    <path d="M 129.897 37.834 C 129.621 37.29 129.462 36.873 129.157 36.568 C 128.666 36.089 128.113 35.908 127.787 35.724" id="Shape-5" style="fill: none; stroke: rgb(0, 0, 0); stroke-width: 0.872709px;"/>
    <path d="M 109.506 37.834 C 109.768 37.323 109.898 36.901 110.253 36.568 C 110.738 36.08 111.298 35.902 111.615 35.724" id="Shape-5" style="fill: none; stroke: rgb(0, 0, 0); stroke-width: 0.872709px;"/>
    <path d="M 129.194 36.449 C 128.558 37.831 127.986 38.911 127.753 40.422 C 126.121 50.462 123.981 52.599 119.701 52.599 C 115.421 52.599 113.302 50.462 111.671 40.422 C 111.417 38.911 110.866 37.831 110.209 36.427 C 112.688 40.206 115.252 41.717 119.468 41.804 C 123.706 41.869 126.736 39.861 129.194 36.449 Z" id="Shape-5" style="fill: none; stroke: rgb(0, 0, 0); stroke-width: 0.872709px;"/>
  </g>
</svg>