<?xml version="1.0" encoding="utf-8"?>
<svg xmlns="http://www.w3.org/2000/svg" width="100%" height="100%" stroke-linecap="round" viewBox="0 0 864 506" style="max-width: 100%;">
  <rect width="864" height="506" rx="5" ry="5" style="stroke: rgb(0, 0, 0); fill: rgb(255, 255, 255);"/>
  <g>
    <path d="M644.156 432.806 C644.156 432.806, 644.156 432.806, 644.156 432.806 M644.156 432.806 C644.156 432.806, 644.156 432.806, 644.156 432.806 M643.983 437.803 C645.107 435.958, 646.795 433.752, 650.256 430.016 M643.983 437.803 C645.602 435.525, 647.868 432.639, 650.256 430.016 M643.81 442.8 C648.947 439.412, 651.617 431.896, 653.847 430.34 M643.81 442.8 C646.829 439.642, 649.143 436.919, 653.847 430.34 M644.265 447.019 C647.527 439.476, 654.852 435.421, 657.438 430.664 M644.265 447.019 C649.283 441.824, 654.459 434.486, 657.438 430.664 M644.092 452.016 C648.337 446.932, 652.64 441.963, 661.656 430.21 M644.092 452.016 C648.202 447.41, 652.132 443.613, 661.656 430.21 M643.919 457.013 C648.956 447.59, 655.014 443.166, 665.247 430.534 M643.919 457.013 C647.926 451.935, 652.992 445.871, 665.247 430.534 M643.747 462.01 C652.918 452.328, 661.514 439.714, 669.465 430.079 M643.747 462.01 C649.511 452.933, 657.382 446.514, 669.465 430.079 M644.201 466.228 C655.926 451.677, 665.288 437.187, 673.056 430.403 M644.201 466.228 C651.927 457.781, 658.535 447.85, 673.056 430.403 M644.029 471.225 C654.96 460.128, 662.915 450.046, 676.647 430.728 M644.029 471.225 C650.724 462.593, 658.168 455.119, 676.647 430.728 M643.856 476.222 C653.081 465.849, 663.613 452.896, 680.865 430.273 M643.856 476.222 C655.758 462.614, 666.779 448.754, 680.865 430.273 M644.31 480.44 C661.142 459.722, 675.292 441.493, 684.456 430.597 M644.31 480.44 C656.811 466.011, 667.333 452.771, 684.456 430.597 M644.138 485.437 C659.26 465.546, 671.865 447.433, 688.674 430.143 M644.138 485.437 C654.045 473.719, 663.768 459.795, 688.674 430.143 M643.965 490.434 C652.008 478.382, 663.791 467.177, 692.265 430.467 M643.965 490.434 C662.834 466.807, 681.517 444.264, 692.265 430.467 M645.047 493.874 C664.485 472.623, 679.708 449.602, 695.856 430.791 M645.047 493.874 C657.854 477.359, 672.161 459.757, 695.856 430.791 M648.01 494.977 C667.459 470.998, 686.76 444.411, 700.075 430.337 M648.01 494.977 C658.732 481.323, 668.891 469.658, 700.075 430.337 M651.601 495.301 C666.307 477.43, 681.572 460.008, 703.666 430.661 M651.601 495.301 C663.283 481.055, 675.029 465.299, 703.666 430.661 M655.192 495.625 C672.964 473.187, 692.778 446.494, 707.884 430.207 M655.192 495.625 C666.007 481.709, 677.601 469.665, 707.884 430.207 M659.41 495.171 C679.222 472.984, 695.318 448.538, 711.475 430.531 M659.41 495.171 C670.463 481.349, 680.38 467.769, 711.475 430.531 M663.001 495.495 C680.212 477.56, 696.391 456.65, 715.693 430.076 M663.001 495.495 C678.46 475.977, 694.789 457.357, 715.693 430.076 M667.22 495.04 C681.564 475.187, 697.337 459.058, 719.284 430.401 M667.22 495.04 C681.717 477.967, 696.626 460.244, 719.284 430.401 M670.81 495.365 C684.137 478.091, 699.665 460.924, 722.875 430.725 M670.81 495.365 C686.244 476.246, 703.566 454.728, 722.875 430.725 M674.401 495.689 C683.672 482.262, 696.144 468.528, 727.093 430.27 M674.401 495.689 C688.075 478.055, 702.584 461.976, 727.093 430.27 M678.62 495.234 C700.639 469.818, 721.399 444.709, 730.684 430.595 M678.62 495.234 C692.362 478.496, 705.318 461.525, 730.684 430.595 M682.211 495.559 C694.862 483.052, 703.119 466.529, 734.902 430.14 M682.211 495.559 C703.195 469.979, 723.089 442.806, 734.902 430.14 M686.429 495.104 C705.363 469.001, 726.422 444.291, 738.493 430.464 M686.429 495.104 C703.079 474.411, 720.374 453.742, 738.493 430.464 M690.02 495.428 C710.323 471.387, 732.257 445.771, 742.084 430.789 M690.02 495.428 C705.589 475.721, 721.885 457.219, 742.084 430.789 M694.238 494.974 C707.385 478.533, 721.829 461.295, 746.302 430.334 M694.238 494.974 C711.679 473.371, 727.304 452.485, 746.302 430.334 M697.829 495.298 C710.887 479.936, 722.138 463.31, 749.893 430.658 M697.829 495.298 C717.122 472.458, 737.134 448.388, 749.893 430.658 M701.42 495.622 C711.798 480.647, 724.278 462.396, 754.111 430.204 M701.42 495.622 C717.996 474.212, 737.12 451.714, 754.111 430.204 M705.638 495.168 C723.574 471.101, 742.888 449.654, 757.702 430.528 M705.638 495.168 C720.764 477.408, 736.361 458.043, 757.702 430.528 M709.229 495.492 C722.599 480.903, 733.57 464.393, 761.293 430.852 M709.229 495.492 C728.235 472.836, 748.609 448.346, 761.293 430.852 M713.447 495.038 C723.768 479.949, 734.166 467.38, 765.512 430.398 M713.447 495.038 C730.477 473.03, 749.735 450.463, 765.512 430.398 M717.038 495.362 C728.296 481.234, 741.106 466.66, 769.103 430.722 M717.038 495.362 C729.112 482.298, 739.977 467.711, 769.103 430.722 M720.629 495.686 C739.501 474.668, 755.83 451.188, 773.321 430.267 M720.629 495.686 C731.519 481.922, 742.17 467.73, 773.321 430.267 M724.847 495.232 C733.702 481.815, 745.693 469.692, 776.912 430.592 M724.847 495.232 C736.5 479.759, 749.457 467.075, 776.912 430.592 M728.438 495.556 C745.733 472.708, 762.94 453.325, 780.503 430.916 M728.438 495.556 C742.854 477.03, 759.726 456.512, 780.503 430.916 M732.657 495.101 C748.601 476.891, 760.476 457.287, 784.721 430.461 M732.657 495.101 C745.513 480.135, 756.916 464.77, 784.721 430.461 M736.247 495.425 C750.739 478.145, 766.992 459.633, 788.312 430.786 M736.247 495.425 C751.906 475.585, 767.401 456.686, 788.312 430.786 M739.838 495.75 C759.108 470.458, 780.34 441.936, 792.53 430.331 M739.838 495.75 C756.916 475.404, 772.057 453.761, 792.53 430.331 M744.057 495.295 C755.184 483.351, 768.721 468.762, 796.121 430.655 M744.057 495.295 C761.218 474.371, 778.051 452.351, 796.121 430.655 M747.648 495.619 C765.945 473.989, 781.076 450.254, 799.712 430.98 M747.648 495.619 C766.008 471.044, 784.336 449.177, 799.712 430.98 M751.866 495.165 C768.576 474.491, 785.327 452.551, 803.93 430.525 M751.866 495.165 C763.725 481.534, 774.086 467.609, 803.93 430.525 M755.457 495.489 C774.461 470.859, 795.653 447.524, 807.521 430.849 M755.457 495.489 C767.799 479.695, 780.549 463.543, 807.521 430.849 M759.048 495.813 C770.914 477.652, 786.887 460.776, 811.739 430.395 M759.048 495.813 C777.509 474.662, 794.09 451.85, 811.739 430.395 M763.266 495.359 C774.952 480.409, 789.052 461.441, 814.076 432.277 M763.266 495.359 C780.998 473.812, 800.144 450.826, 814.076 432.277 M766.857 495.683 C782.095 477.457, 796.129 460.436, 814.53 436.495 M766.857 495.683 C779.977 479.156, 793.571 462.352, 814.53 436.495 M771.075 495.229 C781.49 484.618, 791.313 469.863, 814.357 441.492 M771.075 495.229 C780.721 484.068, 790.576 470.909, 814.357 441.492 M774.666 495.553 C788.477 475.832, 805.532 459.43, 814.185 446.489 M774.666 495.553 C786.777 480.157, 799.253 465.239, 814.185 446.489 M778.884 495.098 C789.616 482.431, 795.008 473.804, 814.639 450.707 M778.884 495.098 C792.555 478.291, 806.311 461.408, 814.639 450.707 M782.475 495.423 C792.556 483.54, 805.453 469.955, 814.466 455.704 M782.475 495.423 C792.943 484.087, 801.692 472.56, 814.466 455.704 M786.066 495.747 C792.885 486.582, 802.11 475.27, 814.294 460.701 M786.066 495.747 C796.881 483.984, 806.436 471.02, 814.294 460.701 M790.284 495.292 C798.223 485.286, 801.425 480.054, 814.121 465.698 M790.284 495.292 C799.625 482.9, 809.718 471.054, 814.121 465.698 M793.875 495.617 C801.356 484.59, 809.826 475.775, 814.576 469.916 M793.875 495.617 C800.225 487.111, 808.298 478.817, 814.576 469.916 M798.093 495.162 C805.888 486.644, 812.337 480.681, 814.403 474.913 M798.093 495.162 C801.71 490.64, 806.009 484.462, 814.403 474.913 M801.684 495.486 C807.574 490.2, 810.699 483.758, 814.23 479.91 M801.684 495.486 C804.538 491.847, 808.145 486.416, 814.23 479.91 M805.275 495.811 C808.758 492.043, 809.915 488.703, 814.057 484.907 M805.275 495.811 C808.782 491.45, 811.886 488.5, 814.057 484.907 M809.494 495.356 C811.296 493.614, 811.306 491.7, 814.512 489.126 M809.494 495.356 C811.651 493.217, 813.365 490.178, 814.512 489.126" stroke="rgb(236, 236, 255)" stroke-width="1.027" fill="none"/>
    <path d="M647 430 C680.443 430.79, 713.494 431.289, 811 430 M647 430 C685.68 429.13, 726.956 428.58, 811 430 M811 430 C812.05 428.762, 814.002 429.75, 814 433 M811 430 C813.073 430.97, 812.661 430.607, 814 433 M814 433 C815.853 451.679, 812.16 472.265, 814 492 M814 433 C814.413 446.18, 814.635 456.998, 814 492 M814 492 C813.011 495.054, 814.315 493.406, 811 495 M814 492 C815.41 492.216, 810.367 493.281, 811 495 M811 495 C755.987 494.267, 702.357 497.471, 647 495 M811 495 C754.341 494.529, 698.518 493.984, 647 495 M647 495 C645.373 494.845, 642.546 494.952, 644 492 M647 495 C643.68 493.589, 644.747 493.731, 644 492 M644 492 C643.113 472.601, 645.851 451.595, 644 433 M644 492 C643.276 476.65, 644.967 460.581, 644 433 M644 433 C644.767 431.237, 644.423 430.68, 647 430 M644 433 C646.058 430.157, 645.011 429.976, 647 430 M647 430 C647 430, 647 430, 647 430 M647 430 C647 430, 647 430, 647 430" stroke="rgb(218, 206, 243)" stroke-width="1" fill="none"/>
  </g>
  <g class="text-container" transform="matrix(1 0 0 1 50 10)">
    <text style="text-anchor: middle; font-style: normal; font-weight: 400; font-size: 16px; font-family: &quot;Comic Sans MS&quot;, cursive; white-space: pre;" class="actor actor-box" alignment-baseline="central" dominant-baseline="central" y="452.5" x="679" stroke="rgb(218, 206, 243)" stroke-width="1px" fill="rgb(236, 236, 255)" text-anchor="middle"><tspan dy="0" x="679" stroke="none" stroke-width="1px" fill="rgb(0, 0, 0)" text-anchor="middle" dominant-baseline="central">Cámara PoE ReoLink</tspan></text>
  </g>
  <g>
    <path d="M367.829 433.191 C367.829 433.191, 367.829 433.191, 367.829 433.191 M367.829 433.191 C367.829 433.191, 367.829 433.191, 367.829 433.191 M367.978 436.015 C369.255 434.446, 370.7 432.133, 372.66 430.811 M367.978 436.015 C369.584 434.514, 370.381 432.938, 372.66 430.811 M368.127 438.84 C370.507 437.05, 371.377 434.72, 375.484 430.662 M368.127 438.84 C369.924 437.191, 371.344 435.127, 375.484 430.662 M368.276 441.664 C372.225 437.122, 374.699 434.477, 378.309 430.513 M368.276 441.664 C371.287 437.773, 374.209 435.267, 378.309 430.513 M367.756 445.232 C371.732 439.797, 379.118 433.326, 381.133 430.364 M367.756 445.232 C373.527 439.211, 377.507 432.591, 381.133 430.364 M367.905 448.056 C372.992 443.586, 376.45 434.505, 383.958 430.215 M367.905 448.056 C372.299 442.365, 377.21 436.77, 383.958 430.215 M368.054 450.881 C375.598 444.497, 383.938 434.423, 386.113 430.81 M368.054 450.881 C374.445 442.742, 380.674 437.153, 386.113 430.81 M368.203 453.705 C371.14 448.131, 376.772 444.171, 388.938 430.66 M368.203 453.705 C374.484 446.647, 380.915 437.256, 388.938 430.66 M367.683 457.273 C375.856 451.409, 381.312 443.71, 391.762 430.511 M367.683 457.273 C376.367 447.532, 385.574 437.898, 391.762 430.511 M367.832 460.098 C376.815 450.1, 384.032 443.096, 394.587 430.362 M367.832 460.098 C374.281 453.723, 379.655 446.485, 394.587 430.362 M367.981 462.922 C379.412 449.425, 388.58 438.369, 397.411 430.213 M367.981 462.922 C376.533 453.132, 384.697 444.851, 397.411 430.213 M368.13 465.747 C376.135 456.224, 387.707 443.593, 399.567 430.808 M368.13 465.747 C380.631 451.763, 392.83 437.388, 399.567 430.808 M368.279 468.571 C378.055 455.5, 387.717 446.881, 402.391 430.659 M368.279 468.571 C375.491 461.473, 383.131 452.298, 402.391 430.659 M367.759 472.139 C375.998 460.23, 388.145 450.904, 405.216 430.51 M367.759 472.139 C378.004 460.383, 389.579 447.529, 405.216 430.51 M367.909 474.964 C381.684 461.439, 394.479 448.253, 408.04 430.361 M367.909 474.964 C375.691 465.909, 384.367 456.585, 408.04 430.361 M368.058 477.788 C381.69 460.5, 398.304 443.504, 410.865 430.212 M368.058 477.788 C383.411 461.632, 396.578 446.342, 410.865 430.212 M368.207 480.613 C378.275 467.987, 392.855 455.444, 413.021 430.806 M368.207 480.613 C384.608 460.462, 402.012 442.623, 413.021 430.806 M367.687 484.181 C385.216 461.951, 405.775 440.755, 415.845 430.657 M367.687 484.181 C384.646 464.59, 402.368 446.397, 415.845 430.657 M367.836 487.005 C387.67 466.897, 406.873 444.032, 418.67 430.508 M367.836 487.005 C382.485 469.902, 398.418 452.784, 418.67 430.508 M367.985 489.83 C385.802 468.845, 408.788 444.35, 421.494 430.359 M367.985 489.83 C387.201 469.33, 406.984 446.212, 421.494 430.359 M368.134 492.654 C385.46 472.131, 406.412 449.854, 423.65 430.953 M368.134 492.654 C388.897 469.99, 408.109 446.855, 423.65 430.953 M369.621 493.992 C388.64 472.578, 406.608 452.737, 426.474 430.804 M369.621 493.992 C381.352 481.807, 393.11 467.466, 426.474 430.804 M371.107 495.329 C393.657 469.017, 417.177 444.066, 429.299 430.655 M371.107 495.329 C390.586 475.199, 408.359 454.022, 429.299 430.655 M373.932 495.18 C394.945 472.022, 413.895 452.402, 432.123 430.506 M373.932 495.18 C396.548 469.985, 419.506 445.998, 432.123 430.506 M376.756 495.031 C389.278 479.965, 400.912 467.184, 434.948 430.357 M376.756 495.031 C390.956 480.221, 405.912 463.45, 434.948 430.357 M379.581 494.882 C391.472 482.583, 402.749 469.09, 437.103 430.951 M379.581 494.882 C394.835 478.736, 409.321 463.578, 437.103 430.951 M382.405 494.733 C395.415 480.452, 405.594 465.075, 439.928 430.802 M382.405 494.733 C402.209 474.213, 419.94 452.439, 439.928 430.802 M384.561 495.328 C400.431 479.797, 416.117 461.101, 442.752 430.653 M384.561 495.328 C397.89 481.816, 410.231 465.581, 442.752 430.653 M387.386 495.179 C406.645 470.52, 429.223 449.479, 445.577 430.504 M387.386 495.179 C409.168 470.989, 432.188 446.056, 445.577 430.504 M390.21 495.03 C411.546 468.773, 434.271 447.63, 448.401 430.355 M390.21 495.03 C411.815 469.395, 436.224 443.757, 448.401 430.355 M393.035 494.881 C409.057 473.076, 429.232 451.064, 450.557 430.949 M393.035 494.881 C416.984 469.05, 439.092 444.092, 450.557 430.949 M395.859 494.732 C410.165 478.931, 422.314 468.436, 453.381 430.8 M395.859 494.732 C410.256 476.863, 425.737 461.006, 453.381 430.8 M398.015 495.326 C415.342 478.566, 430.813 460.654, 456.206 430.651 M398.015 495.326 C414.577 477.884, 429.292 459.954, 456.206 430.651 M400.839 495.177 C421.594 474.33, 440.99 448.963, 459.03 430.502 M400.839 495.177 C413.838 479.878, 426.613 466.838, 459.03 430.502 M403.664 495.028 C424.839 472.674, 443.737 451.462, 461.855 430.353 M403.664 495.028 C420.482 476.146, 437.193 459.034, 461.855 430.353 M406.488 494.879 C426.185 472.596, 441.891 451.066, 464.011 430.948 M406.488 494.879 C418.197 481.223, 429.963 469.321, 464.011 430.948 M409.313 494.73 C425.038 478.594, 436.964 463.134, 466.835 430.799 M409.313 494.73 C427.535 475.75, 443.905 454.985, 466.835 430.799 M411.468 495.324 C423.758 480.232, 434.436 466.023, 469.66 430.65 M411.468 495.324 C433.323 472.098, 456.101 446.84, 469.66 430.65 M414.293 495.175 C429.27 477.571, 447.446 462.118, 472.484 430.501 M414.293 495.175 C426.654 482.157, 438.17 468.074, 472.484 430.501 M417.117 495.026 C436.483 471.396, 457.056 450.246, 475.308 430.351 M417.117 495.026 C434.27 475.958, 452.94 455.331, 475.308 430.351 M419.942 494.877 C434.926 477.891, 453.466 458.414, 477.464 430.946 M419.942 494.877 C439.88 472.732, 459.204 451.33, 477.464 430.946 M422.766 494.728 C442.973 473.116, 462.92 449.48, 480.289 430.797 M422.766 494.728 C438.172 477.901, 455.852 458.611, 480.289 430.797 M424.922 495.322 C441.32 477.723, 454.321 461.208, 483.113 430.648 M424.922 495.322 C448.759 470.357, 469.665 444.283, 483.113 430.648 M427.746 495.173 C440.607 482.783, 451.694 467.385, 485.938 430.499 M427.746 495.173 C439.691 481.011, 453.536 468.759, 485.938 430.499 M430.571 495.024 C441.358 481.305, 456.08 466.317, 488.762 430.35 M430.571 495.024 C446.402 477.453, 460.337 460.686, 488.762 430.35 M433.395 494.875 C454.646 470.553, 476.42 446.688, 490.918 430.944 M433.395 494.875 C453.846 472.765, 475.189 449.098, 490.918 430.944 M436.22 494.726 C454.533 474.097, 473.28 451.978, 493.742 430.795 M436.22 494.726 C453.226 475.06, 471.645 457.175, 493.742 430.795 M438.376 495.32 C454.628 474.885, 474.118 456.416, 496.567 430.646 M438.376 495.32 C460.937 471.131, 480.753 447.661, 496.567 430.646 M441.2 495.171 C457.317 479.146, 472.169 463.532, 499.391 430.497 M441.2 495.171 C460.276 473.159, 479.629 452.148, 499.391 430.497 M444.025 495.022 C464.152 473.436, 479.769 454.727, 502.216 430.348 M444.025 495.022 C462.083 475.788, 480.149 453.985, 502.216 430.348 M446.849 494.873 C464.841 474.121, 478.676 455.797, 504.371 430.942 M446.849 494.873 C458.547 480.553, 471.682 466.278, 504.371 430.942 M449.674 494.724 C473.828 470.917, 493.704 445.677, 507.196 430.793 M449.674 494.724 C468.326 474.791, 485.657 455.124, 507.196 430.793 M451.829 495.319 C466.953 481.207, 479.863 464.288, 510.02 430.644 M451.829 495.319 C465.817 480.243, 479.487 465.187, 510.02 430.644 M454.654 495.17 C475.055 472.081, 497.593 447.308, 512.845 430.495 M454.654 495.17 C470.124 476.277, 487.034 457.86, 512.845 430.495 M457.478 495.02 C479.203 469.48, 500.628 446.124, 515.669 430.346 M457.478 495.02 C473.389 477.198, 491.324 458.331, 515.669 430.346 M460.303 494.871 C475.012 478.985, 485.689 468.055, 517.825 430.94 M460.303 494.871 C473.688 479.765, 486.861 464.677, 517.825 430.94 M463.127 494.722 C483.198 472.839, 502.316 454.811, 520.65 430.791 M463.127 494.722 C477.268 478.942, 492.131 460.904, 520.65 430.791 M465.283 495.317 C488.595 469.318, 507.372 447.253, 523.474 430.642 M465.283 495.317 C478.336 479.248, 492.814 464.581, 523.474 430.642 M468.107 495.168 C482.955 478.713, 499.105 463.738, 526.298 430.493 M468.107 495.168 C489.125 469.781, 512.975 444.591, 526.298 430.493 M470.932 495.019 C483.952 480.579, 498.466 464.014, 528.454 431.088 M470.932 495.019 C485.957 480.521, 499.28 465.638, 528.454 431.088 M473.756 494.87 C494.667 472.223, 517.127 444.859, 531.279 430.939 M473.756 494.87 C496.083 470.933, 517.62 446.456, 531.279 430.939 M475.912 495.464 C489.77 483.651, 501.756 466.39, 534.103 430.789 M475.912 495.464 C496.183 472.614, 516.642 449.519, 534.103 430.789 M478.736 495.315 C500.309 470.094, 522.076 446.805, 536.928 430.64 M478.736 495.315 C493.439 478.497, 508.749 459.893, 536.928 430.64 M481.561 495.166 C502.154 471.928, 522.11 450.104, 539.752 430.491 M481.561 495.166 C501.343 471.922, 522.155 448.003, 539.752 430.491 M484.385 495.017 C495.962 481.223, 507.539 469.75, 541.908 431.086 M484.385 495.017 C503.47 474.61, 520.876 454.042, 541.908 431.086 M487.21 494.868 C504.852 475.223, 523.756 454.406, 544.732 430.937 M487.21 494.868 C504.565 475.245, 522.395 455.614, 544.732 430.937 M489.366 495.462 C505.21 478.517, 522.381 458.114, 547.557 430.788 M489.366 495.462 C502.543 482.538, 515.081 468.066, 547.557 430.788 M492.19 495.313 C502.135 480.125, 515.961 467.288, 550.381 430.639 M492.19 495.313 C510.932 474.349, 530.639 451.711, 550.381 430.639 M495.015 495.164 C517.393 470.392, 537.85 447.458, 553.206 430.49 M495.015 495.164 C507.366 481.973, 520.365 467.464, 553.206 430.49 M497.839 495.015 C511.682 482.401, 523.654 466.877, 555.361 431.084 M497.839 495.015 C518.08 473.995, 538.227 452.854, 555.361 431.084 M500.664 494.866 C517.68 476.269, 538.244 455.232, 558.186 430.935 M500.664 494.866 C519.666 474.556, 535.623 454.928, 558.186 430.935 M502.819 495.46 C519.95 476.448, 536.18 457.514, 561.01 430.786 M502.819 495.46 C523.994 470.264, 546.507 446.096, 561.01 430.786 M505.644 495.311 C521.616 480.81, 531.983 463.556, 563.835 430.637 M505.644 495.311 C525.982 473.379, 546.854 450.655, 563.835 430.637 M508.468 495.162 C525.939 478.326, 540.675 458.719, 566.659 430.488 M508.468 495.162 C525.166 476.849, 542.843 457.178, 566.659 430.488 M511.293 495.013 C528.165 473.769, 545.219 453.855, 568.815 431.082 M511.293 495.013 C530.14 473.007, 551.227 451.122, 568.815 431.082 M514.117 494.864 C528.112 478.893, 538.751 465.825, 571.64 430.933 M514.117 494.864 C528.38 478.554, 543.511 462.365, 571.64 430.933 M516.273 495.458 C539.215 472.839, 559.613 445.851, 574.464 430.784 M516.273 495.458 C535.529 473.382, 554.139 452.36, 574.464 430.784 M519.097 495.309 C529.857 482.211, 545.86 468.442, 577.288 430.635 M519.097 495.309 C533.67 479.849, 548.08 464.365, 577.288 430.635 M521.922 495.16 C541.981 472.671, 564.394 449.975, 580.113 430.486 M521.922 495.16 C541.945 474.142, 559.917 451.867, 580.113 430.486 M524.746 495.011 C538.919 479.664, 553.444 461.926, 582.269 431.08 M524.746 495.011 C545.574 470.693, 566.708 448.168, 582.269 431.08 M527.571 494.862 C543.809 476.593, 556.056 462.325, 585.093 430.931 M527.571 494.862 C543.413 477.297, 557.775 460.121, 585.093 430.931 M529.726 495.457 C553.095 472.859, 575.31 445.726, 587.918 430.782 M529.726 495.457 C552.047 471.022, 575.293 444.718, 587.918 430.782 M532.551 495.308 C542.418 481.541, 554.635 468.562, 590.742 430.633 M532.551 495.308 C554.068 472.086, 573.422 448.536, 590.742 430.633 M535.375 495.159 C555.993 471.703, 575.09 448.075, 592.898 431.227 M535.375 495.159 C550.656 478.188, 565.141 460.972, 592.898 431.227 M538.2 495.01 C553.873 477.682, 568.856 458.199, 593.716 433.309 M538.2 495.01 C553.579 478.16, 567.566 462.86, 593.716 433.309 M541.024 494.86 C560.78 473.869, 578.871 455.414, 594.534 435.39 M541.024 494.86 C556.652 479.401, 571.907 463.138, 594.534 435.39 M543.18 495.455 C562.169 473.336, 579.063 454.409, 594.683 438.214 M543.18 495.455 C556.018 480.572, 570.111 466.694, 594.683 438.214 M546.005 495.306 C560.858 477.146, 577.529 460.841, 594.832 441.039 M546.005 495.306 C562.683 475.903, 577.803 458.489, 594.832 441.039 M548.829 495.157 C563.578 478.443, 580.105 461.324, 594.981 443.863 M548.829 495.157 C558.111 482.68, 570.603 471.623, 594.981 443.863 M551.654 495.008 C562.191 485.411, 570.197 474.181, 594.461 447.431 M551.654 495.008 C560.031 483.825, 569.736 474.415, 594.461 447.431 M554.478 494.859 C565.115 485.136, 576.153 471.972, 594.61 450.256 M554.478 494.859 C566.328 481.369, 578.398 468.318, 594.61 450.256 M556.634 495.453 C563.378 484.532, 572.858 476.456, 594.759 453.08 M556.634 495.453 C569.346 482.559, 580.96 469.804, 594.759 453.08 M559.458 495.304 C568.803 483.641, 579.323 475.263, 594.908 455.905 M559.458 495.304 C569.485 484.499, 576.844 474.526, 594.908 455.905 M562.283 495.155 C570.963 486.674, 579.126 479.905, 594.388 459.472 M562.283 495.155 C570.51 486.889, 576.408 478.653, 594.388 459.472 M565.107 495.006 C576.212 480.737, 588.347 468.943, 594.537 462.297 M565.107 495.006 C575.259 484.362, 584.194 474.369, 594.537 462.297 M567.932 494.857 C572.846 488.536, 577.878 482.668, 594.686 465.121 M567.932 494.857 C577.535 482.263, 589.464 471.359, 594.686 465.121 M570.087 495.451 C576.018 485.946, 582.971 480.438, 594.835 467.946 M570.087 495.451 C579.665 484.659, 589.751 473.245, 594.835 467.946 M572.912 495.302 C581.295 487.669, 588.753 475.588, 594.315 471.514 M572.912 495.302 C579.229 487.57, 587.102 479.909, 594.315 471.514 M575.736 495.153 C578.258 491.664, 582.094 486.218, 594.465 474.338 M575.736 495.153 C580.675 489.674, 586.757 482.297, 594.465 474.338 M578.561 495.004 C584.087 487.441, 590.673 479.914, 594.614 477.163 M578.561 495.004 C582.054 490.979, 586.829 486.266, 594.614 477.163 M581.385 494.855 C583.649 488.677, 588.342 486.314, 594.763 479.987 M581.385 494.855 C584.209 491.866, 588.083 489.337, 594.763 479.987 M583.541 495.449 C586.847 491.795, 591.048 488.971, 594.243 483.555 M583.541 495.449 C586.586 491.386, 590.521 487.066, 594.243 483.555 M586.365 495.3 C588.438 493.51, 591.142 491.31, 594.392 486.38 M586.365 495.3 C589.03 491.887, 591.575 489.131, 594.392 486.38 M589.19 495.151 C590.279 494.178, 591.358 491.624, 594.541 489.204 M589.19 495.151 C590.17 493.505, 591.902 491.802, 594.541 489.204 M591.346 495.746 C592.153 494.041, 594.35 492.827, 594.69 492.029 M591.346 495.746 C592.403 494.538, 594.037 492.858, 594.69 492.029" stroke="rgb(236, 236, 255)" stroke-width="1.55" fill="none"/>
    <path d="M371 430 C454.975 429.99, 543.819 429.473, 591 430 M591 430 C592.206 431.922, 593.392 431.12, 594 433 M594 433 C595.299 450.233, 593.072 468.383, 594 492 M594 492 C593.452 491.849, 591.774 496.718, 591 495 M591 495 C508.731 494.841, 427.768 494.82, 371 495 M371 495 C369.022 494.886, 368.322 494.913, 368 492 M368 492 C365.955 480.095, 367.602 470.249, 368 433 M368 433 C369.614 433.065, 368.722 430.283, 371 430 M371 430 C371 430, 371 430, 371 430" stroke="rgb(218, 206, 243)" stroke-width="1" fill="none"/>
  </g>
  <g class="text-container" transform="matrix(1 0 0 1 50 10)">
    <text style="text-anchor: middle; font-style: normal; font-weight: 400; font-size: 16px; font-family: &quot;Comic Sans MS&quot;, cursive; white-space: pre;" class="actor actor-box" alignment-baseline="central" dominant-baseline="central" y="452.5" x="431" stroke="rgb(218, 206, 243)" stroke-width="1px" fill="rgb(236, 236, 255)" text-anchor="middle"><tspan dy="0" x="431" stroke="none" stroke-width="1px" fill="rgb(0, 0, 0)" text-anchor="middle" dominant-baseline="central">Switch TP-Link TL-SG108PE</tspan></text>
  </g>
  <g>
    <path d="M50.214 432.778 C50.214 432.778, 50.214 432.778, 50.214 432.778 M50.214 432.778 C50.214 432.778, 50.214 432.778, 50.214 432.778 M50.268 435.606 C51.664 434.547, 51.957 433.287, 54.428 431.283 M50.268 435.606 C52.006 433.857, 52.93 432.397, 54.428 431.283 M50.322 438.434 C52.521 436.451, 54.891 435.072, 57.256 431.229 M50.322 438.434 C52.355 436.68, 53.512 435.076, 57.256 431.229 M49.683 441.982 C52.873 439.561, 55.979 436.721, 60.084 431.175 M49.683 441.982 C53.457 439.087, 56.188 434.938, 60.084 431.175 M49.737 444.81 C53.461 440.216, 54.404 440.574, 62.912 431.12 M49.737 444.81 C53.316 442.576, 54.555 439.407, 62.912 431.12 M49.791 447.638 C54.193 443.514, 56.611 438.696, 65.74 431.066 M49.791 447.638 C53.585 443.842, 56.34 439.587, 65.74 431.066 M49.845 450.466 C55.163 445.667, 61.093 436.858, 68.568 431.012 M49.845 450.466 C56.953 443.774, 62.94 435.439, 68.568 431.012 M49.899 453.294 C55.133 445.439, 62.521 437.201, 70.702 431.679 M49.899 453.294 C57.458 445.093, 65.073 438.728, 70.702 431.679 M49.953 456.122 C59.904 447.777, 64.974 437.408, 73.53 431.625 M49.953 456.122 C56.337 449.403, 64.964 442.061, 73.53 431.625 M50.007 458.95 C60.6 450.251, 71.205 436.34, 76.358 431.57 M50.007 458.95 C60.083 447.329, 71.173 436.748, 76.358 431.57 M50.061 461.778 C60.828 450.325, 70.234 439.215, 79.186 431.516 M50.061 461.778 C59.275 452.916, 67.061 443.981, 79.186 431.516 M50.116 464.606 C56.466 457.103, 64.172 450.777, 82.014 431.462 M50.116 464.606 C59.916 454.2, 69.961 443.899, 82.014 431.462 M50.17 467.433 C62.687 454.5, 79.042 438.06, 84.842 431.408 M50.17 467.433 C62.122 456.486, 73.465 442.904, 84.842 431.408 M50.224 470.261 C64.445 456.901, 76.991 443.84, 87.67 431.354 M50.224 470.261 C59.755 460.738, 69.229 448.963, 87.67 431.354 M50.278 473.089 C58.661 464.198, 69.688 452.33, 90.498 431.3 M50.278 473.089 C57.981 464.737, 67.33 457.057, 90.498 431.3 M50.332 475.917 C58.693 468.075, 70.537 456.946, 93.326 431.246 M50.332 475.917 C62.753 462.465, 77.741 446.964, 93.326 431.246 M49.693 479.466 C63.047 467.351, 74.036 452.135, 96.154 431.191 M49.693 479.466 C62.55 466.28, 75.436 451.251, 96.154 431.191 M49.747 482.293 C62.614 468.877, 75.482 453.611, 98.982 431.137 M49.747 482.293 C66.944 462.749, 85.739 443.864, 98.982 431.137 M49.801 485.121 C64.367 473.537, 77.028 458.827, 101.809 431.083 M49.801 485.121 C61.736 472.237, 73.943 461.267, 101.809 431.083 M49.855 487.949 C65.74 473.703, 78.14 459.865, 103.944 431.75 M49.855 487.949 C65.885 471.014, 81.74 454.869, 103.944 431.75 M49.909 490.777 C67.78 470.356, 87.473 453.521, 106.772 431.695 M49.909 490.777 C66.823 473.685, 85.09 455.026, 106.772 431.695 M50.657 492.885 C69.707 472.56, 85.329 455.989, 109.6 431.641 M50.657 492.885 C70.978 471.52, 93.016 449.954, 109.6 431.641 M52.098 494.272 C76.299 472.384, 95.926 447.901, 112.428 431.587 M52.098 494.272 C68.659 475.601, 86.801 458.629, 112.428 431.587 M52.845 496.379 C76.107 473.767, 100.133 448.838, 115.256 431.533 M52.845 496.379 C65.752 483.145, 79.284 470.727, 115.256 431.533 M55.673 496.325 C75.399 476.944, 91.714 456.079, 118.083 431.479 M55.673 496.325 C79.081 471.276, 103.231 447.463, 118.083 431.479 M58.501 496.271 C77.231 475.946, 96.634 454.223, 120.911 431.425 M58.501 496.271 C73.984 480.978, 89.259 462.985, 120.911 431.425 M61.329 496.217 C80.135 477.368, 93.639 462.663, 123.739 431.371 M61.329 496.217 C80.891 475.669, 101.417 455.165, 123.739 431.371 M64.157 496.162 C80.815 479.819, 93.444 464.834, 126.567 431.317 M64.157 496.162 C80.8 478.752, 96.991 463.046, 126.567 431.317 M66.985 496.108 C85.961 477.082, 102.11 457.691, 129.395 431.262 M66.985 496.108 C80.867 482.691, 95.565 467.401, 129.395 431.262 M69.813 496.054 C87.641 477.962, 107.17 458.117, 132.223 431.208 M69.813 496.054 C89.27 476.288, 108.974 454.123, 132.223 431.208 M72.641 496 C88.274 481.788, 101.463 463.704, 135.051 431.154 M72.641 496 C87.427 477.966, 103.617 461.874, 135.051 431.154 M75.469 495.946 C94.825 475.823, 115.505 456.586, 137.185 431.821 M75.469 495.946 C92.133 477.401, 108.596 460.753, 137.185 431.821 M78.297 495.892 C98.915 474.262, 115.802 455.48, 140.013 431.766 M78.297 495.892 C96.114 477.957, 113.515 458.605, 140.013 431.766 M81.125 495.838 C97.109 480.22, 116.141 461.379, 142.841 431.712 M81.125 495.838 C97.652 479.5, 114.999 461.45, 142.841 431.712 M83.952 495.784 C103.795 474.489, 120.716 455.235, 145.669 431.658 M83.952 495.784 C107.124 472.834, 129.095 448.493, 145.669 431.658 M86.78 495.729 C105.417 473.899, 125.961 457.315, 148.497 431.604 M86.78 495.729 C109.608 471.027, 133.715 447.398, 148.497 431.604 M88.915 496.396 C102.746 484.398, 117.203 468.318, 151.325 431.55 M88.915 496.396 C112.099 472.77, 133.838 448.122, 151.325 431.55 M91.743 496.342 C112.188 472.811, 133.95 451.285, 154.153 431.496 M91.743 496.342 C107.912 479.394, 125.09 462.076, 154.153 431.496 M94.571 496.288 C120.455 473.367, 143.584 445.509, 156.981 431.442 M94.571 496.288 C114.302 475.625, 134.261 456.56, 156.981 431.442 M97.399 496.233 C110.278 481.883, 123.338 469.492, 159.809 431.388 M97.399 496.233 C121.247 472.707, 143.846 447.483, 159.809 431.388 M100.226 496.179 C121.591 476.788, 141.227 453.312, 162.637 431.333 M100.226 496.179 C118.345 478.474, 135.121 460.99, 162.637 431.333 M103.054 496.125 C120.212 479.652, 135.679 462.926, 165.464 431.279 M103.054 496.125 C120.742 476.585, 138.254 459.85, 165.464 431.279 M105.882 496.071 C127.689 473.866, 145.263 453.888, 168.292 431.225 M105.882 496.071 C130.291 471.627, 153.375 447.364, 168.292 431.225 M108.71 496.017 C132.575 473.108, 153.943 448.008, 170.427 431.892 M108.71 496.017 C130.525 474.013, 152.69 450.416, 170.427 431.892 M111.538 495.963 C129.893 478.998, 142.185 463.204, 173.255 431.837 M111.538 495.963 C126.596 481.411, 139.749 467.838, 173.255 431.837 M114.366 495.909 C136.613 473.942, 154.102 453.883, 176.083 431.783 M114.366 495.909 C132.253 478.486, 149.436 460.862, 176.083 431.783 M117.194 495.855 C131.465 482.986, 142.527 469.633, 178.911 431.729 M117.194 495.855 C140.716 470.31, 164.003 446.866, 178.911 431.729 M120.022 495.8 C135.592 479.815, 155.396 457.875, 181.738 431.675 M120.022 495.8 C138.82 475.603, 158.277 455.448, 181.738 431.675 M122.156 496.467 C143.728 475.414, 165.02 450.916, 184.566 431.621 M122.156 496.467 C137.766 481.299, 152.479 465.505, 184.566 431.621 M124.984 496.413 C148.137 472.486, 169.741 448.362, 187.394 431.567 M124.984 496.413 C137.692 483.549, 149.802 469.164, 187.394 431.567 M127.812 496.359 C140.032 483.928, 155.983 470.37, 190.222 431.513 M127.812 496.359 C151.758 470.74, 178.074 444.915, 190.222 431.513 M130.64 496.304 C156.835 469.288, 180.559 446.08, 193.05 431.459 M130.64 496.304 C148.275 477.307, 167.777 457.838, 193.05 431.459 M133.468 496.25 C153.7 476.346, 174.544 452.638, 195.878 431.404 M133.468 496.25 C155.653 472.14, 179.045 449.236, 195.878 431.404 M136.296 496.196 C159.999 470.119, 185.885 444.999, 198.706 431.35 M136.296 496.196 C154.023 477.858, 171.245 460.455, 198.706 431.35 M139.124 496.142 C155.717 478.616, 175.463 459.465, 200.147 432.737 M139.124 496.142 C161.014 472.661, 183.298 450.964, 200.147 432.737 M141.952 496.088 C158.788 478.066, 171.293 463.062, 201.588 434.124 M141.952 496.088 C154.86 482.627, 168.61 466.562, 201.588 434.124 M144.78 496.034 C162.436 475.048, 182.413 457.358, 201.642 436.952 M144.78 496.034 C159.197 481.357, 173.402 465.962, 201.642 436.952 M147.607 495.98 C163.799 477.888, 185.189 458.973, 201.696 439.78 M147.607 495.98 C162.608 480.877, 175.891 466.854, 201.696 439.78 M150.435 495.926 C162.033 482.324, 173.329 473.544, 201.057 443.328 M150.435 495.926 C160.854 485.134, 172.814 472.662, 201.057 443.328 M153.263 495.871 C167.778 482.815, 180.725 467.872, 201.111 446.156 M153.263 495.871 C169.554 479.657, 184.616 463.79, 201.111 446.156 M155.398 496.538 C174.679 480.254, 188.608 459.016, 201.165 448.984 M155.398 496.538 C174.225 477.585, 191.66 459.989, 201.165 448.984 M158.226 496.484 C171.719 483.805, 182.581 468.05, 201.219 451.812 M158.226 496.484 C173.679 481.066, 188.386 464.236, 201.219 451.812 M161.054 496.43 C177.501 478.948, 194.38 461.865, 201.273 454.64 M161.054 496.43 C174.038 481.835, 188.339 466.951, 201.273 454.64 M163.881 496.375 C175.037 485.561, 186.731 472.178, 201.328 457.468 M163.881 496.375 C177.284 482.891, 191.913 467.283, 201.328 457.468 M166.709 496.321 C176.971 484.546, 188.05 474.686, 201.382 460.296 M166.709 496.321 C173.443 489.01, 180.527 481.611, 201.382 460.296 M169.537 496.267 C179.213 486.826, 189.824 474.295, 201.436 463.124 M169.537 496.267 C176.95 489.245, 182.609 482.677, 201.436 463.124 M172.365 496.213 C182.941 484.143, 190.37 476.945, 201.49 465.952 M172.365 496.213 C178.022 490.123, 183.91 484.249, 201.49 465.952 M175.193 496.159 C183.796 490.138, 189.375 478.772, 201.544 468.78 M175.193 496.159 C183.322 485.568, 193.734 477.756, 201.544 468.78 M178.021 496.105 C186.269 487.847, 196.852 480.42, 200.905 472.328 M178.021 496.105 C184.145 488.594, 192.543 480.67, 200.905 472.328 M180.849 496.051 C187.296 488.519, 191.015 486.047, 200.959 475.156 M180.849 496.051 C188.135 488.534, 196.976 479.031, 200.959 475.156 M183.677 495.996 C190.717 490.445, 198.774 483.934, 201.013 477.984 M183.677 495.996 C188.305 491.053, 192.366 487.158, 201.013 477.984 M186.505 495.942 C192.213 492.259, 194.131 486.193, 201.067 480.812 M186.505 495.942 C190.849 490.873, 195.972 486.48, 201.067 480.812 M188.639 496.609 C191.492 494.324, 196.451 489.95, 201.121 483.64 M188.639 496.609 C191.997 494.593, 194.366 491.239, 201.121 483.64 M191.467 496.555 C194.32 491.606, 199.631 490.418, 201.175 486.467 M191.467 496.555 C194.86 491.958, 199.168 488.114, 201.175 486.467 M194.295 496.5 C195.928 494.89, 199.967 491.676, 201.229 489.295 M194.295 496.5 C196.653 494.348, 198.242 491.86, 201.229 489.295" stroke="rgb(236, 236, 255)" stroke-width="2.034" fill="none"/>
    <path d="M53 430 C103.265 428.822, 155.732 431.175, 197 430 M197 430 C199.969 428.856, 199.697 429.823, 200 433 M200 433 C198.593 447.251, 202.127 458.362, 200 492 M200 492 C199.131 495.069, 198.987 496.218, 197 495 M197 495 C157.203 493.99, 118.008 493.706, 53 495 M53 495 C50.986 495.094, 50.283 492.301, 50 492 M50 492 C48.842 474.391, 48.8 455.994, 50 433 M50 433 C50.845 433.432, 50.787 429.317, 53 430 M53 430 C53 430, 53 430, 53 430" stroke="rgb(218, 206, 243)" stroke-width="1" fill="none"/>
  </g>
  <g class="text-container" transform="matrix(1 0 0 1 50 10)">
    <text style="text-anchor: middle; font-style: normal; font-weight: 400; font-size: 16px; font-family: &quot;Comic Sans MS&quot;, cursive; white-space: pre;" class="actor actor-box" alignment-baseline="central" dominant-baseline="central" y="452.5" x="75" stroke="rgb(218, 206, 243)" stroke-width="1px" fill="rgb(236, 236, 255)" text-anchor="middle"><tspan dy="0" x="75" stroke="none" stroke-width="1px" fill="rgb(0, 0, 0)" text-anchor="middle" dominant-baseline="central">Home Assistant</tspan></text>
  </g>
  <g>
    <path d="M729.815 74.995 C729.331 184.073, 728.811 291.986, 729.492 429.245" stroke="rgb(218, 206, 243)" stroke-width="2" fill="none"/>
  </g>
  <g>
    <path d="M646.99 10.01 C646.99 10.01, 646.99 10.01, 646.99 10.01 M646.99 10.01 C646.99 10.01, 646.99 10.01, 646.99 10.01 M644.738 19.171 C647.568 15.534, 651.923 12.259, 654.06 10.111 M644.738 19.171 C646.603 17.477, 649.849 14.42, 654.06 10.111 M644.637 26.241 C648.124 21.497, 653.657 20.09, 661.131 10.212 M644.637 26.241 C649.633 21.104, 657.205 14.89, 661.131 10.212 M644.536 33.312 C650.882 26.683, 656.48 21.303, 668.201 10.313 M644.536 33.312 C651.685 26.362, 660.597 17.911, 668.201 10.313 M644.435 40.382 C650.927 34.554, 657.877 25.396, 675.988 9.717 M644.435 40.382 C654.41 30.045, 663.368 20.287, 675.988 9.717 M644.334 47.452 C660.134 32.961, 672.255 20.701, 683.059 9.818 M644.334 47.452 C654.1 37.328, 664.39 27.633, 683.059 9.818 M644.95 53.826 C656.011 40.168, 669.335 27.563, 690.129 9.919 M644.95 53.826 C661.39 39.088, 678.358 21.798, 690.129 9.919 M644.849 60.896 C657.092 48.274, 671.534 35.267, 697.2 10.02 M644.849 60.896 C657.928 48.262, 670.283 35.177, 697.2 10.02 M644.748 67.966 C660.167 52.708, 673.77 39.938, 704.27 10.12 M644.748 67.966 C662.865 51.023, 679.072 32.464, 704.27 10.12 M645.364 74.34 C671.422 50.868, 693.833 24.795, 711.34 10.221 M645.364 74.34 C662.968 57.856, 677.761 43.22, 711.34 10.221 M651.717 75.138 C674.106 53.281, 697.668 31.483, 718.411 10.322 M651.717 75.138 C672.297 54.675, 690.445 36.937, 718.411 10.322 M658.788 75.239 C679.077 54.418, 697.672 36.237, 725.481 10.423 M658.788 75.239 C674.087 60.537, 689.145 46.059, 725.481 10.423 M665.858 75.34 C685.333 54.426, 706.599 35.465, 733.268 9.827 M665.858 75.34 C690.159 52.453, 714.296 28.235, 733.268 9.827 M673.646 74.744 C692.203 58.511, 709.254 42.243, 740.339 9.928 M673.646 74.744 C696.539 52.74, 718.186 30.786, 740.339 9.928 M680.716 74.845 C702.7 51.795, 728.955 32.146, 747.409 10.029 M680.716 74.845 C699.211 56.055, 720.398 36.626, 747.409 10.029 M687.786 74.946 C706.051 58.835, 722.591 42.651, 754.479 10.13 M687.786 74.946 C707.964 55.355, 729.809 35.551, 754.479 10.13 M694.857 75.047 C717.493 52.546, 738.999 30.223, 761.55 10.231 M694.857 75.047 C715.557 55.08, 734.759 34.041, 761.55 10.231 M701.927 75.147 C724.776 53.459, 748.827 29.848, 768.62 10.332 M701.927 75.147 C720.94 56.064, 741.012 35.23, 768.62 10.332 M708.997 75.248 C724.767 58.923, 737.435 47.451, 775.69 10.433 M708.997 75.248 C731.227 55.03, 752.644 33.373, 775.69 10.433 M716.068 75.349 C743.004 50.198, 770.54 22.144, 782.761 10.534 M716.068 75.349 C740.379 51.588, 763.103 28.392, 782.761 10.534 M723.138 75.45 C738.374 61.241, 757.692 45.12, 790.548 9.938 M723.138 75.45 C746.954 52.985, 770.161 29.211, 790.548 9.938 M730.925 74.854 C742.791 62.265, 757.747 49.351, 797.619 10.039 M730.925 74.854 C754.492 51.241, 779.683 28.139, 797.619 10.039 M737.996 74.955 C759.778 52.842, 781.661 31.457, 804.689 10.14 M737.996 74.955 C760.28 52.694, 783.322 31.571, 804.689 10.14 M745.066 75.056 C768.083 51.771, 789.61 31.74, 811.759 10.241 M745.066 75.056 C770.085 52.609, 792.771 28.088, 811.759 10.241 M752.137 75.157 C776.473 52.393, 797.077 28.46, 814.527 14.524 M752.137 75.157 C773.528 54.854, 793.042 34.699, 814.527 14.524 M759.207 75.258 C780.158 54.191, 801.573 35.484, 814.426 21.594 M759.207 75.258 C771.246 64.136, 784.001 51.947, 814.426 21.594 M766.277 75.359 C776.597 67.001, 786.493 55.821, 814.325 28.664 M766.277 75.359 C781.37 59.565, 797.929 45.228, 814.325 28.664 M773.348 75.46 C784.004 65.234, 795.284 53.826, 814.224 35.735 M773.348 75.46 C782.503 67.039, 791.805 57.748, 814.224 35.735 M780.418 75.561 C790.385 68.59, 798.129 56.969, 814.123 42.805 M780.418 75.561 C789.281 65.917, 800.798 56.126, 814.123 42.805 M788.205 74.965 C796.136 70.679, 801.796 61.69, 814.022 49.875 M788.205 74.965 C793.38 70.168, 798.702 64.943, 814.022 49.875 M795.276 75.066 C801.246 71.276, 804.737 65.331, 813.921 56.946 M795.276 75.066 C800.096 71.276, 803.552 67.924, 813.921 56.946 M802.346 75.167 C805.877 70.525, 808.775 68.998, 813.82 64.016 M802.346 75.167 C806.731 72.076, 810.211 67.461, 813.82 64.016 M809.416 75.268 C811.021 73.986, 812.694 72.325, 813.719 71.086 M809.416 75.268 C811.176 73.815, 812.319 72, 813.719 71.086" stroke="rgb(236, 236, 255)" stroke-width="2.878" fill="none"/>
    <path d="M647 10 C700.069 6.787, 754.292 8.257, 811 10 M647 10 C692.531 8.958, 738.101 9.741, 811 10 M811 10 C811.227 8.031, 812.911 10.911, 814 13 M811 10 C813.377 7.926, 814.2 12.67, 814 13 M814 13 C814.907 32.073, 813.076 49.815, 814 72 M814 13 C814.088 35.227, 815.336 59.434, 814 72 M814 72 C814.202 74.682, 811.026 73.204, 811 75 M814 72 C813.931 75.595, 813.258 76.033, 811 75 M811 75 C777.555 74.644, 742.19 76.082, 647 75 M811 75 C770.514 73.693, 730.446 74.757, 647 75 M647 75 C644.405 74.519, 643.855 75.298, 644 72 M647 75 C643.059 75.756, 642.27 74.915, 644 72 M644 72 C643.504 49.891, 642.765 25.124, 644 13 M644 72 C645.425 52.026, 644.55 30.419, 644 13 M644 13 C642.259 13.244, 643.905 8.09, 647 10 M644 13 C645.756 11.588, 645.802 8.699, 647 10 M647 10 C647 10, 647 10, 647 10 M647 10 C647 10, 647 10, 647 10" stroke="rgb(218, 206, 243)" stroke-width="1" fill="none"/>
  </g>
  <g class="text-container" transform="matrix(1 0 0 1 50 10)">
    <text style="text-anchor: middle; font-style: normal; font-weight: 400; font-size: 16px; font-family: &quot;Comic Sans MS&quot;, cursive; white-space: pre;" class="actor actor-box" alignment-baseline="central" dominant-baseline="central" y="32.5" x="679" stroke="rgb(218, 206, 243)" stroke-width="1px" fill="rgb(236, 236, 255)" text-anchor="middle"><tspan dy="0" x="679" stroke="none" stroke-width="1px" fill="rgb(0, 0, 0)" text-anchor="middle" dominant-baseline="central">Cámara PoE ReoLink</tspan></text>
  </g>
  <g>
    <path d="M481.338 75.396 C480.648 185.916, 480.422 294.526, 480.947 430.444" stroke="rgb(218, 206, 243)" stroke-width="2" fill="none"/>
  </g>
  <g>
    <path d="M367.978 13.024 C367.978 13.024, 367.978 13.024, 367.978 13.024 M367.978 13.024 C367.978 13.024, 367.978 13.024, 367.978 13.024 M368.163 17.262 C369.241 15.468, 371.405 13.018, 374.243 10.627 M368.163 17.262 C370.294 14.656, 372.858 12.378, 374.243 10.627 M367.673 22.238 C370.013 17.731, 374.697 15.126, 378.482 10.442 M367.673 22.238 C371.762 18.561, 375.408 14.41, 378.482 10.442 M367.858 26.477 C372.391 23.915, 377.218 18.448, 382.721 10.257 M367.858 26.477 C372.138 22.61, 375.379 19.609, 382.721 10.257 M368.043 30.716 C371.892 25.548, 378.011 17.8, 386.284 10.809 M368.043 30.716 C372.042 27.4, 375.817 22.138, 386.284 10.809 M368.228 34.954 C377.325 25.201, 383.042 18.678, 390.522 10.624 M368.228 34.954 C372.224 29.134, 378.219 23.847, 390.522 10.624 M367.737 39.93 C375.652 31.991, 385.761 24.625, 394.761 10.439 M367.737 39.93 C378.367 28.151, 387.419 18.405, 394.761 10.439 M367.922 44.169 C377.971 32.166, 391.659 18.358, 399 10.254 M367.922 44.169 C374.27 35.632, 382.368 28.564, 399 10.254 M368.107 48.407 C377.507 37.218, 384.077 27.856, 402.563 10.806 M368.107 48.407 C377.447 39.719, 384.957 30.213, 402.563 10.806 M368.293 52.646 C382.67 38.731, 393.735 21.351, 406.801 10.621 M368.293 52.646 C379.139 40.537, 389.666 30.865, 406.801 10.621 M367.802 57.622 C378.859 46.024, 390.472 29.856, 411.04 10.436 M367.802 57.622 C377.194 46.933, 385.747 36.975, 411.04 10.436 M367.987 61.86 C385.493 43.16, 400.529 24.031, 415.278 10.251 M367.987 61.86 C382.349 45.893, 399.18 27.73, 415.278 10.251 M368.172 66.099 C385.887 49.14, 402.003 29.978, 418.841 10.803 M368.172 66.099 C387.721 43.952, 407.819 21.686, 418.841 10.803 M367.682 71.075 C380.626 56.172, 396.485 41.984, 423.08 10.618 M367.682 71.075 C388.698 50.341, 407.597 27.876, 423.08 10.618 M369.218 73.839 C390.681 53.089, 409.312 29.267, 427.319 10.433 M369.218 73.839 C390.001 51.842, 411.198 27.895, 427.319 10.433 M372.105 75.128 C391.624 54.726, 412.605 31.378, 430.882 10.985 M372.105 75.128 C392.32 51.738, 412.58 30.033, 430.882 10.985 M375.668 75.681 C391.206 58.526, 407.337 37.202, 435.12 10.8 M375.668 75.681 C394.751 55.213, 412.696 35.615, 435.12 10.8 M379.907 75.496 C392.878 60.89, 409.121 46.413, 439.359 10.615 M379.907 75.496 C394.896 59.676, 407.554 44.261, 439.359 10.615 M384.145 75.31 C398.663 59.002, 416.757 39.179, 443.597 10.43 M384.145 75.31 C403.339 55.582, 421.455 33.625, 443.597 10.43 M388.384 75.125 C402.998 61.057, 415.328 48.159, 447.16 10.982 M388.384 75.125 C402.349 61.405, 415.002 46.639, 447.16 10.982 M391.947 75.678 C406.341 61.559, 419.171 42.976, 451.399 10.797 M391.947 75.678 C415.825 48.596, 438.81 23.695, 451.399 10.797 M396.186 75.493 C419.727 51.895, 440.248 24.481, 455.638 10.612 M396.186 75.493 C418.968 49.024, 443.559 23.65, 455.638 10.612 M400.424 75.307 C414.392 60.215, 431.134 42.449, 459.876 10.427 M400.424 75.307 C423.519 51.405, 444.152 28.388, 459.876 10.427 M404.663 75.122 C421.348 57.937, 437.21 38.277, 463.439 10.979 M404.663 75.122 C424.637 54.644, 443.695 33.103, 463.439 10.979 M408.226 75.675 C426.852 58.302, 442.082 37.422, 467.678 10.794 M408.226 75.675 C426.312 57.246, 442.576 38.049, 467.678 10.794 M412.465 75.49 C426.626 56.816, 444.51 41.063, 471.916 10.609 M412.465 75.49 C427.064 60.384, 441.99 43.207, 471.916 10.609 M416.703 75.304 C434.909 56.877, 453.414 36.989, 476.155 10.424 M416.703 75.304 C432.229 58.094, 447.424 40.693, 476.155 10.424 M420.942 75.119 C435.443 58.793, 448.639 42.318, 479.718 10.976 M420.942 75.119 C432.856 60.697, 446.216 45.836, 479.718 10.976 M424.505 75.672 C440.025 57.903, 456.036 43.373, 483.957 10.791 M424.505 75.672 C446.679 52.841, 467.575 28.204, 483.957 10.791 M428.743 75.487 C446.548 56.215, 465.434 35.46, 488.195 10.606 M428.743 75.487 C441.015 62.808, 452.537 49.875, 488.195 10.606 M432.982 75.302 C451.409 54.914, 469.054 35.872, 492.434 10.421 M432.982 75.302 C448.503 56.79, 464.639 39.56, 492.434 10.421 M437.221 75.116 C452.579 58.884, 463.12 45.785, 495.997 10.973 M437.221 75.116 C449.182 62.318, 460.878 47.464, 495.997 10.973 M440.784 75.669 C458.05 54.302, 476.217 35.811, 500.235 10.788 M440.784 75.669 C462.975 51.475, 483.88 27.194, 500.235 10.788 M445.022 75.484 C463.652 53.348, 485.522 30.283, 504.474 10.603 M445.022 75.484 C467.946 51.537, 491.486 26.858, 504.474 10.603 M449.261 75.299 C469.558 53.633, 490.1 32.095, 508.713 10.418 M449.261 75.299 C465.724 56.711, 481.141 39.434, 508.713 10.418 M453.499 75.113 C477.065 49.454, 500.918 26.29, 512.276 10.97 M453.499 75.113 C473.921 53.431, 492.817 30.033, 512.276 10.97 M457.062 75.666 C478.691 52.923, 498.645 32.15, 516.514 10.785 M457.062 75.666 C470.925 60.472, 483.634 47.256, 516.514 10.785 M461.301 75.481 C481.536 52.923, 504.245 29.522, 520.753 10.6 M461.301 75.481 C474.276 63.392, 486.818 49.203, 520.753 10.6 M465.54 75.296 C483.833 57.305, 500.483 37.359, 524.991 10.415 M465.54 75.296 C480.166 61.111, 492.581 46.909, 524.991 10.415 M469.103 75.848 C479.845 62.986, 493.5 48.566, 528.554 10.967 M469.103 75.848 C482.927 59.974, 497.834 44.761, 528.554 10.967 M473.341 75.663 C496.005 49.538, 515.735 25.483, 532.793 10.782 M473.341 75.663 C490.942 56.174, 507.718 37.762, 532.793 10.782 M477.58 75.478 C488.216 61.323, 501.343 48.362, 537.032 10.597 M477.58 75.478 C497.716 52.767, 517.366 31.125, 537.032 10.597 M481.818 75.293 C497.423 57.692, 514.132 37.919, 541.27 10.412 M481.818 75.293 C502.62 51.256, 524.883 27.837, 541.27 10.412 M485.381 75.845 C502.347 61.23, 513.242 42.084, 544.833 10.964 M485.381 75.845 C506.32 52.271, 526.767 30.015, 544.833 10.964 M489.62 75.66 C511.127 52.752, 532.419 28.929, 549.072 10.779 M489.62 75.66 C502.097 61.033, 515.188 48.415, 549.072 10.779 M493.859 75.475 C513.497 52.361, 537.844 27.708, 553.311 10.594 M493.859 75.475 C510.557 56.308, 526.237 39.38, 553.311 10.594 M498.097 75.29 C509.142 60.354, 523.863 48.164, 556.874 11.146 M498.097 75.29 C514.107 58.897, 529.606 40.668, 556.874 11.146 M501.66 75.842 C518.952 57.211, 537.313 37.561, 561.112 10.961 M501.66 75.842 C516.558 59.828, 530.188 43.744, 561.112 10.961 M505.899 75.657 C525.325 56.066, 547.721 33.739, 565.351 10.776 M505.899 75.657 C521.03 59.819, 535.691 42.253, 565.351 10.776 M510.137 75.472 C531.625 53.557, 556.659 27.267, 569.589 10.591 M510.137 75.472 C531.049 51.458, 552.939 27.749, 569.589 10.591 M514.376 75.287 C536.768 51.801, 554.532 29.962, 573.152 11.143 M514.376 75.287 C529.017 58.053, 543.892 42.077, 573.152 11.143 M517.939 75.839 C542.222 50.814, 561.754 27.53, 577.391 10.958 M517.939 75.839 C537.528 55.531, 556.107 33.155, 577.391 10.958 M522.178 75.654 C543.521 51.309, 564.978 32.522, 581.63 10.773 M522.178 75.654 C544.218 51.96, 567.155 28, 581.63 10.773 M526.416 75.469 C545.202 55.367, 563.261 32.294, 585.868 10.588 M526.416 75.469 C543.976 55.515, 563.281 36.291, 585.868 10.588 M530.655 75.284 C546.618 54.937, 564.028 36.77, 589.431 11.14 M530.655 75.284 C554.26 52.345, 575.578 27.306, 589.431 11.14 M534.218 75.836 C551.481 54.885, 570.758 37.409, 592.994 11.693 M534.218 75.836 C555.367 53.393, 574.061 32.177, 592.994 11.693 M538.456 75.651 C558.443 54.495, 579.409 28.325, 594.53 14.457 M538.456 75.651 C559.475 50.958, 582.197 28.177, 594.53 14.457 M542.695 75.466 C564.157 54.17, 583.528 34.075, 594.04 19.433 M542.695 75.466 C556.803 59.752, 571.581 43.701, 594.04 19.433 M546.934 75.281 C559.092 59.488, 572.329 45.752, 594.225 23.671 M546.934 75.281 C559.035 62.658, 570.284 48.37, 594.225 23.671 M550.497 75.833 C565.17 56.416, 583.574 40.768, 594.41 27.91 M550.497 75.833 C563.818 62.122, 576.796 46.832, 594.41 27.91 M554.735 75.648 C568.696 60.474, 582.878 41.543, 593.919 32.886 M554.735 75.648 C562.558 66.321, 570.155 57.641, 593.919 32.886 M558.974 75.463 C569.072 63.768, 579.579 53.479, 594.105 37.124 M558.974 75.463 C567.907 65.403, 577.695 54.029, 594.105 37.124 M563.212 75.278 C573.325 65.027, 580.339 58.739, 594.29 41.363 M563.212 75.278 C571.506 65.136, 582.459 55.056, 594.29 41.363 M566.776 75.83 C578.824 64.505, 586.863 51.14, 593.799 46.339 M566.776 75.83 C577.481 64.154, 587.646 53.561, 593.799 46.339 M571.014 75.645 C579.065 68.577, 581.186 60.855, 593.984 50.577 M571.014 75.645 C578.041 66.928, 586.169 59.645, 593.984 50.577 M575.253 75.46 C581.295 70.355, 587.831 61.541, 594.169 54.816 M575.253 75.46 C581.447 68.514, 589.71 60.961, 594.169 54.816 M579.491 75.275 C582.806 69.461, 590.131 65.674, 594.354 59.055 M579.491 75.275 C584.163 69.881, 588.264 64.888, 594.354 59.055 M583.054 75.827 C586.913 72.516, 589.75 66.757, 593.864 64.03 M583.054 75.827 C588.103 71.789, 591.779 67.191, 593.864 64.03 M587.293 75.642 C589.688 72.623, 592.553 69.462, 594.049 68.269 M587.293 75.642 C589.13 73.123, 591.146 70.738, 594.049 68.269 M591.532 75.457 C592.641 74.532, 593.774 73.509, 594.234 72.508 M591.532 75.457 C592.169 74.79, 592.751 74.205, 594.234 72.508" stroke="rgb(236, 236, 255)" stroke-width="1.689" fill="none"/>
    <path d="M371 10 C443.26 8.049, 518.062 6.87, 591 10 M591 10 C594.619 8.438, 594.897 13.106, 594 13 M594 13 C593.147 30.155, 592.353 45.648, 594 72 M594 72 C592.223 74.239, 591.242 74.568, 591 75 M591 75 C521.72 76.757, 448.819 75.784, 371 75 M371 75 C369.789 76.268, 368.424 74.932, 368 72 M368 72 C366.573 54.004, 367.364 36.959, 368 13 M368 13 C369.182 10.514, 368.572 10.153, 371 10 M371 10 C371 10, 371 10, 371 10" stroke="rgb(218, 206, 243)" stroke-width="1" fill="none"/>
  </g>
  <g class="text-container" transform="matrix(1 0 0 1 50 10)">
    <text style="text-anchor: middle; font-style: normal; font-weight: 400; font-size: 16px; font-family: &quot;Comic Sans MS&quot;, cursive; white-space: pre;" class="actor actor-box" alignment-baseline="central" dominant-baseline="central" y="32.5" x="431" stroke="rgb(218, 206, 243)" stroke-width="1px" fill="rgb(236, 236, 255)" text-anchor="middle"><tspan dy="0" x="431" stroke="none" stroke-width="1px" fill="rgb(0, 0, 0)" text-anchor="middle" dominant-baseline="central">Switch TP-Link TL-SG108PE</tspan></text>
  </g>
  <g>
    <path d="M125.639 73.808 C125.277 159.122, 125.168 246.283, 125.476 431.101 M125.48 74.533 C124.101 211.856, 124.445 348.064, 125.313 429.614" stroke="rgb(218, 206, 243)" stroke-width="2" fill="none"/>
  </g>
  <g>
    <path d="M50.131 12.834 C50.131 12.834, 50.131 12.834, 50.131 12.834 M50.131 12.834 C50.131 12.834, 50.131 12.834, 50.131 12.834 M50.006 17.832 C52.326 14.655, 53.755 13.616, 56.204 9.985 M50.006 17.832 C51.465 15.343, 53.012 13.464, 56.204 9.985 M49.881 22.831 C52.972 19.311, 54.221 16.187, 59.798 10.274 M49.881 22.831 C52.662 20.343, 55.23 16.442, 59.798 10.274 M49.757 27.829 C53.808 22.95, 55.083 19.123, 63.392 10.564 M49.757 27.829 C51.788 24.986, 54.535 20.526, 63.392 10.564 M50.251 32.043 C56.641 24.786, 63.612 17.452, 67.606 10.069 M50.251 32.043 C57.072 24.157, 61.777 15.49, 67.606 10.069 M50.126 37.041 C53.576 31.219, 59.294 22.019, 71.2 10.359 M50.126 37.041 C56.345 28.531, 64.733 19.075, 71.2 10.359 M50.002 42.04 C54.265 34.207, 60.448 28.479, 74.794 10.649 M50.002 42.04 C58.065 31.166, 66.939 20.996, 74.794 10.649 M49.877 47.038 C60.9 33.932, 71.861 22.284, 79.007 10.154 M49.877 47.038 C55.245 38.172, 61.914 30.322, 79.007 10.154 M49.752 52.036 C60.813 41.112, 70.957 25.469, 82.601 10.444 M49.752 52.036 C59.145 38.697, 68.944 26.515, 82.601 10.444 M50.247 56.25 C64.827 39.188, 78.072 22.826, 86.195 10.734 M50.247 56.25 C64.085 40.203, 76.124 23.634, 86.195 10.734 M50.122 61.249 C61.026 48.089, 72.009 30.893, 90.409 10.239 M50.122 61.249 C62.866 44.57, 77.683 26.123, 90.409 10.239 M49.997 66.247 C65.217 50.682, 75.08 34.669, 94.003 10.529 M49.997 66.247 C61.441 54.05, 70.111 41.41, 94.003 10.529 M49.872 71.245 C68.83 46.618, 87.568 25.054, 98.216 10.034 M49.872 71.245 C68.45 49.182, 86.161 26.559, 98.216 10.034 M51.606 73.89 C66.014 53.371, 83.754 33.157, 101.81 10.324 M51.606 73.89 C69.695 50.685, 85.881 29.057, 101.81 10.324 M54.58 74.964 C67.733 59.228, 78.96 44.235, 105.404 10.614 M54.58 74.964 C70.846 52.191, 88.548 32.569, 105.404 10.614 M58.174 75.254 C77.195 52.126, 96.608 28.751, 109.618 10.119 M58.174 75.254 C72.321 57.064, 86.304 41.247, 109.618 10.119 M62.388 74.759 C79.072 56.039, 92.441 33.929, 113.212 10.409 M62.388 74.759 C79.852 51.693, 98.332 30.942, 113.212 10.409 M65.982 75.049 C85.902 50.03, 104.429 23.705, 116.805 10.699 M65.982 75.049 C78.701 59.481, 92.905 42.25, 116.805 10.699 M70.196 74.554 C80.421 58.929, 94.84 46.634, 121.019 10.204 M70.196 74.554 C81.432 60.192, 95.016 45.464, 121.019 10.204 M73.789 74.844 C89.963 58.837, 101.286 40.278, 124.613 10.494 M73.789 74.844 C88.391 57.665, 103.211 39.468, 124.613 10.494 M77.383 75.134 C95.706 51.307, 114.969 27.13, 128.207 10.784 M77.383 75.134 C89.959 57.748, 104.404 42.624, 128.207 10.784 M81.597 74.639 C99.656 50.782, 116.829 27.789, 132.421 10.289 M81.597 74.639 C98.722 50.658, 118.082 26.877, 132.421 10.289 M85.191 74.929 C100.657 58.467, 113.401 40.068, 136.014 10.579 M85.191 74.929 C103.157 53.365, 119.453 29.994, 136.014 10.579 M88.785 75.219 C104.742 57.582, 117.644 39.46, 139.608 10.869 M88.785 75.219 C105.734 52.445, 123.723 30.09, 139.608 10.869 M92.998 74.724 C105.438 55.548, 120.917 37.508, 143.822 10.374 M92.998 74.724 C102.699 62.19, 114.262 46.969, 143.822 10.374 M96.592 75.014 C106.892 60.272, 119.005 46.518, 147.416 10.664 M96.592 75.014 C114.592 51.3, 134.662 28.522, 147.416 10.664 M100.186 75.304 C111.168 60.086, 125.176 45.596, 151.63 10.169 M100.186 75.304 C115.082 56.095, 129.55 39.07, 151.63 10.169 M104.4 74.809 C117.651 58.143, 128.271 42.467, 155.223 10.459 M104.4 74.809 C119.943 56.759, 133.341 37.594, 155.223 10.459 M107.994 75.099 C124.227 51.405, 142.6 30.238, 158.817 10.749 M107.994 75.099 C119.955 60.301, 131.49 45.413, 158.817 10.749 M111.588 75.389 C129.42 52.634, 146.405 34.358, 163.031 10.254 M111.588 75.389 C129.844 54.458, 146.563 31.796, 163.031 10.254 M115.801 74.894 C135.015 50.089, 153.024 26.191, 166.625 10.544 M115.801 74.894 C131.026 58.095, 144.39 40.543, 166.625 10.544 M119.395 75.184 C136.82 55.006, 153.908 32.693, 170.219 10.833 M119.395 75.184 C136.666 53.375, 152.838 32.528, 170.219 10.833 M123.609 74.689 C137.03 57.181, 153.166 37.681, 174.432 10.339 M123.609 74.689 C143.78 50.544, 162.727 26.164, 174.432 10.339 M127.203 74.979 C147.142 47.422, 165.288 24.633, 178.026 10.628 M127.203 74.979 C138.555 60.348, 151.084 45.431, 178.026 10.628 M130.797 75.269 C147.69 54.035, 163.98 32.648, 181.62 10.918 M130.797 75.269 C146.383 54.746, 161.67 35.806, 181.62 10.918 M135.01 74.774 C152.143 49.337, 172.783 26.347, 185.834 10.423 M135.01 74.774 C147.738 57.883, 159.92 42.251, 185.834 10.423 M138.604 75.064 C154.094 54.188, 168.806 34.13, 189.428 10.713 M138.604 75.064 C157.641 50.938, 175.494 28.557, 189.428 10.713 M142.198 75.354 C163.953 48.052, 181.409 25.399, 193.641 10.218 M142.198 75.354 C158.571 52.262, 178.224 29.986, 193.641 10.218 M146.412 74.859 C161.561 58.274, 171.164 42.733, 197.235 10.508 M146.412 74.859 C165.216 52.726, 183.109 29.54, 197.235 10.508 M150.006 75.149 C162.495 59.507, 173.363 43.376, 199.59 12.368 M150.006 75.149 C165.769 55.787, 181.474 37.093, 199.59 12.368 M153.599 75.438 C166.983 59.509, 178.199 46.445, 200.084 16.581 M153.599 75.438 C163.505 61.837, 175.177 48.133, 200.084 16.581 M157.813 74.944 C175.573 52.945, 188.29 32.468, 199.96 21.58 M157.813 74.944 C166.587 64.095, 173.581 53.247, 199.96 21.58 M161.407 75.233 C171.673 60.776, 185.449 45.369, 200.454 25.794 M161.407 75.233 C171.756 63.57, 180.121 50.232, 200.454 25.794 M165.621 74.739 C177.03 61.197, 191.898 44.324, 200.33 30.792 M165.621 74.739 C177.56 58.807, 190.67 43.016, 200.33 30.792 M169.215 75.028 C179.733 59.254, 194.171 46.152, 200.205 35.79 M169.215 75.028 C179.052 64.036, 185.995 52.737, 200.205 35.79 M172.808 75.318 C181.204 66.24, 188.786 53.737, 200.08 40.789 M172.808 75.318 C178.812 67.912, 185.841 58.372, 200.08 40.789 M177.022 74.823 C181.617 68.682, 187.435 58.556, 199.955 45.787 M177.022 74.823 C183.902 64.359, 191.996 55.555, 199.955 45.787 M180.616 75.113 C184.734 70.676, 189.219 62.688, 199.83 50.786 M180.616 75.113 C184.034 69.64, 187.943 66.27, 199.83 50.786 M184.21 75.403 C188.291 69.573, 191.444 64.323, 200.325 54.999 M184.21 75.403 C189.268 66.678, 195.681 59.282, 200.325 54.999 M188.424 74.908 C192.71 67.695, 197.574 63.053, 200.2 59.998 M188.424 74.908 C190.349 71.359, 192.934 68.256, 200.2 59.998 M192.017 75.198 C193.982 71.335, 196.348 69.445, 200.075 64.996 M192.017 75.198 C193.797 72.23, 196.552 69.686, 200.075 64.996 M195.611 75.488 C196.72 74.513, 198.239 73.004, 199.95 69.995 M195.611 75.488 C196.876 73.852, 198.075 72.123, 199.95 69.995" stroke="rgb(236, 236, 255)" stroke-width="1.677" fill="none"/>
    <path d="M53 10 C99.049 9.862, 144.599 9.385, 197 10 M197 10 C200.127 8.51, 200.339 9.934, 200 13 M200 13 C201.287 25.908, 197.948 41.124, 200 72 M200 72 C199.744 74.066, 200.004 76.406, 197 75 M197 75 C150.713 74.764, 108.005 75.543, 53 75 M53 75 C49.643 73.742, 50.508 73.93, 50 72 M50 72 C50.561 55.606, 51.749 36.732, 50 13 M50 13 C48.476 12.396, 51.135 10.266, 53 10 M53 10 C53 10, 53 10, 53 10" stroke="rgb(218, 206, 243)" stroke-width="1" fill="none"/>
  </g>
  <g class="text-container" transform="matrix(1 0 0 1 50 10)">
    <text style="text-anchor: middle; font-style: normal; font-weight: 400; font-size: 16px; font-family: &quot;Comic Sans MS&quot;, cursive; white-space: pre;" class="actor actor-box" alignment-baseline="central" dominant-baseline="central" y="32.5" x="75" stroke="rgb(218, 206, 243)" stroke-width="1px" fill="rgb(236, 236, 255)" text-anchor="middle"><tspan dy="0" x="75" stroke="none" stroke-width="1px" fill="rgb(0, 0, 0)" text-anchor="middle" dominant-baseline="central">Home Assistant</tspan></text>
  </g>
  <g class="text-container" transform="matrix(1 0 0 1 50 10)">
    <text style="font-style: normal; font-weight: 400; font-size: 16px; font-family: &quot;Comic Sans MS&quot;, cursive; white-space: pre;" dy="1em" class="messageText" alignment-baseline="middle" dominant-baseline="middle" text-anchor="middle" y="80" x="252" stroke="none" stroke-width="1px" fill="rgb(51, 51, 51)">POST /logon.cgi</text>
  </g>
  <g class="text-container" transform="matrix(1 0 0 1 50 10)">
    <text style="font-style: normal; font-weight: 400; font-size: 16px; font-family: &quot;Comic Sans MS&quot;, cursive; white-space: pre;" dy="1em" class="messageText" alignment-baseline="middle" dominant-baseline="middle" text-anchor="middle" y="99" x="252" stroke="none" stroke-width="1px" fill="rgb(51, 51, 51)">Autenticación (username/password)</text>
  </g>
  <g>
    <path d="M125.198 143.21 C244.44 144.621, 363.797 142.662, 475.796 142.525" stroke="rgb(51, 51, 51)" stroke-width="1.5" fill="none"/>
  </g>
  <g>
    <path d="M468.251 136.743 C468.251 136.743, 468.251 136.743, 468.251 136.743 M468.251 136.743 C468.251 136.743, 468.251 136.743, 468.251 136.743 M468.52 140.236 C468.686 139.5, 469.274 138.559, 469.678 137.697 M468.583 140.313 C468.89 139.762, 469.222 138.992, 469.96 137.689 M468.656 143.552 C469.943 142.046, 470.19 140.429, 472.248 139.232 M468.724 143.842 C469.591 142.347, 470.306 141.1, 471.887 138.762 M469.64 146.367 C469.913 145.384, 471.226 143.41, 473.617 140.041 M469.601 146.497 C471.197 143.889, 471.891 141.476, 473.118 140.034 M472.107 144.953 C473.477 143.856, 474.832 142.157, 475.708 140.077 M472.496 144.842 C473.427 143.74, 473.852 142.714, 475.436 140.164 M475.809 143.43 C476.364 142.255, 477.06 141.754, 477.283 140.716 M475.724 143.403 C476.356 142.736, 476.682 141.978, 477.477 141.057 M479.107 141.952 C479.107 141.952, 479.107 141.952, 479.107 141.952 M479.107 141.952 C479.107 141.952, 479.107 141.952, 479.107 141.952" stroke="rgb(51, 51, 51)" stroke-width="1.139" fill="none"/>
    <path d="M468.575 137.978 C470.042 138.331, 472.716 140.438, 477.896 142.586 M468.291 137.101 C471.474 139.037, 475.041 140.136, 478.815 141.999 M478.356 142.659 C476.545 143.785, 472.612 144.969, 468.764 147.209 M479.281 142.23 C474.639 143.679, 470.986 146.072, 468.649 146.704 M469.845 146.909 C469.174 142.716, 468.236 140.831, 467.905 137.708 M468.667 147.069 C468.858 145.208, 468.951 142.33, 468.063 136.637" stroke="rgb(51, 51, 51)" stroke-width="1" fill="none"/>
  </g>
  <g class="text-container" transform="matrix(1 0 0 1 50 10)">
    <text style="font-style: normal; font-weight: 400; font-size: 16px; font-family: &quot;Comic Sans MS&quot;, cursive; white-space: pre;" dy="1em" class="messageText" alignment-baseline="middle" dominant-baseline="middle" text-anchor="middle" y="147" x="255" stroke="none" stroke-width="1px" fill="rgb(51, 51, 51)">Respuesta 200 OK</text>
  </g>
  <g class="text-container" transform="matrix(1 0 0 1 50 10)">
    <text style="font-style: normal; font-weight: 400; font-size: 16px; font-family: &quot;Comic Sans MS&quot;, cursive; white-space: pre;" dy="1em" class="messageText" alignment-baseline="middle" dominant-baseline="middle" text-anchor="middle" y="166" x="255" stroke="none" stroke-width="1px" fill="rgb(51, 51, 51)">Sesión iniciada</text>
  </g>
  <g>
    <path d="M480.558 208.912 C399.946 210.406, 319.125 209.827, 128.334 208.523 M479.382 209.561 C378.475 209.607, 277.117 209.737, 128.732 208.483" stroke="rgb(51, 51, 51)" stroke-width="1.5" fill="none" stroke-dasharray="3 3"/>
  </g>
  <g>
    <path d="M126.921 208.97 C126.921 208.97, 126.921 208.97, 126.921 208.97 M126.921 208.97 C126.921 208.97, 126.921 208.97, 126.921 208.97 M128.328 210.215 C129.409 209.176, 130.21 207.969, 130.458 206.921 M128.62 210.119 C129.435 209.063, 130.248 207.791, 131.023 206.956 M130.449 209.861 C131.607 208.655, 132.235 207.407, 134.095 205.087 M130.968 210.241 C131.808 209.25, 132.618 207.47, 133.968 205.788 M131.529 211.258 C134.967 209.378, 137.102 206.662, 137.666 204.2 M132.027 211.346 C134.29 209.385, 135.843 206.807, 137.993 203.913 M133.907 212.522 C134.51 210.932, 136.213 210.135, 137.863 207.224 M133.881 212.665 C135.095 211.119, 136.294 209.765, 137.641 207.731 M136.495 212.889 C136.961 212.316, 137.383 211.642, 137.715 210.481 M136.274 212.963 C136.709 212.363, 136.979 211.987, 137.837 210.615" stroke="rgb(51, 51, 51)" stroke-width="1.35" fill="none"/>
    <path d="M139.027 214.367 C133.159 213.08, 130.767 210.245, 126.339 207.821 M137.72 214.091 C134.001 212.452, 129.596 209.977, 126.895 208.966 M127.182 210.005 C131.767 207.852, 135.097 204.894, 136.908 203.756 M126.942 209.164 C129.934 207.88, 132.715 206.245, 136.875 204.225 M136.142 203.677 C137.334 207.426, 137.079 212.344, 137.495 213.169 M136.528 204.389 C137.673 206.502, 137.525 209.555, 137.426 213.51" stroke="rgb(51, 51, 51)" stroke-width="1" fill="none"/>
  </g>
  <g class="text-container" transform="matrix(1 0 0 1 50 10)">
    <text style="font-style: normal; font-weight: 400; font-size: 16px; font-family: &quot;Comic Sans MS&quot;, cursive; white-space: pre;" dy="1em" class="messageText" alignment-baseline="middle" dominant-baseline="middle" text-anchor="middle" y="214" x="252" stroke="none" stroke-width="1px" fill="rgb(51, 51, 51)">GET /port_setting.cgi?portid=1&amp;state=1</text>
  </g>
  <g class="text-container" transform="matrix(1 0 0 1 50 10)">
    <text style="font-style: normal; font-weight: 400; font-size: 16px; font-family: &quot;Comic Sans MS&quot;, cursive; white-space: pre;" dy="1em" class="messageText" alignment-baseline="middle" dominant-baseline="middle" text-anchor="middle" y="233" x="252" stroke="none" stroke-width="1px" fill="rgb(51, 51, 51)">Encender puerto</text>
  </g>
  <g>
    <path d="M126.669 276.697 C212.769 277.758, 301.252 275.619, 477.241 275.555" stroke="rgb(51, 51, 51)" stroke-width="1.5" fill="none"/>
  </g>
  <g>
    <path d="M467.974 271.114 C467.974 271.114, 467.974 271.114, 467.974 271.114 M467.974 271.114 C467.974 271.114, 467.974 271.114, 467.974 271.114 M468.093 272.422 C468.326 271.88, 468.776 271.554, 469.541 271.05 M467.966 272.567 C468.506 272.062, 469.089 271.453, 469.401 271.218 M468.669 273.259 C468.977 272.627, 469.652 272.262, 470.137 271.733 M468.62 273.187 C468.965 272.913, 469.319 272.551, 470.053 271.915 M468.754 274.808 C469.4 273.828, 470.372 273.203, 470.747 272.955 M468.436 274.788 C469.234 273.873, 470.17 273.178, 470.792 272.521 M468.194 275.612 C470.088 274.53, 471.374 273.764, 472.566 272.451 M468.215 276.165 C469.614 275.035, 471.188 273.889, 471.935 272.967 M468.552 277.113 C469.659 275.783, 471.22 274.236, 472.913 273.894 M468.646 277.772 C469.364 276.246, 470.763 275.264, 472.705 273.435 M468.918 278.222 C471.559 276.752, 473.151 274.422, 474.511 273.338 M469.354 278.175 C470.217 276.564, 471.998 275.096, 474.185 273.864 M468.631 279.894 C470.442 277.911, 472.788 276.641, 474.549 273.863 M468.968 279.7 C470.17 278.817, 471.707 277.786, 474.624 274.204 M468.777 280.844 C471.37 277.917, 474.252 277.33, 475.647 274.64 M468.436 281.513 C470.871 279.674, 472.362 277.791, 476.083 273.96 M469.871 281.704 C473.21 279.575, 475.573 277.17, 476.523 275.942 M470.05 281.993 C471.898 280.326, 473.235 278.973, 476.935 275.156 M472.74 279.951 C474.903 278.401, 476.01 277.668, 478.217 275.631 M473.116 280.137 C474.342 278.687, 475.977 277.564, 477.636 276.112 M475.869 278.251 C477.198 277.409, 478.336 276.563, 479.265 276.02 M476.027 278.701 C476.816 277.688, 477.768 277.043, 479.037 275.734" stroke="rgb(51, 51, 51)" stroke-width="0.813" fill="none"/>
    <path d="M468.603 271.064 C471.469 272.993, 477.021 273.878, 478.047 275.092 M467.656 271.061 C471.803 272.656, 475.556 274.221, 478.806 275.995 M479.765 276.485 C475.294 276.773, 472.205 279.166, 468.9 279.979 M478.877 276.522 C475.858 277.772, 473.64 278.79, 469.286 281.41 M468.29 280.815 C467.8 277.002, 467.927 274.085, 468.793 270.842 M468.927 280.623 C468.437 277.443, 467.946 273.793, 468.262 271.311" stroke="rgb(51, 51, 51)" stroke-width="1" fill="none"/>
  </g>
  <g class="text-container" transform="matrix(1 0 0 1 50 10)">
    <text style="font-style: normal; font-weight: 400; font-size: 16px; font-family: &quot;Comic Sans MS&quot;, cursive; white-space: pre;" dy="1em" class="messageText" alignment-baseline="middle" dominant-baseline="middle" text-anchor="middle" y="281" x="255" stroke="none" stroke-width="1px" fill="rgb(51, 51, 51)">Respuesta 200 OK</text>
  </g>
  <g class="text-container" transform="matrix(1 0 0 1 50 10)">
    <text style="font-style: normal; font-weight: 400; font-size: 16px; font-family: &quot;Comic Sans MS&quot;, cursive; white-space: pre;" dy="1em" class="messageText" alignment-baseline="middle" dominant-baseline="middle" text-anchor="middle" y="300" x="255" stroke="none" stroke-width="1px" fill="rgb(51, 51, 51)">Comando aceptado</text>
  </g>
  <g>
    <path d="M480.692 344.184 C374.859 343.22, 272.219 344.702, 129.092 343.262 M480.629 342.407 C398.396 343.035, 316.886 343.284, 129.579 342.592" stroke="rgb(51, 51, 51)" stroke-width="1.5" fill="none" stroke-dasharray="3 3"/>
  </g>
  <g>
    <path d="M127.227 342.657 C127.227 342.657, 127.227 342.657, 127.227 342.657 M127.227 342.657 C127.227 342.657, 127.227 342.657, 127.227 342.657 M130.473 343.624 C131.613 342.654, 133.057 340.764, 134.633 338.902 M130.106 343.802 C131.952 342.043, 134.127 340.067, 135.115 339.246 M133.525 345.883 C134.371 344.559, 136.251 342.622, 136.842 340.468 M132.657 345.474 C133.908 344.401, 135.091 343.125, 136.923 340.879 M136.101 346.793 C136.383 346.058, 137.109 345.396, 137.946 344.659 M135.718 346.768 C136.635 345.973, 137.485 345.002, 138.013 344.426" stroke="rgb(51, 51, 51)" stroke-width="1.402" fill="none"/>
    <path d="M138.524 348.49 C134.385 345.159, 129.251 344.5, 128.04 344.147 M137.368 348.463 C135.189 346.27, 130.953 344.807, 126.383 342.483 M126.176 344.068 C129.581 340.508, 133.029 338.894, 137.389 337.207 M127.188 342.897 C130.582 340.674, 134.711 339.273, 136.465 337.648 M136.656 337.179 C138.13 341.477, 137.118 343.049, 138.518 347.389 M136.671 338.381 C137.634 341.848, 137.223 345.793, 137.629 347.758" stroke="rgb(51, 51, 51)" stroke-width="1" fill="none"/>
  </g>
  <g class="text-container" transform="matrix(1 0 0 1 50 10)">
    <text style="font-style: normal; font-weight: 400; font-size: 16px; font-family: &quot;Comic Sans MS&quot;, cursive; white-space: pre;" dy="1em" class="messageText" alignment-baseline="middle" dominant-baseline="middle" text-anchor="middle" y="348" x="554" stroke="none" stroke-width="1px" fill="rgb(51, 51, 51)">Enviar alimentación PoE</text>
  </g>
  <g class="text-container" transform="matrix(1 0 0 1 50 10)">
    <text style="font-style: normal; font-weight: 400; font-size: 16px; font-family: &quot;Comic Sans MS&quot;, cursive; white-space: pre;" dy="1em" class="messageText" alignment-baseline="middle" dominant-baseline="middle" text-anchor="middle" y="367" x="554" stroke="none" stroke-width="1px" fill="rgb(51, 51, 51)">Cámara inicia arranque</text>
  </g>
  <g>
    <path d="M481.024 408.963 C559.406 410.149, 638.891 409.136, 726.35 409.521" stroke="rgb(51, 51, 51)" stroke-width="1.5" fill="none"/>
  </g>
  <g>
    <path d="M715.861 405.328 C715.861 405.328, 715.861 405.328, 715.861 405.328 M715.861 405.328 C715.861 405.328, 715.861 405.328, 715.861 405.328 M716.465 407.843 C717.029 407.308, 717.968 406.247, 717.826 405.453 M716.285 408.206 C716.858 407.473, 717.312 406.992, 717.926 405.803 M717.203 410.656 C717.396 409.137, 718.887 408.135, 719.8 406.709 M716.507 410.876 C717.974 409.492, 718.959 408.148, 719.563 406.755 M717.92 413.675 C718.821 411.394, 720.17 409.301, 722.107 407.27 M717.413 414.005 C718.33 411.549, 720.251 409.635, 721.834 407.343 M719.678 413.444 C720.767 413.359, 720.816 411.474, 722.964 407.787 M719.181 413.743 C721.157 411.898, 722.577 409.585, 723.409 408.571 M723.52 411.843 C724.248 411.47, 724.268 410.309, 725.271 409.523 M723.432 411.889 C724.105 410.949, 724.704 410.285, 725.056 409.477" stroke="rgb(51, 51, 51)" stroke-width="0.628" fill="none"/>
    <path d="M717.251 403.832 C719.682 406.763, 723.947 408.734, 727.798 409.779 M728.062 409.034 C723.642 412.169, 721.032 413.078, 717.683 414.615 M717.577 415.234 C717.782 411.211, 717.484 409.946, 716.209 404.174" stroke="rgb(51, 51, 51)" stroke-width="1" fill="none"/>
  </g>
</svg>