<?xml version="1.0" encoding="utf-8"?>
<svg height="100%" style="fill-rule:evenodd;clip-rule:evenodd;stroke-linecap:round;stroke-linejoin:round;" width="100%" version="1.1" viewBox="0 0 150 150" xmlns="http://www.w3.org/2000/svg" xmlns:bx="https://boxy-svg.com">
  <defs>
    <bx:grid x="0" y="0" width="15" height="15"/>
    <linearGradient id="a" x1="63.3" y1="84" x2="241.7" y2="84" gradientTransform="matrix(0.618225, 0, 0, -0.618224, 58.096637, 132.01144)" gradientUnits="userSpaceOnUse">
      <stop offset="0" stop-color="#0c59a4"/>
      <stop offset="1" stop-color="#114a8b"/>
    </linearGradient>
    <radialGradient id="b" cx="161.8" cy="68.9" r="95.4" gradientTransform="matrix(0.618225, 0, 0, -0.587313, 58.096637, 121.377978)" gradientUnits="userSpaceOnUse">
      <stop offset="0.7" stop-opacity="0"/>
      <stop offset="0.9" stop-opacity=".5"/>
      <stop offset="1"/>
    </radialGradient>
    <linearGradient id="c" x1="157.3" y1="161.4" x2="46" y2="40.1" gradientTransform="matrix(0.618225, 0, 0, -0.618224, 58.096637, 132.01144)" gradientUnits="userSpaceOnUse">
      <stop offset="0" stop-color="#1b9de2"/>
      <stop offset="0.2" stop-color="#1595df"/>
      <stop offset="0.7" stop-color="#0680d7"/>
      <stop offset="1" stop-color="#0078d4"/>
    </linearGradient>
    <radialGradient id="d" cx="-340.3" cy="63" r="143.2" gradientTransform="matrix(0.092734, -0.612042, -0.49458, -0.074187, 167.275109, -109.961672)" gradientUnits="userSpaceOnUse">
      <stop offset="0.8" stop-opacity="0"/>
      <stop offset="0.9" stop-opacity=".5"/>
      <stop offset="1"/>
    </radialGradient>
    <radialGradient id="e" cx="113.4" cy="570.2" r="202.4" gradientTransform="matrix(-0.024729, 0.618225, 1.316818, 0.049458, -671.099232, -98.40088)" gradientUnits="userSpaceOnUse">
      <stop offset="0" stop-color="#35c1f1"/>
      <stop offset="0.1" stop-color="#34c1ed"/>
      <stop offset="0.2" stop-color="#2fc2df"/>
      <stop offset="0.3" stop-color="#2bc3d2"/>
      <stop offset="0.7" stop-color="#36c752"/>
    </radialGradient>
    <radialGradient id="f" cx="376.5" cy="568" r="97.3" gradientTransform="matrix(0.173103, 0.593496, 0.482215, -0.142192, -129.719981, -124.242663)" gradientUnits="userSpaceOnUse">
      <stop offset="0" stop-color="#66eb6e"/>
      <stop offset="1" stop-color="#66eb6e" stop-opacity="0"/>
    </radialGradient>
  </defs>
  <rect width="120" height="120" style="fill: none; stroke-width: 0.2px; stroke: rgb(84, 84, 84); pointer-events: none; visibility: hidden;" x="15" y="15"/>
  <g transform="matrix(0.771044, 0, 0, 0.771044, -33.00477, 36.632544)" style="">
    <path d="M 203.812 88.427 C 201.69 89.53 199.501 90.5 197.259 91.332 C 190.159 93.975 182.641 95.316 175.065 95.289 C 145.823 95.289 120.352 75.197 120.352 49.355 C 120.43 42.31 124.307 35.855 130.491 32.477 C 104.031 33.59 97.23 61.163 97.23 77.299 C 97.23 123.047 139.331 127.622 148.419 127.622 C 153.303 127.622 160.66 126.2 165.111 124.778 L 165.915 124.531 C 182.95 118.644 197.472 107.132 207.089 91.889 C 208.072 90.259 206.923 88.176 205.02 88.139 C 204.599 88.131 204.184 88.23 203.812 88.427 Z" style="fill: url(&quot;#a&quot;); stroke-width: 1;"/>
    <path d="M 203.812 88.427 C 201.69 89.53 199.501 90.5 197.259 91.332 C 190.159 93.975 182.641 95.316 175.065 95.289 C 145.823 95.289 120.352 75.197 120.352 49.355 C 120.43 42.31 124.307 35.855 130.491 32.477 C 104.031 33.59 97.23 61.163 97.23 77.299 C 97.23 123.047 139.331 127.622 148.419 127.622 C 153.303 127.622 160.66 126.2 165.111 124.778 L 165.915 124.531 C 182.95 118.644 197.472 107.132 207.089 91.889 C 208.072 90.259 206.923 88.176 205.02 88.139 C 204.599 88.131 204.184 88.23 203.812 88.427 Z" style="isolation: isolate; opacity: 0.35; fill: url(&quot;#b&quot;); stroke-width: 1;"/>
    <path d="M 126.287 119.833 C 120.784 116.415 116.014 111.939 112.253 106.664 C 93.97 81.639 102.688 46.174 130.491 32.477 C 132.469 31.55 135.746 29.943 140.135 30.005 C 146.397 30.053 152.275 33.026 156.023 38.041 C 158.511 41.387 159.875 45.434 159.918 49.602 C 159.918 49.479 175.065 0.392 110.46 0.392 C 83.32 0.392 61.002 26.11 61.002 48.737 C 60.895 60.69 63.45 72.516 68.483 83.357 C 85.545 119.688 127.103 137.491 165.173 124.778 C 152.132 128.898 137.941 127.089 126.349 119.833 L 126.287 119.833 Z" style="fill: url(&quot;#c&quot;); stroke-width: 1;"/>
    <path d="M 126.287 119.833 C 120.784 116.415 116.014 111.939 112.253 106.664 C 93.97 81.639 102.688 46.174 130.491 32.477 C 132.469 31.55 135.746 29.943 140.135 30.005 C 146.397 30.053 152.275 33.026 156.023 38.041 C 158.511 41.387 159.875 45.434 159.918 49.602 C 159.918 49.479 175.065 0.392 110.46 0.392 C 83.32 0.392 61.002 26.11 61.002 48.737 C 60.895 60.69 63.45 72.516 68.483 83.357 C 85.545 119.688 127.103 137.491 165.173 124.778 C 152.132 128.898 137.941 127.089 126.349 119.833 L 126.287 119.833 Z" style="opacity: 0.41; fill: url(&quot;#d&quot;); isolation: isolate; stroke-width: 1;"/>
    <path d="M 155.158 62.647 C 154.602 63.265 153.056 64.192 153.056 66.109 C 153.056 67.716 154.107 69.324 156.023 70.622 C 164.864 76.804 181.618 75.939 181.68 75.939 C 188.271 75.934 194.739 74.162 200.412 70.807 C 212.033 64.011 219.184 51.566 219.206 38.103 C 219.392 24.255 214.26 15.044 212.22 10.963 C 199.052 -14.631 170.799 -29.345 140.073 -29.345 C 96.801 -29.349 61.55 5.407 60.941 48.675 C 61.25 26.11 83.691 7.872 110.399 7.872 C 112.562 7.872 124.927 8.058 136.364 14.054 C 144.4 18.047 151.054 24.357 155.467 32.168 C 159.238 38.722 159.918 47.068 159.918 50.406 C 159.918 53.744 158.249 58.628 155.096 62.709 L 155.158 62.647 Z" style="fill: url(&quot;#e&quot;); stroke-width: 1;"/>
    <path d="M 155.158 62.647 C 154.602 63.265 153.056 64.192 153.056 66.109 C 153.056 67.716 154.107 69.324 156.023 70.622 C 164.864 76.804 181.618 75.939 181.68 75.939 C 188.271 75.934 194.739 74.162 200.412 70.807 C 212.033 64.011 219.184 51.566 219.206 38.103 C 219.392 24.255 214.26 15.044 212.22 10.963 C 199.052 -14.631 170.799 -29.345 140.073 -29.345 C 96.801 -29.349 61.55 5.407 60.941 48.675 C 61.25 26.11 83.691 7.872 110.399 7.872 C 112.562 7.872 124.927 8.058 136.364 14.054 C 144.4 18.047 151.054 24.357 155.467 32.168 C 159.238 38.722 159.918 47.068 159.918 50.406 C 159.918 53.744 158.249 58.628 155.096 62.709 L 155.158 62.647 Z" style="fill: url(&quot;#f&quot;); stroke-width: 1;"/>
  </g>
</svg>