<?xml version="1.0" encoding="utf-8"?>
<svg height="100%" style="fill-rule:evenodd;clip-rule:evenodd;stroke-linecap:round;stroke-linejoin:round;" width="100%" version="1.1" viewBox="0 0 150 150" xmlns="http://www.w3.org/2000/svg" xmlns:bx="https://boxy-svg.com">
  <defs>
    <bx:grid x="0" y="0" width="15" height="15"/>
  </defs>
  <rect width="109.9" height="109.9" style="fill: none; stroke-width: 0.2px; stroke: rgb(84, 84, 84); pointer-events: none; visibility: hidden;" x="21.199" y="9.597"/>
  <circle cx="-169.35" cy="-224.71" r="19.38" style="stroke-width: 12.5;"/>
  <circle cx="-105.72" cy="-157.55" r="19.38" style="stroke-width: 12.5;"/>
  <circle cx="-169.35" cy="-94.38" r="19.38" style="stroke-width: 12.5;"/>
  <circle cx="-233.82" cy="-122.82" r="19.38" style="stroke-width: 12.5;"/>
  <circle cx="-233.82" cy="-198.6" r="19.38" style="stroke-width: 12.5;"/>
  <circle cx="-169.39" cy="-165.31" r="15.65" style="stroke-width: 12.5;"/>
  <line x1="-217.14" y1="-208.49" x2="-188.07" y2="-219.72" style="stroke-width: 12.5;"/>
  <line x1="-155.77" y1="-210.86" x2="-119.54" y2="-171.13" style="stroke-width: 12.5;"/>
  <line x1="-117.58" y1="-142.23" x2="-155.53" y2="-107.97" style="stroke-width: 12.5;"/>
  <line x1="-223.16" y1="-182.42" x2="-181.38" y2="-109.56" style="stroke-width: 12.5;"/>
  <line x1="-216.67" y1="-113.79" x2="-188.73" y2="-100.84" style="stroke-width: 12.5;"/>
  <line x1="-226.56" y1="-140.8" x2="-179.84" y2="-208.43" style="stroke-width: 12.5;"/>
  <line x1="-215.97" y1="-191.01" x2="-183.27" y2="-172.53" style="stroke-width: 12.5;"/>
  <line x1="-153.7" y1="-163.54" x2="-125.1" y2="-161.38" style="stroke-width: 12.5;"/>
  <line x1="-169.39" y1="-149.62" x2="-169.35" y2="-113.79" style="stroke-width: 12.5;"/>
  <g id="Page-1" stroke="none" stroke-width="1" fill="none" fill-rule="evenodd" style="" transform="matrix(0.3125, 0, 0, 0.3125, -5.000002, -5.000002)">
    <g id="icon" fill="#000000" transform="translate(64.000000, 64.000000)">
      <path d="M320,64 L320,320 L64,320 L64,64 L320,64 Z M171.749388,128 L146.817842,128 L99.4840387,256 L121.976629,256 L130.913039,230.977 L187.575039,230.977 L196.319607,256 L220.167172,256 L171.749388,128 Z M260.093778,128 L237.691519,128 L237.691519,256 L260.093778,256 L260.093778,128 Z M159.094727,149.47526 L181.409039,213.333 L137.135039,213.333 L159.094727,149.47526 Z M341.333333,256 L384,256 L384,298.666667 L341.333333,298.666667 L341.333333,256 Z M85.3333333,341.333333 L128,341.333333 L128,384 L85.3333333,384 L85.3333333,341.333333 Z M170.666667,341.333333 L213.333333,341.333333 L213.333333,384 L170.666667,384 L170.666667,341.333333 Z M85.3333333,0 L128,0 L128,42.6666667 L85.3333333,42.6666667 L85.3333333,0 Z M256,341.333333 L298.666667,341.333333 L298.666667,384 L256,384 L256,341.333333 Z M170.666667,0 L213.333333,0 L213.333333,42.6666667 L170.666667,42.6666667 L170.666667,0 Z M256,0 L298.666667,0 L298.666667,42.6666667 L256,42.6666667 L256,0 Z M341.333333,170.666667 L384,170.666667 L384,213.333333 L341.333333,213.333333 L341.333333,170.666667 Z M0,256 L42.6666667,256 L42.6666667,298.666667 L0,298.666667 L0,256 Z M341.333333,85.3333333 L384,85.3333333 L384,128 L341.333333,128 L341.333333,85.3333333 Z M0,170.666667 L42.6666667,170.666667 L42.6666667,213.333333 L0,213.333333 L0,170.666667 Z M0,85.3333333 L42.6666667,85.3333333 L42.6666667,128 L0,128 L0,85.3333333 Z" id="Combined-Shape"/>
    </g>
  </g>
</svg>