<?xml version="1.0" encoding="utf-8"?>
<svg height="100%" style="fill-rule:evenodd;clip-rule:evenodd;stroke-linecap:round;stroke-linejoin:round;" width="100%" version="1.1" viewBox="0 0 150 150" xmlns="http://www.w3.org/2000/svg" xmlns:bx="https://boxy-svg.com">
  <defs>
    <bx:grid x="0" y="0" width="15" height="15"/>
  </defs>
  <rect width="120" height="120" style="fill: none; stroke-width: 0.2px; stroke: rgb(84, 84, 84); pointer-events: none; visibility: hidden;" x="15" y="15"/>
  <g transform="matrix(1.054327, 0, 0, 1.054327, -4.075053, -5.973657)" style="">
    <path d="M 85.13 19.359 C 88.226 19.622 91.308 20.038 94.363 20.608 C 93.318 21.824 92.627 23.302 92.367 24.883 C 90.269 24.522 88.045 24.223 85.727 24.003 C 85.922 22.429 85.716 20.832 85.13 19.359 Z M 52.152 14.064 C 56.821 17.214 56.33 24.236 51.267 26.705 C 46.206 29.174 40.37 25.237 40.763 19.619 C 40.852 18.34 41.277 17.108 41.992 16.044 C 44.252 12.694 48.799 11.807 52.152 14.064 Z M 100.987 22.102 C 104.242 22.102 106.276 25.625 104.649 28.443 C 103.021 31.262 98.953 31.262 97.326 28.443 C 96.955 27.8 96.76 27.071 96.76 26.329 C 96.76 23.995 98.653 22.102 100.987 22.102 Z M 76.25 17.332 C 80.485 17.332 83.131 21.915 81.014 25.582 C 78.897 29.25 73.604 29.25 71.487 25.582 C 71.004 24.747 70.749 23.798 70.749 22.832 C 70.749 19.794 73.213 17.332 76.25 17.332 Z M 63.08 31.579 C 65.754 31.572 67.432 34.463 66.1 36.781 C 64.769 39.1 61.426 39.107 60.084 36.795 C 59.776 36.263 59.615 35.659 59.615 35.044 C 59.615 33.13 61.167 31.579 63.08 31.579 Z M 111.289 43.758 C 104.327 50.555 99.313 55.105 95.683 58.979 C 86.877 65.353 60.631 63.967 54.318 58.979 C 50.752 55.152 46.895 50.453 40.318 43.876 C 39.352 42.933 38.503 41.878 37.788 40.733 L 37.929 40.874 C 36.346 39.246 35.439 37.078 35.391 34.808 C 35.43 32.729 36.207 30.732 37.583 29.174 C 38.112 30.099 38.762 30.951 39.516 31.704 C 39.839 32.029 40.18 32.332 40.538 32.615 C 40.089 33.271 39.844 34.045 39.831 34.839 C 39.831 41.087 55.034 46.147 75.016 46.147 C 94.999 46.147 111.163 41.087 111.163 34.839 C 111.163 33.354 110.244 31.932 108.578 30.635 C 109.316 29.326 109.704 27.848 109.702 26.345 C 109.702 26.227 109.702 26.101 109.702 25.984 C 113.466 28.395 115.611 31.406 115.611 34.839 C 115.584 36.904 114.827 38.891 113.474 40.45 C 113.864 40.025 114.223 39.571 114.542 39.09 C 113.812 40.871 112.692 42.466 111.266 43.758 L 111.289 43.758 Z M 59.041 24.656 C 59.232 23.128 59.133 21.579 58.751 20.09 C 61.493 19.673 64.408 19.359 67.442 19.163 C 66.946 20.341 66.694 21.608 66.703 22.888 C 66.703 23.202 66.718 23.516 66.75 23.83 C 64.047 24.034 61.469 24.326 59.041 24.695 L 59.041 24.656 Z M 92.422 61.761 C 86.921 68.652 86.088 71.67 85.955 87.779 C 86.668 90.782 64.971 92.451 63.772 87.779 C 64.181 71.851 64.235 69.886 57.556 61.761 C 67.257 65.131 82.058 66.055 92.422 61.761 Z M 85.947 90.561 C 85.947 93.287 85.947 96.297 85.947 99.652 C 85.948 107.122 63.483 113.118 63.465 108.686 C 63.465 108.677 63.465 108.667 63.465 108.657 C 63.465 101.35 63.615 95.448 63.741 90.584 C 73.017 95.48 86.018 90.599 85.947 90.561 Z" style="stroke-width: 1;"/>
    <ellipse style="" cx="71.338" cy="129.559" rx="5.942" ry="5.942"/>
    <ellipse style="stroke-width: 1;" cx="78.697" cy="116.653" rx="4.7" ry="4.7"/>
  </g>
</svg>