<?xml version="1.0" encoding="utf-8"?>
<svg height="100%" style="fill-rule:evenodd;clip-rule:evenodd;stroke-linecap:round;stroke-linejoin:round;" width="100%" version="1.1" viewBox="0 0 150 150" xmlns="http://www.w3.org/2000/svg" xmlns:bx="https://boxy-svg.com">
  <defs>
    <bx:grid x="0" y="0" width="15" height="15"/>
  </defs>
  <rect width="120" height="120" style="fill: none; stroke-width: 0.2px; stroke: rgb(84, 84, 84); pointer-events: none; visibility: hidden;" x="15" y="15"/>
  <g transform="matrix(1.671253, 0.224369, 0, 1.671253, -42.547219, -192.722537)" style="">
    <title>Win11</title>
    <rect x="57.491" y="113.751" width="23.105" height="23.105" style="fill: rgb(0, 120, 212);"/>
    <rect x="83.131" y="113.751" width="23.105" height="23.105" style="fill: rgb(0, 120, 212);"/>
    <rect x="57.491" y="139.393" width="23.105" height="23.105" style="fill: rgb(0, 120, 212);"/>
    <rect x="83.131" y="139.393" width="23.105" height="23.105" style="fill: rgb(0, 120, 212);"/>
  </g>
  <g style="" transform="matrix(0.696262, 0, 0, 0.696262, 7.780663, 41.00459)">
    <path d="M 61.125 75.072 C 59.387 75.389 57.896 76.606 57.323 78.183 C 57.011 79.035 56.952 80.06 57.167 80.891 C 57.564 82.424 58.787 83.717 60.347 84.248 C 63.254 85.245 66.369 83.556 66.991 80.649 C 67.05 80.381 67.066 80.081 67.045 79.577 C 67.024 78.966 66.997 78.815 66.836 78.338 C 66.257 76.633 64.782 75.394 62.948 75.072 C 62.396 74.976 61.65 74.976 61.125 75.072 Z" style="fill: rgb(0, 49, 87);"/>
    <path d="M 56.883 87.063 C 55.365 87.262 53.821 88.082 52.877 89.187 C 52.689 89.407 51.37 91.359 49.944 93.525 L 47.359 97.461 L 43.412 97.461 C 39.154 97.461 39.106 97.467 38.543 97.751 C 38.215 97.917 37.878 98.255 37.717 98.577 C 37.615 98.786 37.593 98.915 37.593 99.338 C 37.593 99.762 37.615 99.891 37.717 100.1 C 37.878 100.421 38.215 100.759 38.543 100.926 C 39.127 101.22 39.1 101.22 44.179 101.204 L 48.855 101.188 L 49.22 101.017 C 49.445 100.909 49.686 100.738 49.863 100.561 C 50.035 100.384 50.984 99.011 52.341 96.968 C 53.553 95.145 54.55 93.654 54.566 93.654 C 54.582 93.654 54.593 102.443 54.593 113.185 C 54.593 131.745 54.598 132.737 54.689 133.026 C 55.049 134.19 56.148 134.994 57.392 135 C 58.808 135 60.02 133.981 60.197 132.64 C 60.229 132.393 60.251 127.969 60.251 121.041 L 60.251 109.849 L 61.538 109.849 L 62.825 109.849 L 62.825 121.234 C 62.825 133.772 62.803 132.898 63.152 133.557 C 63.366 133.954 63.886 134.458 64.315 134.673 C 64.975 135.005 65.661 135.08 66.396 134.893 C 67.399 134.635 68.187 133.831 68.396 132.865 C 68.439 132.656 68.456 127.326 68.456 113.093 L 68.456 93.6 L 69.769 93.6 L 71.083 93.6 L 71.083 100.974 C 71.083 108.315 71.083 108.353 71.196 108.685 C 71.475 109.517 72.161 110.01 73.035 110.01 C 74.022 110.01 74.751 109.372 74.944 108.347 C 75.019 107.94 75.019 93.214 74.938 92.656 C 74.826 91.836 74.44 90.914 73.893 90.131 C 73.496 89.567 72.633 88.742 72.016 88.329 C 71.153 87.755 70.3 87.39 69.249 87.149 C 68.756 87.036 68.659 87.036 62.985 87.026 C 59.816 87.02 57.071 87.036 56.883 87.063 Z" style="fill: rgb(0, 49, 87);"/>
    <path d="M 10.375 111.517 C 10.356 111.543 10.382 111.726 10.433 111.924 C 10.48 112.127 10.902 113.953 11.37 115.992 C 11.839 118.025 12.365 120.315 12.541 121.076 C 12.84 122.364 13.874 126.854 14.857 131.115 C 15.084 132.116 15.383 133.404 15.513 133.967 L 15.754 135 L 24.554 135 C 29.393 135 33.354 134.99 33.354 134.974 C 33.354 134.963 33.588 133.947 33.874 132.721 C 34.167 131.496 34.72 129.123 35.11 127.449 C 38.641 112.399 38.817 111.653 38.817 111.564 C 38.817 111.491 38.616 111.481 36.769 111.481 L 34.72 111.481 L 34.688 111.595 C 34.668 111.663 34.499 112.383 34.303 113.202 C 33.816 115.23 32.859 119.246 32.313 121.519 C 32.066 122.552 31.54 124.758 31.143 126.421 C 30.746 128.085 30.297 129.957 30.148 130.583 L 29.875 131.715 L 24.542 131.715 L 19.207 131.715 L 16.873 121.712 C 15.586 116.216 14.512 111.663 14.485 111.601 C 14.434 111.486 14.434 111.486 12.418 111.481 C 11.311 111.481 10.388 111.496 10.375 111.517 Z" style="fill: rgb(0, 49, 87);"/>
  </g>
  <g transform="matrix(0.006215, 0, 0, -0.006215, 3.44793, 133.760622)" fill="#000000" stroke="none" style="">
    <path d="M 2979.41 8020.14 C 2708.26 7894.75 2484.12 7789.74 2480.99 7788.18 C 2477.85 7786.6 2578.16 7564.04 2703.55 7294.45 C 2855.59 6965.3 2940.23 6802.28 2955.9 6802.28 C 2985.69 6802.28 3935.52 7238.02 3935.52 7252.12 C 3935.52 7263.1 3532.7 8137.7 3495.09 8206.67 L 3473.14 8247.42 L 2979.41 8020.14 Z" style="fill: rgb(0, 120, 212);"/>
    <path d="M 4327.37 6212.94 C 4098.53 6048.36 3902.61 5905.74 3891.63 5894.76 C 3875.96 5879.09 3930.82 5791.31 4191.01 5427.69 L 4509.19 4979.41 L 4959.03 5300.72 C 5264.67 5520.16 5405.73 5628.31 5396.33 5640.85 C 5388.49 5650.25 5247.43 5850.88 5081.29 6085.99 C 4915.14 6319.53 4770.94 6512.32 4761.54 6510.74 C 4750.56 6510.74 4556.21 6375.95 4327.37 6212.94 Z" style="fill: rgb(0, 120, 212);"/>
    <path d="M 3548.38 4501.35 C 3460.6 4361.85 3045.24 3556.22 3056.22 3545.25 C 3090.7 3510.76 4004.5 3032.71 4015.46 3043.68 C 4051.51 3079.73 4531.14 3995.09 4520.16 4006.06 C 4507.63 4018.6 3825.81 4386.94 3650.26 4476.28 C 3582.86 4510.75 3557.78 4517.03 3548.38 4501.35 Z" style="fill: rgb(0, 120, 212);"/>
    <path d="M 3396.99 12991.1 C 3125.84 12865.8 2901.7 12760.7 2898.57 12759.2 C 2895.43 12757.6 2995.74 12535 3121.13 12265.4 C 3273.17 11936.3 3357.81 11773.3 3373.48 11773.3 C 3403.27 11773.3 4353.1 12209 4353.1 12223.1 C 4353.1 12234.1 3950.28 13108.7 3912.67 13177.7 L 3890.72 13218.4 L 3396.99 12991.1 Z" style="fill: rgb(0, 120, 212); stroke-width: 1; transform-origin: 4356.42px 10616.5px;" transform="matrix(-0.993977, 0.109585, -0.109585, -0.993977, -0.000222, -0.000332)"/>
    <path d="M 4744.95 11183.9 C 4516.11 11019.4 4320.19 10876.7 4309.21 10865.8 C 4293.54 10850.1 4348.4 10762.3 4608.59 10398.7 L 4926.77 9950.39 L 5376.61 10271.7 C 5682.25 10491.2 5823.31 10599.3 5813.91 10611.9 C 5806.07 10621.3 5665.01 10821.9 5498.87 11057 C 5332.72 11290.5 5188.52 11483.3 5179.12 11481.7 C 5168.14 11481.7 4973.79 11346.9 4744.95 11183.9 Z" style="fill: rgb(0, 120, 212); stroke-width: 1; transform-origin: 4356.42px 10616.5px;" transform="matrix(-0.993977, 0.109585, -0.109585, -0.993977, -0.000222, -0.000332)"/>
    <path d="M 3965.96 9472.39 C 3878.18 9332.89 3462.82 8527.19 3473.8 8516.29 C 3508.28 8481.79 4422.08 8003.69 4433.04 8014.69 C 4469.09 8050.69 4948.72 8966.09 4937.74 8977.09 C 4925.21 8989.59 4243.39 9357.89 4067.84 9447.29 C 4000.44 9481.79 3975.36 9487.99 3965.96 9472.39 Z" style="fill: rgb(0, 120, 212); stroke-width: 1; transform-origin: 4356.42px 10616.5px;" transform="matrix(-0.993977, 0.109585, -0.109585, -0.993977, -0.000222, -0.000332)"/>
  </g>
</svg>