<?xml version="1.0" encoding="utf-8"?>
<svg height="100%" style="fill-rule:evenodd;clip-rule:evenodd;stroke-linecap:round;stroke-linejoin:round;" width="100%" version="1.1" viewBox="0 0 150 150" xmlns="http://www.w3.org/2000/svg" xmlns:bx="https://boxy-svg.com">
  <defs>
    <bx:grid x="0" y="0" width="15" height="15"/>
  </defs>
  <rect width="120" height="120" style="fill: none; stroke-width: 0.2px; stroke: rgb(84, 84, 84); pointer-events: none; visibility: hidden;" x="15" y="15" bx:origin="0.5 0.5"/>
  <g id="Page-1" stroke="none" stroke-width="1" fill="none" fill-rule="evenodd" transform="matrix(0.799978, 0, 0, 0.799978, 15.008133, 49.503563)" style="">
    <g id="logo-git">
      <path d="M89.8846154,21.8714286 C86.5961538,21.8714286 84.1472527,23.4862088 84.1472527,27.3725275 C84.1472527,30.3006044 85.7612637,32.3331868 89.7076923,32.3331868 C93.0524725,32.3331868 95.3241758,30.3623626 95.3241758,27.2515934 C95.3241758,23.7263187 93.2912088,21.8716484 89.8846154,21.8716484 L89.8846154,21.8714286 Z M83.3076923,49.310989 C82.5295604,50.266044 81.7541209,51.2807692 81.7541209,52.4783516 C81.7541209,54.8674725 84.8008242,55.5864835 88.985989,55.5864835 C92.453022,55.5864835 97.1755495,55.3436923 97.1755495,52.1202747 C97.1755495,50.2043956 94.9035714,50.0857692 92.0326923,49.9057692 L83.3074176,49.310989 L83.3076923,49.310989 Z M101.000549,22.0521978 C102.074725,23.4274176 103.212088,25.3405495 103.212088,28.0901099 C103.212088,34.7247253 98.0115385,38.6098901 90.4818681,38.6098901 C88.567033,38.6098901 86.8335165,38.3713626 85.7586813,38.073011 L83.7854945,41.2404835 L89.6426374,41.5983132 C99.9843956,42.2572143 106.079451,42.5566648 106.079451,50.5038077 C106.079451,57.3796319 100.043736,61.2625989 89.6426374,61.2625989 C78.823956,61.2625989 74.6997802,58.5126538 74.6997802,53.7911703 C74.6997802,51.1002363 75.8954945,49.6689176 77.9875824,47.6933681 C76.0143956,46.8593022 75.3578022,45.3657857 75.3578022,43.7511703 C75.3578022,42.4352363 76.0143956,41.2400714 77.091978,40.1035879 C78.1675275,38.9689725 79.3625824,37.8317198 80.7973626,36.5171044 C77.8687912,35.0828187 75.6565934,31.974467 75.6565934,27.5506209 C75.6565934,20.677544 80.1998901,15.9572143 89.3434066,15.9572143 C91.9141758,15.9572143 93.4691209,16.1938187 94.843956,16.5546868 L106.500549,16.5546868 L106.500549,21.6341374 L101.000549,22.0526813 L101.000549,22.0521978 Z" id="Shape" fill="#413000" fill-rule="nonzero"/>
      <path d="M117.021978,11.1901099 C113.614011,11.1901099 111.642198,9.21582418 111.642198,5.80747253 C111.642198,2.40340659 113.614066,0.549010989 117.021978,0.549010989 C120.489011,0.549010989 122.461538,2.40340659 122.461538,5.80747253 C122.461538,9.21576923 120.489011,11.1901099 117.021978,11.1901099 Z M109.30989,47.110989 L109.30989,42.3912637 L112.359341,41.9740934 C113.196593,41.8528022 113.315385,41.6749176 113.315385,40.7761813 L113.315385,23.2031044 C113.315385,22.5469505 113.136813,22.1267308 112.537253,21.9488187 L109.30989,20.8121154 L109.967143,15.9722253 L122.341319,15.9722253 L122.341319,40.7766209 C122.341319,41.7347527 122.399011,41.8532692 123.298022,41.974533 L126.346813,42.3917033 L126.346813,47.1114286 L109.309451,47.1114286 L109.30989,47.110989 Z" id="Shape" fill="#413000" fill-rule="nonzero"/>
      <path d="M149.983516,44.7945055 C147.412088,46.0482418 143.647253,47.1841209 140.238462,47.1841209 C133.125824,47.1841209 130.436813,44.3177473 130.436813,37.5604945 L130.436813,21.9011538 C130.436813,21.5432527 130.436813,21.3031319 129.956731,21.3031319 L125.773324,21.3031319 L125.773324,15.9835714 C131.034973,15.3842308 133.125522,12.7536813 133.783214,6.23851648 L139.462335,6.23851648 L139.462335,14.7291758 C139.462335,15.1460714 139.462335,15.3266484 139.941044,15.3266484 L148.368516,15.3266484 L148.368516,21.303022 L139.462473,21.303022 L139.462473,35.5881868 C139.462473,39.1153297 140.300385,40.488956 143.526319,40.488956 C145.202143,40.488956 146.933571,40.0717857 148.368352,39.5333516 L149.983736,44.7949451" id="Path" fill="#413000"/>
      <path d="M61.4175824,29.1082418 L34.0851648,1.77917582 C32.5125275,0.20510989 29.9597802,0.20510989 28.3851648,1.77917582 L22.7098901,7.455 L29.9087912,14.6539011 C31.5823626,14.0888462 33.5006044,14.4677033 34.834011,15.8013736 C36.1743407,17.1433516 36.5504945,19.077967 35.9712637,20.7571429 L42.9097253,27.6956044 C44.5883516,27.1171429 46.5251099,27.4908681 47.8654945,28.8336264 C49.7394505,30.707033 49.7394505,33.7426923 47.8654945,35.6165934 C45.9912637,37.4910989 42.9556044,37.4910989 41.0803297,35.6165934 C39.6712637,34.2064286 39.3227473,32.1360989 40.0364286,30.4 L33.5655495,23.9291209 L33.565,40.9571429 C34.0218681,41.1833077 34.453022,41.4851648 34.8337363,41.8642308 C36.7071429,43.7374176 36.7071429,46.7725275 34.8337363,48.6488462 C32.9597802,50.521978 29.9227473,50.521978 28.0507692,48.6488462 C26.1770879,46.7726923 26.1770879,43.7375824 28.0507692,41.8642308 C28.5138187,41.4020055 29.0496154,41.0521429 29.6213187,40.8176374 L29.6213187,23.6313736 C29.0493407,23.3978571 28.5141758,23.0506044 28.0504396,22.5846703 C26.6312088,21.1665385 26.2893956,19.0835714 27.0172527,17.3407692 L19.9205495,10.242967 L1.18098901,28.981978 C-0.393571429,30.5572527 -0.393571429,33.11 1.18098901,34.6841758 L28.5117582,62.0132967 C30.0852747,63.5873626 32.6371429,63.5873626 34.2128571,62.0132967 L61.4172527,34.8132967 C62.9913187,33.2384615 62.9913187,30.6849451 61.4172527,29.1105495" id="Path" fill="#F05133"/>
    </g>
  </g>
</svg>