<?xml version="1.0" encoding="utf-8"?>
<svg height="100%" style="fill-rule:evenodd;clip-rule:evenodd;stroke-linecap:round;stroke-linejoin:round;" width="100%" version="1.1" viewBox="0 0 150 150" xmlns="http://www.w3.org/2000/svg" xmlns:bx="https://boxy-svg.com">
  <defs>
    <bx:grid x="0" y="0" width="15" height="15"/>
  </defs>
  <rect width="120" height="120" style="fill: none; stroke-width: 0.2px; stroke: rgb(84, 84, 84); pointer-events: none; visibility: hidden;" x="15" y="15"/>
  <g transform="matrix(1.223502, 0, 0, 1.223502, -11.820395, -1.812545)" style="">
    <path style="font-weight: bold; fill: rgb(138, 138, 142); fill-opacity: 1;" d="M 45.246 89.863 C 44.315 89.632 43.317 89.085 42.62 88.422 C 42.275 88.095 41.849 87.546 41.671 87.203 C 41.494 86.86 41.307 86.216 41.254 85.773 L 41.159 84.967 L 42.775 84.968 L 44.391 84.968 L 44.799 85.825 C 45.123 86.504 45.36 86.76 45.937 87.051 C 46.465 87.317 46.953 87.418 47.703 87.418 C 49.2 87.418 50.119 87.144 50.62 86.549 C 50.954 86.152 51.023 85.932 50.952 85.493 C 50.902 85.187 50.766 84.822 50.65 84.681 C 50.533 84.539 50.133 84.289 49.76 84.123 C 49.387 83.958 48.123 83.605 46.95 83.339 C 45.778 83.072 44.538 82.738 44.196 82.596 C 43.128 82.152 42.409 81.551 41.962 80.73 C 41.619 80.1 41.531 79.717 41.531 78.851 C 41.531 78.101 41.628 77.575 41.843 77.157 C 42.014 76.824 42.364 76.357 42.619 76.119 C 42.875 75.882 43.404 75.527 43.795 75.331 C 44.688 74.883 46.397 74.515 47.596 74.511 C 48.101 74.509 48.904 74.582 49.382 74.673 C 49.859 74.763 50.623 75.011 51.079 75.224 C 51.535 75.436 52.158 75.859 52.464 76.162 C 53.074 76.768 53.784 78.138 53.786 78.716 L 53.788 79.084 L 52.113 79.083 L 50.437 79.083 L 50.111 78.47 C 49.907 78.089 49.537 77.735 49.13 77.533 C 48.666 77.302 48.168 77.211 47.414 77.22 C 46.83 77.228 46.076 77.352 45.74 77.496 C 45.403 77.641 45.044 77.942 44.943 78.164 C 44.841 78.387 44.804 78.754 44.861 78.979 C 44.917 79.205 45.186 79.547 45.457 79.74 C 45.728 79.933 46.739 80.277 47.704 80.503 C 50.72 81.211 52.097 81.675 52.838 82.234 C 53.226 82.526 53.708 83.093 53.91 83.492 C 54.181 84.028 54.278 84.503 54.278 85.299 C 54.278 86.154 54.184 86.564 53.829 87.265 C 53.559 87.797 53.103 88.359 52.69 88.67 C 52.311 88.955 51.575 89.355 51.056 89.559 C 50.275 89.866 49.741 89.938 47.986 89.973 C 46.818 89.996 45.585 89.947 45.246 89.863 Z" id="path2325"/>
    <path style="font-weight: bold; fill: rgb(138, 138, 142); fill-opacity: 1;" d="M 69.508 74.538 C 68.486 74.54 67.442 74.752 66.576 75.156 C 66.014 75.419 65.146 76.021 64.651 76.489 C 64.112 76.999 63.554 77.737 63.262 78.333 C 62.993 78.88 62.659 79.88 62.516 80.554 C 62.336 81.404 62.283 82.168 62.353 83.041 C 62.408 83.734 62.601 84.765 62.777 85.334 C 62.953 85.904 63.376 86.772 63.716 87.26 C 64.057 87.747 64.698 88.425 65.146 88.766 C 65.594 89.108 66.405 89.528 66.944 89.706 C 67.732 89.966 68.295 90.024 69.809 89.992 L 71.688 89.951 L 72.786 89.415 C 73.388 89.118 74.208 88.545 74.61 88.143 C 75.355 87.397 76.177 85.908 76.177 85.304 L 76.177 84.967 L 74.666 84.972 L 73.154 84.977 L 72.664 85.819 C 72.333 86.388 71.964 86.769 71.525 86.994 C 70.735 87.399 69.083 87.529 68.251 87.255 C 67.92 87.145 67.394 86.834 67.082 86.56 C 66.77 86.286 66.368 85.773 66.188 85.421 C 66.009 85.07 65.822 84.419 65.769 83.976 L 65.672 83.169 L 71.086 83.169 L 76.504 83.169 L 76.504 82.061 C 76.504 81.45 76.393 80.528 76.259 80.013 C 76.125 79.498 75.823 78.701 75.59 78.241 C 75.357 77.781 74.844 77.058 74.446 76.632 C 74.048 76.207 73.297 75.638 72.781 75.366 C 72.266 75.093 71.405 74.776 70.866 74.666 C 70.429 74.577 69.972 74.537 69.508 74.538 Z M 69.518 77.173 C 69.757 77.172 69.981 77.204 70.228 77.27 C 70.596 77.37 71.145 77.618 71.448 77.822 C 71.751 78.026 72.202 78.522 72.449 78.925 C 72.696 79.328 72.946 79.968 73.006 80.35 L 73.113 81.045 L 69.416 81.045 L 65.718 81.045 L 65.718 80.585 C 65.718 80.333 65.91 79.737 66.147 79.262 C 66.404 78.747 66.841 78.212 67.225 77.934 C 67.579 77.678 68.245 77.38 68.711 77.276 C 69.024 77.206 69.279 77.175 69.518 77.173 Z" id="path2323"/>
    <path style="font-weight: bold; fill: rgb(138, 138, 142); fill-opacity: 1;" d="M 95.735 89.721 C 95.212 89.549 94.501 89.22 94.155 88.991 C 93.434 88.514 92.796 87.734 92.461 86.919 C 92.333 86.61 92.177 86.044 92.114 85.662 L 92 84.967 L 93.712 84.967 L 95.424 84.967 L 95.526 85.509 C 95.583 85.813 95.859 86.269 96.157 86.549 C 96.448 86.823 96.936 87.131 97.242 87.233 C 97.943 87.467 99.596 87.471 100.425 87.241 C 100.774 87.144 101.233 86.89 101.446 86.677 C 101.72 86.403 101.834 86.104 101.834 85.659 C 101.834 85.184 101.723 84.922 101.385 84.599 C 101.138 84.364 100.733 84.094 100.487 84.001 C 100.24 83.908 99.026 83.601 97.79 83.32 C 96.554 83.038 95.158 82.628 94.689 82.407 C 94.219 82.186 93.579 81.706 93.266 81.341 C 92.59 80.551 92.259 79.318 92.425 78.209 C 92.488 77.791 92.768 77.114 93.059 76.679 C 93.454 76.089 93.84 75.769 94.643 75.363 C 95.406 74.977 96.113 74.772 97.148 74.635 C 98.241 74.491 98.904 74.491 99.882 74.633 C 100.619 74.741 101.566 75.014 102.087 75.269 C 102.589 75.515 103.215 75.961 103.478 76.26 C 104.048 76.909 104.529 77.822 104.687 78.553 L 104.802 79.084 L 103.009 79.084 L 101.216 79.084 L 101.12 78.701 C 101.067 78.49 100.832 78.126 100.598 77.892 C 100.325 77.62 99.846 77.399 99.261 77.278 C 98.583 77.137 98.116 77.135 97.445 77.27 C 96.949 77.37 96.372 77.611 96.165 77.806 C 95.667 78.274 95.662 79.076 96.155 79.525 C 96.357 79.709 96.684 79.943 96.882 80.045 C 97.08 80.147 98.256 80.456 99.497 80.733 C 100.737 81.01 102.175 81.424 102.692 81.653 C 103.232 81.892 103.905 82.366 104.275 82.768 C 104.646 83.171 105 83.767 105.11 84.176 C 105.216 84.566 105.263 85.262 105.216 85.722 C 105.169 86.183 104.98 86.854 104.797 87.214 C 104.613 87.574 104.131 88.161 103.725 88.518 C 103.32 88.875 102.563 89.336 102.043 89.544 C 101.258 89.857 100.726 89.93 98.892 89.977 C 97.053 90.024 96.528 89.982 95.735 89.721 Z" id="path2319"/>
    <path style="font-weight: bold; fill: rgb(138, 138, 142); fill-opacity: 1;" d="M 58.632 89.689 C 58.285 89.607 57.782 89.412 57.513 89.256 C 57.245 89.099 56.867 88.677 56.673 88.317 L 56.321 87.664 L 56.269 82.557 L 56.218 77.45 L 55.003 77.45 L 53.788 77.45 L 53.788 76.224 L 53.788 74.998 L 55.013 74.998 L 56.239 74.998 L 56.239 72.792 L 56.239 70.586 L 57.868 70.586 L 59.498 70.586 L 59.544 72.751 L 59.589 74.917 L 61.019 74.964 L 62.449 75.011 L 62.449 76.23 L 62.449 77.45 L 60.965 77.45 L 59.48 77.45 L 59.535 81.939 L 59.589 86.429 L 59.962 86.801 C 60.274 87.112 60.507 87.173 61.392 87.17 L 62.449 87.167 L 62.449 88.414 L 62.449 89.662 L 61.691 89.766 C 60.686 89.904 59.409 89.871 58.632 89.689 Z" id="path2317"/>
    <path style="font-weight: bold; fill: rgb(138, 138, 142); fill-opacity: 1;" d="M 33.274 69.334 C 33.007 69.338 32.527 69.354 31.645 69.355 L 29.724 69.36 L 26.15 78.675 C 24.183 83.798 22.427 88.378 22.248 88.853 L 21.921 89.716 L 23.831 89.67 L 25.746 89.624 L 26.675 87.009 L 27.605 84.395 L 31.609 84.354 L 35.613 84.308 L 36.292 86.233 C 36.666 87.291 37.096 88.503 37.247 88.93 L 37.523 89.706 L 39.463 89.706 C 41.551 89.692 41.509 89.86 41.327 89.42 C 41.143 88.973 33.839 69.908 33.677 69.585 C 33.564 69.358 33.718 69.327 33.274 69.334 Z M 31.629 73.083 C 31.659 73.053 31.92 73.709 32.211 74.543 C 32.503 75.378 33.173 77.292 33.698 78.797 L 34.653 81.535 L 31.645 81.535 L 28.642 81.535 L 29.106 80.187 C 30.103 77.288 31.578 73.133 31.629 73.083 Z" id="path2315"/>
    <path style="font-weight: bold; fill: rgb(138, 138, 142); fill-opacity: 1;" d="M 77.974 82.352 L 77.974 74.998 L 79.527 74.998 L 81.079 74.998 L 81.079 76.242 L 81.079 77.487 L 81.61 76.692 C 81.903 76.255 82.498 75.659 82.933 75.368 C 83.368 75.077 84.016 74.761 84.371 74.665 C 84.727 74.569 85.364 74.513 85.786 74.54 L 86.554 74.59 L 86.601 76.175 L 86.647 77.76 L 85.527 77.739 C 84.665 77.723 84.23 77.804 83.638 78.091 C 83.214 78.296 82.681 78.709 82.452 79.009 C 82.223 79.309 81.881 79.945 81.692 80.422 C 81.382 81.204 81.342 81.705 81.278 85.498 L 81.207 89.706 L 79.591 89.706 L 77.974 89.706 L 77.974 82.352 Z" id="path2311"/>
    <path style="font-weight: bold; fill: rgb(138, 138, 142); fill-opacity: 1;" d="M 87.453 82.352 L 87.453 74.998 L 89.169 74.998 L 90.885 74.998 L 90.885 82.352 L 90.885 89.706 L 89.169 89.706 L 87.453 89.706 L 87.453 82.352 Z" id="path2309"/>
    <path style="font-weight: bold; fill: rgb(138, 138, 142); fill-opacity: 1;" d="M 106.286 79.533 L 106.328 69.36 L 107.962 69.36 L 109.597 69.36 L 109.64 75.064 L 109.683 80.769 L 112.473 77.883 L 115.264 74.998 L 117.333 75.007 L 119.402 75.015 L 116.635 77.698 L 113.868 80.382 L 116.921 84.962 C 118.6 87.481 119.974 89.579 119.974 89.624 C 119.974 89.669 120.382 89.706 117.971 89.706 L 115.968 89.706 L 113.844 86.333 C 112.677 84.478 111.669 82.878 111.604 82.778 C 111.531 82.665 111.152 82.929 110.583 83.491 L 109.678 84.384 L 109.678 87.045 L 109.678 89.706 L 107.961 89.706 L 106.244 89.706 L 106.286 79.533 Z" id="path2307"/>
    <path style="font-weight: bold; fill: rgb(246, 143, 30); fill-opacity: 1;" d="M 60.652 35.562 C 58.036 35.553 56.158 35.823 54.049 36.512 C 53.339 36.744 52.204 37.19 51.526 37.502 C 50.848 37.816 49.592 38.538 48.732 39.111 C 47.873 39.684 46.566 40.682 45.827 41.322 C 45.088 41.963 43.96 43.091 43.319 43.83 C 42.678 44.569 41.776 45.742 41.317 46.435 C 40.858 47.127 40.456 47.667 40.423 47.635 C 40.288 47.499 41.545 45.076 42.42 43.784 L 43.36 42.395 L 42.349 43.376 C 41.793 43.915 40.805 45.066 40.148 45.934 C 39.49 46.802 38.615 48.125 38.207 48.876 C 37.799 49.626 37.221 50.938 36.925 51.792 L 36.389 53.344 L 36.389 56.123 L 36.389 58.901 L 36.833 60.208 C 37.076 60.927 37.551 61.992 37.89 62.573 C 38.23 63.153 39.017 64.162 39.637 64.82 C 40.257 65.477 41.25 66.341 41.843 66.735 C 43.614 67.911 45.407 68.615 47.66 69.018 C 48.379 69.146 49.878 69.255 50.99 69.263 C 52.102 69.271 53.784 69.163 54.728 69.023 C 55.673 68.882 57.307 68.519 58.359 68.216 C 59.412 67.913 61.031 67.332 61.96 66.924 L 63.65 66.183 L 64.722 66.505 C 65.942 66.874 71.494 68.133 71.571 68.057 C 71.599 68.03 70.967 66.695 70.166 65.09 L 68.711 62.169 L 70.003 60.617 C 70.716 59.763 71.711 58.445 72.209 57.69 C 72.708 56.935 73.467 55.575 73.9 54.667 C 74.332 53.759 74.837 52.466 75.023 51.792 C 75.209 51.118 75.438 49.919 75.529 49.126 C 75.642 48.13 75.64 47.244 75.519 46.266 C 75.422 45.486 75.169 44.345 74.957 43.733 C 74.744 43.121 74.248 42.055 73.859 41.363 C 72.967 39.78 71.071 37.85 69.697 37.125 C 69.145 36.833 68.646 36.594 68.583 36.594 C 68.52 36.594 68.84 36.89 69.298 37.252 C 70.218 37.979 71.353 39.347 71.913 40.403 L 72.281 41.088 L 71.913 40.597 C 71.712 40.328 70.991 39.547 70.309 38.866 C 69.364 37.921 68.739 37.465 67.679 36.941 C 66.776 36.494 65.719 36.137 64.656 35.914 C 63.449 35.661 62.403 35.568 60.652 35.562 Z M 60.571 37.37 C 62.361 37.373 63.133 37.451 64.13 37.717 C 64.831 37.904 65.897 38.289 66.5 38.575 C 67.275 38.943 67.96 39.458 68.839 40.337 C 69.792 41.29 70.235 41.9 70.759 42.967 C 71.134 43.731 71.552 44.871 71.683 45.5 C 71.815 46.129 71.922 47.207 71.923 47.895 C 71.928 50.061 71.324 52.502 70.207 54.815 C 69.904 55.444 69.341 56.437 68.956 57.021 C 68.572 57.606 67.683 58.678 66.985 59.406 C 66.287 60.135 65.718 60.778 65.718 60.831 C 65.718 60.884 66.307 61.826 67.026 62.925 C 67.745 64.025 68.333 64.986 68.333 65.06 C 68.333 65.134 68.295 65.193 68.246 65.193 C 68.198 65.193 67.105 64.788 65.82 64.294 C 64.536 63.799 63.297 63.395 63.068 63.395 C 62.839 63.395 62.259 63.57 61.776 63.783 C 60.181 64.487 57.208 65.365 55.607 65.606 C 54.74 65.737 53.445 65.836 52.726 65.826 C 50.13 65.788 48.179 65.339 45.944 64.263 C 44.635 63.633 44.172 63.295 42.987 62.108 C 41.916 61.034 41.439 60.407 40.985 59.473 C 40.658 58.799 40.279 57.807 40.143 57.272 C 39.792 55.891 39.825 53.591 40.219 52.022 C 40.398 51.311 40.915 49.979 41.368 49.06 C 41.821 48.141 42.627 46.811 43.161 46.103 C 43.694 45.395 44.794 44.185 45.602 43.416 C 47.171 41.923 49.074 40.578 50.929 39.652 C 52.534 38.852 54.667 38.126 56.618 37.717 C 57.869 37.455 58.851 37.367 60.571 37.37 Z" id="path2303"/>
    <path style="font-weight: bold; fill: rgb(246, 143, 30); fill-opacity: 1;" d="M 53.76 58.16 L 53.827 55.049 L 51.175 56.699 C 49.716 57.606 48.501 58.325 48.475 58.298 C 48.338 58.154 46.271 54.637 46.271 54.548 C 46.27 54.491 47.483 53.756 48.966 52.914 C 50.448 52.072 51.662 51.347 51.662 51.302 C 51.662 51.257 50.448 50.532 48.966 49.69 C 47.483 48.848 46.27 48.113 46.271 48.056 C 46.271 47.968 48.338 44.451 48.473 44.308 C 48.498 44.281 49.607 44.968 50.936 45.835 C 52.265 46.702 53.459 47.452 53.59 47.502 C 53.795 47.581 53.819 47.156 53.761 44.463 L 53.694 41.333 L 55.971 41.333 L 58.249 41.333 L 58.133 44.525 L 58.017 47.717 L 59.13 47.001 C 59.742 46.608 60.868 45.884 61.632 45.392 C 62.396 44.901 63.108 44.447 63.215 44.384 C 63.341 44.308 63.807 44.934 64.557 46.184 C 65.189 47.238 65.69 48.112 65.671 48.126 C 65.652 48.141 64.569 48.759 63.266 49.5 C 61.963 50.241 60.722 50.957 60.509 51.092 L 60.121 51.336 L 62.715 52.802 C 64.142 53.608 65.399 54.32 65.51 54.383 C 65.651 54.463 65.37 55.065 64.561 56.414 C 63.588 58.036 63.368 58.307 63.129 58.179 C 62.973 58.096 61.856 57.412 60.646 56.659 C 59.435 55.906 58.348 55.231 58.229 55.159 C 58.052 55.05 58.034 55.581 58.13 58.149 L 58.248 61.271 L 55.971 61.271 L 53.694 61.271 L 53.76 58.16 Z" id="path2299"/>
    <path style="font-weight: bold; fill: rgb(255, 255, 255); fill-opacity: 1;" d="M 40.387 47.952 C 40.387 47.907 40.35 47.87 40.305 47.87 C 40.26 47.87 40.224 47.907 40.224 47.952 C 40.224 47.997 40.26 48.033 40.305 48.033 C 40.35 48.033 40.387 47.997 40.387 47.952 Z" id="path2279"/>
    <path style="font-size: 14px; font-style: normal; font-weight: bold; fill: rgb(138, 138, 142); fill-opacity: 1; stroke: none; stroke-width: 1px; stroke-linecap: butt; stroke-linejoin: miter; stroke-opacity: 1; font-family: 'Arial Black';" d="M 116.336 73.004 L 117.624 73.004 L 117.624 73.418 L 117.192 73.418 L 117.192 74.681 L 116.768 74.681 L 116.768 73.418 L 116.336 73.418 L 116.336 73.004 Z M 117.813 73.004 L 118.37 73.004 L 118.586 74.024 L 118.8 73.004 L 119.356 73.004 L 119.356 74.681 L 119.01 74.681 L 119.01 73.402 L 118.741 74.681 L 118.427 74.681 L 118.16 73.402 L 118.16 74.681 L 117.813 74.681 L 117.813 73.004 Z" id="flowRoot2289"/>
    <path style="fill: rgb(246, 143, 30); fill-opacity: 1; fill-rule: evenodd; stroke: rgb(246, 143, 30); stroke-width: 1px; stroke-linecap: butt; stroke-linejoin: miter; stroke-opacity: 1;" d="M 36.839 59.946 C 36.262 58.405 36.058 57.404 36.05 55.922 C 36.048 54.462 36.304 53.866 36.981 51.907 L 36.839 59.946 Z" id="path2329"/>
    <path style="opacity: 1; fill: rgb(246, 143, 30); fill-opacity: 1; fill-rule: evenodd; stroke: none; stroke-width: 202; stroke-linecap: round; stroke-linejoin: round; stroke-miterlimit: 4; stroke-dasharray: none; stroke-opacity: 0.553265;" d="M 36.342 57.998 C 36.117 56.94 36.076 55.523 36.244 54.604 C 36.262 54.502 36.3 54.325 36.329 54.211 L 36.38 54.005 L 36.384 55.048 C 36.386 55.622 36.386 56.561 36.384 57.134 L 36.38 58.175 L 36.342 57.998 Z" id="path2339"/>
  </g>
</svg>