<?xml version="1.0" encoding="utf-8"?>
<svg height="100%" style="fill-rule:evenodd;clip-rule:evenodd;stroke-linecap:round;stroke-linejoin:round;" width="100%" version="1.1" viewBox="0 0 150 150" xmlns="http://www.w3.org/2000/svg" xmlns:bx="https://boxy-svg.com">
  <defs>
    <bx:grid x="0" y="0" width="15" height="15"/>
  </defs>
  <rect width="120" height="120" style="fill: none; stroke-width: 0.2px; stroke: rgb(84, 84, 84); pointer-events: none; visibility: hidden;" x="15" y="15" bx:origin="0.5 0.5"/>
  <g>
    <path fill="#2C2255" d="M 71.395 48.058 L 62.906 48.058 C 64.03 51.914 66.116 55.369 69.169 58.423 C 74.037 63.291 79.89 65.722 86.735 65.722 C 88.103 65.722 89.429 65.62 90.716 65.426 C 95.872 64.648 100.386 62.317 104.253 58.423 C 107.326 55.37 109.427 51.914 110.559 48.058 L 107.114 48.058 L 102.077 48.058 L 71.395 48.058 Z" style=""/>
    <g transform="matrix(0.506944, 0, 0, 0.506944, 20.130808, -151.138184)" style="">
      <path fill="#2C2255" d="M91.891,370.194h-8.747c-0.32,1.922-0.538,3.884-0.637,5.896h10.396h5.215h75.275h6.871 c-0.1-2.012-0.318-3.974-0.641-5.896"/>
      <path fill="#2C2255" d="M82.507,381.565c0.099,2.013,0.316,3.975,0.637,5.896h9.094h6.893h73.648h6.846 c0.322-1.921,0.542-3.883,0.642-5.896"/>
    </g>
    <path fill="#2C2255" d="M 110.56 33.753 C 109.429 29.887 107.328 26.416 104.253 23.341 C 100.396 19.484 95.895 17.169 90.756 16.391 C 89.456 16.193 88.117 16.09 86.735 16.09 C 79.89 16.09 74.036 18.508 69.169 23.341 C 66.115 26.416 64.028 29.887 62.905 33.753" style=""/>
    <g transform="matrix(0.506944, 0, 0, 0.506944, 20.130808, -151.138184)" style="">
      <path fill="#F7941E" d="M79.6,378.829c0-25.824,19.395-47.281,44.626-51.055c-0.626-0.023-1.255-0.049-1.887-0.049 c-28.314,0-51.269,22.881-51.269,51.104c0,28.224,22.954,51.103,51.269,51.103c0.634,0,1.263-0.023,1.891-0.047 C98.995,426.111,79.6,404.654,79.6,378.829z"/>
    </g>
    <g transform="matrix(0.506944, 0, 0, 0.506944, 20.130808, -151.138184)" style="">
      <linearGradient id="SVGID_1_" gradientUnits="userSpaceOnUse" x1="502.3848" y1="-40.0757" x2="502.3848" y2="-113.7106" gradientTransform="matrix(1 0 0 1 -371 474.5)">
        <stop offset="0.3033" style="stop-color:#473788"/>
        <stop offset="0.872" style="stop-color:#2C2255"/>
      </linearGradient>
      <path fill="url(#SVGID_1_)" d="M164.653,376.089c-0.164-2.021-0.504-3.992-1.012-5.896h-64.51 c-0.508,1.902-0.849,3.874-1.013,5.896H164.653z"/>
      <linearGradient id="SVGID_2_" gradientUnits="userSpaceOnUse" x1="502.3857" y1="-40.0747" x2="502.3857" y2="-113.7096" gradientTransform="matrix(1 0 0 1 -371 474.5)">
        <stop offset="0.3033" style="stop-color:#473788"/>
        <stop offset="0.872" style="stop-color:#2C2255"/>
      </linearGradient>
      <path fill="url(#SVGID_2_)" d="M164.653,381.565H98.119c0.164,2.021,0.503,3.991,1.012,5.896h64.511 C164.15,385.557,164.489,383.586,164.653,381.565z"/>
      <linearGradient id="SVGID_3_" gradientUnits="userSpaceOnUse" x1="502.3857" y1="-40.0776" x2="502.3857" y2="-113.7071" gradientTransform="matrix(1 0 0 1 -371 474.5)">
        <stop offset="0.3033" style="stop-color:#473788"/>
        <stop offset="0.8631" style="stop-color:#2C2255"/>
      </linearGradient>
      <path fill="url(#SVGID_3_)" d="M131.386,412.217c13.397,0,24.945-7.893,30.263-19.281h-60.526 C106.441,404.324,117.989,412.217,131.386,412.217z"/>
    </g>
    <g transform="matrix(0.506944, 0, 0, 0.506944, 20.130808, -151.138184)" style="">
      <path fill="#FFFFFF" d="M93.188,381.565h4.884h66.706h8.763h6.657c0.046-0.871,0.072-1.748,0.072-2.632 c0-0.955-0.035-1.901-0.089-2.845h-6.641h-8.763H98.071h-5.229H82.507c-0.054,0.942-0.089,1.89-0.089,2.845 c0,0.884,0.026,1.761,0.072,2.632H93.188z"/>
      <path fill="#FFFFFF" d="M100.928,364.718H84.376c-0.544,1.783-0.895,3.612-1.232,5.477h8.525h7.259h64.679h9.16h6.547 c-0.338-1.863-0.773-3.692-1.316-5.477"/>
      <path fill="#FFFFFF" d="M173.026,387.46h-9.16H99.188h-6.912h-9.133c0.328,1.863,0.701,3.691,1.236,5.476h16.807h60.682h9.962 h6.488c0.534-1.783,0.965-3.611,1.294-5.476H173.026z"/>
    </g>
  </g>
  <g transform="matrix(0.193536, 0, 0, 0.193536, 12.240118, 32.309807)" style="">
    <path id="teabag" style="fill:#FFFFFF" d="M395.9,484.2l-126.9-61c-12.5-6-17.9-21.2-11.8-33.8l61-126.9c6-12.5,21.2-17.9,33.8-11.8   c17.2,8.3,27.1,13,27.1,13l-0.1-109.2l16.7-0.1l0.1,117.1c0,0,57.4,24.2,83.1,40.1c3.7,2.3,10.2,6.8,12.9,14.4   c2.1,6.1,2,13.1-1,19.3l-61,126.9C423.6,484.9,408.4,490.3,395.9,484.2z"/>
    <g>
      <g>
        <path style="fill:#609926" d="M622.7,149.8c-4.1-4.1-9.6-4-9.6-4s-117.2,6.6-177.9,8c-13.3,0.3-26.5,0.6-39.6,0.7c0,39.1,0,78.2,0,117.2     c-5.5-2.6-11.1-5.3-16.6-7.9c0-36.4-0.1-109.2-0.1-109.2c-29,0.4-89.2-2.2-89.2-2.2s-141.4-7.1-156.8-8.5     c-9.8-0.6-22.5-2.1-39,1.5c-8.7,1.8-33.5,7.4-53.8,26.9C-4.9,212.4,6.6,276.2,8,285.8c1.7,11.7,6.9,44.2,31.7,72.5     c45.8,56.1,144.4,54.8,144.4,54.8s12.1,28.9,30.6,55.5c25,33.1,50.7,58.9,75.7,62c63,0,188.9-0.1,188.9-0.1s12,0.1,28.3-10.3     c14-8.5,26.5-23.4,26.5-23.4s12.9-13.8,30.9-45.3c5.5-9.7,10.1-19.1,14.1-28c0,0,55.2-117.1,55.2-231.1     C633.2,157.9,624.7,151.8,622.7,149.8z M125.6,353.9c-25.9-8.5-36.9-18.7-36.9-18.7S69.6,321.8,60,295.4     c-16.5-44.2-1.4-71.2-1.4-71.2s8.4-22.5,38.5-30c13.8-3.7,31-3.1,31-3.1s7.1,59.4,15.7,94.2c7.2,29.2,24.8,77.7,24.8,77.7     S142.5,359.9,125.6,353.9z M425.9,461.5c0,0-6.1,14.5-19.6,15.4c-5.8,0.4-10.3-1.2-10.3-1.2s-0.3-0.1-5.3-2.1l-112.9-55     c0,0-10.9-5.7-12.8-15.6c-2.2-8.1,2.7-18.1,2.7-18.1L322,273c0,0,4.8-9.7,12.2-13c0.6-0.3,2.3-1,4.5-1.5c8.1-2.1,18,2.8,18,2.8     l110.7,53.7c0,0,12.6,5.7,15.3,16.2c1.9,7.4-0.5,14-1.8,17.2C474.6,363.8,425.9,461.5,425.9,461.5z"/>
        <path style="fill:#609926" d="M326.8,380.1c-8.2,0.1-15.4,5.8-17.3,13.8c-1.9,8,2,16.3,9.1,20c7.7,4,17.5,1.8,22.7-5.4     c5.1-7.1,4.3-16.9-1.8-23.1l24-49.1c1.5,0.1,3.7,0.2,6.2-0.5c4.1-0.9,7.1-3.6,7.1-3.6c4.2,1.8,8.6,3.8,13.2,6.1     c4.8,2.4,9.3,4.9,13.4,7.3c0.9,0.5,1.8,1.1,2.8,1.9c1.6,1.3,3.4,3.1,4.7,5.5c1.9,5.5-1.9,14.9-1.9,14.9     c-2.3,7.6-18.4,40.6-18.4,40.6c-8.1-0.2-15.3,5-17.7,12.5c-2.6,8.1,1.1,17.3,8.9,21.3c7.8,4,17.4,1.7,22.5-5.3     c5-6.8,4.6-16.3-1.1-22.6c1.9-3.7,3.7-7.4,5.6-11.3c5-10.4,13.5-30.4,13.5-30.4c0.9-1.7,5.7-10.3,2.7-21.3     c-2.5-11.4-12.6-16.7-12.6-16.7c-12.2-7.9-29.2-15.2-29.2-15.2s0-4.1-1.1-7.1c-1.1-3.1-2.8-5.1-3.9-6.3c4.7-9.7,9.4-19.3,14.1-29     c-4.1-2-8.1-4-12.2-6.1c-4.8,9.8-9.7,19.7-14.5,29.5c-6.7-0.1-12.9,3.5-16.1,9.4c-3.4,6.3-2.7,14.1,1.9,19.8     C343.2,346.5,335,363.3,326.8,380.1z"/>
      </g>
    </g>
  </g>
</svg>