<?xml version="1.0" encoding="utf-8"?>
<svg height="100%" style="fill-rule:evenodd;clip-rule:evenodd;stroke-linecap:round;stroke-linejoin:round;" width="100%" version="1.1" viewBox="0 0 150 150" xmlns="http://www.w3.org/2000/svg" xmlns:bx="https://boxy-svg.com">
  <defs>
    <bx:grid x="0" y="0" width="15" height="15"/>
    <radialGradient id="radialGradient6400" gradientUnits="userSpaceOnUse" gradientTransform="matrix(0.00328986,0.00250497,-0.00250497,0.00328986,813.49885,-242.17629)" cx="22767.4" cy="148727" r="15252" href="#id97"/>
    <radialGradient r="15252" cy="148727" cx="22767.4" gradientUnits="userSpaceOnUse" id="id97">
      <stop id="stop404" style="stop-color:#EF9A48" offset="0"/>
      <stop id="stop406" style="stop-color:#8F5444" offset="1"/>
    </radialGradient>
    <radialGradient id="radialGradient6397" gradientUnits="userSpaceOnUse" gradientTransform="matrix(0.93052262,0,0,0.92333713,288.43248,-616.84103)" cx="326.28094" cy="591.72388" r="28.291517" href="#linearGradient5994"/>
    <linearGradient id="linearGradient5994">
      <stop style="stop-color:#ffffff;stop-opacity:1;" offset="0" id="stop5996"/>
      <stop style="stop-color:#ffffff;stop-opacity:0;" offset="1" id="stop5998"/>
    </linearGradient>
    <radialGradient id="radialGradient6393" gradientUnits="userSpaceOnUse" gradientTransform="matrix(1.836803,-0.1530383,0.2177191,1.7315357,-184.24282,-677.81111)" cx="306.03009" cy="601.14636" r="19.88851" href="#linearGradient6352"/>
    <linearGradient id="linearGradient6352">
      <stop id="stop6354" offset="0" style="stop-color:#d69600;stop-opacity:1"/>
      <stop id="stop6356" offset="1" style="stop-color:#ffff90;stop-opacity:1"/>
    </linearGradient>
    <linearGradient id="linearGradient6390" gradientUnits="userSpaceOnUse" gradientTransform="matrix(0.00415074,4.6170613e-4,-6.2836721e-4,0.00385903,516.60065,-282.00415)" x1="20482.521" y1="138225.59" x2="22053.289" y2="146536.86" href="#linearGradient4948"/>
    <linearGradient id="linearGradient4948">
      <stop id="stop4950" offset="0" style="stop-color:#ffffff;stop-opacity:1;"/>
      <stop id="stop4952" offset="1" style="stop-color:#ffffff;stop-opacity:0;"/>
    </linearGradient>
    <radialGradient id="radialGradient6386" gradientUnits="userSpaceOnUse" gradientTransform="matrix(0.00328986,0.00250497,-0.00244116,0.00320605,799.1539,-219.15978)" cx="18876.199" cy="150304" r="14266.5" href="#id96"/>
    <radialGradient r="14266.5" cy="150304" cx="18876.199" gradientUnits="userSpaceOnUse" id="id96">
      <stop id="stop399" style="stop-color:#FFF974" offset="0"/>
      <stop id="stop401" style="stop-color:#97946B" offset="1"/>
    </radialGradient>
  </defs>
  <g transform="matrix(0.445537, 0, 0, 0.445537, 26.290905, 14.478684)" style="">
    <path class="st6" d="M163.775,8.17v239.66c0,2.76-2.24,5-5,5H15.325c-2.77,0-5-2.24-5-5V8.17c0-2.76,2.23-5,5-5h143.45 C161.535,3.17,163.775,5.41,163.775,8.17z" style="fill: none;"/>
    <path class="st7" d="M163.775,8.17v239.66c0,2.76-2.24,5-5,5H32.715c-2.76,0-5-2.24-5-5V8.17c0-2.76,2.24-5,5-5h126.06 C161.535,3.17,163.775,5.41,163.775,8.17z" style="fill: rgb(240, 244, 245);"/>
    <path class="st0" d="M 101.755 103.967 C 101.755 109.297 98.865 113.947 94.565 116.437 C 92.445 117.667 89.995 118.367 87.365 118.367 C 79.415 118.367 72.975 111.917 72.975 103.967 C 72.975 96.017 79.415 89.577 87.365 89.577 C 89.995 89.577 92.445 90.277 94.565 91.507 C 98.865 93.987 101.755 98.637 101.755 103.967 Z" style="fill: rgb(204, 204, 204);"/>
    <path class="st1" d="M 101.755 103.967 C 101.755 109.297 98.865 113.947 94.565 116.437 C 90.265 113.947 87.365 109.297 87.365 103.967 C 87.365 98.637 90.265 93.987 94.565 91.507 C 98.865 93.987 101.755 98.637 101.755 103.967 Z" style="fill: rgb(239, 226, 226);"/>
    <path class="st8" d="M 88.8 120.367 C 97.84 120.367 105.19 113.007 105.19 103.967 C 105.19 94.927 97.84 87.577 88.8 87.577 C 79.76 87.577 72.41 94.927 72.41 103.967 C 72.41 113.007 79.76 120.367 88.8 120.367 Z M 88.8 91.577 C 95.64 91.577 101.19 97.137 101.19 103.967 C 101.19 110.807 95.64 116.367 88.8 116.367 C 81.97 116.367 76.41 110.807 76.41 103.967 C 76.41 97.137 81.97 91.577 88.8 91.577 Z" style="fill: rgb(73, 19, 82);"/>
    <path class="st8" d="M36.927,28.5v200c0,2.642,4,2.646,4,0v-200C40.927,25.858,36.927,25.854,36.927,28.5z" style="fill: rgb(73, 19, 82);"/>
    <path class="st8" d="M133.165,28.5v200c0,2.642,4,2.646,4,0v-200C137.165,25.858,133.165,25.854,133.165,28.5z" style="fill: rgb(73, 19, 82);"/>
    <path class="st8" d="M 64.364 26.337 L 108.047 26.337 C 110.689 26.337 110.693 22.337 108.047 22.337 L 64.364 22.337 C 61.721 22.337 61.718 26.337 64.364 26.337 Z" style="fill: rgb(73, 19, 82);"/>
    <path class="st8" d="M 116.046 38.337 L 58.046 38.337 C 55.404 38.337 55.4 42.337 58.046 42.337 L 116.046 42.337 C 118.689 42.337 118.692 38.337 116.046 38.337 Z" style="fill: rgb(73, 19, 82);"/>
    <path class="st8" d="M 165.775 241 L 165.775 200.5 L 165.775 8.17 C 165.775 4.31 162.635 1.17 158.775 1.17 L 15.325 1.17 C 11.465 1.17 8.325 4.31 8.325 8.17 L 8.325 247.83 C 8.325 251.69 11.465 254.83 15.325 254.83 L 158.775 254.83 C 162.635 254.83 165.775 251.69 165.775 247.83 L 165.775 241 Z M 161.775 247.83 C 161.775 249.49 160.425 250.83 158.775 250.83 L 15.325 250.83 C 13.665 250.83 12.325 249.49 12.325 247.83 L 12.325 8.17 C 12.325 6.51 13.665 5.17 15.325 5.17 L 158.775 5.17 C 160.425 5.17 161.775 6.51 161.775 8.17 C 161.775 27.431 161.775 240.178 161.775 247.83 Z M 165.775 204.5 L 165.775 237 L 165.775 204.5 Z" style="fill: rgb(73, 19, 82);"/>
    <rect x="47.809" y="183.385" width="78.267" height="16.615" style="fill: none; stroke-width: 3px; stroke: rgb(73, 19, 82);"/>
    <path class="st8" d="M 56.252 222.04 C 61.057 222.04 64.964 218.128 64.964 213.323 C 64.964 208.518 61.057 204.611 56.252 204.611 C 51.447 204.611 47.54 208.518 47.54 213.323 C 47.54 218.128 51.447 222.04 56.252 222.04 Z M 56.252 206.737 C 59.888 206.737 62.838 209.693 62.838 213.323 C 62.838 216.959 59.888 219.914 56.252 219.914 C 52.622 219.914 49.666 216.959 49.666 213.323 C 49.666 209.693 52.622 206.737 56.252 206.737 Z" style="fill: rgb(73, 19, 82);"/>
    <path class="st8" d="M 88.168 222.456 C 92.973 222.456 96.88 218.544 96.88 213.739 C 96.88 208.934 92.973 205.027 88.168 205.027 C 83.363 205.027 79.456 208.934 79.456 213.739 C 79.456 218.544 83.363 222.456 88.168 222.456 Z M 88.168 207.153 C 91.804 207.153 94.754 210.109 94.754 213.739 C 94.754 217.375 91.804 220.33 88.168 220.33 C 84.538 220.33 81.582 217.375 81.582 213.739 C 81.582 210.109 84.538 207.153 88.168 207.153 Z" style="stroke-width: 1; fill: rgb(73, 19, 82);"/>
    <path class="st8" d="M 117.986 222.09 C 122.791 222.09 126.698 218.178 126.698 213.373 C 126.698 208.568 122.791 204.661 117.986 204.661 C 113.181 204.661 109.274 208.568 109.274 213.373 C 109.274 218.178 113.181 222.09 117.986 222.09 Z M 117.986 206.787 C 121.622 206.787 124.572 209.743 124.572 213.373 C 124.572 217.009 121.622 219.964 117.986 219.964 C 114.356 219.964 111.4 217.009 111.4 213.373 C 111.4 209.743 114.356 206.787 117.986 206.787 Z" style="stroke-width: 1; fill: rgb(73, 19, 82);"/>
    <rect x="21.733" y="254.076" width="36.939" height="15.518" style="fill: none; stroke-width: 3; stroke: rgb(73, 19, 82);"/>
    <rect x="117.48" y="254.99" width="36.939" height="15.518" style="fill: none; stroke-width: 3; stroke: rgb(73, 19, 82);"/>
  </g>
  <path d="M 46.905 16.29 C 56.323 16.29 70.846 16.29 83.83 16.29 L 83.83 68.051 C 83.83 72.806 79.976 76.661 75.222 76.661 L 55.513 76.661 C 50.759 76.661 46.905 72.806 46.905 68.051 L 46.905 16.29 Z" style="fill: none; stroke-width: 3; stroke: rgb(73, 19, 82);"/>
  <g id="layer1" transform="matrix(0.75, 0, 0, 0.75, 43.259106, 37.808125)" style="">
    <g transform="translate(-431.60097,-226.01267)" id="g6403">
      <rect y="262.15366" x="473.92218" height="80" width="80" id="rect6314" style="color:#000000;fill:none;stroke:none;stroke-width:2;marker:none;visibility:visible;display:inline;overflow:visible;enable-background:accumulate"/>
      <path style="fill:#1f1a17;fill-rule:evenodd" d="m 520.65858,264.42021 c 4.27938,-0.77706 10.16009,-1.15779 14.46039,-1.80478 l 3.69642,8.01174 c 8.58733,10.85336 11.54715,25.74793 10.08901,34.57232 l -2.48524,12.59545 -65.75521,-29.7587 c 2.19584,-5.10034 5.34609,-8.2567 8.36809,-11.67432 9.26309,-8.60251 20.37664,-11.03034 31.62654,-11.94171 z" id="path6316"/>
      <path style="fill:url(#radialGradient6400);fill-rule:evenodd" d="m 492.24752,332.77799 c -12.52545,-10.49168 -15.10016,-25.98853 -11.31085,-41.37548 l 3.65672,-7.34505 c 7.40546,-10.73333 17.58539,-14.48975 29.77863,-17.45348 6.95687,-0.53519 13.97404,-1.45369 19.91501,-1.83112 9.70365,16.56861 15.41125,26.60793 12.19818,46.3648 l -2.72104,7.87039 -3.54031,5.43795 c -12.32438,15.22828 -31.46058,18.77011 -47.97634,8.33199 z" id="path6318"/>
      <rect style="color:#000000;fill:url(#radialGradient6397);fill-opacity:1;fill-rule:evenodd;stroke:none;stroke-width:2;marker:none;visibility:visible;display:inline;overflow:visible;enable-background:accumulate" id="rect6320" width="52.651794" height="52.245213" x="565.71838" y="-96.60302" transform="matrix(0.79561676,0.60580027,-0.60580027,0.79561676,0,0)"/>
      <path id="path6324" d="m 529.82626,268.79558 c 0,0 -33.83846,28.42319 -32.80561,30.79645 0.67874,1.55962 13.03476,3.25735 13.03476,3.25735 l -10.07313,22.06221 c -1.78204,5.72643 1.45573,2.51688 3.09186,3.09428 0,0 33.70019,-28.97749 32.86821,-30.93292 -0.83197,-1.95544 -8.93143,-2.48368 -12.43885,-3.49667 2.28226,-4.66139 9.4881,-22.93988 9.4881,-22.93988 2.12509,-4.13743 1.38019,-6.2758 -3.16534,-1.84082 z" style="fill:#000000;stroke:none"/>
      <path d="m 531.53774,269.80716 -29.94604,27.53766 12.90555,2.52091 -12.04948,25.46895 29.94604,-27.53764 -12.90554,-2.5209 z" id="path6326" style="fill:url(#radialGradient6393);fill-opacity:1;stroke:none"/>
      <path id="path6328" class="fil16" style="fill:url(#linearGradient6390);fill-opacity:1;fill-rule:evenodd" d="m 516.04726,269.15447 c 16.41807,-0.021 29.70942,11.42877 29.68214,25.56833 l -0.006,0.35993 -59.45243,0.0767 -0.004,-0.36007 c 0.0273,-14.13956 13.36246,-25.62389 29.78054,-25.64489 l 1.3e-4,2e-5 z"/>
      <path style="fill:#1f1a17;fill-rule:evenodd" d="m 549.64671,313.18416 1.23063,2.29349 -9.7375,10.76546 c -6.48594,7.95296 -9.21767,9.85116 -14.88881,13.01715 -12.60734,4.67767 -19.60436,1.75868 -29.44588,-1.66442 l -5.71181,3.72215 -2.79033,-1.32424 -1.42588,-2.26028 4.77357,-2.77864 c -17.26602,-18.40203 -15.36197,-34.6694 -11.6313,-50.88972 l 2.60344,-0.6111 2.25506,15.45327 9.39948,-7.04179 0,0 2.26428,2.01512 -2.48095,14.00472 9.78082,-3.16222 3.15332,0.87823 -0.31,13.32243 22.89178,-12.04294 2.38056,1.42283 -5.03999,12.32074 12.98246,-12.60629 2.41442,1.40703 -4.85611,10.85461 z" id="path6332"/>
      <path style="fill:url(#radialGradient6386);fill-rule:evenodd" d="m 499.65267,336.92135 c -2.53147,-0.74769 -5.3726,-1.3134 -7.32773,-2.97472 -13.61035,-16.32999 -14.71843,-29.28437 -11.32324,-46.88851 l 2.26839,15.51359 10.66792,-7.70976 0,0 -3.3775,18.04202 13.13098,-5.2243 -0.038,17.01783 24.6928,-14.58857 -5.57998,17.70934 17.12417,-17.07152 -4.87349,12.91696 13.1682,-7.58882 c -7.07975,8.91139 -14.30169,18.23537 -22.7844,21.45034 -7.50985,3.45528 -13.61685,2.60928 -25.74814,-0.60388 z" id="path6334"/>
      <polygon id="polygon6336" class="fil43" points="22893.4,158534 22893.4,158534 23466.3,158566 23163.6,159265 22842,159364 22642.4,159246 " style="fill:#99ae6a;fill-rule:evenodd" transform="matrix(0.00328986,0.00250497,-0.00250497,0.00328986,813.80781,-242.48525)"/>
    </g>
  </g>
</svg>