<?xml version="1.0" encoding="utf-8"?>
<svg height="100%" style="fill-rule:evenodd;clip-rule:evenodd;stroke-linecap:round;stroke-linejoin:round;" width="100%" version="1.1" viewBox="0 0 150 150" xmlns="http://www.w3.org/2000/svg" xmlns:bx="https://boxy-svg.com">
  <defs>
    <bx:grid x="0" y="0" width="15" height="15"/>
  </defs>
  <rect width="120" height="120" style="fill: none; stroke-width: 0.2px; stroke: rgb(84, 84, 84); pointer-events: none; visibility: hidden;" x="15" y="15"/>
  <g style="" transform="matrix(0.211792, 0, 0, 0.211792, 25.040529, 22.033496)">
    <path d="M 119.779 265.572 L 146.694 265.582 C 146.694 265.582 162.549 310.895 163.783 313.997 L 145.642 332.841 L 166.338 355.62 L 185.565 336.41 C 184.801 337.405 234.42 356.617 234.42 356.617 L 234.74 387.858 L 265.36 389.26 L 265.013 356.868 L 313.812 336.358 L 339.89 361.913 L 362.266 340.797 L 336.562 314.13 L 354.13 265.424 L 394.197 265.15 L 393.609 234.438 L 353.715 234.488 C 352.82 232.067 335.975 185.534 335.975 185.534 L 360.441 160.899 L 337.258 140.162 L 313.098 163.288 C 313.098 163.288 266.045 143.401 265.958 143.359 L 265.79 114.664 L 234.642 116.098 L 234.194 143.169 L 186.316 163.095 L 168.728 146.231 L 147.462 168.692 L 163.361 185.54 L 146.557 234.451 L 120.386 234.37 M 210.493 187.051 L 256.57 234.488 C 256.57 234.488 320.45 234.364 320.586 234.229 C 320.721 234.094 306.162 193.954 306.162 193.954 C 306.162 193.954 250.088 170.32 249.69 170.347 M 187.967 210.526 C 187.649 210.754 174.103 248.738 174.103 249.471 C 174.103 250.2 187.998 289.362 188.741 289.362 C 189.632 289.362 227.328 250.756 227.328 249.843 C 227.328 248.581 188.7 209.996 187.967 210.526 M 257.27 265.455 C 256.179 265.594 249.754 271.775 232.923 288.884 C 220.348 301.667 210.161 312.294 210.285 312.494 C 210.41 312.695 212.068 313.532 213.966 314.356 C 215.864 315.18 220.73 317.306 224.778 319.081 C 241.811 326.551 248.988 329.565 249.748 329.565 C 250.514 329.565 252.968 328.567 267.247 322.463 C 272.788 320.092 283.196 315.705 300.652 308.373 L 306.313 305.995 L 308.715 299.518 C 310.034 295.957 311.861 291.004 312.774 288.514 C 313.686 286.021 315.955 279.905 317.813 274.924 C 319.673 269.94 321.108 265.771 321 265.655 C 320.761 265.397 259.289 265.202 257.27 265.455" stroke="none" fill-rule="evenodd" style="stroke-width: 1.929; pointer-events: none; transform-box: fill-box; transform-origin: 50% 50%; fill: rgb(33, 204, 255);"/>
    <g>
      <rect x="389.945" y="234.245" width="88.288" height="31.534" style="stroke-width: 1.929; fill: rgb(89, 152, 222);"/>
      <rect x="145.508" y="578.72" width="57.346" height="31.534" style="stroke-width: 1.929; transform-box: fill-box; transform-origin: 50% 50%; fill: rgb(89, 152, 222);" transform="matrix(0.707107, -0.707107, 0.707107, 0.707107, -37.625739, -231.099328)"/>
      <rect x="268.056" y="574.269" width="50.735" height="31.007" style="stroke-width: 1; transform-origin: 152.09px 305.696px; fill: rgb(89, 152, 222);" transform="matrix(0.707107, 0.707107, -0.707107, 0.707107, 89.660267, -467.148062)"/>
      <g transform="matrix(1.929278, 0, 0, 1.929278, -169.66726, -230.10159)">
        <rect x="167.474" y="297.66" width="31.698" height="16.072" style="stroke-width: 1; transform-box: fill-box; transform-origin: 50% 50%; fill: rgb(89, 152, 222);" transform="matrix(0.707107, 0.707107, -0.707107, 0.707107, 97.683973, 6.752047)"/>
        <ellipse style="fill: rgb(89, 152, 222);" cx="298.182" cy="330.143" rx="18.184" ry="18.184"/>
      </g>
      <g transform="matrix(0, 1.929278, -1.929278, 0, -117.59696, 162.12925)" style="transform-origin: 290.242px 321.943px;">
        <path d="M 234.052 304.012 L 295.85 303.793 L 295.85 319.865 L 240.576 320.139 L 236.241 324.134 L 225.125 312.911 L 234.052 304.012 Z" style="stroke-width: 1; transform-box: fill-box; transform-origin: 50% 50%; fill: rgb(89, 152, 222);" transform="matrix(0.707107, 0.707107, -0.707107, 0.707107, 4.206065, -14.423297)"/>
        <ellipse style="fill: rgb(89, 152, 222);" cx="298.182" cy="330.143" rx="18.184" ry="18.184"/>
      </g>
      <g transform="matrix(-1.364205, 1.364205, -1.364205, -1.364205, -225.276776, -72.630062)" style="transform-origin: 290.242px 321.943px;">
        <rect x="167.474" y="297.66" width="31.698" height="16.072" style="stroke-width: 1; transform-box: fill-box; transform-origin: 50% 50%; fill: rgb(89, 152, 222);" transform="matrix(0.707107, 0.707107, -0.707107, 0.707107, 97.683973, 6.752047)"/>
        <ellipse style="fill: rgb(89, 152, 222);" cx="298.182" cy="330.143" rx="18.184" ry="18.184"/>
      </g>
      <g transform="matrix(-1.929277, 0, 0, -1.929277, -96.488912, -305.337998)" style="transform-origin: 290.242px 321.943px;">
        <path d="M 157.74 296.617 L 199.172 297.66 L 199.172 313.732 L 151.483 313.732 L 133.58 295.866 L 144.962 284.648 L 157.74 296.617 Z" style="stroke-width: 1; transform-box: fill-box; transform-origin: 50% 50%; fill: rgb(89, 152, 222);" transform="matrix(0.707107, 0.707107, -0.707107, 0.707107, 107.248061, -3.32573)"/>
        <ellipse style="fill: rgb(89, 152, 222);" cx="298.182" cy="330.143" rx="18.184" ry="18.184"/>
      </g>
      <g transform="matrix(0, -1.929278, 1.929278, 0, 97.572339, -210.817928)" style="transform-origin: 290.242px 321.943px;">
        <rect x="299.224" y="297.66" width="56.634" height="16.072" style="stroke-width: 1; transform-box: fill-box; transform-origin: 50% 50%; fill: rgb(89, 152, 222);" transform="matrix(0.707107, 0.707107, -0.707107, 0.707107, -37.717619, 15.568392)"/>
        <ellipse style="fill: rgb(89, 152, 222);" cx="319.805" cy="350.736" rx="18.184" ry="18.184"/>
      </g>
    </g>
  </g>
</svg>