<?xml version="1.0" encoding="utf-8"?>
<svg height="100%" style="fill-rule:evenodd;clip-rule:evenodd;stroke-linecap:round;stroke-linejoin:round;" width="100%" version="1.1" viewBox="0 0 150 150" xmlns="http://www.w3.org/2000/svg" xmlns:bx="https://boxy-svg.com">
  <defs>
    <bx:grid x="0" y="0" width="15" height="15"/>
  </defs>
  <rect width="120" height="120" style="fill: none; stroke-width: 0.2px; stroke: rgb(84, 84, 84); pointer-events: none; visibility: hidden;" x="15" y="15"/>
  <g transform="matrix(0.784135, 0, 0, 0.784135, -112.499552, 23.277237)" style="">
    <path d="M 200.154 107.834 L 175.279 80.475 C 176.249 79.506 177.366 78.756 178.644 78.198 C 179.922 77.64 181.304 77.36 182.773 77.36 C 184.345 77.375 185.77 77.684 187.078 78.286 C 188.386 78.889 189.517 79.726 190.472 80.784 L 200.14 91.348 L 209.749 80.784 C 210.748 79.726 211.909 78.889 213.216 78.286 C 214.539 77.684 215.964 77.375 217.507 77.36 C 218.976 77.375 220.357 77.654 221.635 78.198 C 222.914 78.756 224.045 79.506 225 80.475 L 200.154 107.834 M 200.154 112.006 L 175.279 139.364 C 176.249 140.334 177.366 141.083 178.644 141.642 C 179.922 142.2 181.304 142.479 182.773 142.479 C 184.316 142.465 185.741 142.156 187.063 141.554 C 188.386 140.951 189.546 140.114 190.531 139.056 L 200.14 128.492 L 209.808 139.056 C 210.763 140.114 211.894 140.951 213.202 141.554 C 214.509 142.156 215.935 142.465 217.507 142.479 C 218.976 142.465 220.357 142.185 221.635 141.642 C 222.914 141.083 224.045 140.334 225 139.364 L 200.154 112.006" style="fill: rgb(49, 49, 49);"/>
    <path d="M 198.053 109.883 L 179.32 89.342 C 178.232 88.182 176.969 87.271 175.514 86.595 C 174.074 85.934 172.502 85.596 170.827 85.581 C 169.211 85.596 167.698 85.904 166.302 86.507 C 164.891 87.109 163.672 87.946 162.614 88.99 L 181.612 109.883 L 162.599 130.776 C 163.657 131.863 164.891 132.716 166.287 133.333 C 167.698 133.95 169.196 134.258 170.813 134.258 C 172.502 134.244 174.074 133.906 175.529 133.245 C 176.984 132.583 178.247 131.658 179.305 130.497 L 198.053 109.883 M 202.226 109.883 L 220.959 130.497 C 222.017 131.658 223.281 132.569 224.735 133.245 C 226.19 133.906 227.762 134.244 229.452 134.258 C 231.068 134.244 232.581 133.935 233.977 133.333 C 235.388 132.716 236.607 131.878 237.665 130.776 L 218.667 109.883 L 237.68 88.99 C 236.622 87.932 235.388 87.109 233.992 86.507 C 232.581 85.904 231.083 85.596 229.466 85.581 C 227.791 85.596 226.219 85.934 224.779 86.595 C 223.34 87.256 222.061 88.182 220.974 89.342 L 202.226 109.883" style="fill: rgb(174, 174, 174);"/>
  </g>
  <g transform="matrix(1.671253, 0.224369, 0, 1.671253, -42.547219, -192.722537)" style="">
    <title>Win11</title>
    <rect x="57.491" y="113.751" width="23.105" height="23.105" style="fill: rgb(92, 92, 92);"/>
    <rect x="83.131" y="113.751" width="23.105" height="23.105" style="fill: rgb(92, 92, 92);"/>
    <rect x="57.491" y="139.393" width="23.105" height="23.105" style="fill: rgb(92, 92, 92);"/>
    <rect x="83.131" y="139.393" width="23.105" height="23.105" style="fill: rgb(92, 92, 92);"/>
  </g>
</svg>