<?xml version="1.0" encoding="utf-8"?>
<svg height="100%" style="fill-rule:evenodd;clip-rule:evenodd;stroke-linecap:round;stroke-linejoin:round;" width="100%" version="1.1" viewBox="0 0 225 105" xmlns="http://www.w3.org/2000/svg" xmlns:bx="https://boxy-svg.com">
  <defs>
    <bx:grid x="0" y="0" width="15" height="15"/>
  </defs>
  <rect width="120" height="120" style="fill: none; stroke-width: 0.2px; stroke: rgb(84, 84, 84); pointer-events: none; visibility: hidden;" x="15" y="15"/>
  <g transform="matrix(0.893265, 0, 0, 0.893265, -51.994588, -101.106744)" style="">
    <circle class="cls-1" cx="264.198" cy="172.26" r="29.102" style="fill: rgb(200, 232, 235); stroke-width: 1;"/>
    <rect class="cls-2" x="249.458" y="151.892" width="29.48" height="28.486" style="fill: rgb(255, 255, 255); stroke-width: 1;"/>
    <rect class="cls-3" x="253.345" y="155.65" width="9.982" height="9.646" style="fill: rgb(70, 107, 178); stroke-width: 1;"/>
    <rect class="cls-4" x="265.068" y="155.65" width="9.982" height="9.646" style="fill: rgb(31, 189, 206); stroke-width: 1;"/>
    <rect class="cls-5" x="253.345" y="166.973" width="21.706" height="9.646" style="fill: rgb(65, 65, 65); stroke-width: 1;"/>
    <path class="cls-3" d="M 253.348 184.65 L 254.612 184.65 L 257.533 188.489 L 257.533 184.65 L 258.887 184.65 L 258.887 190.884 L 257.72 190.884 L 254.702 186.921 L 254.702 190.884 L 253.348 190.884 L 253.348 184.65 Z" style="fill: rgb(70, 107, 178); stroke-width: 1;"/>
    <path class="cls-3" d="M 260.008 188.524 L 260.008 188.507 C 260.085 186.518 262.286 185.359 263.969 186.42 C 264.685 186.871 265.134 187.644 265.173 188.489 L 265.173 188.507 C 265.096 190.495 262.895 191.654 261.212 190.593 C 260.497 190.142 260.047 189.369 260.008 188.524 Z M 263.837 188.524 L 263.837 188.507 C 263.866 187.791 263.297 187.195 262.582 187.188 C 261.869 187.178 261.299 187.777 261.344 188.489 L 261.344 188.507 C 261.316 189.221 261.885 189.818 262.6 189.824 C 263.312 189.834 263.882 189.235 263.837 188.524 Z" style="fill: rgb(70, 107, 178); stroke-width: 1;"/>
    <path class="cls-3" d="M 265.939 188.507 L 265.939 188.489 C 265.939 186.895 266.98 186.022 268.111 186.022 C 268.692 186.011 269.244 186.275 269.599 186.734 L 269.599 184.383 L 270.952 184.383 L 270.952 190.884 L 269.599 190.884 L 269.599 190.198 C 269.267 190.692 268.707 190.984 268.111 190.973 C 266.998 190.973 265.939 190.1 265.939 188.507 Z M 269.616 188.507 L 269.616 188.489 C 269.729 187.594 268.832 186.913 268 187.262 C 267.516 187.466 267.227 187.967 267.292 188.489 L 267.292 188.507 C 267.179 189.401 268.077 190.082 268.908 189.733 C 269.393 189.529 269.682 189.028 269.616 188.507 Z" style="fill: rgb(70, 107, 178); stroke-width: 1;"/>
    <path class="cls-3" d="M 271.931 188.524 L 271.931 188.507 C 271.87 187.158 272.942 186.03 274.291 186.022 C 275.885 186.022 276.615 187.259 276.615 188.613 C 276.615 188.72 276.607 188.845 276.598 188.969 L 273.276 188.969 C 273.364 189.536 273.87 189.942 274.443 189.904 C 274.88 189.91 275.3 189.732 275.6 189.414 L 276.375 190.1 C 275.12 191.58 272.733 191.147 272.078 189.32 C 271.987 189.064 271.937 188.795 271.931 188.524 Z M 275.298 188.123 C 275.293 187.568 274.846 187.117 274.291 187.108 C 273.734 187.124 273.284 187.567 273.258 188.123 L 275.298 188.123 Z" style="fill: rgb(70, 107, 178); stroke-width: 1;"/>
    <path class="cls-1" d="M 125.311 163.333 C 112.929 163.333 105.189 149.927 111.378 139.202 C 117.571 128.478 133.051 128.478 139.244 139.202 C 140.655 141.648 141.399 144.422 141.399 147.246 C 141.389 156.127 134.192 163.323 125.311 163.333 Z M 125.311 132.494 C 113.955 132.494 106.859 144.787 112.535 154.622 C 118.215 164.457 132.411 164.457 138.087 154.622 C 139.382 152.379 140.064 149.835 140.064 147.246 C 140.054 139.103 133.453 132.503 125.311 132.494 Z" style="fill: rgb(200, 232, 235); stroke-width: 1;"/>
    <rect class="cls-5" x="120.505" y="141.291" width="14.74" height="6.376" style="fill: rgb(65, 65, 65); stroke-width: 1;"/>
    <path class="cls-6" d="M 135.468 147.89 L 120.279 147.89 L 120.279 141.068 L 135.468 141.068 L 135.468 147.89 Z M 120.727 147.444 L 135.021 147.444 L 135.021 141.514 L 120.727 141.514 L 120.727 147.444 Z" style="fill: rgb(252, 253, 255); stroke-width: 1;"/>
    <rect class="cls-5" x="119.179" y="142.809" width="14.74" height="6.376" style="fill: rgb(65, 65, 65); stroke-width: 1;"/>
    <path class="cls-6" d="M 134.142 149.408 L 118.958 149.408 L 118.958 142.586 L 134.142 142.586 L 134.142 149.408 Z M 119.401 148.963 L 133.695 148.963 L 133.695 143.032 L 119.401 143.032 L 119.401 148.963 Z" style="fill: rgb(252, 253, 255); stroke-width: 1;"/>
    <rect class="cls-5" x="117.357" y="144.327" width="14.74" height="6.376" style="fill: rgb(65, 65, 65); stroke-width: 1;"/>
    <path class="cls-6" d="M 132.32 150.926 L 117.136 150.926 L 117.136 144.105 L 132.32 144.105 L 132.32 150.926 Z M 117.579 150.481 L 131.873 150.481 L 131.873 144.55 L 117.579 144.55 L 117.579 150.481 Z" style="fill: rgb(252, 253, 255); stroke-width: 1;"/>
    <rect class="cls-5" x="115.785" y="145.845" width="14.74" height="6.376" style="fill: rgb(65, 65, 65); stroke-width: 1;"/>
    <path class="cls-6" d="M 130.744 152.444 L 115.56 152.444 L 115.56 145.623 L 130.744 145.623 L 130.744 152.444 Z M 116.007 151.999 L 130.301 151.999 L 130.301 146.068 L 116.007 146.068 L 116.007 151.999 Z" style="fill: rgb(252, 253, 255); stroke-width: 1;"/>
    <rect class="cls-3" x="87.924" y="182.981" width="10.351" height="10.351" style="fill: rgb(70, 107, 178); stroke-width: 1;"/>
    <path class="cls-6" d="M 98.504 193.564 L 87.69 193.564 L 87.69 182.75 L 98.504 182.75 L 98.504 193.564 Z M 88.153 193.101 L 98.04 193.101 L 98.04 183.213 L 88.153 183.213 L 88.153 193.101 Z" style="fill: rgb(252, 253, 255); stroke-width: 1;"/>
    <rect class="cls-3" x="85.933" y="185.393" width="10.351" height="10.351" style="fill: rgb(70, 107, 178); stroke-width: 1;"/>
    <path class="cls-6" d="M 96.517 195.976 L 85.703 195.976 L 85.703 185.161 L 96.517 185.161 L 96.517 195.976 Z M 86.167 195.513 L 96.054 195.513 L 96.054 185.625 L 86.167 185.625 L 86.167 195.513 Z" style="fill: rgb(252, 253, 255); stroke-width: 1;"/>
    <rect class="cls-4" x="121.744" y="188.678" width="10.351" height="10.351" style="fill: rgb(31, 189, 206); stroke-width: 1;"/>
    <path class="cls-2" d="M 132.32 199.251 L 121.523 199.251 L 121.523 188.456 L 132.32 188.456 L 132.32 199.251 Z M 121.97 198.806 L 131.873 198.806 L 131.873 188.901 L 121.97 188.901 L 121.97 198.806 Z" style="fill: rgb(255, 255, 255); stroke-width: 1;"/>
    <rect class="cls-4" x="119.758" y="191.09" width="10.351" height="10.351" style="fill: rgb(31, 189, 206); stroke-width: 1;"/>
    <path class="cls-2" d="M 130.334 201.663 L 119.536 201.663 L 119.536 190.868 L 130.334 190.868 L 130.334 201.663 Z M 119.98 201.218 L 129.887 201.218 L 129.887 191.312 L 119.98 191.312 L 119.98 201.218 Z" style="fill: rgb(255, 255, 255); stroke-width: 1;"/>
    <rect class="cls-4" x="117.895" y="193.502" width="10.351" height="10.351" style="fill: rgb(31, 189, 206); stroke-width: 1;"/>
    <path class="cls-2" d="M 128.471 204.075 L 117.673 204.075 L 117.673 193.279 L 128.471 193.279 L 128.471 204.075 Z M 118.116 203.63 L 128.023 203.63 L 128.023 193.724 L 118.116 193.724 L 118.116 203.63 Z" style="fill: rgb(255, 255, 255); stroke-width: 1;"/>
    <rect class="cls-7" x="85.523" y="146.235" width="12.504" height="11.134" style="fill: rgb(217, 239, 241); stroke-width: 1;"/>
    <path class="cls-2" d="M 98.266 157.607 L 85.289 157.607 L 85.289 145.998 L 98.266 145.998 L 98.266 157.607 Z M 85.761 157.132 L 97.79 157.132 L 97.79 146.473 L 85.761 146.473 L 85.761 157.132 Z" style="fill: rgb(255, 255, 255); stroke-width: 1;"/>
    <rect class="cls-7" x="83.992" y="147.733" width="12.504" height="11.134" style="fill: rgb(217, 239, 241); stroke-width: 1;"/>
    <path class="cls-2" d="M 96.735 159.105 L 83.754 159.105 L 83.754 147.495 L 96.735 147.495 L 96.735 159.105 Z M 84.23 158.629 L 96.259 158.629 L 96.259 147.97 L 84.23 147.97 L 84.23 158.629 Z" style="fill: rgb(255, 255, 255); stroke-width: 1;"/>
    <circle class="cls-1" cx="140.837" cy="155.415" r="0.787" style="fill: rgb(200, 232, 235); stroke-width: 1;"/>
    <circle class="cls-1" cx="143.525" cy="155.415" r="0.787" style="fill: rgb(200, 232, 235); stroke-width: 1;"/>
    <circle class="cls-1" cx="146.213" cy="155.415" r="0.787" style="fill: rgb(200, 232, 235); stroke-width: 1;"/>
    <circle class="cls-1" cx="148.9" cy="155.415" r="0.787" style="fill: rgb(200, 232, 235); stroke-width: 1;"/>
    <circle class="cls-1" cx="151.588" cy="155.415" r="0.787" style="fill: rgb(200, 232, 235); stroke-width: 1;"/>
    <circle class="cls-1" cx="154.276" cy="155.415" r="0.787" style="fill: rgb(200, 232, 235); stroke-width: 1;"/>
    <circle class="cls-1" cx="156.964" cy="155.415" r="0.787" style="fill: rgb(200, 232, 235); stroke-width: 1;"/>
    <circle class="cls-1" cx="159.651" cy="155.415" r="0.787" style="fill: rgb(200, 232, 235); stroke-width: 1;"/>
    <circle class="cls-1" cx="162.34" cy="155.415" r="0.787" style="fill: rgb(200, 232, 235); stroke-width: 1;"/>
    <circle class="cls-1" cx="133.872" cy="167.673" r="0.787" style="fill: rgb(200, 232, 235); stroke-width: 1;"/>
    <circle class="cls-1" cx="131.052" cy="167.673" r="0.787" style="fill: rgb(200, 232, 235); stroke-width: 1;"/>
    <circle class="cls-1" cx="128.233" cy="167.673" r="0.787" style="fill: rgb(200, 232, 235); stroke-width: 1;"/>
    <circle class="cls-1" cx="125.417" cy="167.673" r="0.787" style="fill: rgb(200, 232, 235); stroke-width: 1;"/>
    <circle class="cls-1" cx="122.598" cy="167.673" r="0.787" style="fill: rgb(200, 232, 235); stroke-width: 1;"/>
    <circle class="cls-1" cx="119.779" cy="167.673" r="0.787" style="fill: rgb(200, 232, 235); stroke-width: 1;"/>
    <circle class="cls-1" cx="116.963" cy="167.673" r="0.787" style="fill: rgb(200, 232, 235); stroke-width: 1;"/>
    <circle class="cls-1" cx="114.144" cy="167.673" r="0.787" style="fill: rgb(200, 232, 235); stroke-width: 1;"/>
    <circle class="cls-1" cx="111.324" cy="167.673" r="0.787" style="fill: rgb(200, 232, 235); stroke-width: 1;"/>
    <circle class="cls-1" cx="108.505" cy="167.673" r="0.787" style="fill: rgb(200, 232, 235); stroke-width: 1;"/>
    <circle class="cls-1" cx="106.638" cy="165.757" r="0.787" style="fill: rgb(200, 232, 235); stroke-width: 1;"/>
    <circle class="cls-1" cx="104.401" cy="163.452" r="0.787" style="fill: rgb(200, 232, 235); stroke-width: 1;"/>
    <circle class="cls-1" cx="104.401" cy="179.558" r="0.787" style="fill: rgb(200, 232, 235); stroke-width: 1;"/>
    <circle class="cls-1" cx="106.387" cy="177.488" r="0.787" style="fill: rgb(200, 232, 235); stroke-width: 1;"/>
    <circle class="cls-1" cx="108.505" cy="175.512" r="0.787" style="fill: rgb(200, 232, 235); stroke-width: 1;"/>
    <circle class="cls-1" cx="111.341" cy="175.512" r="0.787" style="fill: rgb(200, 232, 235); stroke-width: 1;"/>
    <circle class="cls-1" cx="114.173" cy="175.512" r="0.787" style="fill: rgb(200, 232, 235); stroke-width: 1;"/>
    <circle class="cls-1" cx="117.008" cy="175.512" r="0.787" style="fill: rgb(200, 232, 235); stroke-width: 1;"/>
    <circle class="cls-1" cx="119.84" cy="175.512" r="0.787" style="fill: rgb(200, 232, 235); stroke-width: 1;"/>
    <circle class="cls-1" cx="122.676" cy="175.512" r="0.787" style="fill: rgb(200, 232, 235); stroke-width: 1;"/>
    <circle class="cls-1" cx="125.512" cy="175.512" r="0.787" style="fill: rgb(200, 232, 235); stroke-width: 1;"/>
    <circle class="cls-1" cx="128.344" cy="175.512" r="0.787" style="fill: rgb(200, 232, 235); stroke-width: 1;"/>
    <circle class="cls-1" cx="131.179" cy="175.512" r="0.787" style="fill: rgb(200, 232, 235); stroke-width: 1;"/>
    <circle class="cls-1" cx="134.011" cy="175.512" r="0.787" style="fill: rgb(200, 232, 235); stroke-width: 1;"/>
    <circle class="cls-1" cx="136.847" cy="175.512" r="0.787" style="fill: rgb(200, 232, 235); stroke-width: 1;"/>
    <circle class="cls-1" cx="139.68" cy="175.512" r="0.787" style="fill: rgb(200, 232, 235); stroke-width: 1;"/>
    <circle class="cls-1" cx="142.514" cy="175.512" r="0.787" style="fill: rgb(200, 232, 235); stroke-width: 1;"/>
    <circle class="cls-1" cx="145.348" cy="175.512" r="0.787" style="fill: rgb(200, 232, 235); stroke-width: 1;"/>
    <circle class="cls-1" cx="148.182" cy="175.512" r="0.787" style="fill: rgb(200, 232, 235); stroke-width: 1;"/>
    <circle class="cls-1" cx="151.015" cy="175.512" r="0.787" style="fill: rgb(200, 232, 235); stroke-width: 1;"/>
    <circle class="cls-1" cx="153.85" cy="175.512" r="0.787" style="fill: rgb(200, 232, 235); stroke-width: 1;"/>
    <circle class="cls-1" cx="156.683" cy="175.512" r="0.787" style="fill: rgb(200, 232, 235); stroke-width: 1;"/>
    <circle class="cls-1" cx="136.691" cy="167.673" r="0.787" style="fill: rgb(200, 232, 235); stroke-width: 1;"/>
    <circle class="cls-1" cx="139.508" cy="167.673" r="0.787" style="fill: rgb(200, 232, 235); stroke-width: 1;"/>
    <circle class="cls-1" cx="142.327" cy="167.673" r="0.787" style="fill: rgb(200, 232, 235); stroke-width: 1;"/>
    <circle class="cls-1" cx="145.145" cy="167.673" r="0.787" style="fill: rgb(200, 232, 235); stroke-width: 1;"/>
    <circle class="cls-1" cx="147.963" cy="167.673" r="0.787" style="fill: rgb(200, 232, 235); stroke-width: 1;"/>
    <circle class="cls-1" cx="150.782" cy="167.673" r="0.787" style="fill: rgb(200, 232, 235); stroke-width: 1;"/>
    <circle class="cls-1" cx="153.6" cy="167.673" r="0.787" style="fill: rgb(200, 232, 235); stroke-width: 1;"/>
    <circle class="cls-1" cx="156.419" cy="167.673" r="0.787" style="fill: rgb(200, 232, 235); stroke-width: 1;"/>
    <circle class="cls-1" cx="140.818" cy="188.612" r="0.787" style="fill: rgb(200, 232, 235); stroke-width: 1;"/>
    <circle class="cls-1" cx="143.505" cy="188.612" r="0.787" style="fill: rgb(200, 232, 235); stroke-width: 1;"/>
    <circle class="cls-1" cx="146.193" cy="188.612" r="0.787" style="fill: rgb(200, 232, 235); stroke-width: 1;"/>
    <circle class="cls-1" cx="148.881" cy="188.612" r="0.787" style="fill: rgb(200, 232, 235); stroke-width: 1;"/>
    <circle class="cls-1" cx="151.569" cy="188.612" r="0.787" style="fill: rgb(200, 232, 235); stroke-width: 1;"/>
    <circle class="cls-1" cx="154.256" cy="188.612" r="0.787" style="fill: rgb(200, 232, 235); stroke-width: 1;"/>
    <circle class="cls-1" cx="156.944" cy="188.612" r="0.787" style="fill: rgb(200, 232, 235); stroke-width: 1;"/>
    <circle class="cls-1" cx="159.632" cy="188.612" r="0.787" style="fill: rgb(200, 232, 235); stroke-width: 1;"/>
    <circle class="cls-1" cx="162.32" cy="188.612" r="0.787" style="fill: rgb(200, 232, 235); stroke-width: 1;"/>
    <path class="cls-1" d="M 125.311 212.763 C 112.929 212.763 105.189 199.357 111.382 188.632 C 117.571 177.908 133.051 177.908 139.244 188.632 C 140.655 191.078 141.399 193.852 141.399 196.676 C 141.389 205.556 134.192 212.753 125.311 212.763 Z M 125.311 181.924 C 113.955 181.924 106.859 194.217 112.535 204.052 C 118.215 213.886 132.411 213.886 138.087 204.052 C 139.382 201.809 140.064 199.265 140.064 196.676 C 140.054 188.532 133.453 181.933 125.311 181.924 Z" style="fill: rgb(200, 232, 235); stroke-width: 1;"/>
    <path class="cls-1" d="M 91.112 206.656 C 78.727 206.656 70.987 193.25 77.179 182.525 C 83.368 171.801 98.848 171.801 105.041 182.525 C 106.453 184.971 107.196 187.745 107.196 190.569 C 107.188 199.449 99.989 206.646 91.112 206.656 Z M 91.112 175.817 C 79.753 175.817 72.657 188.11 78.337 197.945 C 84.013 207.779 98.208 207.779 103.884 197.945 C 105.181 195.702 105.862 193.158 105.862 190.569 C 105.854 182.425 99.255 175.826 91.112 175.817 Z" style="fill: rgb(200, 232, 235); stroke-width: 1;"/>
    <path class="cls-1" d="M 91.112 168.719 C 78.727 168.719 70.987 155.313 77.179 144.588 C 83.368 133.864 98.848 133.864 105.041 144.588 C 106.453 147.034 107.196 149.808 107.196 152.632 C 107.188 161.513 99.989 168.709 91.112 168.719 Z M 91.112 137.88 C 79.753 137.88 72.657 150.173 78.337 160.008 C 84.013 169.843 98.208 169.843 103.884 160.008 C 105.181 157.765 105.862 155.221 105.862 152.632 C 105.854 144.489 99.255 137.889 91.112 137.88 Z" style="fill: rgb(200, 232, 235); stroke-width: 1;"/>
    <rect class="cls-1" x="215.541" y="170.544" width="15.941" height="1.335" style="fill: rgb(200, 232, 235); stroke-width: 1;"/>
    <polygon class="cls-1" points="226.888 176.642 225.974 175.669 230.509 171.415 225.598 166.749 226.517 165.781 232.455 171.421 226.888 176.642" style="fill: rgb(200, 232, 235); stroke-width: 1;"/>
    <circle class="cls-8" cx="187.355" cy="171.212" r="28.215" style="fill: rgb(49, 108, 230); stroke-width: 1;"/>
    <path class="cls-1" d="M 187.355 200.452 C 164.846 200.452 150.777 176.085 162.032 156.591 C 173.287 137.097 201.424 137.097 212.678 156.591 C 215.245 161.037 216.596 166.079 216.596 171.212 C 216.578 187.353 203.497 200.434 187.355 200.452 Z M 187.355 144.023 C 166.425 144.023 153.344 166.68 163.809 184.806 C 174.274 202.932 200.437 202.932 210.901 184.806 C 213.288 180.673 214.544 175.985 214.544 171.212 C 214.527 156.203 202.364 144.04 187.355 144.023 Z" style="fill: rgb(200, 232, 235); stroke-width: 1;"/>
    <path class="cls-2" d="M 202.33 174.034 C 202.254 174.017 202.145 173.986 202.07 173.973 C 201.786 173.933 201.5 173.91 201.213 173.904 C 200.671 173.868 200.134 173.78 199.609 173.64 C 199.447 173.549 199.313 173.415 199.224 173.253 L 198.862 173.147 C 199.248 170.327 198.586 167.463 197 165.1 C 197.092 165.015 197.267 164.861 197.317 164.815 C 197.305 164.631 197.364 164.449 197.485 164.309 C 197.896 163.955 198.342 163.642 198.814 163.374 C 199.07 163.244 199.318 163.1 199.558 162.941 C 199.615 162.898 199.694 162.831 199.754 162.782 C 200.338 162.41 200.3 161.546 199.686 161.227 C 199.341 161.047 198.918 161.111 198.641 161.383 C 198.58 161.432 198.497 161.495 198.443 161.542 C 198.234 161.739 198.036 161.947 197.852 162.167 C 197.486 162.569 197.082 162.934 196.646 163.258 C 196.474 163.328 196.286 163.348 196.104 163.316 L 195.763 163.56 C 193.805 161.505 191.167 160.23 188.341 159.973 C 188.332 159.854 188.322 159.639 188.319 159.574 C 188.167 159.469 188.063 159.309 188.028 159.127 C 188.009 158.584 188.042 158.041 188.129 157.505 C 188.186 157.224 188.226 156.94 188.25 156.655 C 188.253 156.583 188.249 156.478 188.249 156.4 C 188.318 155.712 187.616 155.207 186.986 155.491 C 186.633 155.65 186.422 156.016 186.461 156.401 C 186.461 156.409 186.463 156.418 186.463 156.426 C 186.462 156.5 186.458 156.59 186.461 156.655 C 186.485 156.941 186.526 157.225 186.583 157.506 C 186.668 158.042 186.702 158.585 186.682 159.128 C 186.631 159.306 186.531 159.467 186.392 159.59 L 186.371 159.968 C 185.827 160.013 185.286 160.096 184.754 160.217 C 182.518 160.722 180.483 161.885 178.912 163.554 C 178.803 163.479 178.696 163.403 178.588 163.325 C 178.412 163.378 178.221 163.36 178.058 163.274 C 177.621 162.951 177.217 162.586 176.852 162.185 C 176.668 161.965 176.472 161.757 176.264 161.56 C 176.209 161.513 176.126 161.449 176.065 161.401 C 175.888 161.257 175.669 161.175 175.441 161.166 C 175.167 161.151 174.903 161.268 174.729 161.481 C 174.427 161.906 174.525 162.495 174.949 162.799 L 174.963 162.809 C 175.021 162.857 175.093 162.918 175.148 162.958 C 175.386 163.117 175.634 163.261 175.889 163.392 C 176.362 163.66 176.807 163.973 177.218 164.326 C 177.326 164.478 177.388 164.657 177.398 164.842 L 177.685 165.098 C 176.103 167.47 175.454 170.343 175.86 173.165 L 175.486 173.274 C 175.388 173.43 175.257 173.562 175.102 173.661 C 174.577 173.801 174.04 173.889 173.499 173.925 C 173.211 173.932 172.925 173.955 172.641 173.994 C 172.572 174.007 172.477 174.031 172.402 174.05 L 172.394 174.052 L 172.382 174.055 C 171.696 174.146 171.366 174.943 171.786 175.491 C 172.018 175.794 172.416 175.917 172.779 175.798 L 172.792 175.796 C 172.798 175.795 172.803 175.792 172.809 175.79 C 172.883 175.774 172.975 175.756 173.04 175.738 C 173.313 175.651 173.581 175.548 173.843 175.431 C 174.346 175.228 174.868 175.074 175.402 174.972 C 175.586 174.984 175.764 175.046 175.915 175.154 L 176.305 175.087 C 177.18 177.791 179.015 180.081 181.462 181.525 L 181.299 181.915 C 181.375 182.072 181.403 182.248 181.38 182.421 C 181.157 182.931 180.885 183.417 180.57 183.875 C 180.397 184.104 180.237 184.342 180.09 184.59 C 180.055 184.657 180.01 184.76 179.976 184.831 C 179.62 185.423 180.038 186.179 180.729 186.191 C 181.114 186.198 181.46 185.959 181.59 185.597 L 181.592 185.595 L 181.592 185.593 C 181.626 185.523 181.674 185.431 181.702 185.366 C 181.804 185.098 181.89 184.824 181.961 184.546 C 182.115 183.981 182.348 183.44 182.653 182.94 C 182.76 182.84 182.894 182.774 183.038 182.752 L 183.241 182.385 C 185.896 183.406 188.833 183.414 191.493 182.406 C 191.55 182.507 191.655 182.701 191.684 182.75 C 191.866 182.779 192.03 182.879 192.14 183.028 C 192.393 183.508 192.599 184.011 192.754 184.531 C 192.825 184.809 192.912 185.083 193.014 185.351 C 193.043 185.417 193.09 185.509 193.124 185.58 C 193.358 186.231 194.208 186.385 194.655 185.858 C 194.904 185.565 194.938 185.146 194.741 184.816 C 194.707 184.745 194.66 184.642 194.624 184.575 C 194.479 184.328 194.318 184.09 194.145 183.862 C 193.835 183.416 193.57 182.941 193.352 182.443 C 193.305 182.265 193.329 182.075 193.421 181.915 C 193.363 181.798 193.314 181.678 193.272 181.554 C 195.727 180.098 197.562 177.79 198.426 175.07 C 198.542 175.088 198.743 175.124 198.809 175.137 C 198.945 175.012 199.124 174.945 199.309 174.951 C 199.842 175.053 200.365 175.206 200.868 175.41 C 201.13 175.528 201.398 175.632 201.671 175.719 C 201.736 175.736 201.828 175.753 201.902 175.769 C 201.908 175.77 201.914 175.773 201.919 175.775 L 201.932 175.776 C 202.589 175.992 203.232 175.416 203.091 174.74 C 203.012 174.367 202.708 174.084 202.33 174.034 Z M 193.834 164.926 L 190.012 167.635 L 189.999 167.629 C 189.508 167.987 188.814 167.679 188.75 167.076 C 188.748 167.06 188.747 167.044 188.746 167.028 L 188.742 167.026 L 188.476 162.343 C 190.497 162.593 192.379 163.501 193.834 164.926 Z M 186.635 170.06 L 188.073 170.06 L 188.967 171.178 L 188.646 172.572 L 187.355 173.193 L 186.06 172.57 L 185.738 171.176 L 186.635 170.06 Z M 185.282 162.507 C 185.597 162.436 185.915 162.381 186.236 162.343 L 185.97 167.033 L 185.95 167.042 C 185.925 167.649 185.252 167.999 184.74 167.674 C 184.726 167.665 184.713 167.656 184.7 167.647 L 184.692 167.651 L 180.846 164.924 C 182.07 163.72 183.607 162.883 185.282 162.507 Z M 179.451 166.676 L 182.962 169.817 L 182.959 169.836 C 183.416 170.234 183.271 170.979 182.698 171.176 C 182.682 171.182 182.665 171.187 182.649 171.191 L 182.645 171.206 L 178.144 172.505 C 177.92 170.471 178.38 168.42 179.451 166.676 Z M 184.153 175.02 L 182.364 179.342 C 180.648 178.243 179.341 176.608 178.649 174.691 L 183.264 173.908 L 183.272 173.918 C 183.323 173.908 183.375 173.903 183.427 173.904 C 183.987 173.912 184.36 174.487 184.139 175.002 L 184.153 175.02 Z M 189.432 180.578 C 187.758 180.961 186.011 180.872 184.386 180.318 L 186.656 176.214 L 186.66 176.214 C 186.947 175.679 187.707 175.656 188.026 176.173 C 188.034 176.186 188.041 176.199 188.049 176.213 L 188.066 176.213 L 190.341 180.324 C 190.046 180.423 189.743 180.507 189.432 180.578 L 189.432 180.578 Z M 192.364 179.359 L 190.558 174.993 L 190.563 174.986 C 190.396 174.597 190.565 174.147 190.945 173.964 C 191.039 173.917 191.142 173.891 191.247 173.885 C 191.307 173.883 191.369 173.887 191.428 173.899 L 191.436 173.889 L 196.092 174.676 C 195.405 176.608 194.093 178.256 192.364 179.359 Z M 196.581 172.49 L 192.057 171.187 L 192.053 171.168 C 191.467 171.006 191.277 170.271 191.71 169.845 C 191.721 169.834 191.732 169.823 191.744 169.813 L 191.742 169.804 L 195.234 166.678 C 196.304 168.418 196.776 170.458 196.581 172.49 L 196.581 172.49 Z" style="fill: rgb(255, 255, 255); stroke-width: 1;"/>
    <rect class="cls-9" x="88.149" y="182.986" width="10.26" height="10.26" style="fill: rgb(49, 108, 230); stroke: rgb(255, 255, 255); stroke-miterlimit: 10; stroke-width: 0.893;"/>
    <rect class="cls-9" x="86.097" y="185.449" width="10.26" height="10.26" style="fill: rgb(49, 108, 230); stroke: rgb(255, 255, 255); stroke-miterlimit: 10; stroke-width: 0.893;"/>
    <rect class="cls-9" x="84.045" y="187.911" width="10.26" height="10.26" style="fill: rgb(49, 108, 230); stroke: rgb(255, 255, 255); stroke-miterlimit: 10; stroke-width: 0.893;"/>
  </g>
</svg>