<?xml version="1.0" encoding="utf-8"?>
<svg height="100%" style="fill-rule:evenodd;clip-rule:evenodd;stroke-linecap:round;stroke-linejoin:round;" width="100%" version="1.1" viewBox="0 0 150 150" xmlns="http://www.w3.org/2000/svg" xmlns:bx="https://boxy-svg.com">
  <defs>
    <bx:grid x="0" y="0" width="15" height="15"/>
    <filter id="b" width="1.5" height="1.5" x="-.25" y="-.25" color-interpolation-filters="sRGB">
      <feGaussianBlur in="SourceAlpha" result="blur" stdDeviation="2.5"/>
      <feColorMatrix result="bluralpha" values="1 0 0 0 0 0 1 0 0 0 0 0 1 0 0 0 0 0 0.500000 0"/>
      <feOffset dx="2.7" dy="2.6" in="bluralpha" result="offsetBlur"/>
      <feMerge>
        <feMergeNode in="offsetBlur"/>
        <feMergeNode in="SourceGraphic"/>
      </feMerge>
    </filter>
    <linearGradient id="c" x1="30.564501" x2="32.937" y1="-8.8144999" y2="32.715599" gradientUnits="userSpaceOnUse" href="#gradient-1"/>
  </defs>
  <rect width="120" height="120" style="fill: none; stroke-width: 0.2px; stroke: rgb(84, 84, 84); pointer-events: none; visibility: hidden;" x="15" y="15"/>
  <g filter="url(#b)" transform="matrix(1.506661, 0, 0, 1.506661, 19.623304, 1.190919)" style="">
    <path fill="#6700ad" d="M54.997 12.151C50.083 9.132 43.29 7.266 35.791 7.266c-7.5 0-14.29 1.866-19.204 4.885-4.915 3.016-7.956 7.184-7.956 11.789 0 4.604 3.041 8.772 7.956 11.788 4.914 3.02 11.704-4.271 19.204-4.271 7.499 0 14.292 7.291 19.206 4.271 4.914-3.016 7.955-7.185 7.955-11.788 0-4.606-3.041-8.773-7.955-11.789zM24.996 24.318c-2.698 0-4.885-.922-4.885-2.061 0-1.14 2.187-2.063 4.885-2.063 2.697 0 4.885.924 4.885 2.063 0 1.139-2.188 2.061-4.885 2.061zm21.501.191c-2.686 0-4.861-.856-4.861-1.912 0-1.054 2.176-1.911 4.861-1.911 2.685 0 4.863.857 4.863 1.911 0 1.056-2.178 1.912-4.863 1.912z"/>
    <path fill="none" stroke="#ffb616" stroke-width="1.51689994" d="M54.997 12.151C50.083 9.132 43.29 7.266 35.791 7.266c-7.5 0-14.29 1.866-19.204 4.885-4.915 3.016-7.956 7.184-7.956 11.789 0 4.604 3.041 8.772 7.956 11.788 4.914 3.02 11.704-4.271 19.204-4.271 7.499 0 14.292 7.291 19.206 4.271 4.914-3.016 7.955-7.185 7.955-11.788 0-4.606-3.041-8.773-7.955-11.789zM24.996 24.318c-2.698 0-4.885-.922-4.885-2.061 0-1.14 2.187-2.063 4.885-2.063 2.697 0 4.885.924 4.885 2.063 0 1.139-2.188 2.061-4.885 2.061zm21.501.191c-2.686 0-4.861-.856-4.861-1.912 0-1.054 2.176-1.911 4.861-1.911 2.685 0 4.863.857 4.863 1.911 0 1.056-2.178 1.912-4.863 1.912z"/>
    <linearGradient id="gradient-1" x1="30.564501" x2="32.937" y1="-8.8144999" y2="32.715599" gradientUnits="userSpaceOnUse">
      <stop offset="0" stop-color="#fff" stop-opacity=".73"/>
      <stop offset="1" stop-color="#fff" stop-opacity="0"/>
    </linearGradient>
    <path fill="url(#c)" d="M54.1 15.361c-.924 1.078-2.782 1.265-3.857 1.06C38 14.083 22.75 12.75 16.027 23.031c-1.169 1.788-4.035 2.359-5.734.856-1.662-1.47 2.812-8.083 7.353-10.854C22.194 10.252 28.474 8.53 35.41 8.53s13.215 1.722 17.756 4.502c.731.442 1.627 1.52.934 2.329z"/>
  </g>
  <g transform="matrix(1.417334, 0, 0, 1.417334, -64.354401, -49.291695)" style="">
    <g transform="matrix(1, 0, 0, 1, -32.729996, -0.000122)">
      <ellipse style="stroke: rgb(0, 0, 0); fill: none;" cx="107.982" cy="96.676" rx="12.018" ry="12.018"/>
      <ellipse style="stroke: rgb(0, 0, 0); fill: none;" cx="107.982" cy="96.676" rx="6.515" ry="12.018"/>
      <path d="M 118.643 91.175 C 116.638 92.593 112.616 93.561 107.982 93.561 C 103.348 93.561 99.326 92.593 97.321 91.175" style="stroke: rgb(0, 0, 0); fill: none;"/>
      <line style="fill: rgb(216, 216, 216); stroke: rgb(0, 0, 0); transform-box: fill-box; transform-origin: 50% 50%;" x1="107.719" y1="108.694" x2="107.843" y2="84.691" transform="matrix(-1, 0, 0, -1, -0.000014, -0.000009)"/>
    </g>
    <rect x="60" y="95.459" width="30" height="28.271" rx="5" ry="5" style="stroke: rgb(0, 0, 0); fill: rgb(255, 255, 255);"/>
    <ellipse style="stroke: rgb(0, 0, 0); fill: none; stroke-width: 0.7px;" cx="64.668" cy="101.836" rx="1.624" ry="1.624"/>
    <ellipse style="stroke: rgb(0, 0, 0); fill: none; stroke-width: 0.7px;" cx="69.106" cy="101.836" rx="1.624" ry="1.624"/>
    <line style="fill: rgb(216, 216, 216); stroke: rgb(0, 0, 0);" x1="84.162" y1="99.868" x2="84.038" y2="103.46"/>
    <line style="fill: rgb(216, 216, 216); stroke: rgb(0, 0, 0);" x1="87.27" y1="99.868" x2="87.146" y2="103.46"/>
    <text style="fill: rgb(51, 51, 51); font-family: &quot;Baloo Bhaijaan&quot;; font-size: 10.8px; white-space: pre;" x="64.885" y="118.881">DNS</text>
    <line style="fill: rgb(216, 216, 216); stroke: rgb(0, 0, 0);" x1="60.233" y1="107.102" x2="89.232" y2="107.288"/>
    <line style="fill: rgb(216, 216, 216); stroke: rgb(0, 0, 0);" x1="75.134" y1="124.044" x2="75" y2="128.495"/>
    <line style="fill: rgb(216, 216, 216); stroke: rgb(0, 0, 0);" x1="58.997" y1="128.248" x2="91.643" y2="128.495"/>
    <ellipse style="stroke: rgb(0, 0, 0); stroke-width: 0.7px; fill: rgb(255, 255, 255);" cx="75.011" cy="127.97" rx="2.057" ry="2.057"/>
    <g transform="matrix(1, 0, 0, 1, 13.272998, 0)">
      <ellipse style="stroke: rgb(0, 0, 0); fill: none;" cx="107.982" cy="96.676" rx="12.018" ry="12.018"/>
      <ellipse style="stroke: rgb(0, 0, 0); fill: none;" cx="107.982" cy="96.676" rx="6.515" ry="12.018"/>
      <path d="M 118.643 91.175 C 116.638 92.593 112.616 93.561 107.982 93.561 C 103.348 93.561 99.326 92.593 97.321 91.175" style="stroke: rgb(0, 0, 0); fill: none;"/>
      <line style="fill: rgb(216, 216, 216); stroke: rgb(0, 0, 0); transform-box: fill-box; transform-origin: 50% 50%;" x1="107.719" y1="108.694" x2="107.843" y2="84.691" transform="matrix(-1, 0, 0, -1, -0.000014, -0.000009)"/>
    </g>
    <rect x="106.003" y="95.459" width="30" height="28.271" rx="5" ry="5" style="stroke: rgb(0, 0, 0); fill: rgb(255, 255, 255);"/>
    <ellipse style="stroke: rgb(0, 0, 0); fill: none; stroke-width: 0.7px;" cx="110.671" cy="101.836" rx="1.624" ry="1.624"/>
    <ellipse style="stroke: rgb(0, 0, 0); fill: none; stroke-width: 0.7px;" cx="115.109" cy="101.836" rx="1.624" ry="1.624"/>
    <line style="fill: rgb(216, 216, 216); stroke: rgb(0, 0, 0);" x1="130.165" y1="99.868" x2="130.041" y2="103.46"/>
    <line style="fill: rgb(216, 216, 216); stroke: rgb(0, 0, 0);" x1="133.273" y1="99.868" x2="133.149" y2="103.46"/>
    <text style="fill: rgb(51, 51, 51); font-family: &quot;Baloo Bhaijaan&quot;; font-size: 10.8px; white-space: pre;" x="107.888" y="118.881">DHCP</text>
    <line style="fill: rgb(216, 216, 216); stroke: rgb(0, 0, 0);" x1="106.236" y1="107.102" x2="135.235" y2="107.288"/>
    <line style="fill: rgb(216, 216, 216); stroke: rgb(0, 0, 0);" x1="121.137" y1="124.044" x2="121.003" y2="128.495"/>
    <line style="fill: rgb(216, 216, 216); stroke: rgb(0, 0, 0);" x1="105" y1="128.248" x2="137.646" y2="128.495"/>
    <ellipse style="stroke: rgb(0, 0, 0); stroke-width: 0.7px; fill: rgb(255, 255, 255);" cx="121.014" cy="127.97" rx="2.057" ry="2.057"/>
  </g>
</svg>