<?xml version="1.0" encoding="utf-8"?>
<svg height="100%" style="fill-rule:evenodd;clip-rule:evenodd;stroke-linecap:round;stroke-linejoin:round;" width="100%" version="1.1" viewBox="0 0 150 150" xmlns="http://www.w3.org/2000/svg" xmlns:bx="https://boxy-svg.com">
  <defs>
    <bx:grid x="0" y="0" width="15" height="15"/>
  </defs>
  <rect width="120" height="120" style="fill: none; stroke-width: 0.2px; stroke: rgb(84, 84, 84); pointer-events: none; visibility: hidden;" x="15" y="15" bx:origin="0.5 0.5"/>
  <g id="Layer_x0020_1" transform="matrix(0.041459, 0, 0, 0.041459, 14.967365, 35.468842)" style="">
    <path id="path10" d="M2537 195c57,0 101,20 135,61l115 -114c13,-12 19,-27 19,-43 0,-31 -21,-54 -64,-68 -9,-3 -23,-5 -43,-5l-2272 0 -228 0c-53,0 -95,16 -126,48 -31,32 -47,74 -47,125l0 1507c0,63 20,94 62,94 20,0 38,-8 54,-23l104 -107c-19,-12 -32,-27 -40,-42 -8,-16 -12,-43 -12,-80l0 -1120 0 -68c0,-109 53,-164 159,-164l69 0 2114 0zm162 -191c3,0 9,1 18,2 9,2 16,2 20,2 45,9 83,31 112,68 30,36 45,77 45,124l0 1507c0,53 -19,99 -57,138 -38,38 -82,58 -135,58l-2272 0 -232 0c-54,0 -99,-19 -138,-58 -38,-39 -58,-85 -58,-138l0 -1507c0,-54 19,-99 58,-138 39,-38 85,-58 138,-58l2272 0 228 0zm-162 209l-2110 0c-60,0 -111,20 -152,62 -41,41 -62,92 -62,152l0 1120c0,45 16,82 48,112 30,22 63,34 98,34l2179 0c40,0 74,-14 104,-43 29,-29 44,-63 44,-102l0 -1188c0,-32 -9,-62 -27,-89 -30,-38 -71,-57 -121,-57z" class="fil0 str0" style="fill: rgb(42, 42, 41); stroke: rgb(217, 218, 218); stroke-width: 7.57655px;"/>
    <path id="path12" d="M1185 1256l0 127c-71,41 -146,61 -226,61 -60,0 -117,-11 -172,-35 -55,-23 -104,-56 -146,-98 -42,-42 -76,-92 -100,-148 -24,-56 -36,-117 -36,-182 7,-104 36,-189 88,-255 52,-66 112,-114 181,-142 68,-29 131,-43 187,-43 47,0 88,5 122,14 34,9 68,23 102,42l0 126c-67,-57 -144,-86 -231,-86 -46,0 -90,10 -131,29 -42,19 -78,45 -110,78 -32,33 -56,70 -74,111 -18,41 -26,83 -26,127 0,52 9,101 27,145 18,45 43,83 75,116 32,33 69,58 110,75 41,18 84,27 129,27 83,0 160,-30 231,-89z" class="fil1" style="fill: rgb(42, 42, 41);"/>
    <polygon points="1383,887 1383,682 1487,682 1487,887 1590,887 1590,984 1487,984 1487,1426 1383,1426 1383,984 1327,984 1327,887 " class="fil1" id="1" style="fill: rgb(42, 42, 41);"/>
    <path d="M1824 887l0 92c16,-36 38,-63 64,-81 26,-17 54,-26 85,-26 34,0 63,8 87,24l-47 96c-18,-14 -41,-21 -69,-21 -43,0 -74,18 -92,54 -18,36 -27,78 -27,127l0 273 -104 0 0 -539 104 0z" class="fil1" id="12" style="fill: rgb(42, 42, 41);"/>
    <polygon points="2190,428 2294,428 2294,1426 2190,1426 " class="fil1" id="123" style="fill: rgb(42, 42, 41);"/>
  </g>
</svg>