<?xml version="1.0" encoding="utf-8"?>
<svg height="100%" style="fill-rule:evenodd;clip-rule:evenodd;stroke-linecap:round;stroke-linejoin:round;" width="100%" version="1.1" viewBox="0 0 150 150" xmlns="http://www.w3.org/2000/svg" xmlns:bx="https://boxy-svg.com">
  <defs>
    <bx:grid x="0" y="0" width="15" height="15"/>
  </defs>
  <rect width="120" height="120" style="fill: none; stroke-width: 0.2px; stroke: rgb(84, 84, 84); pointer-events: none; visibility: hidden;" x="15" y="15"/>
  <path d="M 91.177 97.852 C 80.92 97.995 71.128 99.828 62.025 103.074 L 62.651 102.878 C 50.284 107.09 49.926 108.69 38.712 107.376 C 32.784 106.464 27.445 104.791 22.5 102.422 L 22.849 102.565 C 28.697 107.277 35.904 110.55 43.8 111.713 L 44.033 111.74 C 52.474 111.23 60.281 109.03 67.301 105.489 L 66.961 105.641 C 74.607 102.976 83.415 101.429 92.589 101.429 C 93.063 101.429 93.528 101.429 94.002 101.438 L 93.931 101.438 C 105.788 102.189 116.859 104.076 127.5 107.009 L 126.355 106.741 C 120.176 103.79 112.933 101.241 105.395 99.471 L 104.644 99.319 C 100.691 98.389 96.14 97.852 91.472 97.852 C 91.364 97.852 91.266 97.852 91.159 97.852 L 91.177 97.852 Z M 117.968 80.263 L 40.689 93.408 C 44.569 94.785 47.315 98.433 47.315 102.717 C 47.315 102.86 47.315 103.012 47.306 103.146 L 47.306 103.128 C 47.27 104.085 47.1 104.979 46.823 105.829 L 46.85 105.766 C 54.665 102.171 63.813 99.149 73.337 97.146 L 74.204 96.994 C 79.301 95.831 85.158 95.17 91.168 95.17 C 94.745 95.17 98.259 95.402 101.711 95.858 L 101.308 95.813 C 104.438 88.499 110.402 82.901 117.771 80.316 L 117.968 80.263 Z M 54.066 38.422 C 54.066 38.422 64.448 43.018 68.41 62.343 C 69.223 65.311 69.697 68.727 69.697 72.242 C 69.697 77.661 68.588 82.811 66.585 87.497 L 66.684 87.247 C 72.362 81.863 80.061 78.555 88.53 78.555 C 91.481 78.555 94.333 78.957 97.043 79.699 L 96.819 79.655 C 95.218 69.782 91.033 61.091 84.971 54.053 L 85.033 54.125 C 77.692 44.887 66.621 38.896 54.147 38.422 L 54.066 38.422 Z M 46.403 38.261 C 51.759 45.925 55.229 55.26 55.953 65.356 L 55.962 65.526 C 56.078 66.858 56.141 68.396 56.141 69.952 C 56.141 76.48 55.014 82.758 52.939 88.579 L 53.065 88.186 C 56.194 84.475 60.71 82.015 65.807 81.622 L 65.87 81.622 C 66.085 81.604 66.299 81.595 66.505 81.586 C 66.791 79.503 66.952 77.097 66.952 74.656 C 66.952 66.733 65.235 59.204 62.159 52.443 L 62.293 52.774 C 59.306 45.871 53.61 40.631 46.582 38.315 L 46.403 38.261 Z" style="stroke-width: 25;"/>
</svg>