<?xml version="1.0" encoding="utf-8"?>
<svg height="100%" style="fill-rule:evenodd;clip-rule:evenodd;stroke-linecap:round;stroke-linejoin:round;" width="100%" version="1.1" viewBox="0 0 150 150" xmlns="http://www.w3.org/2000/svg" xmlns:bx="https://boxy-svg.com">
  <defs>
    <bx:grid x="0" y="0" width="15" height="15"/>
  </defs>
  <rect width="120" height="120" style="fill: none; stroke-width: 0.2px; stroke: rgb(84, 84, 84); pointer-events: none; visibility: hidden;" x="15" y="15"/>
  <g style="" transform="matrix(1.322177, 0, 0, 1.322177, -24.163215, -24.337745)">
    <path class="cls-1" d="M 77.151 56.703 L 73.925 73.12 L 70.647 68.186 C 63.591 71.018 59.628 75.686 59.044 82.876 C 53.245 72.714 56.764 63.664 64.125 58.342 L 60.765 53.305 L 77.151 56.703 Z M 74.96 35.967 C 105.008 35.958 123.798 68.481 108.78 94.508 C 93.764 120.534 56.204 120.545 41.173 94.527 C 32.333 79.226 34.875 59.894 47.371 47.399 C 54.678 40.067 64.608 35.952 74.96 35.967 Z M 97.9 52.048 C 80.222 34.408 50.078 42.52 43.64 66.649 C 37.203 90.778 59.3 112.828 83.416 106.338 C 97.591 102.524 107.437 89.667 107.426 74.988 C 107.426 66.379 103.998 58.124 97.9 52.048 Z M 71.911 94.27 L 75.138 77.884 L 78.415 82.819 C 85.477 79.954 89.434 75.286 90.018 68.097 C 95.817 78.258 92.298 87.309 84.937 92.631 L 88.278 97.667 L 71.911 94.27 Z" style="fill-rule: evenodd; stroke-width: 1;"/>
    <path stroke="#000000" stroke-linecap="round" stroke-linejoin="round" stroke-width="2" d="M 57.811 25.194 L 42.961 25.194 C 41.32 25.194 39.991 26.525 39.991 28.164 L 39.991 50.645 C 39.991 51.215 40.606 51.573 41.102 51.289 L 48.913 46.827 C 49.825 46.306 50.946 46.306 51.859 46.827 L 59.67 51.291 C 60.166 51.575 60.782 51.215 60.782 50.645 L 60.782 28.164 C 60.782 26.525 59.451 25.194 57.811 25.194 Z" style="stroke-width: 2; fill: rgb(255, 255, 255);"/>
    <path stroke="#000000" stroke-linecap="round" stroke-linejoin="round" stroke-width="2" d="M 107.366 99.693 L 92.516 99.693 C 90.875 99.693 89.546 101.024 89.546 102.663 L 89.546 125.144 C 89.546 125.714 90.161 126.072 90.657 125.788 L 98.468 121.326 C 99.38 120.805 100.501 120.805 101.414 121.326 L 109.225 125.79 C 109.721 126.074 110.337 125.714 110.337 125.144 L 110.337 102.663 C 110.337 101.024 109.006 99.693 107.366 99.693 Z" style="stroke-width: 2; fill: rgb(255, 255, 255);"/>
  </g>
</svg>