<?xml version="1.0" encoding="utf-8"?>
<svg height="100%" style="fill-rule:evenodd;clip-rule:evenodd;stroke-linecap:round;stroke-linejoin:round;" width="100%" version="1.1" viewBox="0 0 150 150" xmlns="http://www.w3.org/2000/svg" xmlns:bx="https://boxy-svg.com">
  <defs>
    <bx:grid x="0" y="0" width="15" height="15"/>
  </defs>
  <rect width="120" height="120" style="fill: none; stroke-width: 0.2px; stroke: rgb(84, 84, 84); pointer-events: none; visibility: hidden;" x="15" y="15" bx:origin="0.5 0.5"/>
  <g>
    <path d="M 91.568 63.074 L 79.739 74.903 C 78.63 76.012 77.151 76.012 76.412 74.903 L 64.581 63.074 C 63.472 61.965 63.472 60.486 64.581 59.747 L 76.412 47.916 C 77.521 46.807 79 46.807 79.739 47.916 L 91.568 59.747 C 92.677 60.486 92.677 61.965 91.568 63.074 Z" fill="#fa7e00" style=""/>
    <path d="M 41.293 51.615 L 37.966 54.94 L 37.228 55.681 L 35.379 57.528 C 33.531 59.377 33.531 62.334 35.379 64.183 L 37.228 66.03 L 37.966 66.769 L 58.298 87.102 L 59.407 87.102 L 59.407 70.097 L 51.643 62.334 C 50.534 61.225 50.534 59.747 51.643 59.007 L 59.407 51.615 Z M 68.28 97.821 L 71.606 101.149 L 72.347 101.888 L 74.194 103.737 C 76.042 105.585 79 105.585 80.848 103.737 L 82.695 101.888 L 83.435 101.149 L 103.767 80.817 L 103.767 79.708 L 86.762 79.708 L 79 87.471 C 77.891 88.58 76.412 88.58 75.672 87.471 L 68.28 79.708 Z M 114.487 70.836 L 117.814 67.51 L 118.553 66.769 L 120.402 64.921 C 122.25 63.074 122.25 60.116 120.402 58.268 L 118.553 56.419 L 117.814 55.681 L 97.482 35.349 L 96.373 35.349 L 96.373 52.353 L 104.136 60.116 C 105.246 61.225 105.246 62.704 104.136 63.444 L 96.373 70.836 L 96.373 71.206 L 114.487 71.206 Z M 87.501 24.628 L 84.176 21.301 L 83.435 20.563 L 81.586 18.714 C 79.739 16.866 76.782 16.866 74.933 18.714 L 73.085 20.563 L 72.347 21.301 L 51.275 41.633 L 51.275 42.742 L 68.28 42.742 L 76.042 34.978 C 77.151 33.869 78.63 33.869 79.369 34.978 L 87.501 42.742 L 87.871 42.742 L 87.871 24.628 Z" fill="#00bcfb" style=""/>
    <path d="M 23.219 121.165 L 19.589 128.905 L 17.669 128.905 L 16.439 116.725 L 18.139 116.725 L 18.829 124.465 C 18.862 124.905 18.889 125.378 18.909 125.885 C 18.936 126.385 18.952 126.908 18.959 127.455 C 19.192 126.915 19.402 126.425 19.589 125.985 C 19.776 125.552 19.946 125.172 20.099 124.845 L 23.919 116.725 L 25.509 116.725 L 26.149 124.305 C 26.189 124.752 26.222 125.235 26.249 125.755 C 26.276 126.282 26.292 126.848 26.299 127.455 C 26.519 126.975 26.689 126.588 26.809 126.295 C 26.922 126.002 27.022 125.758 27.109 125.565 L 31.269 116.725 L 33.009 116.725 L 27.059 128.905 L 25.129 128.905 L 24.519 121.165 C 24.479 120.378 24.449 119.752 24.429 119.285 C 24.402 118.818 24.386 118.512 24.379 118.365 C 24.159 118.945 23.952 119.468 23.759 119.935 C 23.566 120.402 23.386 120.812 23.219 121.165 ZM 40.275 124.555 L 33.505 124.555 C 33.472 124.755 33.445 125.082 33.425 125.535 C 33.425 126.302 33.618 126.888 34.005 127.295 C 34.385 127.708 34.962 127.915 35.735 127.915 C 36.295 127.915 36.802 127.775 37.255 127.495 C 37.715 127.222 38.072 126.845 38.325 126.365 L 39.515 126.905 C 39.095 127.665 38.562 128.215 37.915 128.555 C 37.262 128.902 36.475 129.075 35.555 129.075 C 34.395 129.075 33.495 128.755 32.855 128.115 C 32.215 127.475 31.895 126.572 31.895 125.405 C 31.895 124.258 32.098 123.218 32.505 122.285 C 32.912 121.372 33.488 120.658 34.235 120.145 C 34.975 119.638 35.808 119.385 36.735 119.385 C 37.922 119.385 38.842 119.682 39.495 120.275 C 40.155 120.868 40.485 121.705 40.485 122.785 C 40.485 123.385 40.415 123.975 40.275 124.555 Z M 33.715 123.365 L 38.905 123.365 L 38.935 122.745 C 38.935 122.032 38.748 121.485 38.375 121.105 C 38.008 120.725 37.475 120.535 36.775 120.535 C 36.002 120.535 35.352 120.778 34.825 121.265 C 34.298 121.758 33.928 122.458 33.715 123.365 ZM 47.569 119.385 C 48.475 119.385 49.179 119.655 49.679 120.195 C 50.185 120.742 50.439 121.492 50.439 122.445 C 50.439 123.025 50.395 123.598 50.309 124.165 C 50.222 124.732 50.089 125.288 49.909 125.835 C 49.562 126.928 49.065 127.742 48.419 128.275 C 47.772 128.808 46.949 129.075 45.949 129.075 C 45.242 129.075 44.669 128.925 44.229 128.625 C 43.782 128.325 43.465 127.905 43.279 127.365 L 43.259 127.365 C 43.232 127.485 43.199 127.645 43.159 127.845 C 43.112 128.038 43.065 128.222 43.019 128.395 C 42.985 128.535 42.955 128.652 42.929 128.745 C 42.902 128.838 42.889 128.892 42.889 128.905 L 41.389 128.905 C 41.415 128.818 41.472 128.582 41.559 128.195 C 41.639 127.808 41.722 127.402 41.809 126.975 L 43.929 116.075 L 45.489 116.075 L 44.769 119.735 C 44.749 119.868 44.712 120.035 44.659 120.235 C 44.612 120.435 44.552 120.672 44.479 120.945 L 44.509 120.945 C 44.929 120.398 45.372 120.002 45.839 119.755 C 46.305 119.508 46.882 119.385 47.569 119.385 Z M 47.119 120.585 C 46.019 120.585 45.185 121.052 44.619 121.985 C 44.452 122.265 44.309 122.592 44.189 122.965 C 44.062 123.338 43.959 123.718 43.879 124.105 C 43.772 124.685 43.719 125.198 43.719 125.645 C 43.719 126.365 43.899 126.925 44.259 127.325 C 44.625 127.725 45.135 127.925 45.789 127.925 C 46.502 127.925 47.065 127.708 47.479 127.275 C 47.685 127.055 47.872 126.762 48.039 126.395 C 48.205 126.035 48.345 125.638 48.459 125.205 C 48.572 124.765 48.659 124.328 48.719 123.895 C 48.779 123.462 48.809 123.068 48.809 122.715 C 48.809 122.008 48.675 121.475 48.409 121.115 C 48.135 120.762 47.705 120.585 47.119 120.585 ZM 57.393 129.075 C 55.639 129.075 54.276 128.625 53.303 127.725 C 52.336 126.832 51.853 125.575 51.853 123.955 C 51.853 122.515 52.156 121.228 52.763 120.095 C 53.369 118.962 54.226 118.088 55.333 117.475 C 56.446 116.855 57.716 116.545 59.143 116.545 C 60.423 116.545 61.469 116.788 62.283 117.275 C 63.103 117.755 63.673 118.468 63.993 119.415 L 62.323 119.885 C 62.109 119.218 61.723 118.722 61.163 118.395 C 60.603 118.062 59.893 117.895 59.033 117.895 C 57.933 117.895 56.966 118.142 56.133 118.635 C 55.299 119.135 54.659 119.842 54.213 120.755 C 53.773 121.668 53.553 122.722 53.553 123.915 C 53.553 125.135 53.893 126.078 54.573 126.745 C 55.253 127.405 56.209 127.735 57.443 127.735 C 58.243 127.735 59.006 127.622 59.733 127.395 C 60.459 127.168 61.089 126.835 61.623 126.395 L 62.063 124.195 L 58.423 124.195 L 58.703 122.815 L 63.863 122.815 L 62.993 127.095 C 62.186 127.782 61.326 128.285 60.413 128.605 C 59.499 128.918 58.493 129.075 57.393 129.075 ZM 71.24 119.505 L 70.96 120.795 C 70.713 120.722 70.453 120.685 70.18 120.685 C 69.773 120.685 69.393 120.832 69.04 121.125 C 68.68 121.412 68.37 121.808 68.11 122.315 C 67.85 122.815 67.663 123.388 67.55 124.035 L 66.6 128.905 L 65.04 128.905 L 66.44 121.735 C 66.48 121.528 66.517 121.328 66.55 121.135 C 66.59 120.935 66.627 120.735 66.66 120.535 C 66.687 120.368 66.713 120.205 66.74 120.045 C 66.767 119.878 66.793 119.715 66.82 119.555 L 68.28 119.555 L 68.05 121.015 L 67.98 121.465 L 68.02 121.465 C 68.4 120.698 68.773 120.158 69.14 119.845 C 69.507 119.538 69.933 119.385 70.42 119.385 C 70.673 119.385 70.947 119.425 71.24 119.505 ZM 78.654 128.995 C 78.121 128.995 77.731 128.882 77.484 128.655 C 77.237 128.435 77.114 128.105 77.114 127.665 C 77.114 127.578 77.121 127.488 77.134 127.395 C 77.147 127.302 77.157 127.208 77.164 127.115 L 77.104 127.115 C 76.631 127.842 76.137 128.352 75.624 128.645 C 75.111 128.932 74.491 129.075 73.764 129.075 C 72.957 129.075 72.301 128.835 71.794 128.355 C 71.294 127.868 71.044 127.252 71.044 126.505 C 71.044 125.438 71.424 124.632 72.184 124.085 C 72.951 123.538 74.167 123.252 75.834 123.225 L 77.844 123.205 C 77.951 122.652 78.004 122.285 78.004 122.105 C 78.004 121.578 77.854 121.192 77.554 120.945 C 77.247 120.692 76.821 120.565 76.274 120.565 C 75.594 120.565 75.077 120.688 74.724 120.935 C 74.371 121.175 74.117 121.548 73.964 122.055 L 72.424 121.805 C 72.684 120.958 73.134 120.342 73.774 119.955 C 74.421 119.575 75.284 119.385 76.364 119.385 C 77.351 119.385 78.131 119.615 78.704 120.075 C 79.277 120.535 79.564 121.155 79.564 121.935 C 79.564 122.315 79.507 122.765 79.394 123.285 L 78.764 126.555 C 78.697 126.842 78.664 127.095 78.664 127.315 C 78.664 127.528 78.724 127.688 78.844 127.795 C 78.957 127.895 79.131 127.945 79.364 127.945 C 79.531 127.945 79.704 127.925 79.884 127.885 L 79.764 128.855 C 79.571 128.902 79.384 128.935 79.204 128.955 C 79.017 128.982 78.834 128.995 78.654 128.995 Z M 72.694 126.435 C 72.694 126.868 72.834 127.218 73.114 127.485 C 73.394 127.758 73.754 127.895 74.194 127.895 C 74.754 127.895 75.257 127.775 75.704 127.535 C 76.157 127.295 76.531 126.982 76.824 126.595 C 77.117 126.208 77.311 125.795 77.404 125.355 L 77.634 124.275 L 75.914 124.305 C 75.227 124.325 74.691 124.385 74.304 124.485 C 73.917 124.592 73.614 124.728 73.394 124.895 C 73.181 125.055 73.011 125.262 72.884 125.515 C 72.757 125.768 72.694 126.075 72.694 126.435 ZM 86.918 119.385 C 87.824 119.385 88.528 119.655 89.028 120.195 C 89.534 120.742 89.788 121.492 89.788 122.445 C 89.788 123.025 89.744 123.598 89.658 124.165 C 89.571 124.732 89.438 125.288 89.258 125.835 C 88.911 126.928 88.414 127.742 87.768 128.275 C 87.121 128.808 86.298 129.075 85.298 129.075 C 84.591 129.075 84.018 128.925 83.578 128.625 C 83.131 128.325 82.814 127.905 82.628 127.365 L 82.608 127.365 C 82.581 127.485 82.548 127.645 82.508 127.845 C 82.461 128.038 82.414 128.222 82.368 128.395 C 82.334 128.535 82.304 128.652 82.278 128.745 C 82.251 128.838 82.238 128.892 82.238 128.905 L 80.738 128.905 C 80.764 128.818 80.821 128.582 80.908 128.195 C 80.988 127.808 81.071 127.402 81.158 126.975 L 83.278 116.075 L 84.838 116.075 L 84.118 119.735 C 84.098 119.868 84.061 120.035 84.008 120.235 C 83.961 120.435 83.901 120.672 83.828 120.945 L 83.858 120.945 C 84.278 120.398 84.721 120.002 85.188 119.755 C 85.654 119.508 86.231 119.385 86.918 119.385 Z M 86.468 120.585 C 85.368 120.585 84.534 121.052 83.968 121.985 C 83.801 122.265 83.658 122.592 83.538 122.965 C 83.411 123.338 83.308 123.718 83.228 124.105 C 83.121 124.685 83.068 125.198 83.068 125.645 C 83.068 126.365 83.248 126.925 83.608 127.325 C 83.974 127.725 84.484 127.925 85.138 127.925 C 85.851 127.925 86.414 127.708 86.828 127.275 C 87.034 127.055 87.221 126.762 87.388 126.395 C 87.554 126.035 87.694 125.638 87.808 125.205 C 87.921 124.765 88.008 124.328 88.068 123.895 C 88.128 123.462 88.158 123.068 88.158 122.715 C 88.158 122.008 88.024 121.475 87.758 121.115 C 87.484 120.762 87.054 120.585 86.468 120.585 ZM 100.052 123.655 L 96.392 123.655 L 96.392 127.345 L 95.122 127.345 L 95.122 123.655 L 91.452 123.655 L 91.452 122.385 L 95.122 122.385 L 95.122 118.685 L 96.392 118.685 L 96.392 122.385 L 100.052 122.385 L 100.052 123.655 ZM 103.568 116.725 L 108.028 116.725 C 109.361 116.725 110.418 117.025 111.198 117.625 C 111.971 118.225 112.358 119.045 112.358 120.085 C 112.358 120.932 112.161 121.658 111.768 122.265 C 111.368 122.878 110.801 123.348 110.068 123.675 C 109.335 124.002 108.461 124.165 107.448 124.165 L 103.778 124.165 L 102.868 128.905 L 101.208 128.905 L 103.568 116.725 Z M 104.968 118.045 L 104.038 122.855 L 107.388 122.855 C 108.488 122.855 109.311 122.632 109.858 122.185 C 110.411 121.732 110.688 121.058 110.688 120.165 C 110.688 119.478 110.458 118.955 109.998 118.595 C 109.545 118.228 108.875 118.045 107.988 118.045 L 104.968 118.045 ZM 115.243 116.075 L 116.803 116.075 L 114.303 128.905 L 112.763 128.905 L 115.243 116.075 ZM 122.896 127.305 L 122.866 127.305 C 122.392 127.972 121.916 128.432 121.436 128.685 C 120.949 128.938 120.376 129.065 119.716 129.065 C 118.862 129.065 118.222 128.855 117.796 128.435 C 117.362 128.015 117.146 127.408 117.146 126.615 C 117.146 126.488 117.152 126.352 117.166 126.205 C 117.186 126.065 117.209 125.908 117.236 125.735 C 117.256 125.568 117.286 125.388 117.326 125.195 L 118.426 119.555 L 119.996 119.555 L 118.906 125.125 C 118.799 125.632 118.746 126.065 118.746 126.425 C 118.746 127.385 119.262 127.865 120.296 127.865 C 120.782 127.865 121.229 127.742 121.636 127.495 C 122.049 127.242 122.402 126.885 122.696 126.425 C 122.989 125.965 123.196 125.422 123.316 124.795 L 124.336 119.555 L 125.896 119.555 L 124.456 126.905 C 124.402 127.178 124.349 127.482 124.296 127.815 C 124.236 128.148 124.179 128.512 124.126 128.905 L 122.656 128.905 C 122.656 128.858 122.669 128.738 122.696 128.545 C 122.729 128.345 122.766 128.128 122.806 127.895 C 122.846 127.655 122.876 127.458 122.896 127.305 ZM 134.09 126.165 C 134.09 127.098 133.733 127.818 133.02 128.325 C 132.306 128.825 131.273 129.075 129.92 129.075 C 128.92 129.075 128.123 128.908 127.53 128.575 C 126.943 128.235 126.53 127.702 126.29 126.975 L 127.56 126.495 C 127.753 127.002 128.05 127.368 128.45 127.595 C 128.85 127.828 129.386 127.945 130.06 127.945 C 131.74 127.945 132.58 127.398 132.58 126.305 C 132.58 125.945 132.433 125.645 132.14 125.405 C 131.84 125.172 131.216 124.905 130.27 124.605 C 129.523 124.358 128.97 124.125 128.61 123.905 C 128.243 123.672 127.96 123.402 127.76 123.095 C 127.566 122.788 127.47 122.428 127.47 122.015 C 127.47 121.182 127.803 120.538 128.47 120.085 C 129.136 119.632 130.08 119.405 131.3 119.405 C 132.32 119.405 133.116 119.588 133.69 119.955 C 134.263 120.322 134.613 120.875 134.74 121.615 L 133.33 121.825 C 133.203 121.372 132.963 121.045 132.61 120.845 C 132.256 120.638 131.783 120.535 131.19 120.535 C 130.476 120.535 129.93 120.652 129.55 120.885 C 129.163 121.112 128.97 121.432 128.97 121.845 C 128.97 122.085 129.03 122.288 129.15 122.455 C 129.276 122.615 129.453 122.762 129.68 122.895 C 129.913 123.028 130.436 123.225 131.25 123.485 C 131.99 123.718 132.543 123.952 132.91 124.185 C 133.29 124.425 133.58 124.705 133.78 125.025 C 133.986 125.345 134.09 125.725 134.09 126.165 Z" transform="matrix(1, 0, 0, 1, 0, 0)" style="fill: rgb(40, 90, 136); white-space: pre;"/>
  </g>
</svg>