<?xml version="1.0" encoding="utf-8"?>
<svg height="100%" style="fill-rule:evenodd;clip-rule:evenodd;stroke-linecap:round;stroke-linejoin:round;" width="100%" version="1.1" viewBox="0 0 150 150" xmlns="http://www.w3.org/2000/svg" xmlns:bx="https://boxy-svg.com">
  <defs>
    <bx:grid x="0" y="0" width="15" height="15"/>
    <linearGradient x1="3.55292757%" y1="42.8573973%" x2="96.8734129%" y2="57.1026849%" id="linearGradient-1">
      <stop stop-color="#E54C18" offset="0"/>
      <stop stop-color="#FEC350" offset="1"/>
    </linearGradient>
  </defs>
  <rect width="120" height="120" style="fill: none; stroke-width: 0.2px; stroke: rgb(84, 84, 84); pointer-events: none; visibility: hidden;" x="15" y="15" bx:origin="0.5 0.5"/>
  <g id="g-1" stroke="none" stroke-width="1" fill="none" fill-rule="evenodd" style="" transform="matrix(0.810667, 0, 0, 0.810667, 14.208159, 14.203095)">
    <g id="logo-XOrg-svg1.1" fill-rule="nonzero">
      <path d="M16.0754605,149.009339 L61.4701974,78.5488125 L14.7925658,1.08170724 L44.7925658,1.08170724 L81.9965132,61.9698651 L26.3386184,148.910655 L16.0754605,148.910655 L16.0754605,149.009339 Z M104.792566,149.009339 L67.8846711,88.0224967 L123.937303,0.983023026 L134.003092,0.983023026 L88.5096711,71.739602 L134.89125,149.009339 L104.792566,149.009339 Z" id="path-1" fill="#000000"/>
      <path d="M74.9899342,29.2067072 C71.3386184,29.2067072 67.4899342,29.5027599 64.0359868,29.8974967 C70.2530921,39.4698651 75.3846711,47.6606546 81.3057237,56.8382862 C77.9504605,48.3514441 71.14125,40.2593388 73.5096711,36.0159178 C75.8780921,31.8711809 80.1215132,32.5619704 80.51625,32.5619704 C87.4241447,32.5619704 94.0359868,33.4501283 100.253092,35.2264441 L101.733355,32.858023 C93.3451974,30.3909178 84.3649342,29.2067072 74.9899342,29.2067072 Z M112.292566,37.0027599 L110.910987,39.2724967 C130.055724,48.1540757 142.983355,65.1277599 142.983355,84.6672336 C142.983355,113.285655 114.957039,136.575128 80.4175658,136.575128 C45.8780921,136.575128 17.8517763,113.285655 17.8517763,84.6672336 C17.8517763,69.0751283 26.14125,55.0619704 39.3649342,45.489602 L35.3188816,38.1869704 C14.6938816,48.5488125 0.976776316,66.8053914 0.976776316,87.6277599 C0.976776316,119.897497 34.1346711,146.147497 74.9899342,146.147497 C115.845197,146.147497 149.003092,119.897497 149.003092,87.6277599 C149.003092,66.0159178 134.299145,47.1672336 112.292566,37.0027599 Z" id="P1" fill="url(#linearGradient-1)"/>
    </g>
  </g>
</svg>