<?xml version="1.0" encoding="utf-8"?>
<svg height="100%" style="fill-rule:evenodd;clip-rule:evenodd;stroke-linecap:round;stroke-linejoin:round;" width="100%" version="1.1" viewBox="0 0 150 150" xmlns="http://www.w3.org/2000/svg" xmlns:bx="https://boxy-svg.com">
  <defs>
    <bx:grid x="0" y="0" width="15" height="15"/>
  </defs>
  <rect width="120" height="120" style="fill: none; stroke-width: 0.2px; stroke: rgb(84, 84, 84); pointer-events: none; visibility: hidden;" x="15" y="15" bx:origin="0.5 0.5"/>
  <g transform="matrix(1.133145, 0, 0, 1.133145, 14.886682, 22.88463)" style="">
    <path class="st0" d="M53.8,45.3C53.8,45.3,53.8,45.2,53.8,45.3c0-0.1,0-0.1,0-0.1c0,0,0,0,0-0.1c0,0,0,0,0,0L53,42.9 c-0.1-0.4-0.5-0.6-0.9-0.4c-0.4,0.1-0.6,0.5-0.4,0.9l0.1,0.3l-8.4-5c-0.3-0.2-0.8-0.1-1,0.3c-0.2,0.3-0.1,0.8,0.3,1l8.4,5l-0.2,0 c-0.4,0.1-0.7,0.4-0.6,0.8c0.1,0.4,0.4,0.6,0.7,0.6c0,0,0.1,0,0.1,0l2.3-0.3c0,0,0,0,0.1,0c0,0,0.1,0,0.1,0c0,0,0,0,0.1,0 c0,0,0,0,0,0c0,0,0,0,0.1,0c0,0,0,0,0.1-0.1c0,0,0.1-0.1,0.1-0.1c0,0,0.1-0.1,0.1-0.1c0,0,0,0,0,0c0,0,0,0,0,0c0,0,0-0.1,0-0.1 c0,0,0-0.1,0-0.1C53.8,45.4,53.8,45.4,53.8,45.3C53.8,45.4,53.8,45.3,53.8,45.3z" style="fill: rgb(0, 149, 58);"/>
    <path class="st0" d="M43.9,44l-17,9.8V29.4c0.3-0.1,0.6-0.2,0.9-0.4l20.1-11.6v19.8c0,0.8,0.6,1.4,1.4,1.4c0.8,0,1.4-0.6,1.4-1.4 V16.7c0-1.5-1-3.2-2.3-4l-20.7-12c-1.3-0.8-3.3-0.8-4.6,0l-20.7,12c-1.3,0.8-2.3,2.5-2.3,4v23.9c0,1.5,1,3.2,2.3,4l20.7,12 c0.7,0.4,1.5,0.6,2.3,0.6c0.8,0,1.6-0.2,2.3-0.6l17.6-10.2c0.7-0.4,0.9-1.3,0.5-2C45.4,43.8,44.6,43.6,43.9,44z M24.5,3.3 C25,3,25.8,3,26.2,3.3l20.2,11.6L26.3,26.5c-0.6,0.3-1.3,0.3-1.8,0L4.4,14.9L24.5,3.3z M3.8,42.2c-0.4-0.2-0.9-1-0.9-1.5V17.4 L23,29c0.3,0.2,0.6,0.3,0.9,0.4v24.4L3.8,42.2z" style="fill: rgb(0, 149, 58);"/>
    <path class="st0" d="M105.9,53.8v-9.6c0-0.9-0.5-1.9-1.3-2.3l-8.8-5.3c-0.8-0.5-1.9-0.5-2.7,0l-1.5,0.9v-1.4c0-0.9-0.6-1.9-1.4-2.3 L81.9,29c-0.8-0.5-1.9-0.5-2.7,0l-8.3,4.8c-0.8,0.5-1.4,1.4-1.4,2.3v1.5l-1.7-0.9c-0.8-0.4-1.9-0.4-2.7,0.1l-8.7,5.1 c-0.8,0.5-1.3,1.4-1.3,2.3v9.6c0,0.9,0.6,1.9,1.4,2.3l6.8,3.9L56.6,64c-0.8,0.5-1.4,1.4-1.4,2.3v9.6c0,0.9,0.6,1.9,1.4,2.3l8.9,5.2 c0.2,0.1,0.5,0.2,0.7,0.2c0.3,0,0.5-0.1,0.7-0.2l0,0l2.7-1.5v2.9c-0.1,0.6,0.1,1.2,0.7,1.5l8.9,5.2c0.4,0.2,0.9,0.3,1.4,0.3 c0.5,0,1-0.1,1.4-0.3l8.9-5.2c0.5-0.3,0.7-0.8,0.7-1.3h0v-0.1c0,0,0-0.1,0-0.1v-3l2.7,1.5l0,0c0.2,0.1,0.5,0.2,0.7,0.2 c0.2,0,0.5-0.1,0.7-0.2l8.9-5.2c0.8-0.5,1.4-1.4,1.4-2.3v-9.6c0-0.9-0.6-1.9-1.4-2.3l-6.8-3.9l6.8-3.9 C105.4,55.7,105.9,54.8,105.9,53.8z M102.4,43.9l-7.1,4.1c-0.2,0.1-0.4,0.1-0.6,0l-7.8-4.5l3.9-2.2c0,0,0,0,0,0l3.7-2.1L102.4,43.9 z M80.9,78.5c-0.2,0.1-0.4,0.1-0.6,0L72.5,74l3.6-2.1c0,0,0.1,0,0.1-0.1l4.4-2.6l4.4,2.6c0.1,0,0.1,0.1,0.2,0.1l3.5,2.1L80.9,78.5z M72.4,40.1C72.4,40.1,72.4,40.1,72.4,40.1L72.4,40.1c0-0.1,0-0.1,0-0.1V37l7.1,4.1c0.1,0.1,0.2,0.1,0.3,0.1V46 c-0.1,0-0.2,0.1-0.3,0.1l-3.1,1.8v-4.4c0,0,0-0.1,0-0.1c0,0,0-0.1,0-0.1c0,0,0-0.1-0.1-0.1c0,0,0-0.1-0.1-0.1c0,0-0.1-0.1-0.1-0.1 c0,0,0,0-0.1-0.1l-3.7-2.1V40.1z M88.7,40.1v0.7L85,42.9c0,0,0,0-0.1,0.1c0,0-0.1,0.1-0.1,0.1c0,0-0.1,0.1-0.1,0.1 c0,0,0,0.1-0.1,0.1c0,0,0,0.1,0,0.1c0,0,0,0.1,0,0.1v4.4l-3.1-1.8c-0.1,0-0.2-0.1-0.3-0.1v-4.8c0.1,0,0.2-0.1,0.3-0.1l7.1-4.1v3 C88.7,40,88.7,40.1,88.7,40.1z M71.7,53.2l7.8,4.5c0.1,0.1,0.2,0.1,0.3,0.1v9.4l-8.1-4.7V53.2z M85.2,64.9c-0.1,0-0.2,0.1-0.3,0.2 l-3.6,2.1v-9.4c0.1,0,0.2-0.1,0.3-0.1l7.8-4.5v9.3L85.2,64.9z M80.9,56.4c-0.2,0.1-0.4,0.1-0.6,0l-7.8-4.5l7.8-4.5 c0.1-0.1,0.4-0.1,0.5,0l7.8,4.5L80.9,56.4z M75.1,48.7l-3.8,2.2c-0.6,0.3-1,1.1-1,1.7v4.3L67,58.8v-9.4c0.1,0,0.2-0.1,0.3-0.1 l7.8-4.5V48.7z M66.9,61.4C66.9,61.3,66.9,61.3,66.9,61.4L66.9,61.4l7.4,4.3l-7.8,4.5c-0.2,0.1-0.4,0.1-0.6,0L58.8,66L66.9,61.4z M67,80.1v-8.6c0.1,0,0.2-0.1,0.3-0.1l7.8-4.5v3.9L71.3,73c-0.6,0.3-1,1.1-1,1.7v3.4L67,80.1z M90.8,78.2v-3.5c0-0.7-0.4-1.4-1-1.7 l-3.8-2.2v-4l7.8,4.5c0.1,0.1,0.2,0.1,0.3,0.1v8.6L90.8,78.2L90.8,78.2z M95.2,70.1c-0.2,0.1-0.4,0.1-0.6,0l-7.8-4.5l7.4-4.3l0,0 c0,0,0,0,0,0l8.1,4.7L95.2,70.1z M94.2,58.9l-3.4-1.9v-4.3c0-0.7-0.4-1.4-1-1.7l-3.7-2.2v-4l7.8,4.5c0.1,0.1,0.2,0.1,0.3,0.1 L94.2,58.9C94.2,58.8,94.2,58.9,94.2,58.9z M80.6,31.5l7.4,4.3l-7.1,4.1c-0.2,0.1-0.4,0.1-0.6,0l-7.1-4.1L80.6,31.5z M66.6,39.3 l3.7,1.9c0,0,0,0,0,0l0,0c0,0,0,0,0,0l3.9,2.2l-7.8,4.5c-0.2,0.1-0.4,0.1-0.6,0l-7.1-4.1L66.6,39.3z M58.1,45.2l7.1,4.1 c0.1,0.1,0.2,0.1,0.3,0.1V58l-7.4-4.3V45.2z M58.1,75.8v-8.5l7.1,4.1c0.1,0.1,0.2,0.1,0.3,0.1v8.6L58.1,75.8z M71.7,83.8v-8.5 l7.8,4.5c0.1,0.1,0.2,0.1,0.3,0.1v8.6L71.7,83.8z M81.3,88.5v-8.6c0.1,0,0.2-0.1,0.3-0.1l7.8-4.5v8.5L81.3,88.5z M95.7,80.1v-8.6 c0.1,0,0.2-0.1,0.3-0.1l7.1-4.1v8.5L95.7,80.1z M95.7,58v-8.6c0.1,0,0.2-0.1,0.3-0.1l7.1-4.1v8.5L95.7,58z" style="fill: rgb(0, 149, 58);"/>
  </g>
</svg>