<?xml version="1.0" encoding="utf-8"?>
<svg height="100%" style="fill-rule:evenodd;clip-rule:evenodd;stroke-linecap:round;stroke-linejoin:round;" width="100%" version="1.1" viewBox="0 0 150 150" xmlns="http://www.w3.org/2000/svg" xmlns:bx="https://boxy-svg.com">
  <defs>
    <bx:grid x="0" y="0" width="15" height="15"/>
  </defs>
  <rect width="120" height="120" style="fill: none; stroke-width: 0.2px; stroke: rgb(84, 84, 84); pointer-events: none; visibility: hidden;" x="15" y="15"/>
  <g transform="matrix(1, 0, 0, 1, -2.652832, 2.000002)">
    <g transform="matrix(1.866159, 0, 0, 1.866159, -2.296855, -116.931839)" style="">
      <rect x="20.686" y="70.697" width="42.52" height="32.031" rx="5" ry="5" style="stroke: rgb(0, 0, 0); fill: rgb(255, 255, 255);"/>
      <ellipse style="stroke: rgb(0, 0, 0); fill: none; stroke-width: 0.7px;" cx="27.302" cy="79.134" rx="2.302" ry="2.302"/>
      <ellipse style="stroke: rgb(0, 0, 0); fill: none; stroke-width: 0.7px;" cx="33.592" cy="79.134" rx="2.302" ry="2.302"/>
      <line style="fill: rgb(216, 216, 216); stroke: rgb(0, 0, 0);" x1="54.931" y1="76.345" x2="54.756" y2="81.436"/>
      <line style="fill: rgb(216, 216, 216); stroke: rgb(0, 0, 0);" x1="59.336" y1="76.345" x2="59.161" y2="81.436"/>
      <text style="fill: rgb(51, 51, 51); font-family: &quot;American Typewriter&quot;; font-size: 11.3px; line-height: 18.8623px; white-space: pre;" x="25.251" y="97.829">mDNS</text>
      <line style="fill: rgb(216, 216, 216); stroke: rgb(0, 0, 0);" x1="20.686" y1="84.436" x2="61.787" y2="84.699"/>
      <line style="fill: rgb(216, 216, 216); stroke: rgb(0, 0, 0);" x1="42.136" y1="103.173" x2="41.946" y2="109.482"/>
      <line style="fill: rgb(216, 216, 216); stroke: rgb(0, 0, 0);" x1="19.264" y1="109.132" x2="65.534" y2="109.482"/>
      <ellipse style="stroke: rgb(0, 0, 0); stroke-width: 0.7px; fill: rgb(255, 255, 255);" cx="41.961" cy="108.738" rx="2.915" ry="2.915"/>
    </g>
    <g transform="matrix(0.008776, 0, 0, -0.008776, 74.199028, 163.733444)" fill="#000000" stroke="none" style="">
      <path d="M 903.576 11488.5 C 607.764 11453.4 390.604 11400.5 146.945 11303.9 C -442.98 11069.6 -946.58 10607.1 -1230.4 10039.3 C -1616 9268.11 -1616.9 8402.89 -1233 7636.86 C -878.17 6928.96 -218.13 6414.27 558.171 6239.86 C 742.849 6197.97 870.229 6183.43 1076.27 6178.3 C 1248.98 6174.02 1444.77 6183.43 1507.17 6197.97 C 1522.57 6202.24 1531.12 6193.69 1558.47 6149.24 C 1646.54 6003.89 1809.83 5881.63 1968.01 5841.46 C 1998.78 5833.76 2005.62 5829.48 1994.49 5825.21 C 1980.82 5820.93 1984.23 5815.81 2014.16 5791.01 C 2047.51 5765.36 2132.14 5671.31 2158.66 5631.99 C 2168.05 5617.46 2168.91 5617.46 2163.78 5637.12 C 2154.38 5673.88 2166.34 5653.37 2202.26 5568.72 C 2221.91 5524.27 2235.59 5483.22 2233.03 5476.38 C 2231.32 5470.4 2232.18 5466.98 2236.45 5469.54 C 2240.72 5472.11 2253.55 5450.73 2266.38 5422.53 C 2292.88 5360.96 2294.59 5347.28 2270.64 5389.18 C 2261.24 5405.43 2256.11 5411.41 2259.53 5402.01 C 2274.93 5360.11 2297.14 5234.44 2298.01 5183.99 C 2299.72 5130.13 2299.72 5129.28 2305.7 5166.89 C 2310.84 5201.09 2311.68 5198.53 2312.55 5140.39 C 2313.39 5104.48 2315.97 5061.73 2318.53 5046.34 C 2321.95 5021.55 2321.09 5020.7 2315.11 5038.65 C 2310.84 5050.61 2307.41 5072.85 2306.55 5089.09 C 2305.7 5105.34 2303.14 5116.45 2300.57 5113.03 C 2298.01 5110.47 2298.01 5084.82 2301.43 5055.75 C 2306.55 5014.71 2309.97 5004.45 2320.24 5007.87 C 2351.88 5020.7 2318.53 4996.76 2273.22 4975.38 L 2222.78 4951.44 L 2320.24 4723.18 C 2374.11 4598.35 2486.95 4338.44 2570.74 4145.22 C 2654.53 3952.86 2811.84 3588.65 2921.26 3337.29 C 3494.93 2015.54 3612.93 1745.37 3617.2 1740.24 C 3618.91 1739.38 3647.13 1749.64 3680.47 1763.32 L 3741.16 1788.12 L 3762.55 1753.06 C 3788.2 1708.61 3861.72 1637.64 3913.01 1608.58 C 4027.57 1541.89 4199.41 1541.89 4313.98 1607.73 C 4402.05 1658.16 4469.6 1742.8 4503.78 1841.98 C 4519.18 1888.15 4520.89 1910.38 4518.31 1986.47 C 4515.76 2036.05 4509.77 2084.79 4503.78 2095.9 C 4493.53 2114.71 4496.09 2116.42 4549.1 2140.35 C 4580.73 2154.89 4605.52 2169.42 4605.52 2173.7 C 4605.52 2181.4 4475.57 2486.61 4293.47 2905.54 C 4161.81 3208.2 3851.45 3924.65 3604.38 4494.05 C 3384.64 4999.32 3220.51 5374.64 3216.22 5378.92 C 3215.36 5380.63 3189.72 5372.08 3159.8 5360.11 C 3097.39 5334.47 3099.95 5334.47 3105.09 5348.99 C 3106.8 5354.12 3091.39 5372.93 3070.03 5389.18 C 3006.76 5437.92 2885.36 5571.28 2851.16 5629.43 C 2814.39 5690.98 2810.97 5691.83 2835.78 5631.99 C 2845.18 5609.76 2852.01 5590.95 2850.3 5588.38 C 2843.47 5581.54 2800.72 5696.96 2806.7 5706.37 C 2810.13 5712.35 2809.26 5714.06 2804.14 5711.5 C 2793.03 5704.66 2763.97 5769.63 2771.66 5783.31 C 2775.93 5789.3 2775.07 5791.86 2769.95 5788.44 C 2764.82 5785.02 2752.84 5802.12 2741.72 5827.77 C 2713.51 5894.46 2712.66 5902.15 2737.45 5859.4 C 2749.43 5838.04 2757.11 5828.63 2753.7 5838.04 C 2732.32 5902.15 2723.78 5973.11 2727.2 6053.47 C 2729.76 6108.2 2728.05 6139.83 2722.91 6136.41 C 2718.64 6133.85 2728.91 6158.63 2745.14 6191.98 C 2799.01 6298 2814.39 6368.95 2813.55 6500.62 C 2812.68 6589.53 2808.41 6629.72 2794.74 6675.03 L 2777.64 6734.03 L 2799.86 6751.98 C 2848.59 6790.45 2972.57 6904.16 3051.22 6984.52 C 3442.8 7383.79 3704.41 7924.12 3780.51 8492.66 C 3788.2 8546.53 3795.89 8666.22 3799.3 8757.7 C 3833.51 9870.88 3164.93 10891.8 2130.43 11304.6 C 1927.82 11385 1749.13 11433.8 1506.32 11473.1 C 1424.24 11485.9 982.229 11497.9 903.576 11488.5 Z M 1425.11 11065.2 C 1572.14 11045.6 1586.68 11043.9 1668.76 11022.6 C 1969.7 10946.4 2244.14 10813.9 2519.43 10610.5 C 2592.97 10556.6 2887.07 10271.9 2887.07 10254.8 C 2887.07 10251.4 2896.47 10236.9 2908.45 10223.2 C 2934.95 10193.2 3040.11 10041.1 3066.61 9993.15 C 3101.66 9931.55 3183.74 9763.94 3214.51 9689.59 C 3350.45 9365.58 3409.45 8987.68 3377.82 8638.01 C 3347.89 8292.6 3247.86 7976.27 3085.43 7706.1 C 3021.3 7599.23 2919.55 7454.75 2887.07 7423.97 C 2884.51 7421.41 2871.68 7406.02 2858.01 7389.77 C 2816.11 7337.62 2704.11 7224.77 2647.68 7176.03 C 2616.91 7150.39 2590.39 7127.3 2587.84 7124.74 C 2577.57 7112.77 2386.91 6986.23 2309.97 6939.22 C 2215.93 6881.93 2021.86 6782.75 1962.87 6761.39 C 1647.38 6648.53 1410.57 6596.38 1184 6588.68 C 778.75 6575 370.938 6685.29 -12.075 6911.85 C -100.14 6964 -238.65 7057.19 -250.6 7072.58 C -253.16 7075.15 -268.56 7087.97 -284.81 7099.94 C -332.69 7135.85 -433.56 7230.75 -515.64 7317.96 C -649.87 7459.03 -770.38 7633.44 -864.48 7822.38 C -952.48 7996.79 -962.77 8023.29 -1012.4 8192.57 C -1128.7 8590.12 -1132.1 9026.15 -1022.7 9433.11 C -1015.8 9458.76 -1007.3 9492.1 -1003 9505.78 C -996.17 9534.85 -962.77 9628.9 -937.17 9693.87 C -887.58 9820.46 -759.27 10055.6 -697.75 10134.3 C -691.76 10141.1 -669.53 10171.9 -646.45 10202.7 C -624.23 10233.4 -603.71 10260 -601.14 10262.5 C -598.58 10265.1 -575.5 10291.6 -549.85 10322.4 C -471.19 10414.6 -325 10552.3 -250.6 10604.5 C -234.37 10615.6 -218.97 10627.6 -216.41 10631 C -213.84 10633.5 -166.82 10666.9 -110.39 10702.8 C 3.315 10778.1 199.951 10880.6 296.56 10915.7 C 384.619 10948.2 511.155 10990.1 530.821 10994.3 C 539.371 10996.1 559.026 11001.2 573.562 11005.5 C 609.474 11017.4 660.776 11027.7 800.982 11052.5 C 989.925 11085.8 1234.45 11090.9 1425.11 11065.2 Z M 2995.64 5444.76 C 3015.32 5427.66 3040.11 5402.01 3051.22 5386.61 C 3062.34 5370.37 3050.36 5378.92 3023.86 5407.14 C 2998.22 5432.79 2965.74 5463.56 2951.2 5473.82 C 2937.51 5484.08 2933.24 5489.21 2942.64 5484.08 C 2952.05 5479.8 2975.99 5461.85 2995.64 5444.76 Z M 2309.11 5324.21 C 2311.68 5317.37 2310.84 5313.95 2305.7 5316.51 C 2300.57 5319.08 2297.14 5325.06 2297.14 5330.19 C 2297.14 5342.16 2303.14 5339.6 2309.11 5324.21 Z M 2320.24 5216.48 C 2317.68 5209.64 2315.11 5212.21 2315.11 5221.61 C 2314.26 5231.02 2316.82 5236.15 2319.39 5232.73 C 2321.95 5230.16 2322.8 5222.47 2320.24 5216.48 Z" style="transform-box: fill-box; transform-origin: 50% 50%; stroke: rgb(0, 0, 0); stroke-width: 113.947px; fill: rgb(106, 106, 106);" transform="matrix(0.851146, 0.524929, -0.524929, 0.851146, -0.000035, 0.000015)"/>
      <ellipse style="stroke: rgb(0, 0, 0); fill: rgba(255, 255, 255, 0.77);" transform="matrix(1, 0, 0, -1, 0, 0)" cx="-29.849" cy="-8300.9" rx="2202.91" ry="2202.91"/>
    </g>
  </g>
</svg>