<?xml version="1.0" encoding="utf-8"?>
<svg height="100%" style="fill-rule:evenodd;clip-rule:evenodd;stroke-linecap:round;stroke-linejoin:round;" width="100%" version="1.1" viewBox="0 0 150 150" xmlns="http://www.w3.org/2000/svg" xmlns:bx="https://boxy-svg.com">
  <defs>
    <bx:grid x="0" y="0" width="15" height="15"/>
    <linearGradient gradientUnits="userSpaceOnUse" x1="104.5" y1="29" x2="104.5" y2="120.983" id="gradient-0" gradientTransform="matrix(0.959037, 0, 0, 0.97521, -25.590815, 37.938898)">
      <stop offset="0" style="stop-color: rgb(199, 225, 232);"/>
      <stop offset="1" style="stop-color: rgb(104, 103, 103);"/>
    </linearGradient>
  </defs>
  <rect width="120" height="120" style="fill: none; stroke-width: 0.2px; stroke: rgb(84, 84, 84); pointer-events: none; visibility: hidden;" x="15" y="15"/>
  <g transform="matrix(1.304589, 0, 0, 1.304589, 165.856064, -41.11948)" style="">
    <g transform="matrix(1, 0, 0, 1, -144.634964, -23.203003)">
      <rect x="30.992" y="66.22" width="87.273" height="89.703" style="fill: rgb(216, 216, 216); stroke-width: 4px; stroke: url(&quot;#gradient-0&quot;); paint-order: fill;" rx="3.432" ry="3.432"/>
      <rect x="32.68" y="68.951" width="83.6" height="85.585" style="paint-order: fill; stroke: rgb(0, 0, 0); fill: rgb(19, 28, 31); stroke-width: 1.53305px;" rx="2.575" ry="2.575"/>
    </g>
    <g transform="matrix(0.699567, 0, 0, 0.82994, -122.655228, -90.940071)" style="">
      <line x1="94.543" y1="163.795" x2="94.543" y2="267.795" class="iterm-border" style="stroke-width: 1.5; stroke: rgb(222, 222, 222);"/>
      <line x1="14.739" y1="242.918" x2="94.371" y2="242.918" class="iterm-border" style="stroke-width: 1.5; stroke: rgb(222, 222, 222);"/>
      <line x1="94.782" y1="218.004" x2="135.333" y2="218.016" class="iterm-border" style="stroke-width: 1.5; stroke: rgb(222, 222, 222);"/>
    </g>
    <g transform="matrix(0.369165, 0, 0, 0.369165, -120.430374, 89.935013)" style="">
      <rect x="58" y="79.322" width="10.465" height="20.779" style="fill: rgb(9, 99, 16);"/>
      <text style="fill: rgb(5, 229, 23); font-family: Helvetica; font-size: 23px; white-space: pre;" x="41.798" y="97.618">$</text>
    </g>
    <path class="cls-2" d="M -87.552 80.685 L -85.482 79.518 L -85.442 79.416 L -85.482 79.36 L -85.582 79.36 L -85.932 79.339 L -87.112 79.307 L -88.152 79.264 L -89.142 79.21 L -89.392 79.157 L -89.632 78.846 L -89.602 78.691 L -89.392 78.549 L -89.092 78.576 L -88.422 78.622 L -87.422 78.691 L -86.692 78.734 L -85.612 78.846 L -85.442 78.846 L -85.422 78.776 L -85.482 78.734 L -85.522 78.691 L -86.562 77.987 L -87.682 77.243 L -88.272 76.814 L -88.592 76.598 L -88.752 76.394 L -88.822 75.95 L -88.532 75.632 L -88.152 75.658 L -88.052 75.685 L -87.652 75.988 L -86.812 76.638 L -85.712 77.446 L -85.552 77.579 L -85.492 77.534 L -85.482 77.501 L -85.552 77.381 L -86.152 76.302 L -86.792 75.205 L -87.072 74.75 L -87.142 74.477 C -87.172 74.366 -87.192 74.271 -87.192 74.156 L -86.862 73.709 L -86.682 73.651 L -86.242 73.709 L -86.062 73.87 L -85.782 74.494 L -85.342 75.476 L -84.662 76.812 L -84.462 77.208 L -84.352 77.575 L -84.312 77.687 L -84.242 77.687 L -84.242 77.623 L -84.182 76.87 L -84.082 75.947 L -83.982 74.758 L -83.942 74.423 L -83.782 74.022 L -83.452 73.805 L -83.192 73.928 L -82.982 74.231 L -83.012 74.426 L -83.132 75.243 L -83.382 76.522 L -83.542 77.379 L -83.452 77.379 L -83.342 77.272 L -82.902 76.696 L -82.182 75.786 L -81.852 75.425 L -81.482 75.026 L -81.242 74.836 L -80.787 74.836 L -80.452 75.333 L -80.602 75.847 L -81.07 76.441 L -81.462 76.945 L -82.012 77.694 L -82.362 78.294 L -82.332 78.341 L -82.252 78.334 L -80.99 78.066 L -80.311 77.943 L -79.5 77.804 L -79.133 77.976 L -79.093 78.15 L -79.237 78.506 L -80.104 78.72 L -81.121 78.923 L -82.632 79.282 L -82.652 79.295 L -82.632 79.322 L -81.952 79.386 L -81.662 79.402 L -80.944 79.402 L -79.614 79.501 L -79.266 79.731 L -79.058 80.012 L -79.093 80.226 L -79.628 80.498 L -80.351 80.327 L -82.042 79.926 L -82.612 79.782 L -82.692 79.782 L -82.692 79.83 L -82.212 80.301 L -81.332 81.099 L -80.224 82.126 L -80.168 82.38 L -80.31 82.581 L -80.46 82.56 L -81.432 81.829 L -81.802 81.499 L -82.652 80.785 L -82.712 80.785 L -82.712 80.86 L -82.512 81.146 L -81.482 82.699 L -81.432 83.175 L -81.502 83.33 L -81.772 83.423 L -82.062 83.37 L -82.672 82.521 L -83.292 81.565 L -83.802 80.708 L -83.862 80.744 L -84.162 83.942 L -84.302 84.106 L -84.622 84.229 L -84.882 84.025 L -85.032 83.696 L -84.882 83.045 L -84.712 82.197 L -84.572 81.522 L -84.452 80.684 L -84.372 80.406 L -84.382 80.387 L -84.442 80.395 L -85.072 81.262 L -86.032 82.561 L -86.792 83.375 L -86.972 83.447 L -87.292 83.283 L -87.262 82.991 L -87.082 82.732 L -86.032 81.393 L -85.402 80.564 L -84.992 80.084 L -84.992 80.016 L -85.022 80.016 L -87.812 81.83 L -88.312 81.894 L -88.522 81.693 L -88.492 81.365 L -88.402 81.257 L -87.552 80.679 L -87.552 80.682 L -87.552 80.685 Z" shape-rendering="optimizeQuality" id="path-1" style="fill: rgb(217, 119, 87); stroke-width: 0;"/>
    <path class="cls-2" d="M -43.644 71.211 L -41.574 70.044 L -41.534 69.942 L -41.574 69.886 L -41.674 69.886 L -42.024 69.865 L -43.204 69.833 L -44.244 69.79 L -45.234 69.736 L -45.484 69.683 L -45.724 69.372 L -45.694 69.217 L -45.484 69.075 L -45.184 69.102 L -44.514 69.148 L -43.514 69.217 L -42.784 69.26 L -41.704 69.372 L -41.534 69.372 L -41.514 69.302 L -41.574 69.26 L -41.614 69.217 L -42.654 68.513 L -43.774 67.769 L -44.364 67.34 L -44.684 67.124 L -44.844 66.92 L -44.914 66.476 L -44.624 66.158 L -44.244 66.184 L -44.144 66.211 L -43.744 66.514 L -42.904 67.164 L -41.804 67.972 L -41.644 68.105 L -41.584 68.06 L -41.574 68.027 L -41.644 67.907 L -42.244 66.828 L -42.884 65.731 L -43.164 65.276 L -43.234 65.003 C -43.264 64.892 -43.284 64.797 -43.284 64.682 L -42.954 64.235 L -42.774 64.177 L -42.334 64.235 L -42.154 64.396 L -41.874 65.02 L -41.434 66.002 L -40.754 67.338 L -40.554 67.734 L -40.444 68.101 L -40.404 68.213 L -40.334 68.213 L -40.334 68.149 L -40.274 67.396 L -40.174 66.473 L -40.074 65.284 L -40.034 64.949 L -39.874 64.548 L -39.544 64.331 L -39.284 64.454 L -39.074 64.757 L -39.104 64.952 L -39.224 65.769 L -39.474 67.048 L -39.634 67.905 L -39.544 67.905 L -39.434 67.798 L -38.994 67.222 L -38.274 66.312 L -37.944 65.951 L -37.574 65.552 L -37.334 65.362 L -36.879 65.362 L -36.544 65.859 L -36.694 66.373 L -37.162 66.967 L -37.554 67.471 L -38.104 68.22 L -38.454 68.82 L -38.424 68.867 L -38.344 68.86 L -37.082 68.592 L -36.403 68.469 L -35.592 68.33 L -35.225 68.502 L -35.185 68.676 L -35.329 69.032 L -36.196 69.246 L -37.213 69.449 L -38.724 69.808 L -38.744 69.821 L -38.724 69.848 L -38.044 69.912 L -37.754 69.928 L -37.036 69.928 L -35.706 70.027 L -35.358 70.257 L -35.15 70.538 L -35.185 70.752 L -35.72 71.024 L -36.443 70.853 L -38.134 70.452 L -38.704 70.308 L -38.784 70.308 L -38.784 70.356 L -38.304 70.827 L -37.424 71.625 L -36.316 72.652 L -36.26 72.906 L -36.402 73.107 L -36.552 73.086 L -37.524 72.355 L -37.894 72.025 L -38.744 71.311 L -38.804 71.311 L -38.804 71.386 L -38.604 71.672 L -37.574 73.225 L -37.524 73.701 L -37.594 73.856 L -37.864 73.949 L -38.154 73.896 L -38.764 73.047 L -39.384 72.091 L -39.894 71.234 L -39.954 71.27 L -40.254 74.468 L -40.394 74.632 L -40.714 74.755 L -40.974 74.551 L -41.124 74.222 L -40.974 73.571 L -40.804 72.723 L -40.664 72.048 L -40.544 71.21 L -40.464 70.932 L -40.474 70.913 L -40.534 70.921 L -41.164 71.788 L -42.124 73.087 L -42.884 73.901 L -43.064 73.973 L -43.384 73.809 L -43.354 73.517 L -43.174 73.258 L -42.124 71.919 L -41.494 71.09 L -41.084 70.61 L -41.084 70.542 L -41.114 70.542 L -43.904 72.356 L -44.404 72.42 L -44.614 72.219 L -44.584 71.891 L -44.494 71.783 L -43.644 71.205 L -43.644 71.208 L -43.644 71.211 Z" shape-rendering="optimizeQuality" id="path-2" style="fill: rgb(217, 119, 87); stroke-width: 0;"/>
    <path class="cls-2" d="M -44.568 112.279 L -42.498 111.112 L -42.458 111.01 L -42.498 110.954 L -42.598 110.954 L -42.948 110.933 L -44.128 110.901 L -45.168 110.858 L -46.158 110.804 L -46.408 110.751 L -46.648 110.44 L -46.618 110.285 L -46.408 110.143 L -46.108 110.17 L -45.438 110.216 L -44.438 110.285 L -43.708 110.328 L -42.628 110.44 L -42.458 110.44 L -42.438 110.37 L -42.498 110.328 L -42.538 110.285 L -43.578 109.581 L -44.698 108.837 L -45.288 108.408 L -45.608 108.192 L -45.768 107.988 L -45.838 107.544 L -45.548 107.226 L -45.168 107.252 L -45.068 107.279 L -44.668 107.582 L -43.828 108.232 L -42.728 109.04 L -42.568 109.173 L -42.508 109.128 L -42.498 109.095 L -42.568 108.975 L -43.168 107.896 L -43.808 106.799 L -44.088 106.344 L -44.158 106.071 C -44.188 105.96 -44.208 105.865 -44.208 105.75 L -43.878 105.303 L -43.698 105.245 L -43.258 105.303 L -43.078 105.464 L -42.798 106.088 L -42.358 107.07 L -41.678 108.406 L -41.478 108.802 L -41.368 109.169 L -41.328 109.281 L -41.258 109.281 L -41.258 109.217 L -41.198 108.464 L -41.098 107.541 L -40.998 106.352 L -40.958 106.017 L -40.798 105.616 L -40.468 105.399 L -40.208 105.522 L -39.998 105.825 L -40.028 106.02 L -40.148 106.837 L -40.398 108.116 L -40.558 108.973 L -40.468 108.973 L -40.358 108.866 L -39.918 108.29 L -39.198 107.38 L -38.868 107.019 L -38.498 106.62 L -38.258 106.43 L -37.803 106.43 L -37.468 106.927 L -37.618 107.441 L -38.086 108.035 L -38.478 108.539 L -39.028 109.288 L -39.378 109.888 L -39.348 109.935 L -39.268 109.928 L -38.006 109.66 L -37.327 109.537 L -36.516 109.398 L -36.149 109.57 L -36.109 109.744 L -36.253 110.1 L -37.12 110.314 L -38.137 110.517 L -39.648 110.876 L -39.668 110.889 L -39.648 110.916 L -38.968 110.98 L -38.678 110.996 L -37.96 110.996 L -36.63 111.095 L -36.282 111.325 L -36.074 111.606 L -36.109 111.82 L -36.644 112.092 L -37.367 111.921 L -39.058 111.52 L -39.628 111.376 L -39.708 111.376 L -39.708 111.424 L -39.228 111.895 L -38.348 112.693 L -37.24 113.72 L -37.184 113.974 L -37.326 114.175 L -37.476 114.154 L -38.448 113.423 L -38.818 113.093 L -39.668 112.379 L -39.728 112.379 L -39.728 112.454 L -39.528 112.74 L -38.498 114.293 L -38.448 114.769 L -38.518 114.924 L -38.788 115.017 L -39.078 114.964 L -39.688 114.115 L -40.308 113.159 L -40.818 112.302 L -40.878 112.338 L -41.178 115.536 L -41.318 115.7 L -41.638 115.823 L -41.898 115.619 L -42.048 115.29 L -41.898 114.639 L -41.728 113.791 L -41.588 113.116 L -41.468 112.278 L -41.388 112 L -41.398 111.981 L -41.458 111.989 L -42.088 112.856 L -43.048 114.155 L -43.808 114.969 L -43.988 115.041 L -44.308 114.877 L -44.278 114.585 L -44.098 114.326 L -43.048 112.987 L -42.418 112.158 L -42.008 111.678 L -42.008 111.61 L -42.038 111.61 L -44.828 113.424 L -45.328 113.488 L -45.538 113.287 L -45.508 112.959 L -45.418 112.851 L -44.568 112.273 L -44.568 112.276 L -44.568 112.279 Z" shape-rendering="optimizeQuality" id="path-3" style="fill: rgb(217, 119, 87); stroke-width: 0;"/>
  </g>
</svg>