<?xml version="1.0" encoding="utf-8"?>
<svg height="100%" style="fill-rule:evenodd;clip-rule:evenodd;stroke-linecap:round;stroke-linejoin:round;" width="100%" version="1.1" viewBox="0 0 150 150" xmlns="http://www.w3.org/2000/svg" xmlns:bx="https://boxy-svg.com">
  <defs>
    <bx:grid x="0" y="0" width="15" height="15"/>
  </defs>
  <rect width="120" height="120" style="fill: none; stroke-width: 0.2px; stroke: rgb(84, 84, 84); pointer-events: none; visibility: hidden;" x="15" y="15"/>
  <g style="stroke: none; stroke-width: 0; stroke-dasharray: none; stroke-linecap: butt; stroke-linejoin: miter; stroke-miterlimit: 10; fill: none; fill-rule: nonzero; opacity: 1;" transform="matrix(1.365708, 0, 0, 1.365708, 13.543139, 12.086945)">
    <circle cx="69.253" cy="75.333" r="10.973" style="stroke: none; stroke-width: 1; stroke-dasharray: none; stroke-linecap: butt; stroke-linejoin: miter; stroke-miterlimit: 10; fill: rgb(255,255,255); fill-rule: nonzero; opacity: 1;" transform="  matrix(1 0 0 1 0 0) "/>
    <path d="M 38.877 40.375 C 29.462 40.375 21.759 33.079 21.759 24.162 L 21.759 18.347 C 21.759 9.429 29.462 2.133 38.877 2.133 C 48.292 2.133 55.995 9.429 55.995 18.347 L 55.995 24.162 C 55.995 33.079 48.292 40.375 38.877 40.375 Z" style="stroke: none; stroke-width: 1; stroke-dasharray: none; stroke-linecap: butt; stroke-linejoin: miter; stroke-miterlimit: 10; fill: rgb(110, 177, 225); fill-rule: nonzero; opacity: 1;" stroke-linecap="round"/>
    <path d="M 50.103 75.603 c 0 -10.209 7.969 -18.535 18.022 -19.154 c -3.98 -7.222 -11.159 -12.461 -19.609 -13.722 c -2.896 1.499 -6.169 2.363 -9.639 2.363 c -3.47 0 -6.743 -0.863 -9.639 -2.363 C 16.296 44.659 6.286 55.889 6.286 69.347 v 17.707 C 6.286 88.674 7.612 90 9.232 90 h 47.391 C 52.633 86.479 50.103 81.342 50.103 75.603 z" style="stroke: none; stroke-width: 1; stroke-dasharray: none; stroke-linecap: butt; stroke-linejoin: miter; stroke-miterlimit: 10; fill: rgb(110,177,225); fill-rule: nonzero; opacity: 1;" transform=" matrix(1 0 0 1 0 0) " stroke-linecap="round"/>
    <path d="M 69.317 61.206 c -7.951 0 -14.397 6.446 -14.397 14.397 C 54.92 83.554 61.366 90 69.317 90 c 7.951 0 14.397 -6.446 14.397 -14.397 C 83.714 67.652 77.268 61.206 69.317 61.206 z M 76.349 78.334 c 0.403 0.403 0.403 1.057 0 1.46 l -2.656 2.656 c -0.403 0.403 -1.057 0.403 -1.46 0 l -2.837 -2.837 l -2.837 2.837 c -0.403 0.403 -1.057 0.403 -1.46 0 l -2.656 -2.656 c -0.403 -0.403 -0.403 -1.057 0 -1.46 l 2.837 -2.837 l -2.837 -2.837 c -0.403 -0.403 -0.403 -1.057 0 -1.46 l 2.656 -2.656 c 0.403 -0.403 1.057 -0.403 1.46 0 l 2.837 2.837 l 2.837 -2.837 c 0.403 -0.403 1.057 -0.403 1.46 0 l 2.656 2.656 c 0.403 0.403 0.403 1.057 0 1.46 l -2.837 2.837 L 76.349 78.334 z" style="stroke: none; stroke-width: 1; stroke-dasharray: none; stroke-linecap: butt; stroke-linejoin: miter; stroke-miterlimit: 10; fill: rgb(240,88,47); fill-rule: nonzero; opacity: 1;" transform=" matrix(1 0 0 1 0 0) " stroke-linecap="round"/>
  </g>
</svg>