<?xml version="1.0" encoding="utf-8"?>
<svg height="100%" style="fill-rule:evenodd;clip-rule:evenodd;stroke-linecap:round;stroke-linejoin:round;" width="100%" version="1.1" viewBox="0 0 150 150" xmlns="http://www.w3.org/2000/svg" xmlns:bx="https://boxy-svg.com">
  <defs>
    <bx:grid x="0" y="0" width="15" height="15"/>
  </defs>
  <rect width="120" height="120" style="fill: none; stroke-width: 0.2px; stroke: rgb(84, 84, 84); pointer-events: none; visibility: hidden;" x="15" y="15" bx:origin="0.5 0.5"/>
  <g id="Page-1" stroke="none" stroke-width="1" fill="none" fill-rule="evenodd" fill-opacity="0.94117647" style="" transform="matrix(0.759311, 0, 0, 0.759311, 20.384762, 14.679086)">
    <g id="logo-nibbleblog" transform="translate(-3.000000, -2.000000)" fill="#47474F">
      <g id="g61" transform="translate(2.215581, 1.569565)">
        <path d="M116.313636,136.027301 C115.138015,140.754539 114.460332,143.121788 112.76734,147.943426 C116.019731,148.851114 119.753057,148.427526 122.563375,147.086569 C126.107241,145.230045 126.073236,143.039491 124.598851,140.51733 C122.874283,137.937076 119.585458,135.865127 116.313636,136.027301 Z" id="path63"/>
        <path d="M91.8709153,50.5642605 C91.414269,57.4409031 96.2722081,61.819589 101.438626,64.8500559 C102.728409,65.6076727 105.050504,67.3141257 107.13456,67.4399917 C109.167607,67.5537552 110.525401,66.2854129 112.733335,66.2224798 C115.169591,66.1668083 117.103051,67.8732613 121.268734,67.7861233 C123.277492,67.7449748 126.884511,66.9776761 129.211464,66.3507664 C131.443687,65.7456412 133.425726,63.9835167 130.336077,63.0734084 C125.453848,61.6428924 120.032388,63.0467829 115.558226,60.350345 C112.373847,58.4526725 111.210371,52.6870397 107.000967,51.6268604 C104.77846,51.0725657 102.385925,52.2755546 99.9909605,52.089176 C97.1879297,51.8737514 95.0552944,50.6586601 91.8709153,50.5642605 Z" id="path65"/>
        <path d="M116.500667,49.2717131 C116.04402,52.5660146 116.692555,54.7952958 118.66002,56.1919248 C122.398205,58.445411 125.456277,56.4484978 128.456055,55.3350675 C129.71669,52.7209267 125.730751,46.3453277 121.120567,47.1319905 C119.262405,47.4514966 118.159653,48.8142385 116.500667,49.2717131 Z" id="path67"/>
        <path d="M78.8564965,42.0973489 C74.2876047,44.6630797 66.5683395,58.9948646 64.9992252,60.9361062 C52.5531852,76.2990244 50.658589,101.264069 50.4448396,110.607202 C50.1072129,125.415826 55.8201492,138.467166 62.7888629,144.148081 C67.0201278,147.597294 68.681543,148.316183 72.0845294,151.668577 C73.631783,153.960791 73.5200504,155.730177 73.2140002,158.293487 C76.2162066,159.600558 86.9109595,159.607819 95.3370549,154.05277 C101.07671,150.269527 105.903072,144.782252 107.690794,138.033896 C108.698816,134.226448 108.912566,131.273437 108.317468,128.189719 C106.767786,122.358733 103.831161,118.790915 99.0485203,115.404634 C98.3319743,114.906011 95.49008,113.335106 94.8366871,112.732402 C92.9080853,110.972698 93.175272,108.223009 92.7137678,105.391023 C95.1500242,105.156234 111.890482,103.991973 119.879363,101.573893 C123.437804,100.249879 124.445826,96.5561952 125.66274,93.2183246 C126.512879,90.8825414 126.483731,88.0941246 127.751654,86.0221759 C129.000144,83.9671708 132.684891,83.2991126 134.683933,81.5539315 C137.173626,79.3900039 138.198652,75.6382277 136.760702,72.0365226 C134.640211,72.1042966 132.667888,72.2882547 130.797581,72.5883968 C129.114305,72.8667544 126.792211,72.8667544 125.424701,73.6122686 C121.657369,75.6648532 121.854115,85.3637997 114.496767,82.7980689 C111.465413,80.4840702 110.097903,78.6807972 107.894827,75.9214263 C100.129412,73.9414567 94.5452108,71.2208139 90.0370433,67.2560337 C83.1654885,61.2362483 81.1445858,52.4837176 79.2427026,42.5475621 C79.2062681,42.3176145 78.8322068,42.373286 78.8564965,42.0973489 Z" id="path69"/>
        <path d="M108.846984,42.310353 C109.284198,42.5935516 110.037179,43.2519278 110.037179,43.2519278 C110.037179,43.2519278 124.698439,40.2432454 129.379063,44.4621782 C132.046072,46.8633149 133.272701,49.4266252 134.404601,52.4691946 C135.291175,54.8606494 136.64654,57.7821937 140.221983,56.1193097 C142.128724,55.1002789 140.515889,54.8775929 139.230964,52.8758387 C138.648011,51.9657305 137.812445,49.5428092 137.506395,48.3059333 C136.459509,44.0918415 135.230451,42.7750891 132.114083,39.6381202 C129.167743,36.6754273 126.294272,35.1384093 122.796556,33.9426819 C118.66002,32.536371 115.048143,31.3358026 110.996622,31.9602918 C110.17563,34.5429661 110.605557,39.2629426 108.846984,42.310353 Z" id="path71"/>
        <path d="M93.4400297,17.977059 C90.943049,19.8795726 86.3182909,23.2948992 85.6406084,29.399402 C85.0625137,34.5816941 89.2379123,41.1291486 93.3865923,42.6927921 C96.4786706,43.847371 101.487206,36.8763288 102.716264,34.8431082 C103.751005,32.1563524 103.828732,31.6843547 103.199629,29.200921 C102.240186,25.4200988 98.4509938,22.1572638 97.3360968,18.5918662 C96.2187708,15.0288891 94.7200966,16.9991767 93.4400297,17.977059 Z" id="path73"/>
        <path d="M65.9295205,152.452819 C64.6543115,150.935165 62.8228685,151.869478 57.4281271,147.09383 C52.0333857,142.320603 48.1980428,132.982311 46.7236583,126.785829 C45.4945997,122.736331 44.6833239,115.876632 44.751335,110.190876 C44.8800704,99.6592771 44.9748002,86.8427257 51.290121,73.4307311 C55.6452634,64.1844182 75.2494767,41.4341317 71.9315043,24.0621979 C68.6159608,6.69510506 60.9112694,3.97204172 51.0156475,1.73307853 C37.4522815,-1.19330687 28.8221527,2.50279777 22.0890491,10.3258562 C16.5169929,16.7958547 15.1762018,20.1022587 12.9512656,25.5169188 C2.95848491,56.6881274 7.41564404,65.01465 31.9020861,36.5592432 C35.3172173,31.3212796 38.5210281,28.4069967 43.2648056,30.2030083 C45.5140314,31.057445 44.0760815,38.7401144 40.8066885,42.2740455 C34.9577298,48.5963934 8.10547139,78.4919981 4.38186107,90.8898029 C0.675253535,103.227095 -0.706830139,111.783565 3.16737629,121.90852 C6.40033477,130.36575 12.1132712,135.978891 23.5658626,142.860374 C49.3566613,158.361261 57.2605282,156.207015 63.1192027,157.102601 C67.9868577,157.855376 70.6417214,155.105688 65.9295205,152.452819 Z" id="path75"/>
      </g>
      <path d="M144.341876,61.4067642 C142.850489,64.1758171 142.063503,65.5506615 140.336505,68.3197144 C141.475692,69.2274021 143.098244,69.3774732 144.538623,68.864327 C146.394355,68.1163923 146.848573,66.7705939 146.78299,65.0641409 C146.627536,63.2947548 145.721531,61.6633373 144.341876,61.4067642 Z" id="path77"/>
    </g>
  </g>
</svg>