<?xml version="1.0" encoding="utf-8"?>
<svg height="100%" style="fill-rule:evenodd;clip-rule:evenodd;stroke-linecap:round;stroke-linejoin:round;" width="100%" version="1.1" viewBox="0 0 150 150" xmlns="http://www.w3.org/2000/svg" xmlns:bx="https://boxy-svg.com">
  <defs>
    <bx:grid x="0" y="0" width="15" height="15"/>
  </defs>
  <rect width="120" height="120" style="fill: none; stroke-width: 0.2px; stroke: rgb(84, 84, 84); pointer-events: none; visibility: hidden;" x="15" y="15"/>
  <g transform="matrix(1.062752, 0, 0, 1.062752, -2.184514, 61.492229)" style="">
    <g transform="matrix(0.571396, 0, 0, 0.571396, 54.885262, -487.954529)" style="">
      <path style="line-height:normal;font-variant-ligatures:normal;font-variant-position:normal;font-variant-caps:normal;font-variant-numeric:normal;font-variant-alternates:normal;font-feature-settings:normal;text-indent:0;text-align:start;text-decoration-line:none;text-decoration-style:solid;text-decoration-color:#000;text-transform:none;text-orientation:mixed;white-space:normal;shape-padding:0;isolation:auto;mix-blend-mode:normal;solid-color:#000;solid-opacity:1" d="M -12 917.61 L -12 943.61 L -2 943.61 L -2 939.61 L -8 939.61 L -8 921.61 L -2 921.61 L -2 917.61 Z M 64 917.61 L 64 921.61 L 70 921.61 L 70 939.61 L 64 939.61 L 64 943.61 L 74 943.61 L 74 917.61 Z" color="#000" font-weight="400" font-family="sans-serif" overflow="visible" fill="#201a26"/>
      <path d="M 33 930.61 L 51 920.61 L 51 940.61 Z" fill="#30d475"/>
      <circle r="9" cy="930.611" cx="18.001" fill="#30d475"/>
    </g>
    <g transform="matrix(0.529316, 0, 0, 0.529316, -3.025859, -429.835754)" style="">
      <path d="M 101.498 932.536 C 98.498 931.896 96.998 930.603 96.998 928.658 C 96.998 927.939 97.201 927.278 97.607 926.677 C 98.021 926.076 98.615 925.595 99.388 925.236 C 100.161 924.876 101.064 924.696 102.095 924.696 C 103.182 924.696 104.131 924.872 104.943 925.224 C 105.756 925.568 106.381 926.052 106.818 926.677 C 107.255 927.294 107.474 928.001 107.474 928.798 L 103.935 928.798 C 103.935 928.29 103.783 927.896 103.478 927.615 C 103.173 927.326 102.709 927.181 102.084 927.181 C 101.568 927.181 101.154 927.302 100.841 927.544 C 100.536 927.787 100.384 928.099 100.384 928.482 C 100.384 928.849 100.556 929.145 100.9 929.372 C 101.251 929.599 101.845 929.79 102.681 929.947 C 103.681 930.134 104.529 930.38 105.224 930.685 C 105.919 930.982 106.47 931.396 106.877 931.927 C 107.29 932.458 107.497 933.134 107.497 933.954 C 107.497 934.697 107.275 935.365 106.83 935.958 C 106.392 936.545 105.763 937.006 104.943 937.341 C 104.13 937.677 103.185 937.845 102.107 937.845 C 100.966 937.845 99.978 937.638 99.142 937.224 C 98.314 936.802 97.681 936.263 97.244 935.607 C 96.814 934.95 96.599 934.267 96.599 933.556 L 99.939 933.556 C 99.963 934.165 100.182 934.619 100.595 934.916 C 101.009 935.205 101.54 935.349 102.189 935.349 C 102.79 935.349 103.251 935.236 103.572 935.009 C 103.9 934.775 104.064 934.463 104.064 934.072 C 104.064 933.829 103.99 933.626 103.841 933.462 C 103.701 933.29 103.443 933.13 103.068 932.982 C 102.701 932.833 102.178 932.685 101.498 932.536 Z M 120.882 924.93 L 115.796 939.51 C 115.601 940.064 115.359 940.572 115.07 941.033 C 114.781 941.502 114.359 941.9 113.804 942.228 C 113.249 942.564 112.55 942.732 111.706 942.732 C 111.401 942.732 111.151 942.716 110.956 942.684 C 110.769 942.653 110.507 942.595 110.171 942.508 L 110.171 939.836 C 110.288 939.849 110.464 939.856 110.698 939.856 C 111.331 939.856 111.804 939.758 112.116 939.563 C 112.429 939.368 112.668 939.047 112.831 938.602 L 113.183 937.676 L 108.753 924.938 L 112.55 924.938 L 114.812 932.625 L 117.097 924.938 Z M 126.766 932.536 C 123.766 931.896 122.266 930.603 122.266 928.658 C 122.266 927.939 122.469 927.278 122.876 926.677 C 123.289 926.076 123.883 925.595 124.657 925.236 C 125.43 924.876 126.333 924.696 127.364 924.696 C 128.45 924.696 129.399 924.872 130.212 925.224 C 131.024 925.568 131.649 926.052 132.087 926.677 C 132.524 927.294 132.743 928.001 132.743 928.798 L 129.204 928.798 C 129.204 928.29 129.052 927.896 128.747 927.615 C 128.442 927.326 127.977 927.181 127.352 927.181 C 126.837 927.181 126.423 927.302 126.11 927.544 C 125.805 927.787 125.653 928.099 125.653 928.482 C 125.653 928.849 125.825 929.145 126.169 929.372 C 126.52 929.599 127.114 929.79 127.95 929.947 C 128.95 930.134 129.798 930.38 130.493 930.685 C 131.188 930.982 131.739 931.396 132.145 931.927 C 132.559 932.458 132.766 933.134 132.766 933.954 C 132.766 934.697 132.543 935.365 132.098 935.958 C 131.661 936.545 131.032 937.006 130.212 937.341 C 129.399 937.677 128.454 937.845 127.376 937.845 C 126.235 937.845 125.247 937.638 124.411 937.224 C 123.583 936.802 122.95 936.263 122.512 935.607 C 122.083 934.95 121.868 934.267 121.868 933.556 L 125.208 933.556 C 125.232 934.165 125.451 934.619 125.864 934.916 C 126.278 935.205 126.809 935.349 127.458 935.349 C 128.059 935.349 128.52 935.236 128.841 935.009 C 129.169 934.775 129.333 934.463 129.333 934.072 C 129.333 933.829 129.259 933.626 129.11 933.462 C 128.97 933.29 128.712 933.13 128.337 932.982 C 127.97 932.833 127.446 932.685 126.767 932.536 Z M 140.749 934.939 C 141.132 934.939 141.46 934.912 141.733 934.857 L 141.733 937.517 C 141.124 937.736 140.428 937.845 139.647 937.845 C 137.162 937.845 135.92 936.579 135.92 934.048 L 135.92 927.509 L 134.127 927.509 L 134.127 924.931 L 135.92 924.931 L 135.92 921.791 L 139.46 921.791 L 139.46 924.931 L 141.592 924.931 L 141.592 927.509 L 139.459 927.509 L 139.459 933.638 C 139.459 934.138 139.557 934.482 139.752 934.669 C 139.947 934.849 140.28 934.939 140.749 934.939 Z M 154.977 932.42 L 146.961 932.42 C 147.094 933.209 147.423 933.837 147.946 934.306 C 148.469 934.767 149.141 934.997 149.961 934.997 C 150.57 934.997 151.133 934.884 151.649 934.657 C 152.172 934.423 152.618 934.076 152.985 933.615 L 154.684 935.572 C 154.239 936.212 153.586 936.751 152.727 937.189 C 151.875 937.626 150.875 937.845 149.727 937.845 C 148.43 937.845 147.301 937.572 146.34 937.025 C 145.387 936.478 144.652 935.736 144.137 934.798 C 143.629 933.861 143.375 932.826 143.375 931.693 L 143.375 931.247 C 143.375 929.982 143.613 928.853 144.09 927.861 C 144.567 926.868 145.254 926.095 146.153 925.541 C 147.051 924.978 148.113 924.697 149.34 924.697 C 150.535 924.697 151.555 924.951 152.399 925.458 C 153.242 925.966 153.883 926.689 154.321 927.626 C 154.758 928.556 154.977 929.654 154.977 930.919 Z M 151.508 929.77 C 151.492 929.083 151.301 928.541 150.934 928.142 C 150.574 927.743 150.035 927.544 149.317 927.544 C 148.645 927.544 148.118 927.767 147.735 928.212 C 147.36 928.657 147.113 929.271 146.996 930.052 L 151.508 930.052 Z M 171.431 924.697 C 172.72 924.697 173.717 925.08 174.42 925.845 C 175.123 926.61 175.474 927.853 175.474 929.572 L 175.474 937.611 L 171.935 937.611 L 171.935 929.56 C 171.935 929.029 171.865 928.619 171.725 928.33 C 171.584 928.033 171.38 927.829 171.115 927.72 C 170.857 927.611 170.529 927.556 170.131 927.556 C 169.654 927.556 169.248 927.673 168.912 927.908 C 168.576 928.135 168.31 928.459 168.115 928.88 C 168.128 928.935 168.135 929.025 168.135 929.15 L 168.135 937.61 L 164.595 937.61 L 164.595 929.595 C 164.595 929.064 164.525 928.65 164.385 928.353 C 164.244 928.056 164.041 927.849 163.775 927.732 C 163.518 927.615 163.186 927.556 162.779 927.556 C 162.326 927.556 161.931 927.657 161.596 927.86 C 161.268 928.055 161.002 928.337 160.799 928.704 L 160.799 937.61 L 157.26 937.61 L 157.26 924.93 L 160.576 924.93 L 160.694 926.349 C 161.116 925.818 161.632 925.411 162.241 925.129 C 162.858 924.84 163.554 924.696 164.327 924.696 C 165.108 924.696 165.78 924.856 166.343 925.176 C 166.913 925.489 167.35 925.97 167.655 926.618 C 168.077 926.001 168.604 925.528 169.237 925.2 C 169.878 924.864 170.612 924.696 171.44 924.696 Z M 189.398 919.61 L 189.398 937.61 L 186.211 937.61 L 186.035 936.251 C 185.206 937.314 184.136 937.845 182.823 937.845 C 181.8 937.845 180.913 937.572 180.163 937.025 C 179.421 936.47 178.855 935.709 178.464 934.74 C 178.081 933.771 177.89 932.665 177.89 931.423 L 177.89 931.177 C 177.89 929.888 178.081 928.755 178.464 927.779 C 178.855 926.802 179.421 926.044 180.164 925.505 C 180.913 924.966 181.808 924.697 182.847 924.697 C 184.05 924.697 185.054 925.154 185.859 926.067 L 185.859 919.611 Z M 183.726 934.986 C 184.718 934.986 185.429 934.564 185.859 933.72 L 185.859 928.822 C 185.452 927.978 184.749 927.556 183.749 927.556 C 182.944 927.556 182.354 927.884 181.979 928.54 C 181.612 929.197 181.429 930.076 181.429 931.177 L 181.429 931.423 C 181.429 932.509 181.609 933.376 181.969 934.025 C 182.336 934.665 182.921 934.985 183.726 934.985 Z" style="line-height:1.25;-inkscape-font-specification:'Heebo Bold';text-align:start" font-weight="700" font-size="12" font-family="Heebo" letter-spacing=".2" word-spacing="0" fill="#201a26"/>
    </g>
  </g>
  <path d="M 105.575 44.218 C 99.144 30.897 84.751 24.159 70.971 26.609 L 74.646 19.719 C 75.564 18.188 74.952 16.197 73.421 15.432 C 71.889 14.513 69.898 15.126 69.133 16.657 L 61.631 30.591 C 61.631 30.591 59.946 33.347 62.55 34.572 L 76.483 42.074 C 76.942 42.381 77.554 42.534 78.014 42.534 C 79.086 42.534 80.311 41.922 80.771 40.849 C 81.689 39.318 81.077 37.328 79.546 36.562 L 72.348 32.581 C 83.221 30.743 94.55 36.256 99.604 46.668 C 105.728 59.377 100.369 74.688 87.661 80.66 C 81.536 83.569 74.646 84.029 68.214 81.731 C 61.783 79.435 56.577 74.841 53.668 68.716 C 50.76 62.592 50.3 55.702 52.596 49.27 C 53.208 47.587 52.29 45.749 50.606 45.137 C 49.075 44.83 47.237 45.749 46.625 47.433 C 43.869 55.549 44.328 64.123 48.003 71.779 C 51.678 79.435 58.108 85.254 66.224 88.163 C 69.746 89.388 73.267 90 76.789 90 C 81.536 90 86.282 88.929 90.569 86.785 C 106.494 79.129 113.231 59.989 105.575 44.218 Z" style="transform-box: fill-box; transform-origin: 50% 50%;"/>
</svg>