<?xml version="1.0" encoding="utf-8"?>
<svg height="100%" style="fill-rule:evenodd;clip-rule:evenodd;stroke-linecap:round;stroke-linejoin:round;" width="100%" version="1.1" viewBox="0 0 150 150" xmlns="http://www.w3.org/2000/svg" xmlns:bx="https://boxy-svg.com">
  <defs>
    <bx:grid x="0" y="0" width="15" height="15"/>
  </defs>
  <rect width="120" height="120" style="fill: none; stroke-width: 0.2px; stroke: rgb(84, 84, 84); pointer-events: none; visibility: hidden;" x="15" y="15"/>
  <path style="fill: rgb(3, 1, 4); stroke-width: 5.931; visibility: hidden;" d="M 75 15 C 47.755 15 25.675 37.08 25.675 64.319 C 25.675 91.558 75 135 75 135 C 75 135 124.325 91.564 124.325 64.325 C 124.325 37.086 102.245 15 75 15 Z M 75.125 94.31 C 57.036 94.31 42.376 79.644 42.376 61.549 C 42.376 43.461 57.042 28.801 75.125 28.801 C 93.219 28.801 107.873 43.467 107.873 61.549 C 107.873 79.638 93.213 94.31 75.125 94.31 Z"/>
  <path style="stroke-width: 5.931; fill: rgb(230, 58, 86);" d="M 75 135 C 75 135 124.325 91.564 124.325 64.325 C 124.325 37.086 102.245 15 75 15 M 75 28.8 C 93.219 28.801 107.873 43.467 107.873 61.549 C 107.873 79.638 93.213 94.31 75 94.3"/>
  <path style="stroke-width: 5.931; transform-box: fill-box; transform-origin: 50% 50%; fill: rgb(255, 89, 89);" d="M 25.675 15 C 25.675 15 75 58.436 75 85.675 C 75 112.914 52.92 135 25.675 135 M 25.675 121.2 C 43.894 121.199 58.548 106.533 58.548 88.451 C 58.548 70.362 43.888 55.69 25.675 55.7" transform="matrix(-1, 0, 0, -1, -0.000002, -0.000004)"/>
  <g>
    <path d="M 75 28.8 C 93.087 28.8 107.75 43.463 107.75 61.55 C 107.75 79.637 93.087 94.3 75 94.3" style="fill: rgb(210, 215, 225);"/>
    <path d="M 42.25 94.3 C 60.337 94.3 75 79.637 75 61.55 C 75 43.463 60.337 28.8 42.25 28.8" style="fill: rgb(243, 245, 249); transform-box: fill-box; transform-origin: 50% 50%;" transform="matrix(-1, 0, 0, -1, 0.000009, -0.000004)"/>
  </g>
  <path d="M 63.359 71.807 L 63.359 49.249 Q 63.359 47.491 64.16 46.612 Q 64.961 45.733 66.23 45.733 Q 67.539 45.733 68.35 46.602 Q 69.16 47.471 69.16 49.249 L 69.16 71.807 Q 69.16 73.584 68.35 74.463 Q 67.539 75.342 66.23 75.342 Q 64.98 75.342 64.17 74.454 Q 63.359 73.565 63.359 71.807 Z M 86.757 63.702 L 81.445 63.702 L 81.445 71.807 Q 81.445 73.545 80.625 74.444 Q 79.804 75.342 78.554 75.342 Q 77.246 75.342 76.445 74.454 Q 75.644 73.565 75.644 71.846 L 75.644 49.776 Q 75.644 47.862 76.523 47.042 Q 77.402 46.221 79.316 46.221 L 86.757 46.221 Q 90.058 46.221 91.835 46.729 Q 93.593 47.217 94.873 48.35 Q 96.152 49.483 96.816 51.124 Q 97.48 52.764 97.48 54.815 Q 97.48 59.19 94.785 61.446 Q 92.089 63.702 86.757 63.702 Z M 85.351 50.577 L 81.445 50.577 L 81.445 59.327 L 85.351 59.327 Q 87.402 59.327 88.779 58.897 Q 90.156 58.467 90.878 57.491 Q 91.601 56.514 91.601 54.932 Q 91.601 53.038 90.488 51.846 Q 89.238 50.577 85.351 50.577 Z" transform="matrix(0.975318, 0, 0, 1.119983, -0.635458, -5.823901)" style="fill: rgb(51, 51, 51); text-wrap-mode: nowrap;"/>
</svg>