<?xml version="1.0" encoding="utf-8"?>
<svg height="100%" style="fill-rule:evenodd;clip-rule:evenodd;stroke-linecap:round;stroke-linejoin:round;" width="100%" version="1.1" viewBox="0 0 150 150" xmlns="http://www.w3.org/2000/svg" xmlns:bx="https://boxy-svg.com">
  <defs>
    <bx:grid x="0" y="0" width="15" height="15"/>
    <linearGradient id="a" x1="6.5" y1="214.85" x2="893.04" y2="214.85" gradientUnits="userSpaceOnUse" gradientTransform="matrix(1, 0, 0, 1, 0, 0)">
      <stop offset="0" stop-color="#3d3f43"/>
      <stop offset="0.01" stop-color="#414347"/>
      <stop offset="0.02" stop-color="#4d4f53"/>
      <stop offset="0.03" stop-color="#616367"/>
      <stop offset="0.04" stop-color="#7d7e82"/>
      <stop offset="0.05" stop-color="#939498"/>
      <stop offset="0.06" stop-color="#a6a7ab"/>
      <stop offset="0.07" stop-color="#adaeb3"/>
      <stop offset="0.1" stop-color="#84858a"/>
      <stop offset="0.11" stop-color="#7a7b80"/>
      <stop offset="0.14" stop-color="#6d6e73"/>
      <stop offset="0.16" stop-color="#68696e"/>
      <stop offset="0.18" stop-color="#65666b"/>
      <stop offset="0.27" stop-color="#5f6064"/>
      <stop offset="0.5" stop-color="#5d5e62"/>
      <stop offset="0.73" stop-color="#5f6064"/>
      <stop offset="0.82" stop-color="#65666b"/>
      <stop offset="0.84" stop-color="#68696e"/>
      <stop offset="0.86" stop-color="#6d6e73"/>
      <stop offset="0.89" stop-color="#7a7b80"/>
      <stop offset="0.9" stop-color="#84858a"/>
      <stop offset="0.93" stop-color="#adaeb3"/>
      <stop offset="0.94" stop-color="#a6a7ab"/>
      <stop offset="0.95" stop-color="#939498"/>
      <stop offset="0.96" stop-color="#7d7e82"/>
      <stop offset="0.97" stop-color="#616367"/>
      <stop offset="0.98" stop-color="#4d4f53"/>
      <stop offset="0.99" stop-color="#414347"/>
      <stop offset="1" stop-color="#3d3f43"/>
    </linearGradient>
    <radialGradient id="b" cx="736.98" cy="269.67" r="4.33" gradientUnits="userSpaceOnUse" gradientTransform="matrix(1, 0, 0, 1, 0, 0)">
      <stop offset="0.66" stop-color="#fff"/>
      <stop offset="0.69" stop-color="#fff" stop-opacity="0.97"/>
      <stop offset="0.73" stop-color="#fff" stop-opacity="0.9"/>
      <stop offset="0.78" stop-color="#fff" stop-opacity="0.77"/>
      <stop offset="0.84" stop-color="#fff" stop-opacity="0.6"/>
      <stop offset="0.91" stop-color="#fff" stop-opacity="0.38"/>
      <stop offset="0.97" stop-color="#fff" stop-opacity="0.11"/>
      <stop offset="1" stop-color="#fff" stop-opacity="0"/>
    </radialGradient>
    <radialGradient id="c" cx="449.77" cy="78.5" r="443.77" gradientTransform="matrix(1, 0, 0, 0.48, 0, 41.200001)" gradientUnits="userSpaceOnUse">
      <stop offset="0" stop-color="#88898e"/>
      <stop offset="0.52" stop-color="#797a7f"/>
      <stop offset="1" stop-color="#68696d"/>
    </radialGradient>
    <linearGradient id="d" x1="452.37" y1="86.2" x2="452.37" y2="44.38" gradientUnits="userSpaceOnUse" gradientTransform="matrix(1, 0, 0, 1, 0, 0)">
      <stop offset="0" stop-color="#3a3c40"/>
      <stop offset="0.32" stop-color="#2c2d31"/>
      <stop offset="0.93" stop-color="#070709"/>
      <stop offset="1" stop-color="#020204"/>
    </linearGradient>
  </defs>
  <rect width="120" height="120" style="fill: none; stroke-width: 0.2px; stroke: rgb(84, 84, 84); pointer-events: none; visibility: hidden;" x="15" y="15" bx:origin="0.5 0.5"/>
  <g transform="matrix(0.125297, 0, 0, 0.125297, 18.618851, 96.032623)" style="">
    <path class="a" d="M 6.5 130.21 L 6.5 266.52 C 6.495 266.563 6.495 266.607 6.5 266.65 C 6.5 266.79 6.5 266.93 6.5 267.07 L 6.5 267.6 L 6.56 268.07 C 6.56 268.23 6.56 268.39 6.63 268.54 L 6.72 269.04 C 6.72 269.18 6.79 269.33 6.82 269.47 L 7 270 L 7.12 270.38 C 7.18 270.57 7.25 270.75 7.32 270.94 L 7.45 271.25 C 7.53 271.45 7.62 271.65 7.71 271.86 L 7.81 272.05 C 8.382 273.192 9.087 274.263 9.91 275.24 C 10.11 275.49 10.32 275.72 10.54 275.96 L 10.65 276.08 C 10.86 276.31 11.08 276.53 11.31 276.75 L 11.46 276.91 L 12.15 277.55 C 12.218 277.601 12.281 277.658 12.34 277.72 L 13.08 278.34 L 13.29 278.51 L 14.08 279.13 L 14.28 279.27 C 14.57 279.48 14.86 279.7 15.16 279.9 L 15.31 280 C 17.168 281.26 19.113 282.386 21.13 283.37 L 21.45 283.52 L 22.45 284 L 22.96 284.24 L 23.96 284.66 L 24.59 284.94 L 25.52 285.33 L 26.27 285.63 L 27.17 285.98 L 28.03 286.31 L 28.9 286.63 L 29.9 286.98 L 30.7 287.26 L 31.92 287.67 L 32.57 287.89 L 34.28 288.42 L 34.51 288.49 C 36.57 289.117 38.74 289.72 41.02 290.3 L 41.21 290.3 L 43.33 290.82 L 43.58 290.88 L 45.72 291.37 L 45.98 291.43 L 48.21 291.92 L 48.42 291.92 L 50.83 292.41 L 50.9 292.41 C 65.56 295.31 83.65 297.41 104.9 298.47 L 105.26 298.47 L 108.53 298.63 L 109.24 298.63 L 112.24 298.76 L 113.24 298.76 L 116.01 298.86 L 117.14 298.86 L 119.83 298.95 L 121.05 298.95 L 123.7 299.02 L 125.01 299.02 L 127.64 299.07 L 129.01 299.07 L 131.81 299.07 L 133.02 299.07 L 137.02 299.07 L 137 299.07 C 138.58 299.07 140.16 299.07 141.75 299.07 L 757.75 299.07 C 759.34 299.07 760.93 299.07 762.51 299.07 L 762.58 299.07 L 766.58 299.07 L 767.79 299.07 L 770.59 299.07 L 771.96 299.07 L 774.59 299.02 L 775.9 299.02 L 778.55 298.95 L 779.77 298.95 L 782.46 298.86 L 783.59 298.86 L 786.36 298.76 L 787.36 298.76 L 790.36 298.63 L 791.07 298.63 L 794.34 298.47 L 794.7 298.47 C 815.93 297.38 834.02 295.31 848.7 292.41 L 848.78 292.41 L 851.19 291.92 L 851.4 291.92 L 853.63 291.43 L 853.89 291.37 L 856.03 290.88 L 856.28 290.82 L 858.4 290.3 L 858.59 290.3 C 860.87 289.72 863.04 289.117 865.1 288.49 L 865.33 288.42 L 867.04 287.89 L 867.69 287.67 L 868.91 287.26 L 869.71 286.98 L 870.71 286.63 L 871.58 286.31 L 872.44 285.98 L 873.34 285.63 L 874.09 285.33 L 875.02 284.94 L 875.65 284.66 L 876.65 284.24 L 877.16 284 L 878.16 283.52 L 878.47 283.37 C 880.456 282.382 882.371 281.256 884.2 280 L 884.35 279.9 C 884.65 279.7 884.94 279.48 885.23 279.27 L 885.43 279.13 L 886.22 278.51 L 886.43 278.34 L 887.17 277.72 C 887.229 277.658 887.292 277.601 887.36 277.55 L 888.05 276.91 L 888.21 276.75 C 888.43 276.53 888.65 276.31 888.86 276.08 L 889 276 C 889.22 275.76 889.43 275.53 889.63 275.28 C 890.448 274.303 891.153 273.236 891.73 272.1 L 891.83 271.9 C 891.92 271.7 892.01 271.49 892.09 271.29 C 892.17 271.09 892.18 271.08 892.22 270.98 C 892.26 270.88 892.36 270.61 892.42 270.42 L 892.54 270.04 L 892.69 269.52 C 892.69 269.38 892.76 269.23 892.79 269.09 L 892.88 268.59 C 892.88 268.44 892.88 268.28 892.95 268.12 L 893.01 267.65 L 893.01 267.12 C 893.01 266.98 893.01 266.84 893.01 266.7 L 893.01 130.21" style="fill: url(#a);"/>
    <circle class="b" cx="736.98" cy="269.67" r="4.33" style="fill: url(#b);"/>
    <path class="c" d="M 821.33 21.2 C 821.139 20.928 820.932 20.668 820.71 20.42 C 810.47 7.81 761.33 0.3 691 0 L 208.55 0 C 137.77 0.3 89 7.89 78.83 20.42 C 78.608 20.665 78.404 20.926 78.22 21.2 L 8.56 124.36 C 8.319 124.71 8.105 125.077 7.92 125.46 C -2.63 144.3 46.27 156.49 137 157 L 142.49 157 L 757.05 157 L 762.56 157 C 853.83 156.51 902.11 144.2 891.62 125.47 C 891.433 125.094 891.222 124.73 890.99 124.38 L 821.33 21.2 Z" style="fill: url(#c);"/>
    <path class="d" d="M 539.53 76.56 C 535.939 78.267 532.208 79.665 528.38 80.74 C 523.523 82.23 518.59 83.455 513.6 84.41 C 507.172 85.575 500.652 86.157 494.12 86.15 C 489.12 86.15 483 85.86 475.92 85.28 C 468.84 84.7 462.32 84.41 456.39 84.41 C 450.163 84.41 443.473 84.7 436.32 85.28 C 429.167 85.86 423.367 86.163 418.92 86.19 C 412.211 86.257 405.512 85.661 398.92 84.41 C 393.678 83.414 388.491 82.146 383.38 80.61 C 377.822 79.142 372.485 76.939 367.51 74.06 C 363.25 71.393 361.303 68.85 361.67 66.43 C 362.083 63.657 365.497 61.287 371.91 59.32 C 378.317 57.472 384.882 56.227 391.52 55.6 C 400.129 54.67 408.781 54.206 417.44 54.21 C 422.51 54.21 429.13 54.51 437.37 55.1 C 445.61 55.69 450.9 55.99 453.22 55.99 C 454.96 55.99 460.83 55.64 470.78 54.94 C 480.16 54.3 488.08 54.03 494.59 54.13 C 512.23 54.397 525.64 55.73 534.82 58.13 C 519.22 60 511.62 62.59 512.13 66 C 512.55 68.667 517.773 70.89 527.8 72.67 C 532.37 73.5 537.44 74.15 543.06 74.61 C 541.96 75.29 540.79 75.95 539.53 76.61 L 539.53 76.56 Z M 495.11 45.16 C 495.257 47.12 491.563 48.96 484.03 50.68 C 473.328 52.953 462.398 53.98 451.46 53.74 C 451.302 53.514 451.214 53.246 451.21 52.97 C 451.21 51.05 455.59 48.97 463.34 47.35 C 468.182 46.373 473.077 45.679 478 45.27 C 483.92 44.73 489.52 44.433 494.8 44.38 C 494.959 44.612 495.055 44.88 495.08 45.16 L 495.11 45.16 Z" style="fill: url(#d);"/>
  </g>
  <path class="text" fill="#000000" d="M 59.534 46.876 L 59.534 45.135 L 57.916 45.135 L 57.916 46.876 L 57.129 46.876 L 57.129 42.697 L 57.943 42.697 L 57.943 44.451 L 59.56 44.451 L 59.56 42.697 L 60.374 42.697 L 60.374 46.876 L 59.534 46.876 Z M 63.309 46.876 L 62.661 46.876 L 62.602 46.672 C 62.328 46.849 62.011 46.945 61.685 46.953 C 61.113 46.953 60.865 46.574 60.865 46.058 C 60.865 45.442 61.141 45.21 61.782 45.21 L 62.538 45.21 L 62.538 44.876 C 62.538 44.541 62.441 44.423 61.939 44.423 C 61.647 44.426 61.356 44.456 61.071 44.515 L 60.973 43.938 C 61.326 43.845 61.688 43.798 62.053 43.798 C 63.038 43.798 63.33 44.131 63.33 44.876 L 63.309 46.876 Z M 62.538 45.739 L 61.955 45.739 C 61.696 45.739 61.626 45.809 61.626 46.036 C 61.626 46.262 61.696 46.337 61.944 46.337 C 62.151 46.335 62.356 46.281 62.538 46.181 L 62.538 45.739 Z M 64.969 46.953 C 64.603 46.946 64.241 46.888 63.891 46.78 L 63.998 46.203 C 64.303 46.285 64.617 46.329 64.932 46.332 C 65.283 46.332 65.331 46.256 65.331 46.03 C 65.331 45.804 65.293 45.749 64.792 45.637 C 64.026 45.458 63.934 45.269 63.934 44.688 C 63.934 44.105 64.209 43.813 65.11 43.813 C 65.427 43.814 65.744 43.851 66.053 43.921 L 65.962 44.504 C 65.676 44.453 65.388 44.425 65.099 44.418 C 64.759 44.418 64.7 44.493 64.7 44.677 C 64.7 44.859 64.7 44.936 65.142 45.043 C 66.021 45.264 66.101 45.377 66.101 45.997 C 66.101 46.618 65.919 46.953 64.969 46.953 Z M 68.572 46.893 L 68.572 44.795 C 68.572 44.633 68.502 44.552 68.319 44.552 C 68.032 44.579 67.754 44.662 67.499 44.795 L 67.499 46.876 L 66.717 46.876 L 66.717 42.638 L 67.504 42.757 L 67.504 44.089 C 67.863 43.912 68.254 43.813 68.653 43.798 C 69.192 43.798 69.365 44.148 69.365 44.688 L 69.365 46.876 L 68.572 46.893 Z M 70.006 43.436 L 70.006 42.697 L 70.793 42.697 L 70.793 43.436 L 70.006 43.436 Z M 70.006 46.876 L 70.006 43.862 L 70.793 43.862 L 70.793 46.876 L 70.006 46.876 Z M 71.419 43.888 C 71.419 43.134 71.878 42.691 72.945 42.691 C 73.337 42.691 73.729 42.737 74.11 42.827 L 74.018 43.5 C 73.671 43.436 73.319 43.4 72.967 43.393 C 72.428 43.393 72.228 43.576 72.228 44.019 L 72.228 45.604 C 72.228 46.041 72.406 46.229 72.967 46.229 C 73.319 46.222 73.671 46.186 74.018 46.122 L 74.11 46.795 C 73.729 46.886 73.337 46.931 72.945 46.931 C 71.867 46.931 71.419 46.494 71.419 45.734 L 71.419 43.888 Z M 75.862 46.953 C 74.785 46.953 74.498 46.381 74.498 45.766 L 74.498 44.989 C 74.498 44.37 74.79 43.803 75.862 43.803 C 76.936 43.803 77.227 44.374 77.227 44.989 L 77.227 45.749 C 77.232 46.37 76.942 46.953 75.862 46.953 Z M 75.862 44.455 C 75.443 44.455 75.281 44.633 75.281 44.995 L 75.281 45.804 C 75.281 46.144 75.443 46.343 75.862 46.343 C 76.283 46.343 76.445 46.165 76.445 45.804 L 76.445 44.962 C 76.445 44.622 76.283 44.445 75.862 44.445 L 75.862 44.455 Z M 79.444 44.504 C 79.156 44.629 78.879 44.774 78.613 44.94 L 78.613 46.882 L 77.826 46.882 L 77.826 43.862 L 78.489 43.862 L 78.543 44.197 C 78.801 44.031 79.078 43.898 79.368 43.803 L 79.444 44.504 Z M 82.593 45.874 C 82.695 46.489 82.176 47.03 81.558 46.953 C 81.277 46.95 80.997 46.92 80.722 46.867 L 80.722 48.084 L 79.935 48.203 L 79.935 43.888 L 80.56 43.888 L 80.635 44.142 C 80.925 43.935 81.271 43.824 81.628 43.824 C 82.259 43.824 82.593 44.186 82.593 44.87 L 82.593 45.874 Z M 80.716 46.214 C 80.945 46.263 81.178 46.291 81.411 46.295 C 81.698 46.295 81.806 46.165 81.806 45.89 L 81.806 44.811 C 81.806 44.563 81.709 44.429 81.417 44.429 C 81.159 44.438 80.912 44.534 80.716 44.703 L 80.716 46.214 Z M 68.863 50.242 L 72.255 50.242 L 67.1 67.499 L 62.284 67.499 L 57.129 50.242 L 60.521 50.242 L 64.689 64.618 L 68.863 50.242 Z M 81.687 67.499 L 79.098 67.499 L 78.867 66.641 C 77.744 67.372 76.431 67.76 75.092 67.758 C 72.783 67.758 71.803 66.177 71.803 63.982 C 71.803 61.415 72.919 60.434 75.48 60.434 L 78.51 60.434 L 78.51 59.13 C 78.51 57.733 78.122 57.236 76.1 57.236 C 74.923 57.249 73.751 57.379 72.601 57.624 L 72.213 55.214 C 73.618 54.824 75.069 54.623 76.526 54.615 C 80.49 54.615 81.654 56.012 81.654 59.178 L 81.687 67.499 Z M 78.527 62.732 L 76.197 62.732 C 75.162 62.732 74.877 63.017 74.877 63.977 C 74.877 64.936 75.162 65.245 76.144 65.245 C 76.98 65.233 77.8 65.01 78.527 64.598 L 78.527 62.732 Z M 87.721 64.101 C 87.322 64.295 87.043 64.672 86.973 65.109 C 86.973 65.444 87.177 65.6 87.673 65.649 C 89.07 65.806 89.83 65.881 91.324 66.037 C 93.373 66.269 94.02 67.282 94.02 69.095 C 94.02 71.791 93.033 72.87 88.32 72.87 C 86.681 72.871 85.049 72.654 83.467 72.223 L 83.855 69.866 C 85.244 70.219 86.671 70.4 88.105 70.406 C 90.617 70.406 91.108 70.222 91.108 69.397 C 91.108 68.571 90.876 68.49 89.916 68.389 C 88.466 68.233 87.867 68.157 86.265 67.973 C 84.48 67.768 83.779 67.17 83.779 65.563 C 83.834 64.669 84.329 63.86 85.101 63.405 C 83.936 62.704 83.391 61.54 83.391 60.014 L 83.391 58.816 C 83.445 56.201 84.814 54.62 88.471 54.62 C 89.198 54.615 89.923 54.702 90.628 54.879 L 94.516 54.879 L 94.516 56.46 C 94.074 56.589 93.557 56.718 93.119 56.848 C 93.421 57.46 93.572 58.134 93.562 58.816 L 93.562 60.009 C 93.562 62.575 92.009 64.129 88.482 64.129 C 88.229 64.134 87.975 64.125 87.721 64.101 Z M 88.444 57.155 C 86.892 57.155 86.346 57.727 86.346 58.919 L 86.346 59.895 C 86.346 61.141 86.967 61.605 88.444 61.605 C 89.922 61.605 90.569 61.114 90.569 59.895 L 90.569 58.919 C 90.574 57.738 90.03 57.161 88.449 57.161 L 88.444 57.155 Z M 102.411 57.521 C 101.253 58.047 100.138 58.659 99.073 59.356 L 99.073 67.499 L 95.892 67.499 L 95.892 54.879 L 98.589 54.879 L 98.793 56.276 C 99.821 55.581 100.936 55.025 102.11 54.62 L 102.411 57.521 Z M 112.981 67.499 L 110.393 67.499 L 110.161 66.641 C 109.038 67.372 107.726 67.76 106.386 67.758 C 104.077 67.758 103.097 66.177 103.097 63.982 C 103.097 61.415 104.213 60.434 106.774 60.434 L 109.804 60.434 L 109.804 59.13 C 109.804 57.733 109.416 57.236 107.394 57.236 C 106.218 57.249 105.045 57.379 103.895 57.624 L 103.507 55.214 C 104.912 54.824 106.363 54.623 107.82 54.615 C 111.784 54.615 112.948 56.012 112.948 59.178 L 112.981 67.499 Z M 109.821 62.732 L 107.491 62.732 C 106.456 62.732 106.17 63.017 106.17 63.977 C 106.17 64.936 106.456 65.245 107.438 65.245 C 108.274 65.233 109.094 65.01 109.821 64.598 L 109.821 62.732 Z M 122.386 67.499 L 122.386 58.687 C 122.386 58.012 122.101 57.678 121.378 57.678 C 120.219 57.815 119.102 58.181 118.089 58.757 L 118.089 67.499 L 114.928 67.499 L 114.928 54.879 L 117.339 54.879 L 117.651 55.958 C 119.225 55.171 120.946 54.72 122.704 54.637 C 124.802 54.637 125.552 56.115 125.552 58.369 L 125.552 67.536 L 122.386 67.499 Z M 134.849 67.262 C 133.958 67.573 133.021 67.739 132.077 67.753 C 129.769 67.753 128.604 66.674 128.604 64.409 L 128.604 57.398 L 126.712 57.398 L 126.712 54.879 L 128.604 54.879 L 128.604 51.746 L 131.764 51.305 L 131.764 54.879 L 135 54.879 L 134.796 57.393 L 131.764 57.393 L 131.764 63.999 C 131.678 64.657 132.245 65.213 132.902 65.115 C 133.438 65.098 133.969 65.012 134.482 64.856 L 134.849 67.262 Z" style=""/>
  <path class="front" fill="var(--brand, #2e71e5)" d="M 46.294 48.095 L 46.294 45.135 L 39.181 49.271 L 39.181 51.774 L 33.492 64.048 L 30.644 66.01 L 30.644 75 L 36.743 71.484 L 46.294 48.095 Z M 30.644 59.61 L 26.379 49.649 L 26.379 46.834 L 26.351 46.823 L 22.113 49.271 L 22.113 51.774 L 27.802 64.587 L 30.644 63.179 L 30.644 59.61 Z" style=""/>
  <path class="shadow" fill="#104EB2" d="M 42.029 42.643 L 34.921 46.806 L 34.915 46.806 L 34.915 49.649 L 30.644 59.61 L 30.644 62.936 L 27.802 64.587 L 22.113 51.774 L 22.113 49.266 L 26.384 46.812 L 19.266 42.643 L 15 45.135 L 15 48.187 L 24.605 71.511 L 30.644 75 L 30.644 66.236 L 33.492 64.587 L 33.454 64.565 L 39.181 51.774 L 39.181 49.266 L 46.294 45.135 L 42.029 42.643 Z" style=""/>
</svg>