<?xml version="1.0" encoding="utf-8"?>
<svg height="100%" style="fill-rule:evenodd;clip-rule:evenodd;stroke-linecap:round;stroke-linejoin:round;" width="100%" version="1.1" viewBox="0 0 150 150" xmlns="http://www.w3.org/2000/svg" xmlns:bx="https://boxy-svg.com">
  <defs>
    <bx:grid x="0" y="0" width="15" height="15"/>
  </defs>
  <rect x="15" y="15" width="120" height="120" style="fill: none; stroke: rgb(2, 2, 2); visibility: hidden;"/>
  <rect width="120" height="120" style="fill: none; stroke-width: 0.2px; stroke: rgb(84, 84, 84); pointer-events: none; visibility: hidden;" x="15" y="15" bx:origin="0.5 0.5"/>
  <g id="Page-1" stroke="none" stroke-width="1" fill="none" fill-rule="evenodd" transform="matrix(0.406386, -0.013187, 0.013187, 0.406386, 52.045856, 36.838257)" style="">
    <title>Git</title>
    <g id="logo-git">
      <path d="M89.8846154,21.8714286 C86.5961538,21.8714286 84.1472527,23.4862088 84.1472527,27.3725275 C84.1472527,30.3006044 85.7612637,32.3331868 89.7076923,32.3331868 C93.0524725,32.3331868 95.3241758,30.3623626 95.3241758,27.2515934 C95.3241758,23.7263187 93.2912088,21.8716484 89.8846154,21.8716484 L89.8846154,21.8714286 Z M83.3076923,49.310989 C82.5295604,50.266044 81.7541209,51.2807692 81.7541209,52.4783516 C81.7541209,54.8674725 84.8008242,55.5864835 88.985989,55.5864835 C92.453022,55.5864835 97.1755495,55.3436923 97.1755495,52.1202747 C97.1755495,50.2043956 94.9035714,50.0857692 92.0326923,49.9057692 L83.3074176,49.310989 L83.3076923,49.310989 Z M101.000549,22.0521978 C102.074725,23.4274176 103.212088,25.3405495 103.212088,28.0901099 C103.212088,34.7247253 98.0115385,38.6098901 90.4818681,38.6098901 C88.567033,38.6098901 86.8335165,38.3713626 85.7586813,38.073011 L83.7854945,41.2404835 L89.6426374,41.5983132 C99.9843956,42.2572143 106.079451,42.5566648 106.079451,50.5038077 C106.079451,57.3796319 100.043736,61.2625989 89.6426374,61.2625989 C78.823956,61.2625989 74.6997802,58.5126538 74.6997802,53.7911703 C74.6997802,51.1002363 75.8954945,49.6689176 77.9875824,47.6933681 C76.0143956,46.8593022 75.3578022,45.3657857 75.3578022,43.7511703 C75.3578022,42.4352363 76.0143956,41.2400714 77.091978,40.1035879 C78.1675275,38.9689725 79.3625824,37.8317198 80.7973626,36.5171044 C77.8687912,35.0828187 75.6565934,31.974467 75.6565934,27.5506209 C75.6565934,20.677544 80.1998901,15.9572143 89.3434066,15.9572143 C91.9141758,15.9572143 93.4691209,16.1938187 94.843956,16.5546868 L106.500549,16.5546868 L106.500549,21.6341374 L101.000549,22.0526813 L101.000549,22.0521978 Z" id="Shape" fill="#413000" fill-rule="nonzero"/>
      <path d="M117.021978,11.1901099 C113.614011,11.1901099 111.642198,9.21582418 111.642198,5.80747253 C111.642198,2.40340659 113.614066,0.549010989 117.021978,0.549010989 C120.489011,0.549010989 122.461538,2.40340659 122.461538,5.80747253 C122.461538,9.21576923 120.489011,11.1901099 117.021978,11.1901099 Z M109.30989,47.110989 L109.30989,42.3912637 L112.359341,41.9740934 C113.196593,41.8528022 113.315385,41.6749176 113.315385,40.7761813 L113.315385,23.2031044 C113.315385,22.5469505 113.136813,22.1267308 112.537253,21.9488187 L109.30989,20.8121154 L109.967143,15.9722253 L122.341319,15.9722253 L122.341319,40.7766209 C122.341319,41.7347527 122.399011,41.8532692 123.298022,41.974533 L126.346813,42.3917033 L126.346813,47.1114286 L109.309451,47.1114286 L109.30989,47.110989 Z" id="Shape" fill="#413000" fill-rule="nonzero"/>
      <path d="M149.983516,44.7945055 C147.412088,46.0482418 143.647253,47.1841209 140.238462,47.1841209 C133.125824,47.1841209 130.436813,44.3177473 130.436813,37.5604945 L130.436813,21.9011538 C130.436813,21.5432527 130.436813,21.3031319 129.956731,21.3031319 L125.773324,21.3031319 L125.773324,15.9835714 C131.034973,15.3842308 133.125522,12.7536813 133.783214,6.23851648 L139.462335,6.23851648 L139.462335,14.7291758 C139.462335,15.1460714 139.462335,15.3266484 139.941044,15.3266484 L148.368516,15.3266484 L148.368516,21.303022 L139.462473,21.303022 L139.462473,35.5881868 C139.462473,39.1153297 140.300385,40.488956 143.526319,40.488956 C145.202143,40.488956 146.933571,40.0717857 148.368352,39.5333516 L149.983736,44.7949451" id="Path" fill="#413000"/>
      <path d="M61.4175824,29.1082418 L34.0851648,1.77917582 C32.5125275,0.20510989 29.9597802,0.20510989 28.3851648,1.77917582 L22.7098901,7.455 L29.9087912,14.6539011 C31.5823626,14.0888462 33.5006044,14.4677033 34.834011,15.8013736 C36.1743407,17.1433516 36.5504945,19.077967 35.9712637,20.7571429 L42.9097253,27.6956044 C44.5883516,27.1171429 46.5251099,27.4908681 47.8654945,28.8336264 C49.7394505,30.707033 49.7394505,33.7426923 47.8654945,35.6165934 C45.9912637,37.4910989 42.9556044,37.4910989 41.0803297,35.6165934 C39.6712637,34.2064286 39.3227473,32.1360989 40.0364286,30.4 L33.5655495,23.9291209 L33.565,40.9571429 C34.0218681,41.1833077 34.453022,41.4851648 34.8337363,41.8642308 C36.7071429,43.7374176 36.7071429,46.7725275 34.8337363,48.6488462 C32.9597802,50.521978 29.9227473,50.521978 28.0507692,48.6488462 C26.1770879,46.7726923 26.1770879,43.7375824 28.0507692,41.8642308 C28.5138187,41.4020055 29.0496154,41.0521429 29.6213187,40.8176374 L29.6213187,23.6313736 C29.0493407,23.3978571 28.5141758,23.0506044 28.0504396,22.5846703 C26.6312088,21.1665385 26.2893956,19.0835714 27.0172527,17.3407692 L19.9205495,10.242967 L1.18098901,28.981978 C-0.393571429,30.5572527 -0.393571429,33.11 1.18098901,34.6841758 L28.5117582,62.0132967 C30.0852747,63.5873626 32.6371429,63.5873626 34.2128571,62.0132967 L61.4172527,34.8132967 C62.9913187,33.2384615 62.9913187,30.6849451 61.4172527,29.1105495" id="Path" fill="#F05133"/>
    </g>
  </g>
  <g style="" transform="matrix(0.70688, -0.046346, 0.081759, 0.745703, 19.657516, 12.369809)">
    <title>Texto</title>
    <path d="M 21.658 78.629 C 24.987 80.552 28.575 83.615 32.978 82.756 C 37.298 81.913 42.356 78.988 46.881 79.724 C 51.719 80.51 57.321 82.662 62.319 81.829 C 66.652 81.107 70.715 78.638 75.201 79.093 C 82.083 79.792 89.607 82.649 96.621 81.629 C 99.619 81.193 102.135 80.014 105.001 79.298 C 112.525 77.417 120.08 83.723 127.464 80.031" style="stroke: rgb(0, 0, 0); fill: none;"/>
    <path d="M 21.112 96.092 C 24.441 94.169 28.029 91.106 32.432 91.965 C 36.752 92.808 41.81 95.733 46.335 94.997 C 51.173 94.211 56.775 92.059 61.773 92.892 C 66.106 93.614 70.169 96.083 74.655 95.628 C 81.537 94.929 89.061 92.072 96.075 93.092 C 99.073 93.528 101.589 94.707 104.455 95.423 C 111.979 97.304 119.534 90.998 126.918 94.69" style="stroke: rgb(0, 0, 0); fill: none;" transform="matrix(-1, 0, 0, -1, 148.029999, 187.908424)"/>
    <path d="M 21.435 118.187 C 24.764 120.11 28.352 123.173 32.755 122.314 C 37.075 121.471 42.133 118.546 46.658 119.282 C 51.496 120.068 57.098 122.22 62.096 121.387 C 66.429 120.665 70.492 118.196 74.978 118.651 C 81.86 119.35 89.384 122.207 96.398 121.187 C 99.396 120.751 101.912 119.572 104.778 118.856 C 112.302 116.975 119.857 123.281 127.241 119.589" style="stroke: rgb(0, 0, 0); fill: none;" transform="matrix(-1, 0, 0, -1, 148.675999, 240.649574)"/>
    <path d="M 21.981 109.276 C 25.31 107.353 28.898 104.29 33.301 105.149 C 37.621 105.992 42.679 108.917 47.204 108.181 C 52.042 107.395 57.644 105.243 62.642 106.076 C 66.975 106.798 71.038 109.267 75.524 108.812 C 82.406 108.113 89.93 105.256 96.944 106.276 C 99.942 106.712 102.458 107.891 105.324 108.607 C 112.848 110.488 120.403 104.182 127.787 107.874" style="stroke: rgb(0, 0, 0); fill: none;"/>
  </g>
  <g transform="matrix(0.18546, 0, 0, 0.18546, 23.071194, -60.178104)" style="">
    <g transform="translate(.000014172 .000022107)">
      <path opacity="0.98" style="color-rendering:auto;color:#000000;isolation:auto;mix-blend-mode:normal;shape-rendering:auto;solid-color:#000000;image-rendering:auto" d="m280 405.36 280 162.03v323.32l-280 161.69-280-161.7-0.0000055092-323.41z" fill="#8f0000"/>
      <path d="m278.57 1019.5-28.122-14.758-219.32-239.19 3.8673-12.478h107.86l19.715-65.534 17.337 24.866 57.948-65.047 47.857-12.857 2.1429 33.571 33.571 3.5714 33.571 0.7143 87.143 2.1428 14.96-70.328 74.709 87.705-2.0935 65.238-115.11 0.0298-1.9844 60.416 120.23 12.653 1.4251 42.694z" fill-opacity=".19898" fill-rule="evenodd"/>
      <path opacity="0.98" style="color-rendering:auto;text-decoration-color:#000000;color:#000000;isolation:auto;mix-blend-mode:normal;shape-rendering:auto;solid-color:#000000;block-progression:tb;text-decoration-line:none;text-decoration-style:solid;image-rendering:auto;white-space:normal;text-indent:0;text-transform:none" d="m21.75 766.85v108.15c-0.000146 1.7862 0.95284 3.4368 2.5 4.3301l253.25 145.97c1.5471 0.8927 3.4529 0.8927 5 0l252.86-145.98c1.5472-0.8933 2.6427-2.5439 2.6426-4.3301v-35.361-22.285-50.504-22.281-161.46c0.00015-1.7862-1.0954-3.4368-2.6426-4.3301l-252.86-145.95c-0.72594-0.41802-1.5453-0.64704-2.3828-0.66602-0.91698-0.0221-1.8224 0.20827-2.6172 0.66602l-253.25 145.95c-1.5472 0.8933-2.5001 2.5439-2.5 4.3301v88.68 20.795 51.99zm258.25-323.93l248 143.06v158.38h-99.357c-17.583 0-32.643 14.683-32.643 32.267v4.3203c-59.713-0.44167-77.52-15.896-99.729-35.316-18.46-16.144-41.584-33.808-88.092-41.188 8.6712-8.6968 13.887-18.575 18.533-27.002 4.9936-9.0548 9.5102-16.227 16.734-21.184 5.6262-3.8616 15.231-6.1887 27.666-6.9277v4.0606c0 17.583 13.655 31.97 31.238 31.97h127.3c17.583 0 33.352-14.386 33.352-31.97v-31.279c0-17.583-15.706-31.75-33.289-31.75l-127.3-0.002c-17.583 0-31.301 14.167-31.301 31.75v5.7031c-16.445 0.81071-30.442 4.0316-39.949 10.557-11.762 8.0728-18.195 19.038-23.461 28.586-5.2657 9.5484-9.5828 17.764-15.855 23.518-5.3491 4.9052-12.841 8.2718-25.018 9.8086-1.5749-16.163-15.629-27.827-32.172-27.921h-102.66v-86.38zm22.414 169.44h127.3c5.9367 0 10.289 3.8124 10.289 9.7492v31.279c0 5.9367-4.415 9.9717-10.352 9.9716h-127.3c-5.9367 0-10.766-4.035-10.766-9.9716v-31.279c0-5.9367 4.8916-9.7492 10.828-9.7492zm-270.41 80h102.65c5.9367 0 10.348 4.9199 10.348 10.857v31.281c0 5.9367-4.411 9.8623-10.348 9.8622h-102.65zm135.44 30.243c71.712 1.1287 91.494 19.195 114.55 39.359 22.126 19.349 49.351 39.661 114.01 40.516v5.4297c0 17.583 15.059 31.452 32.643 31.452h99.357v32.747l-248 143.09-248-143.09v-105.75h102.66c17.583 0 32.777-14.277 32.777-31.86zm261.21 43.757h99.355v51h-99.355c-5.9367 0-10.645-4.0661-10.645-10.003v-30.73c0-5.9367 4.7078-10.267 10.645-10.267z" fill="#fff"/>
    </g>
  </g>
</svg>