<?xml version="1.0" encoding="utf-8"?>
<svg height="100%" style="fill-rule:evenodd;clip-rule:evenodd;stroke-linecap:round;stroke-linejoin:round;" width="100%" version="1.1" viewBox="0 0 150 150" xmlns="http://www.w3.org/2000/svg" xmlns:bx="https://boxy-svg.com">
  <defs>
    <bx:grid x="0" y="0" width="15" height="15"/>
  </defs>
  <g transform="matrix(0.110751, 0, 0, 0.110751, 15, 46.647747)" style="">
    <rect width="512" height="512" rx="65.115" fill="#175DDC" ry="65.115"/>
    <path fill="#ffffff" d="M372 297V131H256v294c47-28 115-74 116-128zm49-198v198c0 106-152 181-165 181S91 403 91 297V99s0-17 17-17h296s17 0 17 17z"/>
  </g>
  <path d="M 104.925 47.111 C 104.579 47.686 104.118 48.376 103.864 48.627 C 103.451 49.064 103.428 49.042 102.095 47.732 C 100.485 46.121 100.231 46.167 99.473 48.236 C 99.152 49.089 98.761 49.685 98.438 49.871 C 97.979 50.1 97.75 50.03 96.6 49.204 C 94.666 47.848 94.324 48.052 93.954 50.699 C 93.863 51.365 93.679 51.848 93.45 51.939 C 93.263 52.01 92.484 51.778 91.747 51.411 C 89.862 50.513 89.585 50.72 89.563 52.905 C 89.563 53.801 89.447 54.653 89.334 54.767 C 89.172 54.928 88.573 54.883 87.448 54.608 C 85.239 54.079 85.101 54.217 85.63 56.423 C 85.906 57.55 85.953 58.149 85.791 58.308 C 85.676 58.424 84.826 58.54 83.928 58.54 C 81.722 58.562 81.538 58.837 82.458 60.722 C 83.353 62.608 83.124 63.161 81.377 63.39 C 78.8 63.759 78.641 64.081 80.065 65.99 C 81.215 67.506 81.147 67.738 79.237 68.426 C 77.193 69.208 77.146 69.462 78.755 71.072 C 80.065 72.405 80.09 72.428 79.653 72.841 C 79.399 73.096 78.709 73.554 78.134 73.899 C 76.709 74.727 76.709 75.28 78.134 76.106 C 78.709 76.451 79.399 76.912 79.653 77.165 C 80.09 77.578 80.065 77.603 78.755 78.935 C 77.146 80.545 77.193 80.799 79.262 81.557 C 80.112 81.878 80.71 82.269 80.893 82.59 C 81.122 83.051 81.055 83.281 80.227 84.429 C 78.871 86.361 79.078 86.706 81.722 87.076 C 82.388 87.167 82.871 87.351 82.962 87.58 C 83.032 87.766 82.803 88.546 82.434 89.282 C 81.538 91.167 81.746 91.445 83.928 91.467 C 84.826 91.467 85.676 91.583 85.791 91.697 C 85.953 91.858 85.906 92.457 85.63 93.582 C 85.101 95.791 85.239 95.929 87.448 95.4 C 88.573 95.122 89.172 95.076 89.334 95.238 C 89.447 95.354 89.563 96.204 89.563 97.101 C 89.585 99.308 89.862 99.492 91.747 98.572 C 93.634 97.676 94.184 97.906 94.415 99.654 C 94.782 102.229 95.103 102.389 97.013 100.964 C 98.532 99.813 98.761 99.883 99.451 101.792 C 100.231 103.838 100.463 103.883 102.119 102.251 C 103.727 100.686 103.589 100.665 104.922 102.917 C 105.75 104.32 106.303 104.32 107.131 102.917 C 108.464 100.665 108.326 100.686 109.936 102.251 C 111.592 103.883 111.822 103.838 112.58 101.769 C 112.903 100.919 113.292 100.32 113.616 100.136 C 114.074 99.907 114.306 99.975 115.455 100.803 C 117.386 102.16 117.732 101.952 118.098 99.308 C 118.19 98.642 118.374 98.16 118.605 98.067 C 118.789 97.998 119.571 98.227 120.308 98.596 C 122.193 99.492 122.468 99.285 122.492 97.101 C 122.492 96.204 122.605 95.354 122.721 95.238 C 122.881 95.076 123.48 95.122 124.607 95.4 C 126.814 95.929 126.952 95.791 126.423 93.582 C 126.148 92.457 126.102 91.858 126.261 91.697 C 126.377 91.583 127.227 91.467 128.124 91.467 C 130.331 91.445 130.517 91.167 129.598 89.282 C 128.699 87.397 128.928 86.844 130.677 86.615 C 133.252 86.247 133.414 85.926 131.987 84.017 C 130.839 82.498 130.906 82.269 132.815 81.579 C 134.862 80.799 134.908 80.567 133.277 78.91 C 131.712 77.303 131.688 77.441 133.943 76.108 C 134.655 75.671 135 75.325 135 75.003 C 135 74.681 134.655 74.336 133.943 73.899 C 131.688 72.566 131.712 72.704 133.277 71.094 C 134.908 69.437 134.862 69.208 132.793 68.45 C 131.942 68.127 131.343 67.736 131.159 67.415 C 130.93 66.956 131 66.724 131.828 65.575 C 133.184 63.643 132.977 63.299 130.331 62.931 C 129.665 62.84 129.182 62.653 129.09 62.424 C 129.02 62.241 129.252 61.459 129.619 60.722 C 130.517 58.837 130.309 58.562 128.124 58.537 C 127.229 58.537 126.377 58.424 126.261 58.308 C 126.102 58.149 126.148 57.55 126.423 56.423 C 126.952 54.217 126.814 54.079 124.607 54.608 C 123.48 54.883 122.881 54.928 122.721 54.767 C 122.605 54.653 122.49 53.801 122.49 52.905 C 122.468 50.699 122.193 50.513 120.305 51.433 C 118.422 52.33 117.869 52.101 117.639 50.354 C 117.27 47.777 116.949 47.616 115.039 49.042 C 113.523 50.192 113.292 50.121 112.604 48.214 C 111.822 46.167 111.568 46.121 109.958 47.732 C 108.625 49.042 108.601 49.064 108.188 48.627 C 107.935 48.376 107.476 47.686 107.131 47.111 C 106.694 46.375 106.348 46.03 106.028 46.03 C 105.704 46.03 105.361 46.375 104.925 47.111 Z M 107.176 51.778 C 107.43 52.031 107.635 52.539 107.635 52.927 C 107.635 53.318 107.43 53.825 107.176 54.079 C 106.187 55.066 104.417 54.332 104.417 52.927 C 104.417 52.053 105.154 51.32 106.028 51.32 C 106.419 51.32 106.923 51.524 107.176 51.778 Z M 103.635 55.686 C 105.866 57.849 106.187 57.849 108.417 55.686 L 110.073 54.079 L 111.684 54.537 C 113.523 55.045 116.375 56.264 116.375 56.561 C 116.375 56.652 114.214 62.908 111.568 70.428 C 108.925 77.945 106.624 84.522 106.486 85.053 C 106.327 85.603 106.119 86.04 106.028 86.04 C 105.936 86.04 105.75 85.649 105.636 85.19 C 105.498 84.707 103.222 78.085 100.554 70.449 C 97.863 62.815 95.681 56.515 95.681 56.468 C 95.681 56.193 100.784 54.217 101.866 54.1 C 101.933 54.079 102.716 54.79 103.635 55.686 Z M 95.565 78.865 C 98.829 88.017 101.429 95.538 101.359 95.605 C 101.197 95.791 98.761 95.076 97.725 94.526 C 96.897 94.111 96.875 94.064 96.576 92.112 C 96.393 90.847 96.115 89.926 95.84 89.557 C 95.381 88.983 95.311 88.983 93.747 89.145 C 90.299 89.535 90.437 89.582 89.08 87.766 C 87.607 85.81 86.229 83.073 85.562 80.75 C 85.171 79.463 85.034 78.177 84.942 75.693 L 84.826 72.359 L 86.895 71.256 C 89.678 69.807 89.747 69.553 88.322 66.724 C 87.287 64.68 87.287 64.793 88.621 62.862 C 88.988 62.311 89.379 61.942 89.471 62.058 C 89.563 62.149 92.298 69.713 95.565 78.865 Z M 124.1 63.873 L 124.674 64.839 L 123.733 66.702 C 122.306 69.553 122.376 69.807 125.136 71.256 L 127.183 72.335 L 127.183 74.935 C 127.183 77.945 126.768 80.291 125.78 82.798 C 125.02 84.707 123.504 87.235 122.285 88.662 L 121.502 89.582 L 119.685 89.306 C 118.698 89.145 117.594 89.029 117.249 89.029 C 116.283 89.029 115.801 89.881 115.477 92.133 L 115.18 94.135 L 113.961 94.663 C 112.558 95.284 110.856 95.791 110.694 95.605 C 110.602 95.513 120.375 67.784 122.398 62.356 L 122.63 61.783 L 123.089 62.356 C 123.342 62.653 123.801 63.344 124.1 63.873 Z M 86.137 67.069 C 87.216 68.127 86.574 69.713 85.056 69.713 C 84.09 69.713 83.491 69.138 83.491 68.197 C 83.491 66.678 85.08 65.988 86.137 67.069 Z M 127.712 66.749 C 128.378 67.115 128.562 67.39 128.562 68.197 C 128.562 69.116 127.962 69.713 127.021 69.713 C 125.481 69.713 124.812 68.15 125.918 67.069 C 126.539 66.425 126.952 66.357 127.712 66.749 Z M 94.529 92.271 C 95.357 94.248 92.53 95.467 91.61 93.514 C 91.265 92.8 91.265 92.686 91.632 92.133 C 92.414 90.938 94.025 91.009 94.529 92.271 Z M 120.03 91.651 C 120.605 92.112 120.767 92.916 120.399 93.628 C 119.455 95.467 116.72 94.157 117.524 92.271 C 117.937 91.238 119.134 90.938 120.03 91.651 Z" fill="#000000" stroke-width="1" style=""/>
</svg>