<?xml version="1.0" encoding="utf-8"?>
<svg height="100%" style="fill-rule:evenodd;clip-rule:evenodd;stroke-linecap:round;stroke-linejoin:round;" width="100%" version="1.1" viewBox="0 0 150 150" xmlns="http://www.w3.org/2000/svg" xmlns:bx="https://boxy-svg.com">
  <defs>
    <bx:grid x="0" y="0" width="15" height="15"/>
  </defs>
  <rect width="120" height="120" style="fill: none; stroke-width: 0.2px; stroke: rgb(84, 84, 84); pointer-events: none; visibility: hidden;" x="15" y="15"/>
  <path d="M 35.927 42.106 C 26.702 42.086 14.346 47.951 15.027 62.657 C 16.092 85.628 39.628 87.758 49.033 87.943 C 50.063 92.253 61.133 107.114 69.329 107.894 L 105.23 107.894 C 126.761 106.464 142.882 42.781 130.931 42.541 C 111.166 43.471 99.45 43.941 89.405 44.021 L 89.405 63.897 L 86.275 62.512 L 86.255 44.031 C 74.724 44.026 64.574 43.491 45.308 42.541 C 42.898 42.526 39.538 42.116 35.927 42.106 Z M 37.232 50.231 L 38.333 50.231 C 39.643 62.007 41.773 68.892 46.083 79.413 C 35.082 78.113 25.722 74.917 24.002 62.987 C 23.112 56.812 26.112 50.366 37.232 50.226 L 37.232 50.231 Z M 80.019 61.807 C 80.769 61.817 81.534 61.957 82.254 62.287 L 86 63.902 L 83.314 68.797 C 82.904 68.792 82.494 68.857 82.109 68.987 C 80.364 69.542 79.459 71.252 80.084 72.807 C 80.214 73.122 80.404 73.417 80.644 73.677 L 76.014 82.108 C 75.634 82.113 75.259 82.178 74.904 82.298 C 73.159 82.853 72.254 84.563 72.879 86.118 C 73.509 87.668 75.434 88.473 77.179 87.918 C 78.929 87.358 79.834 85.643 79.199 84.093 C 79.034 83.678 78.764 83.303 78.409 82.993 L 82.919 74.782 C 83.414 74.827 83.914 74.777 84.384 74.632 C 84.78 74.507 85.14 74.317 85.45 74.072 C 87.19 74.802 88.615 75.397 89.64 75.902 C 91.18 76.663 91.725 77.168 91.89 77.728 C 92.055 78.278 91.875 79.338 91.005 81.198 C 90.355 82.583 89.28 84.548 88.01 86.863 C 87.585 86.853 87.155 86.918 86.755 87.053 C 85.01 87.608 84.104 89.318 84.73 90.873 C 85.36 92.423 87.285 93.228 89.03 92.673 C 90.775 92.113 91.68 90.403 91.05 88.853 C 90.9 88.478 90.67 88.133 90.365 87.843 C 91.62 85.553 92.7 83.583 93.395 82.103 C 94.335 80.093 94.825 78.598 94.395 77.153 C 93.965 75.707 92.645 74.767 90.895 73.902 C 89.745 73.337 88.31 72.737 86.595 72.017 C 86.625 71.612 86.56 71.202 86.405 70.822 C 86.25 70.432 86 70.077 85.68 69.777 L 88.32 64.962 L 102.94 71.277 C 105.58 72.422 106.67 75.227 105.39 77.578 L 95.34 95.978 C 94.055 98.323 90.9 99.293 88.26 98.153 L 67.574 89.213 C 64.934 88.073 63.839 85.263 65.124 82.913 L 75.174 64.517 C 76.054 62.902 77.824 61.942 79.699 61.867 L 80.019 61.867 L 80.019 61.807 Z" style="stroke-width: 1;"/>
</svg>