<?xml version="1.0" encoding="utf-8"?>
<svg height="100%" style="fill-rule:evenodd;clip-rule:evenodd;stroke-linecap:round;stroke-linejoin:round;" width="100%" version="1.1" viewBox="0 0 150 150" xmlns="http://www.w3.org/2000/svg" xmlns:bx="https://boxy-svg.com">
  <defs>
    <bx:grid x="0" y="0" width="15" height="15"/>
  </defs>
  <rect width="120" height="120" style="fill: none; stroke-width: 0.2px; stroke: rgb(84, 84, 84); pointer-events: none; visibility: hidden;" x="15" y="15" bx:origin="0.5 0.5"/>
  <g transform="matrix(3.821455, 0, 0, 3.821455, -457.18158, 463.130157)" style="">
    <title>VM</title>
    <rect width="28" height="28" x="30" y="30" rx="1.4" ry="1.4" transform="matrix(0, -1, -1, 0, 183.261276, -58.066124)" style="stroke: rgb(98, 97, 97); fill: rgb(255, 255, 255); stroke-width: 0.03px;"/>
    <path opacity=".1" d="M 126.662 -116.066 C 125.886 -116.066 125.261 -115.441 125.261 -114.666 L 125.261 -113.666 C 125.261 -114.441 125.886 -115.066 126.662 -115.066 L 151.862 -115.066 C 152.637 -115.066 153.262 -114.441 153.262 -113.666 L 153.262 -114.666 C 153.262 -115.441 152.637 -116.066 151.862 -116.066 L 126.662 -116.066 Z" style="stroke-width: 0.05px; stroke: rgb(0, 0, 0); fill: rgb(255, 255, 255);"/>
    <path opacity=".2" d="M 125.261 -89.466 L 125.261 -88.466 C 125.261 -87.691 125.886 -87.066 126.662 -87.066 L 151.862 -87.066 C 152.637 -87.066 153.262 -87.691 153.262 -88.466 L 153.262 -89.466 C 153.262 -88.691 152.637 -88.066 151.862 -88.066 L 126.662 -88.066 C 125.886 -88.066 125.262 -88.691 125.262 -89.466 Z" style="stroke-width: 0.1px; stroke: rgb(96, 96, 96); fill: rgb(134, 134, 134);"/>
    <path fill-opacity=".971" opacity=".2" d="M 127.761 -105.066 L 130.986 -97.066 L 133.286 -97.066 L 136.461 -105.066 L 134.286 -105.066 L 132.111 -99.791 L 129.961 -105.066 L 127.761 -105.066 Z"/>
    <path style="fill:#6a2537" d="M 127.761 -106.066 L 130.986 -98.066 L 133.286 -98.066 L 136.461 -106.066 L 134.286 -106.066 L 132.111 -100.791 L 129.961 -106.066 L 127.761 -106.066 Z"/>
    <path fill-opacity=".971" opacity=".2" d="M 138.586 -105.066 C 137.503 -102.386 136.402 -99.722 135.261 -97.066 L 137.561 -97.066 L 139.711 -102.316 L 141.836 -97.066 L 144.136 -97.066 L 146.261 -102.466 L 148.461 -97.066 L 150.761 -97.066 C 149.62 -99.722 148.494 -102.386 147.411 -105.066 L 145.111 -105.066 L 142.986 -99.791 L 140.811 -105.066 L 138.586 -105.066 Z"/>
    <path fill-opacity=".941" style="fill:#a6aaad" d="M 138.586 -106.066 C 137.503 -103.386 136.402 -100.722 135.261 -98.066 L 137.561 -98.066 L 139.711 -103.316 L 141.836 -98.066 L 144.136 -98.066 L 146.261 -103.466 L 148.461 -98.066 L 150.761 -98.066 C 149.62 -100.722 148.494 -103.386 147.411 -106.066 L 145.111 -106.066 L 142.986 -100.791 L 140.811 -106.066 L 138.586 -106.066 Z"/>
  </g>
</svg>