<?xml version="1.0" encoding="utf-8"?>
<svg height="100%" style="fill-rule:evenodd;clip-rule:evenodd;stroke-linecap:round;stroke-linejoin:round;" width="100%" version="1.1" viewBox="0 0 150 150" xmlns="http://www.w3.org/2000/svg" xmlns:bx="https://boxy-svg.com">
  <defs>
    <bx:grid x="0" y="0" width="15" height="15"/>
    <linearGradient gradientUnits="userSpaceOnUse" x1="75.221" y1="92.371" x2="75.221" y2="120" id="gradient-1" spreadMethod="pad" gradientTransform="matrix(1.248537, 0, 0, 1.220087, -18.392506, -17.688808)">
      <stop offset="0" style="stop-color: rgb(235, 235, 235);"/>
      <stop offset="1" style="stop-color: rgb(36, 36, 36);"/>
    </linearGradient>
    <linearGradient gradientUnits="userSpaceOnUse" x1="75.221" y1="92.371" x2="75.221" y2="120" id="gradient-2" spreadMethod="pad" gradientTransform="matrix(1.655585, 0, 0, 1.655585, -49.073136, -104.306193)">
      <stop offset="0" style="stop-color: rgb(255, 230, 189);"/>
      <stop offset="1" style="stop-color: rgb(250, 154, 0);"/>
    </linearGradient>
  </defs>
  <rect width="120" height="120" style="fill: none; stroke-width: 0.2px; stroke: rgb(84, 84, 84); pointer-events: none; visibility: hidden;" x="15" y="15" bx:origin="0.5 0.5"/>
  <g style="" transform="matrix(1.307962, 0, 0, 1.307962, -23.679842, -22.994469)">
    <title>Disco</title>
    <path d="M 49.314 30.507 L 100.545 30.469 C 104.215 30.415 105.351 33.508 105.351 34.463 L 117.846 94.729 C 117.846 95.684 117.071 96.459 116.116 96.459 L 34.806 96.459 C 33.851 96.459 33.076 95.684 33.076 94.729 L 44.658 34.62 C 44.658 33.665 46.126 30.787 49.314 30.507 Z" style="paint-order: fill; stroke: rgb(0, 0, 0); fill: url(#gradient-2); stroke-width: 0.229364px;"/>
    <rect x="33.078" y="93.07" width="84.891" height="26.93" style="fill: url(#gradient-1); paint-order: fill; stroke: rgb(0, 0, 0); stroke-width: 0.229364px;" rx="2.663" ry="2.663"/>
    <g>
      <circle style="fill: rgb(232, 91, 150);" cx="91.791" cy="112.07" r="1.791"/>
      <circle style="fill: rgb(223, 230, 93);" cx="98.478" cy="112.142" r="1.791"/>
      <circle style="fill: rgb(72, 204, 116);" cx="105.268" cy="112.17" r="1.791"/>
    </g>
    <g style="" transform="matrix(1.220879, 0, 0, 0.892534, -12.612496, 6.577724)">
      <g transform="matrix(0.077542, 0, 0, 0.077542, 53.109497, 35.45575)" style="">
        <title>Apple Grey</title>
        <path style="fill:#455A64;" d="M 327.212 83.104 C 343.916 61.568 356.556 31.104 351.98 0 C 324.684 1.888 292.78 19.36 274.188 42.112 C 257.228 62.752 243.276 93.408 248.716 123.2 C 278.54 124.128 309.356 106.24 327.212 83.104 Z"/>
        <path style="fill:#455A64;" d="M 459.852 171.776 C 433.644 138.912 396.812 119.84 362.028 119.84 C 316.108 119.84 296.684 141.824 264.78 141.824 C 231.884 141.824 206.892 119.904 167.18 119.904 C 128.172 119.904 86.636 143.744 60.3 184.512 C 23.276 241.92 7.039 344.177 67.039 436.113 C 88.511 469.009 139.756 511.68 177.26 512 C 210.636 512.32 220.044 490.592 265.26 490.368 C 310.476 490.112 319.052 512.288 352.364 511.936 C 389.9 511.648 420.14 470.656 441.612 437.76 C 457.004 414.176 476.025 388.161 479.69 356.688 C 392.874 323.632 373.932 219.168 459.852 171.776 Z"/>
      </g>
      <g transform="matrix(0.985005, 0, 0, 0.985005, 0.836532, 0.542493)">
        <title>Apple White</title>
        <g transform="matrix(0.077542, 0, 0, 0.077542, 53.193287, 35.298218)" style=""/>
        <g transform="matrix(0.077542, 0, 0, 0.077542, 53.193287, 35.298218)" style=""/>
        <g transform="matrix(0.077542, 0, 0, 0.077542, 53.193287, 35.298218)" style=""/>
        <g transform="matrix(0.077542, 0, 0, 0.077542, 53.193287, 35.298218)" style=""/>
        <g transform="matrix(0.077542, 0, 0, 0.077542, 53.193287, 35.298218)" style=""/>
        <g transform="matrix(0.077542, 0, 0, 0.077542, 53.193287, 35.298218)" style=""/>
        <g transform="matrix(0.077542, 0, 0, 0.077542, 53.193287, 35.298218)" style=""/>
        <g transform="matrix(0.077542, 0, 0, 0.077542, 53.193287, 35.298218)" style=""/>
        <g transform="matrix(0.077542, 0, 0, 0.077542, 53.193287, 35.298218)" style=""/>
        <g transform="matrix(0.077542, 0, 0, 0.077542, 53.193287, 35.298218)" style=""/>
        <g transform="matrix(0.077542, 0, 0, 0.077542, 53.193287, 35.298218)" style=""/>
        <g transform="matrix(0.077542, 0, 0, 0.077542, 53.193287, 35.298218)" style=""/>
        <g transform="matrix(0.077542, 0, 0, 0.077542, 53.193287, 35.298218)" style=""/>
        <g transform="matrix(0.077542, 0, 0, 0.077542, 53.193287, 35.298218)" style=""/>
        <g transform="matrix(0.077542, 0, 0, 0.077542, 53.193287, 35.298218)" style=""/>
        <g transform="matrix(0.077622, 0, 0, 0.077622, 53.679199, 36.180214)" style="">
          <path style="fill: rgb(255, 248, 224);" d="M 327.212 83.104 C 343.916 61.568 356.556 31.104 351.98 0 C 324.684 1.888 292.78 19.36 274.188 42.112 C 257.228 62.752 243.276 93.408 248.716 123.2 C 278.54 124.128 309.356 106.24 327.212 83.104 Z"/>
          <path style="fill: rgb(255, 248, 224);" d="M 459.852 171.776 C 433.644 138.912 396.812 119.84 362.028 119.84 C 316.108 119.84 296.684 141.824 264.78 141.824 C 231.884 141.824 206.892 119.904 167.18 119.904 C 128.172 119.904 86.636 143.744 60.3 184.512 C 23.276 241.92 7.039 344.177 67.039 436.113 C 88.511 469.009 139.756 511.68 177.26 512 C 210.636 512.32 220.044 490.592 265.26 490.368 C 310.476 490.112 319.052 512.288 352.364 511.936 C 389.9 511.648 420.14 470.656 441.612 437.76 C 457.004 414.176 476.025 388.161 479.69 356.688 C 392.874 323.632 373.932 219.168 459.852 171.776 Z"/>
        </g>
      </g>
    </g>
  </g>
</svg>