<?xml version="1.0" encoding="utf-8"?>
<svg height="100%" style="fill-rule:evenodd;clip-rule:evenodd;stroke-linecap:round;stroke-linejoin:round;" width="100%" version="1.1" viewBox="0 0 150 150" xmlns="http://www.w3.org/2000/svg" xmlns:bx="https://boxy-svg.com">
  <defs>
    <bx:grid x="0" y="0" width="15" height="15"/>
  </defs>
  <rect width="120" height="120" style="fill: none; stroke-width: 0.2px; stroke: rgb(84, 84, 84); pointer-events: none; visibility: hidden;" x="15" y="15" bx:origin="0.5 0.5"/>
  <g>
    <path d="M 103.387 65.307 C 103.626 64.547 103.814 63.887 104.008 63.23 C 105.961 55.729 108.312 48.333 111.057 41.084 C 112.017 38.037 114.73 35.879 117.913 35.622 C 120.16 35.383 122.542 35.195 124.065 37.338 C 124.931 38.628 126.296 39.503 127.832 39.755 C 128.599 39.864 129.353 40.061 130.077 40.341 C 131.08 40.723 131.463 40.307 131.736 39.373 C 132.595 36.329 133.498 33.325 134.397 30.322 C 135.401 26.894 135.401 26.937 132.084 25.762 C 130.791 25.185 129.318 25.162 128.008 25.694 C 125.821 26.725 123.216 26.191 121.613 24.381 C 119.648 22.36 117.249 20.814 114.597 19.855 C 106.891 16.965 98.58 16.054 90.43 17.207 C 86.43 17.67 82.597 19.064 79.235 21.283 C 78.775 21.646 78.336 22.037 77.923 22.457 C 82.362 22.019 86.834 22.063 91.261 22.595 C 94.226 22.79 96.978 24.201 98.865 26.498 C 100.683 29.151 101.669 32.285 101.697 35.499 C 101.942 39.9 101.361 44.307 99.982 48.493 C 98.671 52.984 97.41 57.544 96.145 62.04 C 95.975 62.628 95.835 63.145 96.632 63.352 C 98.86 63.99 101.038 64.616 103.387 65.307 Z" style="fill: rgb(35, 94, 225);"/>
    <path d="M 82.137 133.252 C 84.227 133.456 86.226 132.358 87.18 130.488 C 87.847 129.33 88.348 128.085 88.667 126.79 C 91.984 113.074 95.281 99.344 98.552 85.598 C 99.897 79.899 101.178 74.194 102.558 68.495 C 102.837 67.39 102.558 66.938 101.487 66.7 C 100.034 66.353 98.585 65.94 97.133 65.49 C 94.471 64.697 94.991 64.802 94.198 67.013 C 87.666 85.629 81.124 104.239 74.573 122.839 C 74.272 123.601 74.085 124.403 74.02 125.221 C 73.692 129.821 77.54 133.629 82.137 133.252 Z" style="fill: rgb(35, 94, 225);"/>
    <path d="M 15.1 50.345 C 15.237 51.485 15.378 52.452 15.526 53.388 C 16.53 60.021 17.567 66.674 18.528 73.289 C 19.489 79.906 20.499 86.661 21.463 93.33 C 22.466 100.068 23.47 106.77 24.507 113.512 C 25.128 117.765 25.792 122.011 26.405 126.296 C 26.542 127.197 26.834 127.608 27.925 127.437 C 34.212 126.4 40.497 125.399 46.784 124.435 C 55.783 123.017 64.72 121.672 73.702 120.253 C 74.049 120.184 74.323 119.769 74.637 119.496 C 74.255 119.289 73.804 118.908 73.462 118.944 C 68.556 119.632 63.683 120.395 58.774 121.155 C 48.858 122.709 38.941 124.232 29.057 125.816 C 28.021 125.988 27.674 125.748 27.537 124.744 C 26.95 120.426 26.329 116.139 25.672 111.857 C 24.253 102.322 22.769 92.782 21.352 83.281 C 19.798 72.912 18.274 62.511 16.689 52.111 C 16.519 50.97 16.896 50.453 18.034 50.314 C 20.041 50.035 22.042 49.693 24.013 49.38 C 32.156 48.069 40.327 46.719 48.475 45.406 L 69.859 41.876 C 76.492 40.803 83.092 39.733 89.726 38.628 C 92.838 38.109 95.912 37.625 99.023 37.036 C 99.403 36.97 99.679 36.417 99.992 36.104 C 99.563 35.931 99.16 35.755 98.749 35.62 C 98.646 35.584 98.509 35.652 98.366 35.686 C 94.509 36.343 90.627 36.999 86.797 37.625 C 78.654 38.97 70.483 40.286 62.333 41.631 C 54.73 42.875 47.125 44.156 39.53 45.399 C 31.719 46.685 23.911 47.971 16.098 49.235 C 15.237 49.375 14.787 49.615 15.1 50.345 Z" style="fill: rgb(35, 94, 225);"/>
    <path d="M 113.574 38.872 C 113.365 38.877 113.157 38.866 112.953 38.837 C 112.746 39.698 112.64 40.581 112.64 41.465 C 113.02 44.263 113.574 47.063 114.023 49.859 C 115.265 57.361 116.514 64.891 117.757 72.391 C 118.998 79.89 120.245 87.421 121.522 94.92 C 122.317 99.724 123.147 104.526 123.94 109.295 C 124.077 110.018 123.94 110.538 123.04 110.68 L 103.137 113.791 C 99.995 114.275 96.851 114.792 93.709 115.347 C 93.43 115.379 93.19 115.831 92.951 116.106 C 93.296 116.277 93.605 116.59 93.918 116.59 C 94.922 116.521 95.889 116.351 96.856 116.208 L 118.9 112.685 C 121.111 112.338 123.289 111.961 125.671 111.58 C 121.667 87.286 117.633 63.048 113.574 38.872 Z" style="fill: rgb(35, 94, 225);"/>
    <path d="M 87.353 82.41 C 88.051 81.931 88.101 80.917 87.456 80.369 C 85.277 77.801 83.171 75.187 80.992 72.597 C 74.946 65.311 68.865 57.978 62.818 50.655 C 62.302 50.032 61.947 49.297 61.781 48.509 C 61.619 46.989 62.54 45.563 63.992 45.081 C 65.549 44.474 67.315 45.055 68.208 46.466 C 74.153 53.584 80.131 60.704 86.073 67.822 C 87.488 69.537 88.938 71.207 90.426 72.965 C 91.123 72.485 91.175 71.473 90.528 70.925 C 88.146 68.092 85.76 65.224 83.375 62.39 C 78.571 56.657 73.804 50.919 68.967 45.25 C 67.23 43.055 63.992 42.818 61.952 44.73 C 59.84 46.45 59.728 49.636 61.712 51.501 C 69.174 60.521 76.64 69.529 84.103 78.523 C 85.176 79.852 86.248 81.096 87.353 82.41 Z" style="fill: rgb(35, 94, 225);"/>
    <path d="M 63.51 67.859 C 63.253 67.649 62.974 67.463 62.679 67.306 C 60.298 66.408 57.908 65.594 55.527 64.68 C 54.768 64.402 54.422 64.68 54.141 65.335 C 49.791 76.042 45.439 86.744 41.083 97.441 C 40.737 98.234 40.981 98.617 41.705 98.894 C 43.952 99.793 46.196 100.655 48.407 101.658 C 49.617 102.211 50.122 101.938 50.551 100.723 C 54.699 90.115 58.912 79.544 63.095 68.968 C 63.199 68.725 63.302 68.379 63.51 67.859 Z" style="fill: rgb(35, 94, 225);"/>
    <path d="M 86.281 82.68 C 84.566 80.503 82.965 78.709 81.652 76.77 C 80.478 74.975 79.164 74.039 76.991 74.941 C 76.452 75.102 75.895 75.197 75.332 75.218 L 61.474 77.603 C 60.734 77.618 60.077 78.083 59.816 78.776 C 58.917 81.347 57.952 83.855 57.019 86.415 C 56.928 86.775 56.869 87.145 56.846 87.52 C 66.692 85.933 76.286 84.343 86.281 82.68 Z" style="fill: rgb(35, 94, 225);"/>
    <path d="M 47.443 79.612 C 41.778 80.547 36.386 81.409 30.824 82.308 C 31.204 84.879 31.617 87.351 31.894 89.843 C 32.032 90.912 32.483 91.051 33.451 90.912 C 36.283 90.485 39.152 90.082 42.023 89.738 C 42.806 89.714 43.498 89.226 43.784 88.497 C 44.82 86.006 45.928 83.521 46.998 81.031 C 47.166 80.614 47.236 80.268 47.443 79.612 Z" style="fill: rgb(35, 94, 225);"/>
    <path d="M 108.19 101.174 C 104.805 99.101 101.453 97.064 97.787 94.85 C 97.926 95.509 97.857 96.27 98.217 96.647 C 98.876 97.378 99.659 97.984 100.53 98.444 C 101.705 99.101 102.948 99.548 104.163 100.158 C 105.963 100.803 107.176 102.498 107.204 104.41 C 107.249 104.782 107.354 105.143 107.517 105.48 L 107.864 105.309 C 107.952 105.204 108.025 105.088 108.087 104.968 C 109.987 102.023 110.468 98.384 109.398 95.051 C 108.692 91.167 106.284 87.807 102.834 85.89 C 101.795 85.373 101.118 85.822 100.381 86.319 C 99.538 86.79 99.114 87.764 99.344 88.701 C 99.83 88.45 100.29 88.149 100.715 87.803 C 101.572 86.903 102.374 87.112 103.344 87.734 C 107.339 90.96 109.206 96.14 108.19 101.174 Z" style="fill: rgb(35, 94, 225);"/>
    <path d="M 38.701 115.65 C 38.837 115.723 38.982 115.782 39.13 115.821 C 42.559 111.536 45.987 107.252 49.496 102.863 C 48.979 102.583 48.666 102.379 48.322 102.241 C 46.111 101.34 43.9 100.526 41.721 99.579 C 40.684 99.15 40.376 99.442 40.303 100.515 C 40.025 103.416 39.683 106.323 39.37 109.256 C 39.117 111.394 38.907 113.538 38.701 115.65 Z" style="fill: rgb(35, 94, 225);"/>
    <path d="M 60.986 56.08 C 59.19 56.109 57.584 57.212 56.91 58.878 C 56.393 60.163 55.909 61.449 55.32 62.677 C 54.974 63.404 55.081 63.853 55.909 64.132 C 58.221 64.924 60.538 65.79 62.822 66.703 C 63.653 67.018 63.997 66.737 64.308 66.013 C 64.827 64.701 65.413 63.387 65.966 62.075 C 66.811 60.564 66.289 58.656 64.794 57.789 C 63.569 57.122 62.298 56.55 60.986 56.08 Z" style="fill: rgb(35, 94, 225);"/>
    <path d="M 101.521 79.921 C 104.423 79.539 107.29 79.162 110.127 78.711 C 110.367 78.678 110.68 78.057 110.646 77.778 C 110.298 75.499 109.887 73.183 109.403 70.92 C 109.232 70.491 108.852 70.178 108.4 70.09 C 106.948 70.191 105.498 70.403 104.047 70.642 C 103.321 70.744 102.803 71.07 103.214 72.13 C 104.526 71.957 105.875 71.748 107.22 71.646 C 107.533 71.61 108.122 71.885 108.156 72.073 C 108.537 73.788 108.813 75.596 109.159 77.429 C 106.912 77.742 104.805 78.018 102.729 78.289 C 101.971 78.438 101.278 78.609 101.521 79.921 Z" style="fill: rgb(35, 94, 225);"/>
    <path d="M 103.387 65.307 C 101.071 64.616 98.86 63.995 96.682 63.368 C 95.889 63.129 96.028 62.645 96.199 62.059 C 97.484 57.531 98.723 53.005 100.034 48.509 C 101.41 44.325 101.992 39.916 101.749 35.515 C 101.731 32.298 100.743 29.162 98.915 26.516 C 97.021 24.22 94.26 22.811 91.287 22.628 C 86.86 22.099 82.388 22.051 77.949 22.49 C 78.378 22.11 78.781 21.66 79.261 21.316 C 82.621 19.1 86.456 17.703 90.456 17.243 C 98.601 16.098 106.9 17 114.611 19.868 C 117.271 20.814 119.674 22.363 121.631 24.393 C 123.232 26.203 125.838 26.739 128.025 25.705 C 129.337 25.174 130.808 25.2 132.101 25.774 C 135.418 26.948 135.418 26.915 134.413 30.333 C 133.515 33.335 132.618 36.334 131.752 39.385 C 131.475 40.32 131.098 40.697 130.094 40.355 C 129.37 40.076 128.618 39.878 127.85 39.766 C 126.301 39.554 124.922 38.67 124.082 37.349 C 122.531 35.646 120.141 34.979 117.933 35.636 C 114.748 35.89 112.037 38.049 111.073 41.095 C 108.332 48.348 105.977 55.741 104.025 63.245 C 103.835 63.887 103.631 64.51 103.387 65.307 Z" style="fill: rgb(35, 94, 225);"/>
    <path d="M 82.137 133.252 C 77.545 133.632 73.695 129.831 74.015 125.233 C 74.08 124.417 74.267 123.612 74.568 122.851 C 81.1 104.224 87.655 85.624 94.231 67.046 C 94.991 64.834 94.509 64.766 97.166 65.524 C 98.62 65.955 100.068 66.382 101.521 66.732 C 102.592 66.974 102.868 67.422 102.592 68.528 C 101.208 74.23 99.933 79.932 98.585 85.634 C 95.304 99.347 92.008 113.078 88.703 126.824 C 88.383 128.12 87.883 129.366 87.216 130.524 C 86.224 132.37 84.224 133.444 82.137 133.252 Z" style="fill: rgb(35, 94, 225);"/>
    <path d="M 15.1 50.345 C 14.787 49.62 15.237 49.375 16.136 49.238 C 23.945 47.997 31.755 46.668 39.567 45.404 C 47.169 44.16 54.772 42.879 62.371 41.636 C 70.514 40.291 78.682 38.975 86.834 37.63 C 90.692 37.007 94.575 36.343 98.405 35.691 C 98.542 35.657 98.684 35.589 98.787 35.622 C 99.216 35.76 99.62 35.936 100.029 36.107 C 99.716 36.42 99.444 36.965 99.062 37.041 C 95.985 37.63 92.877 38.113 89.766 38.631 C 83.13 39.703 76.531 40.775 69.896 41.881 L 48.516 45.395 C 40.362 46.742 32.205 48.069 24.051 49.368 C 22.047 49.681 20.08 50.056 18.073 50.301 C 16.933 50.438 16.552 50.958 16.728 52.096 C 18.316 62.464 19.84 72.865 21.391 83.268 C 22.81 92.804 24.293 102.343 25.712 111.845 C 26.366 116.129 26.995 120.45 27.574 124.732 C 27.712 125.736 28.003 125.976 29.097 125.805 C 38.979 124.212 48.896 122.692 58.815 121.14 C 63.721 120.382 68.595 119.62 73.501 118.929 C 73.85 118.896 74.293 119.276 74.675 119.482 C 74.362 119.762 74.09 120.173 73.741 120.241 C 64.794 121.67 55.819 123.064 46.822 124.424 C 40.537 125.392 34.25 126.393 27.966 127.423 C 26.893 127.596 26.58 127.183 26.443 126.284 C 25.821 122.032 25.202 117.786 24.545 113.499 C 23.542 106.763 22.505 100.058 21.502 93.319 C 20.499 86.65 19.532 79.947 18.566 73.278 L 15.567 53.375 C 15.378 52.447 15.237 51.518 15.1 50.345 Z" style="fill: rgb(35, 94, 225);"/>
    <path d="M 113.574 38.872 L 125.735 111.643 C 123.353 112.025 121.176 112.403 118.965 112.749 L 96.919 116.272 C 95.949 116.41 94.948 116.586 93.983 116.654 C 93.67 116.687 93.327 116.341 93.014 116.17 C 93.254 115.89 93.498 115.48 93.774 115.41 C 96.915 114.856 100.058 114.339 103.202 113.855 C 109.835 112.818 116.488 111.746 123.105 110.745 C 124.003 110.606 124.108 110.088 124.003 109.359 C 123.211 104.554 122.381 99.788 121.588 94.984 C 120.346 87.485 119.097 79.955 117.821 72.454 C 116.542 64.955 115.33 57.425 114.086 49.923 C 113.617 47.11 113.098 44.332 112.715 41.537 C 112.723 40.652 112.827 39.771 113.028 38.91 C 113.209 38.879 113.392 38.868 113.574 38.872 Z" style="fill: rgb(35, 94, 225);"/>
    <path d="M 87.353 82.41 C 86.248 81.1 85.176 79.838 84.103 78.554 C 76.642 69.534 69.178 60.526 61.712 51.532 C 59.728 49.665 59.84 46.481 61.952 44.761 C 63.975 42.804 67.251 43.045 68.967 45.279 C 73.804 50.944 78.571 56.719 83.375 62.421 C 85.76 65.255 88.09 68.123 90.528 70.956 C 91.175 71.503 91.123 72.514 90.426 72.996 C 88.938 71.233 87.488 69.542 86.073 67.852 C 80.144 60.706 74.144 53.593 68.208 46.474 C 67.333 45.043 65.546 44.457 63.992 45.091 C 62.531 45.558 61.605 46.996 61.781 48.519 C 61.916 49.316 62.276 50.058 62.818 50.661 C 68.865 57.985 74.912 65.281 80.992 72.604 C 83.135 75.176 85.277 77.786 87.456 80.379 C 88.093 80.927 88.044 81.931 87.353 82.41 Z" style="fill: rgb(35, 94, 225);"/>
    <path d="M 63.51 67.859 C 63.339 68.379 63.232 68.692 63.083 69.033 C 58.901 79.608 54.687 90.18 50.538 100.792 C 50.054 102.002 49.602 102.279 48.395 101.726 C 46.217 100.723 43.937 99.861 41.693 98.962 C 40.934 98.649 40.725 98.305 41.071 97.508 C 45.46 86.832 49.814 76.133 54.135 65.408 C 54.412 64.718 54.756 64.44 55.517 64.753 C 57.902 65.653 60.289 66.467 62.671 67.38 C 62.976 67.492 63.261 67.655 63.51 67.859 Z M 55.368 66.147 C 54.782 67.634 54.229 68.944 53.709 70.256 C 50.148 78.998 46.577 87.743 42.995 96.486 C 42.566 97.523 42.789 97.937 43.755 98.281 C 45.14 98.76 46.502 99.316 47.831 99.939 C 48.868 100.457 49.282 100.254 49.693 99.181 C 52.39 92.267 55.118 85.394 57.885 78.481 C 59.195 75.197 60.455 71.914 61.823 68.495 C 59.641 67.724 57.6 66.964 55.356 66.132 L 55.368 66.147 Z" style="fill: rgb(35, 94, 225);"/>
    <path d="M 86.281 82.68 C 76.296 84.338 66.687 85.895 56.877 87.52 C 56.902 87.147 56.959 86.777 57.047 86.415 C 57.983 83.842 58.986 81.336 59.847 78.776 C 60.096 78.073 60.76 77.603 61.505 77.603 L 75.36 75.218 C 75.921 75.187 76.476 75.102 77.02 74.967 C 79.197 74.109 80.473 75.034 81.683 76.796 C 82.965 78.747 84.555 80.507 86.281 82.68 Z M 58.774 85.826 C 67.207 84.442 75.396 83.062 83.757 81.677 C 82.269 79.814 80.992 78.156 79.648 76.535 C 79.313 76.247 78.877 76.108 78.437 76.154 C 77.23 76.291 76.056 76.5 74.881 76.707 C 70.772 77.397 66.656 78.089 62.58 78.849 C 62.063 78.953 61.295 79.278 61.128 79.681 C 60.262 81.613 59.571 83.62 58.774 85.831 L 58.774 85.826 Z" style="fill: rgb(35, 94, 225);"/>
    <path d="M 47.443 79.612 C 47.237 80.268 47.13 80.614 47.014 80.958 C 45.944 83.449 44.839 85.933 43.802 88.424 C 43.534 89.169 42.83 89.665 42.039 89.667 C 39.173 90.014 36.34 90.391 33.467 90.842 C 32.499 90.976 32.049 90.842 31.911 89.769 C 31.6 87.318 31.223 84.863 30.842 82.234 C 36.386 81.394 41.773 80.538 47.443 79.612 Z M 45.302 81.373 C 41.152 82.03 37.32 82.616 33.552 83.271 C 33.174 83.34 32.551 83.961 32.551 84.274 C 32.68 85.774 32.91 87.263 33.239 88.732 C 33.43 89.081 33.78 89.316 34.175 89.354 C 36.523 89.074 38.889 88.765 41.19 88.386 C 41.688 88.344 42.15 88.108 42.476 87.729 C 43.468 85.729 44.298 83.653 45.302 81.373 Z" style="fill: rgb(35, 94, 225);"/>
    <path d="M 108.19 101.174 C 109.221 96.161 107.352 90.996 103.351 87.803 C 102.628 87.041 101.405 87.074 100.725 87.871 C 100.288 88.217 99.825 88.53 99.339 88.806 C 99.109 87.868 99.534 86.891 100.376 86.422 C 101.009 85.755 102.007 85.579 102.829 85.994 C 106.269 87.899 108.679 91.243 109.398 95.109 C 110.468 98.445 109.987 102.085 108.087 105.027 C 108.017 105.138 107.937 105.245 107.846 105.34 C 107.778 105.408 107.709 105.408 107.5 105.511 C 107.354 105.167 107.246 104.808 107.187 104.438 C 107.159 102.527 105.947 100.831 104.143 100.187 C 102.936 99.6 101.655 99.15 100.513 98.473 C 99.646 98.013 98.863 97.407 98.201 96.678 C 97.852 96.296 97.921 95.537 97.771 94.881 C 101.453 97.06 104.805 99.101 108.19 101.174 Z" style="fill: rgb(35, 94, 225);"/>
    <path d="M 38.701 115.65 C 38.907 113.509 39.083 111.399 39.323 109.256 C 39.636 106.355 40.014 103.448 40.257 100.515 C 40.36 99.442 40.637 99.129 41.676 99.579 C 43.852 100.515 46.063 101.34 48.274 102.241 C 48.623 102.379 48.932 102.587 49.449 102.863 C 45.928 107.252 42.502 111.536 39.083 115.821 C 38.953 115.774 38.825 115.717 38.701 115.65 Z M 40.461 111.643 C 40.565 111.679 40.668 111.679 40.741 111.712 C 42.917 108.948 45.062 106.217 47.306 103.352 C 45.266 102.556 43.505 101.865 41.607 101.105 C 41.221 104.766 40.844 108.224 40.461 111.643 Z" style="fill: rgb(35, 94, 225);"/>
    <path d="M 60.986 56.08 C 62.302 56.538 63.574 57.112 64.789 57.792 C 66.284 58.661 66.808 60.569 65.963 62.08 C 65.41 63.39 64.822 64.65 64.305 66.018 C 64.026 66.742 63.648 67.019 62.818 66.708 C 60.538 65.808 58.221 64.993 55.904 64.137 C 55.071 63.856 55.004 63.411 55.315 62.682 C 55.868 61.44 56.354 60.111 56.907 58.881 C 57.567 57.202 59.183 56.092 60.986 56.08 Z M 56.77 62.936 C 58.774 63.696 60.675 64.424 62.537 65.045 C 62.744 65.115 63.227 64.804 63.37 64.526 C 63.855 63.522 64.227 62.486 64.716 61.449 C 65.223 60.631 64.96 59.553 64.129 59.067 C 63.15 58.483 62.089 58.049 60.983 57.781 C 59.84 57.472 58.658 58.11 58.286 59.233 C 57.774 60.434 57.328 61.572 56.775 62.964 L 56.77 62.936 Z" style="fill: rgb(35, 94, 225);"/>
    <path d="M 101.521 79.921 C 101.242 78.609 101.95 78.433 102.729 78.331 C 104.805 78.052 106.879 77.778 109.159 77.473 C 108.813 75.644 108.537 73.878 108.156 72.115 C 108.122 71.911 107.533 71.632 107.22 71.688 C 105.875 71.791 104.526 71.999 103.214 72.172 C 102.834 71.101 103.351 70.786 104.047 70.685 C 105.498 70.478 106.948 70.256 108.4 70.132 C 108.86 70.206 109.245 70.524 109.403 70.962 C 109.886 73.25 110.3 75.534 110.646 77.822 C 110.68 78.099 110.333 78.72 110.127 78.753 C 107.29 79.162 104.456 79.508 101.521 79.921 Z" style="fill: rgb(35, 94, 225);"/>
    <path d="M 55.356 66.132 C 57.6 66.964 59.641 67.688 61.818 68.481 C 60.473 71.911 59.157 75.185 57.88 78.466 C 55.149 85.38 52.385 92.256 49.69 99.169 C 49.261 100.239 48.832 100.453 47.826 99.926 C 46.502 99.287 45.142 98.734 43.75 98.268 C 42.781 97.921 42.576 97.508 42.99 96.471 C 46.585 87.729 50.156 78.986 53.705 70.243 C 54.215 68.932 54.735 67.62 55.356 66.132 Z" style="fill: rgb(35, 94, 225);"/>
    <path d="M 58.774 85.831 C 59.607 83.62 60.262 81.649 61.091 79.715 C 61.261 79.285 62.025 78.991 62.542 78.884 C 66.654 78.125 70.768 77.429 74.843 76.739 C 76.017 76.535 77.225 76.312 78.4 76.187 C 78.836 76.149 79.273 76.286 79.608 76.568 C 80.955 78.194 82.269 79.852 83.719 81.712 C 75.396 83.067 67.209 84.395 58.774 85.831 Z" style="fill: rgb(35, 94, 225);"/>
    <path d="M 45.302 81.373 C 44.298 83.653 43.469 85.729 42.468 87.695 C 42.142 88.073 41.681 88.308 41.183 88.351 C 38.868 88.732 36.518 89.041 34.167 89.319 C 33.854 89.354 33.265 88.972 33.233 88.697 C 32.895 87.231 32.665 85.74 32.543 84.241 C 32.509 83.928 33.128 83.307 33.546 83.237 C 37.316 82.616 41.144 82.03 45.302 81.373 Z" style="fill: rgb(35, 94, 225);"/>
    <path d="M 40.461 111.643 C 40.844 108.19 41.221 104.787 41.636 101.105 C 43.5 101.829 45.302 102.556 47.337 103.352 C 45.09 106.217 42.915 108.948 40.77 111.712 C 40.666 111.705 40.562 111.684 40.461 111.643 Z" style="fill: rgb(35, 94, 225);"/>
    <path d="M 56.775 62.964 C 57.328 61.582 57.776 60.44 58.296 59.302 C 58.663 58.177 59.84 57.53 60.986 57.823 C 62.099 58.076 63.162 58.509 64.132 59.11 C 64.95 59.605 65.213 60.67 64.72 61.492 C 64.29 62.495 63.863 63.566 63.375 64.569 C 63.237 64.808 62.754 65.157 62.542 65.089 C 60.644 64.44 58.774 63.717 56.775 62.964 Z" style="fill: rgb(35, 94, 225);"/>
  </g>
</svg>