<?xml version="1.0" encoding="utf-8"?>
<svg height="100%" style="fill-rule:evenodd;clip-rule:evenodd;stroke-linecap:round;stroke-linejoin:round;" width="100%" version="1.1" viewBox="0 0 150 150" xmlns="http://www.w3.org/2000/svg" xmlns:bx="https://boxy-svg.com">
  <defs>
    <bx:grid x="0" y="0" width="15" height="15"/>
  </defs>
  <rect width="120" height="120" style="fill: none; stroke-width: 0.2px; stroke: rgb(84, 84, 84); pointer-events: none; visibility: hidden;" x="15" y="15"/>
  <g transform="matrix(0.719962, 0, 0, 0.719962, -51.405167, -17.398298)" style="">
    <title>gopher</title>
    <path fill-rule="evenodd" clip-rule="evenodd" fill="#F6D2A2" stroke="#000000" stroke-linecap="round" d="M 141.798 95.835 C 141.933 98.621 144.717 97.332 145.978 96.461 C 147.174 95.634 147.524 96.322 147.629 94.69 C 147.698 93.617 147.822 92.544 147.761 91.467 C 145.951 91.303 143.983 91.734 142.499 92.812 C 141.735 93.367 140.302 95.14 141.798 95.835" style="stroke-width: 0.5px;"/>
    <path fill-rule="evenodd" clip-rule="evenodd" fill="#C6B198" stroke="#000000" stroke-linecap="round" d="M 141.798 95.835 C 142.203 95.684 142.633 95.577 142.908 95.211" style="stroke-width: 0.5px;"/>
    <path fill-rule="evenodd" clip-rule="evenodd" fill="#6AD7E5" stroke="#000000" stroke-linecap="round" d="M 148.231 62.642 C 137.564 59.642 145.496 46.073 154.061 51.654 L 148.231 62.642 Z" style="stroke-width: 0.5px;"/>
    <path fill-rule="evenodd" clip-rule="evenodd" fill="#6AD7E5" stroke="#000000" stroke-linecap="round" d="M 195.622 50.636 C 204.065 44.706 211.694 58.085 201.882 61.452 L 195.622 50.636 Z" style="stroke-width: 0.5px;"/>
    <path fill-rule="evenodd" clip-rule="evenodd" fill="#F6D2A2" stroke="#000000" stroke-linecap="round" d="M 197.438 130.127 C 199.583 131.454 203.502 135.466 200.285 137.412 C 197.194 140.242 195.464 134.305 192.751 133.483 C 193.919 131.896 195.4 130.449 197.438 130.127 Z" style="stroke-width: 0.5px;"/>
    <path fill-rule="evenodd" clip-rule="evenodd" fill="none" stroke="#000000" stroke-linecap="round" d="M 200.285 137.412 C 199.808 136.463 199.648 135.356 198.852 134.592" style="stroke-width: 0.5px;"/>
    <path fill-rule="evenodd" clip-rule="evenodd" fill="#F6D2A2" stroke="#000000" stroke-linecap="round" d="M 159.125 134.661 C 156.608 135.051 155.191 137.322 153.092 138.475 C 151.115 139.654 150.359 138.097 150.181 137.782 C 149.871 137.64 149.897 137.913 149.418 137.431 C 147.585 134.538 151.328 132.424 153.277 130.987 C 155.992 130.438 157.693 132.791 159.125 134.661 Z" style="stroke-width: 0.5px;"/>
    <path fill-rule="evenodd" clip-rule="evenodd" fill="none" stroke="#000000" stroke-linecap="round" d="M 150.181 137.781 C 150.277 136.679 151.151 135.94 151.567 135.008" style="stroke-width: 0.5px;"/>
    <path fill-rule="evenodd" clip-rule="evenodd" d="M 148.676 58.894 C 147.269 58.15 146.236 57.139 147.097 55.511 C 147.894 54.004 149.375 54.168 150.782 54.912 L 148.676 58.894 Z" style="stroke-width: 0.5px;"/>
    <path fill-rule="evenodd" clip-rule="evenodd" d="M 199.659 57.479 C 201.066 56.734 202.099 55.723 201.238 54.096 C 200.441 52.589 198.96 52.752 197.553 53.497 L 199.659 57.479 Z" style="stroke-width: 0.5px;"/>
    <path fill-rule="evenodd" clip-rule="evenodd" fill="#F6D2A2" stroke="#000000" stroke-linecap="round" d="M 209.346 95.481 C 209.211 98.268 206.427 96.978 205.166 96.107 C 203.97 95.28 203.62 95.968 203.515 94.336 C 203.446 93.263 203.322 92.19 203.383 91.113 C 205.193 90.949 207.161 91.38 208.645 92.458 C 209.409 93.013 210.842 94.786 209.346 95.481" style="stroke-width: 0.5px;"/>
    <path fill-rule="evenodd" clip-rule="evenodd" fill="#C6B198" stroke="#000000" stroke-linecap="round" d="M 209.346 95.481 C 208.941 95.331 208.511 95.224 208.236 94.857" style="stroke-width: 0.5px;"/>
    <g transform="matrix(0.176899, 0, 0, 0.176899, 139.916763, 42.678391)" style="">
      <path fill-rule="evenodd" clip-rule="evenodd" fill="#6AD7E5" stroke="#000000" stroke-width="3" stroke-linecap="round" d="&#10;&#9;&#9;M195.512,13.124c60.365,0,116.953,8.633,146.452,66.629c26.478,65.006,17.062,135.104,21.1,203.806&#10;&#9;&#9;c3.468,58.992,11.157,127.145-16.21,181.812c-28.79,57.514-100.73,71.982-160,69.863c-46.555-1.666-102.794-16.854-129.069-59.389&#10;&#9;&#9;c-30.826-49.9-16.232-124.098-13.993-179.622c2.652-65.771-17.815-131.742,3.792-196.101&#10;&#9;&#9;C69.999,33.359,130.451,18.271,195.512,13.124"/>
    </g>
    <path fill-rule="evenodd" clip-rule="evenodd" fill="#FFFFFF" stroke="#000000" stroke-linecap="round" d="M 176.388 59.335 C 178.306 70.48 196.523 67.533 193.907 56.293 C 191.56 46.213 175.751 49.003 176.388 59.335" style="stroke-width: 0.5px;"/>
    <path fill-rule="evenodd" clip-rule="evenodd" fill="#FFFFFF" stroke="#000000" stroke-linecap="round" d="M 154.618 61.138 C 157.103 70.84 172.638 68.356 172.052 58.623 C 171.351 46.966 152.242 49.216 154.618 61.138" style="stroke-width: 0.5px;"/>
    <path fill-rule="evenodd" clip-rule="evenodd" fill="#FFFFFF" stroke="#000000" stroke-linecap="round" d="M 178.586 72.709 C 178.594 74.158 178.916 75.785 178.642 77.326 C 178.272 78.025 177.546 78.099 176.92 78.382 C 176.055 78.246 175.328 77.678 174.981 76.869 C 174.759 75.109 175.064 73.406 175.12 71.646 L 178.586 72.709 Z" style="stroke-width: 0.5px;"/>
    <g transform="matrix(0.176899, 0, 0, 0.176899, 139.916763, 42.678391)" style="">
      <ellipse fill-rule="evenodd" clip-rule="evenodd" cx="107.324" cy="95.404" rx="14.829" ry="16.062"/>
      <ellipse fill-rule="evenodd" clip-rule="evenodd" fill="#FFFFFF" cx="114.069" cy="99.029" rx="3.496" ry="4.082"/>
    </g>
    <g transform="matrix(0.176899, 0, 0, 0.176899, 139.916763, 42.678391)" style="">
      <ellipse fill-rule="evenodd" clip-rule="evenodd" cx="231.571" cy="91.404" rx="14.582" ry="16.062"/>
      <ellipse fill-rule="evenodd" clip-rule="evenodd" fill="#FFFFFF" cx="238.204" cy="95.029" rx="3.438" ry="4.082"/>
    </g>
    <path fill-rule="evenodd" clip-rule="evenodd" fill="#FFFFFF" stroke="#000000" stroke-linecap="round" d="M 171.09 72.551 C 169.945 75.325 171.728 80.872 174.834 76.78 C 174.612 75.021 174.916 73.317 174.972 71.557 L 171.09 72.551 Z" style="stroke-width: 0.5px;"/>
    <g transform="matrix(0.176899, 0, 0, 0.176899, 139.916763, 42.678391)" style="">
      <path fill-rule="evenodd" clip-rule="evenodd" fill="#F6D2A2" stroke="#231F20" stroke-width="3" stroke-linecap="round" d="&#10;&#9;&#9;M178.431,138.673c-12.059,1.028-21.916,15.366-15.646,26.709c8.303,15.024,26.836-1.329,38.379,0.203&#10;&#9;&#9;c13.285,0.272,24.17,14.047,34.84,2.49c11.867-12.854-5.109-25.373-18.377-30.97L178.431,138.673z"/>
      <path fill-rule="evenodd" clip-rule="evenodd" d="M176.913,138.045c-0.893-20.891,38.938-23.503,43.642-6.016&#10;&#9;&#9;C225.247,149.475,178.874,153.527,176.913,138.045C175.348,125.682,176.913,138.045,176.913,138.045z"/>
    </g>
  </g>
  <g transform="matrix(0.584261, 0, 0, 0.584261, 0.56872, 44.26524)" style="">
    <title>logo</title>
    <g>
      <g>
        <g>
          <path class="st4" d="M40.2,101.1c-0.4,0-0.5-0.2-0.3-0.5l2.1-2.7c0.2-0.3,0.7-0.5,1.1-0.5l35.7,0c0.4,0,0.5,0.3,0.3,0.6&#10;&#9;&#9;&#9;&#9;&#9;l-1.7,2.6c-0.2,0.3-0.7,0.6-1,0.6L40.2,101.1z" style="fill: rgb(0, 172, 215);"/>
        </g>
      </g>
    </g>
    <g>
      <g>
        <g>
          <path class="st4" d="M25.1,110.3c-0.4,0-0.5-0.2-0.3-0.5l2.1-2.7c0.2-0.3,0.7-0.5,1.1-0.5l45.6,0c0.4,0,0.6,0.3,0.5,0.6&#10;&#9;&#9;&#9;&#9;&#9;l-0.8,2.4c-0.1,0.4-0.5,0.6-0.9,0.6L25.1,110.3z" style="fill: rgb(0, 172, 215);"/>
        </g>
      </g>
    </g>
    <g>
      <g>
        <g>
          <path class="st4" d="M49.3,119.5c-0.4,0-0.5-0.3-0.3-0.6l1.4-2.5c0.2-0.3,0.6-0.6,1-0.6l20,0c0.4,0,0.6,0.3,0.6,0.7l-0.2,2.4&#10;&#9;&#9;&#9;&#9;&#9;c0,0.4-0.4,0.7-0.7,0.7L49.3,119.5z" style="fill: rgb(0, 172, 215);"/>
        </g>
      </g>
    </g>
    <g>
      <g id="CXHf1q_3_">
        <g>
          <g>
            <path class="st4" d="M153.1,99.3c-6.3,1.6-10.6,2.8-16.8,4.4c-1.5,0.4-1.6,0.5-2.9-1c-1.5-1.7-2.6-2.8-4.7-3.8&#10;&#9;&#9;&#9;&#9;&#9;&#9;c-6.3-3.1-12.4-2.2-18.1,1.5c-6.8,4.4-10.3,10.9-10.2,19c0.1,8,5.6,14.6,13.5,15.7c6.8,0.9,12.5-1.5,17-6.6&#10;&#9;&#9;&#9;&#9;&#9;&#9;c0.9-1.1,1.7-2.3,2.7-3.7c-3.6,0-8.1,0-19.3,0c-2.1,0-2.6-1.3-1.9-3c1.3-3.1,3.7-8.3,5.1-10.9c0.3-0.6,1-1.6,2.5-1.6&#10;&#9;&#9;&#9;&#9;&#9;&#9;c5.1,0,23.9,0,36.4,0c-0.2,2.7-0.2,5.4-0.6,8.1c-1.1,7.2-3.8,13.8-8.2,19.6c-7.2,9.5-16.6,15.4-28.5,17&#10;&#9;&#9;&#9;&#9;&#9;&#9;c-9.8,1.3-18.9-0.6-26.9-6.6c-7.4-5.6-11.6-13-12.7-22.2c-1.3-10.9,1.9-20.7,8.5-29.3c7.1-9.3,16.5-15.2,28-17.3&#10;&#9;&#9;&#9;&#9;&#9;&#9;c9.4-1.7,18.4-0.6,26.5,4.9c5.3,3.5,9.1,8.3,11.6,14.1C154.7,98.5,154.3,99,153.1,99.3z" style="fill: rgb(0, 172, 215);"/>
          </g>
          <g>
            <path class="st4" d="M186.2,154.6c-9.1-0.2-17.4-2.8-24.4-8.8c-5.9-5.1-9.6-11.6-10.8-19.3c-1.8-11.3,1.3-21.3,8.1-30.2&#10;&#9;&#9;&#9;&#9;&#9;&#9;c7.3-9.6,16.1-14.6,28-16.7c10.2-1.8,19.8-0.8,28.5,5.1c7.9,5.4,12.8,12.7,14.1,22.3c1.7,13.5-2.2,24.5-11.5,33.9&#10;&#9;&#9;&#9;&#9;&#9;&#9;c-6.6,6.7-14.7,10.9-24,12.8C191.5,154.2,188.8,154.3,186.2,154.6z M210,114.2c-0.1-1.3-0.1-2.3-0.3-3.3&#10;&#9;&#9;&#9;&#9;&#9;&#9;c-1.8-9.9-10.9-15.5-20.4-13.3c-9.3,2.1-15.3,8-17.5,17.4c-1.8,7.8,2,15.7,9.2,18.9c5.5,2.4,11,2.1,16.3-0.6&#10;&#9;&#9;&#9;&#9;&#9;&#9;C205.2,129.2,209.5,122.8,210,114.2z" style="fill: rgb(0, 172, 215);"/>
          </g>
        </g>
      </g>
    </g>
  </g>
</svg>