<?xml version="1.0" encoding="utf-8"?>
<svg height="100%" style="fill-rule:evenodd;clip-rule:evenodd;stroke-linecap:round;stroke-linejoin:round;" width="100%" version="1.1" viewBox="0 0 150 150" xmlns="http://www.w3.org/2000/svg" xmlns:bx="https://boxy-svg.com">
  <defs>
    <bx:grid x="0" y="0" width="15" height="15"/>
  </defs>
  <rect width="120" height="120" style="fill: none; stroke-width: 0.2px; stroke: rgb(84, 84, 84); pointer-events: none; visibility: hidden;" x="15" y="15"/>
  <path d="M 129.955 113.337 L 121.706 65.993 C 121.706 65.991 121.706 65.988 121.705 65.987 L 118.955 50.205 C 118.794 49.287 118.238 48.54 117.496 48.115 C 116.919 47.785 116.227 47.646 115.524 47.772 L 61.208 57.465 L 113.036 38.372 C 114.573 37.807 115.365 36.086 114.807 34.531 L 109.39 19.471 C 109.122 18.723 108.57 18.115 107.859 17.779 C 107.146 17.447 106.332 17.409 105.594 17.679 L 21.949 48.491 C 20.413 49.059 19.62 50.779 20.179 52.334 L 25.507 67.148 L 28.211 82.672 C 28.211 82.672 28.211 82.672 28.211 82.672 L 36.46 130.022 C 36.598 130.805 37.034 131.502 37.679 131.957 C 38.18 132.313 38.774 132.5 39.378 132.5 C 39.549 132.5 39.721 132.485 39.892 132.453 L 127.553 116.809 C 128.326 116.673 129.014 116.229 129.464 115.576 C 129.914 114.926 130.091 114.121 129.955 113.337 Z M 115.355 64.076 L 104.38 66.035 L 110.467 54.764 L 113.635 54.198 L 115.355 64.076 Z M 31.81 68.8 L 42.822 66.835 L 36.733 78.107 L 33.531 78.679 L 31.81 68.8 Z M 56.405 42.18 L 52.344 54.349 L 40.334 58.775 L 44.395 46.604 L 56.405 42.18 Z M 75.546 35.129 L 71.484 47.298 L 59.473 51.722 L 63.534 39.553 L 75.546 35.129 Z M 94.683 28.079 L 90.625 40.249 L 78.613 44.673 L 82.674 32.503 L 94.683 28.079 Z M 50.292 65.502 L 62.878 63.256 L 56.791 74.528 L 44.205 76.774 L 50.292 65.502 Z M 70.351 61.923 L 82.938 59.676 L 76.85 70.946 L 64.264 73.194 L 70.351 61.923 Z M 90.409 58.343 L 102.995 56.096 L 96.908 67.368 L 84.322 69.614 L 90.409 58.343 Z M 108.225 33.764 L 97.752 37.623 L 101.813 25.453 L 104.836 24.339 L 108.225 33.764 Z M 37.266 49.23 L 33.204 61.4 L 30.148 62.526 L 26.759 53.101 L 37.266 49.23 Z M 41.781 126.028 L 34.56 84.583 L 116.385 69.983 L 123.606 111.427 L 41.781 126.028 Z" style="stroke-width: 1; fill: rgb(214, 214, 214);"/>
</svg>