<?xml version="1.0" encoding="utf-8"?>
<svg height="100%" style="fill-rule:evenodd;clip-rule:evenodd;stroke-linecap:round;stroke-linejoin:round;" width="100%" version="1.1" viewBox="0 0 150 150" xmlns="http://www.w3.org/2000/svg" xmlns:bx="https://boxy-svg.com">
  <defs>
    <bx:grid x="0" y="0" width="15" height="15"/>
  </defs>
  <rect width="120" height="120" style="fill: none; stroke-width: 0.2px; stroke: #ffffff; pointer-events: none; visibility: hidden;" x="15" y="15"/>
  <ellipse style="fill: none; stroke: rgb(0, 0, 0); stroke-width: 2px;" cx="75" cy="75" rx="60" ry="60"/>
  <g style="" transform="matrix(0.93012, 0, 0, 0.93012, 5.250277, 5.32662)">
    <rect x="44.432" y="30.223" width="59.861" height="44.737" style="stroke: rgb(0, 0, 0); fill: none; stroke-width: 1.876;" rx="6.115" ry="6.115"/>
    <polyline style="stroke: rgb(0, 0, 0); stroke-width: 1.876; fill: none;" points="52.479 38.507 60.215 45.272 52.267 51.465"/>
    <line style="stroke: rgb(0, 0, 0); fill: none; stroke-width: 1.876;" x1="60.551" y1="51.252" x2="70.96" y2="51.252"/>
    <line style="stroke: rgb(0, 0, 0); fill: none; stroke-width: 1.876;" x1="46.147" y1="89.027" x2="60.215" y2="74.959"/>
    <line style="stroke: rgb(0, 0, 0); fill: none; stroke-width: 1.876;" x1="102.417" y1="89.027" x2="88.35" y2="74.959"/>
    <line style="stroke: rgb(0, 0, 0); fill: none; stroke-width: 1.876;" x1="74.282" y1="91.848" x2="74.282" y2="74.959"/>
    <path d="M 106.837 96.755 C 106.837 96.846 106.746 96.846 106.746 96.846 L 106.655 96.846 C 106.563 96.846 106.563 96.755 106.471 96.664 C 106.471 96.664 106.38 96.572 106.38 96.48 C 106.38 96.389 106.38 96.389 106.471 96.389 L 106.655 96.48 C 106.746 96.572 106.837 96.664 106.837 96.755 M 105.19 95.839 C 105.19 95.382 105.006 95.108 104.732 95.108 C 104.732 95.108 104.732 95.199 104.64 95.199 L 104.64 95.382 L 104.915 95.382 C 104.915 95.564 105.006 95.657 105.006 95.839 L 105.19 95.839 M 108.393 95.382 C 108.576 95.382 108.667 95.564 108.759 95.839 L 108.942 95.839 C 108.851 95.748 108.851 95.657 108.851 95.564 C 108.851 95.473 108.851 95.382 108.759 95.291 C 108.667 95.199 108.576 95.108 108.484 95.108 C 108.484 95.108 108.393 95.199 108.301 95.199 C 108.301 95.291 108.393 95.291 108.393 95.382 M 105.647 96.846 C 105.555 96.846 105.555 96.846 105.555 96.755 C 105.555 96.664 105.555 96.572 105.647 96.48 C 105.83 96.48 105.921 96.389 105.921 96.389 C 106.014 96.389 106.014 96.48 106.014 96.48 C 106.014 96.572 105.921 96.664 105.739 96.846 L 105.647 96.846 M 104.64 96.755 C 104.274 96.572 104.183 96.298 104.183 95.839 C 104.183 95.564 104.183 95.382 104.365 95.199 C 104.458 95.016 104.64 94.924 104.824 94.924 C 105.006 94.924 105.099 95.016 105.281 95.199 C 105.374 95.473 105.465 95.748 105.465 96.023 L 105.465 96.205 L 105.555 96.205 L 105.555 96.114 C 105.647 96.114 105.647 95.931 105.647 95.564 C 105.647 95.291 105.647 95.016 105.465 94.742 C 105.281 94.467 105.099 94.283 104.732 94.283 C 104.458 94.283 104.183 94.467 104.092 94.742 C 103.909 95.108 103.872 95.382 103.872 95.839 C 103.872 96.205 104 96.572 104.365 96.938 C 104.458 96.846 104.549 96.846 104.64 96.755 M 116.08 109.659 C 116.173 109.659 116.173 109.623 116.173 109.541 C 116.173 109.339 116.08 109.101 115.807 108.835 C 115.532 108.561 115.074 108.387 114.526 108.314 C 114.433 108.304 114.342 108.304 114.342 108.304 C 114.251 108.287 114.251 108.287 114.158 108.287 C 114.067 108.277 113.885 108.258 113.792 108.24 C 114.067 107.389 114.158 106.639 114.158 105.98 C 114.158 105.065 113.976 104.424 113.611 103.875 C 113.243 103.326 112.877 103.052 112.42 102.959 C 112.329 103.052 112.329 103.052 112.329 103.143 C 112.786 103.326 113.243 103.693 113.518 104.241 C 113.792 104.881 113.885 105.43 113.885 106.071 C 113.885 106.584 113.792 107.344 113.427 108.314 C 113.061 108.461 112.695 108.798 112.42 109.33 C 112.42 109.412 112.42 109.458 112.511 109.458 C 112.511 109.458 112.602 109.375 112.695 109.219 C 112.877 109.065 112.97 108.908 113.152 108.753 C 113.427 108.598 113.611 108.515 113.885 108.515 C 114.342 108.515 114.799 108.579 115.074 108.707 C 115.439 108.826 115.623 108.955 115.714 109.101 C 115.807 109.237 115.898 109.367 115.989 109.485 C 115.989 109.605 116.08 109.659 116.08 109.659 M 107.661 96.389 C 107.569 96.298 107.569 96.114 107.569 95.931 C 107.569 95.564 107.569 95.382 107.752 95.108 C 107.936 94.924 108.119 94.833 108.301 94.833 C 108.576 94.833 108.759 95.016 108.942 95.199 C 109.034 95.473 109.125 95.657 109.125 95.931 C 109.125 96.389 108.942 96.664 108.576 96.755 C 108.576 96.755 108.667 96.846 108.759 96.846 C 108.942 96.846 109.034 96.938 109.217 97.029 C 109.309 96.48 109.4 96.114 109.4 95.657 C 109.4 95.108 109.309 94.742 109.125 94.467 C 108.851 94.192 108.576 94.1 108.21 94.1 C 107.936 94.1 107.661 94.192 107.386 94.375 C 107.203 94.649 107.111 94.833 107.111 95.108 C 107.111 95.564 107.203 95.931 107.386 96.298 C 107.478 96.298 107.569 96.389 107.661 96.389 M 108.759 97.854 C 107.569 98.676 106.655 99.042 105.921 99.042 C 105.281 99.042 104.64 98.769 104.092 98.31 C 104.183 98.494 104.274 98.676 104.365 98.769 L 104.915 99.317 C 105.281 99.682 105.739 99.866 106.196 99.866 C 106.837 99.866 107.569 99.501 108.484 98.86 L 109.309 98.31 C 109.492 98.128 109.674 97.945 109.674 97.67 C 109.674 97.579 109.674 97.486 109.583 97.486 C 109.492 97.304 109.034 97.029 108.119 96.755 C 107.295 96.389 106.655 96.205 106.288 96.205 C 106.014 96.205 105.555 96.389 104.915 96.755 C 104.365 97.12 104 97.486 104 97.854 C 104 97.854 104.092 97.945 104.183 98.128 C 104.732 98.585 105.281 98.86 105.83 98.86 C 106.563 98.86 107.478 98.494 108.667 97.579 L 108.667 97.761 C 108.759 97.761 108.759 97.854 108.759 97.854 M 110.865 116.34 C 111.23 117.028 111.871 117.375 112.602 117.375 C 112.786 117.375 112.97 117.347 113.152 117.292 C 113.336 117.256 113.518 117.191 113.611 117.118 C 113.702 117.054 113.792 116.99 113.885 116.916 C 114.067 116.852 114.067 116.806 114.158 116.761 L 115.714 115.417 C 116.08 115.124 116.448 114.868 116.904 114.647 C 117.27 114.427 117.636 114.281 117.82 114.199 C 118.094 114.125 118.277 114.015 118.46 113.868 C 118.551 113.731 118.644 113.559 118.644 113.338 C 118.644 113.073 118.46 112.871 118.277 112.725 C 118.094 112.58 117.911 112.477 117.729 112.414 C 117.545 112.35 117.362 112.204 117.088 111.956 C 116.904 111.719 116.722 111.389 116.629 110.959 L 116.538 110.427 C 116.448 110.18 116.448 109.998 116.355 109.897 C 116.355 109.87 116.355 109.861 116.264 109.861 C 116.173 109.861 115.989 109.943 115.898 110.098 C 115.714 110.254 115.532 110.427 115.348 110.611 C 115.257 110.793 114.983 110.959 114.799 111.115 C 114.526 111.269 114.251 111.352 114.067 111.352 C 113.336 111.352 112.97 111.151 112.695 110.756 C 112.511 110.464 112.42 110.125 112.329 109.742 C 112.146 109.586 112.055 109.504 111.871 109.504 C 111.413 109.504 111.23 109.98 111.23 110.94 L 111.23 113.787 C 111.23 113.868 111.139 114.052 111.139 114.335 C 111.047 114.619 111.047 114.941 111.047 115.306 L 110.865 116.323 L 110.865 116.338 M 97.593 115.854 C 98.445 115.977 99.424 116.244 100.531 116.65 C 101.639 117.053 102.316 117.263 102.564 117.263 C 103.204 117.263 103.734 116.979 104.174 116.431 C 104.265 116.255 104.265 116.045 104.265 115.806 C 104.265 114.94 103.744 113.848 102.701 112.52 L 102.078 111.688 C 101.95 111.513 101.795 111.248 101.594 110.891 C 101.401 110.534 101.226 110.259 101.089 110.068 C 100.97 109.857 100.779 109.646 100.531 109.435 C 100.293 109.226 100.018 109.088 99.716 109.015 C 99.333 109.088 99.067 109.217 98.939 109.39 C 98.811 109.564 98.737 109.756 98.72 109.957 C 98.691 110.15 98.637 110.277 98.546 110.342 C 98.454 110.397 98.298 110.443 98.087 110.488 C 98.042 110.488 97.96 110.488 97.841 110.498 L 97.593 110.498 C 97.108 110.498 96.779 110.552 96.605 110.644 C 96.377 110.909 96.257 111.211 96.257 111.531 C 96.257 111.678 96.293 111.926 96.367 112.272 C 96.441 112.611 96.477 112.886 96.477 113.078 C 96.477 113.453 96.367 113.829 96.139 114.204 C 95.91 114.598 95.791 114.89 95.791 115.099 C 95.883 115.454 96.487 115.704 97.593 115.851 M 100.641 107.531 C 100.641 106.9 100.806 106.204 101.145 105.381 C 101.474 104.556 101.803 104.007 102.124 103.641 C 102.105 103.55 102.06 103.55 101.987 103.55 L 101.894 103.459 C 101.629 103.734 101.31 104.374 100.924 105.289 C 100.541 106.112 100.339 106.872 100.339 107.431 C 100.339 107.843 100.441 108.199 100.622 108.51 C 100.824 108.812 101.31 109.252 102.078 109.811 L 103.048 110.441 C 104.083 111.338 104.632 111.961 104.632 112.327 C 104.632 112.519 104.54 112.712 104.265 112.921 C 104.083 113.141 103.835 113.252 103.624 113.252 C 103.607 113.252 103.597 113.27 103.597 113.316 C 103.597 113.325 103.688 113.507 103.881 113.864 C 104.265 114.386 105.089 114.643 106.187 114.643 C 108.201 114.643 109.757 113.818 110.946 112.172 C 110.946 111.714 110.946 111.431 110.854 111.311 L 110.854 110.972 C 110.854 110.378 110.946 109.929 111.129 109.637 C 111.313 109.343 111.496 109.205 111.77 109.205 C 111.953 109.205 112.136 109.269 112.319 109.408 C 112.411 108.703 112.411 108.09 112.411 107.541 C 112.411 106.707 112.411 106.021 112.228 105.381 C 112.136 104.831 111.953 104.374 111.77 104.007 L 111.221 103.184 C 111.038 102.91 110.946 102.635 110.763 102.36 C 110.672 101.994 110.58 101.719 110.58 101.263 C 110.306 100.804 110.123 100.347 109.848 99.889 C 109.666 99.432 109.482 98.973 109.298 98.608 L 108.476 99.248 C 107.561 99.889 106.829 100.164 106.187 100.164 C 105.639 100.164 105.18 100.073 104.906 99.707 L 104.358 99.248 C 104.358 99.523 104.265 99.889 104.083 100.255 L 103.506 101.354 C 103.249 101.994 103.113 102.36 103.084 102.635 C 103.048 102.819 103.02 103.001 103.003 103.001 L 102.316 104.374 C 101.574 105.747 101.199 107.018 101.199 108.071 C 101.199 108.282 101.218 108.501 101.255 108.721 C 100.843 108.437 100.641 108.044 100.641 107.531 M 107.195 116.189 C 106.005 116.189 105.089 116.351 104.449 116.67 L 104.449 116.642 C 103.991 117.191 103.479 117.475 102.764 117.475 C 102.316 117.475 101.612 117.302 100.659 116.954 C 99.699 116.625 98.848 116.37 98.106 116.205 C 98.033 116.184 97.868 116.153 97.604 116.111 C 97.347 116.068 97.108 116.027 96.898 115.985 C 96.706 115.944 96.487 115.882 96.248 115.797 C 96.02 115.725 95.837 115.63 95.699 115.517 C 95.572 115.401 95.511 115.27 95.511 115.125 C 95.511 114.98 95.541 114.823 95.604 114.656 C 95.662 114.556 95.726 114.454 95.791 114.363 C 95.854 114.263 95.91 114.17 95.946 114.079 C 96.001 113.998 96.037 113.915 96.075 113.824 C 96.111 113.741 96.148 113.659 96.166 113.559 C 96.185 113.466 96.202 113.375 96.202 113.284 C 96.202 113.191 96.166 112.918 96.092 112.432 C 96.02 111.956 95.983 111.654 95.983 111.526 C 95.983 111.124 96.075 110.803 96.276 110.575 C 96.477 110.346 96.669 110.227 96.87 110.227 L 97.922 110.227 C 98.006 110.227 98.133 110.18 98.326 110.071 C 98.389 109.925 98.445 109.805 98.481 109.696 C 98.526 109.586 98.546 109.504 98.564 109.467 C 98.583 109.412 98.6 109.357 98.619 109.311 C 98.655 109.247 98.701 109.173 98.765 109.101 C 98.691 109.009 98.655 108.89 98.655 108.744 C 98.655 108.644 98.655 108.552 98.674 108.497 C 98.674 108.167 98.828 107.701 99.159 107.088 L 99.479 106.511 C 99.744 106.017 99.945 105.651 100.093 105.285 C 100.247 104.917 100.411 104.37 100.595 103.636 C 100.742 102.996 101.089 102.355 101.639 101.715 L 102.326 100.892 C 102.801 100.343 103.113 99.884 103.286 99.518 C 103.459 99.153 103.552 98.695 103.552 98.329 C 103.552 98.146 103.506 97.597 103.405 96.681 C 103.313 95.767 103.268 94.852 103.268 94.027 C 103.268 93.387 103.322 92.93 103.443 92.471 C 103.561 92.015 103.772 91.556 104.083 91.19 C 104.358 90.825 104.724 90.459 105.273 90.275 C 105.821 90.092 106.461 90 107.195 90 C 107.468 90 107.743 90 108.017 90.092 C 108.292 90.092 108.658 90.184 109.116 90.366 C 109.482 90.55 109.848 90.734 110.123 91.007 C 110.488 91.281 110.763 91.74 111.038 92.197 C 111.221 92.746 111.404 93.296 111.496 94.027 C 111.588 94.485 111.588 94.943 111.679 95.583 C 111.679 96.133 111.77 96.499 111.77 96.773 C 111.861 97.047 111.861 97.414 111.953 97.872 C 112.044 98.237 112.136 98.603 112.319 98.878 C 112.503 99.244 112.685 99.61 112.96 99.977 C 113.234 100.434 113.6 100.892 113.967 101.44 C 114.79 102.355 115.431 103.363 115.798 104.37 C 116.254 105.285 116.529 106.473 116.529 107.747 C 116.529 108.378 116.438 108.991 116.254 109.586 C 116.438 109.586 116.529 109.659 116.62 109.787 C 116.713 109.916 116.804 110.19 116.895 110.62 L 116.988 111.298 C 117.079 111.499 117.17 111.691 117.444 111.856 C 117.628 112.021 117.81 112.158 118.085 112.267 C 118.269 112.359 118.544 112.487 118.726 112.652 C 118.909 112.835 119 113.027 119 113.228 C 119 113.539 118.909 113.768 118.726 113.933 C 118.544 114.116 118.36 114.244 118.085 114.327 C 117.901 114.418 117.535 114.602 116.988 114.859 C 116.529 115.13 116.072 115.459 115.614 115.847 L 114.698 116.626 C 114.333 116.983 113.967 117.24 113.692 117.395 C 113.417 117.56 113.052 117.642 112.685 117.642 L 112.044 117.569 C 111.313 117.378 110.854 117.011 110.58 116.453 C 109.116 116.275 107.926 116.187 107.195 116.187" style="stroke-width: 0.938;"/>
    <path d="M 31.266 97.301 L 40.204 96.084 L 40.208 104.706 L 31.274 104.757 L 31.266 97.301 Z M 40.199 105.699 L 40.207 114.329 L 31.272 113.1 L 31.272 105.641 L 40.199 105.699 Z M 41.284 95.925 L 53.134 94.195 L 53.134 104.597 L 41.284 104.691 L 41.284 95.925 Z M 53.138 105.78 L 53.134 116.135 L 41.284 114.462 L 41.267 105.761 L 53.138 105.78 Z" style="stroke-width: 0.938;"/>
    <path d="M 84.93 104.309 C 84.772 104.433 81.988 106.001 81.988 109.489 C 81.988 113.524 85.531 114.952 85.636 114.988 C 85.62 115.074 85.073 116.941 83.769 118.845 C 82.604 120.521 81.39 122.192 79.54 122.192 C 77.692 122.192 77.216 121.119 75.08 121.119 C 73.001 121.119 72.261 122.228 70.57 122.228 C 68.879 122.228 67.699 120.678 66.342 118.775 C 64.771 116.539 63.501 113.068 63.501 109.772 C 63.501 104.485 66.937 101.684 70.32 101.684 C 72.119 101.684 73.616 102.863 74.744 102.863 C 75.819 102.863 77.494 101.613 79.539 101.613 C 80.313 101.613 83.097 101.684 84.93 104.309 Z M 78.566 99.375 C 79.412 98.372 80.012 96.98 80.012 95.588 C 80.012 95.395 79.995 95.198 79.96 95.041 C 78.583 95.093 76.946 95.956 75.958 97.102 C 75.185 97.983 74.462 99.375 74.462 100.786 C 74.462 100.998 74.497 101.209 74.513 101.279 C 74.601 101.294 74.742 101.313 74.884 101.313 C 76.118 101.313 77.669 100.487 78.566 99.375 Z" style="stroke-width: 0.938;"/>
  </g>
</svg>