<?xml version="1.0" encoding="utf-8"?>
<svg height="100%" style="fill-rule:evenodd;clip-rule:evenodd;stroke-linecap:round;stroke-linejoin:round;" width="100%" version="1.1" viewBox="0 0 150 150" xmlns="http://www.w3.org/2000/svg" xmlns:bx="https://boxy-svg.com">
  <defs>
    <bx:grid x="0" y="0" width="15" height="15"/>
  </defs>
  <rect width="120" height="120" style="fill: none; stroke-width: 0.2px; stroke: rgb(84, 84, 84); pointer-events: none; visibility: hidden;" x="15" y="15"/>
  <path d="M 75.101 47.674 C 62.603 47.674 52.091 56.249 48.885 67.755 C 46.095 61.601 39.918 57.224 32.756 57.224 C 22.972 57.285 15.041 65.216 15 74.999 C 15.041 84.783 22.968 92.715 32.756 92.774 C 39.923 92.774 46.076 88.399 48.885 82.226 C 52.091 93.749 62.599 102.326 75.101 102.326 C 87.521 102.326 97.972 93.851 101.25 82.421 C 104.082 88.477 110.156 92.774 117.225 92.774 C 127.031 92.715 134.959 84.783 135 74.999 C 134.959 65.216 127.031 57.285 117.225 57.224 C 110.156 57.224 104.082 61.526 101.231 67.578 C 97.972 56.149 87.521 47.674 75.101 47.674 Z M 75.101 58.106 C 84.476 58.106 91.976 65.606 91.976 74.999 C 91.976 84.393 84.476 91.893 75.101 91.893 C 65.741 91.934 58.166 84.334 58.208 74.999 C 58.208 65.606 65.708 58.106 75.101 58.106 Z M 32.756 67.653 C 36.878 67.653 40.103 70.878 40.103 74.999 C 40.103 79.121 36.878 82.346 32.756 82.346 C 28.691 82.387 25.373 79.061 25.432 74.999 C 25.432 70.878 28.653 67.653 32.756 67.653 Z M 117.225 67.653 C 121.35 67.653 124.571 70.878 124.571 74.999 C 124.571 79.121 121.35 82.346 117.225 82.346 C 113.164 82.387 109.864 79.061 109.901 74.999 C 109.901 70.878 113.126 67.653 117.225 67.653 Z" style="stroke-width: 25;"/>
</svg>