<?xml version="1.0" encoding="utf-8"?>
<svg height="100%" style="fill-rule:evenodd;clip-rule:evenodd;stroke-linecap:round;stroke-linejoin:round;" width="100%" version="1.1" viewBox="0 0 150 150" xmlns="http://www.w3.org/2000/svg" xmlns:bx="https://boxy-svg.com">
  <defs>
    <bx:grid x="0" y="0" width="15" height="15"/>
  </defs>
  <rect width="120" height="120" style="fill: none; stroke-width: 0.2px; stroke: rgb(84, 84, 84); pointer-events: none; visibility: hidden;" x="15" y="15"/>
  <g style="" transform="matrix(0.147188, 0, 0, 0.147188, 62.830273, 65.689178)">
    <polygon class="cls-1" points="-321.6 299.876 -321.6 296.526 -324.96 294.846 -324.96 298.206 -321.6 299.876" style="fill: rgb(250, 164, 47); fill-rule: evenodd; stroke-width: 1;"/>
    <polygon class="cls-2" points="-324.96 181.286 -321.6 179.046 -321.6 120.866 -324.96 119.206 -324.96 181.286" style="fill: rgb(221, 176, 42); fill-rule: evenodd; stroke-width: 1;"/>
    <polygon class="cls-3" points="-324.96 294.846 -321.6 296.526 -281.26 273.026 -281.26 202.546 -321.6 179.046 -324.96 181.286 -324.96 294.846" style="fill: rgb(196, 119, 40); fill-rule: evenodd; stroke-width: 1;"/>
    <polygon class="cls-4" points="-223.54 356.926 -220.18 354.706 -169.75 384.346 -169.75 387.716 -223.54 356.926" style="fill: rgb(241, 89, 51); fill-rule: evenodd; stroke-width: 1;"/>
    <polygon class="cls-5" points="-223.54 356.926 -220.18 354.706 -220.18 308.276 -281.26 273.026 -321.6 296.526 -321.6 299.876 -223.54 356.926" style="fill: rgb(243, 113, 50); fill-rule: evenodd; stroke-width: 1;"/>
    <polygon class="cls-6" points="-324.96 5.646 -321.6 3.966 -321.6 -54.774 -324.96 -56.464 -324.96 5.646" style="fill: rgb(214, 224, 66); fill-rule: evenodd; stroke-width: 1;"/>
    <path class="cls-7" d="M -324.96 119.206 L -321.61 120.866 L -286.31 100.736 C -287.9 88.308 -288.64 75.786 -288.54 63.256 C -288.54 50.376 -287.42 36.946 -286.31 24.096 L -321.61 3.936 L -324.96 5.616 L -324.96 119.206 Z" style="fill: rgb(252, 234, 59); fill-rule: evenodd; stroke-width: 1;"/>
    <path class="cls-1" d="M -321.61 179.606 L -281.26 202.546 L -220.18 167.856 L -220.18 120.856 L -249.89 103.536 C -249.32 111.936 -247.64 120.316 -245.96 128.706 L -278.46 147.706 C -282.43 132.296 -285.06 116.571 -286.31 100.706 L -321.61 120.836 L -321.61 179.606 Z" style="fill: rgb(250, 164, 47); fill-rule: evenodd; stroke-width: 1;"/>
    <path class="cls-4" d="M -220.18 354.706 L -220.18 308.276 L -203.94 298.766 L -204.49 298.216 C -196.65 307.716 -188.25 316.656 -179.84 325.056 C -165.75 339.097 -150.58 352 -134.46 363.646 L -169.76 384.346 L -220.18 354.706 Z M -159.67 273.036 L -118.77 296.526 L -118.77 330.646 C -131.41 321.439 -143.22 311.143 -154.07 299.876 C -160.66 293.772 -166.84 287.234 -172.56 280.306 L -159.67 273.036 Z" style="fill: rgb(241, 89, 51); fill-rule: evenodd; stroke-width: 1;"/>
    <polygon class="cls-8" points="-17.337 475.536 -17.337 471.616 -68.327 442.536 -71.127 444.216 -17.337 475.536" style="fill: rgb(226, 37, 116); fill-rule: evenodd; stroke-width: 1;"/>
    <path class="cls-9" d="M -71.127 444.216 L -68.327 442.536 L -68.327 401.686 C -91.674 391.437 -113.85 378.697 -134.46 363.686 L -169.76 384.386 L -169.76 387.756 L -71.127 444.216 Z" style="fill: rgb(239, 56, 57); fill-rule: evenodd; stroke-width: 1;"/>
    <polygon class="cls-10" points="-324.96 -170.01 -321.6 -171.69 -321.6 -173.36 -324.96 -171.69 -324.96 -170.01" style="fill: rgb(187, 214, 75); fill-rule: evenodd; stroke-width: 1;"/>
    <polygon class="cls-6" points="-324.96 -56.464 -321.6 -54.774 -271.17 -83.864 -271.17 -142.59 -321.6 -171.69 -324.96 -170.01 -324.96 -56.464" style="fill: rgb(214, 224, 66); fill-rule: evenodd; stroke-width: 1;"/>
    <path class="cls-11" d="M -321.61 3.936 L -286.31 24.066 C -282.43 -10.885 -273.75 -45.134 -260.52 -77.714 L -271.17 -83.854 L -321.61 -54.774 L -321.61 3.936 Z M -249.89 20.716 L -220.18 3.936 L -220.18 -54.774 L -229.18 -59.824 C -239.48 -33.956 -246.45 -6.882 -249.92 20.746 L -249.89 20.716 Z" style="fill: rgb(255, 207, 41); fill-rule: evenodd; stroke-width: 1;"/>
    <path class="cls-1" d="M -249.89 103.536 L -220.18 120.866 L -169.76 91.786 L -169.76 33.046 L -220.18 3.936 L -249.89 20.716 C -251.67 34.818 -252.6 49.013 -252.68 63.226 C -252.6 76.698 -251.67 90.152 -249.89 103.506 L -249.89 103.536 Z" style="fill: rgb(250, 164, 47); fill-rule: evenodd; stroke-width: 1;"/>
    <polygon class="cls-4" points="-159.67 202.546 -124.37 182.396 -124.37 182.396 -68.327 214.846 -68.327 266.866 -118.76 296.526 -159.67 273.026 -159.67 202.546 -159.67 202.546" style="fill: rgb(241, 89, 51); fill-rule: evenodd; stroke-width: 1;"/>
    <path class="cls-12" d="M -68.327 442.536 L -17.327 471.616 L 33.673 442.536 L 33.673 430.786 C -2.197 425.786 -36.377 416.246 -68.327 401.686 L -68.327 442.536 Z M 33.673 394.416 L 33.673 384.346 L -17.327 354.706 L -47.037 372.046 C -21.238 383.019 5.896 390.541 33.663 394.416 L 33.673 394.416 Z" style="fill: rgb(238, 67, 141); fill-rule: evenodd; stroke-width: 1;"/>
    <polygon class="cls-5" points="-159.67 202.546 -124.37 182.396 -124.37 117.516 -169.75 91.786 -220.18 120.866 -220.18 167.856 -159.67 202.546" style="fill: rgb(243, 113, 50); fill-rule: evenodd; stroke-width: 1;"/>
    <polygon class="cls-13" points="80.723 532.036 84.093 530.356 84.093 471.616 33.653 442.536 -17.337 471.616 -17.337 475.536 80.723 532.036" style="fill: rgb(204, 49, 146); fill-rule: evenodd; stroke-width: 1;"/>
    <path class="cls-14" d="M -47.047 372.046 L -17.337 354.706 L -17.337 296.526 L -68.337 266.866 L -118.78 296.526 L -118.78 330.646 C -96.793 347.538 -72.679 361.457 -47.057 372.046 L -47.047 372.046 Z" style="fill: rgb(189, 32, 37); fill-rule: evenodd; stroke-width: 1;"/>
    <polygon class="cls-15" points="85.753 531.476 84.093 530.356 80.723 532.036 82.963 533.146 85.753 531.476" style="fill: rgb(155, 57, 149); fill-rule: evenodd; stroke-width: 1;"/>
    <polygon class="cls-16" points="-321.6 -171.69 -271.17 -142.59 -220.18 -171.69 -220.18 -230.43 -221.86 -230.99 -321.6 -173.36 -321.6 -171.69" style="fill: rgb(241, 235, 89); fill-rule: evenodd; stroke-width: 1;"/>
    <path class="cls-7" d="M -271.17 -83.854 L -260.52 -77.714 C -247.64 -109.61 -230.27 -138.71 -209.52 -165.53 L -220.17 -171.69 L -271.17 -142.59 L -271.17 -83.854 Z M -229.17 -59.854 L -220.17 -54.804 L -169.75 -83.884 L -169.75 -142.59 L -178.15 -147.07 C -199.32 -120.64 -216.51 -91.245 -229.15 -59.824 L -229.17 -59.854 Z" style="fill: rgb(252, 234, 59); fill-rule: evenodd; stroke-width: 1;"/>
    <polygon class="cls-1" points="-220.18 3.966 -169.75 33.046 -124.37 6.756 -124.37 -55.884 -122.68 -57.014 -169.75 -83.864 -220.18 -54.774 -220.18 3.966" style="fill: rgb(250, 164, 47); fill-rule: evenodd; stroke-width: 1;"/>
    <polygon class="cls-8" points="-17.337 354.706 33.653 384.346 84.093 354.706 84.093 301.006 82.963 301.556 28.053 270.236 -17.337 296.526 -17.337 354.706" style="fill: rgb(226, 37, 116); fill-rule: evenodd; stroke-width: 1;"/>
    <polygon class="cls-17" points="-169.75 91.786 -124.37 117.516 -124.37 6.756 -169.75 33.046 -169.75 91.786" style="fill: rgb(247, 151, 95); fill-rule: evenodd; stroke-width: 1;"/>
    <path class="cls-13" d="M 33.653 442.536 L 84.083 471.616 L 135.083 442.536 L 135.083 430.226 C 117.802 432.457 100.387 433.576 82.963 433.576 C 66.492 433.516 50.036 432.584 33.663 430.786 L 33.653 442.536 Z M 135.073 393.856 L 135.073 384.346 L 84.073 354.706 L 33.643 384.346 L 33.643 394.416 C 49.978 396.682 66.451 397.805 82.943 397.776 C 100.393 397.859 117.822 396.548 135.063 393.856 L 135.073 393.856 Z" style="fill: rgb(204, 49, 146); fill-rule: evenodd; stroke-width: 1;"/>
    <polygon class="cls-18" points="-68.327 266.866 -17.337 296.526 28.053 270.236 -68.327 214.846 -68.327 266.866" style="fill: rgb(211, 31, 38); fill-rule: evenodd; stroke-width: 1;"/>
    <polygon class="cls-19" points="84.093 530.356 85.753 531.476 185.493 473.856 185.493 471.616 135.083 442.536 84.093 471.616 84.093 530.356" style="fill: rgb(115, 32, 106); fill-rule: evenodd; stroke-width: 1;"/>
    <polygon class="cls-6" points="-221.86 -230.99 -220.18 -230.43 -169.75 -259.51 -169.75 -261.2 -221.86 -230.99" style="fill: rgb(214, 224, 66); fill-rule: evenodd; stroke-width: 1;"/>
    <path class="cls-11" d="M -220.18 -171.69 L -209.53 -165.53 C -200.02 -177.28 -189.92 -187.9 -179.84 -198.53 C -165.33 -213.12 -149.58 -226.41 -132.77 -238.25 L -169.77 -259.5 L -220.19 -230.42 L -220.18 -171.69 Z M -178.18 -147.07 L -169.78 -142.59 L -118.78 -171.69 L -118.78 -204.12 C -131.43 -194.93 -143.24 -184.64 -154.08 -173.36 C -162.48 -164.98 -170.32 -156.6 -178.17 -147.07 L -178.18 -147.07 Z" style="fill: rgb(255, 207, 41); fill-rule: evenodd; stroke-width: 1;"/>
    <polygon class="cls-1" points="-169.75 -83.864 -122.68 -57.014 -68.327 -88.334 -68.327 -142.59 -118.76 -171.69 -169.75 -142.59 -169.75 -83.864" style="fill: rgb(250, 164, 47); fill-rule: evenodd; stroke-width: 1;"/>
    <polygon class="cls-20" points="238.173 443.636 236.483 442.536 185.493 471.616 185.493 473.856 238.173 443.636" style="fill: rgb(133, 58, 150); fill-rule: evenodd; stroke-width: 1;"/>
    <polygon class="cls-13" points="84.093 354.706 135.083 384.346 185.493 354.706 185.493 296.526 139.003 269.106 84.093 301.006 84.093 354.706" style="fill: rgb(204, 49, 146); fill-rule: evenodd; stroke-width: 1;"/>
    <path class="cls-15" d="M 135.073 442.536 L 185.493 471.616 L 236.493 442.536 L 236.493 400.536 C 204.271 415.208 170.12 425.205 135.073 430.226 L 135.073 442.536 Z M 214.073 371.486 L 185.493 354.706 L 135.073 384.346 L 135.073 393.856 C 162.533 389.376 189.413 382.106 214.073 371.486 L 214.073 371.486 Z" style="fill: rgb(155, 57, 149); fill-rule: evenodd; stroke-width: 1;"/>
    <path class="cls-11" d="M -169.76 -259.51 L -132.76 -238.26 C -112.58 -252.71 -90.988 -265.08 -68.317 -275.18 L -68.317 -318.25 L -69.447 -318.81 L -169.75 -261.2 L -169.76 -259.51 Z" style="fill: rgb(255, 207, 41); fill-rule: evenodd; stroke-width: 1;"/>
    <path class="cls-21" d="M -118.77 -171.69 L -68.327 -142.59 L -17.327 -171.69 L -17.327 -230.43 L -44.827 -246.06 C -71.727 -235.42 -96.377 -220.88 -118.83 -204.06 L -118.77 -171.69 Z" style="fill: rgb(217, 138, 38); fill-rule: evenodd; stroke-width: 1;"/>
    <path class="cls-22" d="M 236.483 442.536 L 238.163 443.646 L 337.903 386.036 L 337.903 384.346 L 300.903 363.096 C 280.675 377.628 259.096 390.179 236.463 400.576 L 236.483 442.536 Z" style="fill: rgb(143, 79, 159); fill-rule: evenodd; stroke-width: 1;"/>
    <polygon class="cls-5" points="29.733 -144.85 -17.337 -171.69 -68.327 -142.59 -68.327 -88.334 29.733 -144.85" style="fill: rgb(243, 113, 50); fill-rule: evenodd; stroke-width: 1;"/>
    <polygon class="cls-23" points="139.003 269.106 185.493 296.526 236.483 266.866 236.483 213.166 139.003 269.106" style="fill: rgb(210, 75, 155); fill-rule: evenodd; stroke-width: 1;"/>
    <path class="cls-24" d="M 185.493 354.706 L 214.073 371.486 C 240.173 360.454 264.673 345.965 286.913 328.406 L 286.913 296.526 L 236.483 266.866 L 185.483 296.526 L 185.493 354.706 Z" style="fill: rgb(178, 99, 167); fill-rule: evenodd; stroke-width: 1;"/>
    <polygon class="cls-11" points="-69.457 -318.81 -68.327 -318.25 -17.337 -347.36 -17.337 -349.02 -69.457 -318.81" style="fill: rgb(255, 207, 41); fill-rule: evenodd; stroke-width: 1;"/>
    <path class="cls-1" d="M -44.827 -246.06 L -17.367 -230.39 L 23.523 -253.33 L 23.523 -266.23 L 25.773 -266.78 C 1.543 -262.52 -22.136 -255.57 -44.827 -246.06 Z M 23.523 -323.82 L -17.337 -347.35 L -68.337 -318.25 L -68.337 -275.18 C -38.963 -288.08 -8.1 -297.29 23.543 -302.58 L 23.523 -323.82 Z" style="fill: rgb(250, 164, 47); fill-rule: evenodd; stroke-width: 1;"/>
    <path class="cls-25" d="M 300.923 363.096 L 337.923 384.346 L 388.923 354.706 L 388.923 308.276 L 327.823 273.036 L 286.913 296.526 L 286.913 328.406 C 293.653 323.926 299.243 318.896 305.423 313.856 L 337.903 332.326 C 326.226 343.347 313.868 353.624 300.903 363.096 L 300.923 363.096 Z" style="fill: rgb(107, 41, 122); fill-rule: evenodd; stroke-width: 1;"/>
    <polygon class="cls-26" points="390.583 355.816 388.903 354.706 337.913 384.346 337.913 386.026 390.583 355.816" style="fill: rgb(120, 42, 143); fill-rule: evenodd; stroke-width: 1;"/>
    <polygon class="cls-5" points="-17.337 -171.69 29.733 -144.85 82.963 -175.04 84.093 -174.49 84.093 -218.69 23.563 -253.37 -17.337 -230.43 -17.337 -171.69" style="fill: rgb(243, 113, 50); fill-rule: evenodd; stroke-width: 1;"/>
    <polygon class="cls-15" points="236.483 266.866 286.923 296.526 327.823 273.026 327.823 202.546 289.733 180.736 289.733 182.396 236.483 213.166 236.483 266.866" style="fill: rgb(155, 57, 149); fill-rule: evenodd; stroke-width: 1;"/>
    <polygon class="cls-1" points="-17.337 -347.36 23.563 -323.86 84.093 -359.1 84.093 -359.1 84.093 -405.52 82.963 -406.63 -17.337 -349.02 -17.337 -347.36" style="fill: rgb(250, 164, 47); fill-rule: evenodd; stroke-width: 1;"/>
    <polygon class="cls-4" points="84.093 -174.49 84.093 -218.69 84.093 -218.69 145.163 -253.37 145.163 -253.37 185.493 -230.43 185.493 -171.69 137.313 -143.72 84.093 -174.49" style="fill: rgb(241, 89, 51); fill-rule: evenodd; stroke-width: 1;"/>
    <polygon class="cls-26" points="388.903 354.706 390.583 355.816 490.323 298.206 490.323 296.526 449.413 273.026 388.903 308.276 388.903 354.706" style="fill: rgb(120, 42, 143); fill-rule: evenodd; stroke-width: 1;"/>
    <polygon class="cls-27" points="289.733 119.206 337.913 91.786 337.913 33.046 289.733 5.076 289.733 119.206" style="fill: rgb(160, 22, 100); fill-rule: evenodd; stroke-width: 1;"/>
    <polygon class="cls-28" points="236.483 -86.674 236.483 -142.59 185.493 -171.69 137.313 -143.72 236.483 -86.674" style="fill: rgb(192, 32, 38); fill-rule: evenodd; stroke-width: 1;"/>
    <polygon class="cls-15" points="289.733 180.736 327.823 202.546 327.823 202.546 388.903 167.856 388.903 120.866 337.913 91.786 289.733 119.206 289.733 180.736" style="fill: rgb(155, 57, 149); fill-rule: evenodd; stroke-width: 1;"/>
    <path class="cls-4" d="M 145.173 -323.86 L 185.503 -347.35 L 236.503 -318.25 L 236.503 -274.06 C 221.265 -281.01 205.531 -286.81 189.433 -291.41 L 189.433 -253.91 C 197.274 -251.63 204.958 -248.83 212.433 -245.53 L 185.533 -230.43 L 145.173 -253.37 L 145.173 -323.86 Z" style="fill: rgb(241, 89, 51); fill-rule: evenodd; stroke-width: 1;"/>
    <path class="cls-29" d="M 395.633 182.936 C 396.698 181.209 397.456 179.311 397.873 177.326 C 397.456 179.311 396.698 181.209 395.633 182.936 Z M 398.983 175.086 C 407.014 152.468 412.469 129.017 415.243 105.176 L 388.893 120.826 L 388.893 167.826 L 399.553 173.986 L 398.983 175.086 Z M 449.413 202.506 L 490.323 179.006 L 490.323 120.866 L 452.173 99.056 C 448.963 131.199 441.619 162.793 430.323 193.056 L 430.903 191.926 L 449.413 202.506 Z" style="fill: rgb(144, 81, 160); fill-rule: evenodd; stroke-width: 1;"/>
    <polygon class="cls-30" points="289.163 -55.884 337.913 -83.864 337.913 -142.59 286.923 -171.69 236.483 -142.59 236.483 -86.674 289.163 -55.884" style="fill: rgb(176, 27, 74); fill-rule: evenodd; stroke-width: 1;"/>
    <polygon class="cls-31" points="145.163 -323.86 185.493 -347.36 84.093 -405.52 84.093 -359.1 145.163 -323.86" style="fill: rgb(197, 70, 39); fill-rule: evenodd; stroke-width: 1;"/>
    <polygon class="cls-32" points="289.733 5.076 337.913 33.046 388.903 3.966 388.903 -54.774 337.913 -83.864 289.163 -55.884 289.733 -55.884 289.733 5.076" style="fill: rgb(164, 23, 104); fill-rule: evenodd; stroke-width: 1;"/>
    <path class="cls-9" d="M 185.493 -171.69 L 236.493 -142.59 L 286.923 -171.69 L 286.923 -201.9 C 264.242 -219.86 239.158 -234.54 212.403 -245.53 L 185.503 -230.43 L 185.493 -171.69 Z" style="fill: rgb(239, 56, 57); fill-rule: evenodd; stroke-width: 1;"/>
    <path class="cls-15" d="M 337.903 91.786 L 388.903 120.866 L 415.253 105.216 C 417.047 91.287 417.979 77.26 418.043 63.216 C 417.957 48.442 417.026 33.684 415.253 19.016 L 388.893 3.936 L 337.893 33.016 L 337.903 91.786 Z" style="fill: rgb(155, 57, 149); fill-rule: evenodd; stroke-width: 1;"/>
    <path class="cls-25" d="M 452.173 99.056 L 490.293 120.866 L 490.293 3.936 L 451.623 25.746 C 453.223 38.174 453.971 50.696 453.863 63.226 C 453.863 75.526 453.303 87.276 452.173 99.026 L 452.173 99.056 Z" style="fill: rgb(107, 41, 122); fill-rule: evenodd; stroke-width: 1;"/>
    <path class="cls-8" d="M 286.913 -171.69 L 337.913 -142.59 L 344.073 -145.96 C 336.65 -155.61 328.603 -164.77 319.983 -173.36 C 309.494 -183.48 298.457 -193 286.923 -201.9 L 286.913 -171.69 Z M 375.443 -164.4 L 388.893 -171.69 L 388.893 -230.43 L 337.893 -259.51 L 299.803 -237.15 C 315.945 -225.53 331.118 -212.62 345.173 -198.54 C 355.836 -187.69 365.933 -176.3 375.423 -164.4 L 375.443 -164.4 Z" style="fill: rgb(226, 37, 116); fill-rule: evenodd; stroke-width: 1;"/>
    <polygon class="cls-26" points="490.323 179.046 490.323 179.606 490.323 120.866 490.323 120.866 490.323 179.046" style="fill: rgb(120, 42, 143); fill-rule: evenodd; stroke-width: 1;"/>
    <path class="cls-13" d="M 337.903 -83.854 L 388.903 -54.774 L 395.063 -58.144 C 382.868 -89.956 365.649 -119.61 344.063 -145.96 L 337.903 -142.59 L 337.903 -83.854 Z M 426.433 -76.584 L 439.333 -83.854 L 439.333 -142.59 L 388.893 -171.69 L 375.443 -164.4 C 396.287 -137.54 413.44 -108 426.443 -76.584 L 426.433 -76.584 Z" style="fill: rgb(204, 49, 146); fill-rule: evenodd; stroke-width: 1;"/>
    <path class="cls-9" d="M 299.813 -237.15 L 337.903 -259.51 L 236.483 -318.25 L 236.483 -274.06 C 258.793 -263.95 280.013 -251.58 299.813 -237.15 Z" style="fill: rgb(239, 56, 57); fill-rule: evenodd; stroke-width: 1;"/>
    <path class="cls-24" d="M 388.893 3.936 L 415.243 19.026 C 411.5 -7.397 404.725 -33.301 395.053 -58.174 L 388.893 -54.804 L 388.893 3.936 Z M 451.653 25.746 L 490.323 3.936 L 490.323 -54.774 L 439.323 -83.854 L 426.423 -76.584 C 439.323 -44.134 448.273 -10.024 451.643 25.776 L 451.653 25.746 Z" style="fill: rgb(178, 99, 167); fill-rule: evenodd; stroke-width: 1;"/>
    <rect class="cls-33" x="815.28" y="351.86" height="58.74" style="fill: rgb(133, 58, 150); stroke-width: 1;"/>
    <polygon class="cls-34" points="388.903 -171.69 439.333 -142.59 490.323 -171.69 388.903 -230.43 388.903 -171.69" style="fill: rgb(209, 73, 154); fill-rule: evenodd; stroke-width: 1;"/>
    <polygon class="cls-15" points="439.333 -83.864 490.323 -54.774 490.323 -54.774 490.323 -171.69 490.323 -171.69 439.333 -142.59 439.333 -83.864" style="fill: rgb(155, 57, 149); fill-rule: evenodd; stroke-width: 1;"/>
    <polygon class="cls-35" points="449.413 273.026 490.323 296.526 490.323 296.526 490.323 179.606 490.323 179.046 449.413 202.546 449.413 273.026" style="fill: rgb(133, 69, 154); fill-rule: evenodd; stroke-width: 1;"/>
    <rect class="cls-36" x="519.763" y="0.068" style="fill: rgb(52, 17, 68); stroke-width: 1;" transform="matrix(0.180645, -0.590323, 426.269355, -3553.374194, 371.612903, 846.451613)"/>
    <polygon class="cls-4" points="-22.377 118.076 -17.337 120.866 -17.337 126.476 -22.377 123.656 -22.377 118.076" style="fill: rgb(241, 89, 51); fill-rule: evenodd; stroke-width: 1;"/>
    <polygon class="cls-4" points="-22.377 6.756 -17.337 3.966 33.653 33.046 33.653 91.786 -17.337 120.866 -22.377 118.076 -22.377 6.756" style="fill: rgb(241, 89, 51); fill-rule: evenodd; stroke-width: 1;"/>
    <polygon class="cls-8" points="88.013 181.286 84.093 179.046 79.043 182.396 82.963 184.636 88.013 181.286" style="fill: rgb(226, 37, 116); fill-rule: evenodd; stroke-width: 1;"/>
    <polygon class="cls-9" points="79.043 182.396 84.093 179.046 84.093 120.866 33.653 91.786 -17.337 120.866 -17.337 126.476 79.043 182.396" style="fill: rgb(239, 56, 57); fill-rule: evenodd; stroke-width: 1;"/>
    <polygon class="cls-37" points="84.093 179.046 88.013 181.286 185.493 124.786 185.493 120.866 135.083 91.786 84.093 120.866 84.093 179.046" style="fill: rgb(238, 63, 138); fill-rule: evenodd; stroke-width: 1;"/>
    <polygon class="cls-9" points="33.653 91.786 84.093 120.866 135.083 91.786 135.083 33.046 84.093 3.966 33.653 33.046 33.653 91.786" style="fill: rgb(239, 56, 57); fill-rule: evenodd; stroke-width: 1;"/>
    <polygon class="cls-8" points="135.083 91.786 185.493 120.866 187.753 119.756 187.753 5.076 185.493 3.966 135.083 33.046 135.083 91.786" style="fill: rgb(226, 37, 116); fill-rule: evenodd; stroke-width: 1;"/>
    <polygon class="cls-13" points="187.753 119.756 185.493 120.866 185.493 124.786 187.753 123.656 187.753 119.756" style="fill: rgb(204, 49, 146); fill-rule: evenodd; stroke-width: 1;"/>
    <polygon class="cls-5" points="-22.377 6.756 -17.337 3.966 -17.337 0.036 -22.377 2.836 -22.377 6.756" style="fill: rgb(243, 113, 50); fill-rule: evenodd; stroke-width: 1;"/>
    <polygon class="cls-4" points="-17.337 3.966 -17.337 0.036 80.723 -56.464 84.093 -54.774 84.093 3.966 33.653 33.046 -17.337 3.966" style="fill: rgb(241, 89, 51); fill-rule: evenodd; stroke-width: 1;"/>
    <polygon class="cls-38" points="86.333 -55.884 84.093 -54.774 80.723 -56.464 82.963 -57.574 86.333 -55.884" style="fill: rgb(244, 128, 95); fill-rule: evenodd; stroke-width: 1;"/>
    <polygon class="cls-9" points="84.093 3.966 135.083 33.046 185.493 3.966 185.493 1.726 86.333 -55.884 84.093 -54.774 84.093 3.966" style="fill: rgb(239, 56, 57); fill-rule: evenodd; stroke-width: 1;"/>
    <polygon class="cls-8" points="185.493 3.966 187.753 5.076 187.753 2.836 185.493 1.726 185.493 3.966" style="fill: rgb(226, 37, 116); fill-rule: evenodd; stroke-width: 1;"/>
    <polygon class="cls-5" points="49.343 -268.47 84.093 -248.32 118.813 -268.47 118.813 -308.74 84.093 -328.87 49.343 -308.74 49.343 -268.47" style="fill: rgb(243, 113, 50); fill-rule: evenodd; stroke-width: 1;"/>
    <polygon class="cls-39" points="353.593 257.916 388.903 278.066 423.643 257.916 423.643 217.636 388.903 197.516 353.593 217.636 353.593 257.916" style="fill: rgb(85, 34, 99); fill-rule: evenodd; stroke-width: 1;"/>
    <polygon class="cls-5" points="-254.92 257.916 -220.18 278.066 -185.44 257.916 -185.44 217.636 -220.18 197.516 -254.92 217.636 -254.92 257.916" style="fill: rgb(243, 113, 50); fill-rule: evenodd; stroke-width: 1;"/>
  </g>
</svg>