<?xml version="1.0" encoding="utf-8"?>
<svg height="100%" style="fill-rule:evenodd;clip-rule:evenodd;stroke-linecap:round;stroke-linejoin:round;" width="100%" version="1.1" viewBox="0 0 150 150" xmlns="http://www.w3.org/2000/svg" xmlns:bx="https://boxy-svg.com">
  <defs>
    <bx:grid x="0" y="0" width="15" height="15"/>
    <clipPath id="a">
      <path d="M0 102.05h453.54V0H0v102.05z"/>
    </clipPath>
    <clipPath id="c">
      <path d="M118.17 73.02h161.68v-45.4H118.17V73z"/>
    </clipPath>
    <clipPath id="d">
      <path d="M283.72 73.35h154.62v-46H283.72v46z"/>
    </clipPath>
  </defs>
  <rect width="120" height="120" style="fill: none; stroke-width: 0.2px; stroke: rgb(84, 84, 84); pointer-events: none; visibility: hidden;" x="15" y="15"/>
  <g style="" transform="matrix(0.768786, 0, 0, 0.768786, 17.341049, 3.468208)">
    <path d="M 82.047 56.425 L 93.574 67.953 L 89.037 72.527 L 77.509 60.999 L 82.047 56.425 Z M 103.132 35.378 L 114.658 46.906 L 110.086 51.48 L 98.558 39.952 L 103.132 35.378 Z M 102.387 76.804 L 113.989 88.332 L 109.415 92.905 L 97.516 81.378 L 102.387 76.804 Z M 123.472 55.756 L 135 67.284 L 130.464 71.858 L 118.936 59.957 L 123.472 55.756 Z M 77.845 47.203 L 89.372 35.676 L 93.984 40.249 L 82.456 51.777 L 77.845 47.203 Z M 98.186 67.656 L 109.714 56.128 L 114.324 60.59 L 102.797 72.118 L 98.186 67.656 Z M 118.563 87.96 L 130.091 76.432 L 134.665 80.968 L 123.137 92.496 L 118.563 87.96 Z M 56.761 68.325 L 68.287 56.797 L 72.899 61.333 L 61.371 72.861 L 56.761 68.325 Z M 77.101 88.629 L 88.703 77.101 L 93.239 81.675 L 81.713 93.203 L 77.101 88.629 Z M 97.479 109.081 L 109.007 97.479 L 113.619 102.053 L 102.091 113.953 L 97.479 109.081 Z" fill="#575756" style="stroke-width: 1;"/>
    <path d="M 39.914 98.52 L 51.518 110.048 L 46.98 114.658 L 35.378 103.057 L 39.914 98.52 Z M 60.999 77.473 L 72.527 89.001 L 67.99 93.575 L 56.462 82.047 L 60.999 77.473 Z M 60.367 118.898 L 71.895 130.426 L 67.321 135 L 55.793 123.472 L 60.367 118.898 Z M 81.378 97.851 L 92.905 109.379 L 88.368 113.953 L 76.84 102.425 L 81.378 97.851 Z M 19.574 78.142 L 31.102 89.67 L 26.528 94.207 L 15 82.679 L 19.574 78.142 Z M 40.659 57.095 L 52.187 68.622 L 47.613 73.196 L 36.085 61.668 L 40.659 57.095 Z M 61.668 36.047 L 73.196 47.575 L 68.733 52.187 L 57.207 40.659 L 61.668 36.047 Z M 82.679 15 L 94.281 26.528 L 89.706 31.102 L 77.808 19.574 L 82.679 15 Z M 57.504 26.9 L 69.032 15.372 L 73.606 19.909 L 62.078 31.437 L 57.504 26.9 Z M 36.419 47.985 L 47.947 36.457 L 52.557 41.031 L 41.031 52.557 L 36.419 47.985 Z M 15.372 69.07 L 26.9 57.542 L 31.473 62.004 L 19.946 73.606 L 15.372 69.07 Z M 35.676 89.372 L 47.203 77.845 L 51.814 82.418 L 40.286 93.946 L 35.676 89.372 Z M 56.054 109.751 L 67.582 98.223 L 72.155 102.76 L 60.628 114.288 L 56.054 109.751 Z M 76.358 130.129 L 87.96 118.601 L 92.534 123.064 L 81.006 134.665 L 76.358 130.129 Z" fill="#db202e" style="stroke-width: 1;"/>
  </g>
  <g clip-path="url(#a)" transform="matrix(0.374707, 0, 0, -0.391317, -29.249151, 145.733826)" style="">
    <g clip-path="url(#c)">
      <path d="M273.7 48.47v4.4c0 2.68-4.25 4.02-12.78 4.02-1.05 0-2.15-.1-3.3-.1l-1.5-.1c-6.33 0-9.5-1.4-9.5-4.2v-4.1h27.1zm6.15 5.03v-8.6c0-2.17-.6-3.25-1.76-3.25h-31.3c-.2-4.06 1.9-6.47 6.2-7.23h24.4c1 0 1.6-.37 2-1.1.2-.54.3-1.45.3-2.77 0-1.96-.8-2.94-2.4-2.94h-20.8l-.2.1c-2.4.1-4.1.1-5.1.3-3.5.4-6.1 1.5-7.7 3.1-2.3 2.3-3.5 5-3.5 8v13.1c0 4.2 1.8 7.2 5.4 9.2 2.64 1.5 5.86 2.2 9.65 2.2H267c3.1 0 5.82-.7 8.15-2 3.03-1.8 4.54-4.4 4.54-7.9M169.7 57.6V30.54c0-1.96-.8-2.94-2.36-2.94-1.43 0-2.32.1-2.68.27-.8.37-1.22 1.27-1.22 2.68V57.6c0 1.93.78 2.9 2.35 2.9 1.4 0 2.3-.07 2.6-.22.8-.38 1.2-1.27 1.2-2.7m-.4 13.25c.8-.74 1.3-1.75 1.3-3.02 0-1.2-.4-2.2-1.3-3-.8-.6-1.7-1-2.8-1-1.1 0-2.1.4-2.8 1-.9.8-1.3 1.8-1.3 3 0 1.3.4 2.3 1.2 3.1.7.7 1.7 1 2.8 1 1.1 0 2-.3 2.8-1M235 63.4c1.5 0 2.3-1.25 2.3-3.74 0-1.93-.8-2.9-2.38-2.9h-2.7c-4.84 0-7.25-1.5-7.25-4.5V30.5c0-1.45-.43-2.35-1.28-2.7-.4-.15-1.3-.22-2.8-.22-1.6 0-2.4 1-2.4 3l.1 21.7c0 7.4 5.4 11.1 16.2 11.1M208.6 39.1v12.77c0 3.1-2.82 4.63-8.5 4.63h-18.8V38.7c0-1.6 1.36-2.8 4.08-3.62 1.9-.6 3.82-.9 5.75-.9h8.96c2.8 0 4.6.13 5.4.37 2.1.65 3.2 2.17 3.2 4.56M215 52V38.86c0-7.5-4.96-11.26-14.87-11.26h-9.66c-3.48 0-6.7.8-9.66 2.4-3.8 2.03-5.7 4.93-5.7 8.68v31.36c0 1.46.5 2.38 1.3 2.75.4.1 1.3.1 2.7.1 1.6 0 2.3-1 2.3-3V63h18.8c9.9 0 14.9-3.7 14.9-11.07M159 33.3c.24-.5.36-1.43.36-2.75 0-1.96-.78-2.94-2.33-2.94h-20.8c-3.64 0-6.35.2-8.14.6-3.3.6-5.8 1.9-7.4 3.8-1.7 2-2.6 4.5-2.6 7.7v30.5c0 2 .8 3 2.3 3 1.6 0 2.6 0 2.9-.1.9-.3 1.4-1.2 1.4-2.7V39.6c0-2.44 1.5-4 4.6-4.7 1.2-.3 3.5-.45 6.7-.45h21c1 0 1.6-.37 1.9-1.1" fill="#e30613"/>
    </g>
    <g clip-path="url(#d)">
      <path d="M438.34 42.94v-4.07c0-2.4-.3-4.3-.93-5.7-1.6-3.7-6.6-5.56-14.9-5.56h-22.9c-1.5 0-2.3 1-2.3 3 0 1.3.1 2.3.3 2.8.4.8 1 1.1 2 1.1h22.9c6.2 0 9.3 1.5 9.3 4.3v3.9c0 2.9-3 4.4-8.9 4.6-10.2.4-15.7.7-16.6.9-5.9 1.3-8.9 4.6-8.9 10v3.5c0 5.4 2.4 8.9 7.1 10.5 2 .7 5.6 1 10.9 1.1H436c1.53 0 2.3-1 2.3-2.9 0-1.3-.1-2.2-.35-2.72-.34-.77-1-1.14-1.97-1.14h-24.72c-5-.33-7.48-1.9-7.48-4.66v-3.2c0-2 1.36-3.3 4.08-3.9 1.1-.2 3.04-.35 5.84-.35h8.83c3.94 0 7.27-.7 10.02-2.06 3.85-1.95 5.78-5 5.78-9.2M393.6 68.4V30.6c0-1.5-.46-2.4-1.4-2.76-.3-.2-1.26-.2-2.9-.2-1.54 0-2.3 1-2.3 2.9v29.4l-19.53-30.1c-1.04-1.6-2.44-2.4-4.2-2.4-1.77 0-3.18.8-4.24 2.4L339.16 60V30.5c0-1.96-.78-2.94-2.33-2.94-1.63 0-2.6.06-2.9.2-.92.33-1.4 1.25-1.4 2.75v38.2c0 1.4.4 2.4 1.14 3.2.68.7 1.53 1.1 2.57 1.1 1.6 0 2.88-.7 3.88-2.1l23.24-34.4 22.7 34.4c.93 1.5 2.2 2.2 3.76 2.2 1.07 0 1.94-.3 2.62-1.1.77-.8 1.16-2 1.16-3.4m-64.94 1.8V32.6c0-3.45-1.2-5.17-3.64-5.17-.24 0-.48.02-.74.07-.8.1-1.8.8-3.05 2.1l-30.9 32.83V30.6c0-1.5-.45-2.43-1.36-2.78-.32-.1-1.3-.2-2.92-.2-1.55 0-2.33 1-2.33 2.98v37.88c0 1.32.07 2.18.2 2.57.2.64.7 1.24 1.5 1.84.5.3 1.06.5 1.7.5 1.45 0 2.92-.8 4.4-2.4l30.5-32.5v31.6c0 1.5.47 2.4 1.4 2.7.32.1 1.28.1 2.9.1 1.56 0 2.34-1 2.34-2.9" fill="#585757"/>
    </g>
  </g>
</svg>