<?xml version="1.0" encoding="utf-8"?>
<svg height="100%" style="fill-rule:evenodd;clip-rule:evenodd;stroke-linecap:round;stroke-linejoin:round;" width="100%" version="1.1" viewBox="0 0 150 150" xmlns="http://www.w3.org/2000/svg" xmlns:bx="https://boxy-svg.com">
  <defs>
    <bx:grid x="0" y="0" width="15" height="15"/>
  </defs>
  <rect width="120" height="120" style="fill: none; stroke-width: 0.2px; stroke: rgb(84, 84, 84); pointer-events: none; visibility: hidden;" x="15" y="15" bx:origin="0.5 0.5"/>
  <g>
    <path class="text" fill="#000000" d="M 59.534 63.057 L 59.534 61.316 L 57.916 61.316 L 57.916 63.057 L 57.129 63.057 L 57.129 58.878 L 57.943 58.878 L 57.943 60.632 L 59.56 60.632 L 59.56 58.878 L 60.374 58.878 L 60.374 63.057 Z M 63.309 63.057 L 62.661 63.057 L 62.602 62.853 C 62.328 63.03 62.011 63.126 61.685 63.134 C 61.113 63.134 60.865 62.755 60.865 62.239 C 60.865 61.623 61.141 61.391 61.782 61.391 L 62.538 61.391 L 62.538 61.057 C 62.538 60.722 62.441 60.604 61.939 60.604 C 61.647 60.607 61.356 60.637 61.071 60.696 L 60.973 60.119 C 61.326 60.026 61.688 59.979 62.053 59.979 C 63.038 59.979 63.33 60.312 63.33 61.057 Z M 62.538 61.92 L 61.955 61.92 C 61.696 61.92 61.626 61.99 61.626 62.217 C 61.626 62.443 61.696 62.518 61.944 62.518 C 62.151 62.516 62.356 62.462 62.538 62.362 Z M 64.969 63.134 C 64.603 63.127 64.241 63.069 63.891 62.961 L 63.998 62.384 C 64.303 62.466 64.617 62.51 64.932 62.513 C 65.283 62.513 65.331 62.437 65.331 62.211 C 65.331 61.985 65.293 61.93 64.792 61.818 C 64.026 61.639 63.934 61.45 63.934 60.869 C 63.934 60.286 64.209 59.994 65.11 59.994 C 65.427 59.995 65.744 60.032 66.053 60.102 L 65.962 60.685 C 65.676 60.634 65.388 60.606 65.099 60.599 C 64.759 60.599 64.7 60.674 64.7 60.858 C 64.7 61.04 64.7 61.117 65.142 61.224 C 66.021 61.445 66.101 61.558 66.101 62.178 C 66.101 62.799 65.919 63.134 64.969 63.134 Z M 68.572 63.074 L 68.572 60.976 C 68.572 60.814 68.502 60.733 68.319 60.733 C 68.032 60.76 67.754 60.843 67.499 60.976 L 67.499 63.057 L 66.717 63.057 L 66.717 58.819 L 67.504 58.938 L 67.504 60.27 C 67.863 60.093 68.254 59.994 68.653 59.979 C 69.192 59.979 69.365 60.329 69.365 60.869 L 69.365 63.057 Z M 70.006 59.617 L 70.006 58.878 L 70.793 58.878 L 70.793 59.617 Z M 70.006 63.057 L 70.006 60.043 L 70.793 60.043 L 70.793 63.057 Z M 71.419 60.069 C 71.419 59.315 71.878 58.872 72.945 58.872 C 73.337 58.872 73.729 58.918 74.11 59.008 L 74.018 59.681 C 73.671 59.617 73.319 59.581 72.967 59.574 C 72.428 59.574 72.228 59.757 72.228 60.2 L 72.228 61.785 C 72.228 62.222 72.406 62.41 72.967 62.41 C 73.319 62.403 73.671 62.367 74.018 62.303 L 74.11 62.976 C 73.729 63.067 73.337 63.112 72.945 63.112 C 71.867 63.112 71.419 62.675 71.419 61.915 Z M 75.862 63.134 C 74.785 63.134 74.498 62.562 74.498 61.947 L 74.498 61.17 C 74.498 60.551 74.79 59.984 75.862 59.984 C 76.936 59.984 77.227 60.555 77.227 61.17 L 77.227 61.93 C 77.232 62.551 76.942 63.134 75.862 63.134 Z M 75.862 60.636 C 75.443 60.636 75.281 60.814 75.281 61.176 L 75.281 61.985 C 75.281 62.325 75.443 62.524 75.862 62.524 C 76.283 62.524 76.445 62.346 76.445 61.985 L 76.445 61.143 C 76.445 60.803 76.283 60.626 75.862 60.626 Z M 79.444 60.685 C 79.156 60.81 78.879 60.955 78.613 61.121 L 78.613 63.063 L 77.826 63.063 L 77.826 60.043 L 78.489 60.043 L 78.543 60.378 C 78.801 60.212 79.078 60.079 79.368 59.984 Z M 82.593 62.055 C 82.695 62.67 82.176 63.211 81.558 63.134 C 81.277 63.131 80.997 63.101 80.722 63.048 L 80.722 64.265 L 79.935 64.384 L 79.935 60.069 L 80.56 60.069 L 80.635 60.323 C 80.925 60.116 81.271 60.005 81.628 60.005 C 82.259 60.005 82.593 60.367 82.593 61.051 Z M 80.716 62.395 C 80.945 62.444 81.178 62.472 81.411 62.476 C 81.698 62.476 81.806 62.346 81.806 62.071 L 81.806 60.992 C 81.806 60.744 81.709 60.61 81.417 60.61 C 81.159 60.619 80.912 60.715 80.716 60.884 Z M 68.863 66.423 L 72.255 66.423 L 67.1 83.68 L 62.284 83.68 L 57.129 66.423 L 60.521 66.423 L 64.689 80.799 Z M 81.687 83.68 L 79.098 83.68 L 78.867 82.822 C 77.744 83.553 76.431 83.941 75.092 83.939 C 72.783 83.939 71.803 82.358 71.803 80.163 C 71.803 77.596 72.919 76.615 75.48 76.615 L 78.51 76.615 L 78.51 75.311 C 78.51 73.914 78.122 73.417 76.1 73.417 C 74.923 73.43 73.751 73.56 72.601 73.805 L 72.213 71.395 C 73.618 71.005 75.069 70.804 76.526 70.796 C 80.49 70.796 81.654 72.193 81.654 75.359 Z M 78.527 78.913 L 76.197 78.913 C 75.162 78.913 74.877 79.198 74.877 80.158 C 74.877 81.117 75.162 81.426 76.144 81.426 C 76.98 81.414 77.8 81.191 78.527 80.779 Z M 87.721 80.282 C 87.322 80.476 87.043 80.853 86.973 81.29 C 86.973 81.625 87.177 81.781 87.673 81.83 C 89.07 81.987 89.83 82.062 91.324 82.218 C 93.373 82.45 94.02 83.463 94.02 85.276 C 94.02 87.972 93.033 89.051 88.32 89.051 C 86.681 89.052 85.049 88.835 83.467 88.404 L 83.855 86.047 C 85.244 86.4 86.671 86.581 88.105 86.587 C 90.617 86.587 91.108 86.403 91.108 85.578 C 91.108 84.752 90.876 84.671 89.916 84.57 C 88.466 84.414 87.867 84.338 86.265 84.154 C 84.48 83.949 83.779 83.351 83.779 81.744 C 83.834 80.85 84.329 80.041 85.101 79.586 C 83.936 78.885 83.391 77.721 83.391 76.195 L 83.391 74.997 C 83.445 72.382 84.814 70.801 88.471 70.801 C 89.198 70.796 89.923 70.883 90.628 71.06 L 94.516 71.06 L 94.516 72.641 C 94.074 72.77 93.557 72.899 93.119 73.029 C 93.421 73.641 93.572 74.315 93.562 74.997 L 93.562 76.19 C 93.562 78.756 92.009 80.31 88.482 80.31 C 88.229 80.315 87.975 80.306 87.721 80.282 Z M 88.444 73.336 C 86.892 73.336 86.346 73.908 86.346 75.1 L 86.346 76.076 C 86.346 77.322 86.967 77.786 88.444 77.786 C 89.922 77.786 90.569 77.295 90.569 76.076 L 90.569 75.1 C 90.574 73.919 90.03 73.342 88.449 73.342 Z M 102.411 73.702 C 101.253 74.228 100.138 74.84 99.073 75.537 L 99.073 83.68 L 95.892 83.68 L 95.892 71.06 L 98.589 71.06 L 98.793 72.457 C 99.821 71.762 100.936 71.206 102.11 70.801 Z M 112.981 83.68 L 110.393 83.68 L 110.161 82.822 C 109.038 83.553 107.726 83.941 106.386 83.939 C 104.077 83.939 103.097 82.358 103.097 80.163 C 103.097 77.596 104.213 76.615 106.774 76.615 L 109.804 76.615 L 109.804 75.311 C 109.804 73.914 109.416 73.417 107.394 73.417 C 106.218 73.43 105.045 73.56 103.895 73.805 L 103.507 71.395 C 104.912 71.005 106.363 70.804 107.82 70.796 C 111.784 70.796 112.948 72.193 112.948 75.359 Z M 109.821 78.913 L 107.491 78.913 C 106.456 78.913 106.17 79.198 106.17 80.158 C 106.17 81.117 106.456 81.426 107.438 81.426 C 108.274 81.414 109.094 81.191 109.821 80.779 Z M 122.386 83.68 L 122.386 74.868 C 122.386 74.193 122.101 73.859 121.378 73.859 C 120.219 73.996 119.102 74.362 118.089 74.938 L 118.089 83.68 L 114.928 83.68 L 114.928 71.06 L 117.339 71.06 L 117.651 72.139 C 119.225 71.352 120.946 70.901 122.704 70.818 C 124.802 70.818 125.552 72.296 125.552 74.55 L 125.552 83.717 Z M 134.849 83.443 C 133.958 83.754 133.021 83.92 132.077 83.934 C 129.769 83.934 128.604 82.855 128.604 80.59 L 128.604 73.579 L 126.712 73.579 L 126.712 71.06 L 128.604 71.06 L 128.604 67.927 L 131.764 67.486 L 131.764 71.06 L 135 71.06 L 134.796 73.574 L 131.764 73.574 L 131.764 80.18 C 131.678 80.838 132.245 81.394 132.902 81.296 C 133.438 81.279 133.969 81.193 134.482 81.037 Z" style=""/>
    <path class="front" fill="var(--brand, #2e71e5)" d="M 46.294 64.276 L 46.294 61.316 L 39.181 65.452 L 39.181 67.955 L 33.492 80.229 L 30.644 82.191 L 30.644 91.181 L 36.743 87.665 L 46.294 64.276 Z M 30.644 75.791 L 26.379 65.83 L 26.379 63.015 L 26.351 63.004 L 22.113 65.452 L 22.113 67.955 L 27.802 80.768 L 30.644 79.36 L 30.644 75.791 Z" style=""/>
    <path class="shadow" fill="#104EB2" d="M 42.029 58.824 L 34.921 62.987 L 34.915 62.987 L 34.915 65.83 L 30.644 75.791 L 30.644 79.117 L 27.802 80.768 L 22.113 67.955 L 22.113 65.447 L 26.384 62.993 L 19.266 58.824 L 15 61.316 L 15 64.368 L 24.605 87.692 L 30.644 91.181 L 30.644 82.417 L 33.492 80.768 L 33.454 80.746 L 39.181 67.955 L 39.181 65.447 L 46.294 61.316 L 42.029 58.824 Z" style=""/>
  </g>
</svg>