<?xml version="1.0" encoding="utf-8"?>
<svg height="100%" style="fill-rule:evenodd;clip-rule:evenodd;stroke-linecap:round;stroke-linejoin:round;" width="100%" version="1.1" viewBox="0 0 150 150" xmlns="http://www.w3.org/2000/svg" xmlns:bx="https://boxy-svg.com">
  <defs>
    <bx:grid x="0" y="0" width="15" height="15"/>
  </defs>
  <rect width="109.9" height="109.9" style="fill: none; stroke-width: 0.2px; stroke: rgb(84, 84, 84); pointer-events: none; visibility: hidden;" x="21.199" y="9.597" bx:origin="0.5 0.5"/>
  <g transform="matrix(0.039873, 0, 0, 0.039873, -24.682493, -23.034937)" style="">
    <polygon class="cls-6" points="2500 2351.57 2841.18 2188.62 2500 2025.68 2158.82 2188.62 2500 2351.57" style="fill: rgb(110, 110, 110); stroke-opacity: 0.11; fill-opacity: 0.1;"/>
    <path class="cls-7" d="M 3258.86 2614.71 C 3281.98 2510.962 3281.98 2403.398 3258.86 2299.65 L 3116.29 2282.73 C 3102.955 2234.547 3083.98 2188.106 3059.76 2144.37 L 3148.29 2032.07 C 3091.385 1942.321 3015.331 1866.271 2925.58 1809.37 L 2814.58 1897.05 C 2770.375 1872.062 2723.332 1852.465 2674.46 1838.68 L 2658 1698.79 C 2554.248 1675.68 2446.682 1675.68 2342.93 1698.79 L 2326.6 1838.38 C 2277.567 1852.141 2230.362 1871.738 2186 1896.75 L 2075.41 1809.37 C 1985.653 1866.261 1909.601 1942.313 1852.71 2032.07 L 1940.71 2143.57 C 1916.266 2187.602 1897.132 2234.379 1883.71 2282.92 L 1742.16 2299.65 C 1719.03 2403.396 1719.03 2510.964 1742.16 2614.71 L 1885.53 2631.8 C 1899.183 2679.259 1918.315 2724.966 1942.54 2768 L 1852.68 2882.31 C 1909.567 2972.067 1985.62 3048.117 2075.38 3105 L 2190.96 3014.3 C 2233.489 3037.779 2278.57 3056.303 2325.32 3069.51 L 2343 3215.57 C 2446.745 3238.68 2554.305 3238.68 2658.05 3215.57 L 2675.74 3069.2 C 2722.309 3055.963 2767.211 3037.443 2809.57 3014 L 2925.57 3105 C 3015.324 3048.106 3091.378 2972.059 3148.28 2882.31 L 3057.9 2767.22 C 3081.896 2724.484 3100.869 2679.116 3114.44 2632.02 L 3258.86 2614.71 Z M 2997.39 2749.3 L 2500 2986.86 L 2002.61 2749.3 L 2002.61 2159 L 2500 1921.4 L 2997.39 2159 L 2997.39 2749.3 Z" style="fill: rgb(0, 140, 233); stroke-opacity: 0.11; fill-opacity: 0.1;"/>
    <path class="cls-6" d="M 2096.71 2651.3 L 2190.94 2606.3 L 2222.74 2672.87 L 2141.83 2711.52 L 2453 2860.1 L 2453 2562.91 L 2428.9 2574.42 L 2397.1 2507.86 L 2453 2481.15 L 2453 2433.37 L 2096.76 2263.23 L 2096.71 2651.3 Z M 2350.51 2530.09 L 2382.31 2596.65 L 2269.31 2650.65 L 2237.53 2584.08 L 2350.51 2530.09 Z M 2903.3 2651.3 L 2903.3 2263.23 L 2547 2433.39 L 2547 2481.15 L 2602.91 2507.86 L 2571.11 2574.42 L 2547 2562.91 L 2547 2860.1 L 2858.15 2711.5 L 2777.23 2672.86 L 2809.01 2606.29 L 2903.3 2651.3 Z M 2730.73 2650.64 L 2617.73 2596.64 L 2649.53 2530.08 L 2762.53 2584.08 L 2730.73 2650.64 Z" style="fill: rgb(110, 110, 110); stroke-opacity: 0.11; fill-opacity: 0.1;"/>
    <polygon class="cls-6" points="2499.99 942.28 2758.63 818.76 2499.99 695.23 2241.35 818.76 2499.99 942.28" style="fill: rgb(110, 110, 110); stroke-opacity: 0.11; fill-opacity: 0.1;"/>
    <polygon class="cls-6" points="2534.33 1002.01 2534.33 1313.49 2794.38 1189.3 2794.38 877.81 2534.33 1002.01" style="fill: rgb(110, 110, 110); stroke-opacity: 0.11; fill-opacity: 0.1;"/>
    <polygon class="cls-6" points="2465.65 1002 2205.61 877.81 2205.61 1189.3 2465.65 1313.49 2465.65 1002" style="fill: rgb(110, 110, 110); stroke-opacity: 0.11; fill-opacity: 0.1;"/>
    <path class="cls-7" d="M 2496.19 1370.26 L 2508.43 1386.32 L 2399.73 1552.06 L 2435.73 1552.06 L 2435.73 1631.16 C 2457.13 1629.5 2478.73 1628.39 2500.51 1628.39 C 2522.29 1628.39 2543.82 1629.5 2565.17 1631.15 L 2565.17 1552.15 L 2651.76 1552.15 L 2500.55 1330.32 L 2349.11 1552.1 L 2375.26 1552.1 L 2496.19 1370.26 Z" style="fill: rgb(0, 140, 233); stroke-opacity: 0.11; fill-opacity: 0.1;"/>
    <polygon class="cls-6" points="1427.74 1386.43 1523.28 1116.2 1253.05 1211.74 1157.51 1481.97 1427.74 1386.43" style="fill: rgb(110, 110, 110); stroke-opacity: 0.11; fill-opacity: 0.1;"/>
    <polygon class="cls-6" points="1494.26 1404.38 1714.51 1624.63 1810.57 1352.93 1590.31 1132.67 1494.26 1404.38" style="fill: rgb(110, 110, 110); stroke-opacity: 0.11; fill-opacity: 0.1;"/>
    <polygon class="cls-6" points="1445.68 1452.94 1173.99 1549 1394.25 1769.25 1665.94 1673.2 1445.68 1452.94" style="fill: rgb(110, 110, 110); stroke-opacity: 0.11; fill-opacity: 0.1;"/>
    <path class="cls-7" d="M 1727.68 1691.75 L 1747.68 1694.45 L 1788 1888.51 L 1813.44 1863.07 L 1869.37 1919 C 1883.37 1902.7 1897.78 1886.67 1913.22 1871.24 C 1928.66 1855.81 1944.62 1841.4 1960.89 1827.46 L 1905 1771.57 L 1966.22 1710.35 L 1702.45 1660.42 L 1752.19 1924.32 L 1770.68 1905.83 L 1727.68 1691.75 Z" style="fill: rgb(0, 140, 233); stroke-opacity: 0.11; fill-opacity: 0.1;"/>
    <polygon class="cls-6" points="983.6 2458.69 860.08 2200.05 736.55 2458.69 860.08 2717.33 983.6 2458.69" style="fill: rgb(110, 110, 110); stroke-opacity: 0.11; fill-opacity: 0.1;"/>
    <polygon class="cls-6" points="1043.33 2424.35 1354.81 2424.35 1230.61 2164.3 919.13 2164.3 1043.33 2424.35" style="fill: rgb(110, 110, 110); stroke-opacity: 0.11; fill-opacity: 0.1;"/>
    <polygon class="cls-6" points="1043.32 2493.03 919.13 2753.07 1230.61 2753.07 1354.81 2493.03 1043.32 2493.03" style="fill: rgb(110, 110, 110); stroke-opacity: 0.11; fill-opacity: 0.1;"/>
    <path class="cls-7" d="M 1411.58 2462.49 L 1427.64 2450.25 L 1593.38 2559 L 1593.38 2523 L 1672.48 2523 C 1670.82 2501.6 1669.71 2480.05 1669.71 2458.22 C 1669.71 2436.39 1670.82 2414.92 1672.47 2393.56 L 1593.47 2393.56 L 1593.47 2307 L 1371.6 2458.16 L 1593.38 2609.6 L 1593.38 2583.45 L 1411.58 2462.49 Z" style="fill: rgb(0, 140, 233); stroke-opacity: 0.11; fill-opacity: 0.1;"/>
    <polygon class="cls-6" points="1427.75 3530.94 1157.52 3435.4 1253.06 3705.63 1523.29 3801.17 1427.75 3530.94" style="fill: rgb(110, 110, 110); stroke-opacity: 0.11; fill-opacity: 0.1;"/>
    <polygon class="cls-6" points="1445.7 3464.43 1665.95 3244.18 1394.25 3148.11 1173.99 3368.37 1445.7 3464.43" style="fill: rgb(110, 110, 110); stroke-opacity: 0.11; fill-opacity: 0.1;"/>
    <polygon class="cls-6" points="1494.26 3513 1590.32 3784.69 1810.57 3564.44 1714.51 3292.74 1494.26 3513" style="fill: rgb(110, 110, 110); stroke-opacity: 0.11; fill-opacity: 0.1;"/>
    <path class="cls-7" d="M 1733.06 3231 L 1735.77 3211 L 1929.83 3170.67 L 1904.39 3145.23 L 1960.32 3089.3 C 1944.02 3075.3 1927.99 3060.89 1912.56 3045.46 C 1897.13 3030.03 1882.72 3014.05 1868.78 2997.78 L 1812.89 3053.67 L 1751.66 2992.45 L 1701.74 3256.22 L 1965.64 3206.48 L 1947.15 3188 L 1733.06 3231 Z" style="fill: rgb(0, 140, 233); stroke-opacity: 0.11; fill-opacity: 0.1;"/>
    <polygon class="cls-6" points="2500.01 3975.08 2241.37 4098.6 2500.01 4222.13 2758.65 4098.6 2500.01 3975.08" style="fill: rgb(110, 110, 110); stroke-opacity: 0.11; fill-opacity: 0.1;"/>
    <polygon class="cls-6" points="2465.67 3915.35 2465.67 3603.87 2205.62 3728.07 2205.62 4039.56 2465.67 3915.35" style="fill: rgb(110, 110, 110); stroke-opacity: 0.11; fill-opacity: 0.1;"/>
    <polygon class="cls-6" points="2534.35 3915.36 2794.39 4039.56 2794.39 3728.07 2534.35 3603.87 2534.35 3915.36" style="fill: rgb(110, 110, 110); stroke-opacity: 0.11; fill-opacity: 0.1;"/>
    <path class="cls-7" d="M 2503.81 3547.1 L 2491.57 3531 L 2600.27 3365.26 L 2564.27 3365.26 L 2564.27 3286.16 C 2542.87 3287.82 2521.27 3288.93 2499.49 3288.93 C 2477.71 3288.93 2456.18 3287.82 2434.83 3286.18 L 2434.83 3365.18 L 2348.24 3365.18 L 2499.45 3587 L 2650.89 3365.22 L 2624.74 3365.22 L 2503.81 3547.1 Z" style="fill: rgb(0, 140, 233); stroke-opacity: 0.11; fill-opacity: 0.1;"/>
    <polygon class="cls-6" points="3572.26 3530.93 3476.72 3801.16 3746.95 3705.62 3842.49 3435.39 3572.26 3530.93" style="fill: rgb(110, 110, 110); stroke-opacity: 0.11; fill-opacity: 0.1;"/>
    <polygon class="cls-6" points="3505.74 3512.98 3285.49 3292.73 3189.43 3564.43 3409.69 3784.69 3505.74 3512.98" style="fill: rgb(110, 110, 110); stroke-opacity: 0.11; fill-opacity: 0.1;"/>
    <polygon class="cls-6" points="3554.32 3464.42 3826.01 3368.37 3605.75 3148.11 3334.06 3244.17 3554.32 3464.42" style="fill: rgb(110, 110, 110); stroke-opacity: 0.11; fill-opacity: 0.1;"/>
    <path class="cls-7" d="M 3272.32 3225.62 L 3252.32 3222.92 L 3212 3028.85 L 3186.56 3054.29 L 3130.63 2998.36 C 3116.63 3014.66 3102.22 3030.69 3086.78 3046.12 C 3071.34 3061.55 3055.38 3075.96 3039.11 3089.9 L 3095 3145.79 L 3033.76 3207 L 3297.53 3257 L 3247.79 2993 L 3229.3 3011.49 L 3272.32 3225.62 Z" style="fill: rgb(0, 140, 233); stroke-opacity: 0.11; fill-opacity: 0.1;"/>
    <polygon class="cls-6" points="4016.4 2458.68 4139.92 2717.31 4263.45 2458.68 4139.92 2200.04 4016.4 2458.68" style="fill: rgb(110, 110, 110); stroke-opacity: 0.11; fill-opacity: 0.1;"/>
    <polygon class="cls-6" points="3956.67 2493.02 3645.19 2493.02 3769.39 2753.07 4080.88 2753.07 3956.67 2493.02" style="fill: rgb(110, 110, 110); stroke-opacity: 0.11; fill-opacity: 0.1;"/>
    <polygon class="cls-6" points="3956.68 2424.33 4080.88 2164.29 3769.39 2164.29 3645.19 2424.33 3956.68 2424.33" style="fill: rgb(110, 110, 110); stroke-opacity: 0.11; fill-opacity: 0.1;"/>
    <path class="cls-7" d="M 3588.42 2454.87 L 3572.36 2467.11 L 3406.62 2358.41 L 3406.62 2394.41 L 3327.52 2394.41 C 3329.18 2415.81 3330.29 2437.41 3330.29 2459.19 C 3330.29 2480.97 3329.18 2502.5 3327.53 2523.86 L 3406.53 2523.86 L 3406.53 2610.44 L 3628.4 2459.2 L 3406.62 2307.77 L 3406.62 2333.92 L 3588.42 2454.87 Z" style="fill: rgb(0, 140, 233); stroke-opacity: 0.11; fill-opacity: 0.1;"/>
    <polygon class="cls-6" points="3572.25 1386.42 3842.48 1481.96 3746.94 1211.73 3476.71 1116.19 3572.25 1386.42" style="fill: rgb(110, 110, 110); stroke-opacity: 0.11; fill-opacity: 0.1;"/>
    <polygon class="cls-6" points="3554.3 1452.94 3334.05 1673.19 3605.75 1769.25 3826.01 1548.99 3554.3 1452.94" style="fill: rgb(110, 110, 110); stroke-opacity: 0.11; fill-opacity: 0.1;"/>
    <polygon class="cls-6" points="3505.74 1404.37 3409.68 1132.67 3189.43 1352.93 3285.49 1624.62 3505.74 1404.37" style="fill: rgb(110, 110, 110); stroke-opacity: 0.11; fill-opacity: 0.1;"/>
    <path class="cls-7" d="M 3266.94 1686.36 L 3264.23 1706.36 L 3070.17 1746.69 L 3095.61 1772.13 L 3039.68 1828.06 C 3055.98 1842.06 3072.01 1856.48 3087.44 1871.91 C 3102.87 1887.34 3117.28 1903.31 3131.22 1919.58 L 3187.11 1863.69 L 3248.34 1924.92 L 3298.26 1661.14 L 3034.36 1710.88 L 3052.85 1729.37 L 3266.94 1686.36 Z" style="fill: rgb(0, 140, 233); stroke-opacity: 0.11; fill-opacity: 0.1;"/>
  </g>
  <g transform="matrix(0.121373, 0, 0, 0.121373, 9.606859, 5.196796)" style="">
    <path id="teabag" style="fill:#FFFFFF" d="M395.9,484.2l-126.9-61c-12.5-6-17.9-21.2-11.8-33.8l61-126.9c6-12.5,21.2-17.9,33.8-11.8   c17.2,8.3,27.1,13,27.1,13l-0.1-109.2l16.7-0.1l0.1,117.1c0,0,57.4,24.2,83.1,40.1c3.7,2.3,10.2,6.8,12.9,14.4   c2.1,6.1,2,13.1-1,19.3l-61,126.9C423.6,484.9,408.4,490.3,395.9,484.2z"/>
    <g>
      <g>
        <path style="fill:#609926" d="M622.7,149.8c-4.1-4.1-9.6-4-9.6-4s-117.2,6.6-177.9,8c-13.3,0.3-26.5,0.6-39.6,0.7c0,39.1,0,78.2,0,117.2     c-5.5-2.6-11.1-5.3-16.6-7.9c0-36.4-0.1-109.2-0.1-109.2c-29,0.4-89.2-2.2-89.2-2.2s-141.4-7.1-156.8-8.5     c-9.8-0.6-22.5-2.1-39,1.5c-8.7,1.8-33.5,7.4-53.8,26.9C-4.9,212.4,6.6,276.2,8,285.8c1.7,11.7,6.9,44.2,31.7,72.5     c45.8,56.1,144.4,54.8,144.4,54.8s12.1,28.9,30.6,55.5c25,33.1,50.7,58.9,75.7,62c63,0,188.9-0.1,188.9-0.1s12,0.1,28.3-10.3     c14-8.5,26.5-23.4,26.5-23.4s12.9-13.8,30.9-45.3c5.5-9.7,10.1-19.1,14.1-28c0,0,55.2-117.1,55.2-231.1     C633.2,157.9,624.7,151.8,622.7,149.8z M125.6,353.9c-25.9-8.5-36.9-18.7-36.9-18.7S69.6,321.8,60,295.4     c-16.5-44.2-1.4-71.2-1.4-71.2s8.4-22.5,38.5-30c13.8-3.7,31-3.1,31-3.1s7.1,59.4,15.7,94.2c7.2,29.2,24.8,77.7,24.8,77.7     S142.5,359.9,125.6,353.9z M425.9,461.5c0,0-6.1,14.5-19.6,15.4c-5.8,0.4-10.3-1.2-10.3-1.2s-0.3-0.1-5.3-2.1l-112.9-55     c0,0-10.9-5.7-12.8-15.6c-2.2-8.1,2.7-18.1,2.7-18.1L322,273c0,0,4.8-9.7,12.2-13c0.6-0.3,2.3-1,4.5-1.5c8.1-2.1,18,2.8,18,2.8     l110.7,53.7c0,0,12.6,5.7,15.3,16.2c1.9,7.4-0.5,14-1.8,17.2C474.6,363.8,425.9,461.5,425.9,461.5z"/>
        <path style="fill:#609926" d="M326.8,380.1c-8.2,0.1-15.4,5.8-17.3,13.8c-1.9,8,2,16.3,9.1,20c7.7,4,17.5,1.8,22.7-5.4     c5.1-7.1,4.3-16.9-1.8-23.1l24-49.1c1.5,0.1,3.7,0.2,6.2-0.5c4.1-0.9,7.1-3.6,7.1-3.6c4.2,1.8,8.6,3.8,13.2,6.1     c4.8,2.4,9.3,4.9,13.4,7.3c0.9,0.5,1.8,1.1,2.8,1.9c1.6,1.3,3.4,3.1,4.7,5.5c1.9,5.5-1.9,14.9-1.9,14.9     c-2.3,7.6-18.4,40.6-18.4,40.6c-8.1-0.2-15.3,5-17.7,12.5c-2.6,8.1,1.1,17.3,8.9,21.3c7.8,4,17.4,1.7,22.5-5.3     c5-6.8,4.6-16.3-1.1-22.6c1.9-3.7,3.7-7.4,5.6-11.3c5-10.4,13.5-30.4,13.5-30.4c0.9-1.7,5.7-10.3,2.7-21.3     c-2.5-11.4-12.6-16.7-12.6-16.7c-12.2-7.9-29.2-15.2-29.2-15.2s0-4.1-1.1-7.1c-1.1-3.1-2.8-5.1-3.9-6.3c4.7-9.7,9.4-19.3,14.1-29     c-4.1-2-8.1-4-12.2-6.1c-4.8,9.8-9.7,19.7-14.5,29.5c-6.7-0.1-12.9,3.5-16.1,9.4c-3.4,6.3-2.7,14.1,1.9,19.8     C343.2,346.5,335,363.3,326.8,380.1z"/>
      </g>
    </g>
  </g>
  <g fill="none" fill-rule="evenodd" transform="matrix(0.239775, 0, 0, 0.239775, 45, 78.163017)" style="">
    <path d="M38.617 173.984v-16.362c0-2.15 1.344-3.877 3.57-3.877h.616c2.225 0 3.563 1.729 3.563 3.877v34.447c0 8.4-4.15 15.084-11.382 19.342a21.374 21.374 0 0 1-10.945 2.985h-1.537c-8.402 0-15.077-4.153-19.342-11.38a21.314 21.314 0 0 1-2.984-10.947v-1.535c0-8.403 4.152-15.083 11.378-19.349a21.298 21.298 0 0 1 10.948-2.985h1.537c5.686 0 10.51 2.204 14.578 5.784zM7.924 191.3c0 6.068 2.941 10.63 8.258 13.54 2.15 1.176 4.484 1.808 6.937 1.808 5.956 0 10.374-2.81 13.421-7.857 1.417-2.348 2.077-4.917 2.077-7.648 0-5.26-2.49-9.365-6.729-12.414-2.57-1.848-5.463-2.775-8.618-2.775-6.492 0-11.164 3.28-13.968 9.106-.946 1.97-1.378 4.061-1.378 6.24zm65.324-23.1h1.074c8.978 0 15.806 4.355 20.133 12.192 1.73 3.135 2.656 6.557 2.656 10.142v1.535c0 8.4-4.142 15.093-11.385 19.343-3.353 1.967-7.057 2.984-10.943 2.984h-1.535c-8.402 0-15.079-4.153-19.342-11.38a21.316 21.316 0 0 1-2.987-10.947v-1.535c0-8.404 4.169-15.062 11.377-19.347 3.351-1.991 7.058-2.987 10.952-2.987zm-14.58 23.1c0 5.89 2.89 10.223 7.865 13.27 2.336 1.43 4.909 2.078 7.638 2.078 5.82 0 10.122-2.951 13.116-7.863 1.428-2.342 2.074-4.915 2.074-7.642 0-5.477-2.638-9.661-7.148-12.693-2.471-1.663-5.222-2.496-8.198-2.496-6.492 0-11.164 3.28-13.967 9.106-.948 1.97-1.38 4.061-1.38 6.24zm70.656-14.727c-1.17-.548-3.36-.73-4.624-.778-6.474-.244-11.158 3.402-13.906 9.113-.949 1.97-1.382 4.055-1.382 6.235 0 6.637 3.485 11.284 9.409 14.117 2.164 1.034 4.958 1.23 7.323 1.23 2.08 0 5.02-1.274 6.866-2.151l.32-.152h1.433l.158.032c1.762.367 3.092 1.484 3.092 3.38v.767c0 4.718-8.622 5.798-11.912 6.028-11.61.803-20.293-5.573-23.603-16.647-.575-1.923-.834-3.833-.834-5.837v-1.533c0-8.403 4.17-15.059 11.377-19.34 3.351-1.99 7.057-2.99 10.95-2.99h1.536c4.13 0 7.934 1.173 11.344 3.502l.28.194.177.292c.368.61.685 1.316.685 2.042v.767c0 1.978-1.48 3.042-3.266 3.386l-.148.026h-.458c-1.156 0-3.785-1.197-4.817-1.683zm25.134 5.247c3.01-3.014 6.03-6.022 9.085-8.986.851-.827 4.074-4.327 5.343-4.327h1.388l.158.033c1.768.367 3.092 1.486 3.092 3.386v.766c0 1.296-1.518 2.802-2.355 3.689-1.78 1.887-3.654 3.712-5.476 5.56l-9.362 9.504c4.031 4.04 8.058 8.083 12.056 12.154a313.304 313.304 0 0 1 3.301 3.396c.385.405.953.909 1.276 1.47.347.526.56 1.119.56 1.752v.8l-.045.185c-.435 1.768-1.557 3.194-3.516 3.194h-.617c-1.282 0-2.73-1.45-3.608-2.279-1.81-1.706-3.557-3.5-5.331-5.243l-5.949-5.84v9.334c0 2.15-1.346 3.878-3.569 3.878h-.61c-2.226 0-3.57-1.728-3.57-3.878v-52.596c0-2.15 1.345-3.87 3.57-3.87h.61c2.223 0 3.569 1.72 3.569 3.87v24.048zm96.577-13.313h.77c2.324 0 3.875 1.566 3.875 3.877 0 3.208-3.067 4.029-5.72 4.029-3.48 0-6.803 2.107-9.202 4.47-2.991 2.949-4.3 6.726-4.3 10.878v18.759c0 2.15-1.343 3.876-3.57 3.876h-.612c-2.227 0-3.569-1.725-3.569-3.876v-19.836c0-7.617 3.708-13.835 9.89-18.196 3.691-2.605 7.919-3.98 12.438-3.98zm-55.074 37.176c2.82.985 6.035.844 8.928.34 1.48-.629 5.264-2.28 6.656-2.038l.217.037.2.098c.85.412 1.661.995 2.095 1.86 1.014 2.027.527 4.065-1.465 5.216l-.663.383c-7.35 4.242-15.168 3.654-22.495-.308-3.503-1.894-6.183-4.705-8.16-8.132l-.462-.801c-4.719-8.172-4.082-16.768 1.24-24.539 1.837-2.686 4.238-4.761 7.045-6.384l1.062-.613c6.922-3.996 14.341-3.722 21.45-.215 3.823 1.886 6.92 4.697 9.054 8.394l.384.666c1.55 2.686-.458 5.026-2.531 6.626-2.406 1.856-4.835 4.09-7.141 6.08-5.142 4.439-10.276 8.888-15.414 13.33zm-6.655-4.674c5.75-4.93 11.502-9.865 17.237-14.816 1.96-1.69 4.109-3.444 6.053-5.221-1.56-1.966-4.166-3.383-6.38-4.228-4.47-1.703-8.877-1.131-12.976 1.235-5.365 3.098-7.65 8.031-7.45 14.17.08 2.418.73 4.748 2.013 6.805.452.725.957 1.406 1.503 2.055zM147.488 45.732h22.866v23.375h11.561c5.34 0 10.831-.951 15.887-2.664 2.485-.843 5.273-2.015 7.724-3.49-3.228-4.214-4.876-9.535-5.36-14.78-.66-7.135.78-16.421 5.608-22.005l2.404-2.78 2.864 2.303c7.211 5.793 13.276 13.889 14.345 23.118 8.683-2.554 18.878-1.95 26.531 2.467l3.14 1.812-1.652 3.226C246.933 68.946 233.4 72.86 220.17 72.167c-19.797 49.309-62.898 72.653-115.157 72.653-27 0-51.77-10.093-65.876-34.047l-.231-.39-2.055-4.182c-4.768-10.544-6.352-22.095-5.278-33.637l.323-3.457H51.45V45.732h22.865V22.866h45.733V0h27.44v45.732" fill="#364548"/>
    <path d="M221.57 54.38c1.533-11.916-7.384-21.275-12.914-25.719-6.373 7.368-7.363 26.678 2.635 34.808-5.58 4.956-17.337 9.448-29.376 9.448H35.37c-1.17 12.567 1.036 24.14 6.075 34.045l1.667 3.05a56.536 56.536 0 0 0 3.455 5.184c6.025.387 11.58.52 16.662.408h.002c9.987-.22 18.136-1.4 24.312-3.54a1.761 1.761 0 0 1 1.153 3.326c-.822.286-1.678.552-2.562.805h-.003c-4.863 1.389-10.078 2.323-16.806 2.738.4.007-.416.06-.418.06-.229.015-.517.048-.747.06-2.648.149-5.506.18-8.428.18-3.196 0-6.343-.06-9.862-.24l-.09.06c12.21 13.724 31.302 21.955 55.234 21.955 50.648 0 93.608-22.452 112.632-72.857 13.496 1.385 26.467-2.057 32.367-13.575-9.398-5.423-21.484-3.694-28.443-.196" fill="#22A0C8"/>
    <path d="M221.57 54.38c1.533-11.916-7.384-21.275-12.914-25.719-6.373 7.368-7.363 26.678 2.635 34.808-5.58 4.956-17.337 9.448-29.376 9.448H44.048c-.598 19.246 6.544 33.855 19.18 42.687h.003c9.987-.22 18.136-1.4 24.312-3.54a1.761 1.761 0 0 1 1.153 3.326c-.822.286-1.678.552-2.562.805h-.003c-4.863 1.389-10.526 2.443-17.254 2.858-.002 0-.163-.155-.165-.155 17.237 8.842 42.23 8.81 70.885-2.197 32.13-12.344 62.029-35.86 82.89-62.757-.314.142-.62.287-.917.436" fill="#37B1D9"/>
    <path d="M35.645 88.186c.91 6.732 2.88 13.035 5.8 18.776l1.667 3.05a56.432 56.432 0 0 0 3.455 5.184c6.026.387 11.581.52 16.664.408 9.987-.22 18.136-1.4 24.312-3.54a1.761 1.761 0 0 1 1.153 3.326c-.822.286-1.678.552-2.562.805h-.003c-4.863 1.389-10.496 2.383-17.224 2.799-.231.014-.634.017-.867.03-2.646.148-5.475.239-8.398.239-3.195 0-6.463-.061-9.98-.24 12.21 13.724 31.42 21.985 55.352 21.985 43.36 0 81.084-16.458 102.979-52.822H35.645" fill="#1B81A5"/>
    <path d="M45.367 88.186c2.592 11.82 8.821 21.099 17.864 27.418 9.987-.22 18.136-1.4 24.312-3.54a1.761 1.761 0 0 1 1.153 3.326c-.822.286-1.678.552-2.562.805h-.003c-4.863 1.389-10.615 2.383-17.344 2.799 17.236 8.84 42.157 8.713 70.81-2.293 17.334-6.66 34.017-16.574 48.984-28.515H45.367" fill="#1D91B4"/>
    <path d="M55.26 49.543h19.818v19.818H55.26V49.543zm1.651 1.652h1.564V67.71h-1.564V51.195zm2.94 0h1.627V67.71h-1.626V51.195zm3.002 0h1.627V67.71h-1.627V51.195zm3.004 0h1.626V67.71h-1.626V51.195zm3.003 0h1.626V67.71H68.86V51.195zm3.002 0h1.565V67.71h-1.565V51.195zM78.126 26.677h19.819v19.817h-19.82V26.677zm1.652 1.652h1.563v16.514h-1.563V28.329zm2.94 0h1.626v16.514h-1.625V28.329zm3.002 0h1.626v16.514H85.72V28.329zm3.003 0h1.626v16.514h-1.626V28.329zm3.003 0h1.627v16.514h-1.627V28.329zm3.002 0h1.566v16.514h-1.566V28.329z" fill="#23A3C2"/>
    <path d="M78.126 49.543h19.819v19.818h-19.82V49.543zm1.652 1.652h1.563V67.71h-1.563V51.195zm2.94 0h1.626V67.71h-1.625V51.195zm3.002 0h1.626V67.71H85.72V51.195zm3.003 0h1.626V67.71h-1.626V51.195zm3.003 0h1.627V67.71h-1.627V51.195zm3.002 0h1.566V67.71h-1.566V51.195z" fill="#34BBDE"/>
    <path d="M100.993 49.543h19.818v19.818h-19.818V49.543zm1.651 1.652h1.563V67.71h-1.563V51.195zm2.94 0h1.626V67.71h-1.626V51.195zm3.003 0h1.626V67.71h-1.626V51.195zm3.003 0h1.626V67.71h-1.626V51.195zm3.002 0h1.628V67.71h-1.628V51.195zm3.003 0h1.564V67.71h-1.564V51.195z" fill="#23A3C2"/>
    <path d="M100.993 26.677h19.818v19.817h-19.818V26.677zm1.651 1.652h1.563v16.514h-1.563V28.329zm2.94 0h1.626v16.514h-1.626V28.329zm3.003 0h1.626v16.514h-1.626V28.329zm3.003 0h1.626v16.514h-1.626V28.329zm3.002 0h1.628v16.514h-1.628V28.329zm3.003 0h1.564v16.514h-1.564V28.329zM123.859 49.543h19.818v19.818h-19.818V49.543zm1.652 1.652h1.563V67.71h-1.563V51.195zm2.94 0h1.626V67.71h-1.626V51.195zm3.002 0h1.626V67.71h-1.626V51.195zm3.003 0h1.627V67.71h-1.627V51.195zm3.003 0h1.627V67.71h-1.627V51.195zm3.003 0h1.564V67.71h-1.564V51.195z" fill="#34BBDE"/>
    <path d="M123.859 26.677h19.818v19.817h-19.818V26.677zm1.652 1.652h1.563v16.514h-1.563V28.329zm2.94 0h1.626v16.514h-1.626V28.329zm3.002 0h1.626v16.514h-1.626V28.329zm3.003 0h1.627v16.514h-1.627V28.329zm3.003 0h1.627v16.514h-1.627V28.329zm3.003 0h1.564v16.514h-1.564V28.329z" fill="#23A3C2"/>
    <path d="M123.859 3.81h19.818V23.63h-19.818V3.81zm1.652 1.651h1.563v16.516h-1.563V5.46zm2.94 0h1.626v16.516h-1.626V5.46zm3.002 0h1.626v16.516h-1.626V5.46zm3.003 0h1.627v16.516h-1.627V5.46zm3.003 0h1.627v16.516h-1.627V5.46zm3.003 0h1.564v16.516h-1.564V5.46z" fill="#34BBDE"/>
    <path d="M146.725 49.543h19.818v19.818h-19.818V49.543zm1.65 1.652h1.565V67.71h-1.564V51.195zm2.94 0h1.627V67.71h-1.626V51.195zm3.004 0h1.627V67.71h-1.627V51.195zm3.002 0h1.627V67.71h-1.627V51.195zm3.004 0h1.626V67.71h-1.626V51.195zm3.002 0h1.564V67.71h-1.564V51.195z" fill="#23A3C2"/>
    <path d="M96.704 101.492a5.468 5.468 0 1 1-.002 10.935 5.468 5.468 0 0 1 .002-10.935" fill="#D3ECEC"/>
    <path d="M96.704 103.043c.5 0 .977.094 1.417.265a1.598 1.598 0 0 0 .798 2.98c.605 0 1.13-.335 1.402-.831a3.915 3.915 0 1 1-3.617-2.414M0 90.162h254.327c-5.537-1.404-17.52-3.302-15.544-10.56-10.07 11.652-34.353 8.175-40.482 2.43-6.824 9.898-46.554 6.135-49.325-1.576-8.556 10.041-35.067 10.041-43.623 0-2.773 7.711-42.502 11.474-49.327 1.575-6.128 5.746-30.41 9.223-40.48-2.428C17.522 86.86 5.539 88.758 0 90.163" fill="#364548"/>
    <path d="M111.237 140.89c-13.54-6.425-20.971-15.16-25.106-24.694-5.03 1.435-11.075 2.353-18.1 2.747-2.646.148-5.43.224-8.35.224-3.368 0-6.917-.1-10.643-.297 12.417 12.41 27.692 21.964 55.976 22.138 2.088 0 4.16-.04 6.223-.118" fill="#BDD9D7"/>
    <path d="M91.16 124.994c-1.873-2.543-3.69-5.739-5.026-8.8-5.03 1.437-11.077 2.355-18.103 2.75 4.826 2.619 11.727 5.046 23.13 6.05" fill="#D3ECEC"/>
  </g>
  <g transform="matrix(0.391959, 0, 0, 0.391959, 85.419525, 16.682846)" style="">
    <rect width="120" height="120" style="fill: none; stroke-width: 0.2px; stroke: rgb(84, 84, 84); pointer-events: none; visibility: hidden;" x="15" y="15" bx:origin="0.5 0.5"/>
    <g transform="matrix(0.383104, 0, 0, 0.383104, 22.379192, -9.388293)" fill-rule="nonzero" style="">
      <path d="M39.804 116.54s21.156-18.392 83.77-18.392c57.44 0 73.584 13.013 89.98 18.392l-85.536 41.74z" fill="#c9781f"/>
      <path d="M30.873 171.897c.388 7.978 8.368 4.287 11.983 1.793 3.43-2.368 4.435-.4 4.736-5.073.197-3.07.552-6.143.377-9.227-5.19-.47-10.833.764-15.087 3.85-2.19 1.6-6.3 6.665-2 8.657" fill="#f6d2a2"/>
      <path d="M30.873 171.897c1.162-.43 2.393-.738 3.18-1.787" fill="#c6b198"/>
      <path d="M49.317 76.853c-30.583-8.6-7.842-47.443 16.717-31.462zm135.88-34.378c24.208-16.98 46.083 21.33 17.95 30.97z" fill="#37abc8"/>
      <path d="M190.405 270.087c6.15 3.8 17.388 15.288 8.164 20.86-8.863 8.104-13.823-8.895-21.602-11.25 3.35-4.543 7.596-8.686 13.438-9.608zM80.552 283.07c-7.217 1.115-11.28 7.618-17.296 10.92-5.67 3.376-7.838-1.08-8.35-1.986-.9-.405-.814.377-2.186-1.002-5.256-8.284 5.476-14.34 11.065-18.454 7.784-1.572 12.662 5.167 16.766 10.522z" fill="#f6d2a2"/>
      <path d="M50.594 66.12C46.56 64 43.6 61.095 46.067 56.434c2.285-4.314 6.53-3.846 10.565-1.715zm146.18-4.05c4.035-2.13 6.995-5.026 4.527-9.687-2.285-4.315-6.53-3.846-10.565-1.715z" fill="#077e91"/>
      <path d="M224.547 170.884c-.388 7.978-8.368 4.287-11.983 1.793-3.43-2.368-4.435-.4-4.736-5.073-.197-3.07-.552-6.143-.377-9.227 5.19-.47 10.833.764 15.087 3.85 2.19 1.6 6.3 6.665 2 8.657" fill="#f6d2a2"/>
      <path d="M224.547 170.884c-1.162-.43-2.393-.738-3.18-1.787" fill="#c6b198"/>
      <path d="M124.646 26.337c30.618 0 59.32 4.373 74.282 33.75 13.43 32.927 8.654 68.434 10.702 103.233 1.76 29.88 5.66 64.402-8.222 92.093-14.602 29.133-51.09 36.46-81.154 35.387-23.613-.844-52.138-8.537-65.465-30.082-15.635-25.275-8.233-62.86-7.098-90.983 1.345-33.315-9.036-66.73 1.923-99.33 11.37-33.816 42.03-41.46 75.03-44.066" fill="#37abc8"/>
      <path d="M130.05 67.384c5.497 31.913 57.732 23.475 50.23-8.7-6.727-28.862-52.056-20.873-50.23 8.7m-62.42 5.16c7.125 27.783 51.666 20.67 49.988-7.2-2-33.378-56.8-26.937-49.988 7.2m72.56 32.04c.024 4.265 1 8.433.158 13.22-1.06 2.002-3.14 2.214-4.935 3.022a7.26 7.26 0 0 1-5.561-4.332c-.637-5.038.237-9.916.398-14.956z" fill="#fff"/>
      <ellipse cx="79.916" cy="68.015" rx="7.521" ry="8.136" fill="#000"/>
      <ellipse cx="83.337" cy="69.85" rx="1.773" ry="2.068" fill="#fff"/>
      <ellipse cx="142.935" cy="65.988" rx="7.396" ry="8.136" fill="#000"/>
      <ellipse cx="146.3" cy="67.824" rx="1.744" ry="2.068" fill="#fff"/>
      <path d="M118.697 105.226c-3.282 7.943 1.83 23.825 10.734 12.1-.637-5.038.237-9.916.398-14.956z" fill="#fff"/>
      <path d="M118.175 89.93c-6.116.52-11.116 7.783-7.936 13.53 4.212 7.6 13.612-.673 19.466.103 6.738.138 12.26 7.115 17.67 1.26 6.02-6.51-2.592-12.852-9.32-15.687z" fill="#f6d2a2"/>
      <path d="M39.804 116.54s1.936 20.948 1.804 29.978 8.53 3.328 8.98 17.53-5.248 11.507-8.25 18.458-5.042 39.5-5.042 39.5 3.08 6.082 12.7 11.558 25.1 8.552 38.485 7.946 22.963-3.472 25.356-5.057 6.362-6.597 7.856-10.474 4.613-35.808 4.396-54.08-3.24-35.13-3.24-35.13z" fill="#ef9325"/>
      <path d="M124.655 205.505c-39.447 4.398-85.218-7.76-85.218-7.76s.672-12.33 3.633-16.67c41.027 12.694 82.417 8.67 82.417 8.67.614 5.756.18 10.332-.83 15.76zm-4.955 24.302c-39.447 4.398-82.394-8.248-82.394-8.248s-.138-11.843 1.43-17.044c41.027 12.694 84.847 9.53 84.847 9.53-.37 6.25-1.25 12.4-3.883 15.76z" fill="#e5e5e5"/>
      <path d="M213.553 116.54l-.133 29.978c.134 9.03-5.25 3.328-5.707 17.53s5.314 11.507 8.353 18.458 5.105 39.5 5.105 39.5-3.12 6.082-12.86 11.558-25.406 8.552-38.97 7.946-23.25-3.472-25.674-5.057-6.442-6.597-7.954-10.474-4.672-35.808-4.45-54.08 3.28-35.13 3.28-35.13z" fill="#ef9325"/>
      <path d="M132.715 205.505c39.943 4.398 86.3-7.76 86.3-7.76s-.68-12.33-3.678-16.67c-41.542 12.694-83.452 8.67-83.452 8.67-.622 5.756-.184 10.332.842 15.76zm5.027 24.302c39.943 4.398 83.43-8.248 83.43-8.248s.14-11.843-1.447-17.044c-41.542 12.694-85.913 9.53-85.913 9.53.374 6.25 1.265 12.4 3.932 15.76z" fill="#e5e5e5"/>
      <path d="M229.487 154.96c-1.24 2.34-3.698 3.468-5.487 2.52l-1.434-.758c-1.79-.947-2.235-3.61-.993-5.95l27.952-52.688c1.24-2.34 3.698-3.468 5.487-2.52l1.434.758c1.79.947 2.235 3.61.993 5.95z" fill="#d2e261"/>
      <path d="M216.286 179.843c-.723 1.363-2.76 1.7-4.55.753l-1.434-.758c-1.79-.947-2.655-2.82-1.93-4.182l13.114-24.72c.723-1.363 2.76-1.7 4.55-.753l1.434.758c1.79.947 2.655 2.82 1.93 4.182z" fill="#000"/>
      <path d="M227.946 150.042l-1.434-.758c-1.79-.947-3.62-.998-4.09-.115l-.838 1.58c.47-.884 2.3-.832 4.09.115l1.434.758c1.79.947 2.86 2.43 2.392 3.314l.838-1.58c.47-.883-.603-2.367-2.392-3.314z" fill="#9b9b9b"/>
      <ellipse transform="rotate(20.414 216.137 164.336)" cx="216.137" cy="164.336" rx="6.153" ry="4.754" fill="#f6d2a2"/>
      <path d="M26.943 155.81c1.132 2.394 3.535 3.634 5.366 2.77l1.467-.692c1.83-.864 2.398-3.505 1.266-5.898L9.538 98.078c-1.132-2.394-3.535-3.634-5.366-2.77L2.706 96c-1.83.864-2.398 3.505-1.266 5.898z" fill="#d2e261"/>
      <path d="M38.988 181.272c.66 1.394 2.68 1.824 4.5.96l1.467-.692c1.83-.864 2.78-2.695 2.12-4.09L35.12 152.158c-.66-1.394-2.68-1.824-4.5-.96l-1.467.692c-1.83.864-2.78 2.695-2.12 4.09z" fill="#000"/>
      <path d="M28.708 150.968l1.467-.692c1.83-.864 3.662-.832 4.1.072l.765 1.617c-.428-.904-2.26-.936-4.1-.073l-1.467.692c-1.83.864-2.97 2.297-2.542 3.2l-.765-1.617c-.427-.903.71-2.337 2.542-3.2z" fill="#9b9b9b"/>
      <ellipse transform="rotate(159.586 41.089 165.024)" cx="41.089" cy="165.024" rx="6.153" ry="4.754" fill="#f6d2a2"/>
      <path d="M52.905 88.827c-1.216 2.208-4.084 2.964-6.407 1.688l-2.672-1.467c-2.323-1.276-3.22-4.1-2.004-6.308l27.804-50.496c1.216-2.208 4.084-2.964 6.407-1.688l2.672 1.467c2.323 1.276 2.922 3.662 2.004 6.308-9.74 28.064-27.804 50.496-27.804 50.496z" fill="#960000"/>
      <path d="M60.26 59.985c8.455-15.356 14-28.563 12.687-30.06l.03-.056c-.036-.02-.075-.033-.11-.053l-.014-.007c-12.993-7.03-30.473-.068-39.108 15.616s-5.16 34.154 7.746 41.344l-.004.008c.054.02.085.047.12.066l.03-.056c1.975.314 10.166-11.446 18.62-26.8z" fill="#595959"/>
      <path d="M199.593 88.933c1.15 2.242 3.997 3.08 6.356 1.872l2.713-1.4c2.36-1.208 3.337-4.005 2.186-6.247l-26.333-51.276c-1.15-2.242-3.997-3.08-6.356-1.872l-2.713 1.4c-2.36 1.208-3.027 3.577-2.186 6.247 8.925 28.333 26.333 51.276 26.333 51.276z" fill="#960000"/>
      <path d="M193.074 59.9c-8.008-15.593-13.18-28.955-11.813-30.414l-.03-.057c.037-.02.076-.03.112-.05l.015-.006c13.2-6.653 30.462.8 38.64 16.737s4.17 34.288-8.937 41.104l.004.008c-.054.02-.086.044-.123.063l-.03-.057c-1.983.256-9.832-11.734-17.84-27.327z" fill="#595959"/>
      <path d="M219.147 53.314s-9.73-24.334-21.012-37.2-121.675-17.253-139.803 0-24.963 37.2-24.963 37.2v-5.4s8.385-23.69 24.963-37.2 125.518-12.8 139.572 0 21.243 37.2 21.243 37.2z" fill="#353535"/>
      <g fill="#960000">
        <ellipse transform="matrix(-.889823 .456306 -.456306 -.889823 411.322893 .104922)" cx="192.49" cy="46.096" rx="3.81" ry="9.294"/>
        <ellipse transform="matrix(.876281 .4818 -.4818 .876281 49.435695 2.495276)" cx="8.209" cy="45.461" rx="3.81" ry="9.294"/>
      </g>
      <g fill="#fff">
        <path d="M177.55 48.18H74.586c-18.487 0-18.423 49.06-1.066 51.887l35.89-2.305c4.34 0 13.004-16.784 14.63-18.103s6.98-1.48 9.087 0S140.03 96.07 144.37 96.07l35.89 3.996c16.765-7.704 12.538-51.887-2.7-51.887z" opacity=".6"/>
        <path d="M101.924 58.324c-11.34-.253-29.084-.15-38.777-.07-1.625 5.32-3.437 12.058-2.538 18.6l41.547.043c8.194 0 15.083 1.544 21.5 3.217.158-.2.29-.35.394-.434 1.626-1.32 6.98-1.48 9.087 0 .545.383 1.274 1.674 2.124 3.367 3.27.69 6.548 1.165 9.952 1.207l44.992.04c1.78-5.944.468-12.316.07-18.304-13.654 0-35.354-.308-45.758-.308-14.66-.001-27.458-7.02-42.582-7.357z" opacity=".5"/>
      </g>
      <path d="M117.405 89.612c-.453-10.582 19.75-11.905 22.136-3.047 2.38 8.837-21.14 10.9-22.136 3.047-.794-6.262 0 0 0 0z" fill="#000"/>
    </g>
    <g transform="matrix(1, 0, 0, 1, 15.002501, 93.505272)">
      <path d="M 29.565 40.267 C 28.487 40.267 27.63 39.92 26.993 39.227 C 26.356 38.524 26.037 37.445 26.037 35.992 L 26.037 27.892 L 24.322 27.892 C 24.012 27.892 23.774 27.817 23.605 27.667 C 23.445 27.517 23.365 27.315 23.365 27.062 C 23.365 26.818 23.445 26.622 23.605 26.472 C 23.765 26.312 23.999 26.232 24.308 26.232 L 26.038 26.232 L 26.375 22.238 C 26.395 21.938 26.525 21.68 26.769 21.464 C 27.022 21.248 27.299 21.141 27.599 21.141 C 27.86 21.133 28.112 21.229 28.302 21.408 C 28.489 21.578 28.582 21.825 28.582 22.153 L 28.582 26.233 L 31.169 26.233 C 31.479 26.233 31.709 26.313 31.859 26.473 C 32.019 26.633 32.099 26.839 32.099 27.093 C 32.099 27.627 31.789 27.895 31.171 27.895 L 28.58 27.895 L 28.58 35.56 C 28.58 36.526 28.716 37.224 28.988 37.656 C 29.26 38.078 29.691 38.289 30.281 38.289 L 30.436 38.289 L 31.392 38.247 L 31.476 38.247 C 31.786 38.247 32.029 38.345 32.206 38.542 C 32.383 38.739 32.473 38.969 32.473 39.232 C 32.473 39.466 32.421 39.659 32.318 39.809 C 32.215 39.949 32.056 40.053 31.84 40.119 C 31.634 40.185 31.422 40.227 31.207 40.246 C 31.001 40.266 30.729 40.274 30.392 40.274 L 29.565 40.267 Z M 36.705 40.07 C 36.358 40.07 36.063 39.967 35.819 39.76 C 35.575 39.553 35.454 39.263 35.454 38.888 L 35.454 27.286 C 35.454 26.911 35.581 26.626 35.834 26.428 C 36.088 26.222 36.407 26.112 36.734 26.119 C 37.081 26.119 37.376 26.222 37.62 26.429 C 37.873 26.626 38 26.903 38 27.259 L 37.986 28.947 C 38.211 28.089 38.703 27.326 39.392 26.767 C 40.104 26.177 40.957 25.881 41.95 25.881 C 42.25 25.881 42.484 25.994 42.653 26.219 C 42.831 26.444 42.92 26.707 42.92 27.007 C 42.926 27.271 42.841 27.529 42.681 27.738 C 42.521 27.935 42.291 28.033 41.991 28.033 C 40.726 28.033 39.741 28.361 39.039 29.018 C 38.346 29.674 37.999 30.551 37.999 31.648 L 37.999 38.891 C 37.999 39.266 37.869 39.557 37.605 39.763 C 37.351 39.969 37.032 40.079 36.705 40.072 L 36.705 40.07 Z M 71.091 40.07 C 70.761 40.077 70.441 39.962 70.191 39.747 C 69.947 39.522 69.826 39.213 69.826 38.819 L 69.826 27.9 L 67.986 27.9 C 67.676 27.9 67.446 27.825 67.296 27.675 C 67.146 27.515 67.065 27.303 67.071 27.084 C 67.071 26.84 67.146 26.639 67.296 26.479 C 67.446 26.319 67.676 26.239 67.986 26.239 L 69.826 26.239 L 69.826 24.453 C 69.826 22.775 70.182 21.583 70.894 20.881 C 71.606 20.168 72.59 19.811 73.846 19.811 L 75.561 19.811 C 75.833 19.811 76.044 19.909 76.194 20.106 C 76.354 20.294 76.434 20.519 76.434 20.781 C 76.434 21.043 76.354 21.269 76.194 21.456 C 76.044 21.644 75.829 21.736 75.547 21.736 L 74.352 21.736 C 73.949 21.736 73.635 21.774 73.41 21.849 C 73.185 21.915 72.984 22.069 72.806 22.313 C 72.636 22.547 72.52 22.89 72.456 23.34 C 72.4 23.78 72.372 24.38 72.372 25.14 L 72.372 26.237 L 74.748 26.237 C 75.058 26.237 75.282 26.317 75.423 26.477 C 75.573 26.637 75.648 26.837 75.648 27.082 C 75.648 27.626 75.348 27.898 74.748 27.898 L 72.37 27.898 L 72.37 38.82 C 72.37 39.214 72.243 39.523 71.99 39.748 C 71.737 39.964 71.437 40.071 71.09 40.071 L 71.091 40.07 Z M 79.961 22.84 C 79.464 22.84 79.066 22.7 78.766 22.418 C 78.466 22.128 78.316 21.752 78.316 21.293 C 78.316 20.834 78.466 20.459 78.766 20.168 C 79.076 19.878 79.478 19.732 79.976 19.732 C 80.463 19.732 80.856 19.877 81.156 20.168 C 81.456 20.448 81.606 20.824 81.606 21.293 C 81.606 21.753 81.456 22.128 81.156 22.418 C 80.856 22.698 80.458 22.84 79.961 22.84 L 79.961 22.84 Z M 79.947 40.07 C 79.621 40.078 79.305 39.963 79.061 39.747 C 78.817 39.522 78.696 39.203 78.696 38.791 L 78.696 27.356 C 78.696 26.962 78.823 26.653 79.076 26.428 C 79.328 26.206 79.654 26.086 79.99 26.09 C 80.314 26.085 80.627 26.206 80.862 26.428 C 81.115 26.653 81.242 26.962 81.242 27.356 L 81.242 38.8 C 81.242 39.194 81.112 39.508 80.848 39.742 C 80.602 39.965 80.28 40.085 79.948 40.08 L 79.947 40.07 Z M 86.707 40.07 C 86.381 40.078 86.065 39.963 85.821 39.747 C 85.577 39.522 85.456 39.203 85.456 38.791 L 85.456 21.251 C 85.456 20.857 85.583 20.548 85.836 20.323 C 86.088 20.101 86.414 19.981 86.75 19.985 C 87.074 19.98 87.387 20.101 87.622 20.323 C 87.875 20.548 88.002 20.857 88.002 21.251 L 88.002 32.011 L 94.384 26.161 C 94.59 25.983 94.81 25.894 95.044 25.894 C 95.344 25.894 95.606 26.011 95.831 26.246 C 96.065 26.48 96.181 26.743 96.181 27.034 C 96.181 27.297 96.069 27.536 95.844 27.751 L 90.741 32.321 L 96.321 38.201 C 96.518 38.394 96.629 38.657 96.63 38.932 C 96.63 39.232 96.508 39.499 96.265 39.734 C 96.031 39.968 95.759 40.086 95.45 40.086 C 95.122 40.086 94.84 39.956 94.607 39.692 L 88 32.66 L 88 38.8 C 88 39.203 87.87 39.517 87.606 39.742 C 87.36 39.965 87.038 40.085 86.706 40.08 L 86.707 40.07 Z" fill="#000"/>
      <path d="M 48.52 40.066 C 46.9 39.926 45.663 39.438 44.763 38.582 C 43.847 37.712 43.453 36.577 43.609 35.25 C 43.787 33.724 44.512 32.646 45.784 32.017 C 46.764 31.532 47.741 31.347 49.334 31.347 C 50.464 31.346 51.412 31.439 52.858 31.691 L 53.546 31.804 C 53.576 31.804 53.6 31.69 53.666 31.234 C 53.786 30.411 53.806 30.127 53.774 29.797 C 53.736 29.413 53.687 29.23 53.542 28.933 C 53.167 28.166 52.277 27.696 50.847 27.513 C 50.261 27.459 49.672 27.454 49.085 27.499 C 48.399 27.577 48.015 27.676 47.162 27.996 C 46.662 28.183 46.66 28.184 46.462 28.172 C 46.119 28.152 45.886 27.997 45.736 27.69 C 45.674 27.564 45.663 27.512 45.663 27.34 C 45.663 27.084 45.73 26.95 45.961 26.732 C 46.481 26.246 47.354 25.832 48.236 25.654 C 48.801 25.54 49.079 25.516 49.823 25.517 C 50.593 25.519 51.085 25.562 51.77 25.689 C 52.908 25.901 53.772 26.274 54.424 26.835 C 54.617 27.001 54.909 27.329 55.024 27.52 C 55.062 27.578 55.102 27.626 55.111 27.626 C 55.12 27.626 55.184 27.556 55.251 27.47 C 56.238 26.212 57.901 25.5 59.847 25.5 C 61.224 25.5 62.504 25.85 63.457 26.483 C 64.214 26.986 64.829 27.761 65.077 28.525 C 65.22 28.965 65.241 29.125 65.243 29.763 L 65.211 30.551 C 64.988 31.803 64.456 32.671 63.533 33.288 C 62.79 33.785 61.858 34.076 60.638 34.19 C 60.024 34.248 58.901 34.242 58.173 34.178 L 56.473 33.963 L 55.267 33.763 C 55.231 33.968 55.198 34.174 55.169 34.38 C 55.103 34.742 55.071 35.11 55.075 35.478 C 55.073 35.913 55.079 35.99 55.132 36.191 C 55.302 36.837 55.672 37.269 56.348 37.603 C 57.012 37.933 57.708 38.073 58.76 38.096 L 59.755 38.068 C 60.461 37.993 60.783 37.911 61.721 37.566 L 62.251 37.392 C 62.419 37.379 62.587 37.41 62.74 37.482 C 62.999 37.632 63.166 37.902 63.186 38.201 C 63.185 38.511 63.08 38.701 62.772 38.946 C 62.036 39.532 61.095 39.892 59.972 40.016 C 59.572 40.06 58.658 40.066 58.217 40.029 C 56.974 39.921 56.111 39.709 55.323 39.316 C 54.708 39.01 54.238 38.629 53.888 38.154 L 53.725 37.934 C 53.722 37.93 53.665 37.998 53.598 38.084 C 53.303 38.464 52.852 38.884 52.412 39.16 C 51.776 39.574 50.862 39.89 49.938 40.015 C 49.465 40.059 48.989 40.075 48.514 40.063 L 48.52 40.066 Z M 50.107 38.284 C 50.861 38.117 51.534 37.74 52.022 37.21 C 52.467 36.727 52.822 36.003 53.032 35.206 C 53.145 34.756 53.334 33.506 53.292 33.479 C 53.276 33.469 53.176 33.453 53.072 33.443 L 52.406 33.363 L 49.37 33.113 C 48.356 33.17 47.942 33.258 47.333 33.549 C 47.021 33.699 46.806 33.859 46.635 34.073 C 46.394 34.371 46.225 34.72 46.14 35.093 C 46.064 35.533 46.059 35.982 46.127 36.423 C 46.244 36.847 46.383 37.087 46.695 37.403 C 47.123 37.838 47.685 38.128 48.385 38.273 C 48.743 38.347 48.732 38.346 49.331 38.337 C 49.765 38.33 49.928 38.317 50.106 38.279 L 50.107 38.284 Z M 59.991 32.418 C 60.621 32.362 61.011 32.264 61.487 32.04 C 61.883 31.854 62.114 31.663 62.332 31.34 C 62.652 30.866 62.778 30.418 62.775 29.753 C 62.773 29.278 62.733 29.081 62.569 28.74 C 62.203 27.98 61.344 27.434 60.217 27.248 C 59.937 27.202 59.181 27.21 58.893 27.262 C 58.338 27.362 57.87 27.548 57.456 27.828 C 56.692 28.345 56.166 29.124 55.871 30.17 C 55.756 30.58 55.725 30.74 55.621 31.447 L 55.526 32.1 L 55.653 32.114 L 57.403 32.326 L 58.265 32.423 C 58.839 32.458 59.415 32.456 59.989 32.416 L 59.991 32.418 Z" fill="#37abc8"/>
    </g>
  </g>
</svg>