<?xml version="1.0" encoding="utf-8"?>
<svg height="100%" style="fill-rule:evenodd;clip-rule:evenodd;stroke-linecap:round;stroke-linejoin:round;" width="100%" version="1.1" viewBox="0 0 150 150" xmlns="http://www.w3.org/2000/svg" xmlns:bx="https://boxy-svg.com">
  <defs>
    <bx:grid x="0" y="0" width="15" height="15"/>
    <linearGradient x1="49.9947839%" y1="122.450358%" x2="49.9947839%" y2="31.1390083%" id="linearGradient-1">
      <stop stop-color="#FFF100" offset="0"/>
      <stop stop-color="#F05A28" offset="1"/>
    </linearGradient>
    <linearGradient gradientUnits="userSpaceOnUse" x1="25.904" y1="9.252" x2="25.904" y2="23.439" id="gradient-0" gradientTransform="matrix(0.093983, 2.085683, -2.178431, 0.399423, 57.57654, -15.248901)">
      <stop offset="0" style="stop-color: rgb(253, 207, 3);"/>
      <stop offset="1" style="stop-color: rgb(98, 229, 249);"/>
    </linearGradient>
    <radialGradient gradientUnits="userSpaceOnUse" cx="259.793" cy="292.739" r="228.876" id="gradient-1" gradientTransform="matrix(0.902503, -0.004852, 0.004937, 0.918154, 23.920311, 20.03079)">
      <stop offset="0" style="stop-color: rgb(5, 148, 210);"/>
      <stop offset="1" style="stop-color: rgb(85, 193, 241);"/>
    </radialGradient>
  </defs>
  <rect width="120" height="120" style="fill: none; stroke-width: 0.2px; stroke: rgb(84, 84, 84); pointer-events: none; visibility: hidden;" x="15" y="15" bx:origin="0.5 0.5"/>
  <g transform="matrix(0.127284, 0, 0, 0.127284, 15.364487, 72.571396)" style="">
    <rect x="30.953" y="32.714" width="457.753" height="457.753" style="fill: url(#gradient-1);" rx="29.051" ry="29.051"/>
    <path fill-rule="evenodd" clip-rule="evenodd" d="M 248.747 96.066 C 255.018 89.72 265.261 89.634 271.637 95.872 C 271.694 95.927 271.749 95.983 271.805 96.038 L 351.994 176.789 L 351.994 173.408 C 351.994 166.426 357.676 160.814 364.626 160.814 L 394.373 160.814 C 401.323 160.814 407.004 166.426 407.004 173.408 L 407.004 232.468 L 443.587 269.78 C 449.022 275.324 448.909 284.212 443.338 289.619 C 440.71 292.168 437.19 293.59 433.532 293.59 L 407.004 293.59 L 407.004 410.123 C 407.004 417.106 401.323 422.719 394.373 422.719 L 126.16 422.719 C 119.212 422.719 113.529 417.106 113.529 410.123 L 113.529 293.59 L 87.125 293.59 C 79.387 293.59 73.066 287.342 73.066 279.575 C 73.066 275.891 74.522 272.358 77.11 269.739 L 248.747 96.066 Z" style="fill: rgb(255, 255, 255);"/>
    <path d="M 308.781 266.656 C 309.638 264.865 310.117 262.856 310.117 260.738 C 310.117 253.155 303.972 247.01 296.391 247.01 C 288.81 247.01 282.665 253.155 282.665 260.738 C 282.665 268.319 288.81 274.465 296.391 274.465 C 298.511 274.465 300.517 273.985 302.309 273.127 L 322.015 292.834 L 322.015 311.921 L 297.306 336.63 L 297.306 318.526 C 302.637 316.642 306.458 311.557 306.458 305.579 C 306.458 297.999 300.311 291.853 292.731 291.853 C 285.15 291.853 279.005 297.999 279.005 305.579 C 279.005 311.557 282.823 316.642 288.154 318.526 L 288.154 345.782 L 265.278 368.661 L 265.278 234.263 L 284.067 215.472 C 285.859 216.33 287.865 216.811 289.986 216.811 C 297.566 216.811 303.712 210.665 303.712 203.083 C 303.712 195.502 297.566 189.356 289.986 189.356 C 282.405 189.356 276.26 195.502 276.26 203.083 C 276.26 205.203 276.739 207.21 277.596 209.003 L 260.702 225.897 L 243.808 209.003 C 244.666 207.21 245.146 205.203 245.146 203.083 C 245.146 195.502 238.999 189.356 231.419 189.356 C 223.839 189.356 217.693 195.502 217.693 203.083 C 217.693 210.665 223.839 216.811 231.419 216.811 C 233.539 216.811 235.544 216.33 237.338 215.472 L 256.127 234.263 L 256.127 330.224 L 223.183 297.278 L 223.183 270.938 C 228.515 269.054 232.334 263.97 232.334 257.993 C 232.334 250.411 226.188 244.265 218.608 244.265 C 211.027 244.265 204.882 250.411 204.882 257.993 C 204.882 263.97 208.702 269.054 214.032 270.938 L 214.032 288.128 L 188.409 262.504 L 188.409 237.078 C 193.741 235.194 197.56 230.108 197.56 224.132 C 197.56 216.55 191.415 210.404 183.834 210.404 C 176.252 210.404 170.107 216.55 170.107 224.132 C 170.107 230.108 173.927 235.194 179.258 237.078 L 179.258 266.294 L 207.562 294.598 L 191.289 294.598 C 189.404 289.266 184.32 285.448 178.342 285.448 C 170.762 285.448 164.616 291.593 164.616 299.174 C 164.616 306.756 170.762 312.901 178.342 312.901 C 184.32 312.901 189.404 309.082 191.289 303.75 L 216.712 303.75 L 256.127 343.166 L 256.127 411.673 L 235.08 390.624 L 235.08 364.283 C 240.41 362.399 244.23 357.314 244.23 351.337 C 244.23 343.757 238.086 337.61 230.503 337.61 C 222.923 337.61 216.778 343.757 216.778 351.337 C 216.778 357.314 220.597 362.399 225.928 364.283 L 225.928 381.473 L 195.307 350.85 C 196.165 349.057 196.645 347.051 196.645 344.931 C 196.645 337.35 190.5 331.205 182.919 331.205 C 175.337 331.205 169.192 337.35 169.192 344.931 C 169.192 352.512 175.337 358.658 182.919 358.658 C 185.037 358.658 187.045 358.178 188.836 357.322 L 219.457 387.944 L 203.185 387.944 C 201.3 382.612 196.217 378.792 190.24 378.792 C 182.659 378.792 176.513 384.938 176.513 392.52 C 176.513 400.1 182.659 406.246 190.24 406.246 C 196.217 406.246 201.3 402.427 203.185 397.094 L 228.609 397.094 L 254.232 422.719 L 267.173 422.719 L 293.711 396.18 L 318.219 396.18 C 320.104 401.512 325.188 405.33 331.165 405.33 C 338.747 405.33 344.891 399.185 344.891 391.603 C 344.891 384.023 338.747 377.877 331.165 377.877 C 325.188 377.877 320.104 381.697 318.219 387.028 L 289.92 387.028 L 265.278 411.673 L 265.278 381.603 L 294.627 352.252 L 342.012 352.252 C 343.897 357.584 348.981 361.404 354.957 361.404 C 362.538 361.404 368.684 355.258 368.684 347.677 C 368.684 340.096 362.538 333.951 354.957 333.951 C 348.981 333.951 343.897 337.769 342.012 343.1 L 303.777 343.1 L 331.165 315.711 L 331.165 292.834 L 350.869 273.127 C 352.662 273.985 354.669 274.465 356.788 274.465 C 364.368 274.465 370.514 268.319 370.514 260.738 C 370.514 253.155 364.368 247.01 356.788 247.01 C 349.207 247.01 343.061 253.155 343.061 260.738 C 343.061 262.856 343.542 264.865 344.4 266.656 L 331.165 279.891 L 331.165 237.994 C 336.495 236.108 340.317 231.024 340.317 225.048 C 340.317 217.467 334.171 211.321 326.589 211.321 C 319.009 211.321 312.863 217.467 312.863 225.048 C 312.863 231.024 316.683 236.108 322.015 237.994 L 322.015 279.891 L 308.781 266.656 Z M 190.24 398.01 C 187.208 398.01 184.748 395.551 184.748 392.52 C 184.748 389.487 187.208 387.028 190.24 387.028 C 193.271 387.028 195.73 389.487 195.73 392.52 C 195.73 395.551 193.271 398.01 190.24 398.01 Z M 230.503 356.828 C 227.472 356.828 225.013 354.371 225.013 351.337 C 225.013 348.305 227.472 345.846 230.503 345.846 C 233.536 345.846 235.993 348.305 235.993 351.337 C 235.993 354.371 233.536 356.828 230.503 356.828 Z M 182.919 350.423 C 179.887 350.423 177.429 347.965 177.429 344.931 C 177.429 341.898 179.887 339.442 182.919 339.442 C 185.951 339.442 188.409 341.898 188.409 344.931 C 188.409 347.965 185.951 350.423 182.919 350.423 Z M 178.342 304.665 C 175.311 304.665 172.852 302.207 172.852 299.174 C 172.852 296.142 175.311 293.683 178.342 293.683 C 181.377 293.683 183.834 296.142 183.834 299.174 C 183.834 302.207 181.377 304.665 178.342 304.665 Z M 292.731 311.071 C 289.698 311.071 287.24 308.613 287.24 305.579 C 287.24 302.548 289.698 300.089 292.731 300.089 C 295.763 300.089 298.221 302.548 298.221 305.579 C 298.221 308.613 295.763 311.071 292.731 311.071 Z M 354.957 353.168 C 351.925 353.168 349.467 350.71 349.467 347.677 C 349.467 344.644 351.925 342.186 354.957 342.186 C 357.991 342.186 360.448 344.644 360.448 347.677 C 360.448 350.71 357.991 353.168 354.957 353.168 Z M 331.165 397.094 C 328.132 397.094 325.675 394.638 325.675 391.603 C 325.675 388.571 328.132 386.113 331.165 386.113 C 334.197 386.113 336.656 388.571 336.656 391.603 C 336.656 394.638 334.197 397.094 331.165 397.094 Z M 356.788 266.229 C 353.755 266.229 351.297 263.77 351.297 260.738 C 351.297 257.706 353.755 255.248 356.788 255.248 C 359.82 255.248 362.278 257.706 362.278 260.738 C 362.278 263.77 359.82 266.229 356.788 266.229 Z M 326.589 230.538 C 323.558 230.538 321.098 228.079 321.098 225.048 C 321.098 222.015 323.558 219.556 326.589 219.556 C 329.622 219.556 332.08 222.015 332.08 225.048 C 332.08 228.079 329.622 230.538 326.589 230.538 Z M 289.986 208.575 C 286.953 208.575 284.496 206.116 284.496 203.083 C 284.496 200.052 286.953 197.592 289.986 197.592 C 293.018 197.592 295.476 200.052 295.476 203.083 C 295.476 206.116 293.018 208.575 289.986 208.575 Z M 231.419 208.575 C 228.387 208.575 225.928 206.116 225.928 203.083 C 225.928 200.052 228.387 197.592 231.419 197.592 C 234.452 197.592 236.909 200.052 236.909 203.083 C 236.909 206.116 234.452 208.575 231.419 208.575 Z M 183.834 229.623 C 180.801 229.623 178.342 227.164 178.342 224.132 C 178.342 221.1 180.801 218.641 183.834 218.641 C 186.866 218.641 189.324 221.1 189.324 224.132 C 189.324 227.164 186.866 229.623 183.834 229.623 Z M 218.608 263.483 C 215.575 263.483 213.117 261.025 213.117 257.993 C 213.117 254.96 215.575 252.501 218.608 252.501 C 221.64 252.501 224.098 254.96 224.098 257.993 C 224.098 261.025 221.64 263.483 218.608 263.483 Z M 296.391 266.229 C 293.359 266.229 290.9 263.77 290.9 260.738 C 290.9 257.706 293.359 255.248 296.391 255.248 C 299.424 255.248 301.881 257.706 301.881 260.738 C 301.881 263.77 299.424 266.229 296.391 266.229 Z" style="fill: rgb(75, 191, 243);"/>
  </g>
  <g style="" transform="matrix(0.545534, 0.254387, -0.254387, 0.545534, 81.593216, -27.949644)">
    <g transform="matrix(0.219341, 0, 0, 0.219341, 19.404055, 59.414818)" style="">
      <path d="M255.5901,122.775215 C255.130268,118.100253 254.363881,112.735543 252.831107,106.757724 C251.298332,100.856543 248.999171,94.3422529 245.627068,87.5980463 C242.254965,80.8538398 237.886558,73.8797171 232.215293,67.0588719 C229.992771,64.376517 227.540332,61.7708008 224.934616,59.2417234 C228.84319,43.6840651 220.183016,30.195652 220.183016,30.195652 C205.238467,29.2759875 195.735267,34.8706134 192.209886,37.3996908 C191.596777,37.1697747 191.060306,36.8632199 190.447196,36.6333037 C187.918119,35.6370005 185.312402,34.6406972 182.553409,33.7976714 C179.871054,32.9546456 177.11206,32.1882585 174.276428,31.4985101 C171.440796,30.8087617 168.605164,30.2722907 165.692893,29.8124585 C165.156422,29.7358198 164.696589,29.659181 164.160118,29.5825423 C157.645828,8.73681302 138.945983,0 138.945983,0 C118.023614,13.258497 114.11504,31.8050649 114.11504,31.8050649 C114.11504,31.8050649 114.038402,32.1882585 113.885124,32.8780069 C112.735543,33.1845617 111.585963,33.5677553 110.436382,33.8743101 C108.826969,34.3341424 107.217556,34.9472521 105.684782,35.5603618 C104.075369,36.1734715 102.542595,36.7865811 100.933182,37.4763295 C97.7909949,38.8558263 94.6488077,40.3886005 91.5832593,42.0746522 C88.5943496,43.7607038 85.6820786,45.6000329 82.8464463,47.5160006 C82.4632527,47.3627232 82.0800592,47.2094458 82.0800592,47.2094458 C53.1106265,36.1734715 27.4366584,49.4319684 27.4366584,49.4319684 C25.0608584,80.2407301 39.0091038,99.6303239 41.7680973,103.155705 C41.0783489,105.071672 40.4652393,106.98764 39.8521296,108.903608 C37.7062457,115.877731 36.0968327,123.005131 35.1005295,130.439086 C34.9472521,131.512028 34.7939747,132.58497 34.717336,133.657911 C7.8937872,146.916408 0,173.969873 0,173.969873 C22.3018648,199.643841 48.3590265,201.253254 48.3590265,201.253254 C48.3590265,201.253254 48.4356652,201.176616 48.4356652,201.176616 C51.7311297,207.077796 55.5630653,212.672422 59.8548331,217.960493 C61.6941621,220.183016 63.5334912,222.252261 65.5260977,224.321506 C57.4023943,247.619674 66.6756783,266.932629 66.6756783,266.932629 C91.5066206,267.852294 107.830666,256.049932 111.279408,253.367578 C113.731847,254.210603 116.260924,254.976991 118.790002,255.5901 C126.453873,257.582707 134.271021,258.732287 142.08817,259.038842 C144.004137,259.115481 145.996744,259.19212 147.912712,259.115481 L148.832376,259.115481 L149.445486,259.115481 L150.671705,259.115481 L151.897925,259.038842 L151.897925,259.115481 C163.623647,275.82272 184.162822,278.19852 184.162822,278.19852 C198.800816,262.794139 199.643841,247.466397 199.643841,244.170932 C199.643841,244.170932 199.643841,244.094294 199.643841,243.941016 C199.643841,243.634461 199.643841,243.481184 199.643841,243.481184 C199.643841,243.251268 199.643841,243.021352 199.643841,242.791436 C202.70939,240.645552 205.621661,238.34639 208.380654,235.817313 C214.205196,230.529242 219.33999,224.474784 223.631758,217.960493 C224.014951,217.347384 224.398145,216.734274 224.781339,216.121164 C241.3353,217.040829 253.061023,205.851577 253.061023,205.851577 C250.302029,188.607867 240.492274,180.177609 238.423029,178.568196 C238.423029,178.568196 238.34639,178.491557 238.193113,178.414919 C238.039835,178.33828 238.039835,178.261641 238.039835,178.261641 C238.039835,178.261641 238.039835,178.261641 238.039835,178.261641 C237.963197,178.185002 237.809919,178.108364 237.656642,178.031725 C237.733281,176.958783 237.809919,175.96248 237.886558,174.889538 C238.039835,173.050209 238.039835,171.134241 238.039835,169.294912 L238.039835,167.915415 L238.039835,167.225667 L238.039835,166.842473 C238.039835,166.382641 238.039835,166.535918 238.039835,166.382641 L237.963197,165.23306 L237.886558,163.700286 C237.886558,163.163815 237.809919,162.703983 237.733281,162.244151 C237.656642,161.784318 237.656642,161.247847 237.580003,160.788015 L237.426726,159.33188 L237.19681,157.875744 C236.890255,155.959776 236.5837,154.120447 236.123868,152.204479 C234.361177,144.770525 231.448906,137.719763 227.69361,131.35875 C223.861674,124.997737 219.110074,119.403111 213.668725,114.651511 C208.304016,109.899911 202.249558,106.067976 195.965183,103.232343 C189.60417,100.396711 183.013241,98.557382 176.422312,97.7143562 C173.126847,97.2545239 169.831383,97.1012465 166.535918,97.1778852 L165.309699,97.1778852 L165.003144,97.1778852 C164.926505,97.1778852 164.543312,97.1778852 164.619951,97.1778852 L164.08348,97.1778852 L162.85726,97.2545239 C162.397428,97.2545239 161.937596,97.3311626 161.554402,97.3311626 C159.868351,97.48444 158.182299,97.7143562 156.572886,98.020911 C149.981957,99.2471304 143.774221,101.62293 138.332873,104.918395 C132.891524,108.21386 128.139924,112.275711 124.307989,116.874034 C120.476053,121.472356 117.487144,126.60715 115.417898,131.895221 C113.348653,137.183292 112.199072,142.701279 111.892518,147.98935 C111.815879,149.292208 111.815879,150.671705 111.815879,151.974563 C111.815879,152.281118 111.815879,152.664312 111.815879,152.970867 L111.892518,154.043809 C111.969156,154.656918 111.969156,155.346667 112.045795,155.959776 C112.275711,158.642131 112.812182,161.247847 113.501931,163.700286 C114.958066,168.681802 117.257227,173.203486 120.09286,177.035422 C122.928492,180.867357 126.377234,184.009544 129.979253,186.538622 C133.581273,188.991061 137.489847,190.753751 141.321783,191.903332 C145.153718,193.052912 148.985654,193.512745 152.587673,193.512745 C153.047505,193.512745 153.507338,193.512745 153.890531,193.512745 C154.120447,193.512745 154.350363,193.512745 154.580279,193.512745 C154.810196,193.512745 155.040112,193.512745 155.270028,193.436106 C155.653221,193.436106 156.036415,193.359467 156.419609,193.359467 C156.496247,193.359467 156.649525,193.359467 156.726163,193.282828 L157.109357,193.20619 C157.339273,193.20619 157.569189,193.129551 157.799105,193.129551 C158.258938,193.052912 158.642131,192.976274 159.101963,192.899635 C159.561796,192.822996 159.944989,192.746357 160.328183,192.59308 C161.171209,192.439803 161.937596,192.133248 162.703983,191.903332 C164.236757,191.366861 165.769531,190.753751 167.072389,190.064003 C168.451886,189.374254 169.678106,188.531228 170.904325,187.764841 C171.21088,187.534925 171.594073,187.305009 171.900628,186.998454 C173.126847,186.002151 173.356764,184.162822 172.36046,182.936602 C171.517435,181.863661 169.98466,181.557106 168.758441,182.246854 C168.451886,182.400131 168.145331,182.553409 167.838776,182.706686 C166.765835,183.243157 165.692893,183.70299 164.543312,184.086183 C163.393731,184.469377 162.167512,184.775932 160.941292,185.005848 C160.328183,185.082486 159.715073,185.159125 159.025325,185.235764 C158.71877,185.235764 158.412215,185.312402 158.029021,185.312402 C157.722467,185.312402 157.339273,185.312402 157.109357,185.312402 C156.802802,185.312402 156.496247,185.312402 156.189692,185.312402 C155.806499,185.312402 155.423305,185.312402 155.040112,185.235764 C155.040112,185.235764 154.810196,185.235764 154.963473,185.235764 L154.810196,185.235764 L154.580279,185.235764 C154.427002,185.235764 154.197086,185.235764 154.043809,185.159125 C153.660615,185.082486 153.35406,185.082486 152.970867,185.005848 C150.135234,184.622654 147.299602,183.779628 144.617247,182.553409 C141.858254,181.32719 139.252537,179.641138 136.876737,177.495254 C134.500937,175.34937 132.431692,172.820293 130.822279,169.908022 C129.212866,166.995751 128.063286,163.776925 127.526815,160.404822 C127.296898,158.71877 127.143621,156.95608 127.22026,155.270028 C127.22026,154.810196 127.296898,154.350363 127.296898,153.890531 C127.296898,154.043809 127.296898,153.813892 127.296898,153.813892 L127.296898,153.660615 L127.296898,153.277421 C127.296898,153.047505 127.373537,152.817589 127.373537,152.587673 C127.450176,151.668008 127.603453,150.748344 127.756731,149.828679 C129.059589,142.471363 132.738247,135.267324 138.409512,129.825976 C139.865647,128.446479 141.398421,127.22026 143.007834,126.070679 C144.617247,124.921098 146.379937,123.924795 148.219267,123.081769 C150.058596,122.238744 151.897925,121.548995 153.890531,121.012524 C155.806499,120.476053 157.799105,120.169498 159.868351,119.939582 C160.864654,119.862944 161.860957,119.786305 162.933899,119.786305 C163.240454,119.786305 163.393731,119.786305 163.623647,119.786305 L164.466673,119.786305 L165.003144,119.786305 C165.23306,119.786305 165.003144,119.786305 165.079783,119.786305 L165.309699,119.786305 L166.152725,119.862944 C168.375247,120.016221 170.521131,120.322776 172.667015,120.859247 C176.958783,121.778911 181.173912,123.388324 185.082486,125.534208 C192.899635,129.902615 199.567203,136.646821 203.629054,144.770525 C205.6983,148.832376 207.154435,153.200783 207.844183,157.722467 C207.997461,158.872047 208.150738,160.021628 208.227377,161.171209 L208.304016,162.014234 L208.380654,162.85726 C208.380654,163.163815 208.380654,163.47037 208.380654,163.700286 C208.380654,164.006841 208.380654,164.313396 208.380654,164.543312 L208.380654,165.309699 L208.380654,166.152725 C208.380654,166.689196 208.304016,167.60886 208.304016,168.145331 C208.227377,169.371551 208.0741,170.674409 207.920822,171.900628 C207.767545,173.126847 207.537629,174.353067 207.307712,175.579286 C207.077796,176.805506 206.771241,178.031725 206.464687,179.181306 C205.851577,181.557106 205.08519,183.932906 204.165525,186.308706 C202.326196,190.907028 199.873758,195.352074 196.961487,199.413925 C191.060306,207.537629 183.013241,214.128558 173.816596,218.343687 C169.218273,220.412932 164.390034,221.945706 159.408518,222.712093 C156.95608,223.171926 154.427002,223.401842 151.897925,223.47848 L151.438092,223.47848 L151.054899,223.47848 L150.211873,223.47848 L148.985654,223.47848 L148.372544,223.47848 C148.679099,223.47848 148.295905,223.47848 148.295905,223.47848 L148.065989,223.47848 C146.686492,223.47848 145.383634,223.401842 144.004137,223.248564 C138.639428,222.865371 133.351357,221.869068 128.139924,220.412932 C123.005131,218.956796 118.023614,216.887551 113.272014,214.435113 C103.845453,209.376958 95.3385561,202.479474 88.747627,194.125854 C85.4521624,189.987364 82.5398914,185.46568 80.1640914,180.790719 C77.7882914,176.115757 75.8723236,171.134241 74.4928268,166.152725 C73.11333,161.09457 72.2703042,155.959776 71.8871106,150.748344 L71.8104719,149.752041 L71.8104719,149.522125 L71.8104719,149.292208 L71.8104719,148.832376 L71.8104719,147.98935 L71.8104719,147.759434 L71.8104719,147.452879 L71.8104719,146.83977 L71.8104719,145.61355 L71.8104719,145.383634 C71.8104719,145.383634 71.8104719,145.460273 71.8104719,145.306996 L71.8104719,144.847163 C71.8104719,144.234054 71.8104719,143.544305 71.8104719,142.931195 C71.8871106,140.402118 72.1170268,137.719763 72.4235816,135.114047 C72.7301365,132.508331 73.1899687,129.825976 73.7264397,127.22026 C74.2629107,124.614544 74.8760204,122.008827 75.6424075,119.403111 C77.098543,114.268318 78.937872,109.286801 81.0837559,104.61184 C85.4521624,95.2619174 91.123427,86.9082979 97.9442723,80.2407301 C99.6303239,78.5546785 101.393014,77.0219043 103.232343,75.48913 C105.071672,74.0329945 106.98764,72.6534978 108.980247,71.3506397 C110.896214,70.0477816 112.96546,68.8982009 115.034705,67.825259 C116.031008,67.288788 117.10395,66.752317 118.176892,66.2924848 C118.713363,66.0625686 119.249834,65.8326525 119.786305,65.6027364 C120.322776,65.3728202 120.859247,65.1429041 121.395718,64.912988 C123.541602,63.9933234 125.764124,63.2269363 128.063286,62.5371879 C128.599757,62.3839105 129.212866,62.2306331 129.749337,62.000717 C130.285808,61.8474395 130.898918,61.6941621 131.435389,61.5408847 C132.58497,61.2343299 133.73455,60.927775 134.884131,60.6978589 C135.420602,60.5445815 136.033712,60.4679427 136.646821,60.3146653 C137.259931,60.1613879 137.796402,60.0847492 138.409512,59.9314718 C139.022621,59.8548331 139.559092,59.7015556 140.172202,59.6249169 L141.015228,59.4716395 L141.934892,59.3183621 C142.548002,59.2417234 143.084473,59.1650847 143.697583,59.088446 C144.387331,59.0118072 145.000441,58.9351685 145.690189,58.8585298 C146.22666,58.7818911 147.146325,58.7052524 147.682796,58.6286137 C148.065989,58.551975 148.525821,58.551975 148.909015,58.4753363 L149.752041,58.3986976 L150.135234,58.3220588 L150.595067,58.3220588 C151.284815,58.2454201 151.897925,58.2454201 152.587673,58.1687814 L153.583976,58.0921427 C153.583976,58.0921427 153.96717,58.0921427 153.660615,58.0921427 L153.890531,58.0921427 L154.350363,58.0921427 C154.886834,58.0921427 155.499944,58.015504 156.036415,58.015504 C158.258938,57.9388653 160.558099,57.9388653 162.780622,58.015504 C167.225667,58.1687814 171.594073,58.7052524 175.809202,59.4716395 C184.316099,61.0810524 192.286525,63.7634073 199.567203,67.3654267 C206.84788,70.8908074 213.285532,75.2592139 218.956796,80.010814 C219.33999,80.3173688 219.646545,80.6239237 220.029738,80.9304785 C220.336293,81.2370334 220.719487,81.5435882 221.026042,81.850143 C221.71579,82.4632527 222.3289,83.0763624 223.018648,83.6894721 C223.708397,84.3025818 224.321506,84.9156915 224.934616,85.5288012 C225.547726,86.1419108 226.160835,86.7550205 226.773945,87.4447689 C229.149745,89.9738464 231.372268,92.5029238 233.364874,95.10864 C237.350087,100.243434 240.568913,105.454866 243.09799,110.359743 C243.251268,110.666298 243.404545,110.972853 243.557823,111.279408 C243.7111,111.585963 243.864377,111.892518 244.017655,112.199072 C244.32421,112.812182 244.630765,113.425292 244.860681,114.038402 C245.167236,114.651511 245.397152,115.187982 245.703707,115.801092 C245.933623,116.414202 246.240178,116.950673 246.470094,117.563782 C247.389758,119.862944 248.309423,122.085466 248.999171,124.154711 C250.148752,127.526815 250.991778,130.515724 251.681526,133.121441 C251.911442,134.194382 252.907745,134.884131 253.980687,134.730853 C255.130268,134.654215 255.973294,133.73455 255.973294,132.58497 C256.049932,129.825976 255.973294,126.530511 255.5901,122.775215 Z" fill="url(#linearGradient-1)" fill-rule="nonzero"/>
    </g>
    <path id="Cuboctahedron" class="st1" d="M 136.376 96.825 L 130.802 72.551 C 130.486 71.223 129.28 69.895 127.953 69.508 L 102.473 61.649 C 102.158 61.526 101.779 61.526 101.393 61.526 C 100.314 61.526 99.177 61.966 98.414 62.606 L 80.162 79.592 C 79.15 80.48 78.64 82.255 78.957 83.522 L 84.918 109.51 C 85.234 110.838 86.439 112.174 87.767 112.551 L 111.594 119.902 C 111.91 120.025 112.289 120.025 112.674 120.025 C 113.754 120.025 114.889 119.584 115.653 118.945 L 135.172 100.823 C 136.19 99.874 136.694 98.159 136.376 96.825 Z M 105.138 67.417 L 122.625 72.806 C 123.321 72.999 123.321 73.315 122.625 73.501 L 113.438 75.594 C 112.743 75.786 111.793 75.469 111.283 74.961 L 104.883 68.05 C 104.312 67.487 104.435 67.231 105.138 67.417 Z M 116.032 98.794 C 116.224 99.489 115.777 99.874 115.082 99.681 L 96.197 93.852 C 95.502 93.659 95.372 93.088 95.88 92.586 L 110.333 79.145 C 110.843 78.636 111.415 78.828 111.601 79.522 L 116.032 98.794 Z M 84.918 81.677 L 100.258 67.417 C 100.768 66.909 101.587 66.976 102.095 67.479 L 109.763 75.786 C 110.272 76.295 110.203 77.114 109.701 77.624 L 94.361 91.884 C 93.85 92.393 93.031 92.324 92.522 91.821 L 84.855 83.522 C 84.346 82.95 84.416 82.125 84.918 81.677 Z M 88.661 104.306 L 84.607 86.495 C 84.416 85.8 84.731 85.669 85.179 86.178 L 91.579 93.088 C 92.088 93.598 92.274 94.609 92.088 95.303 L 89.295 104.306 C 89.102 105.002 88.784 105.002 88.661 104.306 Z M 111.091 114.698 L 91.064 108.552 C 90.368 108.361 89.982 107.602 90.176 106.907 L 93.533 96.13 C 93.727 95.434 94.483 95.049 95.179 95.243 L 115.206 101.389 C 115.901 101.58 116.287 102.338 116.095 103.032 L 112.736 113.811 C 112.488 114.511 111.793 114.892 111.091 114.698 Z M 128.833 100.121 L 115.468 112.545 C 114.959 113.054 114.711 112.862 114.897 112.166 L 117.684 103.164 C 117.876 102.469 118.634 101.767 119.328 101.642 L 128.517 99.55 C 129.219 99.366 129.343 99.681 128.833 100.121 Z M 130.292 97.465 L 119.267 99.998 C 118.572 100.191 117.87 99.744 117.684 99.048 L 112.997 78.643 C 112.804 77.948 113.251 77.246 113.947 77.059 L 124.972 74.526 C 125.667 74.333 126.369 74.781 126.555 75.476 L 131.242 95.883 C 131.434 96.64 130.994 97.334 130.292 97.465 Z" style="fill: rgb(34, 173, 246);"/>
  </g>
  <path d="M 3.341 30.518 H 31.798 L 31.798 19.376 L 48.468 34.232 L 31.798 49.088 L 31.798 37.946 H 3.341 V 30.518 Z" style="fill: url(#gradient-0); paint-order: fill;" transform="matrix(0.685175, -0.728379, 0.726042, 0.687659, 36.196758, 65.649559)" bx:shape="arrow 3.341 19.376 45.127 29.712 7.428 16.67 0 1@b7a4d8f5"/>
</svg>