<?xml version="1.0" encoding="utf-8"?>
<svg height="100%" style="fill-rule:evenodd;clip-rule:evenodd;stroke-linecap:round;stroke-linejoin:round;" width="100%" version="1.1" viewBox="0 0 150 150" xmlns="http://www.w3.org/2000/svg" xmlns:bx="https://boxy-svg.com">
  <defs>
    <bx:grid x="0" y="0" width="15" height="15"/>
  </defs>
  <rect width="120" height="120" style="fill: none; stroke-width: 0.2px; stroke: rgb(84, 84, 84); pointer-events: none; visibility: hidden;" x="15" y="15" bx:origin="0.5 0.5"/>
  <g stroke-linecap="round" transform="matrix(0.622301, 0, 0, 0.622301, -103.538841, -32.831005)" style="">
    <g stroke="#f15a24" stroke-linejoin="round" style="" transform="matrix(0.356681, 0, 0, 0.356681, 190.942261, 110.813042)">
      <path d="m101.043 104.457-58.198 69.311" style="stroke-width: 2.80363px;"/>
      <circle cx="57.608" cy="119.999" r="12.0128" style="stroke-width: 2.80363px;"/>
      <circle cx="86.083" cy="158.262" r="12.0128" style="stroke-width: 2.80363px;"/>
      <path d="m166.678 172.034h-41.559" style="stroke-width: 2.80363px;"/>
    </g>
    <path d="M 254.803 227.539 L 211.641 227.539 C 202.951 227.539 195.907 220.495 195.907 211.805 L 195.907 131.511 C 195.907 122.821 202.951 115.777 211.641 115.777 L 299.498 115.777 C 308.187 115.777 315.231 122.821 315.231 131.511 L 315.231 227.539" stroke="#000" style="fill: none;"/>
    <path d="M 197.625 137.671 L 312.613 137.671" stroke="#000" style=""/>
  </g>
  <g fill="#000" transform="matrix(0.221963, 0, 0, 0.221963, 15.284702, 36.128052)" style="">
    <path d="m248.19 327.097c0-2.435-.968-4.771-2.69-6.494-1.723-1.722-4.059-2.689-6.494-2.689-.07 0-.139 0-.209.01h-20.642c-.174 0-.345-.04-.498-.124-.154-.08-.285-.199-.382-.343-.1-.144-.158-.309-.177-.482-.02-.172 0-.347.07-.508l30.191-75.273c.496-1.238.682-2.578.54-3.903s-.607-2.596-1.354-3.7-1.753-2.008-2.93-2.633-2.49-.952-3.823-.952h-31.819c-.181-.01-.359-.03-.542-.03-1.175 0-2.339.231-3.425.681s-2.073 1.109-2.904 1.94c-.832.832-1.491 1.818-1.941 2.904s-.681 2.25-.681 3.426c-.001 1.176.23 2.34.68 3.426.449 1.086 1.109 2.073 1.94 2.904s1.819 1.49 2.905 1.939c1.086.45 2.25.68 3.426.679.141 0 .278-.01.417-.02h16.488c.181 0 .36.05.52.129.16.08.296.208.398.358.101.15.165.323.184.503.02.18 0 .362-.07.53l-26.18 65.382c-.466 1.163-.705 2.405-.705 3.658v8.018c0 2.61 1.037 5.114 2.883 6.96s4.349 2.883 6.96 2.883h30.687c1.206 0 2.399-.237 3.513-.698 1.113-.462 2.125-1.138 2.977-1.99.853-.852 1.529-1.864 1.99-2.978.461-1.113.699-2.307.699-3.512z" style="stroke-width: 2.80363px;"/>
    <path d="m301.336 252.767c.06-3.494-.264-6.984-.978-10.405-.559-2.883-1.677-5.18-3.353-6.892-1.584-1.802-3.819-3.063-6.707-3.784-2.794-.81-6.381-1.216-10.758-1.216-4.192 0-8.992.406-11.88 1.216-2.615.618-4.994 1.98-6.846 3.919-1.676 1.892-2.887 4.46-3.632 7.703-.746 3.153-1.118 7.162-1.118 12.027 0 4.684.05 8.468.139 11.351.122 2.358.402 4.706.839 7.027.351 1.534.965 2.997 1.816 4.324.802 1.144 1.74 2.188 2.794 3.108 1.464 1.285 3.055 2.417 4.751 3.378 1.863 1.081 3.772 2.117 5.728 3.108 1.956.992 3.819 2.027 5.589 3.108 1.668.937 3.216 2.072 4.611 3.379.552.597 1.066 1.229 1.537 1.891.339.4.603.858.779 1.352.161.441.296.891.404 1.348.154.712.225 1.438.214 2.165.09 1.081.14 2.568.14 4.46.04 2.574-.101 5.147-.419 7.702-.09 1.456-.47 2.88-1.118 4.189-.492.849-1.292 1.478-2.236 1.757-.931.27-4.151.405-5.548.405-1.132.02-2.261-.115-3.354-.405-.88-.397-1.612-1.059-2.095-1.892-.553-1.295-.929-2.659-1.118-4.054-.21-2.242-.303-4.493-.279-6.744-.001-.251-.01-.502-.04-.752h-.06c-.257-1.792-1.155-3.433-2.529-4.619-1.374-1.187-3.132-1.84-4.951-1.84s-3.577.653-4.952 1.84c-1.374 1.186-2.272 2.827-2.529 4.619h-.04c-.03.275-.04.551-.04.827v.19.06.09c.02 1.775.05 3.368.05 4.168 0 5.315.373 9.639 1.118 12.973.838 3.242 2.142 5.81 3.912 7.702 1.833 1.837 4.163 3.104 6.707 3.649 3.246.783 6.58 1.146 9.919 1.081 4.472 0 10.253-.406 13.234-1.217 2.819-.706 5.325-2.321 7.125-4.594 1.863-2.252 3.167-5.36 3.912-9.324.839-4.054 1.258-9.234 1.258-15.54 0-4.595-.14-8.288-.42-11.081-.08-2.345-.507-4.667-1.257-6.892-.542-1.624-1.45-3.103-2.654-4.324-1.218-1.237-2.578-2.325-4.052-3.243-1.35-.849-2.75-1.616-4.192-2.297-1.584-.901-3.26-1.757-5.03-2.568-1.769-.901-3.446-1.802-5.03-2.703-1.405-.865-2.758-1.813-4.052-2.837-.604-.493-1.164-1.035-1.676-1.622-.405-.617-.69-1.305-.839-2.027-.215-1.024-.356-2.063-.419-3.108v-5.135c-.02-1.941.07-3.881.28-5.811.107-1.178.439-2.324.978-3.378.474-.751 1.227-1.286 2.095-1.486.839-.271 3.171-.406 4.475-.406 2.981 0 4.843.856 5.588 2.568.59 1.082.922 2.283.973 3.513.03.984.05 2.263.05 3.604h.05v.05c0 1.998.797 3.914 2.216 5.326 1.419 1.413 3.343 2.206 5.35 2.206 2.006 0 3.931-.793 5.35-2.206 1.419-1.412 2.216-3.328 2.216-5.326 0-.02 0-.04 0-.05 0-1.501 0-2.847 0-3.604z" style="stroke-width: 2.80363px;"/>
    <path d="m357.275 238.852c0-1.227-.243-2.443-.733-3.568-.49-1.126-1.209-2.137-2.112-2.969-.902-.832-1.968-1.466-3.13-1.863-1.161-.396-2.393-.547-3.616-.44-1.223.106-2.41.466-3.486 1.056-1.076.591-2.017 1.4-2.763 2.375-.745.975-1.28 2.095-1.568 3.288-.289 1.193-.326 2.433-.108 3.641v31.461c0 .522-.207 1.023-.577 1.392-.369.37-.87.577-1.392.577h-10.916c-.522 0-1.023-.207-1.392-.577-.369-.369-.577-.87-.577-1.392v-32.783c0-.03 0-.07 0-.1s0-.07 0-.1c0-2.341-.93-4.587-2.585-6.242-1.656-1.656-3.901-2.586-6.243-2.586-2.341 0-4.586.93-6.242 2.586-1.655 1.655-2.586 3.901-2.586 6.242v.1c.001.03 0 .07 0 .1v88.421l.001.02-.001.02c0 2.341.931 4.587 2.586 6.242 1.656 1.656 3.901 2.586 6.242 2.586 2.342 0 4.587-.93 6.243-2.586 1.655-1.655 2.585-3.901 2.585-6.242v-.02-.02-35.025c0-.522.208-1.023.577-1.392s.87-.577 1.392-.577h10.916c.522 0 1.023.208 1.392.577.37.369.577.87.577 1.392v33.505c-.229 1.269-.176 2.573.155 3.82.332 1.246.933 2.404 1.762 3.392.83.987 1.866 1.78 3.036 2.322 1.171.542 2.446.82 3.735.814h.04.03c1.15 0 2.289-.227 3.352-.667 1.062-.44 2.028-1.085 2.841-1.898s1.458-1.779 1.899-2.842c.44-1.062.666-2.201.666-3.351v-88.561c0-.02 0-.04 0-.06s0-.04 0-.06z" style="stroke-width: 2.80363px;"/>
    <path d="m475.116 336.056c-1.38 0-2.498-1.119-2.498-2.499v-94.961c0-4.759 3.858-8.617 8.618-8.617 4.759 0 8.618 3.858 8.618 8.617v77.44c0 .918.744 1.663 1.662 1.663h23.452c5.069 0 9.178 4.109 9.178 9.178s-4.109 9.179-9.178 9.179z" style="stroke-width: 2.80363px;"/>
    <path d="m417.533 336.056c-1.38 0-2.499-1.119-2.499-2.499v-94.961c0-4.759 3.859-8.617 8.618-8.617 4.76 0 8.618 3.858 8.618 8.617v77.44c0 .918.744 1.663 1.663 1.663h23.451c5.069 0 9.179 4.109 9.179 9.178s-4.11 9.179-9.179 9.179z" style="stroke-width: 2.80363px;"/>
    <path d="m366.76 336.056c-1.88 0-3.404-1.524-3.404-3.404v-99.259c0-1.886 1.529-3.414 3.415-3.414h33.493c4.837 0 8.758 3.921 8.758 8.758 0 4.836-3.921 8.758-8.758 8.758h-17.546c-1.174 0-2.126.951-2.126 2.125v21.844c0 1.157.938 2.094 2.094 2.094h17.578c4.605 0 8.338 3.733 8.338 8.338s-3.733 8.338-8.338 8.338h-17.578c-1.156 0-2.094.937-2.094 2.094v23.256c0 1.168.947 2.115 2.115 2.115h16.997c5.069 0 9.178 4.109 9.178 9.178s-4.109 9.179-9.178 9.179z" style="stroke-width: 2.80363px;"/>
  </g>
</svg>