<?xml version="1.0" encoding="utf-8"?>
<svg height="100%" style="fill-rule:evenodd;clip-rule:evenodd;stroke-linecap:round;stroke-linejoin:round;" width="100%" version="1.1" viewBox="0 0 150 150" xmlns="http://www.w3.org/2000/svg" xmlns:bx="https://boxy-svg.com">
  <defs>
    <bx:grid x="0" y="0" width="15" height="15"/>
  </defs>
  <rect width="120" height="120" style="fill: none; stroke-width: 0.2px; stroke: rgb(84, 84, 84); pointer-events: none; visibility: hidden;" x="15" y="15"/>
  <g transform="matrix(1.051748, 0, 0, 1.051748, -97.593605, -155.676285)" style="">
    <path class="st1" d="M 212.115 231.826 C 206.825 232.869 201.681 229.454 200.656 224.217 L 200.629 224.225 C 200.624 224.211 200.622 224.201 200.62 224.192 C 197.15 206.555 181.525 194.346 164.157 194.552 C 166.987 191.719 168.407 187.564 167.572 183.327 C 166.875 179.781 164.729 176.891 161.887 175.129 C 189.274 173.804 214.288 192.755 219.731 220.437 C 219.838 220.985 219.915 221.525 220.011 222.066 C 220.12 226.7 216.857 230.893 212.115 231.826" id="path3758" style="fill: rgb(93, 125, 189);"/>
    <path class="st3" d="M 107.239 244.438 C 106.244 239.361 109.356 234.431 114.241 233.138 C 114.519 233.083 114.801 233.051 115.074 232.996 C 132.699 229.527 144.897 213.919 144.719 196.57 C 147.551 199.473 151.758 200.943 156.045 200.099 C 159.532 199.416 162.387 197.33 164.157 194.552 C 165.329 221.819 146.417 246.678 118.833 252.105 C 118.43 252.178 118.034 252.242 117.633 252.31 C 112.761 252.752 108.217 249.392 107.239 244.438" id="path3762" style="fill: rgb(151, 195, 61);"/>
    <path class="st0" d="M 152.592 245.463 C 157.819 246.492 162.925 243.027 163.965 237.738 C 164.921 232.88 162.112 228.148 157.591 226.618 C 157.153 226.554 156.719 226.477 156.289 226.395 C 138.751 222.943 126.581 207.472 126.64 190.225 C 123.817 193.098 119.628 194.542 115.366 193.699 C 111.845 193.007 108.97 190.886 107.203 188.068 C 106.083 215.292 124.987 240.09 152.533 245.506 C 152.544 245.51 152.565 245.51 152.583 245.51 L 152.592 245.463 Z" id="path3756" style="fill: rgb(63, 150, 185); stroke-width: 0.999999;"/>
    <path class="st2" d="M 214.452 189.295 C 219.314 188.864 223.844 192.217 224.814 197.163 C 225.814 202.255 222.69 207.197 217.789 208.481 C 217.634 208.507 217.486 208.523 217.338 208.552 C 199.786 212.006 187.607 227.501 187.693 244.765 C 184.861 241.97 180.727 240.576 176.52 241.403 C 172.937 242.103 170.019 244.289 168.27 247.176 C 167 219.838 185.936 194.874 213.58 189.44 C 213.869 189.384 214.16 189.35 214.452 189.295" id="path3760" style="fill: rgb(25, 98, 96);"/>
    <path style="fill: rgb(93, 125, 189); fill-opacity: 1; fill-rule: evenodd; stroke: rgb(0, 0, 0); stroke-width: 1.5;" id="path3860" d="M 177.642 253.896 C 178.382 254.44 177.274 255.163 176.737 255.127 C 175.285 255.03 174.783 253.265 175.18 252.088 C 175.891 249.984 178.474 249.355 180.354 250.205 C 183.113 251.452 183.886 254.948 182.564 257.513 C 180.802 260.932 176.365 261.851 173.121 260.049 C 169.038 257.782 167.972 252.392 170.258 248.472 C 173.027 243.724 179.376 242.51 183.97 245.282 C 189.385 248.55 190.747 255.861 187.486 261.13 C 183.722 267.212 175.446 268.722 169.505 264.972 C 162.754 260.711 161.096 251.469 165.335 244.855 C 170.092 237.436 180.301 235.63 187.587 240.36 C 195.675 245.611 197.629 256.789 192.409 264.746"/>
    <path style="fill: rgb(63, 150, 185); fill-opacity: 1; fill-rule: evenodd; stroke: rgb(0, 0, 0); stroke-width: 1.2; transform-box: fill-box; transform-origin: 50% 50%;" id="path3860-3" d="M 152.464 187.578 C 153.057 188.014 152.17 188.592 151.741 188.563 C 150.579 188.485 150.178 187.073 150.495 186.132 C 151.063 184.448 153.13 183.945 154.634 184.625 C 156.841 185.622 157.46 188.42 156.402 190.472 C 154.993 193.207 151.443 193.942 148.848 192.501 C 145.582 190.687 144.728 186.375 146.557 183.239 C 148.772 179.44 153.852 178.469 157.527 180.687 C 161.859 183.301 162.949 189.15 160.34 193.365 C 157.328 198.231 150.707 199.439 145.955 196.439 C 140.554 193.03 139.228 185.636 142.619 180.345 C 146.424 174.41 154.592 172.965 160.42 176.749 C 166.891 180.95 168.454 189.892 164.278 196.258" transform="matrix(-1, 0, 0, -1, -0.000009, 0.000019)"/>
    <path style="fill: rgb(25, 98, 96); fill-opacity: 1; fill-rule: evenodd; stroke: rgb(0, 0, 0); stroke-width: 0.8;" id="path3860-3-5" d="M 116.504 182.06 C 116.898 181.769 116.307 181.384 116.022 181.403 C 115.247 181.455 114.979 182.397 115.191 183.024 C 115.57 184.146 116.948 184.482 117.95 184.028 C 119.422 183.363 119.834 181.499 119.129 180.131 C 118.189 178.307 115.823 177.817 114.093 178.778 C 111.915 179.987 111.346 182.862 112.566 184.953 C 114.042 187.485 117.429 188.132 119.879 186.654 C 122.767 184.911 123.493 181.012 121.754 178.202 C 119.746 174.958 115.332 174.153 112.164 176.153 C 108.564 178.425 107.679 183.354 109.94 186.882 C 112.477 190.838 117.922 191.802 121.808 189.279 C 126.121 186.479 127.164 180.517 124.38 176.273"/>
  </g>
  <path style="fill: rgb(51, 51, 51); stroke-width: 1.05979;" d="M 89.19 165.001 C 88.915 164.992 88.644 165.068 88.376 165.189 L 89.895 165.189 C 89.659 165.083 89.423 165.008 89.19 165.001 Z" id="path3756-3"/>
</svg>