<?xml version="1.0" encoding="utf-8"?>
<svg height="100%" style="fill-rule:evenodd;clip-rule:evenodd;stroke-linecap:round;stroke-linejoin:round;" width="100%" version="1.1" viewBox="0 0 150 150" xmlns="http://www.w3.org/2000/svg" xmlns:bx="https://boxy-svg.com">
  <defs>
    <bx:grid x="0" y="0" width="15" height="15"/>
  </defs>
  <rect width="120" height="120" style="fill: none; stroke-width: 0.2px; stroke: rgb(84, 84, 84); pointer-events: none; visibility: hidden;" x="15" y="15"/>
  <g style="" transform="matrix(0.855867, 0, 0, 0.855867, 19.989968, 1.311328)">
    <title>Sueño</title>
    <path class="cls-2" d="M 97.315 45.21 L 107.994 39.218 L 108.173 38.698 L 107.994 38.408 L 107.473 38.408 L 105.689 38.298 L 99.587 38.133 L 94.296 37.913 L 89.168 37.639 L 87.879 37.364 L 86.669 35.77 L 86.793 34.975 L 87.879 34.245 L 89.432 34.381 L 92.866 34.615 L 98.018 34.971 L 101.757 35.191 L 107.294 35.766 L 108.173 35.766 L 108.298 35.41 L 107.997 35.191 L 107.763 34.971 L 102.431 31.357 L 96.659 27.539 L 93.636 25.339 L 92 24.226 L 91.176 23.181 L 90.821 20.902 L 92.305 19.267 L 94.299 19.404 L 94.808 19.539 L 96.828 21.092 L 101.14 24.431 L 106.773 28.58 L 107.598 29.265 L 107.927 29.03 L 107.968 28.865 L 107.598 28.247 L 104.534 22.709 L 101.266 17.076 L 99.811 14.742 L 99.426 13.342 C 99.291 12.766 99.191 12.283 99.191 11.693 L 100.881 9.399 L 101.815 9.098 L 104.068 9.399 L 105.019 10.222 L 106.419 13.426 L 108.687 18.468 L 112.204 25.325 L 113.234 27.36 L 113.784 29.243 L 113.989 29.819 L 114.345 29.819 L 114.345 29.488 L 114.634 25.626 L 115.17 20.884 L 115.69 14.782 L 115.869 13.064 L 116.719 11.004 L 118.409 9.889 L 119.728 10.52 L 120.813 12.073 L 120.662 13.078 L 120.018 17.271 L 118.754 23.838 L 117.929 28.236 L 118.409 28.236 L 118.958 27.685 L 121.183 24.732 L 124.921 20.06 L 126.569 18.205 L 128.494 16.156 L 129.729 15.182 L 132.063 15.182 L 133.782 17.735 L 133.012 20.375 L 130.609 23.423 L 128.615 26.007 L 125.756 29.854 L 123.971 32.933 L 124.137 33.179 L 124.562 33.139 L 131.018 31.765 L 134.507 31.134 L 138.671 30.419 L 140.554 31.299 L 140.76 32.193 L 140.019 34.022 L 135.567 35.122 L 130.345 36.165 L 122.568 38.005 L 122.473 38.074 L 122.583 38.209 L 126.086 38.54 L 127.586 38.62 L 131.253 38.62 L 138.085 39.131 L 139.869 40.31 L 140.939 41.755 L 140.76 42.853 L 138.011 44.253 L 134.302 43.374 L 125.646 41.314 L 122.678 40.574 L 122.267 40.574 L 122.267 40.819 L 124.741 43.239 L 129.275 47.332 L 134.951 52.608 L 135.24 53.913 L 134.512 54.943 L 133.742 54.834 L 128.754 51.081 L 126.83 49.391 L 122.473 45.723 L 122.183 45.723 L 122.183 46.107 L 123.188 47.578 L 128.491 55.548 L 128.765 57.992 L 128.38 58.787 L 127.006 59.267 L 125.496 58.993 L 122.392 54.636 L 119.189 49.728 L 116.607 45.33 L 116.29 45.511 L 114.766 61.932 L 114.052 62.771 L 112.402 63.402 L 111.028 62.356 L 110.299 60.667 L 111.028 57.329 L 111.908 52.972 L 112.622 49.509 L 113.267 45.207 L 113.652 43.778 L 113.627 43.682 L 113.311 43.722 L 110.068 48.175 L 105.135 54.841 L 101.232 59.019 L 100.297 59.388 L 98.679 58.549 L 98.828 57.05 L 99.734 55.717 L 105.135 48.846 L 108.393 44.587 L 110.497 42.128 L 110.482 41.772 L 110.357 41.772 L 96.01 51.088 L 93.457 51.418 L 92.356 50.388 L 92.492 48.699 L 93.012 48.149 L 97.326 45.181 L 97.311 45.195 L 97.315 45.21 Z" shape-rendering="optimizeQuality" id="path147" style="stroke-width: 0; fill: rgb(229, 201, 192);"/>
    <circle cx="84.879" cy="55.713" r="4.883" style="fill: rgb(229, 201, 192);"/>
    <circle cx="72.672" cy="64.258" r="3.662" style="fill: rgb(229, 201, 192);"/>
  </g>
  <g style="" transform="matrix(1.282737, 0, 0, 1.282737, -11.540772, -37.001011)">
    <g transform="matrix(0.004663, 0, 0, -0.004663, -9.378215, 140.610506)" fill="#000000" stroke="none" style="">
      <path d="M13465 15349 c-276 -24 -586 -83 -805 -155 -250 -82 -571 -258 -780 -428 -116 -94 -273 -250 -379 -376 -92 -110 -282 -386 -368 -535 -229 -397 -428 -870 -630 -1500 -187 -581 -218 -669 -241 -696 -86 -103 -396 -197 -1217 -368 -299 -63 -774 -183 -955 -243 -1019 -334 -1711 -771 -2151 -1358 -95 -127 -170 -249 -244 -400 -138 -279 -201 -517 -212 -805 -26 -681 283 -1272 921 -1764 209 -161 401 -278 681 -416 191 -94 260 -123 545 -234 280 -108 555 -188 1025 -300 344 -81 406 -84 420 -20 5 23 -3 47 -41 117 -190 348 -300 617 -365 890 -126 526 -37 1003 209 1124 39 19 63 23 142 23 85 0 101 -3 155 -29 35 -17 86 -55 121 -90 l61 -61 -5 -65 c-6 -84 14 -239 42 -315 16 -47 30 -65 63 -89 l42 -29 51 25 c51 25 52 26 46 4 -9 -30 -68 -328 -108 -540 l-33 -179 -6 179 c-11 320 -78 579 -195 755 -147 221 -333 247 -433 59 -95 -177 -106 -469 -30 -800 51 -222 207 -648 261 -715 32 -38 96 -74 133 -75 43 0 101 24 132 55 18 18 33 28 33 21 0 -10 -77 -390 -99 -486 -16 -72 -88 -495 -105 -615 -34 -245 -46 -425 -46 -665 0 -567 108 -1047 343 -1515 198 -396 399 -669 757 -1024 661 -658 1814 -1319 2715 -1556 680 -180 1300 -202 1943 -69 606 125 1221 440 1802 923 154 128 604 578 722 721 233 283 407 549 568 870 176 350 316 826 365 1243 55 466 39 982 -50 1532 -14 88 -28 170 -31 183 -4 12 -2 22 4 22 5 0 12 -18 16 -40 5 -31 11 -41 31 -46 27 -7 237 27 539 87 666 133 1382 393 1911 694 316 180 662 440 860 646 262 272 432 515 560 799 154 339 207 589 206 970 -1 699 -255 1304 -803 1911 -155 170 -427 412 -611 542 -49 34 -117 81 -150 105 -221 155 -690 396 -967 497 -514 187 -853 264 -1260 285 -346 17 -652 -5 -1095 -80 -154 -27 -281 -47 -283 -45 -1 1 5 18 13 38 30 73 14 180 -58 392 -160 465 -352 936 -487 1192 -319 604 -703 1055 -1150 1351 -207 137 -459 256 -691 328 -394 121 -937 178 -1354 143z m511 -149 c572 -45 952 -156 1361 -398 390 -231 757 -621 1056 -1122 83 -140 246 -464 311 -620 198 -470 373 -974 364 -1048 -3 -25 -7 -27 -54 -30 -69 -4 -198 26 -426 98 -106 34 -240 77 -298 95 -756 240 -1728 358 -2590 315 -737 -37 -1397 -143 -2060 -332 -477 -135 -757 -236 -1012 -364 -147 -74 -208 -147 -208 -250 0 -71 32 -120 108 -170 121 -80 326 -126 727 -163 338 -32 631 -41 1220 -40 554 2 809 9 1045 28 74 6 221 18 325 26 492 40 1242 132 1595 195 30 6 114 19 185 31 72 11 209 35 305 54 192 37 300 58 740 139 162 31 338 64 390 75 165 34 670 120 795 136 390 48 779 39 1115 -26 631 -123 1203 -356 1720 -699 542 -360 943 -786 1224 -1298 142 -259 239 -549 278 -832 20 -143 16 -529 -5 -655 -67 -383 -235 -754 -481 -1058 -215 -267 -410 -449 -710 -662 -295 -209 -689 -414 -1096 -572 -361 -140 -755 -252 -1180 -336 -237 -47 -264 -51 -257 -35 30 70 148 382 200 528 115 322 211 691 253 965 22 147 15 378 -15 481 -52 180 -150 316 -272 377 -64 32 -205 60 -258 52 -203 -33 -332 -119 -456 -305 -32 -47 -59 -87 -61 -89 -13 -14 -113 268 -169 479 -109 405 -221 666 -370 865 -180 240 -322 353 -630 504 -450 221 -1034 397 -1695 510 -343 59 -1062 109 -1385 96 -687 -26 -1040 -66 -1515 -171 -641 -142 -1275 -377 -1705 -631 -441 -261 -702 -491 -879 -775 -74 -120 -148 -309 -170 -435 -6 -36 24 -83 53 -83 16 0 17 -5 10 -47 -18 -102 -13 -98 -72 -53 -148 113 -285 144 -441 101 -73 -20 -134 -58 -209 -130 -226 -216 -283 -721 -143 -1266 49 -189 174 -511 267 -683 21 -41 39 -76 39 -78 0 -7 -52 3 -230 43 -344 76 -704 189 -1080 339 -176 70 -582 270 -704 347 -356 225 -554 391 -764 642 -318 378 -476 882 -418 1325 30 229 85 409 191 628 120 247 263 442 489 667 427 425 975 732 1821 1022 163 56 533 148 955 237 816 174 1143 277 1263 401 67 69 87 121 283 735 280 878 540 1432 903 1920 109 146 343 382 484 487 294 219 631 371 992 446 112 24 387 62 500 70 114 8 331 6 451 -3z m759 -2874 c714 -80 1165 -177 1855 -401 91 -29 192 -59 225 -66 33 -7 63 -15 67 -19 5 -3 -25 -11 -65 -18 -146 -25 -589 -105 -842 -152 -894 -168 -1520 -250 -2390 -315 -749 -56 -1940 -44 -2520 25 -315 37 -478 90 -501 162 -15 47 102 118 381 228 558 221 1400 435 1980 504 72 9 191 23 265 32 292 34 477 42 940 39 343 -2 492 -7 605 -19z m-569 -2346 c623 -36 1309 -162 1849 -339 121 -40 315 -111 370 -136 17 -7 64 -27 105 -45 230 -96 419 -218 560 -359 214 -215 331 -444 470 -916 84 -287 120 -395 170 -499 85 -178 182 -236 256 -155 12 13 41 62 64 109 32 64 61 103 114 155 95 94 159 126 271 132 81 6 88 4 150 -26 100 -50 171 -152 211 -306 23 -93 24 -300 0 -455 -18 -113 -82 -387 -133 -564 -46 -163 -289 -829 -294 -806 0 3 -2 14 -4 25 -12 62 34 317 105 575 157 572 195 778 173 942 -21 154 -76 254 -165 299 -143 73 -323 -56 -417 -300 -123 -321 -117 -701 24 -1556 103 -626 114 -702 136 -950 17 -182 17 -606 1 -765 -52 -502 -150 -878 -329 -1265 -236 -512 -475 -847 -923 -1296 -280 -280 -466 -439 -740 -631 -672 -470 -1445 -715 -2195 -695 -600 16 -1155 144 -1755 404 -183 79 -596 291 -764 390 -948 563 -1533 1138 -1896 1862 -149 296 -218 514 -284 901 -88 508 -51 975 159 2025 35 176 92 462 125 635 218 1125 229 1171 371 1527 26 66 69 170 95 230 158 369 224 640 180 744 -16 38 -57 79 -101 102 -28 14 -28 16 -10 23 11 4 65 37 120 74 434 289 1050 548 1670 704 398 100 929 180 1350 204 218 13 705 14 911 2z m-4074 -1210 c-5 -107 -82 -345 -187 -585 -122 -276 -190 -463 -251 -683 -18 -65 -34 -68 -34 -6 0 58 -52 184 -112 271 -32 47 -31 40 -2 193 34 174 130 404 234 562 58 88 160 196 240 255 98 71 116 70 112 -7z m-1012 -1310 c130 -141 209 -402 226 -750 13 -267 -59 -647 -119 -627 -16 5 -108 209 -151 337 -95 283 -136 475 -143 676 -6 161 5 250 44 337 42 94 75 100 143 27z m9326 3 c37 -40 54 -113 54 -232 0 -161 -26 -297 -126 -661 -85 -307 -142 -551 -156 -660 -2 -14 -9 18 -17 70 -7 52 -17 118 -22 145 -60 327 -78 689 -43 890 35 207 112 383 196 444 51 38 81 39 114 4z" style="fill: rgb(179, 179, 179);"/>
      <path d="M17430 9027 c-20 -10 -26 -21 -28 -58 l-3 -45 86 -53 c92 -56 245 -196 324 -295 83 -105 139 -205 182 -327 36 -103 45 -119 69 -127 34 -12 88 11 96 42 7 29 -58 213 -108 306 -112 209 -299 411 -484 522 -72 43 -102 51 -134 35z" style="fill: rgb(179, 179, 179);"/>
      <path d="M14083 9000 c-12 -5 -25 -19 -27 -32 -19 -87 -26 -159 -26 -282 0 -165 21 -286 68 -388 73 -161 157 -241 326 -309 67 -27 115 -72 134 -126 7 -20 19 -91 27 -157 7 -67 19 -137 26 -156 31 -90 84 -124 185 -118 35 2 64 2 64 0 0 -2 -4 -11 -9 -20 -25 -49 40 -91 258 -169 318 -113 605 -130 906 -54 131 33 288 104 367 164 43 33 49 35 82 25 23 -7 36 -18 36 -29 0 -9 7 -19 15 -23 8 -3 15 -12 15 -20 0 -22 63 -56 102 -56 50 0 216 -44 290 -76 271 -118 488 -397 642 -825 182 -506 237 -1186 150 -1849 -33 -253 -97 -578 -144 -735 -10 -33 -33 -112 -50 -175 -36 -132 -133 -408 -192 -549 -116 -274 -332 -649 -497 -866 -61 -80 -278 -302 -371 -380 -95 -79 -263 -192 -357 -239 -165 -82 -305 -116 -348 -83 -18 14 -18 18 -7 37 169 276 238 487 214 652 -13 88 -36 140 -84 184 -83 79 -176 59 -246 -51 -54 -85 -109 -266 -132 -435 -12 -93 -3 -207 25 -305 l16 -54 -37 -43 c-83 -95 -254 -257 -329 -314 -123 -94 -137 -97 -72 -18 65 78 133 210 170 329 76 246 67 526 -25 770 -67 176 -209 397 -260 403 -30 4 -68 -27 -68 -56 0 -9 21 -48 46 -85 190 -283 261 -547 220 -817 -34 -222 -113 -386 -264 -542 -225 -233 -511 -346 -927 -364 -421 -19 -881 92 -1118 270 -130 97 -217 194 -284 314 -148 264 -112 694 83 1016 89 147 234 300 374 395 259 177 499 230 1038 231 235 0 308 12 399 66 116 70 163 133 163 218 0 58 -38 104 -112 136 l-52 22 111 29 c179 46 372 140 466 227 32 30 33 43 10 83 -25 42 -58 38 -138 -17 -236 -162 -504 -215 -1073 -215 -288 1 -413 9 -602 41 -270 46 -549 151 -756 286 l-59 38 100 12 c55 6 190 24 300 39 271 37 484 33 748 -14 98 -17 213 -31 256 -31 43 0 172 14 287 31 282 42 416 38 814 -20 260 -39 299 -42 445 -39 l160 3 22 -46 c12 -25 34 -88 48 -140 53 -189 115 -300 190 -344 61 -36 120 -39 181 -11 173 81 274 499 194 801 -28 108 -116 281 -194 386 -36 47 -126 151 -201 230 -331 350 -433 494 -574 809 -11 25 -40 92 -65 148 -25 57 -62 130 -81 163 -85 139 -287 293 -361 275 -38 -10 -74 -50 -74 -84 0 -33 26 -60 85 -90 81 -41 170 -152 215 -267 19 -47 24 -81 24 -155 1 -85 -2 -102 -28 -158 -33 -72 -101 -139 -166 -165 -39 -15 -41 -15 -34 1 4 9 9 31 11 47 10 71 -86 122 -213 112 l-74 -5 16 36 c77 177 81 344 14 525 -38 101 -168 254 -251 293 -21 11 -39 22 -39 25 0 12 -145 58 -218 69 -234 38 -486 -74 -620 -275 -79 -116 -97 -183 -96 -345 0 -128 2 -139 32 -216 18 -45 46 -100 62 -123 17 -23 28 -41 25 -41 -3 0 -29 12 -58 27 -40 20 -71 27 -132 31 -138 7 -225 -42 -225 -126 0 -40 -7 -43 -54 -27 -91 32 -181 165 -192 286 -15 154 64 296 235 422 114 85 156 126 208 203 203 300 320 894 258 1308 -29 189 -107 372 -206 481 -29 30 -50 57 -48 58 2 2 31 8 64 15 240 47 402 254 435 554 14 124 6 192 -23 213 -27 19 -48 19 -73 1 -16 -12 -20 -32 -26 -133 -11 -195 -52 -308 -147 -404 -59 -58 -136 -102 -210 -118 l-43 -9 30 31 c91 94 85 256 -15 367 -110 123 -287 201 -543 242 -54 8 -173 13 -330 13 -238 0 -250 -1 -410 -34 -201 -40 -329 -82 -497 -159 -220 -100 -371 -203 -531 -360 -108 -106 -178 -195 -223 -284 -33 -66 -37 -107 -11 -136 39 -46 83 -34 269 71 130 74 332 172 413 202 210 75 501 123 680 111 97 -6 283 -38 582 -100 92 -19 202 -38 245 -41 l78 -7 1 -77 c0 -42 4 -135 9 -207 11 -181 3 -184 -175 -50 -61 46 -144 99 -183 119 -230 115 -518 113 -813 -4 -136 -54 -315 -144 -411 -207 -123 -82 -177 -109 -238 -123 -97 -21 -241 16 -356 94 -34 23 -74 50 -88 59 -14 10 -34 18 -43 18 -25 0 -48 -28 -48 -58 0 -40 103 -133 200 -180 l79 -39 -52 -18 c-371 -129 -605 -319 -840 -681 -170 -263 -275 -539 -366 -964 -106 -490 -107 -1134 -5 -1705 56 -314 172 -708 289 -980 47 -111 187 -379 255 -490 130 -212 274 -398 443 -571 255 -263 486 -431 719 -523 183 -72 370 -97 512 -67 44 9 80 15 81 14 2 -2 21 -30 44 -63 100 -145 265 -309 421 -420 62 -44 224 -126 350 -178 334 -138 609 -194 995 -204 232 -6 332 1 535 34 504 82 1058 381 1366 735 l68 78 33 -20 c142 -84 299 -54 592 112 125 71 139 80 261 177 380 304 667 703 920 1282 143 327 267 736 355 1169 77 380 117 888 96 1220 -37 571 -134 994 -308 1345 -187 374 -458 614 -776 685 -53 12 -76 25 -65 36 3 2 31 11 63 19 93 25 221 113 237 165 7 22 -20 70 -40 71 -34 3 -47 -3 -101 -46 -83 -65 -148 -87 -257 -87 -110 0 -157 12 -215 54 -200 145 -438 262 -650 320 -73 20 -106 23 -259 22 -169 0 -178 -1 -262 -31 -104 -36 -172 -76 -280 -163 -96 -78 -186 -140 -203 -140 -23 0 -42 63 -54 172 -25 230 -66 287 -282 391 -119 57 -167 104 -220 213 -58 121 -73 212 -64 404 10 235 11 221 -14 242 -26 20 -27 20 -58 8z m-1538 -381 c137 -20 300 -62 375 -96 112 -51 180 -124 180 -193 0 -86 -74 -130 -230 -137 -94 -4 -176 8 -425 61 -331 72 -547 89 -762 62 -241 -31 -428 -87 -649 -196 -67 -33 -125 -60 -130 -60 -27 0 192 188 321 275 232 156 599 271 950 299 72 5 288 -3 370 -15z m560 -771 c96 -104 160 -262 185 -461 45 -359 -74 -897 -258 -1167 -32 -47 -50 -61 -118 -95 -228 -113 -303 -190 -459 -470 -130 -233 -151 -266 -222 -367 -114 -162 -167 -220 -371 -414 -207 -196 -279 -273 -342 -364 -127 -186 -181 -397 -160 -633 19 -222 83 -348 189 -377 123 -33 214 36 341 260 41 72 84 140 96 151 20 18 23 19 65 3 24 -9 94 -19 154 -23 88 -5 110 -9 111 -21 2 -54 23 -74 189 -172 223 -131 455 -217 700 -258 129 -21 127 -19 56 -45 -89 -33 -141 -73 -174 -136 -24 -45 -28 -62 -23 -103 7 -59 24 -87 77 -125 l40 -29 -58 -27 c-105 -48 -254 -156 -353 -255 -224 -226 -353 -482 -403 -800 -19 -127 -20 -150 -9 -258 26 -262 122 -464 305 -639 96 -92 163 -138 307 -211 120 -61 99 -61 -80 -2 -387 128 -674 327 -856 596 l-58 84 27 28 c14 15 38 54 54 87 25 54 28 70 28 170 -1 92 -5 123 -28 190 -48 143 -112 215 -193 215 -63 0 -105 -29 -139 -95 -29 -57 -30 -63 -29 -189 1 -123 3 -138 38 -244 21 -63 35 -117 31 -120 -4 -4 -66 -7 -138 -7 -117 0 -142 3 -222 29 -371 117 -777 470 -1103 958 -345 516 -558 1114 -643 1803 -26 218 -37 665 -20 885 57 754 292 1369 662 1731 211 207 460 325 784 373 151 23 223 22 270 -1 109 -55 315 -117 455 -138 52 -8 166 -15 254 -15 130 0 181 5 282 25 202 41 451 132 473 173 12 23 2 61 -20 78 -35 27 -63 23 -198 -32 -75 -31 -163 -62 -196 -69 -33 -7 -73 -16 -90 -20 l-30 -8 32 34 c83 89 114 228 76 342 -18 53 -19 57 -3 57 35 0 157 -71 250 -145 139 -110 219 -135 307 -96 63 29 85 80 91 208 4 91 -1 139 -24 216 -10 31 26 6 91 -65z m-963 -98 c81 -23 144 -109 135 -186 -7 -66 -38 -115 -92 -149 -44 -27 -57 -30 -131 -30 -75 0 -86 3 -125 30 -118 83 -126 275 -13 313 91 31 167 38 226 22z m3578 -33 c93 -14 136 -114 91 -212 -37 -80 -128 -131 -216 -122 -111 11 -185 77 -193 172 -4 45 0 61 22 100 15 25 28 45 29 45 1 0 20 7 42 15 37 14 145 15 225 2z m-466 -89 c-3 -18 -7 -39 -10 -46 -6 -21 14 -108 37 -157 12 -26 37 -63 56 -82 18 -20 33 -37 33 -38 0 -8 -114 26 -180 53 -177 73 -241 100 -245 104 -11 11 279 197 307 198 4 0 5 -15 2 -32z m-3568 -51 c1 -60 6 -83 33 -135 17 -34 50 -81 72 -103 l41 -41 -53 7 c-30 4 -79 14 -109 22 -58 15 -320 124 -320 133 1 8 319 190 333 190 1 0 2 -33 3 -73z m4373 31 c31 -17 95 -55 143 -85 48 -29 92 -53 98 -53 67 0 -187 -121 -320 -153 -36 -8 -83 -18 -104 -22 l-39 -7 48 54 c70 77 95 137 95 226 0 47 4 72 11 72 6 0 37 -14 68 -32z m-2026 -1414 c75 -19 107 -35 174 -86 89 -68 158 -174 189 -293 42 -156 -24 -352 -167 -496 -87 -88 -129 -113 -219 -129 -91 -17 -140 -6 -270 57 -94 46 -126 67 -180 122 -72 72 -110 133 -142 226 -17 49 -19 77 -16 157 4 88 9 106 42 173 67 136 181 232 317 269 72 20 197 20 272 0z m-1409 -851 c68 -143 176 -225 339 -258 66 -13 96 -14 195 -4 141 14 160 20 175 59 6 17 16 30 22 30 5 -1 37 -28 70 -61 33 -32 84 -71 113 -85 62 -31 61 -24 26 -208 -31 -157 -28 -202 17 -269 103 -155 395 -191 508 -62 16 19 39 60 51 92 20 52 22 70 16 178 -3 66 -10 134 -15 152 -12 40 13 81 79 131 25 19 72 59 105 89 57 53 140 113 157 113 4 0 -2 -15 -13 -34 -18 -31 -19 -37 -6 -68 24 -58 59 -73 162 -72 99 2 199 27 268 68 89 51 175 166 208 274 l13 43 44 -88 c126 -251 253 -421 536 -714 206 -213 293 -341 347 -508 27 -84 31 -111 31 -211 0 -158 -23 -282 -74 -385 -79 -158 -163 -97 -233 168 -14 54 -37 129 -50 166 -14 38 -25 83 -25 101 0 42 -23 80 -67 109 -33 21 -42 22 -127 16 -80 -6 -101 -3 -179 20 -88 25 -256 104 -457 215 -228 125 -350 165 -505 165 -122 0 -157 -9 -309 -77 -123 -56 -199 -62 -306 -23 -250 90 -235 86 -353 87 -91 1 -132 -4 -222 -27 -151 -38 -210 -61 -540 -215 -258 -121 -310 -137 -487 -148 -127 -8 -139 -10 -178 -37 -59 -41 -139 -141 -201 -252 -30 -53 -73 -116 -95 -142 -38 -42 -44 -45 -70 -36 -38 13 -70 79 -85 175 -14 95 -6 295 16 375 43 158 147 310 319 469 223 204 349 333 417 423 82 108 202 293 267 413 l47 85 7 -79 c6 -60 16 -98 42 -153z m1214 -403 c48 -5 113 -6 144 -1 52 7 56 6 48 -9 -6 -11 -6 -31 0 -51 13 -46 13 -190 -1 -245 -8 -29 -23 -54 -46 -74 -29 -26 -41 -30 -92 -30 -82 0 -178 48 -205 103 -18 38 -18 41 2 145 11 59 23 124 27 145 5 29 10 37 21 33 9 -3 55 -10 102 -16z m647 -585 c85 -22 209 -79 363 -167 73 -42 167 -91 208 -109 40 -18 74 -36 74 -39 0 -8 5 -9 -170 19 -69 11 -174 28 -235 38 -176 27 -393 23 -590 -12 -206 -37 -325 -37 -530 -2 -312 54 -438 58 -710 22 -326 -44 -313 -47 -140 41 273 140 470 204 626 204 97 0 145 -12 279 -71 81 -36 108 -43 180 -47 95 -5 144 8 285 74 44 21 98 43 120 50 56 18 170 17 240 -1z m-375 -1020 c189 -13 339 -33 383 -50 25 -10 21 -31 -14 -65 -75 -71 -238 -99 -474 -81 -178 13 -402 14 -465 1 -25 -5 -99 -12 -165 -16 -140 -8 -165 -1 -165 47 0 43 47 84 123 108 70 21 256 47 427 60 63 4 122 9 130 10 8 0 107 -6 220 -14z m1700 -1157 c25 -100 -8 -257 -84 -406 -19 -37 -47 -80 -61 -97 l-26 -30 5 130 c5 140 28 251 72 357 50 122 73 133 94 46z m-3907 -225 c29 -62 32 -76 32 -168 0 -103 -16 -164 -36 -134 -27 42 -62 179 -62 249 -1 66 12 120 29 120 3 0 19 -30 37 -67z" style="fill: rgb(179, 179, 179);"/>
      <path d="M15120 8723 c-79 -8 -249 -36 -310 -50 -154 -38 -282 -128 -336 -240 -67 -136 -8 -298 137 -378 54 -30 55 -30 209 -30 117 1 182 6 265 23 506 100 876 92 1218 -27 95 -33 274 -122 417 -207 52 -32 124 -71 159 -87 59 -28 66 -29 90 -16 113 63 31 265 -192 475 -220 207 -439 337 -727 433 -159 52 -282 79 -445 97 -117 12 -394 17 -485 7z m528 -168 c155 -21 235 -40 387 -93 147 -50 324 -137 434 -210 115 -78 301 -252 301 -282 0 -5 -33 9 -72 31 -266 148 -529 230 -830 260 -147 14 -376 0 -603 -36 -88 -15 -203 -33 -255 -41 -57 -9 -137 -14 -200 -12 -89 3 -112 7 -148 28 -152 86 -82 241 143 313 190 62 562 80 843 42z" style="fill: rgb(179, 179, 179);"/>
    </g>
    <path d="M 47.68 117.066 C 45.763 118.579 45.712 118.8 45.693 120.298 C 47.569 121.473 49.043 120.842 51.722 119.667 C 53.06 119.276 55.291 120.049 55.291 120.049 C 55.256 120.066 57.25 119.248 58.663 119.602 C 61.341 120.777 62.846 122.085 64.72 120.91 C 64.492 119.517 64.432 119.027 62.219 117.282 C 60.076 118.065 58.16 117.597 55.249 117.467 C 52.487 117.302 49.823 117.849 47.68 117.066 Z" style="stroke-width: 1; fill: rgb(255, 255, 255);"/>
    <path d="M 67.993 109.818 C 66.118 109.035 61.722 106.83 62.525 109.571 C 64.401 110.746 63.164 114.259 65.843 113.084 C 65.186 113.249 74.479 111.035 74.479 111.035 C 74.479 111.035 76.934 110.228 78.273 110.619 C 80.951 111.794 83.073 110.964 84.758 107.331 C 83.37 107.247 76.592 111.484 75.714 108.905 C 73.036 109.688 70.136 110.601 67.993 109.818 Z" style="stroke-width: 1; transform-box: fill-box; transform-origin: 50% 50%; fill: rgb(255, 255, 255);" transform="matrix(0.106629, -0.994299, 0.994299, 0.106629, 0.000006, -0.000001)"/>
    <path d="M 30.818 110.641 C 28.943 111.424 24.547 113.629 25.35 110.888 C 27.226 109.713 26.41 105.496 29.089 106.671 C 28.432 106.506 37.304 109.424 37.304 109.424 C 37.304 109.424 39.606 110.042 40.945 109.651 C 43.623 108.476 45.898 109.495 47.583 113.128 C 46.195 113.212 39.417 108.975 38.539 111.554 C 35.861 110.771 32.961 109.858 30.818 110.641 Z" style="stroke-width: 1; transform-origin: 36.418px 110.134px; fill: rgb(255, 255, 255);" transform="matrix(-0.106629, -0.994299, 0.994299, -0.106629, -0.000004, 0)"/>
    <path d="M 70.167 84.769 C 57.949 86.586 49.794 87.638 39.5 86.743 C 42.466 74.26 47.327 69.65 54.919 69.65 C 62.511 69.65 68.051 75.913 70.167 84.769 Z" style="stroke: rgb(255, 255, 255); fill: rgb(204, 204, 204);"/>
    <path style="fill: rgb(204, 204, 204);" d="M 32.637 113.559 C 26.934 113.049 13.431 108.194 17.387 98 C 22.269 89.226 32.885 89.047 38.873 87.134 C 42.824 89.233 59.803 88.246 71.101 85.467 C 78.448 84.726 88.371 83.677 93.945 95.839 C 95.217 101.014 95.736 110.657 76.102 114.67 C 80.485 105.47 78.943 101.643 74.929 103.31 C 73.261 99.482 71.163 94.049 55.234 92.999 C 49.066 92.752 34.613 94.748 34.613 103.866 C 28.871 101.048 29.674 108.435 32.637 113.559 Z"/>
  </g>
</svg>