<?xml version="1.0" encoding="utf-8"?>
<svg height="100%" style="fill-rule:evenodd;clip-rule:evenodd;stroke-linecap:round;stroke-linejoin:round;" width="100%" version="1.1" viewBox="0 0 150 150" xmlns="http://www.w3.org/2000/svg" xmlns:bx="https://boxy-svg.com">
  <defs>
    <bx:grid x="0" y="0" width="15" height="15"/>
  </defs>
  <rect width="120" height="120" style="fill: none; stroke-width: 0.2px; stroke: rgb(84, 84, 84); pointer-events: none; visibility: hidden;" x="15" y="15"/>
  <g transform="matrix(1, 0, 0, 1, 3.855, -3.041496)">
    <path fill="#FF4088" d="M 122.898 95.835 L 122.898 55.999 C 122.898 50.813 120.155 46.027 115.688 43.407 C 106.103 37.765 89.169 27.82 78.795 21.724 C 73.317 18.516 66.515 18.569 61.107 21.911 C 51.928 27.579 37.606 36.402 28.361 42.097 C 22.786 45.546 19.391 51.615 19.391 58.165 L 19.391 98.961 C 19.391 105.458 22.837 111.468 28.446 114.746 L 62.572 134.693 C 67.106 137.345 72.71 137.404 77.301 134.846 C 87.265 129.295 104.913 119.467 115.081 113.802 C 119.904 111.115 122.893 106.027 122.893 100.509 L 122.893 95.835 L 122.898 95.835 Z" style="stroke-width: 1;"/>
    <path fill="#C9177E" d="M 70.215 15 L 70.306 15 L 70.386 15 L 70.846 15 L 70.926 15 L 70.936 15 L 71.017 15 L 71.025 15 L 71.108 15 L 71.113 15 L 71.196 15.027 L 71.204 15.027 L 71.284 15.027 L 71.292 15.027 L 71.372 15.027 L 71.378 15.027 L 71.461 15.027 L 71.469 15.027 L 71.551 15.027 L 71.559 15.027 L 71.64 15.027 L 71.645 15.027 L 71.723 15.053 L 71.733 15.053 L 71.813 15.053 L 71.821 15.053 L 71.899 15.053 L 71.91 15.053 L 71.99 15.053 L 72.001 15.053 L 72.081 15.08 L 72.091 15.08 L 72.172 15.08 L 72.182 15.08 L 72.26 15.08 L 72.271 15.08 L 72.348 15.08 L 72.359 15.08 L 72.439 15.08 L 72.45 15.08 L 72.533 15.107 L 72.541 15.107 L 72.624 15.107 L 72.629 15.107 L 72.706 15.134 L 72.717 15.134 L 72.795 15.134 L 72.805 15.134 L 72.886 15.134 L 72.896 15.134 L 72.979 15.16 L 72.984 15.16 L 73.062 15.16 L 73.073 15.16 L 73.153 15.16 L 73.164 15.16 L 73.241 15.187 L 73.252 15.187 L 73.332 15.214 L 73.343 15.214 L 73.42 15.214 L 73.428 15.214 L 73.508 15.241 L 73.519 15.241 L 73.597 15.241 L 73.607 15.241 L 73.685 15.241 L 73.69 15.241 L 73.773 15.267 L 73.784 15.267 L 73.861 15.294 L 73.872 15.294 L 73.95 15.294 L 73.958 15.294 L 74.038 15.321 L 74.046 15.321 L 74.126 15.321 L 74.134 15.321 L 74.212 15.348 L 74.222 15.348 L 74.305 15.374 L 74.311 15.374 L 74.388 15.374 L 74.399 15.374 L 74.476 15.401 L 74.484 15.401 L 74.565 15.401 L 74.575 15.401 L 74.655 15.428 L 74.663 15.428 L 74.741 15.455 L 74.752 15.455 L 74.829 15.481 L 74.837 15.481 L 74.92 15.481 L 74.925 15.481 L 75.006 15.508 L 75.014 15.508 L 75.094 15.535 L 75.099 15.535 L 75.177 15.561 L 75.187 15.561 L 75.265 15.561 L 75.276 15.588 L 75.353 15.588 L 75.361 15.588 L 75.441 15.615 L 75.447 15.615 L 75.527 15.642 L 75.535 15.642 L 75.615 15.668 L 75.621 15.668 L 75.698 15.695 L 75.709 15.695 L 75.789 15.695 L 75.8 15.722 L 75.877 15.722 L 75.888 15.722 L 75.965 15.749 L 75.976 15.749 L 76.054 15.775 L 76.064 15.775 L 76.142 15.802 L 76.153 15.802 L 76.23 15.829 L 76.236 15.829 L 76.316 15.856 L 76.324 15.856 L 76.404 15.882 L 76.412 15.882 L 76.49 15.909 L 76.5 15.909 L 76.578 15.936 L 76.586 15.936 L 76.663 15.962 L 76.674 15.962 L 76.752 15.989 L 76.762 15.989 L 76.84 16.016 L 76.85 16.016 L 76.928 16.043 L 76.936 16.043 L 77.016 16.069 L 77.022 16.069 L 77.099 16.096 L 77.11 16.123 L 77.187 16.123 L 77.195 16.15 L 77.273 16.176 L 77.278 16.176 L 77.353 16.203 L 77.364 16.203 L 77.439 16.23 L 77.449 16.23 L 77.524 16.257 L 77.532 16.257 L 77.612 16.283 L 77.62 16.283 L 77.695 16.337 L 77.703 16.337 L 77.781 16.364 L 77.789 16.364 L 77.866 16.39 L 77.874 16.39 L 77.955 16.417 L 77.963 16.417 L 78.038 16.444 L 78.048 16.444 L 78.123 16.497 L 78.131 16.497 L 78.209 16.524 L 78.217 16.524 L 78.291 16.551 L 78.302 16.551 L 78.38 16.577 L 78.39 16.604 L 78.468 16.631 L 78.476 16.631 L 78.554 16.658 L 78.559 16.658 L 78.634 16.711 L 78.642 16.711 L 78.717 16.738 L 78.722 16.738 L 78.802 16.765 L 78.807 16.765 L 78.882 16.791 L 78.893 16.818 L 78.968 16.845 L 78.976 16.845 L 79.051 16.872 L 79.059 16.872 L 79.134 16.925 L 79.144 16.925 L 79.219 16.952 L 79.227 16.952 L 79.302 17.005 L 79.31 17.005 L 79.385 17.032 L 79.39 17.032 L 79.465 17.085 L 79.476 17.085 L 79.551 17.112 L 79.561 17.112 L 79.636 17.139 L 79.644 17.166 L 79.719 17.192 L 79.727 17.192 L 79.802 17.246 L 79.807 17.246 L 79.882 17.273 L 79.89 17.273 L 79.962 17.326 L 79.97 17.326 L 80.045 17.353 L 80.053 17.353 L 80.128 17.406 L 80.136 17.406 L 80.208 17.433 L 80.219 17.46 L 80.294 17.486 L 80.302 17.486 L 80.38 17.54 L 80.385 17.54 L 80.457 17.567 L 80.465 17.567 L 80.54 17.62 L 80.548 17.62 L 80.62 17.674 L 80.626 17.674 L 80.698 17.7 L 80.708 17.727 L 80.778 17.754 L 80.786 17.754 L 80.858 17.807 L 80.863 17.807 L 80.936 17.861 L 80.946 17.861 L 81.013 17.914 L 81.021 17.914 L 117.941 39.597 L 118.002 39.624 L 118.01 39.65 L 118.072 39.677 L 118.082 39.677 L 118.138 39.731 L 118.146 39.731 L 118.205 39.757 L 118.211 39.757 L 118.269 39.811 L 118.277 39.811 L 118.336 39.837 L 118.342 39.837 L 118.4 39.891 L 118.406 39.891 L 118.465 39.918 L 118.475 39.918 L 118.534 39.971 L 118.539 39.971 L 118.598 39.998 L 118.609 39.998 L 118.668 40.051 L 118.673 40.051 L 118.732 40.078 L 118.74 40.105 L 118.799 40.132 L 118.804 40.132 L 118.86 40.185 L 118.871 40.185 L 118.927 40.212 L 118.935 40.212 L 118.994 40.265 L 118.999 40.265 L 119.055 40.292 L 119.061 40.292 L 119.117 40.345 L 119.125 40.345 L 119.178 40.399 L 119.186 40.399 L 119.24 40.426 L 119.248 40.426 L 119.304 40.479 L 119.312 40.479 L 119.368 40.533 L 119.374 40.533 L 119.43 40.559 L 119.438 40.559 L 119.491 40.613 L 119.499 40.613 L 119.553 40.64 L 119.561 40.666 L 119.617 40.693 L 119.622 40.693 L 119.678 40.747 L 119.684 40.747 L 119.74 40.8 L 119.751 40.8 L 119.801 40.853 L 119.812 40.853 L 119.866 40.88 L 119.876 40.88 L 119.932 40.934 L 119.938 40.934 L 119.994 40.987 L 119.999 40.987 L 120.053 41.041 L 120.063 41.041 L 120.117 41.094 L 120.128 41.094 L 120.232 41.174 L 120.245 41.174 L 120.349 41.281 L 120.363 41.281 L 120.47 41.388 L 120.483 41.388 L 120.59 41.468 L 120.603 41.468 L 120.708 41.575 L 120.721 41.575 L 120.825 41.682 L 120.839 41.682 L 120.938 41.762 L 120.951 41.789 L 121.053 41.869 L 121.066 41.896 L 121.168 41.976 L 121.181 41.976 L 121.277 42.083 L 121.291 42.083 L 121.392 42.19 L 121.406 42.19 L 121.502 42.297 L 121.515 42.297 L 121.614 42.404 L 121.627 42.404 L 121.721 42.511 L 121.734 42.511 L 121.828 42.618 L 121.841 42.618 L 121.935 42.725 L 121.946 42.725 L 122.039 42.832 L 122.053 42.859 L 122.143 42.939 L 122.157 42.966 L 122.248 43.073 L 122.261 43.073 L 122.352 43.179 L 122.365 43.179 L 122.456 43.286 L 122.47 43.286 L 122.558 43.393 L 122.569 43.42 L 122.659 43.527 L 122.673 43.527 L 122.761 43.634 L 122.774 43.634 L 122.863 43.741 L 122.871 43.768 L 122.959 43.875 L 122.972 43.875 L 123.058 43.982 L 123.066 44.008 L 123.151 44.115 L 123.165 44.115 L 123.25 44.222 L 123.258 44.222 L 123.341 44.356 L 123.349 44.356 L 123.432 44.463 L 123.443 44.49 L 123.523 44.57 L 123.534 44.596 L 123.614 44.703 L 123.625 44.73 L 123.705 44.837 L 123.716 44.837 L 123.793 44.944 L 123.804 44.971 L 123.881 45.078 L 123.892 45.104 L 123.969 45.211 L 123.98 45.211 L 124.055 45.318 L 124.063 45.345 L 124.138 45.452 L 124.149 45.479 L 124.221 45.586 L 124.232 45.612 L 124.301 45.719 L 124.312 45.719 L 124.387 45.853 L 124.397 45.853 L 124.467 45.96 L 124.477 45.987 L 124.547 46.094 L 124.555 46.12 L 124.627 46.227 L 124.638 46.254 L 124.705 46.361 L 124.715 46.388 L 124.785 46.495 L 124.793 46.495 L 124.86 46.628 L 124.868 46.628 L 124.935 46.762 L 124.943 46.762 L 125.01 46.896 L 125.018 46.896 L 125.084 47.029 L 125.09 47.029 L 125.157 47.163 L 125.162 47.163 L 125.223 47.297 L 125.231 47.323 L 125.293 47.43 L 125.304 47.457 L 125.36 47.564 L 125.368 47.591 L 125.429 47.698 L 125.435 47.725 L 125.493 47.831 L 125.504 47.858 L 125.56 47.992 L 125.566 47.992 L 125.622 48.126 L 125.627 48.152 L 125.683 48.259 L 125.691 48.286 L 125.745 48.42 L 125.753 48.42 L 125.804 48.553 L 125.812 48.553 L 125.862 48.687 L 125.87 48.714 L 125.919 48.821 L 125.924 48.847 L 125.975 48.981 L 125.98 48.981 L 126.028 49.115 L 126.036 49.115 L 126.084 49.248 L 126.09 49.275 L 126.14 49.409 L 126.146 49.409 L 126.191 49.543 L 126.199 49.569 L 126.242 49.676 L 126.247 49.703 L 126.29 49.837 L 126.295 49.837 L 126.338 49.97 L 126.346 49.997 L 126.386 50.131 L 126.392 50.131 L 126.429 50.264 L 126.437 50.291 L 126.475 50.398 L 126.48 50.425 L 126.517 50.559 L 126.525 50.585 L 126.563 50.692 L 126.571 50.719 L 126.606 50.853 L 126.611 50.879 L 126.648 50.986 L 126.651 51.013 L 126.683 51.147 L 126.691 51.173 L 126.726 51.307 L 126.729 51.307 L 126.763 51.441 L 126.769 51.468 L 126.798 51.601 L 126.803 51.601 L 126.838 51.735 L 126.841 51.762 L 126.87 51.895 L 126.873 51.922 L 126.902 52.056 L 126.905 52.056 L 126.932 52.189 L 126.934 52.216 L 126.961 52.35 L 126.964 52.377 L 126.991 52.51 L 126.993 52.51 L 127.017 52.644 L 127.02 52.671 L 127.041 52.804 L 127.047 52.831 L 127.068 52.965 L 127.071 52.965 L 127.092 53.125 L 127.095 53.125 L 127.114 53.259 L 127.114 53.286 L 127.124 53.339 L 127.124 53.366 L 127.13 53.419 L 127.13 53.446 L 127.14 53.499 L 127.151 53.58 L 127.159 53.66 L 127.162 53.66 L 127.172 53.74 L 127.18 53.82 L 127.183 53.82 L 127.188 53.9 L 127.191 53.9 L 127.199 53.954 L 127.199 53.981 L 127.205 54.061 L 127.21 54.061 L 127.215 54.114 L 127.218 54.141 L 127.226 54.195 L 127.226 54.221 L 127.231 54.275 L 127.231 54.302 L 127.239 54.355 L 127.239 54.382 L 127.245 54.435 L 127.245 54.462 L 127.25 54.515 L 127.255 54.596 L 127.258 54.676 L 127.263 54.756 L 127.266 54.836 L 127.271 54.916 L 127.274 54.997 L 127.277 55.077 L 127.279 55.157 L 127.285 55.237 L 127.287 55.291 L 127.287 55.317 L 127.29 55.371 L 127.29 100.87 L 127.287 100.945 L 127.287 101.041 L 127.285 101.116 L 127.285 101.124 L 127.279 101.196 L 127.279 101.204 L 127.277 101.279 L 127.277 101.287 L 127.274 101.359 L 127.274 101.364 L 127.271 101.437 L 127.271 101.447 L 127.266 101.519 L 127.263 101.528 L 127.261 101.6 L 127.261 101.61 L 127.258 101.683 L 127.258 101.688 L 127.255 101.763 L 127.255 101.773 L 127.247 101.848 L 127.247 101.854 L 127.242 101.929 L 127.242 101.939 L 127.234 102.011 L 127.234 102.019 L 127.231 102.092 L 127.231 102.102 L 127.226 102.175 L 127.226 102.183 L 127.218 102.255 L 127.218 102.265 L 127.213 102.338 L 127.213 102.346 L 127.205 102.418 L 127.202 102.426 L 127.196 102.501 L 127.191 102.509 L 127.186 102.581 L 127.186 102.592 L 127.18 102.664 L 127.175 102.672 L 127.167 102.744 L 127.167 102.755 L 127.156 102.827 L 127.156 102.832 L 127.146 102.904 L 127.146 102.912 L 127.138 102.985 L 127.132 102.995 L 127.124 103.07 L 127.122 103.081 L 127.111 103.15 L 127.108 103.161 L 127.098 103.233 L 127.098 103.244 L 127.087 103.313 L 127.087 103.324 L 127.079 103.396 L 127.076 103.404 L 127.065 103.477 L 127.063 103.487 L 127.049 103.559 L 127.049 103.565 L 127.039 103.637 L 127.039 103.642 L 127.025 103.715 L 127.023 103.725 L 127.012 103.797 L 127.009 103.805 L 127.001 103.878 L 127.001 103.886 L 126.988 103.955 L 126.988 103.963 L 126.975 104.035 L 126.975 104.041 L 126.961 104.113 L 126.961 104.124 L 126.948 104.19 L 126.945 104.201 L 126.932 104.268 L 126.929 104.279 L 126.916 104.351 L 126.913 104.362 L 126.897 104.431 L 126.897 104.439 L 126.878 104.511 L 126.878 104.517 L 126.868 104.586 L 126.868 104.594 L 126.849 104.666 L 126.849 104.674 L 126.838 104.744 L 126.833 104.752 L 126.817 104.819 L 126.817 104.827 L 126.801 104.896 L 126.801 104.904 L 126.785 104.974 L 126.782 104.982 L 126.766 105.051 L 126.763 105.062 L 126.745 105.129 L 126.742 105.137 L 126.726 105.204 L 126.723 105.212 L 126.707 105.279 L 126.705 105.289 L 126.683 105.359 L 126.68 105.367 L 126.664 105.436 L 126.662 105.444 L 126.64 105.514 L 126.64 105.525 L 126.622 105.597 L 126.619 105.605 L 126.6 105.674 L 126.6 105.682 L 126.579 105.752 L 126.576 105.762 L 126.558 105.829 L 126.555 105.84 L 126.533 105.912 L 126.531 105.918 L 126.512 105.987 L 126.507 105.992 L 126.488 106.062 L 126.485 106.073 L 126.461 106.139 L 126.459 106.15 L 126.44 106.217 L 126.437 106.225 L 126.416 106.292 L 126.413 106.303 L 126.394 106.372 L 126.392 106.377 L 126.368 106.447 L 126.365 106.455 L 126.341 106.524 L 126.338 106.535 L 126.317 106.602 L 126.312 106.613 L 126.29 106.679 L 126.287 106.69 L 126.263 106.76 L 126.261 106.765 L 126.237 106.835 L 126.234 106.843 L 126.213 106.912 L 126.207 106.923 L 126.186 106.99 L 126.183 106.998 L 126.159 107.064 L 126.156 107.075 L 126.132 107.145 L 126.13 107.153 L 126.103 107.22 L 126.1 107.228 L 126.079 107.294 L 126.074 107.302 L 126.052 107.369 L 126.05 107.377 L 126.025 107.447 L 126.023 107.458 L 125.996 107.524 L 125.993 107.535 L 125.967 107.599 L 125.964 107.61 L 125.937 107.674 L 125.935 107.685 L 125.908 107.749 L 125.905 107.76 L 125.878 107.824 L 125.876 107.834 L 125.849 107.899 L 125.846 107.909 L 125.82 107.974 L 125.817 107.982 L 125.788 108.046 L 125.785 108.056 L 125.755 108.123 L 125.753 108.134 L 125.726 108.198 L 125.723 108.209 L 125.694 108.273 L 125.691 108.284 L 125.662 108.348 L 125.657 108.358 L 125.627 108.425 L 125.624 108.431 L 125.595 108.495 L 125.592 108.506 L 125.563 108.57 L 125.56 108.578 L 125.531 108.642 L 125.528 108.65 L 125.499 108.714 L 125.493 108.719 L 125.464 108.786 L 125.461 108.792 L 125.429 108.858 L 125.427 108.864 L 125.395 108.925 L 125.389 108.936 L 125.36 109 L 125.357 109.008 L 125.325 109.07 L 125.322 109.078 L 125.293 109.145 L 125.29 109.15 L 125.255 109.217 L 125.253 109.225 L 125.221 109.292 L 125.218 109.297 L 125.186 109.358 L 125.181 109.366 L 125.149 109.431 L 125.146 109.441 L 125.114 109.505 L 125.111 109.516 L 125.076 109.58 L 125.071 109.591 L 125.039 109.653 L 125.036 109.658 L 125.001 109.725 L 124.999 109.733 L 124.967 109.8 L 124.964 109.81 L 124.927 109.872 L 124.921 109.877 L 124.884 109.939 L 124.881 109.947 L 124.846 110.008 L 124.844 110.013 L 124.806 110.075 L 124.804 110.083 L 124.769 110.144 L 124.764 110.15 L 124.729 110.214 L 124.726 110.222 L 124.689 110.283 L 124.686 110.291 L 124.651 110.353 L 124.649 110.364 L 124.611 110.425 L 124.606 110.431 L 124.568 110.492 L 124.563 110.5 L 124.526 110.562 L 124.523 110.57 L 124.488 110.631 L 124.485 110.639 L 124.445 110.701 L 124.443 110.709 L 124.405 110.767 L 124.403 110.778 L 124.368 110.834 L 124.36 110.842 L 124.322 110.904 L 124.317 110.914 L 124.28 110.973 L 124.272 110.979 L 124.234 111.037 L 124.232 111.043 L 124.191 111.107 L 124.183 111.115 L 124.146 111.174 L 124.138 111.182 L 124.1 111.241 L 124.098 111.246 L 124.058 111.307 L 124.055 111.315 L 124.015 111.374 L 124.01 111.38 L 123.967 111.438 L 123.964 111.444 L 123.924 111.503 L 123.921 111.511 L 123.879 111.569 L 123.876 111.575 L 123.836 111.634 L 123.83 111.642 L 123.79 111.698 L 123.785 111.706 L 123.742 111.765 L 123.734 111.77 L 123.697 111.829 L 123.691 111.837 L 123.651 111.896 L 123.643 111.904 L 123.603 111.962 L 123.598 111.97 L 123.555 112.029 L 123.55 112.035 L 123.507 112.093 L 123.499 112.099 L 123.459 112.158 L 123.451 112.166 L 123.408 112.224 L 123.405 112.23 L 123.363 112.286 L 123.357 112.291 L 123.314 112.347 L 123.312 112.353 L 123.266 112.409 L 123.258 112.417 L 123.216 112.47 L 123.213 112.478 L 123.17 112.537 L 123.165 112.543 L 123.119 112.601 L 123.111 112.609 L 123.066 112.663 L 123.06 112.671 L 123.015 112.724 L 123.012 112.732 L 122.967 112.789 L 122.959 112.794 L 122.913 112.85 L 122.908 112.855 L 122.863 112.912 L 122.855 112.917 L 122.809 112.973 L 122.804 112.978 L 122.758 113.035 L 122.753 113.043 L 122.708 113.096 L 122.702 113.104 L 122.654 113.158 L 122.646 113.166 L 122.601 113.222 L 122.595 113.227 L 122.55 113.283 L 122.542 113.289 L 122.496 113.345 L 122.491 113.35 L 122.446 113.406 L 122.438 113.414 L 122.392 113.465 L 122.387 113.473 L 122.336 113.527 L 122.331 113.535 L 122.285 113.588 L 122.277 113.596 L 122.229 113.652 L 122.224 113.658 L 122.178 113.714 L 122.17 113.719 L 122.122 113.772 L 122.114 113.778 L 122.066 113.831 L 122.061 113.837 L 122.01 113.89 L 122.004 113.895 L 121.956 113.946 L 121.948 113.954 L 121.9 114.005 L 121.895 114.013 L 121.844 114.064 L 121.839 114.072 L 121.791 114.123 L 121.783 114.131 L 121.734 114.182 L 121.726 114.19 L 121.676 114.24 L 121.668 114.248 L 121.619 114.299 L 121.614 114.307 L 121.563 114.355 L 121.558 114.361 L 121.507 114.414 L 121.496 114.419 L 121.443 114.473 L 121.438 114.478 L 121.384 114.526 L 121.379 114.534 L 121.328 114.585 L 121.32 114.593 L 121.269 114.641 L 121.261 114.649 L 121.21 114.698 L 121.202 114.703 L 121.152 114.754 L 121.144 114.759 L 121.093 114.807 L 121.085 114.815 L 121.034 114.863 L 121.026 114.869 L 120.975 114.919 L 120.967 114.925 L 120.914 114.973 L 120.906 114.978 L 120.855 115.026 L 120.847 115.032 L 120.793 115.083 L 120.785 115.088 L 120.729 115.136 L 120.724 115.141 L 120.668 115.189 L 120.662 115.195 L 120.606 115.24 L 120.595 115.248 L 120.542 115.294 L 120.534 115.299 L 120.48 115.35 L 120.472 115.355 L 120.416 115.403 L 120.411 115.411 L 120.355 115.46 L 120.349 115.465 L 120.293 115.51 L 120.288 115.518 L 120.229 115.564 L 120.221 115.566 L 120.168 115.612 L 120.16 115.62 L 120.104 115.665 L 120.095 115.671 L 120.039 115.716 L 120.034 115.724 L 119.978 115.77 L 119.97 115.775 L 119.916 115.82 L 119.908 115.828 L 119.85 115.874 L 119.844 115.879 L 119.788 115.922 L 119.783 115.93 L 119.724 115.976 L 119.716 115.981 L 119.657 116.026 L 119.652 116.034 L 119.593 116.08 L 119.588 116.085 L 119.529 116.131 L 119.521 116.133 L 119.462 116.176 L 119.456 116.179 L 119.398 116.221 L 119.392 116.224 L 119.334 116.267 L 119.323 116.27 L 119.264 116.312 L 119.259 116.32 L 119.2 116.363 L 119.192 116.369 L 119.133 116.411 L 119.128 116.417 L 119.069 116.459 L 119.058 116.467 L 118.999 116.508 L 118.994 116.513 L 118.932 116.556 L 118.922 116.558 L 118.86 116.601 L 118.852 116.606 L 118.791 116.649 L 118.785 116.655 L 118.724 116.695 L 118.716 116.7 L 118.654 116.743 L 118.649 116.751 L 118.59 116.794 L 118.58 116.799 L 118.518 116.839 L 118.51 116.842 L 118.449 116.879 L 118.441 116.885 L 118.376 116.922 L 118.371 116.93 L 118.31 116.967 L 118.302 116.975 L 118.24 117.013 L 118.235 117.018 L 118.173 117.056 L 118.162 117.058 L 118.101 117.098 L 118.093 117.106 L 118.031 117.144 L 118.023 117.147 L 117.959 117.187 L 117.951 117.192 L 117.89 117.232 L 117.879 117.237 L 117.815 117.278 L 117.807 117.286 L 117.745 117.32 L 117.735 117.323 L 117.673 117.36 L 117.668 117.366 L 117.601 117.406 L 117.593 117.411 L 117.526 117.446 L 117.521 117.454 L 117.459 117.489 L 117.449 117.494 L 117.384 117.529 L 117.374 117.532 L 117.31 117.569 L 117.302 117.572 L 117.24 117.606 L 117.237 117.609 L 79.46 138.661 L 79.457 138.661 L 79.398 138.698 L 79.388 138.701 L 79.326 138.736 L 79.315 138.744 L 79.254 138.776 L 79.243 138.778 L 79.182 138.81 L 79.176 138.813 L 79.115 138.848 L 79.104 138.851 L 79.043 138.883 L 79.032 138.885 L 78.971 138.917 L 78.96 138.923 L 78.898 138.955 L 78.893 138.958 L 78.832 138.99 L 78.824 138.992 L 78.762 139.022 L 78.757 139.027 L 78.69 139.059 L 78.685 139.064 L 78.623 139.097 L 78.615 139.102 L 78.554 139.131 L 78.548 139.134 L 78.484 139.163 L 78.479 139.166 L 78.417 139.198 L 78.409 139.201 L 78.345 139.23 L 78.34 139.236 L 78.275 139.265 L 78.27 139.268 L 78.206 139.297 L 78.198 139.3 L 78.136 139.329 L 78.131 139.332 L 78.067 139.361 L 78.059 139.369 L 77.992 139.399 L 77.987 139.401 L 77.923 139.428 L 77.915 139.431 L 77.85 139.46 L 77.842 139.466 L 77.778 139.495 L 77.767 139.498 L 77.706 139.524 L 77.701 139.527 L 77.634 139.556 L 77.628 139.562 L 77.562 139.586 L 77.556 139.591 L 77.492 139.615 L 77.484 139.621 L 77.42 139.645 L 77.409 139.647 L 77.345 139.674 L 77.334 139.677 L 77.27 139.703 L 77.259 139.706 L 77.198 139.733 L 77.193 139.736 L 77.126 139.76 L 77.12 139.762 L 77.054 139.789 L 77.046 139.792 L 76.979 139.818 L 76.971 139.821 L 76.904 139.848 L 76.896 139.851 L 76.829 139.875 L 76.821 139.877 L 76.754 139.904 L 76.746 139.907 L 76.679 139.928 L 76.674 139.933 L 76.607 139.955 L 76.599 139.957 L 76.532 139.982 L 76.524 139.984 L 76.457 140.008 L 76.449 140.011 L 76.383 140.032 L 76.377 140.038 L 76.31 140.059 L 76.246 140.083 L 76.236 140.086 L 76.169 140.105 L 76.158 140.107 L 76.094 140.129 L 76.086 140.131 L 76.022 140.153 L 76.016 140.158 L 75.947 140.177 L 75.936 140.179 L 75.872 140.198 L 75.861 140.203 L 75.797 140.222 L 75.786 140.225 L 75.72 140.249 L 75.706 140.252 L 75.575 140.292 L 75.559 140.297 L 75.425 140.337 L 75.409 140.34 L 75.276 140.377 L 75.26 140.383 L 75.126 140.417 L 75.11 140.425 L 74.976 140.46 L 74.96 140.463 L 74.827 140.5 L 74.805 140.503 L 74.671 140.535 L 74.655 140.538 L 74.522 140.57 L 74.503 140.575 L 74.369 140.607 L 74.353 140.61 L 74.22 140.639 L 74.204 140.642 L 74.067 140.671 L 74.046 140.674 L 73.91 140.703 L 73.893 140.709 L 73.757 140.733 L 73.741 140.738 L 73.607 140.76 L 73.591 140.762 L 73.458 140.789 L 73.442 140.792 L 73.303 140.816 L 73.287 140.818 L 73.15 140.842 L 73.134 140.845 L 72.998 140.864 L 72.982 140.866 L 72.845 140.888 L 72.827 140.891 L 72.69 140.909 L 72.674 140.912 L 72.538 140.933 L 72.519 140.936 L 72.38 140.952 L 72.364 140.955 L 72.228 140.971 L 72.212 140.976 L 72.075 140.992 L 71.939 141.005 L 71.923 141.005 L 71.784 141.014 L 71.768 141.016 L 71.632 141.027 L 71.616 141.027 L 71.479 141.038 L 71.463 141.038 L 71.327 141.046 L 71.305 141.051 L 71.169 141.059 L 71.153 141.059 L 71.017 141.067 L 71.001 141.067 L 70.864 141.072 L 70.843 141.072 L 70.707 141.075 L 70.691 141.075 L 70.554 141.08 L 70.538 141.08 L 70.399 141.083 L 69.918 141.083 L 69.782 141.08 L 69.645 141.075 L 69.624 141.075 L 69.487 141.072 L 69.485 141.072 L 69.348 141.067 L 69.332 141.062 L 69.196 141.056 L 69.177 141.056 L 69.041 141.051 L 69.025 141.046 L 68.889 141.04 L 68.872 141.04 L 68.736 141.03 L 68.72 141.027 L 68.581 141.014 L 68.562 141.011 L 68.426 140.997 L 68.407 140.995 L 68.268 140.981 L 68.252 140.979 L 68.116 140.965 L 68.1 140.965 L 67.963 140.952 L 67.947 140.949 L 67.811 140.933 L 67.79 140.933 L 67.653 140.917 L 67.635 140.912 L 67.498 140.893 L 67.48 140.891 L 67.343 140.872 L 67.327 140.866 L 67.191 140.848 L 67.175 140.845 L 67.038 140.824 L 67.022 140.821 L 66.889 140.8 L 66.878 140.8 L 66.742 140.773 L 66.723 140.77 L 66.589 140.743 L 66.573 140.741 L 66.44 140.714 L 66.424 140.711 L 66.29 140.685 L 66.271 140.682 L 66.135 140.655 L 66.119 140.653 L 65.985 140.623 L 65.966 140.615 L 65.833 140.586 L 65.817 140.583 L 65.683 140.551 L 65.664 140.546 L 65.531 140.511 L 65.514 140.506 L 65.381 140.471 L 65.365 140.465 L 65.231 140.431 L 65.215 140.425 L 65.081 140.388 L 65.065 140.383 L 64.932 140.345 L 64.916 140.34 L 64.782 140.3 L 64.761 140.294 L 64.627 140.254 L 64.611 140.249 L 64.477 140.209 L 64.461 140.203 L 64.327 140.163 L 64.311 140.161 L 64.183 140.118 L 64.17 140.115 L 64.1 140.091 L 64.092 140.091 L 64.025 140.072 L 64.017 140.07 L 63.95 140.046 L 63.942 140.043 L 63.876 140.019 L 63.868 140.016 L 63.801 139.995 L 63.793 139.99 L 63.726 139.968 L 63.718 139.965 L 63.651 139.941 L 63.646 139.939 L 63.579 139.915 L 63.573 139.912 L 63.509 139.891 L 63.501 139.885 L 63.437 139.861 L 63.426 139.856 L 63.362 139.832 L 63.352 139.829 L 63.287 139.802 L 63.279 139.8 L 63.215 139.773 L 63.205 139.77 L 63.14 139.744 L 63.132 139.741 L 63.068 139.714 L 63.057 139.711 L 62.993 139.685 L 62.988 139.682 L 62.921 139.655 L 62.916 139.653 L 62.849 139.626 L 62.841 139.623 L 62.774 139.597 L 62.766 139.594 L 62.699 139.567 L 62.691 139.564 L 62.624 139.538 L 62.616 139.535 L 62.549 139.508 L 62.544 139.506 L 62.477 139.476 L 62.469 139.474 L 62.408 139.444 L 62.4 139.439 L 62.336 139.409 L 62.328 139.407 L 62.263 139.377 L 62.258 139.375 L 62.191 139.348 L 62.183 139.345 L 62.119 139.316 L 62.111 139.313 L 62.044 139.284 L 62.036 139.281 L 61.975 139.252 L 61.967 139.244 L 61.905 139.214 L 61.897 139.212 L 61.836 139.182 L 61.83 139.179 L 61.763 139.15 L 61.758 139.145 L 61.694 139.11 L 61.686 139.105 L 61.624 139.075 L 61.614 139.073 L 61.55 139.043 L 61.544 139.035 L 61.48 139.003 L 61.472 139 L 61.405 138.968 L 61.4 138.966 L 61.338 138.931 L 61.328 138.928 L 61.266 138.896 L 61.261 138.893 L 61.197 138.861 L 61.189 138.853 L 61.127 138.821 L 61.119 138.819 L 61.058 138.784 L 61.052 138.781 L 60.988 138.749 L 60.98 138.744 L 60.919 138.709 L 60.911 138.706 L 60.849 138.671 L 60.838 138.663 L 60.777 138.631 L 60.769 138.629 L 60.705 138.597 L 60.697 138.594 L 60.635 138.559 L 60.625 138.557 L 60.563 138.522 L 60.552 138.519 L 60.494 138.482 L 60.483 138.479 L 60.427 138.442 L 60.421 138.439 L 26.272 118.507 L 26.269 118.502 L 26.197 118.462 L 26.189 118.457 L 26.119 118.414 L 26.109 118.411 L 26.034 118.368 L 26.023 118.366 L 25.951 118.32 L 25.946 118.318 L 25.873 118.272 L 25.868 118.264 L 25.796 118.219 L 25.788 118.213 L 25.718 118.168 L 25.708 118.165 L 25.635 118.122 L 25.627 118.114 L 25.555 118.069 L 25.547 118.064 L 25.475 118.018 L 25.494 118.018 L 25.422 117.973 L 25.411 117.965 L 25.339 117.919 L 25.333 117.914 L 25.261 117.868 L 25.253 117.86 L 25.181 117.812 L 25.17 117.807 L 25.098 117.756 L 25.093 117.751 L 25.021 117.705 L 25.015 117.697 L 24.943 117.649 L 24.935 117.644 L 24.865 117.593 L 24.857 117.588 L 24.791 117.54 L 24.78 117.532 L 24.71 117.483 L 24.702 117.475 L 24.636 117.427 L 24.628 117.422 L 24.558 117.371 L 24.55 117.366 L 24.48 117.318 L 24.475 117.315 L 24.406 117.264 L 24.4 117.259 L 24.333 117.211 L 24.325 117.203 L 24.259 117.155 L 24.248 117.152 L 24.181 117.101 L 24.173 117.096 L 24.106 117.042 L 24.098 117.037 L 24.031 116.989 L 24.021 116.981 L 23.954 116.93 L 23.946 116.922 L 23.879 116.871 L 23.874 116.863 L 23.809 116.812 L 23.801 116.81 L 23.737 116.756 L 23.729 116.751 L 23.665 116.697 L 23.657 116.692 L 23.593 116.639 L 23.588 116.633 L 23.521 116.58 L 23.515 116.574 L 23.448 116.521 L 23.443 116.516 L 23.379 116.462 L 23.371 116.457 L 23.307 116.401 L 23.299 116.398 L 23.235 116.347 L 23.229 116.339 L 23.165 116.288 L 23.157 116.28 L 23.093 116.224 L 23.088 116.219 L 23.021 116.165 L 23.015 116.16 L 22.949 116.104 L 22.943 116.101 L 22.879 116.05 L 22.874 116.042 L 22.812 115.992 L 22.804 115.984 L 22.743 115.93 L 22.737 115.922 L 22.673 115.866 L 22.668 115.861 L 22.606 115.804 L 22.598 115.799 L 22.537 115.743 L 22.531 115.738 L 22.47 115.681 L 22.462 115.673 L 22.4 115.615 L 22.395 115.612 L 22.331 115.558 L 22.323 115.55 L 22.261 115.492 L 22.256 115.486 L 22.195 115.43 L 22.187 115.425 L 22.125 115.366 L 22.12 115.358 L 22.061 115.299 L 22.056 115.294 L 21.997 115.235 L 21.989 115.227 L 21.927 115.171 L 21.922 115.163 L 21.86 115.104 L 21.852 115.101 L 21.794 115.042 L 21.788 115.037 L 21.729 114.978 L 21.721 114.97 L 21.663 114.911 L 21.657 114.906 L 21.598 114.847 L 21.593 114.839 L 21.534 114.78 L 21.526 114.775 L 21.467 114.716 L 21.462 114.711 L 21.406 114.652 L 21.401 114.644 L 21.342 114.585 L 21.334 114.58 L 21.275 114.518 L 21.27 114.51 L 21.213 114.449 L 21.208 114.444 L 21.152 114.382 L 21.147 114.374 L 21.088 114.313 L 21.08 114.307 L 21.026 114.243 L 21.018 114.238 L 20.962 114.176 L 20.957 114.168 L 20.901 114.107 L 20.895 114.101 L 20.839 114.04 L 20.834 114.032 L 20.778 113.97 L 20.775 113.965 L 20.721 113.901 L 20.716 113.895 L 20.66 113.834 L 20.655 113.826 L 20.596 113.762 L 20.588 113.756 L 20.532 113.692 L 20.526 113.687 L 20.47 113.623 L 20.465 113.615 L 20.411 113.553 L 20.409 113.548 L 20.358 113.484 L 20.35 113.478 L 20.299 113.414 L 20.291 113.406 L 20.238 113.342 L 20.23 113.334 L 20.179 113.273 L 20.171 113.267 L 20.115 113.206 L 20.109 113.198 L 20.058 113.136 L 20.05 113.131 L 20 113.064 L 19.992 113.059 L 19.941 112.992 L 19.933 112.986 L 19.882 112.922 L 19.874 112.914 L 19.823 112.85 L 19.815 112.842 L 19.764 112.778 L 19.762 112.77 L 19.711 112.706 L 19.705 112.7 L 19.657 112.634 L 19.652 112.628 L 19.604 112.561 L 19.599 112.556 L 19.548 112.486 L 19.542 112.481 L 19.494 112.417 L 19.486 112.409 L 19.438 112.345 L 19.435 112.337 L 19.385 112.27 L 19.382 112.262 L 19.334 112.195 L 19.331 112.187 L 19.28 112.123 L 19.278 112.115 L 19.23 112.051 L 19.222 112.045 L 19.173 111.976 L 19.168 111.97 L 19.117 111.901 L 19.112 111.89 L 19.067 111.823 L 19.061 111.815 L 19.013 111.749 L 19.008 111.741 L 18.962 111.674 L 18.957 111.666 L 18.909 111.599 L 18.906 111.591 L 18.861 111.524 L 18.855 111.513 L 18.81 111.444 L 18.802 111.438 L 18.756 111.369 L 18.751 111.364 L 18.706 111.294 L 18.698 111.289 L 18.652 111.219 L 18.647 111.214 L 18.604 111.144 L 18.601 111.139 L 18.559 111.07 L 18.551 111.061 L 18.505 110.992 L 18.5 110.981 L 18.454 110.914 L 18.452 110.906 L 18.406 110.834 L 18.401 110.826 L 18.361 110.757 L 18.353 110.751 L 18.31 110.682 L 18.305 110.676 L 18.262 110.604 L 18.256 110.594 L 18.214 110.527 L 18.208 110.519 L 18.168 110.447 L 18.163 110.441 L 18.123 110.372 L 18.115 110.364 L 18.072 110.291 L 18.067 110.281 L 18.024 110.209 L 18.018 110.201 L 17.978 110.128 L 17.97 110.123 L 17.93 110.051 L 17.925 110.043 L 17.887 109.971 L 17.885 109.965 L 17.845 109.893 L 17.842 109.885 L 17.802 109.813 L 17.797 109.802 L 17.756 109.73 L 17.754 109.722 L 17.714 109.647 L 17.711 109.639 L 17.671 109.567 L 17.668 109.559 L 17.628 109.487 L 17.625 109.476 L 17.588 109.404 L 17.583 109.396 L 17.548 109.321 L 17.545 109.313 L 17.505 109.238 L 17.502 109.23 L 17.462 109.155 L 17.457 109.147 L 17.42 109.072 L 17.417 109.067 L 17.382 108.995 L 17.379 108.984 L 17.342 108.909 L 17.342 108.912 L 17.307 108.837 L 17.299 108.829 L 17.265 108.754 L 17.262 108.743 L 17.224 108.671 L 17.222 108.661 L 17.187 108.586 L 17.184 108.58 L 17.147 108.506 L 17.144 108.5 L 17.112 108.425 L 17.107 108.417 L 17.072 108.342 L 17.069 108.337 L 17.032 108.262 L 17.029 108.254 L 16.994 108.179 L 16.992 108.169 L 16.957 108.094 L 16.954 108.088 L 16.92 108.014 L 16.917 108.003 L 16.88 107.928 L 16.877 107.923 L 16.845 107.848 L 16.842 107.84 L 16.807 107.765 L 16.805 107.757 L 16.773 107.682 L 16.77 107.674 L 16.74 107.599 L 16.738 107.594 L 16.703 107.519 L 16.7 107.508 L 16.671 107.431 L 16.668 107.423 L 16.636 107.348 L 16.634 107.34 L 16.604 107.268 L 16.599 107.257 L 16.567 107.179 L 16.564 107.171 L 16.535 107.094 L 16.532 107.086 L 16.503 107.006 L 16.5 107 L 16.47 106.923 L 16.465 106.912 L 16.436 106.835 L 16.433 106.827 L 16.404 106.749 L 16.401 106.744 L 16.374 106.663 L 16.372 106.655 L 16.342 106.575 L 16.339 106.57 L 16.313 106.492 L 16.31 106.482 L 16.283 106.404 L 16.281 106.393 L 16.251 106.316 L 16.249 106.305 L 16.222 106.228 L 16.219 106.222 L 16.192 106.142 L 16.19 106.137 L 16.163 106.059 L 16.16 106.049 L 16.134 105.971 L 16.131 105.96 L 16.104 105.883 L 16.102 105.872 L 16.075 105.795 L 16.072 105.784 L 16.045 105.706 L 16.043 105.696 L 16.019 105.618 L 16.016 105.613 L 15.992 105.53 L 15.987 105.522 L 15.965 105.439 L 15.962 105.431 L 15.938 105.351 L 15.936 105.343 L 15.912 105.263 L 15.909 105.254 L 15.888 105.172 L 15.882 105.164 L 15.861 105.081 L 15.858 105.075 L 15.834 104.992 L 15.831 104.99 L 15.807 104.91 L 15.805 104.902 L 15.786 104.824 L 15.783 104.816 L 15.762 104.738 L 15.762 104.733 L 15.741 104.65 L 15.741 104.642 L 15.719 104.562 L 15.717 104.554 L 15.698 104.474 L 15.695 104.466 L 15.674 104.383 L 15.679 104.383 L 15.658 104.303 L 15.655 104.295 L 15.636 104.214 L 15.631 104.206 L 15.612 104.126 L 15.61 104.121 L 15.591 104.038 L 15.594 104.035 L 15.575 103.952 L 15.569 103.944 L 15.551 103.862 L 15.548 103.854 L 15.532 103.771 L 15.527 103.76 L 15.508 103.68 L 15.505 103.674 L 15.489 103.592 L 15.487 103.581 L 15.471 103.501 L 15.465 103.49 L 15.449 103.41 L 15.433 103.327 L 15.433 103.319 L 15.417 103.233 L 15.417 103.223 L 15.401 103.142 L 15.398 103.132 L 15.377 103.054 L 15.377 103.043 L 15.361 102.955 L 15.358 102.947 L 15.342 102.862 L 15.34 102.851 L 15.326 102.771 L 15.324 102.76 L 15.31 102.68 L 15.31 102.669 L 15.297 102.589 L 15.297 102.578 L 15.283 102.498 L 15.281 102.487 L 15.267 102.404 L 15.267 102.41 L 15.254 102.327 L 15.254 102.322 L 15.241 102.239 L 15.241 102.231 L 15.227 102.148 L 15.227 102.137 L 15.214 102.057 L 15.214 102.052 L 15.206 101.966 L 15.206 101.955 L 15.195 101.875 L 15.195 101.867 L 15.182 101.784 L 15.179 101.773 L 15.168 101.693 L 15.168 101.683 L 15.16 101.597 L 15.158 101.589 L 15.147 101.503 L 15.147 101.493 L 15.136 101.407 L 15.134 101.399 L 15.123 101.314 L 15.123 101.303 L 15.115 101.22 L 15.11 101.212 L 15.102 101.129 L 15.094 101.044 L 15.094 101.033 L 15.086 100.95 L 15.08 100.939 L 15.072 100.854 L 15.072 100.846 L 15.064 100.76 L 15.061 100.75 L 15.056 100.667 L 15.056 100.656 L 15.048 100.57 L 15.048 100.562 L 15.043 100.477 L 15.035 100.391 L 15.035 100.383 L 15.029 100.298 L 15.029 100.287 L 15.024 100.201 L 15.024 100.097 L 15.019 100.012 L 15.019 100.004 L 15.016 99.918 L 15.016 99.907 L 15.013 99.824 L 15.011 99.814 L 15.005 99.728 L 15.005 99.637 L 15.003 99.554 L 15.003 99.544 L 15 99.458 L 15 58.205 L 15.003 58.125 L 15.003 58.018 L 15.005 57.938 L 15.005 57.643 L 15.011 57.563 L 15.011 57.537 L 15.013 57.456 L 15.016 57.349 L 15.019 57.269 L 15.024 57.189 L 15.024 57.162 L 15.027 57.082 L 15.032 56.975 L 15.04 56.895 L 15.043 56.788 L 15.048 56.708 L 15.048 56.681 L 15.053 56.601 L 15.056 56.521 L 15.061 56.414 L 15.07 56.333 L 15.07 56.307 L 15.078 56.226 L 15.086 56.146 L 15.088 56.12 L 15.094 56.039 L 15.104 55.959 L 15.115 55.852 L 15.118 55.852 L 15.128 55.772 L 15.136 55.665 L 15.147 55.585 L 15.158 55.505 L 15.16 55.478 L 15.168 55.398 L 15.179 55.317 L 15.179 55.291 L 15.19 55.211 L 15.198 55.13 L 15.203 55.104 L 15.211 55.023 L 15.225 54.943 L 15.225 54.916 L 15.235 54.836 L 15.238 54.836 L 15.249 54.756 L 15.251 54.729 L 15.265 54.649 L 15.267 54.649 L 15.281 54.569 L 15.281 54.542 L 15.294 54.462 L 15.307 54.382 L 15.31 54.382 L 15.324 54.302 L 15.324 54.275 L 15.345 54.195 L 15.348 54.195 L 15.361 54.114 L 15.361 54.088 L 15.377 54.007 L 15.393 53.927 L 15.412 53.847 L 15.414 53.82 L 15.43 53.74 L 15.433 53.74 L 15.449 53.66 L 15.452 53.66 L 15.471 53.553 L 15.473 53.553 L 15.489 53.473 L 15.505 53.393 L 15.521 53.286 L 15.524 53.286 L 15.54 53.205 L 15.545 53.205 L 15.564 53.125 L 15.583 53.018 L 15.586 53.018 L 15.602 52.938 L 15.607 52.938 L 15.626 52.858 L 15.626 52.831 L 15.644 52.751 L 15.65 52.751 L 15.668 52.671 L 15.668 52.644 L 15.687 52.564 L 15.69 52.564 L 15.711 52.483 L 15.73 52.403 L 15.733 52.377 L 15.757 52.296 L 15.778 52.216 L 15.802 52.136 L 15.805 52.109 L 15.829 52.029 L 15.85 51.949 L 15.853 51.949 L 15.877 51.869 L 15.88 51.842 L 15.904 51.762 L 15.906 51.762 L 15.928 51.681 L 15.933 51.681 L 15.954 51.601 L 15.957 51.574 L 15.984 51.494 L 15.987 51.494 L 16.011 51.414 L 16.013 51.414 L 16.037 51.334 L 16.04 51.334 L 16.061 51.254 L 16.067 51.227 L 16.091 51.147 L 16.096 51.147 L 16.12 51.067 L 16.147 50.986 L 16.174 50.906 L 16.176 50.879 L 16.203 50.826 L 16.206 50.799 L 16.233 50.719 L 16.235 50.719 L 16.262 50.639 L 16.265 50.612 L 16.291 50.559 L 16.294 50.532 L 16.323 50.452 L 16.326 50.452 L 16.353 50.371 L 16.356 50.371 L 16.382 50.291 L 16.385 50.291 L 16.414 50.211 L 16.417 50.211 L 16.446 50.131 L 16.476 50.051 L 16.478 50.024 L 16.508 49.944 L 16.513 49.944 L 16.543 49.863 L 16.545 49.863 L 16.575 49.783 L 16.577 49.783 L 16.609 49.703 L 16.612 49.703 L 16.647 49.623 L 16.65 49.596 L 16.682 49.516 L 16.684 49.516 L 16.716 49.436 L 16.722 49.436 L 16.754 49.355 L 16.757 49.329 L 16.789 49.248 L 16.791 49.248 L 16.826 49.168 L 16.829 49.168 L 16.861 49.088 L 16.863 49.088 L 16.896 49.008 L 16.901 48.981 L 16.933 48.928 L 16.936 48.901 L 16.968 48.821 L 16.97 48.821 L 17.008 48.74 L 17.011 48.74 L 17.045 48.66 L 17.051 48.66 L 17.083 48.58 L 17.085 48.58 L 17.12 48.5 L 17.125 48.5 L 17.16 48.42 L 17.163 48.42 L 17.2 48.339 L 17.203 48.339 L 17.238 48.259 L 17.243 48.233 L 17.278 48.179 L 17.281 48.152 L 17.318 48.099 L 17.321 48.072 L 17.355 47.992 L 17.358 47.992 L 17.396 47.912 L 17.398 47.912 L 17.433 47.831 L 17.438 47.831 L 17.473 47.751 L 17.476 47.751 L 17.516 47.671 L 17.519 47.671 L 17.559 47.591 L 17.564 47.591 L 17.604 47.511 L 17.607 47.511 L 17.647 47.43 L 17.65 47.43 L 17.69 47.35 L 17.692 47.35 L 17.73 47.27 L 17.735 47.27 L 17.772 47.19 L 17.775 47.19 L 17.815 47.11 L 17.823 47.11 L 17.861 47.029 L 17.863 47.029 L 17.904 46.949 L 17.909 46.949 L 17.949 46.869 L 17.952 46.869 L 17.992 46.789 L 17.997 46.789 L 18.04 46.709 L 18.043 46.709 L 18.083 46.628 L 18.085 46.628 L 18.128 46.548 L 18.131 46.548 L 18.174 46.495 L 18.176 46.468 L 18.219 46.414 L 18.227 46.388 L 18.27 46.334 L 18.272 46.308 L 18.315 46.254 L 18.321 46.227 L 18.363 46.174 L 18.366 46.174 L 18.409 46.094 L 18.414 46.094 L 18.457 46.013 L 18.46 46.013 L 18.505 45.933 L 18.513 45.933 L 18.559 45.853 L 18.561 45.853 L 18.604 45.773 L 18.609 45.773 L 18.657 45.693 L 18.663 45.693 L 18.706 45.612 L 18.708 45.612 L 18.754 45.559 L 18.756 45.532 L 18.802 45.479 L 18.81 45.479 L 18.855 45.399 L 18.861 45.399 L 18.906 45.318 L 18.911 45.318 L 18.957 45.238 L 18.96 45.238 L 19.005 45.158 L 19.008 45.158 L 19.056 45.104 L 19.064 45.078 L 19.109 45.024 L 19.115 45.024 L 19.165 44.944 L 19.168 44.944 L 19.216 44.864 L 19.219 44.864 L 19.27 44.784 L 19.272 44.784 L 19.32 44.73 L 19.329 44.703 L 19.377 44.65 L 19.379 44.65 L 19.427 44.57 L 19.435 44.57 L 19.484 44.49 L 19.486 44.49 L 19.537 44.436 L 19.542 44.409 L 19.591 44.356 L 19.599 44.356 L 19.647 44.276 L 19.655 44.276 L 19.703 44.195 L 19.708 44.195 L 19.759 44.142 L 19.762 44.142 L 19.81 44.062 L 19.815 44.062 L 19.869 43.982 L 19.874 43.982 L 19.927 43.928 L 19.933 43.901 L 19.986 43.848 L 19.992 43.848 L 20.045 43.768 L 20.05 43.768 L 20.104 43.714 L 20.109 43.687 L 20.163 43.634 L 20.165 43.634 L 20.216 43.554 L 20.224 43.554 L 20.275 43.474 L 20.283 43.474 L 20.334 43.42 L 20.342 43.42 L 20.393 43.34 L 20.401 43.34 L 20.451 43.286 L 20.459 43.26 L 20.513 43.206 L 20.521 43.206 L 20.572 43.126 L 20.58 43.126 L 20.631 43.073 L 20.639 43.073 L 20.689 42.992 L 20.697 42.992 L 20.751 42.912 L 20.754 42.912 L 20.81 42.859 L 20.818 42.859 L 20.871 42.778 L 20.879 42.778 L 20.935 42.725 L 20.941 42.725 L 20.997 42.645 L 20.999 42.645 L 21.056 42.591 L 21.061 42.565 L 21.117 42.511 L 21.122 42.511 L 21.179 42.431 L 21.181 42.431 L 21.237 42.377 L 21.243 42.377 L 21.302 42.297 L 21.304 42.297 L 21.363 42.244 L 21.371 42.244 L 21.433 42.164 L 21.438 42.164 L 21.497 42.11 L 21.505 42.11 L 21.564 42.03 L 21.569 42.03 L 21.628 41.976 L 21.636 41.976 L 21.695 41.896 L 21.7 41.896 L 21.759 41.843 L 21.764 41.843 L 21.826 41.762 L 21.834 41.762 L 21.892 41.709 L 21.898 41.709 L 21.957 41.656 L 21.965 41.629 L 22.023 41.575 L 22.029 41.575 L 22.088 41.522 L 22.093 41.522 L 22.152 41.442 L 22.16 41.442 L 22.219 41.388 L 22.224 41.388 L 22.283 41.308 L 22.291 41.308 L 22.352 41.254 L 22.358 41.254 L 22.419 41.201 L 22.427 41.201 L 22.489 41.121 L 22.494 41.121 L 22.556 41.067 L 22.564 41.067 L 22.625 41.014 L 22.633 41.014 L 22.695 40.934 L 22.7 40.934 L 22.761 40.88 L 22.769 40.88 L 22.831 40.827 L 22.836 40.827 L 22.898 40.773 L 22.906 40.773 L 22.97 40.693 L 22.978 40.693 L 23.042 40.64 L 23.05 40.64 L 23.114 40.586 L 23.12 40.559 L 23.186 40.533 L 23.192 40.506 L 23.259 40.452 L 23.264 40.452 L 23.326 40.399 L 23.334 40.399 L 23.398 40.345 L 23.403 40.345 L 23.47 40.292 L 23.475 40.292 L 23.542 40.239 L 23.547 40.212 L 23.612 40.185 L 23.62 40.158 L 23.684 40.105 L 23.692 40.105 L 23.759 40.051 L 23.767 40.051 L 23.831 39.998 L 23.839 39.998 L 23.906 39.944 L 23.914 39.918 L 23.981 39.891 L 23.989 39.864 L 24.053 39.811 L 24.058 39.811 L 24.128 39.757 L 24.133 39.757 L 24.2 39.704 L 24.205 39.704 L 24.275 39.65 L 24.28 39.65 L 24.349 39.597 L 24.355 39.597 L 24.424 39.543 L 24.43 39.543 L 24.499 39.49 L 24.51 39.49 L 24.577 39.436 L 24.585 39.436 L 24.652 39.383 L 24.66 39.383 L 24.726 39.33 L 24.734 39.303 L 24.804 39.276 L 24.812 39.249 L 24.882 39.223 L 24.89 39.223 L 24.959 39.169 L 24.964 39.142 L 25.034 39.116 L 25.039 39.116 L 25.111 39.062 L 25.119 39.062 L 25.186 39.009 L 25.194 39.009 L 25.264 38.955 L 25.272 38.955 L 25.339 38.902 L 25.349 38.902 L 25.422 38.848 L 25.427 38.848 L 25.499 38.795 L 25.507 38.795 L 25.577 38.741 L 25.587 38.741 L 25.66 38.688 L 25.665 38.688 L 25.737 38.634 L 25.745 38.634 L 25.815 38.581 L 25.823 38.581 L 25.895 38.554 L 25.9 38.527 L 25.972 38.501 L 25.983 38.474 L 26.053 38.447 L 26.058 38.447 L 58.809 18.235 L 58.812 18.235 L 58.881 18.208 L 58.887 18.182 L 58.959 18.155 L 58.97 18.128 L 59.042 18.101 L 59.05 18.101 L 59.122 18.048 L 59.133 18.048 L 59.205 17.994 L 59.213 17.994 L 59.288 17.968 L 59.296 17.941 L 59.368 17.914 L 59.376 17.914 L 59.448 17.861 L 59.453 17.861 L 59.528 17.807 L 59.536 17.807 L 59.611 17.781 L 59.617 17.754 L 59.689 17.727 L 59.699 17.727 L 59.774 17.674 L 59.78 17.674 L 59.852 17.647 L 59.863 17.62 L 59.935 17.593 L 59.943 17.593 L 60.015 17.54 L 60.023 17.54 L 60.098 17.513 L 60.103 17.486 L 60.175 17.46 L 60.183 17.46 L 60.256 17.406 L 60.266 17.406 L 60.341 17.379 L 60.352 17.379 L 60.427 17.326 L 60.432 17.326 L 60.507 17.299 L 60.518 17.299 L 60.592 17.246 L 60.6 17.246 L 60.673 17.219 L 60.683 17.219 L 60.758 17.166 L 60.764 17.166 L 60.838 17.139 L 60.849 17.139 L 60.924 17.085 L 60.935 17.085 L 61.01 17.059 L 61.02 17.059 L 61.095 17.005 L 61.103 17.005 L 61.178 16.978 L 61.189 16.978 L 61.264 16.952 L 61.269 16.952 L 61.344 16.898 L 61.352 16.898 L 61.427 16.872 L 61.437 16.872 L 61.512 16.818 L 61.52 16.818 L 61.595 16.791 L 61.606 16.791 L 61.681 16.765 L 61.691 16.765 L 61.766 16.738 L 61.774 16.711 L 61.849 16.684 L 61.86 16.684 L 61.935 16.658 L 61.945 16.658 L 62.02 16.631 L 62.028 16.631 L 62.108 16.577 L 62.116 16.577 L 62.197 16.551 L 62.205 16.551 L 62.279 16.524 L 62.287 16.497 L 62.365 16.47 L 62.376 16.47 L 62.451 16.444 L 62.456 16.444 L 62.533 16.417 L 62.544 16.417 L 62.622 16.39 L 62.632 16.39 L 62.71 16.364 L 62.721 16.364 L 62.798 16.31 L 62.809 16.31 L 62.886 16.283 L 62.897 16.283 L 62.975 16.257 L 62.983 16.257 L 63.06 16.23 L 63.068 16.23 L 63.146 16.203 L 63.156 16.203 L 63.231 16.176 L 63.242 16.176 L 63.319 16.15 L 63.325 16.15 L 63.405 16.123 L 63.413 16.123 L 63.493 16.096 L 63.501 16.069 L 63.581 16.069 L 63.59 16.043 L 63.667 16.043 L 63.675 16.016 L 63.753 15.989 L 63.763 15.989 L 63.841 15.989 L 63.852 15.989 L 63.929 15.962 L 63.94 15.962 L 64.017 15.936 L 64.023 15.936 L 64.103 15.909 L 64.108 15.909 L 64.186 15.882 L 64.196 15.882 L 64.274 15.856 L 64.285 15.856 L 64.362 15.829 L 64.373 15.829 L 64.45 15.802 L 64.461 15.802 L 64.539 15.775 L 64.544 15.775 L 64.624 15.749 L 64.63 15.749 L 64.712 15.722 L 64.718 15.722 L 64.798 15.695 L 64.806 15.695 L 64.886 15.695 L 64.897 15.695 L 64.98 15.668 L 64.988 15.668 L 65.065 15.642 L 65.076 15.642 L 65.159 15.615 L 65.167 15.615 L 65.244 15.615 L 65.255 15.588 L 65.333 15.588 L 65.343 15.588 L 65.421 15.561 L 65.432 15.561 L 65.509 15.535 L 65.52 15.535 L 65.597 15.535 L 65.608 15.535 L 65.686 15.508 L 65.691 15.508 L 65.771 15.481 L 65.779 15.481 L 65.862 15.481 L 65.867 15.481 L 65.95 15.455 L 65.956 15.455 L 66.039 15.428 L 66.047 15.428 L 66.129 15.401 L 66.137 15.401 L 66.22 15.401 L 66.231 15.401 L 66.309 15.374 L 66.317 15.374 L 66.399 15.374 L 66.41 15.374 L 66.49 15.348 L 66.501 15.348 L 66.579 15.348 L 66.589 15.321 L 66.669 15.321 L 66.68 15.321 L 66.758 15.294 L 66.763 15.294 L 66.843 15.294 L 66.851 15.294 L 66.934 15.267 L 66.942 15.267 L 67.025 15.267 L 67.036 15.267 L 67.116 15.241 L 67.127 15.241 L 67.207 15.241 L 67.218 15.241 L 67.298 15.214 L 67.308 15.214 L 67.386 15.214 L 67.397 15.214 L 67.477 15.214 L 67.488 15.214 L 67.57 15.187 L 67.576 15.187 L 67.656 15.187 L 67.667 15.187 L 67.744 15.16 L 67.755 15.16 L 67.832 15.16 L 67.843 15.16 L 67.923 15.16 L 67.934 15.16 L 68.014 15.134 L 68.025 15.134 L 68.103 15.134 L 68.113 15.134 L 68.196 15.134 L 68.204 15.134 L 68.287 15.107 L 68.295 15.107 L 68.378 15.107 L 68.386 15.107 L 68.466 15.107 L 68.477 15.107 L 68.56 15.08 L 68.568 15.08 L 68.651 15.08 L 68.659 15.08 L 68.741 15.08 L 68.747 15.08 L 68.83 15.08 L 68.838 15.08 L 68.921 15.08 L 68.926 15.08 L 69.009 15.053 L 69.017 15.053 L 69.1 15.053 L 69.11 15.053 L 69.191 15.053 L 69.201 15.053 L 69.282 15.053 L 69.292 15.053 L 69.372 15.053 L 69.383 15.053 L 69.463 15.053 L 69.474 15.053 L 69.557 15.053 L 69.565 15.053 L 69.648 15.027 L 69.656 15.027 L 69.739 15.027 L 69.744 15.027 L 69.827 15.027 L 69.926 15.027 L 70.009 15.027 L 70.199 15.027 L 70.215 15 Z M 70.14 23.796 L 70.086 23.796 L 70.033 23.796 L 69.979 23.796 L 69.923 23.796 L 69.87 23.796 L 69.814 23.796 L 69.757 23.796 L 69.704 23.796 L 69.648 23.823 L 69.594 23.823 L 69.541 23.823 L 69.487 23.823 L 69.437 23.823 L 69.383 23.823 L 69.327 23.823 L 69.276 23.85 L 69.22 23.85 L 69.164 23.85 L 69.113 23.85 L 69.057 23.85 L 69.004 23.876 L 68.947 23.876 L 68.894 23.876 L 68.84 23.876 L 68.787 23.903 L 68.736 23.903 L 68.68 23.903 L 68.627 23.903 L 68.576 23.93 L 68.522 23.93 L 68.471 23.93 L 68.415 23.93 L 68.365 23.956 L 68.311 23.956 L 68.255 23.956 L 68.204 23.983 L 68.151 23.983 L 68.1 24.01 L 68.046 24.01 L 67.996 24.01 L 67.942 24.037 L 67.891 24.037 L 67.835 24.037 L 67.784 24.063 L 67.728 24.063 L 67.675 24.063 L 67.624 24.09 L 67.57 24.09 L 67.52 24.09 L 67.466 24.117 L 67.415 24.144 L 67.362 24.144 L 67.311 24.144 L 67.258 24.17 L 67.207 24.17 L 67.153 24.197 L 67.103 24.197 L 67.049 24.224 L 66.998 24.224 L 66.945 24.251 L 66.894 24.251 L 66.841 24.277 L 66.79 24.277 L 66.736 24.304 L 66.686 24.304 L 66.632 24.331 L 66.584 24.331 L 66.533 24.358 L 66.48 24.384 L 66.429 24.384 L 66.375 24.411 L 66.325 24.411 L 66.274 24.438 L 66.223 24.464 L 66.17 24.464 L 66.119 24.491 L 66.065 24.518 L 66.014 24.518 L 65.961 24.545 L 65.91 24.571 L 65.862 24.571 L 65.809 24.598 L 65.758 24.625 L 65.704 24.625 L 65.656 24.652 L 65.603 24.678 L 65.555 24.705 L 65.506 24.705 L 65.453 24.732 L 65.402 24.759 L 65.349 24.785 L 65.298 24.785 L 65.247 24.812 L 65.199 24.839 L 65.148 24.865 L 65.097 24.892 L 65.049 24.892 L 65.001 24.919 L 64.948 24.946 L 64.9 24.972 L 64.849 24.999 L 64.798 25.026 L 64.75 25.053 L 64.702 25.053 L 64.648 25.079 L 64.6 25.106 L 64.552 25.133 L 64.501 25.16 L 64.453 25.186 L 64.405 25.213 L 64.354 25.24 L 64.306 25.267 L 64.258 25.293 L 64.21 25.32 L 64.159 25.347 L 64.111 25.347 L 64.063 25.4 L 64.015 25.427 L 63.966 25.454 L 63.918 25.48 L 63.873 25.48 L 63.825 25.534 L 63.777 25.561 L 63.726 25.587 L 63.68 25.614 L 63.632 25.641 L 63.587 25.668 L 63.539 25.694 L 63.488 25.721 L 63.437 25.748 L 30.721 45.933 L 30.664 45.96 L 30.611 45.987 L 30.563 46.013 L 30.515 46.067 L 30.467 46.094 L 30.416 46.12 L 30.368 46.147 L 30.32 46.201 L 30.269 46.227 L 30.221 46.254 L 30.173 46.281 L 30.124 46.308 L 30.074 46.361 L 30.028 46.388 L 29.983 46.414 L 29.935 46.441 L 29.889 46.495 L 29.844 46.521 L 29.798 46.548 L 29.753 46.575 L 29.707 46.602 L 29.659 46.655 L 29.614 46.682 L 29.568 46.709 L 29.523 46.762 L 29.477 46.789 L 29.432 46.816 L 29.386 46.869 L 29.341 46.896 L 29.296 46.922 L 29.253 46.976 L 29.207 47.003 L 29.162 47.029 L 29.119 47.083 L 29.074 47.11 L 29.028 47.136 L 28.985 47.19 L 28.94 47.217 L 28.897 47.243 L 28.854 47.297 L 28.814 47.323 L 28.772 47.377 L 28.729 47.404 L 28.686 47.43 L 28.643 47.484 L 28.6 47.511 L 28.558 47.564 L 28.518 47.591 L 28.475 47.644 L 28.432 47.671 L 28.389 47.698 L 28.346 47.751 L 28.304 47.778 L 28.264 47.831 L 28.221 47.858 L 28.181 47.912 L 28.138 47.938 L 28.101 47.992 L 28.058 48.019 L 28.018 48.072 L 27.98 48.099 L 27.94 48.152 L 27.9 48.206 L 27.863 48.233 L 27.822 48.286 L 27.78 48.313 L 27.742 48.366 L 27.702 48.393 L 27.662 48.446 L 27.625 48.473 L 27.587 48.527 L 27.55 48.58 L 27.51 48.607 L 27.47 48.66 L 27.432 48.714 L 27.392 48.74 L 27.357 48.794 L 27.32 48.821 L 27.282 48.874 L 27.245 48.901 L 27.208 48.954 L 27.17 49.008 L 27.135 49.035 L 27.098 49.088 L 27.063 49.142 L 27.028 49.168 L 26.991 49.222 L 26.956 49.275 L 26.919 49.329 L 26.887 49.355 L 26.852 49.409 L 26.815 49.462 L 26.78 49.489 L 26.745 49.543 L 26.71 49.596 L 26.678 49.65 L 26.646 49.676 L 26.614 49.73 L 26.582 49.783 L 26.547 49.837 L 26.515 49.863 L 26.483 49.917 L 26.451 49.97 L 26.419 49.997 L 26.387 50.051 L 26.357 50.104 L 26.323 50.157 L 26.291 50.211 L 26.258 50.238 L 26.229 50.291 L 26.2 50.345 L 26.17 50.398 L 26.141 50.452 L 26.111 50.478 L 26.082 50.532 L 26.05 50.585 L 26.018 50.639 L 25.988 50.692 L 25.959 50.746 L 25.93 50.772 L 25.9 50.826 L 25.871 50.879 L 25.841 50.933 L 25.812 50.986 L 25.783 51.04 L 25.753 51.067 L 25.724 51.12 L 25.694 51.173 L 25.665 51.227 L 25.635 51.28 L 25.606 51.334 L 25.579 51.387 L 25.555 51.414 L 25.529 51.468 L 25.502 51.521 L 25.475 51.574 L 25.451 51.628 L 25.424 51.681 L 25.398 51.735 L 25.371 51.788 L 25.349 51.842 L 25.323 51.895 L 25.296 51.922 L 25.272 52.002 L 25.245 52.029 L 25.218 52.082 L 25.197 52.136 L 25.173 52.189 L 25.152 52.243 L 25.127 52.296 L 25.106 52.35 L 25.082 52.403 L 25.058 52.457 L 25.037 52.51 L 25.013 52.564 L 24.994 52.617 L 24.972 52.671 L 24.948 52.724 L 24.924 52.778 L 24.903 52.831 L 24.879 52.885 L 24.86 52.938 L 24.839 52.991 L 24.815 53.045 L 24.796 53.098 L 24.775 53.152 L 24.756 53.205 L 24.737 53.259 L 24.716 53.312 L 24.697 53.366 L 24.678 53.419 L 24.66 53.473 L 24.641 53.526 L 24.622 53.58 L 24.603 53.633 L 24.587 53.687 L 24.571 53.74 L 24.555 53.794 L 24.534 53.847 L 24.518 53.9 L 24.502 53.954 L 24.486 54.007 L 24.467 54.061 L 24.451 54.114 L 24.432 54.168 L 24.416 54.221 L 24.4 54.275 L 24.384 54.328 L 24.368 54.382 L 24.352 54.462 L 24.339 54.515 L 24.325 54.569 L 24.309 54.622 L 24.296 54.676 L 24.28 54.729 L 24.267 54.783 L 24.253 54.836 L 24.243 54.89 L 24.229 54.943 L 24.216 54.997 L 24.202 55.05 L 24.189 55.13 L 24.176 55.184 L 24.162 55.237 L 24.154 55.291 L 24.141 55.344 L 24.13 55.398 L 24.12 55.451 L 24.112 55.505 L 24.101 55.558 L 24.09 55.638 L 24.082 55.692 L 24.071 55.745 L 24.061 55.799 L 24.053 55.852 L 24.042 55.906 L 24.034 55.959 L 24.023 56.013 L 24.013 56.093 L 24.007 56.146 L 23.999 56.2 L 23.994 56.253 L 23.983 56.307 L 23.975 56.36 L 23.967 56.44 L 23.962 56.494 L 23.954 56.547 L 23.948 56.601 L 23.94 56.654 L 23.935 56.734 L 23.93 56.788 L 23.922 56.841 L 23.916 56.895 L 23.911 56.948 L 23.906 57.002 L 23.9 57.082 L 23.895 57.136 L 23.892 57.189 L 23.89 57.242 L 23.887 57.296 L 23.882 57.376 L 23.879 57.43 L 23.876 57.483 L 23.874 57.537 L 23.871 57.59 L 23.866 57.643 L 23.866 57.724 L 23.863 57.777 L 23.86 57.831 L 23.86 57.884 L 23.858 57.938 L 23.858 99.271 L 23.86 99.33 L 23.86 99.506 L 23.863 99.562 L 23.866 99.619 L 23.871 99.677 L 23.874 99.736 L 23.876 99.795 L 23.879 99.854 L 23.882 99.913 L 23.887 99.971 L 23.89 100.03 L 23.895 100.089 L 23.9 100.148 L 23.903 100.207 L 23.906 100.266 L 23.911 100.319 L 23.919 100.378 L 23.924 100.434 L 23.93 100.493 L 23.935 100.549 L 23.94 100.605 L 23.948 100.659 L 23.954 100.715 L 23.962 100.774 L 23.967 100.83 L 23.975 100.883 L 23.981 100.942 L 23.986 101.001 L 23.994 101.057 L 23.999 101.116 L 24.01 101.172 L 24.021 101.225 L 24.029 101.282 L 24.039 101.338 L 24.05 101.397 L 24.058 101.45 L 24.069 101.506 L 24.079 101.562 L 24.087 101.618 L 24.101 101.672 L 24.112 101.728 L 24.12 101.784 L 24.13 101.838 L 24.144 101.894 L 24.157 101.95 L 24.165 102.006 L 24.178 102.06 L 24.192 102.116 L 24.205 102.172 L 24.218 102.228 L 24.232 102.281 L 24.245 102.338 L 24.259 102.394 L 24.269 102.445 L 24.288 102.498 L 24.299 102.551 L 24.312 102.608 L 24.325 102.664 L 24.341 102.72 L 24.355 102.771 L 24.368 102.827 L 24.382 102.878 L 24.398 102.934 L 24.411 102.987 L 24.427 103.041 L 24.443 103.097 L 24.459 103.148 L 24.475 103.204 L 24.491 103.26 L 24.507 103.311 L 24.526 103.367 L 24.545 103.42 L 24.563 103.471 L 24.582 103.525 L 24.603 103.575 L 24.62 103.629 L 24.638 103.682 L 24.66 103.736 L 24.678 103.787 L 24.697 103.84 L 24.716 103.891 L 24.737 103.944 L 24.756 103.995 L 24.775 104.049 L 24.796 104.099 L 24.815 104.153 L 24.839 104.204 L 24.86 104.257 L 24.879 104.308 L 24.9 104.362 L 24.919 104.412 L 24.938 104.466 L 24.959 104.517 L 24.98 104.57 L 25.005 104.621 L 25.026 104.674 L 25.05 104.725 L 25.071 104.779 L 25.095 104.829 L 25.117 104.883 L 25.141 104.934 L 25.162 104.987 L 25.186 105.038 L 25.21 105.091 L 25.232 105.14 L 25.259 105.193 L 25.285 105.241 L 25.309 105.292 L 25.336 105.343 L 25.363 105.391 L 25.39 105.439 L 25.414 105.49 L 25.44 105.538 L 25.467 105.586 L 25.496 105.634 L 25.523 105.685 L 25.547 105.733 L 25.574 105.781 L 25.603 105.832 L 25.633 105.88 L 25.66 105.928 L 25.684 105.976 L 25.71 106.027 L 25.74 106.075 L 25.766 106.123 L 25.796 106.169 L 25.825 106.22 L 25.855 106.265 L 25.884 106.313 L 25.914 106.361 L 25.943 106.407 L 25.972 106.452 L 26.002 106.498 L 26.031 106.543 L 26.061 106.594 L 26.09 106.642 L 26.122 106.688 L 26.151 106.733 L 26.181 106.781 L 26.21 106.829 L 26.24 106.875 L 26.272 106.92 L 26.304 106.966 L 26.336 107.014 L 26.368 107.059 L 26.403 107.105 L 26.435 107.15 L 26.467 107.195 L 26.499 107.241 L 26.531 107.286 L 26.566 107.332 L 26.601 107.38 L 26.635 107.425 L 26.67 107.471 L 26.702 107.516 L 26.734 107.562 L 26.766 107.607 L 26.804 107.65 L 26.839 107.693 L 26.873 107.738 L 26.911 107.778 L 26.946 107.824 L 26.983 107.867 L 27.018 107.909 L 27.052 107.952 L 27.09 107.995 L 27.125 108.038 L 27.162 108.08 L 27.197 108.121 L 27.232 108.163 L 27.269 108.206 L 27.304 108.249 L 27.341 108.292 L 27.379 108.334 L 27.419 108.375 L 27.454 108.417 L 27.494 108.457 L 27.534 108.5 L 27.571 108.538 L 27.611 108.58 L 27.646 108.623 L 27.686 108.666 L 27.724 108.706 L 27.764 108.743 L 27.804 108.784 L 27.841 108.821 L 27.881 108.864 L 27.921 108.904 L 27.959 108.944 L 27.999 108.981 L 28.036 109.022 L 28.076 109.059 L 28.119 109.099 L 28.159 109.139 L 28.197 109.177 L 28.24 109.217 L 28.28 109.257 L 28.317 109.294 L 28.36 109.334 L 28.403 109.369 L 28.445 109.407 L 28.488 109.444 L 28.531 109.484 L 28.571 109.519 L 28.614 109.556 L 28.657 109.594 L 28.699 109.634 L 28.742 109.669 L 28.788 109.706 L 28.833 109.741 L 28.879 109.778 L 28.921 109.813 L 28.964 109.848 L 29.01 109.885 L 29.052 109.92 L 29.098 109.952 L 29.138 109.989 L 29.186 110.024 L 29.231 110.062 L 29.277 110.096 L 29.317 110.128 L 29.365 110.166 L 29.411 110.198 L 29.456 110.233 L 29.501 110.27 L 29.547 110.302 L 29.592 110.334 L 29.64 110.366 L 29.686 110.398 L 29.731 110.433 L 29.777 110.465 L 29.822 110.497 L 29.868 110.529 L 29.916 110.562 L 29.964 110.596 L 30.012 110.623 L 30.06 110.658 L 30.106 110.69 L 30.156 110.722 L 30.205 110.754 L 30.25 110.783 L 30.298 110.813 L 30.349 110.842 L 30.397 110.872 L 30.445 110.901 L 30.493 110.93 L 30.547 110.96 L 30.595 110.989 L 30.646 111.019 L 30.699 111.051 L 64.811 130.993 L 64.854 131.02 L 64.889 131.041 L 64.929 131.06 L 64.969 131.079 L 65.007 131.097 L 65.044 131.121 L 65.081 131.14 L 65.121 131.161 L 65.162 131.18 L 65.199 131.202 L 65.239 131.223 L 65.277 131.242 L 65.317 131.26 L 65.357 131.282 L 65.394 131.3 L 65.434 131.319 L 65.474 131.341 L 65.512 131.359 L 65.549 131.378 L 65.587 131.399 L 65.627 131.418 L 65.664 131.434 L 65.704 131.453 L 65.744 131.469 L 65.782 131.488 L 65.822 131.504 L 65.862 131.522 L 65.899 131.541 L 65.94 131.557 L 65.977 131.578 L 66.017 131.595 L 66.057 131.611 L 66.095 131.627 L 66.135 131.643 L 66.175 131.659 L 66.212 131.675 L 66.252 131.691 L 66.29 131.707 L 66.33 131.723 L 66.37 131.736 L 66.413 131.752 L 66.45 131.771 L 66.49 131.787 L 66.528 131.803 L 66.568 131.819 L 66.608 131.832 L 66.645 131.849 L 66.686 131.862 L 66.726 131.875 L 66.766 131.886 L 66.806 131.899 L 66.841 131.913 L 66.926 131.939 L 67.009 131.966 L 67.089 131.988 L 67.172 132.012 L 67.252 132.033 L 67.335 132.057 L 67.415 132.078 L 67.496 132.102 L 67.578 132.124 L 67.659 132.145 L 67.742 132.164 L 67.822 132.183 L 67.905 132.199 L 67.985 132.22 L 68.068 132.236 L 68.148 132.252 L 68.231 132.268 L 68.311 132.282 L 68.394 132.298 L 68.474 132.311 L 68.557 132.324 L 68.64 132.338 L 68.723 132.351 L 68.806 132.359 L 68.891 132.37 L 68.977 132.378 L 69.06 132.386 L 69.143 132.391 L 69.228 132.399 L 69.308 132.405 L 69.394 132.413 L 69.479 132.418 L 69.56 132.426 L 69.64 132.429 L 69.723 132.431 L 69.808 132.434 L 70.225 132.434 L 70.308 132.431 L 70.394 132.431 L 70.479 132.429 L 70.562 132.426 L 70.648 132.418 L 70.733 132.413 L 70.816 132.407 L 70.902 132.402 L 70.987 132.397 L 71.073 132.389 L 71.153 132.383 L 71.239 132.373 L 71.321 132.362 L 71.404 132.354 L 71.49 132.343 L 71.57 132.33 L 71.656 132.316 L 71.736 132.303 L 71.821 132.292 L 71.902 132.279 L 71.985 132.263 L 72.065 132.25 L 72.15 132.234 L 72.231 132.217 L 72.313 132.196 L 72.394 132.18 L 72.476 132.161 L 72.557 132.14 L 72.64 132.121 L 72.72 132.102 L 72.803 132.078 L 72.883 132.057 L 72.966 132.033 L 73.046 132.012 L 73.131 131.985 L 73.169 131.971 L 73.209 131.958 L 73.249 131.945 L 73.292 131.931 L 73.329 131.921 L 73.372 131.907 L 73.412 131.894 L 73.45 131.881 L 73.492 131.867 L 73.533 131.854 L 73.57 131.84 L 73.613 131.824 L 73.653 131.811 L 73.696 131.8 L 73.733 131.782 L 73.773 131.771 L 73.813 131.758 L 73.851 131.744 L 73.893 131.728 L 73.934 131.715 L 73.971 131.699 L 74.011 131.683 L 74.051 131.667 L 74.089 131.648 L 74.129 131.632 L 74.166 131.616 L 74.206 131.6 L 74.246 131.584 L 74.284 131.568 L 74.324 131.552 L 74.364 131.533 L 74.401 131.512 L 74.442 131.496 L 74.479 131.477 L 74.519 131.458 L 74.559 131.439 L 74.597 131.421 L 74.637 131.402 L 74.677 131.383 L 74.712 131.362 L 74.752 131.343 L 74.789 131.324 L 74.829 131.303 L 74.867 131.284 L 74.907 131.266 L 74.947 131.244 L 74.984 131.226 L 75.024 131.207 L 75.059 131.185 L 75.099 131.167 L 75.139 131.148 L 75.179 131.124 L 112.97 110.064 L 113.016 110.04 L 113.059 110.019 L 113.099 109.995 L 113.139 109.973 L 113.176 109.949 L 113.216 109.923 L 113.259 109.901 L 113.297 109.877 L 113.337 109.856 L 113.377 109.832 L 113.414 109.808 L 113.454 109.781 L 113.492 109.757 L 113.532 109.735 L 113.572 109.711 L 113.609 109.685 L 113.649 109.661 L 113.69 109.636 L 113.727 109.61 L 113.767 109.588 L 113.802 109.562 L 113.839 109.535 L 113.874 109.511 L 113.909 109.484 L 113.946 109.457 L 113.984 109.431 L 114.021 109.407 L 114.059 109.38 L 114.096 109.353 L 114.131 109.326 L 114.168 109.302 L 114.203 109.276 L 114.24 109.249 L 114.278 109.222 L 114.315 109.193 L 114.35 109.169 L 114.385 109.139 L 114.422 109.112 L 114.457 109.083 L 114.494 109.054 L 114.529 109.024 L 114.564 108.997 L 114.601 108.973 L 114.636 108.944 L 114.668 108.915 L 114.706 108.885 L 114.74 108.856 L 114.772 108.829 L 114.81 108.8 L 114.845 108.768 L 114.877 108.738 L 114.914 108.709 L 114.946 108.679 L 114.978 108.65 L 115.01 108.618 L 115.048 108.588 L 115.08 108.556 L 115.112 108.527 L 115.144 108.492 L 115.179 108.46 L 115.211 108.431 L 115.243 108.399 L 115.275 108.369 L 115.307 108.337 L 115.342 108.305 L 115.374 108.27 L 115.406 108.238 L 115.435 108.206 L 115.468 108.174 L 115.497 108.142 L 115.529 108.11 L 115.561 108.075 L 115.596 108.043 L 115.625 108.011 L 115.655 107.979 L 115.681 107.947 L 115.711 107.912 L 115.746 107.88 L 115.775 107.848 L 115.804 107.816 L 115.834 107.784 L 115.863 107.749 L 115.89 107.717 L 115.919 107.685 L 115.949 107.653 L 115.978 107.615 L 116.008 107.58 L 116.037 107.546 L 116.066 107.511 L 116.096 107.479 L 116.125 107.447 L 116.155 107.412 L 116.184 107.38 L 116.213 107.343 L 116.24 107.31 L 116.267 107.276 L 116.291 107.238 L 116.318 107.206 L 116.347 107.171 L 116.374 107.134 L 116.401 107.099 L 116.425 107.062 L 116.451 107.027 L 116.478 106.99 L 116.505 106.955 L 116.529 106.92 L 116.556 106.883 L 116.582 106.848 L 116.609 106.81 L 116.633 106.776 L 116.66 106.741 L 116.684 106.704 L 116.705 106.666 L 116.732 106.626 L 116.759 106.591 L 116.78 106.554 L 116.804 106.519 L 116.831 106.479 L 116.855 106.444 L 116.879 106.407 L 116.901 106.369 L 116.925 106.329 L 116.946 106.289 L 116.97 106.252 L 116.991 106.214 L 117.016 106.177 L 117.04 106.137 L 117.061 106.102 L 117.085 106.062 L 117.106 106.022 L 117.13 105.984 L 117.149 105.944 L 117.168 105.907 L 117.192 105.867 L 117.213 105.827 L 117.235 105.789 L 117.256 105.749 L 117.28 105.709 L 117.299 105.672 L 117.318 105.631 L 117.339 105.589 L 117.358 105.551 L 117.379 105.511 L 117.403 105.471 L 117.422 105.434 L 117.443 105.394 L 117.462 105.356 L 117.481 105.313 L 117.502 105.273 L 117.521 105.236 L 117.54 105.193 L 117.561 105.153 L 117.58 105.113 L 117.598 105.073 L 117.617 105.03 L 117.638 104.987 L 117.657 104.947 L 117.673 104.91 L 117.689 104.867 L 117.705 104.824 L 117.721 104.781 L 117.74 104.741 L 117.756 104.701 L 117.772 104.658 L 117.788 104.615 L 117.804 104.575 L 117.82 104.533 L 117.836 104.493 L 117.852 104.45 L 117.868 104.407 L 117.884 104.364 L 117.898 104.321 L 117.911 104.279 L 117.925 104.239 L 117.938 104.196 L 117.954 104.153 L 117.97 104.11 L 117.986 104.067 L 118.002 104.025 L 118.015 103.982 L 118.031 103.942 L 118.045 103.899 L 118.058 103.856 L 118.074 103.813 L 118.088 103.771 L 118.101 103.728 L 118.114 103.688 L 118.128 103.645 L 118.136 103.602 L 118.149 103.559 L 118.162 103.517 L 118.176 103.474 L 118.189 103.431 L 118.197 103.391 L 118.208 103.346 L 118.221 103.303 L 118.232 103.26 L 118.24 103.215 L 118.253 103.172 L 118.264 103.129 L 118.272 103.086 L 118.283 103.043 L 118.293 102.998 L 118.302 102.958 L 118.312 102.915 L 118.32 102.87 L 118.328 102.824 L 118.339 102.781 L 118.344 102.736 L 118.355 102.693 L 118.366 102.648 L 118.374 102.602 L 118.384 102.56 L 118.395 102.514 L 118.4 102.469 L 118.411 102.423 L 118.416 102.38 L 118.427 102.338 L 118.433 102.292 L 118.441 102.247 L 118.446 102.201 L 118.451 102.156 L 118.459 102.11 L 118.465 102.065 L 118.473 102.019 L 118.475 101.971 L 118.481 101.931 L 118.486 101.886 L 118.491 101.838 L 118.499 101.798 L 118.505 101.752 L 118.507 101.707 L 118.51 101.659 L 118.515 101.613 L 118.518 101.568 L 118.523 101.522 L 118.529 101.477 L 118.531 101.431 L 118.534 101.386 L 118.537 101.34 L 118.539 101.295 L 118.545 101.249 L 118.547 101.204 L 118.55 101.159 L 118.553 101.113 L 118.558 101.068 L 118.561 101.022 L 118.561 100.929 L 118.564 100.883 L 118.564 55.772 L 118.561 55.745 L 118.558 55.692 L 118.558 55.638 L 118.553 55.612 L 118.553 55.558 L 118.55 55.531 L 118.55 55.478 L 118.547 55.424 L 118.545 55.398 L 118.539 55.344 L 118.537 55.317 L 118.534 55.264 L 118.531 55.237 L 118.529 55.184 L 118.523 55.157 L 118.521 55.104 L 118.515 55.077 L 118.51 55.023 L 118.507 54.997 L 118.502 54.943 L 118.499 54.916 L 118.491 54.863 L 118.489 54.836 L 118.481 54.783 L 118.475 54.756 L 118.473 54.703 L 118.47 54.676 L 118.462 54.622 L 118.449 54.542 L 118.441 54.462 L 118.427 54.382 L 118.414 54.302 L 118.398 54.221 L 118.382 54.141 L 118.368 54.061 L 118.352 53.954 L 118.331 53.874 L 118.312 53.794 L 118.293 53.713 L 118.272 53.633 L 118.253 53.553 L 118.235 53.473 L 118.216 53.393 L 118.192 53.312 L 118.168 53.232 L 118.146 53.152 L 118.12 53.072 L 118.098 52.991 L 118.072 52.911 L 118.045 52.831 L 118.018 52.751 L 117.994 52.671 L 117.965 52.59 L 117.935 52.51 L 117.906 52.457 L 117.876 52.377 L 117.847 52.296 L 117.818 52.216 L 117.786 52.136 L 117.756 52.056 L 117.721 51.976 L 117.689 51.922 L 117.657 51.842 L 117.622 51.762 L 117.59 51.681 L 117.553 51.601 L 117.518 51.548 L 117.481 51.468 L 117.443 51.387 L 117.406 51.307 L 117.368 51.254 L 117.328 51.173 L 117.288 51.093 L 117.251 51.04 L 117.211 50.96 L 117.171 50.879 L 117.13 50.799 L 117.088 50.746 L 117.045 50.665 L 116.999 50.585 L 116.957 50.532 L 116.914 50.452 L 116.868 50.398 L 116.823 50.318 L 116.778 50.264 L 116.732 50.184 L 116.687 50.131 L 116.641 50.051 L 116.593 49.997 L 116.542 49.917 L 116.494 49.863 L 116.446 49.783 L 116.395 49.73 L 116.344 49.65 L 116.291 49.596 L 116.24 49.516 L 116.187 49.462 L 116.136 49.409 L 116.08 49.329 L 116.029 49.275 L 115.973 49.222 L 115.917 49.142 L 115.863 49.088 L 115.807 49.035 L 115.751 48.954 L 115.692 48.901 L 115.633 48.847 L 115.574 48.794 L 115.516 48.74 L 115.457 48.66 L 115.395 48.607 L 115.334 48.553 L 115.272 48.5 L 115.211 48.446 L 115.149 48.393 L 115.085 48.339 L 115.024 48.286 L 114.96 48.233 L 114.895 48.179 L 114.829 48.126 L 114.767 48.072 L 114.698 48.019 L 114.668 47.992 L 114.636 47.965 L 114.604 47.938 L 114.572 47.912 L 114.54 47.885 L 114.505 47.858 L 114.473 47.831 L 114.441 47.805 L 114.406 47.778 L 114.369 47.751 L 114.337 47.725 L 114.305 47.698 L 114.272 47.671 L 114.24 47.644 L 114.206 47.618 L 114.171 47.618 L 114.139 47.591 L 114.107 47.564 L 114.069 47.537 L 114.034 47.511 L 113.997 47.484 L 113.965 47.457 L 113.93 47.43 L 113.893 47.43 L 113.858 47.404 L 113.823 47.377 L 113.786 47.35 L 113.751 47.323 L 113.714 47.297 L 113.679 47.27 L 113.641 47.27 L 113.607 47.243 L 113.572 47.217 L 113.529 47.19 L 76.655 25.561 L 76.602 25.534 L 76.554 25.507 L 76.506 25.48 L 76.457 25.454 L 76.409 25.427 L 76.361 25.4 L 76.313 25.373 L 76.265 25.347 L 76.214 25.32 L 76.166 25.293 L 76.118 25.267 L 76.07 25.24 L 76.022 25.213 L 75.971 25.186 L 75.923 25.16 L 75.875 25.133 L 75.824 25.106 L 75.776 25.079 L 75.728 25.053 L 75.677 25.026 L 75.629 25.026 L 75.58 24.972 L 75.53 24.972 L 75.479 24.946 L 75.431 24.919 L 75.38 24.892 L 75.332 24.865 L 75.284 24.839 L 75.233 24.839 L 75.182 24.812 L 75.134 24.785 L 75.083 24.759 L 75.035 24.759 L 74.982 24.732 L 74.931 24.705 L 74.88 24.678 L 74.829 24.652 L 74.776 24.652 L 74.725 24.625 L 74.674 24.598 L 74.623 24.571 L 74.573 24.571 L 74.519 24.545 L 74.471 24.518 L 74.423 24.518 L 74.372 24.491 L 74.321 24.464 L 74.268 24.464 L 74.22 24.438 L 74.169 24.411 L 74.115 24.411 L 74.067 24.384 L 74.014 24.384 L 73.963 24.358 L 73.91 24.331 L 73.861 24.331 L 73.811 24.304 L 73.757 24.304 L 73.706 24.277 L 73.653 24.251 L 73.602 24.251 L 73.549 24.224 L 73.498 24.224 L 73.444 24.197 L 73.394 24.197 L 73.34 24.17 L 73.289 24.17 L 73.236 24.144 L 73.185 24.144 L 73.131 24.117 L 73.081 24.117 L 73.027 24.09 L 72.976 24.09 L 72.923 24.09 L 72.872 24.063 L 72.819 24.063 L 72.768 24.037 L 72.714 24.037 L 72.664 24.01 L 72.61 24.01 L 72.559 24.01 L 72.506 23.983 L 72.455 23.983 L 72.402 23.983 L 72.345 23.956 L 72.295 23.956 L 72.241 23.956 L 72.19 23.93 L 72.137 23.93 L 72.086 23.93 L 72.033 23.93 L 71.982 23.903 L 71.926 23.903 L 71.875 23.903 L 71.821 23.876 L 71.771 23.876 L 71.717 23.876 L 71.666 23.876 L 71.613 23.85 L 71.562 23.85 L 71.506 23.85 L 71.452 23.85 L 71.402 23.85 L 71.348 23.823 L 71.297 23.823 L 71.244 23.823 L 71.193 23.823 L 71.14 23.823 L 71.089 23.823 L 71.033 23.796 L 70.977 23.796 L 70.926 23.796 L 70.872 23.796 L 70.822 23.796 L 70.768 23.796 L 70.717 23.796 L 70.661 23.796 L 70.61 23.796 L 70.557 23.796 L 70.509 23.769 L 70.455 23.769 L 70.348 23.769 L 70.298 23.769 L 70.193 23.769 L 70.14 23.796 Z" style="stroke-width: 1;"/>
    <path fill="#fff" fill-rule="nonzero" d="M 45.279 111.805 L 45.279 44.278 L 59.406 44.278 L 59.406 68.875 L 82.84 68.875 L 82.84 44.278 L 97.01 44.278 L 97.01 111.805 L 82.84 111.805 L 82.84 82.28 L 59.406 82.28 L 59.406 111.805 L 45.279 111.805 Z" style="stroke-width: 1;"/>
  </g>
</svg>