<?xml version="1.0" encoding="utf-8"?>
<svg height="100%" style="fill-rule:evenodd;clip-rule:evenodd;stroke-linecap:round;stroke-linejoin:round;" width="100%" version="1.1" viewBox="0 0 150 150" xmlns="http://www.w3.org/2000/svg" xmlns:bx="https://boxy-svg.com">
  <defs>
    <bx:grid x="0" y="0" width="15" height="15"/>
  </defs>
  <rect width="120" height="120" style="fill: none; stroke-width: 0.2px; stroke: rgb(84, 84, 84); pointer-events: none; visibility: hidden;" x="15" y="15" bx:origin="0.5 0.5"/>
  <g style="" transform="matrix(1.737008, 0, 0, 1.737008, -70.628075, 3.94485)">
    <path fill="#2C2255" d="M 71.395 48.058 L 62.906 48.058 C 64.03 51.914 66.116 55.369 69.169 58.423 C 74.037 63.291 79.89 65.722 86.735 65.722 C 88.103 65.722 89.429 65.62 90.716 65.426 C 95.872 64.648 100.386 62.317 104.253 58.423 C 107.326 55.37 109.427 51.914 110.559 48.058 L 107.114 48.058 L 102.077 48.058 L 71.395 48.058 Z" style=""/>
    <g transform="matrix(0.506944, 0, 0, 0.506944, 20.130808, -151.138184)" style="">
      <path fill="#2C2255" d="M91.891,370.194h-8.747c-0.32,1.922-0.538,3.884-0.637,5.896h10.396h5.215h75.275h6.871 c-0.1-2.012-0.318-3.974-0.641-5.896"/>
      <path fill="#2C2255" d="M82.507,381.565c0.099,2.013,0.316,3.975,0.637,5.896h9.094h6.893h73.648h6.846 c0.322-1.921,0.542-3.883,0.642-5.896"/>
    </g>
    <path fill="#2C2255" d="M 110.56 33.753 C 109.429 29.887 107.328 26.416 104.253 23.341 C 100.396 19.484 95.895 17.169 90.756 16.391 C 89.456 16.193 88.117 16.09 86.735 16.09 C 79.89 16.09 74.036 18.508 69.169 23.341 C 66.115 26.416 64.028 29.887 62.905 33.753" style=""/>
    <g transform="matrix(0.506944, 0, 0, 0.506944, 20.130808, -151.138184)" style="">
      <path fill="#F7941E" d="M79.6,378.829c0-25.824,19.395-47.281,44.626-51.055c-0.626-0.023-1.255-0.049-1.887-0.049 c-28.314,0-51.269,22.881-51.269,51.104c0,28.224,22.954,51.103,51.269,51.103c0.634,0,1.263-0.023,1.891-0.047 C98.995,426.111,79.6,404.654,79.6,378.829z"/>
    </g>
    <g transform="matrix(0.506944, 0, 0, 0.506944, 20.130808, -151.138184)" style="">
      <linearGradient id="SVGID_1_" gradientUnits="userSpaceOnUse" x1="502.3848" y1="-40.0757" x2="502.3848" y2="-113.7106" gradientTransform="matrix(1 0 0 1 -371 474.5)">
        <stop offset="0.3033" style="stop-color:#473788"/>
        <stop offset="0.872" style="stop-color:#2C2255"/>
      </linearGradient>
      <path fill="url(#SVGID_1_)" d="M164.653,376.089c-0.164-2.021-0.504-3.992-1.012-5.896h-64.51 c-0.508,1.902-0.849,3.874-1.013,5.896H164.653z"/>
      <linearGradient id="SVGID_2_" gradientUnits="userSpaceOnUse" x1="502.3857" y1="-40.0747" x2="502.3857" y2="-113.7096" gradientTransform="matrix(1 0 0 1 -371 474.5)">
        <stop offset="0.3033" style="stop-color:#473788"/>
        <stop offset="0.872" style="stop-color:#2C2255"/>
      </linearGradient>
      <path fill="url(#SVGID_2_)" d="M164.653,381.565H98.119c0.164,2.021,0.503,3.991,1.012,5.896h64.511 C164.15,385.557,164.489,383.586,164.653,381.565z"/>
      <linearGradient id="SVGID_3_" gradientUnits="userSpaceOnUse" x1="502.3857" y1="-40.0776" x2="502.3857" y2="-113.7071" gradientTransform="matrix(1 0 0 1 -371 474.5)">
        <stop offset="0.3033" style="stop-color:#473788"/>
        <stop offset="0.8631" style="stop-color:#2C2255"/>
      </linearGradient>
      <path fill="url(#SVGID_3_)" d="M131.386,412.217c13.397,0,24.945-7.893,30.263-19.281h-60.526 C106.441,404.324,117.989,412.217,131.386,412.217z"/>
    </g>
    <g transform="matrix(0.506944, 0, 0, 0.506944, 20.130808, -151.138184)" style="">
      <path fill="#FFFFFF" d="M93.188,381.565h4.884h66.706h8.763h6.657c0.046-0.871,0.072-1.748,0.072-2.632 c0-0.955-0.035-1.901-0.089-2.845h-6.641h-8.763H98.071h-5.229H82.507c-0.054,0.942-0.089,1.89-0.089,2.845 c0,0.884,0.026,1.761,0.072,2.632H93.188z"/>
      <path fill="#FFFFFF" d="M100.928,364.718H84.376c-0.544,1.783-0.895,3.612-1.232,5.477h8.525h7.259h64.679h9.16h6.547 c-0.338-1.863-0.773-3.692-1.316-5.477"/>
      <path fill="#FFFFFF" d="M173.026,387.46h-9.16H99.188h-6.912h-9.133c0.328,1.863,0.701,3.691,1.236,5.476h16.807h60.682h9.962 h6.488c0.534-1.783,0.965-3.611,1.294-5.476H173.026z"/>
    </g>
  </g>
</svg>