<?xml version="1.0" encoding="utf-8"?>
<svg height="100%" style="fill-rule:evenodd;clip-rule:evenodd;stroke-linecap:round;stroke-linejoin:round;" width="100%" version="1.1" viewBox="0 0 150 150" xmlns="http://www.w3.org/2000/svg" xmlns:bx="https://boxy-svg.com">
  <defs>
    <bx:grid x="0" y="0" width="15" height="15"/>
    <radialGradient gradientUnits="userSpaceOnUse" cx="259.793" cy="292.739" r="228.876" id="gradient-0" gradientTransform="matrix(0.902503, -0.004852, 0.004937, 0.918154, 23.920311, 20.03079)">
      <stop offset="0" style="stop-color: rgb(5, 148, 210);"/>
      <stop offset="1" style="stop-color: rgb(85, 193, 241);"/>
    </radialGradient>
  </defs>
  <rect width="120" height="120" style="fill: none; stroke-width: 0.2px; stroke: rgb(84, 84, 84); pointer-events: none; visibility: hidden;" x="15" y="15" bx:origin="0.5 0.5"/>
  <g transform="matrix(1, 0, 0, 1, 0.538373, -1.186095)">
    <g transform="matrix(0.047668, 0, 0, 0.054854, -16.003677, 9.066907)" style="">
      <path class="st0" d="M 2963.169 1287.63 L 1895.669 632.13 L 839.069 1287.63 C 839.069 1288.83 838.769 1290.73 838.169 1293.13 C 837.569 1295.63 837.269 1297.33 837.269 1298.63 L 837.269 2185.33 C 837.269 2217.33 848.969 2245.13 872.369 2268.43 C 895.769 2291.83 923.469 2303.53 955.469 2303.53 L 2846.669 2303.43 C 2878.669 2303.43 2906.369 2291.73 2929.769 2268.23 C 2953.169 2244.93 2964.869 2217.13 2964.869 2185.13 L 2964.869 1298.73 C 2965.069 1293.83 2964.369 1290.13 2963.169 1287.63 Z" style="stroke: rgb(52, 68, 0); fill: none; stroke-width: 20.9784px;"/>
      <path class="st1" d="M 3131.471 1130.908 L 2611.182 824.975 L 2624.622 491.814 C 2624.622 477.414 2619.122 466.514 2608.322 459.214 C 2597.422 448.414 2584.722 442.914 2570.222 443.014 L 2523.971 439.708 C 2509.471 439.708 2496.771 445.208 2485.971 456.108 C 2475.171 463.408 2469.671 474.308 2469.671 488.708 L 2470.071 753.608 L 2016.171 478.208 C 1979.871 449.308 1940.071 434.808 1896.571 434.908 C 1853.071 435.008 1813.171 449.508 1777.071 478.508 L 664.171 1134.108 C 653.271 1137.708 647.871 1148.608 647.871 1166.708 C 647.871 1184.908 651.471 1197.508 658.771 1204.708 L 681.455 1228.245 C 692.355 1239.045 703.255 1244.545 714.055 1244.545 C 732.155 1244.545 744.755 1240.945 752.055 1233.645 L 1896.892 539.575 L 3042.595 1236.776 C 3049.795 1244.076 3060.695 1247.576 3075.195 1247.576 L 3080.595 1247.576 C 3091.495 1247.576 3102.295 1242.076 3113.195 1231.276 L 3136.971 1201.508 C 3144.171 1194.308 3147.771 1181.608 3147.771 1163.408 C 3147.771 1145.408 3142.371 1134.508 3131.471 1130.908 Z" style="stroke-width: 20.9784px; stroke: rgb(0, 0, 0); fill: none;"/>
      <path style="stroke: rgb(0, 0, 0); fill: none; stroke-width: 10.4732px;" d="M 2525.459 380.276 C 2428.371 275.62 2547.78 268.384 2568.989 215.303 C 2587.178 169.793 2508.844 86.763 2508.844 76.411"/>
      <path style="stroke: rgb(0, 0, 0); fill: none; stroke-width: 10.4732px;" d="M 2604.487 367.096 C 2556.488 290.465 2615.543 285.153 2626.011 246.294 C 2635.011 212.977 2596.284 152.179 2596.284 144.587"/>
    </g>
    <g transform="matrix(0.122041, 0, 0, 0.122041, 42.751797, 68.192665)" style="">
      <rect x="30.953" y="32.714" width="457.753" height="457.753" style="fill: url(#gradient-0);" rx="29.051" ry="29.051"/>
      <path fill-rule="evenodd" clip-rule="evenodd" d="M 248.747 96.066 C 255.018 89.72 265.261 89.634 271.637 95.872 C 271.694 95.927 271.749 95.983 271.805 96.038 L 351.994 176.789 L 351.994 173.408 C 351.994 166.426 357.676 160.814 364.626 160.814 L 394.373 160.814 C 401.323 160.814 407.004 166.426 407.004 173.408 L 407.004 232.468 L 443.587 269.78 C 449.022 275.324 448.909 284.212 443.338 289.619 C 440.71 292.168 437.19 293.59 433.532 293.59 L 407.004 293.59 L 407.004 410.123 C 407.004 417.106 401.323 422.719 394.373 422.719 L 126.16 422.719 C 119.212 422.719 113.529 417.106 113.529 410.123 L 113.529 293.59 L 87.125 293.59 C 79.387 293.59 73.066 287.342 73.066 279.575 C 73.066 275.891 74.522 272.358 77.11 269.739 L 248.747 96.066 Z" style="fill: rgb(255, 255, 255);"/>
      <path d="M 308.781 266.656 C 309.638 264.865 310.117 262.856 310.117 260.738 C 310.117 253.155 303.972 247.01 296.391 247.01 C 288.81 247.01 282.665 253.155 282.665 260.738 C 282.665 268.319 288.81 274.465 296.391 274.465 C 298.511 274.465 300.517 273.985 302.309 273.127 L 322.015 292.834 L 322.015 311.921 L 297.306 336.63 L 297.306 318.526 C 302.637 316.642 306.458 311.557 306.458 305.579 C 306.458 297.999 300.311 291.853 292.731 291.853 C 285.15 291.853 279.005 297.999 279.005 305.579 C 279.005 311.557 282.823 316.642 288.154 318.526 L 288.154 345.782 L 265.278 368.661 L 265.278 234.263 L 284.067 215.472 C 285.859 216.33 287.865 216.811 289.986 216.811 C 297.566 216.811 303.712 210.665 303.712 203.083 C 303.712 195.502 297.566 189.356 289.986 189.356 C 282.405 189.356 276.26 195.502 276.26 203.083 C 276.26 205.203 276.739 207.21 277.596 209.003 L 260.702 225.897 L 243.808 209.003 C 244.666 207.21 245.146 205.203 245.146 203.083 C 245.146 195.502 238.999 189.356 231.419 189.356 C 223.839 189.356 217.693 195.502 217.693 203.083 C 217.693 210.665 223.839 216.811 231.419 216.811 C 233.539 216.811 235.544 216.33 237.338 215.472 L 256.127 234.263 L 256.127 330.224 L 223.183 297.278 L 223.183 270.938 C 228.515 269.054 232.334 263.97 232.334 257.993 C 232.334 250.411 226.188 244.265 218.608 244.265 C 211.027 244.265 204.882 250.411 204.882 257.993 C 204.882 263.97 208.702 269.054 214.032 270.938 L 214.032 288.128 L 188.409 262.504 L 188.409 237.078 C 193.741 235.194 197.56 230.108 197.56 224.132 C 197.56 216.55 191.415 210.404 183.834 210.404 C 176.252 210.404 170.107 216.55 170.107 224.132 C 170.107 230.108 173.927 235.194 179.258 237.078 L 179.258 266.294 L 207.562 294.598 L 191.289 294.598 C 189.404 289.266 184.32 285.448 178.342 285.448 C 170.762 285.448 164.616 291.593 164.616 299.174 C 164.616 306.756 170.762 312.901 178.342 312.901 C 184.32 312.901 189.404 309.082 191.289 303.75 L 216.712 303.75 L 256.127 343.166 L 256.127 411.673 L 235.08 390.624 L 235.08 364.283 C 240.41 362.399 244.23 357.314 244.23 351.337 C 244.23 343.757 238.086 337.61 230.503 337.61 C 222.923 337.61 216.778 343.757 216.778 351.337 C 216.778 357.314 220.597 362.399 225.928 364.283 L 225.928 381.473 L 195.307 350.85 C 196.165 349.057 196.645 347.051 196.645 344.931 C 196.645 337.35 190.5 331.205 182.919 331.205 C 175.337 331.205 169.192 337.35 169.192 344.931 C 169.192 352.512 175.337 358.658 182.919 358.658 C 185.037 358.658 187.045 358.178 188.836 357.322 L 219.457 387.944 L 203.185 387.944 C 201.3 382.612 196.217 378.792 190.24 378.792 C 182.659 378.792 176.513 384.938 176.513 392.52 C 176.513 400.1 182.659 406.246 190.24 406.246 C 196.217 406.246 201.3 402.427 203.185 397.094 L 228.609 397.094 L 254.232 422.719 L 267.173 422.719 L 293.711 396.18 L 318.219 396.18 C 320.104 401.512 325.188 405.33 331.165 405.33 C 338.747 405.33 344.891 399.185 344.891 391.603 C 344.891 384.023 338.747 377.877 331.165 377.877 C 325.188 377.877 320.104 381.697 318.219 387.028 L 289.92 387.028 L 265.278 411.673 L 265.278 381.603 L 294.627 352.252 L 342.012 352.252 C 343.897 357.584 348.981 361.404 354.957 361.404 C 362.538 361.404 368.684 355.258 368.684 347.677 C 368.684 340.096 362.538 333.951 354.957 333.951 C 348.981 333.951 343.897 337.769 342.012 343.1 L 303.777 343.1 L 331.165 315.711 L 331.165 292.834 L 350.869 273.127 C 352.662 273.985 354.669 274.465 356.788 274.465 C 364.368 274.465 370.514 268.319 370.514 260.738 C 370.514 253.155 364.368 247.01 356.788 247.01 C 349.207 247.01 343.061 253.155 343.061 260.738 C 343.061 262.856 343.542 264.865 344.4 266.656 L 331.165 279.891 L 331.165 237.994 C 336.495 236.108 340.317 231.024 340.317 225.048 C 340.317 217.467 334.171 211.321 326.589 211.321 C 319.009 211.321 312.863 217.467 312.863 225.048 C 312.863 231.024 316.683 236.108 322.015 237.994 L 322.015 279.891 L 308.781 266.656 Z M 190.24 398.01 C 187.208 398.01 184.748 395.551 184.748 392.52 C 184.748 389.487 187.208 387.028 190.24 387.028 C 193.271 387.028 195.73 389.487 195.73 392.52 C 195.73 395.551 193.271 398.01 190.24 398.01 Z M 230.503 356.828 C 227.472 356.828 225.013 354.371 225.013 351.337 C 225.013 348.305 227.472 345.846 230.503 345.846 C 233.536 345.846 235.993 348.305 235.993 351.337 C 235.993 354.371 233.536 356.828 230.503 356.828 Z M 182.919 350.423 C 179.887 350.423 177.429 347.965 177.429 344.931 C 177.429 341.898 179.887 339.442 182.919 339.442 C 185.951 339.442 188.409 341.898 188.409 344.931 C 188.409 347.965 185.951 350.423 182.919 350.423 Z M 178.342 304.665 C 175.311 304.665 172.852 302.207 172.852 299.174 C 172.852 296.142 175.311 293.683 178.342 293.683 C 181.377 293.683 183.834 296.142 183.834 299.174 C 183.834 302.207 181.377 304.665 178.342 304.665 Z M 292.731 311.071 C 289.698 311.071 287.24 308.613 287.24 305.579 C 287.24 302.548 289.698 300.089 292.731 300.089 C 295.763 300.089 298.221 302.548 298.221 305.579 C 298.221 308.613 295.763 311.071 292.731 311.071 Z M 354.957 353.168 C 351.925 353.168 349.467 350.71 349.467 347.677 C 349.467 344.644 351.925 342.186 354.957 342.186 C 357.991 342.186 360.448 344.644 360.448 347.677 C 360.448 350.71 357.991 353.168 354.957 353.168 Z M 331.165 397.094 C 328.132 397.094 325.675 394.638 325.675 391.603 C 325.675 388.571 328.132 386.113 331.165 386.113 C 334.197 386.113 336.656 388.571 336.656 391.603 C 336.656 394.638 334.197 397.094 331.165 397.094 Z M 356.788 266.229 C 353.755 266.229 351.297 263.77 351.297 260.738 C 351.297 257.706 353.755 255.248 356.788 255.248 C 359.82 255.248 362.278 257.706 362.278 260.738 C 362.278 263.77 359.82 266.229 356.788 266.229 Z M 326.589 230.538 C 323.558 230.538 321.098 228.079 321.098 225.048 C 321.098 222.015 323.558 219.556 326.589 219.556 C 329.622 219.556 332.08 222.015 332.08 225.048 C 332.08 228.079 329.622 230.538 326.589 230.538 Z M 289.986 208.575 C 286.953 208.575 284.496 206.116 284.496 203.083 C 284.496 200.052 286.953 197.592 289.986 197.592 C 293.018 197.592 295.476 200.052 295.476 203.083 C 295.476 206.116 293.018 208.575 289.986 208.575 Z M 231.419 208.575 C 228.387 208.575 225.928 206.116 225.928 203.083 C 225.928 200.052 228.387 197.592 231.419 197.592 C 234.452 197.592 236.909 200.052 236.909 203.083 C 236.909 206.116 234.452 208.575 231.419 208.575 Z M 183.834 229.623 C 180.801 229.623 178.342 227.164 178.342 224.132 C 178.342 221.1 180.801 218.641 183.834 218.641 C 186.866 218.641 189.324 221.1 189.324 224.132 C 189.324 227.164 186.866 229.623 183.834 229.623 Z M 218.608 263.483 C 215.575 263.483 213.117 261.025 213.117 257.993 C 213.117 254.96 215.575 252.501 218.608 252.501 C 221.64 252.501 224.098 254.96 224.098 257.993 C 224.098 261.025 221.64 263.483 218.608 263.483 Z M 296.391 266.229 C 293.359 266.229 290.9 263.77 290.9 260.738 C 290.9 257.706 293.359 255.248 296.391 255.248 C 299.424 255.248 301.881 257.706 301.881 260.738 C 301.881 263.77 299.424 266.229 296.391 266.229 Z" style="fill: rgb(75, 191, 243);"/>
    </g>
  </g>
</svg>