<?xml version="1.0" encoding="utf-8"?>
<svg height="100%" style="fill-rule:evenodd;clip-rule:evenodd;stroke-linecap:round;stroke-linejoin:round;" width="100%" version="1.1" viewBox="0 0 150 150" xmlns="http://www.w3.org/2000/svg" xmlns:bx="https://boxy-svg.com">
  <defs>
    <bx:grid x="0" y="0" width="15" height="15"/>
  </defs>
  <rect width="120" height="120" style="fill: none; stroke-width: 0.2px; stroke: rgb(84, 84, 84); pointer-events: none; visibility: hidden;" x="15" y="15" bx:origin="0.5 0.5"/>
  <g transform="matrix(1.466123, 0, 0, 1.466123, 3.765463, 4.752164)" style="">
    <path d="M 61.338 49.637 L 50.31 60.665 C 49.276 61.699 47.898 61.699 47.208 60.665 L 36.18 49.637 C 35.146 48.603 35.146 47.225 36.18 46.535 L 47.208 35.507 C 48.242 34.473 49.621 34.473 50.31 35.507 L 61.338 46.535 C 62.372 47.225 62.372 48.603 61.338 49.637 Z" fill="#fa7e00" style=""/>
    <path d="M 14.469 38.954 L 11.367 42.055 L 10.678 42.745 L 8.955 44.468 C 7.232 46.191 7.232 48.948 8.955 50.671 L 10.678 52.394 L 11.367 53.083 L 30.322 72.038 L 31.356 72.038 L 31.356 56.185 L 24.118 48.948 C 23.084 47.914 23.084 46.535 24.118 45.846 L 31.356 38.954 Z M 39.627 82.032 L 42.728 85.134 L 43.418 85.823 L 45.141 87.546 C 46.864 89.269 49.621 89.269 51.344 87.546 L 53.067 85.823 L 53.756 85.134 L 72.711 66.179 L 72.711 65.145 L 56.858 65.145 L 49.621 72.383 C 48.587 73.417 47.208 73.417 46.519 72.383 L 39.627 65.145 Z M 82.705 56.874 L 85.807 53.773 L 86.496 53.083 L 88.219 51.36 C 89.942 49.637 89.942 46.88 88.219 45.157 L 86.496 43.434 L 85.807 42.745 L 66.852 23.79 L 65.818 23.79 L 65.818 39.643 L 73.056 46.88 C 74.09 47.914 74.09 49.293 73.056 49.982 L 65.818 56.874 L 65.818 57.219 L 82.705 57.219 Z M 57.547 13.796 L 54.446 10.694 L 53.756 10.005 L 52.033 8.282 C 50.31 6.559 47.553 6.559 45.83 8.282 L 44.107 10.005 L 43.418 10.694 L 23.774 29.649 L 23.774 30.683 L 39.627 30.683 L 46.864 23.445 C 47.898 22.411 49.276 22.411 49.966 23.445 L 57.547 30.683 L 57.892 30.683 L 57.892 13.796 Z" fill="#00bcfb" style=""/>
  </g>
</svg>