<?xml version="1.0" encoding="utf-8"?>
<svg height="100%" style="fill-rule:evenodd;clip-rule:evenodd;stroke-linecap:round;stroke-linejoin:round;" width="100%" version="1.1" viewBox="0 0 150 150" xmlns="http://www.w3.org/2000/svg" xmlns:bx="https://boxy-svg.com">
  <defs>
    <bx:grid x="0" y="0" width="15" height="15"/>
  </defs>
  <rect width="120" height="120" style="fill: none; stroke-width: 0.2px; stroke: rgb(84, 84, 84); pointer-events: none; visibility: hidden;" x="15" y="15"/>
  <ellipse style="fill: rgb(255, 255, 255); stroke: rgb(255, 255, 255);" cx="75" cy="75" rx="75" ry="75"/>
  <g style="" transform="matrix(0.226535, 0, 0, 0.226535, 23.901003, 22.557064)">
    <path d="m463,23.5c0-12.958-10.542-23.5-23.5-23.5h-192c-6.177,0-11.801,2.399-16,6.31-4.199-3.911-9.823-6.31-16-6.31h-192c-12.958,0-23.5,10.542-23.5,23.5v192c0,6.177 2.399,11.801 6.31,16-3.911,4.199-6.31,9.823-6.31,16v192c0,12.958 10.542,23.5 23.5,23.5h192c6.177,0 11.801-2.399 16-6.31 4.199,3.911 9.823,6.31 16,6.31h192c12.958,0 23.5-10.542 23.5-23.5v-192c0-6.177-2.399-11.801-6.31-16 3.911-4.199 6.31-9.823 6.31-16v-192zm-215.5-8.5h192c4.687,0 8.5,3.813 8.5,8.5v192c0,4.687-3.813,8.5-8.5,8.5h-65.062c-4.102,0-7.438-3.337-7.438-7.438v-3.725c0-2.442 1.378-4.811 3.781-6.498 15.196-10.674 22.668-28.758 19.5-47.195-3.244-18.881-17.961-34.186-36.624-38.084-14.323-2.992-28.94,0.495-40.098,9.563-11.159,9.069-17.559,22.511-17.559,36.877 0,15.565 7.665,30.158 20.504,39.037 2.222,1.536 3.496,3.812 3.496,6.244v3.78c0,4.102-3.337,7.438-7.438,7.438h-73.562v-73.562c0-12.372-10.065-22.437-22.438-22.437h-3.78c-7.32,0-14.267,3.725-18.582,9.964-6.078,8.789-16.059,14.036-26.7,14.036-9.83,0-19.028-4.381-25.237-12.021-6.299-7.75-8.614-17.542-6.52-27.571 2.608-12.489 13.275-22.731 25.94-24.906 12.668-2.179 25.073,2.937 32.379,13.339 4.536,6.456 11.378,10.159 18.774,10.159h3.726c12.373,0 22.438-10.065 22.438-22.438v-65.062c0-4.687 3.813-8.5 8.5-8.5zm-232.5,8.5c0-4.687 3.813-8.5 8.5-8.5h192c4.687,0 8.5,3.813 8.5,8.5v65.062c0,4.102-3.336,7.438-7.438,7.438h-3.726c-2.442,0-4.811-1.378-6.498-3.78-10.673-15.196-28.753-22.673-47.194-19.501-18.882,3.242-34.187,17.96-38.085,36.623-2.992,14.325 0.494,28.94 9.563,40.099 9.07,11.159 22.511,17.559 36.878,17.559 15.565,0 30.159-7.665 39.037-20.504 1.537-2.222 3.813-3.496 6.245-3.496h3.78c4.102,0 7.438,3.337 7.438,7.438v73.562h-73.562c-12.373,0-22.438,10.065-22.438,22.438v3.78c0,7.321 3.725,14.268 9.964,18.582 8.789,6.078 14.036,16.059 14.036,26.7 0,9.83-4.381,19.029-12.021,25.237-7.75,6.298-17.541,8.615-27.572,6.519-12.488-2.607-22.73-13.274-24.906-25.94-2.175-12.665 2.936-25.072 13.339-32.379 6.456-4.535 10.159-11.378 10.159-18.773v-3.725c0.001-12.374-10.064-22.439-22.437-22.439h-65.062c-4.687,0-8.5-3.813-8.5-8.5v-192zm200.5,424.5h-192c-4.687,0-8.5-3.813-8.5-8.5v-192c0-4.687 3.813-8.5 8.5-8.5h65.062c4.102,0 7.438,3.337 7.438,7.438v3.725c0,2.442-1.378,4.811-3.781,6.498-15.196,10.674-22.668,28.757-19.501,47.193 3.244,18.883 17.962,34.188 36.623,38.085 3.364,0.702 6.742,1.048 10.089,1.048 10.908,0 21.471-3.67 30.009-10.609 11.161-9.069 17.561-22.511 17.561-36.878 0-15.565-7.666-30.159-20.505-39.037-2.221-1.536-3.495-3.812-3.495-6.244v-3.78c0-4.102 3.336-7.438 7.438-7.438h73.562v73.562c0,12.372 10.066,22.437 22.438,22.437h3.725c7.396,0 14.239-3.703 18.773-10.16 7.308-10.403 19.714-15.513 32.38-13.338 12.666,2.176 23.333,12.418 25.94,24.907 2.095,10.029-0.221,19.821-6.52,27.571-6.208,7.639-15.406,12.02-25.236,12.02-10.641,0-20.622-5.247-26.7-14.037-4.315-6.238-11.261-9.963-18.582-9.963h-3.78c-12.372,0-22.438,10.065-22.438,22.438v65.062c0,4.687-3.813,8.5-8.5,8.5zm232.5-8.5c0,4.687-3.813,8.5-8.5,8.5h-192c-4.687,0-8.5-3.813-8.5-8.5v-65.062c0-4.102 3.337-7.438 7.438-7.438h3.78c2.432,0 4.708,1.274 6.244,3.495 8.879,12.84 23.473,20.505 39.038,20.505 14.366,0 27.808-6.4 36.877-17.56 9.069-11.157 12.554-25.772 9.563-40.098-3.897-18.662-19.201-33.38-38.083-36.624-18.439-3.176-36.521,4.304-47.195,19.5-1.688,2.403-4.056,3.781-6.499,3.781h-3.725c-4.102,0-7.438-3.337-7.438-7.438v-73.561h73.562c12.372,0 22.438-10.065 22.438-22.438v-3.78c0-7.321-3.725-14.268-9.964-18.582-8.789-6.078-14.036-16.059-14.036-26.7 0-9.83 4.381-19.028 12.02-25.236 7.75-6.3 17.543-8.614 27.571-6.521 12.489,2.608 22.731,13.275 24.907,25.94 2.176,12.665-2.935,25.073-13.339,32.38-6.456,4.536-10.159,11.378-10.159,18.774v3.725c0,12.373 10.066,22.438 22.438,22.438h65.062c4.687,0 8.5,3.813 8.5,8.5v192z"/>
  </g>
</svg>