<?xml version="1.0" encoding="utf-8"?>
<svg height="100%" style="fill-rule:evenodd;clip-rule:evenodd;stroke-linecap:round;stroke-linejoin:round;" width="100%" version="1.1" viewBox="0 0 150 150" xmlns="http://www.w3.org/2000/svg" xmlns:bx="https://boxy-svg.com">
  <defs>
    <bx:grid x="0" y="0" width="15" height="15"/>
  </defs>
  <rect width="120" height="120" style="fill: none; stroke-width: 0.2px; stroke: rgb(84, 84, 84); pointer-events: none; visibility: hidden;" x="15" y="15"/>
  <g transform="matrix(0.948946, 0, 0, 0.948946, 35.00829, -176.691088)" style="">
    <g transform="matrix(0.23418, 0, 0, 0.23418, -78.94111, 146.167025)" style="">
      <path style="opacity:1" fill="#fafafb" d="M 458.5,238.5 C 494.168,238.333 529.835,238.5 565.5,239C 575.434,239.8 584.434,243.133 592.5,249C 602.31,259.142 612.476,268.975 623,278.5C 627.389,283.889 631.389,289.556 635,295.5C 635.972,313.872 636.972,332.205 638,350.5C 660.643,358.47 676.976,373.47 687,395.5C 692.694,417.524 690.194,438.524 679.5,458.5C 704.534,503.577 693.2,535.411 645.5,554C 637.693,556.619 629.693,558.285 621.5,559C 607.833,559.333 594.167,559.667 580.5,560C 577.044,560.18 573.711,560.847 570.5,562C 569.978,562.561 569.645,563.228 569.5,564C 573.86,571.368 579.36,577.868 586,583.5C 592.292,596.17 589.125,605.67 576.5,612C 573.402,612.918 570.235,613.418 567,613.5C 559.75,612.417 552.583,610.917 545.5,609C 519.727,608.119 494.06,606.119 468.5,603C 463.777,601.804 459.443,599.804 455.5,597C 450.48,592.978 445.814,588.644 441.5,584C 427.149,578.773 413.149,572.773 399.5,566C 382.001,551.824 373.501,533.324 374,510.5C 366.989,503.154 360.323,495.488 354,487.5C 337.421,462.887 337.588,438.387 354.5,414C 340.215,392.636 340.049,371.136 354,349.5C 365.28,336.533 379.28,328.533 396,325.5C 395.207,302.517 395.54,279.517 397,256.5C 397.887,246.46 403.387,240.96 413.5,240C 428.672,239.831 443.672,239.331 458.5,238.5 Z"/>
    </g>
    <g transform="matrix(0.23418, 0, 0, 0.23418, -78.94111, 146.167025)" style="">
      <path style="opacity:1" fill="#fefefd" d="M 571.5,286.5 C 573.059,296.392 578.725,302.392 588.5,304.5C 597.986,305.494 607.652,305.827 617.5,305.5C 617.5,345.5 617.5,385.5 617.5,425.5C 620.228,426.205 623.061,426.872 626,427.5C 627.785,426.646 628.951,427.313 629.5,429.5C 626.338,430.863 623.004,431.697 619.5,432C 601.614,432.854 583.948,431.187 566.5,427C 529.24,417.685 491.907,408.685 454.5,400C 437.318,396.715 419.985,395.215 402.5,395.5C 402.598,394.118 402.598,392.618 402.5,391C 406.688,390.824 410.688,390.324 414.5,389.5C 414.5,368.833 414.5,348.167 414.5,327.5C 415.497,305.006 415.831,282.339 415.5,259.5C 467.167,259.5 518.833,259.5 570.5,259.5C 570.173,268.682 570.507,277.682 571.5,286.5 Z"/>
    </g>
    <g transform="matrix(0.23418, 0, 0, 0.23418, -78.94111, 146.167025)" style="">
      <path style="opacity:1" fill="#8e8e8e" d="M 588.5,304.5 C 598.5,304.5 608.5,304.5 618.5,304.5C 618.5,344.833 618.5,385.167 618.5,425.5C 618.167,425.5 617.833,425.5 617.5,425.5C 617.5,385.5 617.5,345.5 617.5,305.5C 607.652,305.827 597.986,305.494 588.5,304.5 Z"/>
    </g>
    <g transform="matrix(0.23418, 0, 0, 0.23418, -78.94111, 146.167025)" style="">
      <path style="opacity:1" fill="#4c4c4b" d="M 618.5,425.5 C 618.5,385.167 618.5,344.833 618.5,304.5C 608.5,304.5 598.5,304.5 588.5,304.5C 578.725,302.392 573.059,296.392 571.5,286.5C 571.5,277.167 571.5,267.833 571.5,258.5C 519.167,258.5 466.833,258.5 414.5,258.5C 414.5,281.5 414.5,304.5 414.5,327.5C 414.5,348.167 414.5,368.833 414.5,389.5C 410.5,389.5 406.5,389.5 402.5,389.5C 402.333,342.499 402.5,295.499 403,248.5C 403.5,248 404,247.5 404.5,247C 463.5,246.333 522.5,246.333 581.5,247C 597.667,263.167 613.833,279.333 630,295.5C 630.667,337.833 630.667,380.167 630,422.5C 626.413,424.417 622.58,425.417 618.5,425.5 Z"/>
    </g>
    <g transform="matrix(0.23418, 0, 0, 0.23418, -78.94111, 146.167025)" style="">
      <path style="opacity:1" fill="#4a4948" d="M 590.5,321.5 C 590.5,323.5 590.5,325.5 590.5,327.5C 540.833,327.5 491.167,327.5 441.5,327.5C 441.5,325.5 441.5,323.5 441.5,321.5C 491.167,321.5 540.833,321.5 590.5,321.5 Z"/>
    </g>
    <g transform="matrix(0.23418, 0, 0, 0.23418, -78.94111, 146.167025)" style="">
      <path style="opacity:1" fill="#a5a5a4" d="M 441.5,297.5 C 441.5,297.833 441.5,298.167 441.5,298.5C 441.5,300.5 441.5,302.5 441.5,304.5C 478.167,304.5 514.833,304.5 551.5,304.5C 551.833,304.5 552.167,304.5 552.5,304.5C 515.337,305.498 478.004,305.832 440.5,305.5C 440.194,302.615 440.527,299.948 441.5,297.5 Z"/>
    </g>
    <g transform="matrix(0.23418, 0, 0, 0.23418, -78.94111, 146.167025)" style="">
      <path style="opacity:1" fill="#474746" d="M 441.5,298.5 C 478.167,298.5 514.833,298.5 551.5,298.5C 551.5,300.5 551.5,302.5 551.5,304.5C 514.833,304.5 478.167,304.5 441.5,304.5C 441.5,302.5 441.5,300.5 441.5,298.5 Z"/>
    </g>
    <g transform="matrix(0.23418, 0, 0, 0.23418, -78.94111, 146.167025)" style="">
      <path style="opacity:1" fill="#6d6d6d" d="M 441.5,298.5 C 441.5,298.167 441.5,297.833 441.5,297.5C 478.5,297.5 515.5,297.5 552.5,297.5C 552.5,299.833 552.5,302.167 552.5,304.5C 552.167,304.5 551.833,304.5 551.5,304.5C 551.5,302.5 551.5,300.5 551.5,298.5C 514.833,298.5 478.167,298.5 441.5,298.5 Z"/>
    </g>
    <g transform="matrix(0.23418, 0, 0, 0.23418, -78.94111, 146.167025)" style="">
      <path style="opacity:1" fill="#f8f8f7" d="M 583.5,266.5 C 592.298,274.798 600.965,283.298 609.5,292C 601.728,292.931 594.061,292.598 586.5,291C 585.299,290.097 584.465,288.931 584,287.5C 583.5,280.508 583.334,273.508 583.5,266.5 Z"/>
    </g>
    <g transform="matrix(0.23418, 0, 0, 0.23418, -78.94111, 146.167025)" style="">
      <path style="opacity:1" fill="#cbcbca" d="M 571.5,286.5 C 570.507,277.682 570.173,268.682 570.5,259.5C 518.833,259.5 467.167,259.5 415.5,259.5C 415.831,282.339 415.497,305.006 414.5,327.5C 414.5,304.5 414.5,281.5 414.5,258.5C 466.833,258.5 519.167,258.5 571.5,258.5C 571.5,267.833 571.5,277.167 571.5,286.5 Z"/>
    </g>
    <g transform="matrix(0.23418, 0, 0, 0.23418, -78.94111, 146.167025)" style="">
      <path style="opacity:1" fill="#9d9d9c" d="M 590.5,321.5 C 540.833,321.5 491.167,321.5 441.5,321.5C 441.5,323.5 441.5,325.5 441.5,327.5C 491.167,327.5 540.833,327.5 590.5,327.5C 540.669,328.499 490.669,328.832 440.5,328.5C 440.5,325.833 440.5,323.167 440.5,320.5C 490.669,320.168 540.669,320.501 590.5,321.5 Z"/>
    </g>
    <g transform="matrix(0.23418, 0, 0, 0.23418, -78.94111, 146.167025)" style="">
      <path style="opacity:1" fill="#4b4b4a" d="M 388.5,333.5 C 390.833,333.5 393.167,333.5 395.5,333.5C 395.788,349.522 395.455,365.522 394.5,381.5C 395.508,384.845 396.508,388.178 397.5,391.5C 394.482,391.335 391.482,391.502 388.5,392C 377.733,395.301 368.233,400.801 360,408.5C 357.495,405.495 355.495,402.161 354,398.5C 346.533,366.793 358.033,345.126 388.5,333.5 Z"/>
    </g>
    <g transform="matrix(0.23418, 0, 0, 0.23418, -78.94111, 146.167025)" style="">
      <path style="opacity:1" fill="#9f9e9e" d="M 440.5,343.5 C 490.833,343.5 541.167,343.5 591.5,343.5C 591.5,346.167 591.5,348.833 591.5,351.5C 541.167,351.5 490.833,351.5 440.5,351.5C 440.5,348.833 440.5,346.167 440.5,343.5 Z"/>
    </g>
    <g transform="matrix(0.23418, 0, 0, 0.23418, -78.94111, 146.167025)" style="">
      <path style="opacity:1" fill="#474746" d="M 441.5,344.5 C 491.167,344.5 540.833,344.5 590.5,344.5C 590.5,346.5 590.5,348.5 590.5,350.5C 540.833,350.5 491.167,350.5 441.5,350.5C 441.5,348.5 441.5,346.5 441.5,344.5 Z"/>
    </g>
    <g transform="matrix(0.23418, 0, 0, 0.23418, -78.94111, 146.167025)" style="">
      <path style="opacity:1" fill="#989897" d="M 638.5,358.5 C 637.503,375.325 637.17,392.325 637.5,409.5C 636.173,392.329 636.173,374.995 637.5,357.5C 638.107,357.624 638.44,357.957 638.5,358.5 Z"/>
    </g>
    <g transform="matrix(0.23418, 0, 0, 0.23418, -78.94111, 146.167025)" style="">
      <path style="opacity:1" fill="#a8a8a7" d="M 440.5,366.5 C 490.833,366.5 541.167,366.5 591.5,366.5C 591.5,369.167 591.5,371.833 591.5,374.5C 541.167,374.5 490.833,374.5 440.5,374.5C 440.5,371.833 440.5,369.167 440.5,366.5 Z"/>
    </g>
    <g transform="matrix(0.23418, 0, 0, 0.23418, -78.94111, 146.167025)" style="">
      <path style="opacity:1" fill="#474746" d="M 441.5,367.5 C 491.167,367.5 540.833,367.5 590.5,367.5C 590.5,369.5 590.5,371.5 590.5,373.5C 540.833,373.5 491.167,373.5 441.5,373.5C 441.5,371.5 441.5,369.5 441.5,367.5 Z"/>
    </g>
    <g transform="matrix(0.23418, 0, 0, 0.23418, -78.94111, 146.167025)" style="">
      <path style="opacity:1" fill="#4a4a49" d="M 638.5,358.5 C 661.109,367.276 675.943,383.276 683,406.5C 685.206,447.139 666.04,470.139 625.5,475.5C 612.408,475.957 599.408,475.123 586.5,473C 583.607,472.499 581.107,471.333 579,469.5C 577.111,470.097 575.278,470.431 573.5,470.5C 567.204,469.631 560.871,468.964 554.5,468.5C 521.501,462.083 488.834,454.416 456.5,445.5C 454.485,444.076 452.152,443.41 449.5,443.5C 441.778,442.754 434.111,441.587 426.5,440C 418.089,439.095 409.755,439.428 401.5,441C 392.608,445.234 391.108,451.401 397,459.5C 397.667,460.5 397.667,461.5 397,462.5C 385.211,472.144 377.711,484.478 374.5,499.5C 369.438,495.441 365.105,490.774 361.5,485.5C 361.573,483.973 360.906,482.973 359.5,482.5C 358.662,482.158 358.328,481.492 358.5,480.5C 356.992,476.151 354.992,472.151 352.5,468.5C 352.5,468.167 352.5,467.833 352.5,467.5C 352.279,464.933 351.612,462.599 350.5,460.5C 348.501,423.544 365.834,401.877 402.5,395.5C 419.985,395.215 437.318,396.715 454.5,400C 491.907,408.685 529.24,417.685 566.5,427C 583.948,431.187 601.614,432.854 619.5,432C 623.004,431.697 626.338,430.863 629.5,429.5C 639.407,425.69 642.074,419.023 637.5,409.5C 637.17,392.325 637.503,375.325 638.5,358.5 Z"/>
    </g>
    <g transform="matrix(0.23418, 0, 0, 0.23418, -78.94111, 146.167025)" style="">
      <path style="opacity:1" fill="#5c7a9c" d="M 449.5,443.5 C 452.152,443.41 454.485,444.076 456.5,445.5C 453.848,445.59 451.515,444.924 449.5,443.5 Z"/>
    </g>
    <g transform="matrix(0.23418, 0, 0, 0.23418, -78.94111, 146.167025)" style="">
      <path style="opacity:1" fill="#4e4d4b" d="M 407.5,445.5 C 409.833,445.5 412.167,445.5 414.5,445.5C 414.808,447.924 414.474,450.257 413.5,452.5C 410.167,454.5 406.833,456.5 403.5,458.5C 402.341,454.878 402.175,451.211 403,447.5C 404.622,446.901 406.122,446.234 407.5,445.5 Z"/>
    </g>
    <g transform="matrix(0.23418, 0, 0, 0.23418, -78.94111, 146.167025)" style="">
      <path style="opacity:1" fill="#a0b6d3" d="M 350.5,460.5 C 351.612,462.599 352.279,464.933 352.5,467.5C 350.837,465.562 350.171,463.228 350.5,460.5 Z"/>
    </g>
    <g transform="matrix(0.23418, 0, 0, 0.23418, -78.94111, 146.167025)" style="">
      <path style="opacity:1" fill="#4c76a8" d="M 352.5,468.5 C 354.992,472.151 356.992,476.151 358.5,480.5C 355.465,477.098 353.465,473.098 352.5,468.5 Z"/>
    </g>
    <g transform="matrix(0.23418, 0, 0, 0.23418, -78.94111, 146.167025)" style="">
      <path style="opacity:1" fill="#4a4a4a" d="M 684.5,488.5 C 685.97,501.279 683.637,513.279 677.5,524.5C 673.5,529.167 669.167,533.5 664.5,537.5C 658.174,540.827 651.507,543.327 644.5,545C 634.506,545.5 624.506,545.666 614.5,545.5C 614.167,545.5 613.833,545.5 613.5,545.5C 611.162,543.96 608.495,543.294 605.5,543.5C 604.833,543.5 604.167,543.5 603.5,543.5C 602.653,542.034 601.32,541.2 599.5,541C 592.448,539.653 585.448,538.153 578.5,536.5C 577.292,535.766 575.959,535.433 574.5,535.5C 573.713,533.896 572.38,533.229 570.5,533.5C 563.048,531.125 555.715,528.792 548.5,526.5C 546.898,524.926 544.898,524.259 542.5,524.5C 537.915,521.86 532.915,520.194 527.5,519.5C 527.389,518.883 527.056,518.383 526.5,518C 520.555,515.851 514.555,514.017 508.5,512.5C 508.167,512.5 507.833,512.5 507.5,512.5C 500.363,508.675 492.697,506.008 484.5,504.5C 483.041,504.567 481.708,504.234 480.5,503.5C 477.619,501.32 474.286,500.32 470.5,500.5C 468.05,500.702 465.717,500.369 463.5,499.5C 461.562,497.837 459.228,497.171 456.5,497.5C 449.825,497.334 443.158,497.5 436.5,498C 423.446,503.697 420.946,512.53 429,524.5C 435.205,529.905 442.371,533.405 450.5,535C 440.968,546.307 438.302,559.14 442.5,573.5C 442.36,575.03 441.693,576.03 440.5,576.5C 435.784,574.225 430.784,572.392 425.5,571C 424,570.167 422.833,569 422,567.5C 420.989,568.337 419.822,568.67 418.5,568.5C 409.036,564.091 401.036,557.758 394.5,549.5C 394.262,547.596 393.262,546.262 391.5,545.5C 391.573,543.973 390.906,542.973 389.5,542.5C 372.746,509.864 379.412,483.031 409.5,462C 414.844,458.885 420.511,456.552 426.5,455C 444.283,452.582 461.95,453.248 479.5,457C 495.683,461.394 511.683,466.394 527.5,472C 556.837,484.001 586.837,494.001 617.5,502C 623.442,503.406 629.442,503.739 635.5,503C 641.158,501.171 642.992,497.337 641,491.5C 639.204,488.073 637.037,484.906 634.5,482C 648.176,478.495 660.509,472.329 671.5,463.5C 678.198,470.561 682.531,478.894 684.5,488.5 Z"/>
    </g>
    <g transform="matrix(0.23418, 0, 0, 0.23418, -78.94111, 146.167025)" style="">
      <path style="opacity:1" fill="#4e535c" d="M 554.5,468.5 C 560.871,468.964 567.204,469.631 573.5,470.5C 575.278,470.431 577.111,470.097 579,469.5C 581.107,471.333 583.607,472.499 586.5,473C 599.408,475.123 612.408,475.957 625.5,475.5C 601.422,477.632 577.755,475.299 554.5,468.5 Z"/>
    </g>
    <g transform="matrix(0.23418, 0, 0, 0.23418, -78.94111, 146.167025)" style="">
      <path style="opacity:1" fill="#4c78ab" d="M 359.5,482.5 C 360.906,482.973 361.573,483.973 361.5,485.5C 360.094,485.027 359.427,484.027 359.5,482.5 Z"/>
    </g>
    <g transform="matrix(0.23418, 0, 0, 0.23418, -78.94111, 146.167025)" style="">
      <path style="opacity:1" fill="#545454" d="M 627.5,481.5 C 628.5,481.5 629.5,481.5 630.5,481.5C 630.5,486.5 630.5,491.5 630.5,496.5C 626.131,496.533 621.798,496.2 617.5,495.5C 617.5,491.167 617.5,486.833 617.5,482.5C 621.042,482.813 624.375,482.479 627.5,481.5 Z"/>
    </g>
    <g transform="matrix(0.23418, 0, 0, 0.23418, -78.94111, 146.167025)" style="">
      <path style="opacity:1" fill="#6088b9" d="M 456.5,497.5 C 459.228,497.171 461.562,497.837 463.5,499.5C 460.848,499.59 458.515,498.924 456.5,497.5 Z"/>
    </g>
    <g transform="matrix(0.23418, 0, 0, 0.23418, -78.94111, 146.167025)" style="">
      <path style="opacity:1" fill="#436491" d="M 470.5,500.5 C 474.286,500.32 477.619,501.32 480.5,503.5C 476.916,503.025 473.583,502.025 470.5,500.5 Z"/>
    </g>
    <g transform="matrix(0.23418, 0, 0, 0.23418, -78.94111, 146.167025)" style="">
      <path style="opacity:1" fill="#4d78ab" d="M 484.5,504.5 C 492.697,506.008 500.363,508.675 507.5,512.5C 499.609,510.204 491.942,507.537 484.5,504.5 Z"/>
    </g>
    <g transform="matrix(0.23418, 0, 0, 0.23418, -78.94111, 146.167025)" style="">
      <path style="opacity:1" fill="#5b8ac0" d="M 684.5,488.5 C 686.525,499.38 685.359,510.046 681,520.5C 680.051,522.093 678.885,523.426 677.5,524.5C 683.637,513.279 685.97,501.279 684.5,488.5 Z"/>
    </g>
    <g transform="matrix(0.23418, 0, 0, 0.23418, -78.94111, 146.167025)" style="">
      <path style="opacity:1" fill="#5078a7" d="M 508.5,512.5 C 514.555,514.017 520.555,515.851 526.5,518C 527.056,518.383 527.389,518.883 527.5,519.5C 520.861,517.734 514.527,515.401 508.5,512.5 Z"/>
    </g>
    <g transform="matrix(0.23418, 0, 0, 0.23418, -78.94111, 146.167025)" style="">
      <path style="opacity:1" fill="#5881b1" d="M 527.5,519.5 C 532.915,520.194 537.915,521.86 542.5,524.5C 537.216,523.405 532.216,521.739 527.5,519.5 Z"/>
    </g>
    <g transform="matrix(0.23418, 0, 0, 0.23418, -78.94111, 146.167025)" style="">
      <path style="opacity:1" fill="#4f75a5" d="M 542.5,524.5 C 544.898,524.259 546.898,524.926 548.5,526.5C 546.214,526.405 544.214,525.738 542.5,524.5 Z"/>
    </g>
    <g transform="matrix(0.23418, 0, 0, 0.23418, -78.94111, 146.167025)" style="">
      <path style="opacity:1" fill="#679bd5" d="M 677.5,524.5 C 674.833,530.5 670.5,534.833 664.5,537.5C 669.167,533.5 673.5,529.167 677.5,524.5 Z"/>
    </g>
    <g transform="matrix(0.23418, 0, 0, 0.23418, -78.94111, 146.167025)" style="">
      <path style="opacity:1" fill="#84a6cc" d="M 570.5,533.5 C 572.38,533.229 573.713,533.896 574.5,535.5C 572.62,535.771 571.287,535.104 570.5,533.5 Z"/>
    </g>
    <g transform="matrix(0.23418, 0, 0, 0.23418, -78.94111, 146.167025)" style="">
      <path style="opacity:1" fill="#6080aa" d="M 578.5,536.5 C 585.448,538.153 592.448,539.653 599.5,541C 601.32,541.2 602.653,542.034 603.5,543.5C 594.812,542.156 586.478,539.822 578.5,536.5 Z"/>
    </g>
    <g transform="matrix(0.23418, 0, 0, 0.23418, -78.94111, 146.167025)" style="">
      <path style="opacity:1" fill="#b8b8b8" d="M 575.5,542.5 C 561.656,542.171 547.99,542.504 534.5,543.5C 533.957,543.44 533.624,543.107 533.5,542.5C 547.661,541.174 561.661,541.174 575.5,542.5 Z"/>
    </g>
    <g transform="matrix(0.23418, 0, 0, 0.23418, -78.94111, 146.167025)" style="">
      <path style="opacity:1" fill="#789dc8" d="M 664.5,537.5 C 662.422,540.051 659.756,541.884 656.5,543C 642.607,547.807 628.607,548.641 614.5,545.5C 624.506,545.666 634.506,545.5 644.5,545C 651.507,543.327 658.174,540.827 664.5,537.5 Z"/>
    </g>
    <g transform="matrix(0.23418, 0, 0, 0.23418, -78.94111, 146.167025)" style="">
      <path style="opacity:1" fill="#4c4c4d" d="M 534.5,543.5 C 547.99,542.504 561.656,542.171 575.5,542.5C 584.047,545.137 592.714,547.471 601.5,549.5C 603.905,550.768 606.572,551.435 609.5,551.5C 612.764,552.324 616.098,552.658 619.5,552.5C 596.006,553.498 572.339,553.831 548.5,553.5C 544.112,549.779 539.445,546.445 534.5,543.5 Z"/>
    </g>
    <g transform="matrix(0.23418, 0, 0, 0.23418, -78.94111, 146.167025)" style="">
      <path style="opacity:1" fill="#8aaed6" d="M 389.5,542.5 C 390.906,542.973 391.573,543.973 391.5,545.5C 390.094,545.027 389.427,544.027 389.5,542.5 Z"/>
    </g>
    <g transform="matrix(0.23418, 0, 0, 0.23418, -78.94111, 146.167025)" style="">
      <path style="opacity:1" fill="#7c9abe" d="M 605.5,543.5 C 608.495,543.294 611.162,543.96 613.5,545.5C 610.505,545.706 607.838,545.04 605.5,543.5 Z"/>
    </g>
    <g transform="matrix(0.23418, 0, 0, 0.23418, -78.94111, 146.167025)" style="">
      <path style="opacity:1" fill="#87a7cc" d="M 391.5,545.5 C 393.262,546.262 394.262,547.596 394.5,549.5C 392.738,548.738 391.738,547.404 391.5,545.5 Z"/>
    </g>
    <g transform="matrix(0.23418, 0, 0, 0.23418, -78.94111, 146.167025)" style="">
      <path style="opacity:1" fill="#a8a8a8" d="M 601.5,549.5 C 604.495,549.294 607.162,549.96 609.5,551.5C 606.572,551.435 603.905,550.768 601.5,549.5 Z"/>
    </g>
    <g transform="matrix(0.23418, 0, 0, 0.23418, -78.94111, 146.167025)" style="">
      <path style="opacity:1" fill="#84abdc" d="M 619.5,552.5 C 622.073,552.148 624.406,552.648 626.5,554C 600.33,554.83 574.33,554.663 548.5,553.5C 572.339,553.831 596.006,553.498 619.5,552.5 Z"/>
    </g>
    <g transform="matrix(0.23418, 0, 0, 0.23418, -78.94111, 146.167025)" style="">
      <path style="opacity:1" fill="#6381a6" d="M 440.5,576.5 C 432.551,575.187 425.218,572.52 418.5,568.5C 419.822,568.67 420.989,568.337 422,567.5C 422.833,569 424,570.167 425.5,571C 430.784,572.392 435.784,574.225 440.5,576.5 Z"/>
    </g>
    <g transform="matrix(0.23418, 0, 0, 0.23418, -78.94111, 146.167025)" style="">
      <path style="opacity:1" fill="#4c4c4c" d="M 470.5,595.5 C 470.027,594.094 469.027,593.427 467.5,593.5C 456.989,588.838 450.489,580.838 448,569.5C 445.605,553.799 450.772,541.299 463.5,532C 479.226,531.256 494.892,531.922 510.5,534C 512.608,534.36 514.608,535.027 516.5,536C 529,546.5 541.5,557 554,567.5C 555.221,574.152 554.054,580.319 550.5,586C 558.347,592.005 567.347,594.172 577.5,592.5C 577.5,593.5 577.5,594.5 577.5,595.5C 575.5,595.5 573.5,595.5 571.5,595.5C 571.343,596.873 571.51,598.207 572,599.5C 574.261,600.772 574.761,602.438 573.5,604.5C 570.919,601.752 567.919,599.586 564.5,598C 558.258,596.031 552.091,593.864 546,591.5C 543.511,593.319 541.011,595.152 538.5,597C 516.833,597.667 495.167,597.667 473.5,597C 472.473,596.487 471.473,595.987 470.5,595.5 Z"/>
    </g>
    <g transform="matrix(0.23418, 0, 0, 0.23418, -78.94111, 146.167025)" style="">
      <path style="opacity:1" fill="#169ae5" d="M 504.5,552.5 C 515.205,552.698 520.038,558.032 519,568.5C 517.52,571.663 515.02,573.496 511.5,574C 500.383,574.883 495.217,569.717 496,558.5C 498.637,556.109 501.47,554.109 504.5,552.5 Z"/>
    </g>
    <g transform="matrix(0.23418, 0, 0, 0.23418, -78.94111, 146.167025)" style="">
      <path style="opacity:1" fill="#ecf4f9" d="M 506.5,557.5 C 512.963,558.098 515.129,561.432 513,567.5C 508.906,570.476 505.573,569.809 503,565.5C 502.279,561.946 503.446,559.28 506.5,557.5 Z"/>
    </g>
    <g transform="matrix(0.23418, 0, 0, 0.23418, -78.94111, 146.167025)" style="">
      <path style="opacity:1" fill="#7792b3" d="M 467.5,593.5 C 469.027,593.427 470.027,594.094 470.5,595.5C 468.973,595.573 467.973,594.906 467.5,593.5 Z"/>
    </g>
    <g transform="matrix(0.23418, 0, 0, 0.23418, -78.94111, 146.167025)" style="">
      <path style="opacity:1" fill="#fefefe" d="M 541.5,657.5 C 558.235,657.397 574.901,658.23 591.5,660C 594,661.167 595.833,663 597,665.5C 597.965,670.742 599.132,675.909 600.5,681C 605.393,682.512 610.393,683.512 615.5,684C 631.868,684.112 648.201,684.778 664.5,686C 667.583,686.786 669.749,688.619 671,691.5C 671.667,695.5 671.667,699.5 671,703.5C 661.446,728.16 651.113,752.494 640,776.5C 627.876,789.263 613.376,792.763 596.5,787C 586.08,784.679 581.746,778.179 583.5,767.5C 562.994,766.891 542.494,766.224 522,765.5C 504.853,766.666 487.686,767.166 470.5,767C 461.387,764.443 453.053,760.277 445.5,754.5C 440.338,758.249 435.004,761.749 429.5,765C 421.527,767.56 413.193,768.726 404.5,768.5C 404.911,774.189 403.744,779.522 401,784.5C 400.097,785.701 398.931,786.535 397.5,787C 387.882,789.533 378.549,788.866 369.5,785C 368.789,783.745 367.956,782.579 367,781.5C 365.357,751.895 365.024,722.228 366,692.5C 366.715,687.895 369.215,684.729 373.5,683C 390.162,682.051 406.828,681.718 423.5,682C 431.896,684.363 439.23,688.53 445.5,694.5C 456.187,683.658 469.187,678.824 484.5,680C 485.259,675.529 486.092,671.029 487,666.5C 488.5,663.667 490.667,661.5 493.5,660C 502.294,657.759 510.961,658.092 519.5,661C 521.712,663.043 523.712,665.209 525.5,667.5C 530.258,663.127 535.591,659.794 541.5,657.5 Z"/>
    </g>
    <g transform="matrix(0.23418, 0, 0, 0.23418, -78.94111, 146.167025)" style="">
      <path style="opacity:1" fill="#515150" d="M 586.5,671.5 C 586.5,698.833 586.5,726.167 586.5,753.5C 582.167,753.5 577.833,753.5 573.5,753.5C 572.502,726.338 572.169,699.005 572.5,671.5C 577.167,671.5 581.833,671.5 586.5,671.5 Z"/>
    </g>
    <g transform="matrix(0.23418, 0, 0, 0.23418, -78.94111, 146.167025)" style="">
      <path style="opacity:1" fill="#4f4e4e" d="M 499.5,671.5 C 503.5,671.5 507.5,671.5 511.5,671.5C 511.5,698.833 511.5,726.167 511.5,753.5C 507.833,753.5 504.167,753.5 500.5,753.5C 500.795,751.265 500.461,749.265 499.5,747.5C 499.565,747.062 499.399,746.728 499,746.5C 489.66,755.744 478.827,757.911 466.5,753C 449.456,741.16 445.289,725.66 454,706.5C 461.921,695.077 472.755,690.911 486.5,694C 490.852,695.682 494.686,698.182 498,701.5C 498.17,691.325 498.67,681.325 499.5,671.5 Z"/>
    </g>
    <g transform="matrix(0.23418, 0, 0, 0.23418, -78.94111, 146.167025)" style="">
      <path style="opacity:1" fill="#4f4f4f" d="M 597.5,694.5 C 602.214,694.173 606.88,694.507 611.5,695.5C 616.845,710.034 622.678,724.367 629,738.5C 634.944,724.279 640.61,709.945 646,695.5C 650.401,694.533 654.901,694.2 659.5,694.5C 657.678,700.87 655.512,707.203 653,713.5C 645.606,730.866 638.272,748.199 631,765.5C 624.458,774.694 615.624,778.194 604.5,776C 601.379,775.274 598.713,773.774 596.5,771.5C 597.843,768.137 599.676,765.137 602,762.5C 611.8,768.388 618.3,765.888 621.5,755C 612.999,734.862 604.999,714.695 597.5,694.5 Z"/>
    </g>
    <g transform="matrix(0.23418, 0, 0, 0.23418, -78.94111, 146.167025)" style="">
      <path style="opacity:1" fill="#9a9a99" d="M 532.5,694.5 C 529.713,695.477 526.713,695.81 523.5,695.5C 523.5,698.833 523.5,702.167 523.5,705.5C 522.518,702.038 522.185,698.371 522.5,694.5C 525.833,694.5 529.167,694.5 532.5,694.5 Z"/>
    </g>
    <g transform="matrix(0.23418, 0, 0, 0.23418, -78.94111, 146.167025)" style="">
      <path style="opacity:1" fill="#fbfbfb" d="M 474.5,705.5 C 492.791,703.959 500.625,712.292 498,730.5C 496.664,736.501 493.164,740.668 487.5,743C 469.368,744.197 461.535,735.697 464,717.5C 465.936,712.068 469.436,708.068 474.5,705.5 Z"/>
    </g>
    <g transform="matrix(0.23418, 0, 0, 0.23418, -78.94111, 146.167025)" style="">
      <path style="opacity:1" fill="#a0a09f" d="M 586.5,671.5 C 587.498,698.995 587.831,726.662 587.5,754.5C 582.637,754.819 577.97,754.486 573.5,753.5C 577.833,753.5 582.167,753.5 586.5,753.5C 586.5,726.167 586.5,698.833 586.5,671.5 Z"/>
    </g>
    <g transform="matrix(0.23418, 0, 0, 0.23418, -78.94111, 146.167025)" style="">
      <path style="opacity:1" fill="#8a8b8a" d="M 546.5,705.5 C 546.5,721.833 546.5,738.167 546.5,754.5C 541.833,754.5 537.167,754.5 532.5,754.5C 532.5,738.5 532.5,722.5 532.5,706.5C 533.496,721.991 533.83,737.658 533.5,753.5C 537.5,753.5 541.5,753.5 545.5,753.5C 545.17,737.325 545.504,721.325 546.5,705.5 Z"/>
    </g>
    <g transform="matrix(0.23418, 0, 0, 0.23418, -78.94111, 146.167025)" style="">
      <path style="opacity:1" fill="#4c4c4b" d="M 546.5,705.5 C 545.504,721.325 545.17,737.325 545.5,753.5C 541.5,753.5 537.5,753.5 533.5,753.5C 533.83,737.658 533.496,721.991 532.5,706.5C 529.713,705.523 526.713,705.19 523.5,705.5C 523.5,702.167 523.5,698.833 523.5,695.5C 526.713,695.81 529.713,695.477 532.5,694.5C 530.662,683.008 534.995,674.841 545.5,670C 552.011,668.968 558.344,669.468 564.5,671.5C 565.739,675.399 565.239,679.066 563,682.5C 550.422,677.566 544.922,681.899 546.5,695.5C 551.833,695.5 557.167,695.5 562.5,695.5C 562.5,698.833 562.5,702.167 562.5,705.5C 557.167,705.5 551.833,705.5 546.5,705.5 Z"/>
    </g>
    <g transform="matrix(0.23418, 0, 0, 0.23418, -78.94111, 146.167025)" style="">
      <path style="opacity:1" fill="#787777" d="M 499.5,671.5 C 503.634,670.515 507.968,670.182 512.5,670.5C 512.5,698.167 512.5,725.833 512.5,753.5C 512.167,753.5 511.833,753.5 511.5,753.5C 511.5,726.167 511.5,698.833 511.5,671.5C 507.5,671.5 503.5,671.5 499.5,671.5 Z"/>
    </g>
    <g transform="matrix(0.23418, 0, 0, 0.23418, -78.94111, 146.167025)" style="">
      <path style="opacity:1" fill="#515150" d="M 404.5,693.5 C 431.061,692.9 442.895,705.9 440,732.5C 431.944,753.947 417.444,760.113 396.5,751C 395,749.5 393.5,748 392,746.5C 391.5,756.161 391.334,765.828 391.5,775.5C 386.833,775.5 382.167,775.5 377.5,775.5C 377.5,748.5 377.5,721.5 377.5,694.5C 381.884,694.174 386.217,694.508 390.5,695.5C 391.189,697.444 391.689,699.444 392,701.5C 395.671,697.923 399.838,695.256 404.5,693.5 Z"/>
    </g>
    <g transform="matrix(0.23418, 0, 0, 0.23418, -78.94111, 146.167025)" style="">
      <path style="opacity:1" fill="#fbfbfb" d="M 401.5,705.5 C 420.754,703.659 428.921,712.325 426,731.5C 420.115,742.686 411.282,745.852 399.5,741C 391.836,734.631 389.336,726.464 392,716.5C 394.314,712.025 397.48,708.358 401.5,705.5 Z"/>
    </g>
    <g transform="matrix(0.23418, 0, 0, 0.23418, -78.94111, 146.167025)" style="">
      <path style="opacity:1" fill="#9e9e9d" d="M 499.5,747.5 C 500.461,749.265 500.795,751.265 500.5,753.5C 504.167,753.5 507.833,753.5 511.5,753.5C 511.833,753.5 512.167,753.5 512.5,753.5C 508.366,754.485 504.032,754.818 499.5,754.5C 499.5,752.167 499.5,749.833 499.5,747.5 Z"/>
    </g>
  </g>
</svg>