<?xml version="1.0" encoding="utf-8"?>
<svg height="100%" style="fill-rule:evenodd;clip-rule:evenodd;stroke-linecap:round;stroke-linejoin:round;" width="100%" version="1.1" viewBox="0 0 150 150" xmlns="http://www.w3.org/2000/svg" xmlns:bx="https://boxy-svg.com">
  <defs>
    <bx:grid x="0" y="0" width="15" height="15"/>
  </defs>
  <rect width="120" height="120" style="fill: none; stroke-width: 0.2px; stroke: rgb(84, 84, 84); pointer-events: none; visibility: hidden;" x="15" y="15"/>
  <g transform="matrix(1, 0, 0, 1, 0.809002, 2.057997)">
    <path d="M 37.841 89.542 C 37.841 96.842 31.941 102.742 24.641 102.742 C 17.341 102.742 11.441 96.842 11.441 89.542 C 11.441 82.242 17.341 76.342 24.641 76.342 L 37.841 76.342 L 37.841 89.542 Z M 44.441 89.542 C 44.441 82.242 50.341 76.342 57.641 76.342 C 64.941 76.342 70.841 82.242 70.841 89.542 L 70.841 122.542 C 70.841 129.842 64.941 135.742 57.641 135.742 C 50.341 135.742 44.441 129.842 44.441 122.542 L 44.441 89.542 Z" fill="#E01E5A" style="stroke-width: 1;"/>
    <path d="M 57.641 36.542 C 50.341 36.542 44.441 30.642 44.441 23.342 C 44.441 16.042 50.341 10.142 57.641 10.142 C 64.941 10.142 70.841 16.042 70.841 23.342 L 70.841 36.542 L 57.641 36.542 Z M 57.641 43.242 C 64.941 43.242 70.841 49.142 70.841 56.442 C 70.841 63.742 64.941 69.642 57.641 69.642 L 24.541 69.642 C 17.241 69.642 11.341 63.742 11.341 56.442 C 11.341 49.142 17.241 43.242 24.541 43.242 L 57.641 43.242 Z" fill="#36C5F0" style="stroke-width: 1;"/>
    <path d="M 110.541 56.442 C 110.541 49.142 116.441 43.242 123.741 43.242 C 131.041 43.242 136.941 49.142 136.941 56.442 C 136.941 63.742 131.041 69.642 123.741 69.642 L 110.541 69.642 L 110.541 56.442 Z M 103.941 56.442 C 103.941 63.742 98.041 69.642 90.741 69.642 C 83.441 69.642 77.541 63.742 77.541 56.442 L 77.541 23.342 C 77.541 16.042 83.441 10.142 90.741 10.142 C 98.041 10.142 103.941 16.042 103.941 23.342 L 103.941 56.442 Z" fill="#2EB67D" style="stroke-width: 1;"/>
    <path d="M 90.741 109.342 C 98.041 109.342 103.941 115.242 103.941 122.542 C 103.941 129.842 98.041 135.742 90.741 135.742 C 83.441 135.742 77.541 129.842 77.541 122.542 L 77.541 109.342 L 90.741 109.342 Z M 90.741 102.742 C 83.441 102.742 77.541 96.842 77.541 89.542 C 77.541 82.242 83.441 76.342 90.741 76.342 L 123.841 76.342 C 131.141 76.342 137.041 82.242 137.041 89.542 C 137.041 96.842 131.141 102.742 123.841 102.742 L 90.741 102.742 Z" fill="#ECB22E" style="stroke-width: 1;"/>
  </g>
</svg>