<?xml version="1.0" encoding="utf-8"?>
<svg height="100%" style="fill-rule:evenodd;clip-rule:evenodd;stroke-linecap:round;stroke-linejoin:round;" width="100%" version="1.1" viewBox="0 0 150 150" xmlns="http://www.w3.org/2000/svg" xmlns:bx="https://boxy-svg.com">
  <defs>
    <bx:grid x="0" y="0" width="15" height="15"/>
  </defs>
  <rect width="120" height="120" style="fill: none; stroke-width: 0.2px; stroke: rgb(84, 84, 84); pointer-events: none; visibility: hidden;" x="15" y="15" bx:origin="0.5 0.5"/>
  <g id="ICON" transform="matrix(0.180736, 0, 0, 0.180736, 41.934822, 14.992855)" style="">
    <g>
      <path d="M220.78,194.36c-24.88-24.91-65.42-24.91-90.31,0-24.92,24.94-24.92,65.48,0,90.41,12.44,12.45,28.81,18.66,45.15,18.66s32.71-6.21,45.15-18.66c24.92-24.94,24.92-65.48,0-90.41Zm-22.58,67.82c-12.41,12.42-32.68,12.42-45.15,0-6.02-6.05-9.36-14.08-9.36-22.6s3.34-16.57,9.36-22.63c12.47-12.48,32.68-12.48,45.15,0,6.02,6.05,9.36,14.08,9.36,22.63s-3.34,16.54-9.36,22.6Z"/>
      <path d="M250.91,180.22c-4.09,0-8.17-1.56-11.29-4.68-34.18-34.21-93.8-34.21-127.98,0-6.24,6.24-16.34,6.24-22.58,0s-6.24-16.35,0-22.6c47.71-47.75,125.42-47.75,173.13,0,6.24,6.24,6.24,16.35,0,22.6-3.12,3.12-7.2,4.68-11.29,4.68Z"/>
      <path d="M292.29,138.77c-4.09,0-8.17-1.56-11.29-4.68-58.13-58.18-152.62-58.18-210.74,0-6.24,6.24-16.34,6.24-22.58,0-6.24-6.24-6.24-16.35,0-22.6,70.54-70.6,185.36-70.6,255.9,0,6.24,6.24,6.24,16.35,0,22.6-3.12,3.12-7.2,4.68-11.29,4.68Z"/>
      <path d="M333.7,97.36c-4.09,0-8.17-1.56-11.29-4.68C241.46,11.72,109.8,11.72,28.85,92.68c-6.24,6.24-16.34,6.24-22.58,0C.03,86.44,.03,76.32,6.27,70.08c93.37-93.44,245.36-93.44,338.72,0,6.24,6.24,6.24,16.35,0,22.6-3.12,3.12-7.2,4.68-11.29,4.68Z"/>
      <path d="M350.26,438.45l-40.57-82.55c-.81-1.64-1.86-3.06-3.08-4.28,27.75-30.97,44.65-71.81,44.65-116.5,0-8.83-7.14-15.98-15.97-15.98s-15.97,7.15-15.97,15.98c0,78.93-64.46,143.13-143.7,143.13S31.93,314.05,31.93,235.12c0-8.83-7.14-15.98-15.97-15.98s-15.97,7.15-15.97,15.98c0,90.48,69.24,165.17,157.66,174.18l60.63,101.13c10.57,17.66,27.41,29.93,47.43,34.61,5.74,1.31,11.51,1.97,17.24,1.97,14.25,0,28.22-4.09,40.54-12.02,32.12-20.72,43.63-62.2,26.76-96.53Zm-44.06,69.66c-9.92,6.4-21.74,8.49-33.24,5.77-11.51-2.68-21.21-9.74-27.29-19.88l-50.87-84.85c32.92-3.58,63.14-16.27,88.07-35.49l38.77,78.89c9.7,19.76,3.09,43.63-15.44,55.55Z"/>
    </g>
  </g>
  <text style="fill: rgb(51, 51, 51); font-family: &quot;Gill Sans&quot;; font-size: 24.4px; white-space: pre;" x="30" y="139.241" transform="matrix(0.828663, 0, 0, 0.661588, 17.073135, 39.110832)">quidomi</text>
</svg>