<?xml version="1.0" encoding="UTF-8"?>
<svg width="941px" height="417px" viewBox="0 0 941 417" version="1.1" xmlns="http://www.w3.org/2000/svg" xmlns:xlink="http://www.w3.org/1999/xlink">
    <!-- Generator: Sketch 52.6 (67491) - http://www.bohemiancoding.com/sketch -->
    <title>Apple AFP</title>
    <desc>Created with Sketch.</desc>
    <g id="Page-1" stroke="none" stroke-width="1" fill="none" fill-rule="evenodd">
        <g id="Apple-AFP">
            <path d="M292.238,399.321 C269.67,421.223 244.77,417.808 221.035,407.483 C195.802,396.948 172.733,396.281 146.085,407.483 C112.898,421.806 95.285,417.642 75.298,399.321 C-37.544,283.148 -20.888,106.18 107.36,99.518 C138.465,101.184 160.242,116.715 178.563,118.006 C205.796,112.468 231.862,96.603 261.009,98.685 C296.028,101.517 322.219,115.341 339.707,140.2 C267.671,183.504 284.744,278.442 350.909,305.091 C337.667,339.86 320.679,374.212 292.197,399.612 L292.238,399.321 Z M176.065,98.269 C172.693,46.636 214.54,4.164 262.675,0 C269.295,59.545 208.544,104.098 176.065,98.269 Z" id="Shape" fill="#000000" fill-rule="nonzero"></path>
            <text id="AFP" fill="#333333" font-family="Helvetica" font-size="289.5" font-weight="normal">
                <tspan x="391.759" y="349.234">AFP</tspan>
            </text>
        </g>
    </g>
</svg>