<?xml version="1.0" encoding="utf-8"?>
<svg width="150px" height="61px" viewBox="0 0 150 61.239" preserveAspectRatio="xMidYMid" xmlns="http://www.w3.org/2000/svg">
  <defs>
    <linearGradient x1="23.962%" y1="46.043%" x2="68.784%" y2="55.602%" id="a">
      <stop stop-color="#919191" offset="0"/>
      <stop stop-color="#FFF" offset="1"/>
    </linearGradient>
    <linearGradient x1="26.427%" y1="42.381%" x2="67.132%" y2="51.906%" id="b">
      <stop stop-color="#900" offset="0"/>
      <stop stop-color="#E80000" offset="1"/>
    </linearGradient>
    <linearGradient x1="50%" y1="99.822%" x2="50%" y2="-.044%" id="c">
      <stop stop-color="#1A1A1A" offset="0"/>
      <stop stop-color="#4A4A4C" offset="0.4026"/>
      <stop stop-color="#333" offset="1"/>
    </linearGradient>
  </defs>
  <path d="M 134.853 1.291 C 134.824 1.408 134.824 1.526 134.853 1.643 C 134.853 1.643 135.234 4.133 134.795 5.246 L 116.748 52.208 C 115.459 55.665 117.188 59.502 120.645 60.821 C 124.102 62.139 127.939 60.44 129.316 57.012 L 147.363 10.051 C 147.714 9.143 149.736 7.355 149.736 7.355 C 149.824 7.267 149.911 7.18 149.97 7.092 L 149.97 7.062 C 149.97 7.033 149.999 7.033 149.999 7.004 C 150.468 5.803 147.451 3.518 143.291 1.907 C 139.13 0.295 135.351 -0.027 134.883 1.203 C 134.883 1.203 134.853 1.233 134.853 1.291 Z" opacity=".1"/>
  <path d="M 134.326 0.881 C 134.297 0.998 134.297 1.116 134.326 1.233 C 134.326 1.233 134.707 3.723 134.267 4.836 L 116.221 51.798 C 114.933 55.254 116.661 59.092 120.118 60.41 C 123.575 61.729 127.412 60.03 128.789 56.602 L 146.836 9.641 C 147.187 8.732 149.209 6.945 149.209 6.945 C 149.297 6.857 149.385 6.77 149.443 6.682 L 149.443 6.653 C 149.443 6.623 149.472 6.623 149.472 6.594 C 149.941 5.393 146.924 3.108 142.763 1.496 C 138.603 -0.115 134.824 -0.437 134.355 0.793 C 134.355 0.823 134.355 0.852 134.326 0.881 Z" fill="url(#a)"/>
  <path d="M 140.01 22.121 L 126.973 55.987 C 126.006 58.418 123.223 59.678 120.733 58.712 C 118.243 57.744 116.924 54.903 117.833 52.471 L 126.152 30.821 C 126.152 30.821 127.178 29.152 129.229 27.951 C 131.279 26.749 132.949 27.013 135.205 26.017 C 137.49 25.021 140.01 22.121 140.01 22.121 Z" fill="url(#b)"/>
  <path d="M 146.331 5.614 C 146.591 4.936 144.722 3.584 142.157 2.594 C 139.591 1.603 137.301 1.35 137.042 2.027 C 136.782 2.705 138.651 4.057 141.216 5.048 C 143.782 6.038 146.072 6.292 146.331 5.614 Z" fill="#333"/>
  <path d="M 134.205 1.229 C 134.205 1.229 134.583 3.712 134.146 4.823 L 116.218 51.652 C 114.938 55.099 116.655 58.926 120.089 60.24 C 120.671 60.474 121.282 60.62 121.893 60.649 C 119.535 58.849 118.626 55.721 119.652 52.937 L 137.232 7.043 C 137.232 7.043 134.816 4.793 134.205 1.229 Z" opacity=".3" fill="#FFF"/>
  <g transform="matrix(0.293532, 0, 0, 0.293532, 123.319603, 30.705591)" fill="#FFF" opacity=".5">
    <ellipse cx="17.451" cy="2.488" rx="1.785" ry="1.791"/>
    <ellipse cx="29.052" cy="15.327" rx="2.677" ry="2.687"/>
    <ellipse cx="11.303" cy="30.653" rx="5.057" ry="5.076"/>
    <ellipse cx="3.173" cy="40.009" rx="2.677" ry="2.687"/>
    <ellipse cx="13.782" cy="59.913" rx="1.785" ry="1.791"/>
  </g>
  <path d="M 35.394 28.544 C 36.184 29.187 37.62 28.807 38.587 27.755 C 39.612 26.645 39.759 25.214 38.968 24.571 C 38.177 23.928 36.741 24.308 35.775 25.418 C 34.749 26.528 34.573 27.93 35.394 28.544 Z M 33.021 30.618 C 32.815 30.618 32.434 30.998 32.757 31.144 C 33.196 31.29 33.402 31.67 33.402 32.196 C 33.021 34.386 30.296 36.87 29.242 37.717 C 28.978 37.98 29.359 38.564 29.622 38.36 C 30.208 37.892 31.439 36.928 32.434 35.643 C 30.794 39.294 27.572 44.027 26.341 45.692 C 21.537 52.324 14.242 58.429 9.232 58.429 C 5.219 58.429 1.821 55.712 1.088 51.739 C 1.03 51.301 0.443 51.213 0.561 51.798 C 1.469 57.261 5.688 59.393 10.785 59.393 C 16.38 59.393 22.943 55.362 26.575 51.213 C 32.434 44.524 36.214 36.811 35.218 32.458 C 34.808 30.852 33.665 30.589 33.021 30.618 Z M 69.025 45.195 C 70.578 44.816 71.838 43.969 71.838 42.625 C 71.838 42.479 71.574 42.479 71.574 42.625 C 71.574 43.413 70.666 44.085 69.641 44.231 C 67.238 44.611 62.492 41.807 60.266 38.915 C 62.668 39.82 67.561 38.506 69.875 36.84 C 72.014 35.292 72.863 33.598 73.01 32.225 C 73.273 29.946 70.783 28.603 67.297 29.946 C 65.07 30.852 62.404 32.809 59.621 36.49 C 62.551 31.67 68.322 23.782 73.976 18.757 C 80.861 12.652 84.845 13.82 78.664 20.306 C 76.115 22.964 71.311 26.411 68 27.901 C 66.975 28.339 67.473 28.924 68.205 28.602 C 71.72 27.054 76.408 23.87 79.25 21.211 C 87.628 13.178 80.626 7.13 71.369 15.632 C 65.07 21.416 60.969 27.463 57.395 35.321 C 56.165 36.811 55.257 38.038 54.143 38.973 C 53.996 39.09 53.909 39.207 53.821 39.324 C 50.744 41.953 45.911 45.517 42.893 45.546 C 40.755 45.605 39.847 43.998 40.228 41.924 C 40.813 38.681 44.182 34.854 47.053 33.539 C 50.774 31.845 52.971 35.146 48.079 37.775 C 46.204 38.739 43.977 39.265 43.069 39.265 C 42.015 39.265 42.102 39.703 43.011 39.733 C 44.505 39.791 46.907 39.148 48.489 38.418 C 53.498 36.023 53.821 31.553 48.372 31.407 C 42.454 31.202 35.364 36.227 35.423 42.566 C 35.482 45.429 37.767 46.978 40.901 46.978 C 46.145 46.919 50.803 42.946 54.641 39.44 C 55.198 38.973 55.725 38.476 56.252 37.951 C 54.905 41.339 54.231 44.494 54.553 46.831 C 54.758 48.526 55.725 49.315 56.487 49.957 C 56.633 50.074 56.955 49.957 56.751 49.636 C 55.637 48.321 55.959 44.377 57.483 40.551 C 58.772 43.121 63.781 46.364 69.025 45.195 Z M 62.727 34.123 C 68.85 28.661 71.252 33.539 67.356 36.519 C 65.334 38.067 61.32 39.236 60.061 38.476 L 59.797 38.33 C 59.651 38.067 59.475 37.804 59.358 37.542 C 60.383 36.285 61.555 35.175 62.727 34.123 Z M 96.769 27.901 C 99.229 28.164 98.204 25.184 95.714 25.944 C 94.601 26.265 93.517 28.398 92.726 30.238 C 90.265 33.89 86.164 38.885 83.293 41.515 C 80.744 43.706 78.4 44.29 81.271 40.2 C 82.443 38.564 83.937 36.811 84.787 35.058 C 86.808 30.647 82.502 28.69 79.015 31.348 C 76.994 32.897 74.269 36.081 72.131 37.834 C 71.545 38.301 71.691 39.002 72.277 38.535 C 73.976 37.162 76.965 34.007 79.543 32.166 C 81.681 30.53 82.531 31.582 81.3 32.955 C 79.601 34.912 76.613 38.33 75.852 40.492 C 74.797 43.735 76.056 45.166 78.195 45.166 C 81.125 45.166 85.489 40.609 88.419 36.987 C 89.386 35.76 90.441 34.328 91.349 32.955 C 88.8 37.892 86.134 42.887 82.824 47.416 C 78.136 53.784 72.277 58.575 66.711 58.575 C 62.697 58.575 59.24 55.858 58.508 51.885 C 58.449 51.447 57.922 51.359 57.981 51.944 C 58.889 57.407 63.107 59.539 68.205 59.539 C 73.801 59.539 79.191 56.297 82.97 52.324 C 90.587 44.29 91.495 35.263 93.839 30.209 C 94.952 27.901 95.948 27.814 96.769 27.901 Z M 127.764 20.188 C 128.877 18.289 128.818 16.8 126.211 16.8 C 124.248 16.858 120.674 18.231 119.004 19.516 C 118.623 19.896 118.799 20.101 119.268 19.896 C 119.59 19.78 119.971 19.575 120.323 19.429 C 122.197 18.406 121.436 20.539 121.026 21.328 C 118.799 25.213 114.844 30.676 112.764 33.393 C 111.777 34.722 110.711 35.99 109.571 37.191 C 107.579 39.09 103.624 42.449 100.606 43.559 C 90.909 47.181 103.272 30.705 104.297 29.362 C 106.583 26.499 111.709 21.503 113.262 18.991 C 114.375 17.092 114.317 15.602 111.709 15.602 C 109.747 15.661 106.173 17.034 104.503 18.319 C 104.122 18.699 104.297 18.903 104.766 18.699 C 105.089 18.582 105.469 18.377 105.821 18.231 C 107.696 17.209 106.934 19.341 106.524 20.13 C 104.297 24.016 100.343 29.478 98.263 32.195 C 96.564 34.474 94.484 36.752 92.872 38.038 C 92.228 38.564 92.609 39.06 93.253 38.622 C 93.839 38.242 94.688 37.395 95.656 36.402 C 93.897 39.907 92.462 44.845 97.091 45.429 C 101.046 45.955 105.733 41.953 108.78 38.973 L 109.864 37.892 L 110.127 37.629 C 108.37 41.134 106.934 46.072 111.563 46.656 C 116.631 47.357 122.93 40.55 125.362 38.038 C 125.83 37.571 125.684 36.752 124.892 37.571 C 123.457 39.06 118.594 43.471 115.079 44.786 C 105.382 48.408 117.745 31.932 118.77 30.589 C 121.084 27.667 126.211 22.672 127.764 20.189 Z" opacity=".1"/>
  <path d="M 34.866 28.047 C 35.657 28.69 37.093 28.31 38.06 27.258 C 39.085 26.148 39.231 24.717 38.44 24.074 C 37.649 23.431 36.214 23.811 35.247 24.921 C 34.222 26.031 34.075 27.405 34.866 28.047 Z M 32.523 30.121 C 32.317 30.121 31.937 30.501 32.259 30.647 C 32.698 30.794 32.903 31.173 32.903 31.699 C 32.523 33.89 29.798 36.373 28.743 37.22 C 28.48 37.483 28.861 38.067 29.124 37.863 C 29.71 37.395 30.941 36.431 31.937 35.146 C 30.296 38.798 27.074 43.53 25.843 45.195 C 21.039 51.827 13.744 57.932 8.734 57.932 C 4.721 57.932 1.323 55.216 0.59 51.243 C 0.531 50.804 -0.054 50.717 0.063 51.301 C 0.971 56.764 5.189 58.896 10.287 58.896 C 15.883 58.896 22.445 54.865 26.078 50.717 C 31.937 44.027 35.716 36.315 34.72 31.962 C 34.28 30.326 33.167 30.063 32.523 30.121 Z M 68.498 44.699 C 70.051 44.319 71.311 43.472 71.311 42.128 C 71.311 41.982 71.047 41.982 71.047 42.128 C 71.047 42.917 70.139 43.589 69.113 43.735 C 66.711 44.114 61.965 41.31 59.738 38.418 C 62.141 39.324 67.033 38.009 69.348 36.344 C 71.486 34.795 72.336 33.101 72.482 31.728 C 72.746 29.449 70.256 28.106 66.77 29.449 C 64.543 30.355 61.877 32.312 59.094 35.993 C 62.024 31.173 67.795 23.285 73.449 18.261 C 80.334 12.155 84.318 13.324 78.136 19.809 C 75.588 22.467 70.783 25.915 67.473 27.405 C 66.447 27.843 66.945 28.427 67.678 28.106 C 71.193 26.557 75.88 23.373 78.722 20.714 C 87.101 12.681 80.099 6.634 70.842 15.135 C 64.543 20.89 60.442 26.966 56.868 34.825 C 55.637 36.315 54.729 37.542 53.616 38.476 C 53.469 38.593 53.381 38.71 53.293 38.827 C 50.217 41.456 45.384 45.02 42.366 45.049 C 40.228 45.108 39.319 43.501 39.7 41.427 C 40.286 38.184 43.655 34.357 46.526 33.043 C 50.247 31.348 52.444 34.649 47.552 37.278 C 45.676 38.243 43.45 38.769 42.542 38.769 C 41.487 38.769 41.575 39.207 42.483 39.236 C 43.977 39.294 46.38 38.652 47.961 37.921 C 52.971 35.526 53.293 31.056 47.844 30.91 C 41.926 30.706 34.837 35.73 34.896 42.07 C 34.954 44.933 37.239 46.481 40.374 46.481 C 45.618 46.422 50.276 42.449 54.114 38.944 C 54.67 38.476 55.198 37.98 55.725 37.454 C 54.377 40.843 53.704 43.998 54.026 46.335 C 54.231 48.029 55.198 48.818 55.959 49.461 C 56.106 49.577 56.428 49.461 56.223 49.139 C 55.11 47.825 55.432 43.881 56.955 40.054 C 58.274 42.625 63.283 45.867 68.498 44.699 Z M 62.199 33.598 C 68.322 28.135 70.725 33.013 66.828 35.993 C 64.807 37.542 60.793 38.71 59.534 37.951 L 59.27 37.804 C 59.123 37.542 58.947 37.279 58.83 37.016 C 59.856 35.789 61.028 34.649 62.199 33.598 Z M 96.241 27.405 C 98.702 27.668 97.677 24.688 95.187 25.448 C 94.073 25.769 92.989 27.902 92.198 29.742 C 89.738 33.394 85.636 38.389 82.765 41.018 C 80.216 43.209 77.873 43.793 80.744 39.703 C 81.915 38.068 83.41 36.315 84.259 34.562 C 86.281 30.151 81.974 28.194 78.488 30.852 C 76.466 32.4 73.742 35.584 71.603 37.337 C 71.018 37.805 71.164 38.506 71.75 38.038 C 73.449 36.666 76.437 33.51 79.015 31.67 C 81.154 30.034 82.003 31.086 80.773 32.458 C 79.074 34.416 76.086 37.834 75.324 39.996 C 74.269 43.239 75.529 44.67 77.668 44.67 C 80.597 44.67 84.962 40.113 87.892 36.49 C 88.859 35.263 89.913 33.832 90.821 32.458 C 88.273 37.396 85.607 42.391 82.297 46.919 C 77.609 53.288 71.75 58.079 66.184 58.079 C 62.17 58.079 58.713 55.362 57.981 51.389 C 57.922 50.951 57.395 50.863 57.453 51.448 C 58.362 56.91 62.58 59.043 67.678 59.043 C 73.273 59.043 78.664 55.8 82.443 51.827 C 90.06 43.793 90.968 34.766 93.311 29.712 C 94.425 27.405 95.45 27.288 96.241 27.405 Z M 127.237 19.663 C 128.35 17.764 128.291 16.274 125.684 16.274 C 123.721 16.333 120.147 17.706 118.477 18.991 C 118.096 19.371 118.272 19.575 118.741 19.371 C 119.063 19.254 119.443 19.049 119.795 18.903 C 121.67 17.881 120.909 20.013 120.498 20.803 C 118.272 24.688 114.317 30.151 112.237 32.867 C 111.249 34.196 110.183 35.464 109.044 36.665 C 107.052 38.564 103.097 41.924 100.079 43.034 C 90.382 46.656 102.745 30.18 103.77 28.836 C 106.056 25.973 111.182 20.978 112.735 18.465 C 113.848 16.566 113.789 15.076 111.182 15.076 C 109.219 15.135 105.645 16.508 103.975 17.793 C 103.595 18.173 103.77 18.378 104.239 18.173 C 104.561 18.056 104.942 17.852 105.294 17.706 C 107.169 16.683 106.407 18.816 105.997 19.604 C 103.77 23.49 99.815 28.953 97.735 31.67 C 96.036 33.948 93.956 36.227 92.345 37.512 C 91.7 38.038 92.081 38.535 92.726 38.096 C 93.311 37.717 94.161 36.87 95.128 35.876 C 93.37 39.382 91.935 44.319 96.563 44.903 C 100.518 45.429 105.206 41.427 108.253 38.447 L 109.337 37.366 L 109.6 37.103 C 107.843 40.609 106.407 45.546 111.036 46.13 C 116.104 46.831 122.403 40.025 124.834 37.512 C 125.303 37.045 125.156 36.227 124.365 37.045 C 122.93 38.535 118.067 42.946 114.551 44.261 C 104.854 47.883 117.217 31.407 118.243 30.063 C 120.586 27.142 125.683 22.146 127.236 19.663 Z" fill="url(#c)"/>
</svg>