<?xml version="1.0" encoding="utf-8"?>
<svg width="1050px" height="1062px" viewBox="0 0 150 151.714" version="1.1" xmlns="http://www.w3.org/2000/svg">
  <title>Python Logo</title>
  <desc>Created with Sketch.</desc>
  <defs>
    <linearGradient x1="1.06341021e-07%" y1="9.14856165e-08%" x2="74.5209927%" y2="64.1103734%" id="linearGradient-1">
      <stop stop-color="#5A9FD4" offset="0"/>
      <stop stop-color="#306998" offset="1"/>
    </linearGradient>
    <linearGradient x1="49.9999998%" y1="82.2756107%" x2="23.4426562%" y2="44.914431%" id="linearGradient-2">
      <stop stop-color="#FFD43B" offset="0"/>
      <stop stop-color="#FFE873" offset="1"/>
    </linearGradient>
  </defs>
  <g id="Page-1" stroke="none" stroke-width="1" fill="none" fill-rule="evenodd" transform="matrix(0.14293, 0, 0, 0.14293, 0.33493, 0.661863)">
    <g id="Python-Logo" fill-rule="nonzero">
      <path d="M518.874363,0.780917681 C475.600485,0.981990287 434.274901,4.67262991 397.912641,11.1069184 C290.793982,30.0312681 271.345385,69.6415547 271.345376,142.689671 L271.345376,239.16402 L524.479907,239.16402 L524.479907,271.322136 L271.345376,271.322136 L176.34617,271.322136 C102.778227,271.322136 38.3600309,315.54071 18.2108432,399.659573 C-5.03098992,496.079316 -6.06189156,556.246805 18.2108432,656.924504 C36.2045501,731.865089 79.175959,785.261922 152.743882,785.261941 L239.777317,785.261941 L239.777317,669.610734 C239.777317,586.059562 312.067762,512.360514 397.912641,512.360495 L650.752143,512.360495 C721.133701,512.360495 777.319437,454.410611 777.319409,383.728029 L777.319409,142.689671 C777.319409,74.0887826 719.446789,22.5561292 650.752143,11.1069184 C607.267412,3.86833004 562.148241,0.579842244 518.874363,0.780917681 Z M381.981097,78.373438 C408.128155,78.373438 429.4807,100.074759 429.4807,126.758127 C429.480682,153.346915 408.128155,174.847787 381.981097,174.847787 C355.740301,174.847778 334.481494,153.346906 334.481494,126.758127 C334.481485,100.074769 355.740301,78.373438 381.981097,78.373438 Z" id="path1948" fill="url(#linearGradient-1)"/>
      <path d="M808.887468,271.322136 L808.887468,383.728029 C808.887468,470.874802 735.003859,544.223573 650.752143,544.223583 L397.912641,544.223583 C328.655666,544.223583 271.345385,603.498206 271.345376,672.856048 L271.345376,913.894378 C271.345376,982.495276 330.998627,1022.84556 397.912641,1042.52684 C478.040811,1066.08769 554.87953,1070.34573 650.752143,1042.52684 C714.479782,1024.07561 777.319437,986.942419 777.319409,913.894378 L777.319409,817.420057 L524.479907,817.420057 L524.479907,785.261941 L777.319409,785.261941 L903.886712,785.261941 C977.454664,785.261941 1004.8691,733.946717 1030.45388,656.924504 C1056.88212,577.631336 1055.75761,501.378105 1030.45388,399.659573 C1012.27276,326.422233 977.548223,271.322136 903.886712,271.322136 L808.887468,271.322136 Z M666.683687,881.73629 C692.924503,881.736319 714.18329,903.23719 714.18329,929.825922 C714.183271,956.509252 692.924474,978.210611 666.683687,978.210611 C640.536601,978.210611 619.184084,956.509252 619.184084,929.825922 C619.184103,903.23719 640.536573,881.73629 666.683687,881.73629 Z" id="path1950" fill="url(#linearGradient-2)"/>
    </g>
  </g>
</svg>