<?xml version="1.0" encoding="UTF-8"?>
<svg width="260px" height="253px" viewBox="0 0 260 253" version="1.1" xmlns="http://www.w3.org/2000/svg" xmlns:xlink="http://www.w3.org/1999/xlink">
    <!-- Generator: Sketch 52.6 (67491) - http://www.bohemiancoding.com/sketch -->
    <title>2023-04-15-networking-avanzado-06</title>
    <desc>Created with Sketch.</desc>
    <defs>
        <linearGradient x1="50%" y1="0%" x2="50%" y2="50%" id="linearGradient-1">
            <stop stop-color="#FFCFCF" offset="0%"></stop>
            <stop stop-color="#E3FFCA" offset="100%"></stop>
        </linearGradient>
        <linearGradient x1="100%" y1="41.6660094%" x2="0%" y2="41.6660094%" id="linearGradient-2">
            <stop stop-color="#E0E0E0" offset="0%"></stop>
            <stop stop-color="#BDBDBD" offset="100%"></stop>
        </linearGradient>
    </defs>
    <g id="Networking" stroke="none" stroke-width="1" fill="none" fill-rule="evenodd">
        <g id="ISP-Copy" transform="translate(-27.000000, -282.000000)">
            <g id="2023-04-15-networking-avanzado-06" transform="translate(27.000000, 282.000000)">
                <rect id="Rectangle" stroke="#979797" stroke-width="0.5" fill="#FFFFFF" x="0.25" y="0.25" width="259.5" height="252.5"></rect>
                <g id="muro" transform="translate(31.000000, 24.000000)">
                    <rect id="Rectangle" stroke="#000000" stroke-width="0.1" fill="url(#linearGradient-1)" x="76.05" y="72.05" width="121.9" height="69.9" rx="2"></rect>
                    <g id="Internet" transform="translate(2.000000, 9.000000)">
                        <g id="Nube-internet">
                            <path d="M19.4012238,12.5796738 C7.19532247,13.2506546 -1.40892394,17.7681051 0.19157779,22.6949417 C1.79281471,27.6214776 12.9977719,31.0749746 25.1643281,30.4203863 C37.3702294,29.7494055 45.9343955,25.2319549 44.3331585,20.3051184 C42.7326568,15.3785825 31.5670448,11.9247951 19.4012238,12.5796738 Z" id="path6175" fill="#FFE1E1"></path>
                            <path d="M19.4012238,12.5796738 C7.19532247,13.2506546 -1.40892394,17.7681051 0.19157779,22.6949417 C1.79281471,27.6214776 12.9977719,31.0749746 25.1643281,30.4203863 C37.3702294,29.7494055 45.9343955,25.2319549 44.3331585,20.3051184 C42.7326568,15.3785825 31.5670448,11.9247951 19.4012238,12.5796738" id="path6177" stroke="#000000" stroke-width="0.67880154" stroke-linejoin="round"></path>
                            <path d="M120.27414,4.61727716 C105.124219,5.48263778 94.2687112,10.7088735 96.0103611,16.2986425 C97.7520366,21.9057324 111.443441,25.7301162 126.552793,24.8823835 C141.701996,24.0170229 152.558222,18.7907872 150.816572,13.2010182 C149.074922,7.61124929 135.383492,3.76923757 120.27414,4.61727716 Z" id="path6191" stroke="#000000" stroke-width="0.68" fill="#FFE1E1"></path>
                            <path d="M61.2320309,19.1851645 C43.6674326,20.1728527 30.6046371,24.6761332 32.051838,29.2632155 C33.5392672,33.8505947 48.973318,36.7969032 66.5372034,35.809215 C84.1018017,34.8382829 97.1645717,30.3347055 95.7173963,25.7476232 C94.2299671,21.1605515 78.7959163,18.2139354 61.2320309,19.1851645 Z" id="path6179" fill="#FFE1E1"></path>
                            <path d="M61.2320309,19.1851645 C43.6674326,20.1728527 30.6046371,24.6761332 32.051838,29.2632155 C33.5392672,33.8505947 48.973318,36.7969032 66.5372034,35.809215 C84.1018017,34.8382829 97.1645717,30.3347055 95.7173963,25.7476232 C94.2299671,21.1605515 78.7959163,18.2139354 61.2320309,19.1851645" id="path6181" stroke="#000000" stroke-width="0.67880154" stroke-linejoin="round"></path>
                            <path d="M105.670523,15.6682064 C90.4729284,16.538325 79.1758924,20.5056331 80.435655,24.5600434 C81.6953917,28.6144537 95.023704,31.1896469 110.181321,30.3369553 C125.379636,29.4668367 136.676672,25.4821126 135.416909,21.4276912 C134.157172,17.3910166 120.828139,14.7980988 105.670523,15.6682064 Z" id="path6183" fill="#FFE1E1"></path>
                            <path d="M105.670523,15.6682064 C90.4729284,16.538325 79.1758924,20.5056331 80.435655,24.5600434 C81.6953917,28.6144537 95.023704,31.1896469 110.181321,30.3369553 C125.379636,29.4668367 136.676672,25.4821126 135.416909,21.4276912 C134.157172,17.3910166 120.828139,14.7980988 105.670523,15.6682064 Z" id="path6183-copy" fill="#FFE1E1"></path>
                            <path d="M105.670523,15.6682064 C90.4729284,16.538325 79.1758924,20.5056331 80.435655,24.5600434 C81.6953917,28.6144537 95.023704,31.1896469 110.181321,30.3369553 C125.379636,29.4668367 136.676672,25.4821126 135.416909,21.4276912 C134.157172,17.3910166 120.828139,14.7980988 105.670523,15.6682064" id="path6185" stroke="#000000" stroke-width="0.67880154" stroke-linejoin="round"></path>
                            <path d="M110.771215,0 C93.8222654,0 80.0867616,2.70615164 77.6756889,6.57157328 C75.2646163,10.4369949 91.4312831,14 108.380233,14 C125.329182,14 141.824402,9.40419585 139.084803,6.57157328 C136.345203,3.73895071 127.720165,0 110.771215,0 Z" id="path6187" fill="#FFE1E1"></path>
                            <path d="M108.410243,0 C91.3123625,0 77.4358974,3.36553342 77.4358974,7.5001461 C77.4358974,11.6515659 91.3123625,15 108.410243,15 C125.508124,15 139.384615,11.6515659 139.384615,7.5001461 C139.384615,3.36553342 125.508124,0 108.410243,0" id="path6189" stroke="#000000" stroke-width="0.67880154" stroke-linejoin="round"></path>
                            <path d="M117.370294,4.61727716 C102.220372,5.48263778 91.3648651,10.7088735 93.1065149,16.2986425 C94.8481904,21.9057324 108.539595,25.7301162 123.648947,24.8823835 C138.79815,24.0170229 149.654376,18.7907872 147.912726,13.2010182 C146.171076,7.61124929 132.479646,3.76923757 117.370294,4.61727716 Z" id="path6191" fill="#FFE1E1"></path>
                            <path d="M53.6853992,1.62292738 C38.5227244,2.437869 27.5756163,7.06813037 29.1978001,11.9752957 C30.8192391,16.8664223 44.4010796,20.1920789 59.5644992,19.377127 C74.6873141,18.5782138 85.6742821,13.9479524 84.0528174,9.04078708 C82.4306593,4.13363208 68.8082398,0.807686263 53.6853992,1.62292738 Z" id="path6195" fill="#FFE1E1"></path>
                            <path d="M53.6853992,1.62292738 C38.5227244,2.437869 27.5756163,7.06813037 29.1978001,11.9752957 C30.8192391,16.8664223 44.4010796,20.1920789 59.5644992,19.377127 C74.6873141,18.5782138 85.6742821,13.9479524 84.0528174,9.04078708 C82.4306593,4.13363208 68.8082398,0.807686263 53.6853992,1.62292738" id="path6197" stroke="#000000" stroke-width="0.67880154" stroke-linejoin="round"></path>
                            <path d="M29.5220637,6 C15.3393006,6 3.87179487,9.34659709 3.87179487,13.4998478 C3.87179487,17.6534029 15.3393006,21 29.5220637,21 C43.6650128,21 55.1730769,17.6534029 55.1730769,13.4998478 C55.1730769,9.34659709 43.6650128,6 29.5220637,6 Z" id="path6199" fill="#FFE1E1"></path>
                            <path d="M29.5220637,6 C15.3393006,6 3.87179487,9.34659709 3.87179487,13.4998478 C3.87179487,17.6534029 15.3393006,21 29.5220637,21 C43.6650128,21 55.1730769,17.6534029 55.1730769,13.4998478 C55.1730769,9.34659709 43.6650128,6 29.5220637,6" id="path6201" stroke="#000000" stroke-width="0.67880154" stroke-linejoin="round"></path>
                            <path d="M11.841361,23.6429712 C14.8554976,29.7070034 46.4044897,32.2281876 82.3744548,29.2456607 C118.34442,26.2793345 145.070773,18.9299707 142.056611,12.865928 C139.081987,6.78540285 107.492769,4.28071158 71.5235425,7.24674555 C35.5938026,10.2295647 8.86744947,17.5624355 11.841361,23.6429712 Z" id="path6203" fill="#FFE1E1"></path>
                        </g>
                        <text font-family="ArialMT, Arial" font-size="10" font-weight="normal" fill="#000000">
                            <tspan x="60" y="21">Internet</tspan>
                        </text>
                    </g>
                    <g id="Group-2" transform="translate(0.000000, 158.000000)">
                        <rect id="Rectangle" stroke="#979797" stroke-width="0.2" fill="#FDFDFD" x="0.1" y="0.1" width="124.8" height="45.8" rx="2"></rect>
                        <g id="Group-7" transform="translate(65.000000, 18.000000)">
                            <g id="grey-cloud-1">
                                <path d="M7.0485976,7.70086345 C2.61410997,8.11090725 -0.511871726,10.8715715 0.0696015242,13.8824161 C0.651341873,16.8930769 4.72217961,19.0035473 9.14237287,18.6035211 C13.5768605,18.1934773 16.6882807,15.432813 16.1065404,12.4219685 C15.5250671,9.41130764 11.4685238,7.30065983 7.0485976,7.70086345 Z" id="path6175" fill="#FFFFFF"></path>
                                <path d="M7.0485976,7.70086345 C2.61410997,8.11090725 -0.511871726,10.8715715 0.0696015242,13.8824161 C0.651341873,16.8930769 4.72217961,19.0035473 9.14237287,18.6035211 C13.5768605,18.1934773 16.6882807,15.432813 16.1065404,12.4219685 C15.5250671,9.41130764 11.4685238,7.30065983 7.0485976,7.70086345" id="path6177" stroke="#000000" stroke-width="0.2" stroke-linejoin="round"></path>
                                <path d="M43.739164,2.94070258 C38.1868125,3.46560849 34.2083369,6.63571118 34.8466406,10.0263239 C35.4849538,13.4274432 40.502768,15.7472179 46.0402514,15.2330046 C51.5923396,14.7080987 55.5710786,11.5379961 54.9327748,8.14738328 C54.294471,4.75677051 49.2766474,2.42630317 43.739164,2.94070258 Z" id="path6191" stroke="#000000" stroke-width="0.2" fill="#FFFFFF"></path>
                                <path d="M22.0775474,11.592864 C15.6285275,12.2041697 10.8323901,14.9913663 11.3637446,17.83043 C11.9098692,20.6696775 17.576637,22.493224 24.0253951,21.8819182 C30.4744149,21.2809833 35.270543,18.4936029 34.7391979,15.6545392 C34.1930732,12.815482 28.5263055,10.9917452 22.0775474,11.592864 Z" id="path6179" fill="#FFFFFF"></path>
                                <path d="M22.0775474,11.592864 C15.6285275,12.2041697 10.8323901,14.9913663 11.3637446,17.83043 C11.9098692,20.6696775 17.576637,22.493224 24.0253951,21.8819182 C30.4744149,21.2809833 35.270543,18.4936029 34.7391979,15.6545392 C34.1930732,12.815482 28.5263055,10.9917452 22.0775474,11.592864" id="path6181" stroke="#000000" stroke-width="0.2" stroke-linejoin="round"></path>
                                <path d="M38.4012194,9.66711633 C32.831396,10.1942317 28.6911029,12.5976154 29.152798,15.0537654 C29.6144836,17.5099155 34.4992269,19.06996 40.0543988,18.5534019 C45.6244864,18.0262866 49.7647795,15.6123523 49.3030844,13.1561956 C48.8413987,10.7107898 43.9563913,9.14000765 38.4012194,9.66711633 Z" id="path6183" fill="#FFFFFF"></path>
                                <path d="M38.4012194,9.66711633 C32.831396,10.1942317 28.6911029,12.5976154 29.152798,15.0537654 C29.6144836,17.5099155 34.4992269,19.06996 40.0543988,18.5534019 C45.6244864,18.0262866 49.7647795,15.6123523 49.3030844,13.1561956 C48.8413987,10.7107898 43.9563913,9.14000765 38.4012194,9.66711633 Z" id="path6183-copy" fill="#FFFFFF"></path>
                                <path d="M38.4012194,9.66711633 C32.831396,10.1942317 28.6911029,12.5976154 29.152798,15.0537654 C29.6144836,17.5099155 34.4992269,19.06996 40.0543988,18.5534019 C45.6244864,18.0262866 49.7647795,15.6123523 49.3030844,13.1561956 C48.8413987,10.7107898 43.9563913,9.14000765 38.4012194,9.66711633" id="path6185" stroke="#000000" stroke-width="0.2" stroke-linejoin="round"></path>
                                <path d="M40.4954664,0 C34.2993113,0 29.2779199,1.66403113 28.3964859,4.04090531 C27.515052,6.41777949 33.4252219,8.60869565 39.621377,8.60869565 C45.817532,8.60869565 51.8478135,5.78270428 50.8462775,4.04090531 C49.8447416,2.29910634 46.6916214,0 40.4954664,0 Z" id="path6187" fill="#FFFFFF"></path>
                                <path d="M39.6323482,0 C33.3817473,0 28.3088235,2.03883039 28.3088235,4.54356677 C28.3088235,7.05848484 33.3817473,9.08695652 39.6323482,9.08695652 C45.8829491,9.08695652 50.9558824,7.05848484 50.9558824,4.54356677 C50.9558824,2.03883039 45.8829491,0 39.6323482,0" id="path6189" stroke="#000000" stroke-width="0.2" stroke-linejoin="round"></path>
                                <path d="M42.9303405,2.94070258 C37.377989,3.46560849 33.3995133,6.63571118 34.0378171,10.0263239 C34.6761303,13.4274432 39.6939445,15.7472179 45.2314279,15.2330046 C50.783516,14.7080987 54.7622551,11.5379961 54.1239513,8.14738328 C53.4856475,4.75677051 48.4678239,2.42630317 42.9303405,2.94070258 Z" id="path6191" fill="#FFFFFF"></path>
                                <path d="M19.5476547,1.03164403 C13.990629,1.5296639 9.97858224,4.35926808 10.5731025,7.35809134 C11.1673497,10.3471131 16.1450095,12.3794588 21.7023081,11.8814327 C27.2447254,11.3932079 31.2713805,8.56360377 30.6771238,5.56478051 C30.082613,2.56596356 25.0900813,0.533441122 19.5476547,1.03164403 Z" id="path6195" fill="#FFFFFF"></path>
                                <path d="M19.5476547,1.03164403 C13.990629,1.5296639 9.97858224,4.35926808 10.5731025,7.35809134 C11.1673497,10.3471131 16.1450095,12.3794588 21.7023081,11.8814327 C27.2447254,11.3932079 31.2713805,8.56360377 30.6771238,5.56478051 C30.082613,2.56596356 25.0900813,0.533441122 19.5476547,1.03164403" id="path6197" stroke="#000000" stroke-width="0.2" stroke-linejoin="round"></path>
                                <path d="M10.9189827,3.82608696 C5.77600971,3.82608696 1.61764706,5.85344577 1.61764706,8.36947301 C1.61764706,10.8856847 5.77600971,12.9130435 10.9189827,12.9130435 C16.0475182,12.9130435 20.2205882,10.8856847 20.2205882,8.36947301 C20.2205882,5.85344577 16.0475182,3.82608696 10.9189827,3.82608696 Z" id="path6199" fill="#FFFFFF"></path>
                                <path d="M10.9189827,3.82608696 C5.77600971,3.82608696 1.61764706,5.85344577 1.61764706,8.36947301 C1.61764706,10.8856847 5.77600971,12.9130435 10.9189827,12.9130435 C16.0475182,12.9130435 20.2205882,10.8856847 20.2205882,8.36947301 C20.2205882,5.85344577 16.0475182,3.82608696 10.9189827,3.82608696" id="path6201" stroke="#000000" stroke-width="0.2" stroke-linejoin="round"></path>
                                <path d="M4.1266421,14.5026676 C5.22737668,18.1722949 16.7487742,19.6979804 29.8846698,17.893115 C43.0205653,16.0980533 52.7807801,11.6506123 51.6800362,7.98097863 C50.5937312,4.30137067 39.0576438,2.78566575 25.9220178,4.58055055 C12.8008121,6.38559286 3.04059738,10.8230533 4.1266421,14.5026676 Z" id="path6203" fill="#FFFFFF"></path>
                            </g>
                            <text id="WiFi-Copy" font-family="ArialMT, Arial" font-size="5" font-weight="normal" fill="#000000">
                                <tspan x="25" y="12">WiFi</tspan>
                            </text>
                        </g>
                        <g id="AdobeStock_483530275" transform="translate(58.000000, 5.000000)" stroke="#000000">
                            <path d="M22.1251962,14.5381898 L20.1550235,14.5381898 L20.1550235,5.47196775 C20.1550235,5.21130716 19.935383,5 19.6644427,5 C19.3935024,5 19.1738619,5.21130716 19.1738619,5.47196775 L19.1738619,14.5381898 L2.86989796,14.5381898 C1.28478534,14.5423693 0.00163697049,15.778944 0,17.3039209 L0,19.234269 C0.00163966133,20.7592448 1.28478646,21.995818 2.86989796,22 L22.1251962,22 C23.7119867,21.9978657 24.9977815,20.7608551 25,19.234269 L25,17.3039209 C24.9977842,15.7773336 23.7119878,14.5403215 22.1251962,14.5381898 Z M21.9338697,18.7387028 L14.2611852,18.7387028 C13.9902449,18.7387028 13.7706044,18.5273957 13.7706044,18.2667351 C13.7706044,18.0060745 13.9902449,17.7947673 14.2611852,17.7947673 L21.9338697,17.7947673 C22.20481,17.7947673 22.4244505,18.0060745 22.4244505,18.2667351 C22.4244505,18.5273957 22.20481,18.7387028 21.9338697,18.7387028 Z M9.52217425,18.2667351 C9.52217425,18.511756 9.31571216,18.7103848 9.06102826,18.7103848 C8.80634436,18.7103848 8.59988226,18.511756 8.59988226,18.2667351 C8.59988226,18.0217141 8.80634436,17.8230854 9.06102826,17.8230854 C9.31559,17.8233689 9.52187958,18.0218316 9.52217425,18.2667351 Z M6.83869702,18.2667351 C6.83968886,18.447555 6.72710179,18.6110577 6.55364569,18.680696 C6.38018959,18.7503343 6.18019391,18.7123259 6.04729064,18.5844651 C5.91438738,18.4566043 5.87487998,18.2641966 5.94726464,18.0973216 C6.01964929,17.9304466 6.18960003,17.8221312 6.37755102,17.8230854 C6.63211277,17.8233689 6.83840235,18.0218316 6.83869702,18.2667351 Z M3.68916797,17.8230854 C3.87711896,17.8221312 4.0470697,17.9304466 4.11945436,18.0973216 C4.19183901,18.2641966 4.15233162,18.4566043 4.01942835,18.5844651 C3.88652508,18.7123259 3.68652941,18.7503343 3.51307331,18.680696 C3.3396172,18.6110577 3.22703013,18.447555 3.22802198,18.2667351 C3.22789162,18.1490335 3.27643464,18.0361165 3.36294456,17.9528889 C3.44945449,17.8696612 3.56682454,17.82296 3.68916797,17.8230854 Z" id="Shape" stroke-width="0.2" fill="#FFFFFF" fill-rule="nonzero"></path>
                            <path d="M16.5434347,6.85946569 C16.6109491,6.98066867 16.7093537,7.02800428 16.8015804,6.98364165 C16.8938072,6.93927902 16.9658446,6.8099579 16.990557,6.64439229 C17.0152694,6.47882669 16.9889023,6.30216995 16.9213879,6.18096697 C16.4056192,5.2518085 16.4056192,3.74878677 16.9213879,2.8196283 C16.9890987,2.69849586 17.0156148,2.5216645 16.9909275,2.35588007 C16.9662402,2.19009565 16.8941092,2.06060577 16.8017608,2.01628702 C16.7094123,1.97196826 16.6109103,2.01957003 16.5434347,2.14112478 C15.8188551,3.44495459 15.8188551,5.55563589 16.5434347,6.85946569 Z" id="Path" stroke-width="0.1"></path>
                            <path d="M15.2872683,7.86846723 C15.4505417,8.04409027 15.7141849,8.04380809 15.8771373,7.86783589 C16.0400898,7.69186369 16.0410756,7.40637316 15.879343,7.22908622 C14.4885632,5.72135939 14.4885632,3.27864061 15.879343,1.77091378 C16.0410756,1.59362684 16.0400898,1.30813631 15.8771373,1.13216411 C15.7141849,0.956191908 15.4505417,0.955909727 15.2872683,1.13153277 C13.5709106,2.99261201 13.5709106,6.00738799 15.2872683,7.86846723 Z" id="Path" stroke-width="0.1"></path>
                            <path d="M14.6637622,9.99999967 C14.7997605,9.99995865 14.9223546,9.88420327 14.9743949,9.70669514 C15.0264353,9.52918701 14.9976769,9.32487129 14.9015262,9.1889937 C14.1146768,8.07811521 13.6725853,6.57099669 13.6725853,4.99945421 C13.6725853,3.42791173 14.1146768,1.92079321 14.9015262,0.809914721 C15.0321375,0.624226841 15.0318053,0.324259444 14.9007835,0.139149733 C14.7697616,-0.0459599772 14.5574323,-0.0464440419 14.4259882,0.138067303 C13.5129748,1.42709611 13,3.17589075 13,4.99943758 C13,6.82298442 13.5129748,8.57177905 14.4259882,9.86080786 C14.4889789,9.95005402 14.5745517,10.0001479 14.6637622,9.99999967 Z" id="Path" stroke-width="0.1"></path>
                            <path d="M22.0783281,6.85941046 C22.1284539,6.9494259 22.1964547,7 22.2673617,7 C22.3382688,7 22.4062696,6.9494259 22.4563953,6.85941046 C23.1812016,5.55543564 23.1812016,3.44451167 22.4563953,2.14053685 C22.3519942,1.95315345 22.1827272,1.95315452 22.0783268,2.14053925 C21.9739264,2.32792397 21.973927,2.63173357 22.0783281,2.81911697 C22.5942561,3.74838035 22.5942561,5.25157177 22.0783281,6.18083514 C22.0281768,6.27080413 22,6.39285543 22,6.5201228 C22,6.64739018 22.0281768,6.76944148 22.0783281,6.85941046 Z" id="Path" stroke-width="0.1"></path>
                            <path d="M25.1649109,4.49847751 C25.1668802,5.52188692 24.7919364,6.5038236 24.1232855,7.22638062 C24.0171267,7.34067937 23.9755159,7.50781667 24.0142142,7.66448612 C24.0529125,7.82115558 24.1660018,7.94339854 24.3106474,7.98491319 C24.455293,8.02642784 24.6093751,7.98086556 24.7145321,7.86548392 C26.4284893,6.00521303 26.4284893,2.99174652 24.7145321,1.13147563 C24.5514871,0.955928878 24.2882127,0.956210936 24.1254881,1.1321067 C23.9627636,1.30800247 23.9617791,1.593369 24.1232855,1.77057893 C24.7920831,2.49302772 25.1670534,3.47503233 25.1649109,4.49847751 Z" id="Path" stroke-width="0.1"></path>
                            <path d="M25.5740814,0.139125179 C25.4427532,-0.0463759872 25.2298288,-0.0463749237 25.0985015,0.139127554 C24.9671742,0.324630032 24.9671749,0.625387909 25.0985032,0.810889075 C25.8853044,1.92172664 26.3273562,3.42866219 26.3273562,4.99999661 C26.3273562,6.57133103 25.8853044,8.07826658 25.0985032,9.18910415 C25.0135493,9.30910236 24.980371,9.48400357 25.0114663,9.64792418 C25.0425616,9.8118448 25.1332063,9.93988137 25.2492554,9.98380376 C25.3653046,10.0277262 25.4891276,9.98086151 25.5740814,9.86086329 C26.4870581,8.57189625 27,6.82330858 27,4.99999424 C27,3.17667989 26.4870581,1.42809222 25.5740814,0.139125179 Z" id="Path" stroke-width="0.1"></path>
                        </g>
                        <g id="Group-6" transform="translate(6.000000, 23.000000)">
                            <g id="Group-15" transform="translate(22.000000, 4.000000) scale(-1, -1) rotate(-180.000000) translate(-22.000000, -4.000000) " stroke="#979797" stroke-width="0.1">
                                <path d="M0.633291615,7.77239239 C0.264338335,7.22327718 5.68434189e-14,5.7416251 5.68434189e-14,4 C5.68434189e-14,2.2583749 0.264338335,0.776722821 0.633291615,0.22760761 L0.633291615,0 L43.0638298,0 L43.0638298,8 L0.633291615,8 L0.633291615,7.77239239 Z" id="Combined-Shape" fill="#FFFFFF"></path>
                                <ellipse id="Oval" fill="#EDEDED" cx="43.0638298" cy="4" rx="1" ry="4"></ellipse>
                            </g>
                            <text id="LAN" font-family="ArialMT, Arial" font-size="5" font-weight="normal" fill="#000000">
                                <tspan x="18" y="6">LAN</tspan>
                            </text>
                        </g>
                    </g>
                    <path d="" id="Path-3" stroke="#979797"></path>
                    <path d="M101.741598,92 L71.0901197,34.7103848" id="Path-4" stroke="#979797"></path>
                    <path d="M102.651478,122.289615 L65,164" id="Path-4" stroke="#979797"></path>
                    <path d="M126.578947,122 L149.692635,154" id="Path-4-Copy" stroke="#979797"></path>
                    <path d="M123.568182,123 L149.692635,167.839565" id="Path-4-Copy-2" stroke="#979797"></path>
                    <path d="M166.711861,106.560897 C147.913226,107.411707 120.769447,105.452979 115.589816,96.0207486 C112.136728,89.7325951 112.136728,58.2241679 115.589816,1.49546709" id="Path-5" stroke="#979797"></path>
                    <path d="M167.021313,88.0011056 C159.542117,88.0011056 156.258022,91.3145048 151.544385,95.0220418 C146.830748,98.7295789 125.725786,102.493503 120.752764,94.0961785 C117.437417,88.4979622 118.333737,57.3671071 123.441726,0.703613281" id="Path-5" stroke="#979797"></path>
                    <text id="vlan100---192.168.1/" font-family="ArialMT, Arial" font-size="5" font-weight="normal" fill="#000000">
                        <tspan x="2" y="155">vlan100 - 192.168.1/22</tspan>
                    </text>
                    <text id="vlan6-(ppp)" font-family="ArialMT, Arial" font-size="5" font-weight="normal" fill="#000000">
                        <tspan x="70" y="63">vlan6</tspan>
                        <tspan x="70" y="69">(ppp)</tspan>
                    </text>
                    <text id="vlan100-192.168.1.1/" font-family="ArialMT, Arial" font-size="5" font-weight="normal" fill="#000000">
                        <tspan x="73.4853516" y="127">vlan100</tspan>
                        <tspan x="57.6357422" y="133">192.168.1.1/22</tspan>
                    </text>
                    <text id="OpenVPN-Access-Serve" font-family="Arial-BoldMT, Arial" font-size="5" font-weight="bold" fill="#000000">
                        <tspan x="170" y="105">OpenVPN</tspan>
                        <tspan x="170" y="111">Access </tspan>
                        <tspan x="170" y="117">Server</tspan>
                    </text>
                    <text id="knockd" font-family="Arial-BoldMT, Arial" font-size="5" font-weight="bold" fill="#000000">
                        <tspan x="171" y="87">knockd</tspan>
                    </text>
                    <g id="Group-6" transform="translate(151.000000, 151.000000)">
                        <g id="Group-15" transform="translate(23.500000, 4.000000) scale(-1, -1) rotate(-180.000000) translate(-23.500000, -4.000000) " stroke="#979797" stroke-width="0.1">
                            <path d="M0.676470588,7.77239239 C0.282361403,7.22327718 5.68434189e-14,5.7416251 5.68434189e-14,4 C5.68434189e-14,2.2583749 0.282361403,0.776722821 0.676470588,0.22760761 L0.676470588,0 L46,0 L46,8 L0.676470588,8 L0.676470588,7.77239239 Z" id="Combined-Shape" fill="#FFFFFF"></path>
                            <ellipse id="Oval" fill="#EDEDED" cx="46" cy="4" rx="1" ry="4"></ellipse>
                        </g>
                        <text id="vlanX" font-family="ArialMT, Arial" font-size="5" font-weight="normal" fill="#000000">
                            <tspan x="17" y="5">vlanX</tspan>
                        </text>
                    </g>
                    <g id="Group-6-Copy" transform="translate(151.000000, 164.000000)" stroke="#979797" stroke-width="0.1">
                        <g id="Group-15" transform="translate(23.500000, 4.000000) scale(-1, -1) rotate(-180.000000) translate(-23.500000, -4.000000) ">
                            <path d="M0.676470588,7.77239239 C0.282361403,7.22327718 5.68434189e-14,5.7416251 5.68434189e-14,4 C5.68434189e-14,2.2583749 0.282361403,0.776722821 0.676470588,0.22760761 L0.676470588,0 L46,0 L46,8 L0.676470588,8 L0.676470588,7.77239239 Z" id="Combined-Shape" fill="#FFFFFF"></path>
                            <ellipse id="Oval" fill="#EDEDED" cx="46" cy="4" rx="1" ry="4"></ellipse>
                        </g>
                    </g>
                    <text id="vlanY" font-family="ArialMT, Arial" font-size="5" font-weight="normal" fill="#000000">
                        <tspan x="168" y="169">vlanY</tspan>
                    </text>
                    <g id="Group-3" transform="translate(92.000000, 93.000000)">
                        <g id="1592651906router-symbol" stroke="#7D7D7D" stroke-width="0.2">
                            <polygon id="path1212" fill="url(#linearGradient-2)" points="0.0713156577 9 44.9559002 9.17134993 45 19.8716274 44.9667002 20.4249917 44.7662711 21.1853284 44.3900729 22.0617262 43.7994958 22.8327369 42.8151165 23.7965734 41.5389586 24.7211502 39.9340863 25.5921744 37.9829317 26.4256935 35.3936801 27.2967178 32.913436 27.9250191 28.5275771 28.6265029 25.0893056 28.9442542 22.9377399 29 18.5976007 28.8518623 14.0835824 28.3306661 11.0197451 27.6274277 9.24084964 27.1669122 7.52700587 26.6296319 5.75865836 25.8692952 4.31726128 25.148145 2.64031733 24.0736576 1.60143431 23.129451 1.05297695 22.4637177 0.471147738 21.4998812 0.177569148 20.8163092 0 19.8721026"></polygon>
                            <path d="M45,9 C45,13.97124 34.92612,18 22.5,18 C10.07388,18 0,13.97124 0,9 C0,4.03056 10.07388,0 22.5,0 C34.92612,0 45,4.03056 45,9" id="path1214" fill="#BDBDBD"></path>
                            <polygon id="path1216" fill="#FFFFFF" points="8 4.15045615 11.0002586 3 18.7311935 6.21463975 22 5.02384886 20.5381302 8 12.11546 7.95959342 14.461268 7.04766181"></polygon>
                            <polygon id="path1218" fill="#FFFFFF" points="26.7313188 11.9709842 23 12.9919533 24.4618916 10 33.7313536 10.109668 30.2311969 11.130637 37 13.9048399 34.1153125 15"></polygon>
                            <polygon id="path1220" fill="#FFFFFF" points="23 6.86101183 30.1551259 4.06607296 26.3954917 3.07321473 36.1808611 3 38 5.83068096 34.6833753 4.91256831 26.3560399 8"></polygon>
                            <polygon id="path1222" fill="#FFFFFF" points="15.117134 13.0951431 17.7812613 14 8.98883089 13.9278424 7 10.9570465 10.6593711 12.1165543 18.7380062 9 22 10.196341"></polygon>
                        </g>
                        <text id="muro" font-family="Arial-BoldMT, Arial" font-size="7" font-weight="bold" fill="#000000">
                            <tspan x="13.75" y="26">muro</tspan>
                        </text>
                    </g>
                    <path d="M166.711861,106.560897 C147.913226,107.411707 120.769447,105.452979 115.589816,96.0207486 C112.136728,89.7325951 112.136728,58.2241679 115.589816,1.49546709" id="Path-5" stroke="#979797" stroke-dasharray="1"></path>
                    <path d="M167.021313,88.0011056 C159.542117,88.0011056 156.258022,91.3145048 151.544385,95.0220418 C146.830748,98.7295789 125.725786,102.493503 120.752764,94.0961785 C117.437417,88.4979622 118.333737,57.3671071 123.441726,0.703613281" id="Path-5" stroke="#979797" stroke-dasharray="1"></path>
                    <text id="tun0" font-family="ArialMT, Arial" font-size="5" font-weight="normal" fill="#000000">
                        <tspan x="157" y="105">tun0</tspan>
                    </text>
                    <text id="vlanX-192.168.X.1/24" font-family="ArialMT, Arial" font-size="5" font-weight="normal" fill="#000000">
                        <tspan x="138" y="128">vlanX</tspan>
                        <tspan x="138" y="134">192.168.X.1/24</tspan>
                    </text>
                    <text id="vlanY-192.168.Y.1/24" font-family="ArialMT, Arial" font-size="5" font-weight="normal" fill="#000000">
                        <tspan x="116.492676" y="140">vlanY</tspan>
                        <tspan x="95.7260742" y="146">192.168.Y.1/24</tspan>
                    </text>
                </g>
            </g>
        </g>
    </g>
</svg>