<?xml version="1.0" encoding="UTF-8"?>
<svg width="307px" height="240px" viewBox="0 0 307 240" version="1.1" xmlns="http://www.w3.org/2000/svg" xmlns:xlink="http://www.w3.org/1999/xlink">
    <!-- Generator: Sketch 52.6 (67491) - http://www.bohemiancoding.com/sketch -->
    <title>2023-04-15-networking-avanzado-08</title>
    <desc>Created with Sketch.</desc>
    <defs>
        <linearGradient x1="50%" y1="0%" x2="50%" y2="50%" id="linearGradient-1">
            <stop stop-color="#FFCFCF" offset="0%"></stop>
            <stop stop-color="#E3FFCA" offset="100%"></stop>
        </linearGradient>
        <linearGradient x1="100%" y1="41.6660094%" x2="0%" y2="41.6660094%" id="linearGradient-2">
            <stop stop-color="#E0E0E0" offset="0%"></stop>
            <stop stop-color="#BDBDBD" offset="100%"></stop>
        </linearGradient>
        <linearGradient x1="50%" y1="0%" x2="50%" y2="100%" id="linearGradient-3">
            <stop stop-color="#F9F1D3" offset="0%"></stop>
            <stop stop-color="#F8B28B" offset="100%"></stop>
        </linearGradient>
    </defs>
    <g id="Networking" stroke="none" stroke-width="1" fill="none" fill-rule="evenodd">
        <g id="ISP-Copy" transform="translate(-49.000000, -570.000000)">
            <g id="2023-04-15-networking-avanzado-08" transform="translate(49.000000, 570.000000)">
                <rect id="Rectangle" stroke="#979797" stroke-width="0.5" fill="#FFFFFF" x="0.25" y="0.25" width="306.5" height="239.5"></rect>
                <g id="Paso-2" transform="translate(166.000000, 10.000000)">
                    <rect id="Rectangle" stroke="#000000" stroke-width="0.1" fill="url(#linearGradient-1)" x="34.05" y="88.05" width="88.9" height="76.9" rx="2"></rect>
                    <g id="Internet" transform="translate(0.000000, 33.000000)">
                        <g id="Nube-internet">
                            <path d="M11.4351584,12.5796738 C4.24095166,13.2506546 -0.830425371,17.7681051 0.112916711,22.6949417 C1.05669211,27.6214776 7.66093839,31.0749746 14.8319549,30.4203863 C22.0261617,29.7494055 27.0739152,25.2319549 26.1301398,20.3051184 C25.1867977,15.3785825 18.6057417,11.9247951 11.4351584,12.5796738 Z" id="path6175" fill="#FFE1E1"></path>
                            <path d="M11.4351584,12.5796738 C4.24095166,13.2506546 -0.830425371,17.7681051 0.112916711,22.6949417 C1.05669211,27.6214776 7.66093839,31.0749746 14.8319549,30.4203863 C22.0261617,29.7494055 27.0739152,25.2319549 26.1301398,20.3051184 C25.1867977,15.3785825 18.6057417,11.9247951 11.4351584,12.5796738" id="path6177" stroke="#000000" stroke-width="0.67880154" stroke-linejoin="round"></path>
                            <path d="M70.8900559,4.61727716 C61.9606322,5.48263778 55.562353,10.7088735 56.5888883,16.2986425 C57.6154388,21.9057324 65.6852068,25.7301162 74.5907193,24.8823835 C83.5197195,24.0170229 89.9184222,18.7907872 88.8918868,13.2010182 C87.8653515,7.61124929 79.7955683,3.76923757 70.8900559,4.61727716 Z" id="path6191" stroke="#000000" stroke-width="0.68" fill="#FFE1E1"></path>
                            <path d="M36.0904023,19.1851645 C25.7377583,20.1728527 18.0384947,24.6761332 18.8914807,29.2632155 C19.7681773,33.8505947 28.8650682,36.7969032 39.2172921,35.809215 C49.5699361,34.8382829 57.2691846,30.3347055 56.4162137,25.7476232 C55.539517,21.1605515 46.4426262,18.2139354 36.0904023,19.1851645 Z" id="path6179" fill="#FFE1E1"></path>
                            <path d="M36.0904023,19.1851645 C25.7377583,20.1728527 18.0384947,24.6761332 18.8914807,29.2632155 C19.7681773,33.8505947 28.8650682,36.7969032 39.2172921,35.809215 C49.5699361,34.8382829 57.2691846,30.3347055 56.4162137,25.7476232 C55.539517,21.1605515 46.4426262,18.2139354 36.0904023,19.1851645" id="path6181" stroke="#000000" stroke-width="0.67880154" stroke-linejoin="round"></path>
                            <path d="M62.2826259,15.6682064 C53.3251035,16.538325 46.6665856,20.5056331 47.4090946,24.5600434 C48.1515885,28.6144537 56.0073487,31.1896469 64.9413083,30.3369553 C73.8992555,29.4668367 80.5577734,25.4821126 79.8152644,21.4276912 C79.0727705,17.3910166 71.2165855,14.7980988 62.2826259,15.6682064 Z" id="path6183" fill="#FFE1E1"></path>
                            <path d="M62.2826259,15.6682064 C53.3251035,16.538325 46.6665856,20.5056331 47.4090946,24.5600434 C48.1515885,28.6144537 56.0073487,31.1896469 64.9413083,30.3369553 C73.8992555,29.4668367 80.5577734,25.4821126 79.8152644,21.4276912 C79.0727705,17.3910166 71.2165855,14.7980988 62.2826259,15.6682064 Z" id="path6183-copy" fill="#FFE1E1"></path>
                            <path d="M62.2826259,15.6682064 C53.3251035,16.538325 46.6665856,20.5056331 47.4090946,24.5600434 C48.1515885,28.6144537 56.0073487,31.1896469 64.9413083,30.3369553 C73.8992555,29.4668367 80.5577734,25.4821126 79.8152644,21.4276912 C79.0727705,17.3910166 71.2165855,14.7980988 62.2826259,15.6682064" id="path6185" stroke="#000000" stroke-width="0.67880154" stroke-linejoin="round"></path>
                            <path d="M65.2889943,0 C55.299216,0 47.2034555,2.70615164 45.7823597,6.57157328 C44.3612639,10.4369949 53.8899616,14 63.8797399,14 C73.8695182,14 83.5918661,9.40419585 81.9771353,6.57157328 C80.3624045,3.73895071 75.2787726,0 65.2889943,0 Z" id="path6187" fill="#FFE1E1"></path>
                            <path d="M63.8974282,0 C53.8198693,0 45.6410256,3.36553342 45.6410256,7.5001461 C45.6410256,11.6515659 53.8198693,15 63.8974282,15 C73.9749871,15 82.1538462,11.6515659 82.1538462,7.5001461 C82.1538462,3.36553342 73.9749871,0 63.8974282,0" id="path6189" stroke="#000000" stroke-width="0.67880154" stroke-linejoin="round"></path>
                            <path d="M69.1785174,4.61727716 C60.2490937,5.48263778 53.8508145,10.7088735 54.8773499,16.2986425 C55.9039003,21.9057324 63.9736684,25.7301162 72.8791808,24.8823835 C81.808181,24.0170229 88.2068837,18.7907872 87.1803484,13.2010182 C86.153813,7.61124929 78.0840299,3.76923757 69.1785174,4.61727716 Z" id="path6191" fill="#FFE1E1"></path>
                            <path d="M31.6423876,1.62292738 C22.7054468,2.437869 16.2531778,7.06813037 17.2092994,11.9752957 C18.164982,16.8664223 26.1701727,20.1920789 35.1075525,19.377127 C44.0209997,18.5782138 50.4967623,13.9479524 49.5410646,9.04078708 C48.5849581,4.13363208 40.55585,0.807686263 31.6423876,1.62292738 Z" id="path6195" fill="#FFE1E1"></path>
                            <path d="M31.6423876,1.62292738 C22.7054468,2.437869 16.2531778,7.06813037 17.2092994,11.9752957 C18.164982,16.8664223 26.1701727,20.1920789 35.1075525,19.377127 C44.0209997,18.5782138 50.4967623,13.9479524 49.5410646,9.04078708 C48.5849581,4.13363208 40.55585,0.807686263 31.6423876,1.62292738" id="path6197" stroke="#000000" stroke-width="0.67880154" stroke-linejoin="round"></path>
                            <path d="M17.4004216,6 C9.04104474,6 2.28205128,9.34659709 2.28205128,13.4998478 C2.28205128,17.6534029 9.04104474,21 17.4004216,21 C25.736332,21 32.5192308,17.6534029 32.5192308,13.4998478 C32.5192308,9.34659709 25.736332,6 17.4004216,6 Z" id="path6199" fill="#FFE1E1"></path>
                            <path d="M17.4004216,6 C9.04104474,6 2.28205128,9.34659709 2.28205128,13.4998478 C2.28205128,17.6534029 9.04104474,21 17.4004216,21 C25.736332,21 32.5192308,17.6534029 32.5192308,13.4998478 C32.5192308,9.34659709 25.736332,6 17.4004216,6" id="path6201" stroke="#000000" stroke-width="0.67880154" stroke-linejoin="round"></path>
                            <path d="M6.97934521,23.6429712 C8.75588932,29.7070034 27.3509906,32.2281876 48.551831,29.2456607 C69.7526714,26.2793345 85.5052901,18.9299707 83.7287309,12.865928 C81.9754755,6.78540285 63.3566654,4.28071158 42.1562602,7.24674555 C20.9791287,10.2295647 5.22650995,17.5624355 6.97934521,23.6429712 Z" id="path6203" fill="#FFE1E1"></path>
                        </g>
                        <text font-family="ArialMT, Arial" font-size="10" font-weight="normal" fill="#000000">
                            <tspan x="15" y="21">Internet</tspan>
                        </text>
                    </g>
                    <path d="" id="Path-3" stroke="#979797"></path>
                    <text id="knockd" font-family="Arial-BoldMT, Arial" font-size="5" font-weight="bold" fill="#000000">
                        <tspan x="100" y="100">knockd</tspan>
                    </text>
                    <text id="iptables-activa-DNAT" font-family="Arial-BoldMT, Arial" font-size="5" font-weight="bold" fill="#000000">
                        <tspan x="55" y="146">iptables activa DNAT </tspan>
                        <tspan x="55" y="152">puerto 8123 hacia </tspan>
                        <tspan x="55" y="158">server interno</tspan>
                    </text>
                    <text id="knock,-nkock,-nkock" font-family="Arial-BoldMT, Arial" font-size="5" font-weight="bold" fill="#000000">
                        <tspan x="59" y="5">knock, </tspan>
                        <tspan x="59" y="11">nkock, </tspan>
                        <tspan x="59" y="17">nkock</tspan>
                    </text>
                    <g id="Group-3" transform="translate(55.000000, 104.000000)">
                        <g id="1592651906router-symbol" stroke="#7D7D7D" stroke-width="0.2">
                            <polygon id="path1212" fill="url(#linearGradient-2)" points="0.0713156577 9 44.9559002 9.17134993 45 19.8716274 44.9667002 20.4249917 44.7662711 21.1853284 44.3900729 22.0617262 43.7994958 22.8327369 42.8151165 23.7965734 41.5389586 24.7211502 39.9340863 25.5921744 37.9829317 26.4256935 35.3936801 27.2967178 32.913436 27.9250191 28.5275771 28.6265029 25.0893056 28.9442542 22.9377399 29 18.5976007 28.8518623 14.0835824 28.3306661 11.0197451 27.6274277 9.24084964 27.1669122 7.52700587 26.6296319 5.75865836 25.8692952 4.31726128 25.148145 2.64031733 24.0736576 1.60143431 23.129451 1.05297695 22.4637177 0.471147738 21.4998812 0.177569148 20.8163092 0 19.8721026"></polygon>
                            <path d="M45,9 C45,13.97124 34.92612,18 22.5,18 C10.07388,18 0,13.97124 0,9 C0,4.03056 10.07388,0 22.5,0 C34.92612,0 45,4.03056 45,9" id="path1214" fill="#BDBDBD"></path>
                            <polygon id="path1216" fill="#FFFFFF" points="8 4.15045615 11.0002586 3 18.7311935 6.21463975 22 5.02384886 20.5381302 8 12.11546 7.95959342 14.461268 7.04766181"></polygon>
                            <polygon id="path1218" fill="#FFFFFF" points="26.7313188 11.9709842 23 12.9919533 24.4618916 10 33.7313536 10.109668 30.2311969 11.130637 37 13.9048399 34.1153125 15"></polygon>
                            <polygon id="path1220" fill="#FFFFFF" points="23 6.86101183 30.1551259 4.06607296 26.3954917 3.07321473 36.1808611 3 38 5.83068096 34.6833753 4.91256831 26.3560399 8"></polygon>
                            <polygon id="path1222" fill="#FFFFFF" points="15.117134 13.0951431 17.7812613 14 8.98883089 13.9278424 7 10.9570465 10.6593711 12.1165543 18.7380062 9 22 10.196341"></polygon>
                        </g>
                        <text id="muro" font-family="Arial-BoldMT, Arial" font-size="7" font-weight="bold" fill="#000000">
                            <tspan x="13.75" y="26">muro</tspan>
                        </text>
                    </g>
                    <path d="M115.164208,117.937629 C107.685012,117.937629 104.793481,118.8 99.7252889,122 C94.6570973,125.2 73.9303568,126.334953 68.9573354,117.937629 C65.6419879,112.339412 66.5383083,81.2085572 71.6462969,24.5450634" id="Path-5-Copy-2" stroke="#979797" stroke-dasharray="1"></path>
                    <path d="M115.164208,110.892042 C103.993701,110.892042 100.346918,116.780531 94.3297442,118 C88.3125701,119.219469 78.9303568,120.78989 73.9573354,112.392565 C70.6419879,106.794349 71.5383083,75.6634938 76.6462969,19" id="Path-5-Copy-3" stroke="#979797" stroke-dasharray="1"></path>
                    <path d="M114.788626,104.558233 C103.656242,104 101.744899,109 93.1025903,113.138035 C84.4602821,117.27607 78.1206549,110.892042 77.2614723,100.755511 C76.6886838,93.9978236 78.150292,64.5943411 81.6462969,12.5450634" id="Path-5-Copy-4" stroke="#979797" stroke-dasharray="1"></path>
                    <g id="Group-6" transform="translate(46.500000, 127.500000) rotate(-90.000000) translate(-46.500000, -127.500000) translate(-20.000000, 123.000000)">
                        <g id="Group-15" transform="translate(66.500000, 4.500000) scale(-1, -1) rotate(-180.000000) translate(-66.500000, -4.500000) translate(0.000000, 0.000000)">
                            <path d="M0.343784226,4.54555707 L113.858662,4.54555707" id="Path-6" stroke="#000000" stroke-width="2"></path>
                            <path d="M23.1029412,8.27239239 C22.1690738,7.72327718 21.5,6.2416251 21.5,4.5 C21.5,2.7583749 22.1690738,1.27672282 23.1029412,0.72760761 L23.1029412,0.5 L130.5,0.5 L130.5,8.5 L23.1029412,8.5 L23.1029412,8.27239239 Z" id="Combined-Shape" stroke="#979797" stroke-width="0.1" fill="#FFFFFF"></path>
                            <ellipse id="Oval" stroke="#979797" stroke-width="0.1" fill="#EDEDED" cx="130" cy="4.5" rx="2.5" ry="4"></ellipse>
                        </g>
                        <text id="Apertura-puerto-8123" font-family="ArialMT, Arial" font-size="5" font-weight="normal" fill="#000000">
                            <tspan x="51" y="6">Apertura puerto 8123</tspan>
                        </text>
                    </g>
                    <rect id="Rectangle" fill="url(#linearGradient-3)" x="38" y="189" width="83" height="26" rx="7"></rect>
                    <text id="HASS-hass.parchis.or" font-family="Arial-BoldMT, Arial" font-size="5" font-weight="bold" fill="#000000">
                        <tspan x="45" y="200">HASS</tspan>
                        <tspan x="45" y="206">hass.parchis.org:8123</tspan>
                    </text>
                    <text id="iptables-activa-DNAT" font-family="Arial-BoldMT, Arial" font-size="5" font-weight="bold" fill="#000000">
                        <tspan x="55" y="146">iptables activa DNAT </tspan>
                        <tspan x="55" y="152">puerto 8123 hacia </tspan>
                        <tspan x="55" y="158">server interno</tspan>
                    </text>
                </g>
                <g id="Paso-1" transform="translate(13.000000, 55.000000)">
                    <rect id="Rectangle" stroke="#000000" stroke-width="0.1" fill="url(#linearGradient-1)" x="34.05" y="88.05" width="88.9" height="59.9" rx="2"></rect>
                    <g id="Internet" transform="translate(0.000000, 33.000000)">
                        <g id="Nube-internet">
                            <path d="M11.4351584,12.5796738 C4.24095166,13.2506546 -0.830425371,17.7681051 0.112916711,22.6949417 C1.05669211,27.6214776 7.66093839,31.0749746 14.8319549,30.4203863 C22.0261617,29.7494055 27.0739152,25.2319549 26.1301398,20.3051184 C25.1867977,15.3785825 18.6057417,11.9247951 11.4351584,12.5796738 Z" id="path6175" fill="#FFE1E1"></path>
                            <path d="M11.4351584,12.5796738 C4.24095166,13.2506546 -0.830425371,17.7681051 0.112916711,22.6949417 C1.05669211,27.6214776 7.66093839,31.0749746 14.8319549,30.4203863 C22.0261617,29.7494055 27.0739152,25.2319549 26.1301398,20.3051184 C25.1867977,15.3785825 18.6057417,11.9247951 11.4351584,12.5796738" id="path6177" stroke="#000000" stroke-width="0.67880154" stroke-linejoin="round"></path>
                            <path d="M70.8900559,4.61727716 C61.9606322,5.48263778 55.562353,10.7088735 56.5888883,16.2986425 C57.6154388,21.9057324 65.6852068,25.7301162 74.5907193,24.8823835 C83.5197195,24.0170229 89.9184222,18.7907872 88.8918868,13.2010182 C87.8653515,7.61124929 79.7955683,3.76923757 70.8900559,4.61727716 Z" id="path6191" stroke="#000000" stroke-width="0.68" fill="#FFE1E1"></path>
                            <path d="M36.0904023,19.1851645 C25.7377583,20.1728527 18.0384947,24.6761332 18.8914807,29.2632155 C19.7681773,33.8505947 28.8650682,36.7969032 39.2172921,35.809215 C49.5699361,34.8382829 57.2691846,30.3347055 56.4162137,25.7476232 C55.539517,21.1605515 46.4426262,18.2139354 36.0904023,19.1851645 Z" id="path6179" fill="#FFE1E1"></path>
                            <path d="M36.0904023,19.1851645 C25.7377583,20.1728527 18.0384947,24.6761332 18.8914807,29.2632155 C19.7681773,33.8505947 28.8650682,36.7969032 39.2172921,35.809215 C49.5699361,34.8382829 57.2691846,30.3347055 56.4162137,25.7476232 C55.539517,21.1605515 46.4426262,18.2139354 36.0904023,19.1851645" id="path6181" stroke="#000000" stroke-width="0.67880154" stroke-linejoin="round"></path>
                            <path d="M62.2826259,15.6682064 C53.3251035,16.538325 46.6665856,20.5056331 47.4090946,24.5600434 C48.1515885,28.6144537 56.0073487,31.1896469 64.9413083,30.3369553 C73.8992555,29.4668367 80.5577734,25.4821126 79.8152644,21.4276912 C79.0727705,17.3910166 71.2165855,14.7980988 62.2826259,15.6682064 Z" id="path6183" fill="#FFE1E1"></path>
                            <path d="M62.2826259,15.6682064 C53.3251035,16.538325 46.6665856,20.5056331 47.4090946,24.5600434 C48.1515885,28.6144537 56.0073487,31.1896469 64.9413083,30.3369553 C73.8992555,29.4668367 80.5577734,25.4821126 79.8152644,21.4276912 C79.0727705,17.3910166 71.2165855,14.7980988 62.2826259,15.6682064 Z" id="path6183-copy" fill="#FFE1E1"></path>
                            <path d="M62.2826259,15.6682064 C53.3251035,16.538325 46.6665856,20.5056331 47.4090946,24.5600434 C48.1515885,28.6144537 56.0073487,31.1896469 64.9413083,30.3369553 C73.8992555,29.4668367 80.5577734,25.4821126 79.8152644,21.4276912 C79.0727705,17.3910166 71.2165855,14.7980988 62.2826259,15.6682064" id="path6185" stroke="#000000" stroke-width="0.67880154" stroke-linejoin="round"></path>
                            <path d="M65.2889943,0 C55.299216,0 47.2034555,2.70615164 45.7823597,6.57157328 C44.3612639,10.4369949 53.8899616,14 63.8797399,14 C73.8695182,14 83.5918661,9.40419585 81.9771353,6.57157328 C80.3624045,3.73895071 75.2787726,0 65.2889943,0 Z" id="path6187" fill="#FFE1E1"></path>
                            <path d="M63.8974282,0 C53.8198693,0 45.6410256,3.36553342 45.6410256,7.5001461 C45.6410256,11.6515659 53.8198693,15 63.8974282,15 C73.9749871,15 82.1538462,11.6515659 82.1538462,7.5001461 C82.1538462,3.36553342 73.9749871,0 63.8974282,0" id="path6189" stroke="#000000" stroke-width="0.67880154" stroke-linejoin="round"></path>
                            <path d="M69.1785174,4.61727716 C60.2490937,5.48263778 53.8508145,10.7088735 54.8773499,16.2986425 C55.9039003,21.9057324 63.9736684,25.7301162 72.8791808,24.8823835 C81.808181,24.0170229 88.2068837,18.7907872 87.1803484,13.2010182 C86.153813,7.61124929 78.0840299,3.76923757 69.1785174,4.61727716 Z" id="path6191" fill="#FFE1E1"></path>
                            <path d="M31.6423876,1.62292738 C22.7054468,2.437869 16.2531778,7.06813037 17.2092994,11.9752957 C18.164982,16.8664223 26.1701727,20.1920789 35.1075525,19.377127 C44.0209997,18.5782138 50.4967623,13.9479524 49.5410646,9.04078708 C48.5849581,4.13363208 40.55585,0.807686263 31.6423876,1.62292738 Z" id="path6195" fill="#FFE1E1"></path>
                            <path d="M31.6423876,1.62292738 C22.7054468,2.437869 16.2531778,7.06813037 17.2092994,11.9752957 C18.164982,16.8664223 26.1701727,20.1920789 35.1075525,19.377127 C44.0209997,18.5782138 50.4967623,13.9479524 49.5410646,9.04078708 C48.5849581,4.13363208 40.55585,0.807686263 31.6423876,1.62292738" id="path6197" stroke="#000000" stroke-width="0.67880154" stroke-linejoin="round"></path>
                            <path d="M17.4004216,6 C9.04104474,6 2.28205128,9.34659709 2.28205128,13.4998478 C2.28205128,17.6534029 9.04104474,21 17.4004216,21 C25.736332,21 32.5192308,17.6534029 32.5192308,13.4998478 C32.5192308,9.34659709 25.736332,6 17.4004216,6 Z" id="path6199" fill="#FFE1E1"></path>
                            <path d="M17.4004216,6 C9.04104474,6 2.28205128,9.34659709 2.28205128,13.4998478 C2.28205128,17.6534029 9.04104474,21 17.4004216,21 C25.736332,21 32.5192308,17.6534029 32.5192308,13.4998478 C32.5192308,9.34659709 25.736332,6 17.4004216,6" id="path6201" stroke="#000000" stroke-width="0.67880154" stroke-linejoin="round"></path>
                            <path d="M6.97934521,23.6429712 C8.75588932,29.7070034 27.3509906,32.2281876 48.551831,29.2456607 C69.7526714,26.2793345 85.5052901,18.9299707 83.7287309,12.865928 C81.9754755,6.78540285 63.3566654,4.28071158 42.1562602,7.24674555 C20.9791287,10.2295647 5.22650995,17.5624355 6.97934521,23.6429712 Z" id="path6203" fill="#FFE1E1"></path>
                        </g>
                        <text font-family="ArialMT, Arial" font-size="10" font-weight="normal" fill="#000000">
                            <tspan x="15" y="21">Internet</tspan>
                        </text>
                    </g>
                    <path d="" id="Path-3" stroke="#979797"></path>
                    <text id="knockd" font-family="Arial-BoldMT, Arial" font-size="5" font-weight="bold" fill="#000000">
                        <tspan x="100" y="100">knockd</tspan>
                    </text>
                    <text id="knock,-nkock,-nkock" font-family="Arial-BoldMT, Arial" font-size="5" font-weight="bold" fill="#000000">
                        <tspan x="59" y="5">knock, </tspan>
                        <tspan x="59" y="11">nkock, </tspan>
                        <tspan x="59" y="17">nkock</tspan>
                    </text>
                    <g id="Group-3" transform="translate(50.000000, 109.000000)">
                        <g id="1592651906router-symbol" stroke="#7D7D7D" stroke-width="0.2">
                            <polygon id="path1212" fill="url(#linearGradient-2)" points="0.0713156577 9 44.9559002 9.17134993 45 19.8716274 44.9667002 20.4249917 44.7662711 21.1853284 44.3900729 22.0617262 43.7994958 22.8327369 42.8151165 23.7965734 41.5389586 24.7211502 39.9340863 25.5921744 37.9829317 26.4256935 35.3936801 27.2967178 32.913436 27.9250191 28.5275771 28.6265029 25.0893056 28.9442542 22.9377399 29 18.5976007 28.8518623 14.0835824 28.3306661 11.0197451 27.6274277 9.24084964 27.1669122 7.52700587 26.6296319 5.75865836 25.8692952 4.31726128 25.148145 2.64031733 24.0736576 1.60143431 23.129451 1.05297695 22.4637177 0.471147738 21.4998812 0.177569148 20.8163092 0 19.8721026"></polygon>
                            <path d="M45,9 C45,13.97124 34.92612,18 22.5,18 C10.07388,18 0,13.97124 0,9 C0,4.03056 10.07388,0 22.5,0 C34.92612,0 45,4.03056 45,9" id="path1214" fill="#BDBDBD"></path>
                            <polygon id="path1216" fill="#FFFFFF" points="8 4.15045615 11.0002586 3 18.7311935 6.21463975 22 5.02384886 20.5381302 8 12.11546 7.95959342 14.461268 7.04766181"></polygon>
                            <polygon id="path1218" fill="#FFFFFF" points="26.7313188 11.9709842 23 12.9919533 24.4618916 10 33.7313536 10.109668 30.2311969 11.130637 37 13.9048399 34.1153125 15"></polygon>
                            <polygon id="path1220" fill="#FFFFFF" points="23 6.86101183 30.1551259 4.06607296 26.3954917 3.07321473 36.1808611 3 38 5.83068096 34.6833753 4.91256831 26.3560399 8"></polygon>
                            <polygon id="path1222" fill="#FFFFFF" points="15.117134 13.0951431 17.7812613 14 8.98883089 13.9278424 7 10.9570465 10.6593711 12.1165543 18.7380062 9 22 10.196341"></polygon>
                        </g>
                        <text id="muro" font-family="Arial-BoldMT, Arial" font-size="7" font-weight="bold" fill="#000000">
                            <tspan x="13.75" y="26">muro</tspan>
                        </text>
                    </g>
                    <path d="M115.164208,117.937629 C107.685012,117.937629 104.793481,118.8 99.7252889,122 C94.6570973,125.2 73.9303568,126.334953 68.9573354,117.937629 C65.6419879,112.339412 66.5383083,81.2085572 71.6462969,24.5450634" id="Path-5-Copy-2" stroke="#979797" stroke-dasharray="1"></path>
                    <path d="M115.164208,110.892042 C103.993701,110.892042 100.346918,116.780531 94.3297442,118 C88.3125701,119.219469 78.9303568,120.78989 73.9573354,112.392565 C70.6419879,106.794349 71.5383083,75.6634938 76.6462969,19" id="Path-5-Copy-3" stroke="#979797" stroke-dasharray="1"></path>
                    <path d="M114.788626,104.558233 C103.656242,104 101.744899,109 93.1025903,113.138035 C84.4602821,117.27607 78.1206549,110.892042 77.2614723,100.755511 C76.6886838,93.9978236 78.150292,64.5943411 81.6462969,12.5450634" id="Path-5-Copy-4" stroke="#979797" stroke-dasharray="1"></path>
                </g>
                <g id="Group-4" transform="translate(249.000000, 102.000000)">
                    <ellipse id="Oval" fill="#FFF8A3" cx="6.5" cy="6" rx="6.5" ry="6"></ellipse>
                    <text id="OK" font-family="Arial-BoldMT, Arial" font-size="5" font-weight="bold" fill="#000000">
                        <tspan x="3" y="8">OK</tspan>
                    </text>
                </g>
                <g id="Group-4" transform="translate(23.000000, 45.000000)">
                    <ellipse id="Oval" fill="#FFF8A3" cx="10" cy="9.5" rx="10" ry="9.5"></ellipse>
                    <text id="1" font-family="Arial-BoldMT, Arial" font-size="9" font-weight="bold" fill="#000000">
                        <tspan x="7" y="12">1</tspan>
                    </text>
                </g>
                <g id="Group-4-Copy" transform="translate(179.000000, 15.000000)">
                    <ellipse id="Oval" fill="#FFF8A3" cx="10" cy="9.5" rx="10" ry="9.5"></ellipse>
                    <text id="2" font-family="Arial-BoldMT, Arial" font-size="9" font-weight="bold" fill="#000000">
                        <tspan x="7" y="12">2</tspan>
                    </text>
                </g>
            </g>
        </g>
    </g>
</svg>