<?xml version="1.0" encoding="UTF-8"?>
<svg width="410px" height="235px" viewBox="0 0 410 235" version="1.1" xmlns="http://www.w3.org/2000/svg" xmlns:xlink="http://www.w3.org/1999/xlink">
    <!-- Generator: Sketch 52.6 (67491) - http://www.bohemiancoding.com/sketch -->
    <title>2023-04-15-networking-avanzado-03</title>
    <desc>Created with Sketch.</desc>
    <defs>
        <linearGradient x1="97.4441164%" y1="106.387911%" x2="46.6922062%" y2="19.8665656%" id="linearGradient-1">
            <stop stop-color="#D2D2D2" offset="0%"></stop>
            <stop stop-color="#FFFFFF" offset="100%"></stop>
        </linearGradient>
        <linearGradient x1="59.6136968%" y1="-35.8201812%" x2="61.4087005%" y2="120.850954%" id="linearGradient-2">
            <stop stop-color="#D2D2D2" offset="0%"></stop>
            <stop stop-color="#FFFFFF" offset="100%"></stop>
        </linearGradient>
    </defs>
    <g id="Networking" stroke="none" stroke-width="1" fill="none" fill-rule="evenodd">
        <g id="Opciones-ISP" transform="translate(-82.000000, -63.000000)">
            <g id="2023-04-15-networking-avanzado-03" transform="translate(82.000000, 63.000000)">
                <rect id="Rectangle" stroke="#979797" stroke-width="0.5" fill="#FFFFFF" x="0.25" y="0.25" width="409.5" height="234.5"></rect>
                <g id="Internet-izda" transform="translate(28.000000, 26.000000)">
                    <rect id="Caja-amarilla" stroke="#979797" stroke-width="0.3" fill="#FFFFEE" x="0.15" y="93.15" width="160.7" height="21.7" rx="7"></rect>
                    <g id="Casa" transform="translate(0.000000, 111.000000)">
                        <rect id="Scope-Casa-Copy-2" stroke="#979797" stroke-width="0.3" fill="#EEFFEE" x="0.15" y="4.15" width="160.2" height="73.7" rx="7"></rect>
                        <text id="Mi-Router-Mi-Switch" font-family="ArialMT, Arial" font-size="7" font-weight="normal" fill="#000000">
                            <tspan x="117.329346" y="15">Mi Router</tspan>
                            <tspan x="117.525879" y="22">Mi Switch</tspan>
                            <tspan x="119.144287" y="29">Mis AP’s</tspan>
                        </text>
                        <path id="Line-2" d="M103.621751,13.5084263 L103.628249,13.4915737 L103.610596,13.4944467 L103.621751,13.5084263 Z M103.795881,13.7266441 L107.063728,17.8218739 L107.157286,17.9391206 L106.922793,18.1262379 L106.829234,18.0089912 L103.216173,13.4811423 L103.056244,13.2807206 L103.309325,13.2395316 L109.026819,12.3090054 L109.174871,12.2849099 L109.223062,12.5810139 L109.07501,12.6051095 L103.903801,13.4467274 L108.016565,15.0323715 L114.05396,17.3600417 L114.193918,17.4140015 L114.085998,17.6939182 L113.94604,17.6399583 L107.908646,15.3122881 L103.795881,13.7266441 Z" fill="#979797" fill-rule="nonzero"></path>
                        <path id="Line-2" d="M114.007816,41.0045248 L113.992184,40.9954752 L113.992265,41.0133599 L114.007816,41.0045248 Z M114.25055,40.8666112 L118.80588,38.278426 L118.936299,38.2043261 L119.084499,38.4651648 L118.954079,38.5392647 L113.917526,41.4008651 L113.694587,41.5275315 L113.693428,41.2711239 L113.667237,35.4784614 L113.666559,35.3284629 L113.966556,35.3271065 L113.967234,35.477105 L113.990922,40.7163003 L116.218425,36.8687951 L119.370186,31.4248446 L119.445341,31.2950306 L119.704969,31.4453415 L119.629814,31.5751554 L116.478053,37.019106 L114.25055,40.8666112 Z" fill="#979797" fill-rule="nonzero"></path>
                        <text id="Casa-Copy" font-family="ArialMT, Arial" font-size="10" font-weight="normal" fill="#000000">
                            <tspan x="7" y="18">Casa</tspan>
                        </text>
                        <g id="Group-7" transform="translate(82.000000, 48.000000)">
                            <g id="grey-cloud-1">
                                <path d="M7.0485976,7.70086345 C2.61410997,8.11090725 -0.511871726,10.8715715 0.0696015242,13.8824161 C0.651341873,16.8930769 4.72217961,19.0035473 9.14237287,18.6035211 C13.5768605,18.1934773 16.6882807,15.432813 16.1065404,12.4219685 C15.5250671,9.41130764 11.4685238,7.30065983 7.0485976,7.70086345 Z" id="path6175" fill="#FFFFFF"></path>
                                <path d="M7.0485976,7.70086345 C2.61410997,8.11090725 -0.511871726,10.8715715 0.0696015242,13.8824161 C0.651341873,16.8930769 4.72217961,19.0035473 9.14237287,18.6035211 C13.5768605,18.1934773 16.6882807,15.432813 16.1065404,12.4219685 C15.5250671,9.41130764 11.4685238,7.30065983 7.0485976,7.70086345" id="path6177" stroke="#000000" stroke-width="0.2" stroke-linejoin="round"></path>
                                <path d="M43.739164,2.94070258 C38.1868125,3.46560849 34.2083369,6.63571118 34.8466406,10.0263239 C35.4849538,13.4274432 40.502768,15.7472179 46.0402514,15.2330046 C51.5923396,14.7080987 55.5710786,11.5379961 54.9327748,8.14738328 C54.294471,4.75677051 49.2766474,2.42630317 43.739164,2.94070258 Z" id="path6191" stroke="#000000" stroke-width="0.2" fill="#FFFFFF"></path>
                                <path d="M22.0775474,11.592864 C15.6285275,12.2041697 10.8323901,14.9913663 11.3637446,17.83043 C11.9098692,20.6696775 17.576637,22.493224 24.0253951,21.8819182 C30.4744149,21.2809833 35.270543,18.4936029 34.7391979,15.6545392 C34.1930732,12.815482 28.5263055,10.9917452 22.0775474,11.592864 Z" id="path6179" fill="#FFFFFF"></path>
                                <path d="M22.0775474,11.592864 C15.6285275,12.2041697 10.8323901,14.9913663 11.3637446,17.83043 C11.9098692,20.6696775 17.576637,22.493224 24.0253951,21.8819182 C30.4744149,21.2809833 35.270543,18.4936029 34.7391979,15.6545392 C34.1930732,12.815482 28.5263055,10.9917452 22.0775474,11.592864" id="path6181" stroke="#000000" stroke-width="0.2" stroke-linejoin="round"></path>
                                <path d="M38.4012194,9.66711633 C32.831396,10.1942317 28.6911029,12.5976154 29.152798,15.0537654 C29.6144836,17.5099155 34.4992269,19.06996 40.0543988,18.5534019 C45.6244864,18.0262866 49.7647795,15.6123523 49.3030844,13.1561956 C48.8413987,10.7107898 43.9563913,9.14000765 38.4012194,9.66711633 Z" id="path6183" fill="#FFFFFF"></path>
                                <path d="M38.4012194,9.66711633 C32.831396,10.1942317 28.6911029,12.5976154 29.152798,15.0537654 C29.6144836,17.5099155 34.4992269,19.06996 40.0543988,18.5534019 C45.6244864,18.0262866 49.7647795,15.6123523 49.3030844,13.1561956 C48.8413987,10.7107898 43.9563913,9.14000765 38.4012194,9.66711633 Z" id="path6183-copy" fill="#FFFFFF"></path>
                                <path d="M38.4012194,9.66711633 C32.831396,10.1942317 28.6911029,12.5976154 29.152798,15.0537654 C29.6144836,17.5099155 34.4992269,19.06996 40.0543988,18.5534019 C45.6244864,18.0262866 49.7647795,15.6123523 49.3030844,13.1561956 C48.8413987,10.7107898 43.9563913,9.14000765 38.4012194,9.66711633" id="path6185" stroke="#000000" stroke-width="0.2" stroke-linejoin="round"></path>
                                <path d="M40.4954664,0 C34.2993113,0 29.2779199,1.66403113 28.3964859,4.04090531 C27.515052,6.41777949 33.4252219,8.60869565 39.621377,8.60869565 C45.817532,8.60869565 51.8478135,5.78270428 50.8462775,4.04090531 C49.8447416,2.29910634 46.6916214,0 40.4954664,0 Z" id="path6187" fill="#FFFFFF"></path>
                                <path d="M39.6323482,0 C33.3817473,0 28.3088235,2.03883039 28.3088235,4.54356677 C28.3088235,7.05848484 33.3817473,9.08695652 39.6323482,9.08695652 C45.8829491,9.08695652 50.9558824,7.05848484 50.9558824,4.54356677 C50.9558824,2.03883039 45.8829491,0 39.6323482,0" id="path6189" stroke="#000000" stroke-width="0.2" stroke-linejoin="round"></path>
                                <path d="M42.9303405,2.94070258 C37.377989,3.46560849 33.3995133,6.63571118 34.0378171,10.0263239 C34.6761303,13.4274432 39.6939445,15.7472179 45.2314279,15.2330046 C50.783516,14.7080987 54.7622551,11.5379961 54.1239513,8.14738328 C53.4856475,4.75677051 48.4678239,2.42630317 42.9303405,2.94070258 Z" id="path6191" fill="#FFFFFF"></path>
                                <path d="M19.5476547,1.03164403 C13.990629,1.5296639 9.97858224,4.35926808 10.5731025,7.35809134 C11.1673497,10.3471131 16.1450095,12.3794588 21.7023081,11.8814327 C27.2447254,11.3932079 31.2713805,8.56360377 30.6771238,5.56478051 C30.082613,2.56596356 25.0900813,0.533441122 19.5476547,1.03164403 Z" id="path6195" fill="#FFFFFF"></path>
                                <path d="M19.5476547,1.03164403 C13.990629,1.5296639 9.97858224,4.35926808 10.5731025,7.35809134 C11.1673497,10.3471131 16.1450095,12.3794588 21.7023081,11.8814327 C27.2447254,11.3932079 31.2713805,8.56360377 30.6771238,5.56478051 C30.082613,2.56596356 25.0900813,0.533441122 19.5476547,1.03164403" id="path6197" stroke="#000000" stroke-width="0.2" stroke-linejoin="round"></path>
                                <path d="M10.9189827,3.82608696 C5.77600971,3.82608696 1.61764706,5.85344577 1.61764706,8.36947301 C1.61764706,10.8856847 5.77600971,12.9130435 10.9189827,12.9130435 C16.0475182,12.9130435 20.2205882,10.8856847 20.2205882,8.36947301 C20.2205882,5.85344577 16.0475182,3.82608696 10.9189827,3.82608696 Z" id="path6199" fill="#FFFFFF"></path>
                                <path d="M10.9189827,3.82608696 C5.77600971,3.82608696 1.61764706,5.85344577 1.61764706,8.36947301 C1.61764706,10.8856847 5.77600971,12.9130435 10.9189827,12.9130435 C16.0475182,12.9130435 20.2205882,10.8856847 20.2205882,8.36947301 C20.2205882,5.85344577 16.0475182,3.82608696 10.9189827,3.82608696" id="path6201" stroke="#000000" stroke-width="0.2" stroke-linejoin="round"></path>
                                <path d="M4.1266421,14.5026676 C5.22737668,18.1722949 16.7487742,19.6979804 29.8846698,17.893115 C43.0205653,16.0980533 52.7807801,11.6506123 51.6800362,7.98097863 C50.5937312,4.30137067 39.0576438,2.78566575 25.9220178,4.58055055 C12.8008121,6.38559286 3.04059738,10.8230533 4.1266421,14.5026676 Z" id="path6203" fill="#FFFFFF"></path>
                            </g>
                            <text id="WiFi-Copy" font-family="ArialMT, Arial" font-size="5" font-weight="normal" fill="#000000">
                                <tspan x="17" y="13">WiFi</tspan>
                            </text>
                        </g>
                        <g id="AdobeStock_483530275" transform="translate(122.000000, 36.000000)" stroke="#000000">
                            <path d="M17.700157,11.8549799 L16.1240188,11.8549799 L16.1240188,4.38867933 C16.1240188,4.17401766 15.9483064,4 15.7315542,4 C15.5148019,4 15.3390895,4.17401766 15.3390895,4.38867933 L15.3390895,11.8549799 L2.29591837,11.8549799 C1.02782827,11.8584217 0.00130957639,12.8767774 0,14.1326407 L0,15.7223391 C0.00131172906,16.9782016 1.02782917,17.996556 2.29591837,18 L17.700157,18 C18.9695893,17.9982423 19.9982252,16.9795277 20,15.7223391 L20,14.1326407 C19.9982274,12.8754512 18.9695902,11.8567354 17.700157,11.8549799 Z M17.5470958,15.3142259 L11.4089482,15.3142259 C11.1921959,15.3142259 11.0164835,15.1402082 11.0164835,14.9255465 C11.0164835,14.7108849 11.1921959,14.5368672 11.4089482,14.5368672 L17.5470958,14.5368672 C17.763848,14.5368672 17.9395604,14.7108849 17.9395604,14.9255465 C17.9395604,15.1402082 17.763848,15.3142259 17.5470958,15.3142259 Z M7.6177394,14.9255465 C7.6177394,15.1273285 7.45256973,15.2909051 7.24882261,15.2909051 C7.04507548,15.2909051 6.87990581,15.1273285 6.87990581,14.9255465 C6.87990581,14.7237646 7.04507548,14.560188 7.24882261,14.560188 C7.452472,14.5604214 7.61750367,14.7238614 7.6177394,14.9255465 Z M5.47095761,14.9255465 C5.47175109,15.0744571 5.38168143,15.2091063 5.24291655,15.2664555 C5.10415167,15.3238047 4.94415513,15.2925036 4.83783252,15.1872065 C4.7315099,15.0819094 4.69990398,14.923456 4.75781171,14.7860296 C4.81571943,14.6486031 4.95168003,14.5594021 5.10204082,14.560188 C5.30569021,14.5604214 5.47072188,14.7238614 5.47095761,14.9255465 Z M2.95133438,14.560188 C3.10169517,14.5594021 3.23765576,14.6486031 3.29556349,14.7860296 C3.35347121,14.923456 3.3218653,15.0819094 3.21554268,15.1872065 C3.10922007,15.2925036 2.94922353,15.3238047 2.81045865,15.2664555 C2.67169376,15.2091063 2.58162411,15.0744571 2.58241758,14.9255465 C2.58231329,14.8286158 2.62114771,14.7356254 2.69035565,14.667085 C2.75956359,14.5985445 2.85345963,14.5600847 2.95133438,14.560188 Z" id="Shape" stroke-width="0.2" fill="#FFFFFF" fill-rule="nonzero"></path>
                            <path d="M13.5434347,5.88757255 C13.6109491,5.98453494 13.7093537,6.02240342 13.8015804,5.98691332 C13.8938072,5.95142322 13.9658446,5.84796632 13.990557,5.71551383 C14.0152694,5.58306135 13.9889023,5.44173596 13.9213879,5.34477358 C13.4056192,4.6014468 13.4056192,3.39902942 13.9213879,2.65570264 C13.9890987,2.55879669 14.0156148,2.4173316 13.9909275,2.28470406 C13.9662402,2.15207652 13.8941092,2.04848461 13.8017608,2.01302961 C13.7094123,1.97757461 13.6109103,2.01565602 13.5434347,2.11289983 C12.8188551,3.15596367 12.8188551,4.84450871 13.5434347,5.88757255 Z" id="Path" stroke-width="0.1"></path>
                            <path d="M12.2872683,6.88725763 C12.4505417,7.03779166 12.7141849,7.03754979 12.8771373,6.88671648 C13.0400898,6.73588316 13.0410756,6.49117699 12.879343,6.33921676 C11.4885632,5.04687948 11.4885632,2.95312052 12.879343,1.66078324 C13.0410756,1.50882301 13.0400898,1.26411684 12.8771373,1.11328352 C12.7141849,0.962450207 12.4505417,0.962208338 12.2872683,1.11274237 C10.5709106,2.70795315 10.5709106,5.29204685 12.2872683,6.88725763 Z" id="Path" stroke-width="0.1"></path>
                            <path d="M11.6637622,7.99999974 C11.7997605,7.99996692 11.9223546,7.90736262 11.9743949,7.76535611 C12.0264353,7.6233496 11.9976769,7.45989703 11.9015262,7.35119496 C11.1146768,6.46249217 10.6725853,5.25679735 10.6725853,3.99956337 C10.6725853,2.74232939 11.1146768,1.53663457 11.9015262,0.647931777 C12.0321375,0.499381473 12.0318053,0.259407555 11.9007835,0.111319787 C11.7697616,-0.0367679817 11.5574323,-0.0371552336 11.4259882,0.110453843 C10.5129748,1.14167689 10,2.5407126 10,3.99955007 C10,5.45838754 10.5129748,6.85742324 11.4259882,7.88864629 C11.4889789,7.96004321 11.5745517,8.00011835 11.6637622,7.99999974 Z" id="Path" stroke-width="0.1"></path>
                            <path d="M18.0783281,5.88752837 C18.1284539,5.95954072 18.1964547,6 18.2673617,6 C18.3382688,6 18.4062696,5.95954072 18.4563953,5.88752837 C19.1812016,4.84434851 19.1812016,3.15560934 18.4563953,2.11242948 C18.3519942,1.96252276 18.1827272,1.96252362 18.0783268,2.1124314 C17.9739264,2.26233918 17.973927,2.50538685 18.0783281,2.65529357 C18.5942561,3.39870428 18.5942561,4.60125741 18.0783281,5.34466811 C18.0281768,5.4166433 18,5.51428434 18,5.61609824 C18,5.71791214 18.0281768,5.81555318 18.0783281,5.88752837 Z" id="Path" stroke-width="0.1"></path>
                            <path d="M20.1649109,3.99869501 C20.1668802,4.87590307 19.7919364,5.71756308 19.1232855,6.33689767 C19.0171267,6.43486803 18.9755159,6.57812857 19.0142142,6.71241668 C19.0529125,6.84670478 19.1660018,6.95148447 19.3106474,6.98706845 C19.455293,7.02265244 19.6093751,6.98359905 19.7145321,6.8847005 C21.4284893,5.2901826 21.4284893,2.7072113 19.7145321,1.1126934 C19.5514871,0.962224753 19.2882127,0.962466516 19.1254881,1.11323432 C18.9627636,1.26400212 18.9617791,1.508602 19.1232855,1.66049623 C19.7920831,2.27973805 20.1670534,3.12145628 20.1649109,3.99869501 Z" id="Path" stroke-width="0.1"></path>
                            <path d="M20.5740814,0.111300143 C20.4427532,-0.0371007898 20.2298288,-0.037099939 20.0985015,0.111302043 C19.9671742,0.259704025 19.9671749,0.500310328 20.0985032,0.64871126 C20.8853044,1.53738131 21.3273562,2.74292975 21.3273562,3.99999729 C21.3273562,5.25706483 20.8853044,6.46261326 20.0985032,7.35128332 C20.0135493,7.44728189 19.980371,7.58720286 20.0114663,7.71833935 C20.0425616,7.84947584 20.1332063,7.9519051 20.2492554,7.98704301 C20.3653046,8.02218093 20.4891276,7.98468921 20.5740814,7.88869063 C21.4870581,6.857517 22,5.45864687 22,3.99999539 C22,2.54134391 21.4870581,1.14247378 20.5740814,0.111300143 Z" id="Path" stroke-width="0.1"></path>
                        </g>
                        <g id="Group-6" transform="translate(19.000000, 56.000000)">
                            <g id="Group-15" transform="translate(23.500000, 4.000000) scale(-1, -1) rotate(-180.000000) translate(-23.500000, -4.000000) " stroke="#979797" stroke-width="0.1">
                                <path d="M0.676470588,7.77239239 C0.282361403,7.22327718 5.68434189e-14,5.7416251 5.68434189e-14,4 C5.68434189e-14,2.2583749 0.282361403,0.776722821 0.676470588,0.22760761 L0.676470588,0 L46,0 L46,8 L0.676470588,8 L0.676470588,7.77239239 Z" id="Combined-Shape" fill="#FFFFFF"></path>
                                <ellipse id="Oval" fill="#EDEDED" cx="46" cy="4" rx="1" ry="4"></ellipse>
                            </g>
                            <text id="LAN" font-family="ArialMT, Arial" font-size="5" font-weight="normal" fill="#000000">
                                <tspan x="19" y="6">LAN</tspan>
                            </text>
                        </g>
                        <g id="Switch" transform="translate(59.000000, 16.000000)">
                            <polygon id="path3266" stroke="#000000" stroke-width="0.3" fill="url(#linearGradient-1)" stroke-linejoin="round" points="0 1.48012791 0 10 40 10 40 1.48012791 34.9652681 0 4.69019172 0"></polygon>
                            <polygon id="path3267" stroke="#FFFFFF" stroke-width="0.37468" fill="url(#linearGradient-2)" stroke-linejoin="round" points="1 2 1 9 39 9 39 2"></polygon>
                            <g id="Group-2" transform="translate(5.000000, 4.000000)" fill="#B6F2B6" fill-opacity="0.99582" stroke="#000000" stroke-width="0.2">
                                <rect id="rect3308" x="29.6153846" y="0" width="3.38461538" height="3" rx="0.60057"></rect>
                                <rect id="rect3936" x="25.3846154" y="0" width="3.38461538" height="3" rx="0.60057"></rect>
                                <rect id="rect3937" x="21.1538462" y="0" width="3.38461538" height="3" rx="0.60057"></rect>
                                <rect id="rect3938" x="16.9230769" y="0" width="3.38461538" height="3" rx="0.60057"></rect>
                                <rect id="rect3939" x="12.6923077" y="0" width="3.38461538" height="3" rx="0.60057"></rect>
                                <rect id="rect3940" x="8.46153846" y="0" width="3.38461538" height="3" rx="0.60057"></rect>
                                <rect id="rect3941" x="4.23076923" y="0" width="3.38461538" height="3" rx="0.60057"></rect>
                                <rect id="rect3942" x="0" y="0" width="3.38461538" height="3" rx="0.60057"></rect>
                            </g>
                            <g id="Group-3" transform="translate(2.000000, 3.000000)" fill="#FFF3CC" fill-opacity="0.75" stroke="#000000" stroke-width="0.2">
                                <path d="M2,3.2 C2,3.64184219 1.55228405,4 1.00001403,4 C0.44771595,4 0,3.64181075 0,3.2 C0,2.75815781 0.44771595,2.4 1.00001403,2.4 C1.55228405,2.4 2,2.75818925 2,3.2 Z" id="path4575"></path>
                                <path d="M2,0.8 C2,1.24184219 1.55228405,1.6 1.00001403,1.6 C0.44771595,1.6 0,1.24181075 0,0.8 C0,0.358157812 0.44771595,0 1.00001403,0 C1.55228405,0 2,0.358189249 2,0.8 Z" id="path5830"></path>
                            </g>
                        </g>
                        <path d="M79.4983659,11 C78.7148438,11.8101006 78.4535456,12.6434339 78.7144713,13.5 C78.9753971,14.3565661 78.9285969,15.1898994 78.5740708,16" id="Line-2-Copy-19" stroke="#7B7B7B" stroke-linecap="square"></path>
                        <g id="Router" transform="translate(55.000000, 0.000000)">
                            <g>
                                <polygon id="path3266" stroke="#000000" stroke-width="0.3" fill="url(#linearGradient-1)" stroke-linejoin="round" points="0 1.6281407 0 11 46 11 46 1.6281407 40.2100583 0 5.39372048 0"></polygon>
                                <polygon id="path3267" stroke="#FFFFFF" stroke-width="0.37468" fill="url(#linearGradient-2)" stroke-linejoin="round" points="1 3 1 10 45 10 45 3"></polygon>
                                <g id="Group-2" transform="translate(11.000000, 5.000000)" fill="#F2B6B6" fill-opacity="0.99582" stroke="#000000" stroke-width="0.2">
                                    <rect id="rect3308" x="10.1025641" y="0" width="3.8974359" height="4" rx="0.60057"></rect>
                                    <rect id="rect3936" x="5.23076923" y="0" width="3.8974359" height="4" rx="0.60057"></rect>
                                    <rect id="rect3937" x="0.358974359" y="0" width="3.8974359" height="4" rx="0.60057"></rect>
                                </g>
                                <g id="Group-3" transform="translate(30.500000, 7.000000) rotate(-270.000000) translate(-30.500000, -7.000000) translate(29.500000, 4.500000)" fill="#CCEEFF" fill-opacity="0.75" stroke="#000000" stroke-width="0.1">
                                    <path d="M2,4 C2,4.55230273 1.55228405,5 1.00001403,5 C0.44771595,5 0,4.55226344 0,4 C0,3.44769727 0.44771595,3 1.00001403,3 C1.55228405,3 2,3.44773656 2,4 Z" id="path4575"></path>
                                    <path d="M2,1 C2,1.55230273 1.55228405,2 1.00001403,2 C0.44771595,2 0,1.55226344 0,1 C0,0.447697265 0.44771595,0 1.00001403,0 C1.55228405,0 2,0.447736561 2,1 Z" id="path5830"></path>
                                </g>
                            </g>
                        </g>
                        <g id="Group-4" transform="translate(7.000000, 9.000000)"></g>
                    </g>
                    <path d="M80.1496435,68 C76.5192158,74.6094291 76.5192158,80.6227086 80.1496435,86.0398385 C83.7800713,91.4569684 83.3847601,99.7069809 78.9637098,110.789876" id="Línea-internet" stroke="#7B7B7B" stroke-linecap="square"></path>
                    <g id="Internet" transform="translate(5.000000, 0.000000)">
                        <g id="Nube-internet">
                            <path d="M20.0436485,25.1593476 C7.43357818,26.5013091 -1.45557705,35.5362103 0.197921425,45.3898835 C1.85217944,55.2429552 13.4281617,62.1499493 25.9975839,60.8407726 C38.6076542,59.4988111 47.4554019,50.4639099 45.8011439,40.6102367 C44.1476454,30.7571649 32.6123112,23.8495903 20.0436485,25.1593476 Z" id="path6175" fill="#FFE1E1"></path>
                            <path d="M20.0436485,25.1593476 C7.43357818,26.5013091 -1.45557705,35.5362103 0.197921425,45.3898835 C1.85217944,55.2429552 13.4281617,62.1499493 25.9975839,60.8407726 C38.6076542,59.4988111 47.4554019,50.4639099 45.8011439,40.6102367 C44.1476454,30.7571649 32.6123112,23.8495903 20.0436485,25.1593476" id="path6177" stroke="#000000" stroke-width="0.67880154" stroke-linejoin="round"></path>
                            <path d="M124.256727,9.23455432 C108.605153,10.9652756 97.3901917,21.417747 99.1895121,32.5972849 C100.988859,43.8114649 115.133621,51.4602324 130.743283,49.7647671 C146.394115,48.0340458 157.609819,37.5815744 155.810498,26.4020365 C154.011178,15.2224986 139.866389,7.53847513 124.256727,9.23455432 Z" id="path6191" stroke="#000000" stroke-width="0.68" fill="#FFE1E1"></path>
                            <path d="M63.2595816,38.370329 C45.113374,40.3457054 31.6180357,49.3522664 33.1131571,58.5264309 C34.6498389,67.7011894 50.594951,73.5938064 68.740422,71.61843 C86.8866296,69.6765658 100.381942,60.6694109 98.8868465,51.4952464 C97.3501647,42.321103 81.4050526,36.4278709 63.2595816,38.370329 Z" id="path6179" fill="#FFE1E1"></path>
                            <path d="M63.2595816,38.370329 C45.113374,40.3457054 31.6180357,49.3522664 33.1131571,58.5264309 C34.6498389,67.7011894 50.594951,73.5938064 68.740422,71.61843 C86.8866296,69.6765658 100.381942,60.6694109 98.8868465,51.4952464 C97.3501647,42.321103 81.4050526,36.4278709 63.2595816,38.370329" id="path6181" stroke="#000000" stroke-width="0.67880154" stroke-linejoin="round"></path>
                            <path d="M109.169546,31.3364128 C93.4687207,33.0766501 81.7976107,41.0112662 83.0990872,49.1200868 C84.4005372,57.2289075 98.1701843,62.3792939 113.829709,60.6739107 C129.531279,58.9336734 141.202389,50.9642252 139.900913,42.8553825 C138.599463,34.7820332 124.829071,29.5961975 109.169546,31.3364128 Z" id="path6183" fill="#FFE1E1"></path>
                            <path d="M109.169546,31.3364128 C93.4687207,33.0766501 81.7976107,41.0112662 83.0990872,49.1200868 C84.4005372,57.2289075 98.1701843,62.3792939 113.829709,60.6739107 C129.531279,58.9336734 141.202389,50.9642252 139.900913,42.8553825 C138.599463,34.7820332 124.829071,29.5961975 109.169546,31.3364128 Z" id="path6183-copy" fill="#FFE1E1"></path>
                            <path d="M109.169546,31.3364128 C93.4687207,33.0766501 81.7976107,41.0112662 83.0990872,49.1200868 C84.4005372,57.2289075 98.1701843,62.3792939 113.829709,60.6739107 C129.531279,58.9336734 141.202389,50.9642252 139.900913,42.8553825 C138.599463,34.7820332 124.829071,29.5961975 109.169546,31.3364128" id="path6185" stroke="#000000" stroke-width="0.67880154" stroke-linejoin="round"></path>
                            <path d="M114.439136,0 C96.9289629,0 82.7386411,5.41230327 80.2477316,13.1431466 C77.7568221,20.8739899 94.458809,28 111.968982,28 C129.479155,28 146.520574,18.8083917 143.69026,13.1431466 C140.859945,7.47790142 131.949309,0 114.439136,0 Z" id="path6187" fill="#FFE1E1"></path>
                            <path d="M111.999986,0 C94.3359507,0 80,6.73106685 80,15.0002922 C80,23.3031318 94.3359507,30 111.999986,30 C129.664022,30 144,23.3031318 144,15.0002922 C144,6.73106685 129.664022,0 111.999986,0" id="path6189" stroke="#000000" stroke-width="0.67880154" stroke-linejoin="round"></path>
                            <path d="M121.256727,9.23455432 C105.605153,10.9652756 94.3901917,21.417747 96.1895121,32.5972849 C97.988859,43.8114649 112.133621,51.4602324 127.743283,49.7647671 C143.394115,48.0340458 154.609819,37.5815744 152.810498,26.4020365 C151.011178,15.2224986 136.866389,7.53847513 121.256727,9.23455432 Z" id="path6191" fill="#FFE1E1"></path>
                            <path d="M55.4630614,3.24585476 C39.7983113,4.87573799 28.4887162,14.1362607 30.1646147,23.9505914 C31.8397437,33.7328445 45.871314,40.3841578 61.5368336,38.7542539 C77.160404,37.1564276 88.5111788,27.8959048 86.8360233,18.0815742 C85.1601513,8.26726415 71.0866584,1.61537253 55.4630614,3.24585476 Z" id="path6195" fill="#FFE1E1"></path>
                            <path d="M55.4630614,3.24585476 C39.7983113,4.87573799 28.4887162,14.1362607 30.1646147,23.9505914 C31.8397437,33.7328445 45.871314,40.3841578 61.5368336,38.7542539 C77.160404,37.1564276 88.5111788,27.8959048 86.8360233,18.0815742 C85.1601513,8.26726415 71.0866584,1.61537253 55.4630614,3.24585476" id="path6197" stroke="#000000" stroke-width="0.67880154" stroke-linejoin="round"></path>
                            <path d="M30.4996155,12 C15.8472245,12 4,18.6931942 4,26.9996956 C4,35.3068058 15.8472245,42 30.4996155,42 C45.1108741,42 57,35.3068058 57,26.9996956 C57,18.6931942 45.1108741,12 30.4996155,12 Z" id="path6199" fill="#FFE1E1"></path>
                            <path d="M30.4996155,12 C15.8472245,12 4,18.6931942 4,26.9996956 C4,35.3068058 15.8472245,42 30.4996155,42 C45.1108741,42 57,35.3068058 57,26.9996956 C57,18.6931942 45.1108741,12 30.4996155,12" id="path6201" stroke="#000000" stroke-width="0.67880154" stroke-linejoin="round"></path>
                            <path d="M12.233459,47.2859423 C15.3474015,59.4140068 47.9410622,64.4563752 85.1020858,58.4913214 C122.263109,52.5586689 149.874441,37.8599414 146.760472,25.7318561 C143.68735,13.5708057 111.052133,8.56142316 73.8918718,14.4934911 C36.7724053,20.4591295 9.16107363,35.1248711 12.233459,47.2859423 Z" id="path6203" fill="#FFE1E1"></path>
                        </g>
                        <text font-family="ArialMT, Arial" font-size="10" font-weight="normal" fill="#000000">
                            <tspan x="61" y="39">Internet</tspan>
                        </text>
                    </g>
                    <g id="Router-Internet" transform="translate(50.000000, 81.000000)">
                        <rect id="Rectangle-Copy" stroke="#979797" fill="#FFE1E1" x="0.5" y="0.5" width="54" height="17" rx="7"></rect>
                        <text id="Router-Operador" font-family="ArialMT, Arial" font-size="7" font-weight="normal" fill="#000000">
                            <tspan x="17.494873" y="8">Router</tspan>
                            <tspan x="13.2138672" y="15">Operador</tspan>
                        </text>
                    </g>
                </g>
                <g id="Internet-dcha" transform="translate(212.000000, 26.000000)">
                    <rect id="Caja-amarilla" stroke="#979797" stroke-width="0.3" fill="#FFFFEE" x="0.15" y="93.15" width="160.7" height="21.7" rx="7"></rect>
                    <g id="Casa" transform="translate(0.000000, 103.000000)">
                        <rect id="Scope-Casa-Copy-2" stroke="#979797" stroke-width="0.3" fill="#EEFFEE" x="0.15" y="12.15" width="160.2" height="73.7" rx="7"></rect>
                        <text id="Mi-Router-Mi-Switch" font-family="ArialMT, Arial" font-size="7" font-weight="normal" fill="#000000">
                            <tspan x="114.329346" y="22">Mi Router</tspan>
                            <tspan x="114.525879" y="29">Mi Switch</tspan>
                            <tspan x="116.144287" y="36">Mis AP’s</tspan>
                        </text>
                        <path id="Line-2" d="M104.621751,22.5084263 L104.628249,22.4915737 L104.610596,22.4944467 L104.621751,22.5084263 Z M104.795881,22.7266441 L108.063728,26.8218739 L108.157286,26.9391206 L107.922793,27.1262379 L107.829234,27.0089912 L104.216173,22.4811423 L104.056244,22.2807206 L104.309325,22.2395316 L110.026819,21.3090054 L110.174871,21.2849099 L110.223062,21.5810139 L110.07501,21.6051095 L104.903801,22.4467274 L109.016565,24.0323715 L115.05396,26.3600417 L115.193918,26.4140015 L115.085998,26.6939182 L114.94604,26.6399583 L108.908646,24.3122881 L104.795881,22.7266441 Z" fill="#979797" fill-rule="nonzero"></path>
                        <path id="Line-2" d="M115.007816,50.0045248 L114.992184,49.9954752 L114.992265,50.0133599 L115.007816,50.0045248 Z M115.25055,49.8666112 L119.80588,47.278426 L119.936299,47.2043261 L120.084499,47.4651648 L119.954079,47.5392647 L114.917526,50.4008651 L114.694587,50.5275315 L114.693428,50.2711239 L114.667237,44.4784614 L114.666559,44.3284629 L114.966556,44.3271065 L114.967234,44.477105 L114.990922,49.7163003 L117.218425,45.8687951 L120.370186,40.4248446 L120.445341,40.2950306 L120.704969,40.4453415 L120.629814,40.5751554 L117.478053,46.019106 L115.25055,49.8666112 Z" fill="#979797" fill-rule="nonzero"></path>
                        <text id="(Neutro)" font-family="ArialMT, Arial" font-size="6" font-weight="normal" fill="#000000">
                            <tspan x="82.4975586" y="5">(Neutro)</tspan>
                        </text>
                        <text id="Casa-Copy" font-family="ArialMT, Arial" font-size="10" font-weight="normal" fill="#000000">
                            <tspan x="7" y="26">Casa</tspan>
                        </text>
                        <g id="Group-7" transform="translate(82.000000, 56.000000)">
                            <g id="grey-cloud-1">
                                <path d="M7.0485976,7.70086345 C2.61410997,8.11090725 -0.511871726,10.8715715 0.0696015242,13.8824161 C0.651341873,16.8930769 4.72217961,19.0035473 9.14237287,18.6035211 C13.5768605,18.1934773 16.6882807,15.432813 16.1065404,12.4219685 C15.5250671,9.41130764 11.4685238,7.30065983 7.0485976,7.70086345 Z" id="path6175" fill="#FFFFFF"></path>
                                <path d="M7.0485976,7.70086345 C2.61410997,8.11090725 -0.511871726,10.8715715 0.0696015242,13.8824161 C0.651341873,16.8930769 4.72217961,19.0035473 9.14237287,18.6035211 C13.5768605,18.1934773 16.6882807,15.432813 16.1065404,12.4219685 C15.5250671,9.41130764 11.4685238,7.30065983 7.0485976,7.70086345" id="path6177" stroke="#000000" stroke-width="0.2" stroke-linejoin="round"></path>
                                <path d="M43.739164,2.94070258 C38.1868125,3.46560849 34.2083369,6.63571118 34.8466406,10.0263239 C35.4849538,13.4274432 40.502768,15.7472179 46.0402514,15.2330046 C51.5923396,14.7080987 55.5710786,11.5379961 54.9327748,8.14738328 C54.294471,4.75677051 49.2766474,2.42630317 43.739164,2.94070258 Z" id="path6191" stroke="#000000" stroke-width="0.2" fill="#FFFFFF"></path>
                                <path d="M22.0775474,11.592864 C15.6285275,12.2041697 10.8323901,14.9913663 11.3637446,17.83043 C11.9098692,20.6696775 17.576637,22.493224 24.0253951,21.8819182 C30.4744149,21.2809833 35.270543,18.4936029 34.7391979,15.6545392 C34.1930732,12.815482 28.5263055,10.9917452 22.0775474,11.592864 Z" id="path6179" fill="#FFFFFF"></path>
                                <path d="M22.0775474,11.592864 C15.6285275,12.2041697 10.8323901,14.9913663 11.3637446,17.83043 C11.9098692,20.6696775 17.576637,22.493224 24.0253951,21.8819182 C30.4744149,21.2809833 35.270543,18.4936029 34.7391979,15.6545392 C34.1930732,12.815482 28.5263055,10.9917452 22.0775474,11.592864" id="path6181" stroke="#000000" stroke-width="0.2" stroke-linejoin="round"></path>
                                <path d="M38.4012194,9.66711633 C32.831396,10.1942317 28.6911029,12.5976154 29.152798,15.0537654 C29.6144836,17.5099155 34.4992269,19.06996 40.0543988,18.5534019 C45.6244864,18.0262866 49.7647795,15.6123523 49.3030844,13.1561956 C48.8413987,10.7107898 43.9563913,9.14000765 38.4012194,9.66711633 Z" id="path6183" fill="#FFFFFF"></path>
                                <path d="M38.4012194,9.66711633 C32.831396,10.1942317 28.6911029,12.5976154 29.152798,15.0537654 C29.6144836,17.5099155 34.4992269,19.06996 40.0543988,18.5534019 C45.6244864,18.0262866 49.7647795,15.6123523 49.3030844,13.1561956 C48.8413987,10.7107898 43.9563913,9.14000765 38.4012194,9.66711633 Z" id="path6183-copy" fill="#FFFFFF"></path>
                                <path d="M38.4012194,9.66711633 C32.831396,10.1942317 28.6911029,12.5976154 29.152798,15.0537654 C29.6144836,17.5099155 34.4992269,19.06996 40.0543988,18.5534019 C45.6244864,18.0262866 49.7647795,15.6123523 49.3030844,13.1561956 C48.8413987,10.7107898 43.9563913,9.14000765 38.4012194,9.66711633" id="path6185" stroke="#000000" stroke-width="0.2" stroke-linejoin="round"></path>
                                <path d="M40.4954664,0 C34.2993113,0 29.2779199,1.66403113 28.3964859,4.04090531 C27.515052,6.41777949 33.4252219,8.60869565 39.621377,8.60869565 C45.817532,8.60869565 51.8478135,5.78270428 50.8462775,4.04090531 C49.8447416,2.29910634 46.6916214,0 40.4954664,0 Z" id="path6187" fill="#FFFFFF"></path>
                                <path d="M39.6323482,0 C33.3817473,0 28.3088235,2.03883039 28.3088235,4.54356677 C28.3088235,7.05848484 33.3817473,9.08695652 39.6323482,9.08695652 C45.8829491,9.08695652 50.9558824,7.05848484 50.9558824,4.54356677 C50.9558824,2.03883039 45.8829491,0 39.6323482,0" id="path6189" stroke="#000000" stroke-width="0.2" stroke-linejoin="round"></path>
                                <path d="M42.9303405,2.94070258 C37.377989,3.46560849 33.3995133,6.63571118 34.0378171,10.0263239 C34.6761303,13.4274432 39.6939445,15.7472179 45.2314279,15.2330046 C50.783516,14.7080987 54.7622551,11.5379961 54.1239513,8.14738328 C53.4856475,4.75677051 48.4678239,2.42630317 42.9303405,2.94070258 Z" id="path6191" fill="#FFFFFF"></path>
                                <path d="M19.5476547,1.03164403 C13.990629,1.5296639 9.97858224,4.35926808 10.5731025,7.35809134 C11.1673497,10.3471131 16.1450095,12.3794588 21.7023081,11.8814327 C27.2447254,11.3932079 31.2713805,8.56360377 30.6771238,5.56478051 C30.082613,2.56596356 25.0900813,0.533441122 19.5476547,1.03164403 Z" id="path6195" fill="#FFFFFF"></path>
                                <path d="M19.5476547,1.03164403 C13.990629,1.5296639 9.97858224,4.35926808 10.5731025,7.35809134 C11.1673497,10.3471131 16.1450095,12.3794588 21.7023081,11.8814327 C27.2447254,11.3932079 31.2713805,8.56360377 30.6771238,5.56478051 C30.082613,2.56596356 25.0900813,0.533441122 19.5476547,1.03164403" id="path6197" stroke="#000000" stroke-width="0.2" stroke-linejoin="round"></path>
                                <path d="M10.9189827,3.82608696 C5.77600971,3.82608696 1.61764706,5.85344577 1.61764706,8.36947301 C1.61764706,10.8856847 5.77600971,12.9130435 10.9189827,12.9130435 C16.0475182,12.9130435 20.2205882,10.8856847 20.2205882,8.36947301 C20.2205882,5.85344577 16.0475182,3.82608696 10.9189827,3.82608696 Z" id="path6199" fill="#FFFFFF"></path>
                                <path d="M10.9189827,3.82608696 C5.77600971,3.82608696 1.61764706,5.85344577 1.61764706,8.36947301 C1.61764706,10.8856847 5.77600971,12.9130435 10.9189827,12.9130435 C16.0475182,12.9130435 20.2205882,10.8856847 20.2205882,8.36947301 C20.2205882,5.85344577 16.0475182,3.82608696 10.9189827,3.82608696" id="path6201" stroke="#000000" stroke-width="0.2" stroke-linejoin="round"></path>
                                <path d="M4.1266421,14.5026676 C5.22737668,18.1722949 16.7487742,19.6979804 29.8846698,17.893115 C43.0205653,16.0980533 52.7807801,11.6506123 51.6800362,7.98097863 C50.5937312,4.30137067 39.0576438,2.78566575 25.9220178,4.58055055 C12.8008121,6.38559286 3.04059738,10.8230533 4.1266421,14.5026676 Z" id="path6203" fill="#FFFFFF"></path>
                            </g>
                            <text id="WiFi-Copy" font-family="ArialMT, Arial" font-size="5" font-weight="normal" fill="#000000">
                                <tspan x="17" y="13">WiFi</tspan>
                            </text>
                        </g>
                        <g id="AdobeStock_483530275" transform="translate(122.000000, 44.000000)" stroke="#000000">
                            <path d="M17.700157,11.8549799 L16.1240188,11.8549799 L16.1240188,4.38867933 C16.1240188,4.17401766 15.9483064,4 15.7315542,4 C15.5148019,4 15.3390895,4.17401766 15.3390895,4.38867933 L15.3390895,11.8549799 L2.29591837,11.8549799 C1.02782827,11.8584217 0.00130957639,12.8767774 0,14.1326407 L0,15.7223391 C0.00131172906,16.9782016 1.02782917,17.996556 2.29591837,18 L17.700157,18 C18.9695893,17.9982423 19.9982252,16.9795277 20,15.7223391 L20,14.1326407 C19.9982274,12.8754512 18.9695902,11.8567354 17.700157,11.8549799 Z M17.5470958,15.3142259 L11.4089482,15.3142259 C11.1921959,15.3142259 11.0164835,15.1402082 11.0164835,14.9255465 C11.0164835,14.7108849 11.1921959,14.5368672 11.4089482,14.5368672 L17.5470958,14.5368672 C17.763848,14.5368672 17.9395604,14.7108849 17.9395604,14.9255465 C17.9395604,15.1402082 17.763848,15.3142259 17.5470958,15.3142259 Z M7.6177394,14.9255465 C7.6177394,15.1273285 7.45256973,15.2909051 7.24882261,15.2909051 C7.04507548,15.2909051 6.87990581,15.1273285 6.87990581,14.9255465 C6.87990581,14.7237646 7.04507548,14.560188 7.24882261,14.560188 C7.452472,14.5604214 7.61750367,14.7238614 7.6177394,14.9255465 Z M5.47095761,14.9255465 C5.47175109,15.0744571 5.38168143,15.2091063 5.24291655,15.2664555 C5.10415167,15.3238047 4.94415513,15.2925036 4.83783252,15.1872065 C4.7315099,15.0819094 4.69990398,14.923456 4.75781171,14.7860296 C4.81571943,14.6486031 4.95168003,14.5594021 5.10204082,14.560188 C5.30569021,14.5604214 5.47072188,14.7238614 5.47095761,14.9255465 Z M2.95133438,14.560188 C3.10169517,14.5594021 3.23765576,14.6486031 3.29556349,14.7860296 C3.35347121,14.923456 3.3218653,15.0819094 3.21554268,15.1872065 C3.10922007,15.2925036 2.94922353,15.3238047 2.81045865,15.2664555 C2.67169376,15.2091063 2.58162411,15.0744571 2.58241758,14.9255465 C2.58231329,14.8286158 2.62114771,14.7356254 2.69035565,14.667085 C2.75956359,14.5985445 2.85345963,14.5600847 2.95133438,14.560188 Z" id="Shape" stroke-width="0.2" fill="#FFFFFF" fill-rule="nonzero"></path>
                            <path d="M13.5434347,5.88757255 C13.6109491,5.98453494 13.7093537,6.02240342 13.8015804,5.98691332 C13.8938072,5.95142322 13.9658446,5.84796632 13.990557,5.71551383 C14.0152694,5.58306135 13.9889023,5.44173596 13.9213879,5.34477358 C13.4056192,4.6014468 13.4056192,3.39902942 13.9213879,2.65570264 C13.9890987,2.55879669 14.0156148,2.4173316 13.9909275,2.28470406 C13.9662402,2.15207652 13.8941092,2.04848461 13.8017608,2.01302961 C13.7094123,1.97757461 13.6109103,2.01565602 13.5434347,2.11289983 C12.8188551,3.15596367 12.8188551,4.84450871 13.5434347,5.88757255 Z" id="Path" stroke-width="0.1"></path>
                            <path d="M12.2872683,6.88725763 C12.4505417,7.03779166 12.7141849,7.03754979 12.8771373,6.88671648 C13.0400898,6.73588316 13.0410756,6.49117699 12.879343,6.33921676 C11.4885632,5.04687948 11.4885632,2.95312052 12.879343,1.66078324 C13.0410756,1.50882301 13.0400898,1.26411684 12.8771373,1.11328352 C12.7141849,0.962450207 12.4505417,0.962208338 12.2872683,1.11274237 C10.5709106,2.70795315 10.5709106,5.29204685 12.2872683,6.88725763 Z" id="Path" stroke-width="0.1"></path>
                            <path d="M11.6637622,7.99999974 C11.7997605,7.99996692 11.9223546,7.90736262 11.9743949,7.76535611 C12.0264353,7.6233496 11.9976769,7.45989703 11.9015262,7.35119496 C11.1146768,6.46249217 10.6725853,5.25679735 10.6725853,3.99956337 C10.6725853,2.74232939 11.1146768,1.53663457 11.9015262,0.647931777 C12.0321375,0.499381473 12.0318053,0.259407555 11.9007835,0.111319787 C11.7697616,-0.0367679817 11.5574323,-0.0371552336 11.4259882,0.110453843 C10.5129748,1.14167689 10,2.5407126 10,3.99955007 C10,5.45838754 10.5129748,6.85742324 11.4259882,7.88864629 C11.4889789,7.96004321 11.5745517,8.00011835 11.6637622,7.99999974 Z" id="Path" stroke-width="0.1"></path>
                            <path d="M18.0783281,5.88752837 C18.1284539,5.95954072 18.1964547,6 18.2673617,6 C18.3382688,6 18.4062696,5.95954072 18.4563953,5.88752837 C19.1812016,4.84434851 19.1812016,3.15560934 18.4563953,2.11242948 C18.3519942,1.96252276 18.1827272,1.96252362 18.0783268,2.1124314 C17.9739264,2.26233918 17.973927,2.50538685 18.0783281,2.65529357 C18.5942561,3.39870428 18.5942561,4.60125741 18.0783281,5.34466811 C18.0281768,5.4166433 18,5.51428434 18,5.61609824 C18,5.71791214 18.0281768,5.81555318 18.0783281,5.88752837 Z" id="Path" stroke-width="0.1"></path>
                            <path d="M20.1649109,3.99869501 C20.1668802,4.87590307 19.7919364,5.71756308 19.1232855,6.33689767 C19.0171267,6.43486803 18.9755159,6.57812857 19.0142142,6.71241668 C19.0529125,6.84670478 19.1660018,6.95148447 19.3106474,6.98706845 C19.455293,7.02265244 19.6093751,6.98359905 19.7145321,6.8847005 C21.4284893,5.2901826 21.4284893,2.7072113 19.7145321,1.1126934 C19.5514871,0.962224753 19.2882127,0.962466516 19.1254881,1.11323432 C18.9627636,1.26400212 18.9617791,1.508602 19.1232855,1.66049623 C19.7920831,2.27973805 20.1670534,3.12145628 20.1649109,3.99869501 Z" id="Path" stroke-width="0.1"></path>
                            <path d="M20.5740814,0.111300143 C20.4427532,-0.0371007898 20.2298288,-0.037099939 20.0985015,0.111302043 C19.9671742,0.259704025 19.9671749,0.500310328 20.0985032,0.64871126 C20.8853044,1.53738131 21.3273562,2.74292975 21.3273562,3.99999729 C21.3273562,5.25706483 20.8853044,6.46261326 20.0985032,7.35128332 C20.0135493,7.44728189 19.980371,7.58720286 20.0114663,7.71833935 C20.0425616,7.84947584 20.1332063,7.9519051 20.2492554,7.98704301 C20.3653046,8.02218093 20.4891276,7.98468921 20.5740814,7.88869063 C21.4870581,6.857517 22,5.45864687 22,3.99999539 C22,2.54134391 21.4870581,1.14247378 20.5740814,0.111300143 Z" id="Path" stroke-width="0.1"></path>
                        </g>
                        <g id="Group-6" transform="translate(19.000000, 64.000000)">
                            <g id="Group-15" transform="translate(23.500000, 4.000000) scale(-1, -1) rotate(-180.000000) translate(-23.500000, -4.000000) " stroke="#979797" stroke-width="0.1">
                                <path d="M0.676470588,7.77239239 C0.282361403,7.22327718 5.68434189e-14,5.7416251 5.68434189e-14,4 C5.68434189e-14,2.2583749 0.282361403,0.776722821 0.676470588,0.22760761 L0.676470588,0 L46,0 L46,8 L0.676470588,8 L0.676470588,7.77239239 Z" id="Combined-Shape" fill="#FFFFFF"></path>
                                <ellipse id="Oval" fill="#EDEDED" cx="46" cy="4" rx="1" ry="4"></ellipse>
                            </g>
                            <text id="LAN" font-family="ArialMT, Arial" font-size="5" font-weight="normal" fill="#000000">
                                <tspan x="19" y="6">LAN</tspan>
                            </text>
                        </g>
                        <g id="Switch" transform="translate(59.000000, 24.000000)">
                            <polygon id="path3266" stroke="#000000" stroke-width="0.3" fill="url(#linearGradient-1)" stroke-linejoin="round" points="0 1.48012791 0 10 40 10 40 1.48012791 34.9652681 0 4.69019172 0"></polygon>
                            <polygon id="path3267" stroke="#FFFFFF" stroke-width="0.37468" fill="url(#linearGradient-2)" stroke-linejoin="round" points="1 2 1 9 39 9 39 2"></polygon>
                            <g id="Group-2" transform="translate(5.000000, 4.000000)" fill="#B6F2B6" fill-opacity="0.99582" stroke="#000000" stroke-width="0.2">
                                <rect id="rect3308" x="29.6153846" y="0" width="3.38461538" height="3" rx="0.60057"></rect>
                                <rect id="rect3936" x="25.3846154" y="0" width="3.38461538" height="3" rx="0.60057"></rect>
                                <rect id="rect3937" x="21.1538462" y="0" width="3.38461538" height="3" rx="0.60057"></rect>
                                <rect id="rect3938" x="16.9230769" y="0" width="3.38461538" height="3" rx="0.60057"></rect>
                                <rect id="rect3939" x="12.6923077" y="0" width="3.38461538" height="3" rx="0.60057"></rect>
                                <rect id="rect3940" x="8.46153846" y="0" width="3.38461538" height="3" rx="0.60057"></rect>
                                <rect id="rect3941" x="4.23076923" y="0" width="3.38461538" height="3" rx="0.60057"></rect>
                                <rect id="rect3942" x="0" y="0" width="3.38461538" height="3" rx="0.60057"></rect>
                            </g>
                            <g id="Group-3" transform="translate(2.000000, 3.000000)" fill="#FFF3CC" fill-opacity="0.75" stroke="#000000" stroke-width="0.2">
                                <path d="M2,3.2 C2,3.64184219 1.55228405,4 1.00001403,4 C0.44771595,4 0,3.64181075 0,3.2 C0,2.75815781 0.44771595,2.4 1.00001403,2.4 C1.55228405,2.4 2,2.75818925 2,3.2 Z" id="path4575"></path>
                                <path d="M2,0.8 C2,1.24184219 1.55228405,1.6 1.00001403,1.6 C0.44771595,1.6 0,1.24181075 0,0.8 C0,0.358157812 0.44771595,0 1.00001403,0 C1.55228405,0 2,0.358189249 2,0.8 Z" id="path5830"></path>
                            </g>
                        </g>
                        <path d="M79.4983659,19 C78.7148438,19.8101006 78.4535456,20.6434339 78.7144713,21.5 C78.9753971,22.3565661 78.9285969,23.1898994 78.5740708,24" id="Line-2-Copy-19" stroke="#7B7B7B" stroke-linecap="square"></path>
                        <g id="Router" transform="translate(55.000000, 8.000000)">
                            <g>
                                <polygon id="path3266" stroke="#000000" stroke-width="0.3" fill="url(#linearGradient-1)" stroke-linejoin="round" points="0 1.6281407 0 11 46 11 46 1.6281407 40.2100583 0 5.39372048 0"></polygon>
                                <polygon id="path3267" stroke="#FFFFFF" stroke-width="0.37468" fill="url(#linearGradient-2)" stroke-linejoin="round" points="1 3 1 10 45 10 45 3"></polygon>
                                <g id="Group-2" transform="translate(11.000000, 5.000000)" fill="#F2B6B6" fill-opacity="0.99582" stroke="#000000" stroke-width="0.2">
                                    <rect id="rect3308" x="10.1025641" y="0" width="3.8974359" height="4" rx="0.60057"></rect>
                                    <rect id="rect3936" x="5.23076923" y="0" width="3.8974359" height="4" rx="0.60057"></rect>
                                    <rect id="rect3937" x="0.358974359" y="0" width="3.8974359" height="4" rx="0.60057"></rect>
                                </g>
                                <g id="Group-3" transform="translate(30.500000, 7.000000) rotate(-270.000000) translate(-30.500000, -7.000000) translate(29.500000, 4.500000)" fill="#CCEEFF" fill-opacity="0.75" stroke="#000000" stroke-width="0.1">
                                    <path d="M2,4 C2,4.55230273 1.55228405,5 1.00001403,5 C0.44771595,5 0,4.55226344 0,4 C0,3.44769727 0.44771595,3 1.00001403,3 C1.55228405,3 2,3.44773656 2,4 Z" id="path4575"></path>
                                    <path d="M2,1 C2,1.55230273 1.55228405,2 1.00001403,2 C0.44771595,2 0,1.55226344 0,1 C0,0.447697265 0.44771595,0 1.00001403,0 C1.55228405,0 2,0.447736561 2,1 Z" id="path5830"></path>
                                </g>
                            </g>
                        </g>
                        <g id="Group-4" transform="translate(7.000000, 17.000000)"></g>
                    </g>
                    <g id="Internet" transform="translate(5.000000, 0.000000)">
                        <g id="Nube-internet">
                            <path d="M20.0436485,25.1593476 C7.43357818,26.5013091 -1.45557705,35.5362103 0.197921425,45.3898835 C1.85217944,55.2429552 13.4281617,62.1499493 25.9975839,60.8407726 C38.6076542,59.4988111 47.4554019,50.4639099 45.8011439,40.6102367 C44.1476454,30.7571649 32.6123112,23.8495903 20.0436485,25.1593476 Z" id="path6175" fill="#FFE1E1"></path>
                            <path d="M20.0436485,25.1593476 C7.43357818,26.5013091 -1.45557705,35.5362103 0.197921425,45.3898835 C1.85217944,55.2429552 13.4281617,62.1499493 25.9975839,60.8407726 C38.6076542,59.4988111 47.4554019,50.4639099 45.8011439,40.6102367 C44.1476454,30.7571649 32.6123112,23.8495903 20.0436485,25.1593476" id="path6177" stroke="#000000" stroke-width="0.67880154" stroke-linejoin="round"></path>
                            <path d="M124.256727,9.23455432 C108.605153,10.9652756 97.3901917,21.417747 99.1895121,32.5972849 C100.988859,43.8114649 115.133621,51.4602324 130.743283,49.7647671 C146.394115,48.0340458 157.609819,37.5815744 155.810498,26.4020365 C154.011178,15.2224986 139.866389,7.53847513 124.256727,9.23455432 Z" id="path6191" stroke="#000000" stroke-width="0.68" fill="#FFE1E1"></path>
                            <path d="M63.2595816,38.370329 C45.113374,40.3457054 31.6180357,49.3522664 33.1131571,58.5264309 C34.6498389,67.7011894 50.594951,73.5938064 68.740422,71.61843 C86.8866296,69.6765658 100.381942,60.6694109 98.8868465,51.4952464 C97.3501647,42.321103 81.4050526,36.4278709 63.2595816,38.370329 Z" id="path6179" fill="#FFE1E1"></path>
                            <path d="M63.2595816,38.370329 C45.113374,40.3457054 31.6180357,49.3522664 33.1131571,58.5264309 C34.6498389,67.7011894 50.594951,73.5938064 68.740422,71.61843 C86.8866296,69.6765658 100.381942,60.6694109 98.8868465,51.4952464 C97.3501647,42.321103 81.4050526,36.4278709 63.2595816,38.370329" id="path6181" stroke="#000000" stroke-width="0.67880154" stroke-linejoin="round"></path>
                            <path d="M109.169546,31.3364128 C93.4687207,33.0766501 81.7976107,41.0112662 83.0990872,49.1200868 C84.4005372,57.2289075 98.1701843,62.3792939 113.829709,60.6739107 C129.531279,58.9336734 141.202389,50.9642252 139.900913,42.8553825 C138.599463,34.7820332 124.829071,29.5961975 109.169546,31.3364128 Z" id="path6183" fill="#FFE1E1"></path>
                            <path d="M109.169546,31.3364128 C93.4687207,33.0766501 81.7976107,41.0112662 83.0990872,49.1200868 C84.4005372,57.2289075 98.1701843,62.3792939 113.829709,60.6739107 C129.531279,58.9336734 141.202389,50.9642252 139.900913,42.8553825 C138.599463,34.7820332 124.829071,29.5961975 109.169546,31.3364128 Z" id="path6183-copy" fill="#FFE1E1"></path>
                            <path d="M109.169546,31.3364128 C93.4687207,33.0766501 81.7976107,41.0112662 83.0990872,49.1200868 C84.4005372,57.2289075 98.1701843,62.3792939 113.829709,60.6739107 C129.531279,58.9336734 141.202389,50.9642252 139.900913,42.8553825 C138.599463,34.7820332 124.829071,29.5961975 109.169546,31.3364128" id="path6185" stroke="#000000" stroke-width="0.67880154" stroke-linejoin="round"></path>
                            <path d="M114.439136,0 C96.9289629,0 82.7386411,5.41230327 80.2477316,13.1431466 C77.7568221,20.8739899 94.458809,28 111.968982,28 C129.479155,28 146.520574,18.8083917 143.69026,13.1431466 C140.859945,7.47790142 131.949309,0 114.439136,0 Z" id="path6187" fill="#FFE1E1"></path>
                            <path d="M111.999986,0 C94.3359507,0 80,6.73106685 80,15.0002922 C80,23.3031318 94.3359507,30 111.999986,30 C129.664022,30 144,23.3031318 144,15.0002922 C144,6.73106685 129.664022,0 111.999986,0" id="path6189" stroke="#000000" stroke-width="0.67880154" stroke-linejoin="round"></path>
                            <path d="M121.256727,9.23455432 C105.605153,10.9652756 94.3901917,21.417747 96.1895121,32.5972849 C97.988859,43.8114649 112.133621,51.4602324 127.743283,49.7647671 C143.394115,48.0340458 154.609819,37.5815744 152.810498,26.4020365 C151.011178,15.2224986 136.866389,7.53847513 121.256727,9.23455432 Z" id="path6191" fill="#FFE1E1"></path>
                            <path d="M55.4630614,3.24585476 C39.7983113,4.87573799 28.4887162,14.1362607 30.1646147,23.9505914 C31.8397437,33.7328445 45.871314,40.3841578 61.5368336,38.7542539 C77.160404,37.1564276 88.5111788,27.8959048 86.8360233,18.0815742 C85.1601513,8.26726415 71.0866584,1.61537253 55.4630614,3.24585476 Z" id="path6195" fill="#FFE1E1"></path>
                            <path d="M55.4630614,3.24585476 C39.7983113,4.87573799 28.4887162,14.1362607 30.1646147,23.9505914 C31.8397437,33.7328445 45.871314,40.3841578 61.5368336,38.7542539 C77.160404,37.1564276 88.5111788,27.8959048 86.8360233,18.0815742 C85.1601513,8.26726415 71.0866584,1.61537253 55.4630614,3.24585476" id="path6197" stroke="#000000" stroke-width="0.67880154" stroke-linejoin="round"></path>
                            <path d="M30.4996155,12 C15.8472245,12 4,18.6931942 4,26.9996956 C4,35.3068058 15.8472245,42 30.4996155,42 C45.1108741,42 57,35.3068058 57,26.9996956 C57,18.6931942 45.1108741,12 30.4996155,12 Z" id="path6199" fill="#FFE1E1"></path>
                            <path d="M30.4996155,12 C15.8472245,12 4,18.6931942 4,26.9996956 C4,35.3068058 15.8472245,42 30.4996155,42 C45.1108741,42 57,35.3068058 57,26.9996956 C57,18.6931942 45.1108741,12 30.4996155,12" id="path6201" stroke="#000000" stroke-width="0.67880154" stroke-linejoin="round"></path>
                            <path d="M12.233459,47.2859423 C15.3474015,59.4140068 47.9410622,64.4563752 85.1020858,58.4913214 C122.263109,52.5586689 149.874441,37.8599414 146.760472,25.7318561 C143.68735,13.5708057 111.052133,8.56142316 73.8918718,14.4934911 C36.7724053,20.4591295 9.16107363,35.1248711 12.233459,47.2859423 Z" id="path6203" fill="#FFE1E1"></path>
                        </g>
                        <text font-family="ArialMT, Arial" font-size="10" font-weight="normal" fill="#000000">
                            <tspan x="61" y="39">Internet</tspan>
                        </text>
                        <path d="M75,71.3882958 C73.9944458,76.4532765 74.044327,81.7587154 75.1496435,87.3046124 C76.2549601,92.8505093 75.4072311,100.895566 72.6064565,111.439783" id="Línea-internet" stroke="#7B7B7B" stroke-linecap="square"></path>
                        <rect id="Rectangle-Copy" stroke="#979797" fill="#866261" x="45.5" y="81.5" width="54" height="17" rx="7"></rect>
                        <text id="ONT-(o-router-bridge" font-family="ArialMT, Arial" font-size="6" font-weight="normal" fill="#FFFFFF">
                            <tspan x="64.6674805" y="89">ONT</tspan>
                            <tspan x="49.4902344" y="95">(o router bridge)</tspan>
                        </text>
                    </g>
                    <ellipse id="Oval" stroke="#979797" stroke-width="0.5" fill="#E5FFFE" cx="164" cy="73.5" rx="23" ry="12.5"></ellipse>
                    <path id="Line" d="M134.525427,81.6128935 L142.267989,77.5570884 L142.7109,77.3250769 L143.174923,78.2109001 L142.732011,78.4429116 L134.98945,82.4987167 L136.845541,86.0420094 L126.78503,86.2320115 L132.669335,78.0696007 L134.525427,81.6128935 Z" fill="#489EAF" fill-rule="nonzero"></path>
                    <text id="Mi-caso" font-family="ArialMT, Arial" font-size="8" font-weight="normal" fill="#000000">
                        <tspan x="150" y="76">Mi caso</tspan>
                    </text>
                </g>
            </g>
        </g>
    </g>
</svg>