<?xml version="1.0" encoding="UTF-8"?>
<svg width="260px" height="253px" viewBox="0 0 260 253" version="1.1" xmlns="http://www.w3.org/2000/svg" xmlns:xlink="http://www.w3.org/1999/xlink">
    <!-- Generator: Sketch 52.6 (67491) - http://www.bohemiancoding.com/sketch -->
    <title>2023-04-15-networking-avanzado-04</title>
    <desc>Created with Sketch.</desc>
    <defs>
        <linearGradient x1="97.4441164%" y1="106.387911%" x2="46.6922062%" y2="19.8665656%" id="linearGradient-1">
            <stop stop-color="#D2D2D2" offset="0%"></stop>
            <stop stop-color="#FFFFFF" offset="100%"></stop>
        </linearGradient>
        <linearGradient x1="59.6136968%" y1="-35.8201812%" x2="61.4087005%" y2="120.850954%" id="linearGradient-2">
            <stop stop-color="#D2D2D2" offset="0%"></stop>
            <stop stop-color="#FFFFFF" offset="100%"></stop>
        </linearGradient>
        <linearGradient x1="50%" y1="0%" x2="50%" y2="50%" id="linearGradient-3">
            <stop stop-color="#FFCFCF" offset="0%"></stop>
            <stop stop-color="#E3FFCA" offset="100%"></stop>
        </linearGradient>
        <linearGradient x1="100%" y1="41.6660094%" x2="0%" y2="41.6660094%" id="linearGradient-4">
            <stop stop-color="#E0E0E0" offset="0%"></stop>
            <stop stop-color="#BDBDBD" offset="100%"></stop>
        </linearGradient>
    </defs>
    <g id="Networking" stroke="none" stroke-width="1" fill="none" fill-rule="evenodd">
        <g id="Opciones-ISP" transform="translate(-93.000000, -318.000000)">
            <g id="2023-04-15-networking-avanzado-04" transform="translate(93.000000, 318.000000)">
                <rect id="Rectangle" stroke="#979797" stroke-width="0.5" fill="#FFFFFF" x="0.25" y="0.25" width="259.5" height="252.5"></rect>
                <rect id="Rectangle" stroke="#979797" stroke-width="0.2" fill="#FDFDFD" x="27.1" y="146.1" width="74.8" height="87.8" rx="2"></rect>
                <g id="Switch" transform="translate(58.000000, 113.000000)">
                    <g id="Chassis" stroke-linejoin="round">
                        <polygon id="path3266" stroke="#000000" stroke-width="0.3" fill="url(#linearGradient-1)" points="0 2.66423024 0 18 133 18 133 2.66423024 116.259517 0 15.5948875 0"></polygon>
                        <polygon id="path3267" stroke="#FFFFFF" stroke-width="0.37468" fill="url(#linearGradient-2)" points="1.7972973 3.6 1.7972973 16.2 129.405405 16.2 129.405405 3.6"></polygon>
                    </g>
                    <g id="Puertos" transform="translate(10.783784, 7.200000)" stroke="#000000" stroke-width="0.2">
                        <rect id="rect3308" fill-opacity="0.99582" fill="#B6F2B6" x="53.2276507" y="0" width="6.08316008" height="5.4" rx="0.60057"></rect>
                        <rect id="rect3936" fill-opacity="0.99582" fill="#B6F2B6" x="45.6237006" y="0" width="6.08316008" height="5.4" rx="0.60057"></rect>
                        <rect id="rect3937" fill-opacity="0.99582" fill="#B6F2B6" x="38.0197505" y="0" width="6.08316008" height="5.4" rx="0.60057"></rect>
                        <rect id="rect3938" fill-opacity="0.99582" fill="#B6F2B6" x="30.4158004" y="0" width="6.08316008" height="5.4" rx="0.60057"></rect>
                        <rect id="rect3939" fill-opacity="0.99582" fill="#B6F2B6" x="22.8118503" y="0" width="6.08316008" height="5.4" rx="0.60057"></rect>
                        <rect id="rect3940" fill-opacity="0.99582" fill="#B6F2B6" x="15.2079002" y="0" width="6.08316008" height="5.4" rx="0.60057"></rect>
                        <rect id="rect3941" fill="#FFD9D8" x="7.6039501" y="0" width="6.08316008" height="5.4" rx="0.60057"></rect>
                        <rect id="rect3942" fill="#FFD9D8" x="0" y="0" width="6.08316008" height="5.4" rx="0.60057"></rect>
                        <rect id="rect3308" fill-opacity="0.99582" fill="#B6F2B6" x="111.155925" y="0" width="6.08316008" height="5.4" rx="0.60057"></rect>
                        <rect id="rect3936" fill-opacity="0.99582" fill="#B6F2B6" x="103.966736" y="0" width="6.08316008" height="5.4" rx="0.60057"></rect>
                        <rect id="rect3937" fill-opacity="0.99582" fill="#B6F2B6" x="96.7775468" y="0" width="6.08316008" height="5.4" rx="0.60057"></rect>
                        <rect id="rect3938" fill-opacity="0.99582" fill="#B6F2B6" x="89.5883576" y="0" width="6.08316008" height="5.4" rx="0.60057"></rect>
                        <rect id="rect3939" fill-opacity="0.99582" fill="#B6F2B6" x="82.3991684" y="0" width="6.08316008" height="5.4" rx="0.60057"></rect>
                        <rect id="rect3940" fill-opacity="0.99582" fill="#B6F2B6" x="75.2099792" y="0" width="6.08316008" height="5.4" rx="0.60057"></rect>
                        <rect id="rect3941" fill-opacity="0.99582" fill="#B6F2B6" x="68.02079" y="0" width="6.08316008" height="5.4" rx="0.60057"></rect>
                        <rect id="rect3942" fill-opacity="0.99582" fill="#B6F2B6" x="60.8316008" y="0" width="6.08316008" height="5.4" rx="0.60057"></rect>
                    </g>
                    <g id="Leds" transform="translate(5.391892, 7.200000)" fill="#FBF9D7" stroke="#000000" stroke-width="0.1">
                        <ellipse id="Oval" cx="0.898648649" cy="4.5" rx="1" ry="1"></ellipse>
                        <ellipse id="Oval" cx="0.898648649" cy="0.9" rx="1" ry="1"></ellipse>
                    </g>
                </g>
                <g id="server_network_vpn_vps" transform="translate(71.000000, 145.000000) rotate(-180.000000) translate(-71.000000, -145.000000) translate(56.000000, 123.000000)" stroke="#000000" stroke-linecap="round" stroke-linejoin="round">
                    <g id="Group" transform="translate(13.000000, 16.000000)" stroke-width="0.2">
                        <path d="M1.05,2.79660483 L1.05,26.6" id="Path"></path>
                    </g>
                    <g id="Group" stroke-width="0.3">
                        <path d="M29.516129,7.82608696 L0.483870968,7.82608696 C0.217741935,7.82608696 0,7.65 0,7.43478261 L0,0.391304348 C0,0.176086957 0.217741935,0 0.483870968,0 L29.516129,0 C29.7822581,0 30,0.176086957 30,0.391304348 L30,7.43478261 C30,7.65 29.7822581,7.82608696 29.516129,7.82608696 Z" id="Path"></path>
                        <path d="M29.516129,18 L0.483870968,18 C0.217741935,18 0,17.823913 0,17.6086957 L0,10.5652174 C0,10.35 0.217741935,10.173913 0.483870968,10.173913 L29.516129,10.173913 C29.7822581,10.173913 30,10.35 30,10.5652174 L30,17.6086957 C30,17.823913 29.7822581,18 29.516129,18 Z" id="Path"></path>
                        <g transform="translate(2.842742, 7.826087)" id="Path">
                            <path d="M0.0879342432,0 L0.0879342432,2.34782609"></path>
                            <path d="M24.2814826,0 L24.2814826,2.34782609"></path>
                        </g>
                        <g transform="translate(2.842742, 12.521739)" id="Path">
                            <path d="M0.0879342432,3.13043478 L0.0879342432,0"></path>
                            <path d="M2.02341811,3.13043478 L2.02341811,0"></path>
                            <path d="M3.95890199,3.13043478 L3.95890199,0"></path>
                            <path d="M5.89438586,3.13043478 L5.89438586,0"></path>
                            <path d="M18.4475806,1.63076087 L24.2540323,1.63076087"></path>
                        </g>
                        <g transform="translate(2.842742, 2.347826)" id="Path">
                            <path d="M0.0879342432,3.13043478 L0.0879342432,0"></path>
                            <path d="M2.02341811,3.13043478 L2.02341811,0"></path>
                            <path d="M3.95890199,3.13043478 L3.95890199,0"></path>
                            <path d="M5.89438586,3.13043478 L5.89438586,0"></path>
                            <path d="M18.4475806,1.63076087 L24.2540323,1.63076087"></path>
                        </g>
                    </g>
                </g>
                <rect id="Rectangle" stroke="#000000" stroke-width="0.1" fill="url(#linearGradient-3)" x="56.05" y="180.05" width="31.9" height="28.9" rx="2"></rect>
                <g id="Group-6" transform="translate(101.000000, 134.000000)">
                    <g id="Group-15" transform="translate(44.500000, 3.500000) scale(-1, -1) rotate(-180.000000) translate(-44.500000, -3.500000) " stroke="#979797" stroke-width="0.1">
                        <path d="M1.28435954,6.80084334 C0.536096569,6.32036753 0,5.02392196 0,3.5 C0,1.97607804 0.536096569,0.679632468 1.28435954,0.199156659 L1.28435954,-1.13686838e-13 L87.3364486,-1.13686838e-13 L87.3364486,7 L1.28435954,7 L1.28435954,6.80084334 Z" id="Combined-Shape" fill="#FFFFFF"></path>
                        <ellipse id="Oval" fill="#EDEDED" cx="86.9205607" cy="3.5" rx="2.07943925" ry="3.5"></ellipse>
                    </g>
                    <text id="vlan-100" font-family="ArialMT, Arial" font-size="5" font-weight="normal" fill="#417505">
                        <tspan x="30.0480957" y="5">vlan 100</tspan>
                    </text>
                </g>
                <path d="M82.1527413,68 C77.0446525,74.7849266 78.8151763,135.174819 74.2708251,146.820813 C69.7264739,158.506593 55.1903123,173.549702 61.6116624,186.712277 C63.6988307,190.969791 67.0825682,194.513236 71.1058834,196.99083" id="Path-2" stroke="#FFA8A6" stroke-width="2" stroke-linecap="round" stroke-linejoin="round"></path>
                <path d="M72,197.197443 C77.4249428,202.342377 84.6407143,202.891143 89.8272532,195.693649 C97.5114212,185.122652 90.1469937,138.660841 101.626159,138" id="Path-2" stroke="#417505" stroke-width="2" stroke-linecap="round" stroke-linejoin="round"></path>
                <g id="1592651906router-symbol" transform="translate(63.000000, 189.000000)" stroke="#7D7D7D" stroke-width="0.2">
                    <polygon id="path1212" fill="url(#linearGradient-4)" points="0.0301110555 4 18.9813801 4.06853997 19 8.34865095 18.9859401 8.56999667 18.9013145 8.87413137 18.7424752 9.22469047 18.4931204 9.53309475 18.0774936 9.91862935 17.5386714 10.2884601 16.8610587 10.6368698 16.0372378 10.9702774 14.9439983 11.3186871 13.8967841 11.5700076 12.044977 11.8506011 10.5932624 11.9777017 9.68482351 12 7.85232031 11.9407449 5.94640146 11.7322664 4.65278127 11.4509711 3.90169207 11.2667649 3.17806915 11.0518528 2.43143353 10.7477181 1.82284365 10.459258 1.11480065 10.029463 0.676161154 9.65178039 0.444590266 9.38548707 0.198929045 8.99995248 0.0749736401 8.72652369 0 8.34884103"></polygon>
                    <path d="M19,3.5 C19,5.43326 14.746584,7 9.5,7 C4.253416,7 0,5.43326 0,3.5 C0,1.56744 4.253416,0 9.5,0 C14.746584,0 19,1.56744 19,3.5" id="path1214" fill="#BDBDBD"></path>
                    <polygon id="path1216" fill="#FFFFFF" points="3 1.46018246 4.28582512 1 7.59908292 2.2858559 9 1.80953954 8.37348439 3 4.76376856 2.98383737 5.76911485 2.61906472"></polygon>
                    <polygon id="path1218" fill="#FFFFFF" points="11.5991366 4.78839369 10 5.19678131 10.626525 4 14.5991515 4.04386718 13.0990844 4.4522548 16 5.56193597 14.7637054 6"></polygon>
                    <polygon id="path1220" fill="#FFFFFF" points="10 2.54440473 12.8620504 1.42642918 11.3581967 1.02928589 15.2723444 1 16 2.13227239 14.6733501 1.76502732 11.342416 3"></polygon>
                    <polygon id="path1222" fill="#FFFFFF" points="6.24685359 5.63805725 7.3125045 6 3.79553236 5.97113694 3 4.78281861 4.46374842 5.24662171 7.69520247 4 9 4.47853638"></polygon>
                </g>
                <g id="backup_1_" transform="translate(67.000000, 84.000000)" stroke="#000000" stroke-linecap="round" stroke-linejoin="round" stroke-width="0.3">
                    <g id="Group">
                        <path d="M0,9 L2.48225806,0.44375 C2.55846774,0.189583333 3.11370968,0 3.78326613,0 L23.2167339,0 C23.8808468,0 24.4415323,0.191666667 24.5177419,0.44375 L27,9" id="Path"></path>
                        <path d="M25.6935484,15 L1.30645161,15 C0.582459677,15 0,13.93 0,12.6 L0,9.4 C0,8.07 0.582459677,7 1.30645161,7 L25.6935484,7 C26.4175403,7 27,8.07 27,9.4 L27,12.6 C27,13.93 26.4175403,15 25.6935484,15 Z" id="Path"></path>
                        <path d="M21.3488372,12.05 L23.2325581,12.05" id="Path"></path>
                    </g>
                </g>
                <g id="Group" transform="translate(79.000000, 110.000000) rotate(-360.000000) translate(-79.000000, -110.000000) translate(78.000000, 97.000000)" stroke="#000000" stroke-linecap="round" stroke-linejoin="round" stroke-width="0.2">
                    <path d="M1.05,2.59684734 L1.05,24.7" id="Path"></path>
                </g>
                <g id="Group" transform="translate(71.000000, 166.000000)" stroke="#000000" stroke-linecap="round" stroke-linejoin="round" stroke-width="0.2">
                    <path d="M0.5,0.5 L0.5,14.0548557" id="Path"></path>
                </g>
                <text id="ppp" font-family="ArialMT, Arial" font-size="5" font-weight="normal" fill="#AF1E1E">
                    <tspan x="80.3288574" y="64">ppp</tspan>
                </text>
                <g id="Group-7" transform="translate(187.000000, 158.000000)">
                    <g id="grey-cloud-1">
                        <path d="M7.0485976,7.70086345 C2.61410997,8.11090725 -0.511871726,10.8715715 0.0696015242,13.8824161 C0.651341873,16.8930769 4.72217961,19.0035473 9.14237287,18.6035211 C13.5768605,18.1934773 16.6882807,15.432813 16.1065404,12.4219685 C15.5250671,9.41130764 11.4685238,7.30065983 7.0485976,7.70086345 Z" id="path6175" fill="#FFFFFF"></path>
                        <path d="M7.0485976,7.70086345 C2.61410997,8.11090725 -0.511871726,10.8715715 0.0696015242,13.8824161 C0.651341873,16.8930769 4.72217961,19.0035473 9.14237287,18.6035211 C13.5768605,18.1934773 16.6882807,15.432813 16.1065404,12.4219685 C15.5250671,9.41130764 11.4685238,7.30065983 7.0485976,7.70086345" id="path6177" stroke="#000000" stroke-width="0.2" stroke-linejoin="round"></path>
                        <path d="M43.739164,2.94070258 C38.1868125,3.46560849 34.2083369,6.63571118 34.8466406,10.0263239 C35.4849538,13.4274432 40.502768,15.7472179 46.0402514,15.2330046 C51.5923396,14.7080987 55.5710786,11.5379961 54.9327748,8.14738328 C54.294471,4.75677051 49.2766474,2.42630317 43.739164,2.94070258 Z" id="path6191" stroke="#000000" stroke-width="0.2" fill="#FFFFFF"></path>
                        <path d="M22.0775474,11.592864 C15.6285275,12.2041697 10.8323901,14.9913663 11.3637446,17.83043 C11.9098692,20.6696775 17.576637,22.493224 24.0253951,21.8819182 C30.4744149,21.2809833 35.270543,18.4936029 34.7391979,15.6545392 C34.1930732,12.815482 28.5263055,10.9917452 22.0775474,11.592864 Z" id="path6179" fill="#FFFFFF"></path>
                        <path d="M22.0775474,11.592864 C15.6285275,12.2041697 10.8323901,14.9913663 11.3637446,17.83043 C11.9098692,20.6696775 17.576637,22.493224 24.0253951,21.8819182 C30.4744149,21.2809833 35.270543,18.4936029 34.7391979,15.6545392 C34.1930732,12.815482 28.5263055,10.9917452 22.0775474,11.592864" id="path6181" stroke="#000000" stroke-width="0.2" stroke-linejoin="round"></path>
                        <path d="M38.4012194,9.66711633 C32.831396,10.1942317 28.6911029,12.5976154 29.152798,15.0537654 C29.6144836,17.5099155 34.4992269,19.06996 40.0543988,18.5534019 C45.6244864,18.0262866 49.7647795,15.6123523 49.3030844,13.1561956 C48.8413987,10.7107898 43.9563913,9.14000765 38.4012194,9.66711633 Z" id="path6183" fill="#FFFFFF"></path>
                        <path d="M38.4012194,9.66711633 C32.831396,10.1942317 28.6911029,12.5976154 29.152798,15.0537654 C29.6144836,17.5099155 34.4992269,19.06996 40.0543988,18.5534019 C45.6244864,18.0262866 49.7647795,15.6123523 49.3030844,13.1561956 C48.8413987,10.7107898 43.9563913,9.14000765 38.4012194,9.66711633 Z" id="path6183-copy" fill="#FFFFFF"></path>
                        <path d="M38.4012194,9.66711633 C32.831396,10.1942317 28.6911029,12.5976154 29.152798,15.0537654 C29.6144836,17.5099155 34.4992269,19.06996 40.0543988,18.5534019 C45.6244864,18.0262866 49.7647795,15.6123523 49.3030844,13.1561956 C48.8413987,10.7107898 43.9563913,9.14000765 38.4012194,9.66711633" id="path6185" stroke="#000000" stroke-width="0.2" stroke-linejoin="round"></path>
                        <path d="M40.4954664,0 C34.2993113,0 29.2779199,1.66403113 28.3964859,4.04090531 C27.515052,6.41777949 33.4252219,8.60869565 39.621377,8.60869565 C45.817532,8.60869565 51.8478135,5.78270428 50.8462775,4.04090531 C49.8447416,2.29910634 46.6916214,0 40.4954664,0 Z" id="path6187" fill="#FFFFFF"></path>
                        <path d="M39.6323482,0 C33.3817473,0 28.3088235,2.03883039 28.3088235,4.54356677 C28.3088235,7.05848484 33.3817473,9.08695652 39.6323482,9.08695652 C45.8829491,9.08695652 50.9558824,7.05848484 50.9558824,4.54356677 C50.9558824,2.03883039 45.8829491,0 39.6323482,0" id="path6189" stroke="#000000" stroke-width="0.2" stroke-linejoin="round"></path>
                        <path d="M42.9303405,2.94070258 C37.377989,3.46560849 33.3995133,6.63571118 34.0378171,10.0263239 C34.6761303,13.4274432 39.6939445,15.7472179 45.2314279,15.2330046 C50.783516,14.7080987 54.7622551,11.5379961 54.1239513,8.14738328 C53.4856475,4.75677051 48.4678239,2.42630317 42.9303405,2.94070258 Z" id="path6191" fill="#FFFFFF"></path>
                        <path d="M19.5476547,1.03164403 C13.990629,1.5296639 9.97858224,4.35926808 10.5731025,7.35809134 C11.1673497,10.3471131 16.1450095,12.3794588 21.7023081,11.8814327 C27.2447254,11.3932079 31.2713805,8.56360377 30.6771238,5.56478051 C30.082613,2.56596356 25.0900813,0.533441122 19.5476547,1.03164403 Z" id="path6195" fill="#FFFFFF"></path>
                        <path d="M19.5476547,1.03164403 C13.990629,1.5296639 9.97858224,4.35926808 10.5731025,7.35809134 C11.1673497,10.3471131 16.1450095,12.3794588 21.7023081,11.8814327 C27.2447254,11.3932079 31.2713805,8.56360377 30.6771238,5.56478051 C30.082613,2.56596356 25.0900813,0.533441122 19.5476547,1.03164403" id="path6197" stroke="#000000" stroke-width="0.2" stroke-linejoin="round"></path>
                        <path d="M10.9189827,3.82608696 C5.77600971,3.82608696 1.61764706,5.85344577 1.61764706,8.36947301 C1.61764706,10.8856847 5.77600971,12.9130435 10.9189827,12.9130435 C16.0475182,12.9130435 20.2205882,10.8856847 20.2205882,8.36947301 C20.2205882,5.85344577 16.0475182,3.82608696 10.9189827,3.82608696 Z" id="path6199" fill="#FFFFFF"></path>
                        <path d="M10.9189827,3.82608696 C5.77600971,3.82608696 1.61764706,5.85344577 1.61764706,8.36947301 C1.61764706,10.8856847 5.77600971,12.9130435 10.9189827,12.9130435 C16.0475182,12.9130435 20.2205882,10.8856847 20.2205882,8.36947301 C20.2205882,5.85344577 16.0475182,3.82608696 10.9189827,3.82608696" id="path6201" stroke="#000000" stroke-width="0.2" stroke-linejoin="round"></path>
                        <path d="M4.1266421,14.5026676 C5.22737668,18.1722949 16.7487742,19.6979804 29.8846698,17.893115 C43.0205653,16.0980533 52.7807801,11.6506123 51.6800362,7.98097863 C50.5937312,4.30137067 39.0576438,2.78566575 25.9220178,4.58055055 C12.8008121,6.38559286 3.04059738,10.8230533 4.1266421,14.5026676 Z" id="path6203" fill="#FFFFFF"></path>
                    </g>
                    <text id="WiFi-Copy" font-family="ArialMT, Arial" font-size="5" font-weight="normal" fill="#000000">
                        <tspan x="17" y="13">WiFi</tspan>
                    </text>
                </g>
                <g id="AdobeStock_483530275" transform="translate(180.000000, 145.000000)" stroke="#000000">
                    <path d="M22.1251962,14.5381898 L20.1550235,14.5381898 L20.1550235,5.47196775 C20.1550235,5.21130716 19.935383,5 19.6644427,5 C19.3935024,5 19.1738619,5.21130716 19.1738619,5.47196775 L19.1738619,14.5381898 L2.86989796,14.5381898 C1.28478534,14.5423693 0.00163697049,15.778944 0,17.3039209 L0,19.234269 C0.00163966133,20.7592448 1.28478646,21.995818 2.86989796,22 L22.1251962,22 C23.7119867,21.9978657 24.9977815,20.7608551 25,19.234269 L25,17.3039209 C24.9977842,15.7773336 23.7119878,14.5403215 22.1251962,14.5381898 Z M21.9338697,18.7387028 L14.2611852,18.7387028 C13.9902449,18.7387028 13.7706044,18.5273957 13.7706044,18.2667351 C13.7706044,18.0060745 13.9902449,17.7947673 14.2611852,17.7947673 L21.9338697,17.7947673 C22.20481,17.7947673 22.4244505,18.0060745 22.4244505,18.2667351 C22.4244505,18.5273957 22.20481,18.7387028 21.9338697,18.7387028 Z M9.52217425,18.2667351 C9.52217425,18.511756 9.31571216,18.7103848 9.06102826,18.7103848 C8.80634436,18.7103848 8.59988226,18.511756 8.59988226,18.2667351 C8.59988226,18.0217141 8.80634436,17.8230854 9.06102826,17.8230854 C9.31559,17.8233689 9.52187958,18.0218316 9.52217425,18.2667351 Z M6.83869702,18.2667351 C6.83968886,18.447555 6.72710179,18.6110577 6.55364569,18.680696 C6.38018959,18.7503343 6.18019391,18.7123259 6.04729064,18.5844651 C5.91438738,18.4566043 5.87487998,18.2641966 5.94726464,18.0973216 C6.01964929,17.9304466 6.18960003,17.8221312 6.37755102,17.8230854 C6.63211277,17.8233689 6.83840235,18.0218316 6.83869702,18.2667351 Z M3.68916797,17.8230854 C3.87711896,17.8221312 4.0470697,17.9304466 4.11945436,18.0973216 C4.19183901,18.2641966 4.15233162,18.4566043 4.01942835,18.5844651 C3.88652508,18.7123259 3.68652941,18.7503343 3.51307331,18.680696 C3.3396172,18.6110577 3.22703013,18.447555 3.22802198,18.2667351 C3.22789162,18.1490335 3.27643464,18.0361165 3.36294456,17.9528889 C3.44945449,17.8696612 3.56682454,17.82296 3.68916797,17.8230854 Z" id="Shape" stroke-width="0.2" fill="#FFFFFF" fill-rule="nonzero"></path>
                    <path d="M16.5434347,6.85946569 C16.6109491,6.98066867 16.7093537,7.02800428 16.8015804,6.98364165 C16.8938072,6.93927902 16.9658446,6.8099579 16.990557,6.64439229 C17.0152694,6.47882669 16.9889023,6.30216995 16.9213879,6.18096697 C16.4056192,5.2518085 16.4056192,3.74878677 16.9213879,2.8196283 C16.9890987,2.69849586 17.0156148,2.5216645 16.9909275,2.35588007 C16.9662402,2.19009565 16.8941092,2.06060577 16.8017608,2.01628702 C16.7094123,1.97196826 16.6109103,2.01957003 16.5434347,2.14112478 C15.8188551,3.44495459 15.8188551,5.55563589 16.5434347,6.85946569 Z" id="Path" stroke-width="0.1"></path>
                    <path d="M15.2872683,7.86846723 C15.4505417,8.04409027 15.7141849,8.04380809 15.8771373,7.86783589 C16.0400898,7.69186369 16.0410756,7.40637316 15.879343,7.22908622 C14.4885632,5.72135939 14.4885632,3.27864061 15.879343,1.77091378 C16.0410756,1.59362684 16.0400898,1.30813631 15.8771373,1.13216411 C15.7141849,0.956191908 15.4505417,0.955909727 15.2872683,1.13153277 C13.5709106,2.99261201 13.5709106,6.00738799 15.2872683,7.86846723 Z" id="Path" stroke-width="0.1"></path>
                    <path d="M14.6637622,9.99999967 C14.7997605,9.99995865 14.9223546,9.88420327 14.9743949,9.70669514 C15.0264353,9.52918701 14.9976769,9.32487129 14.9015262,9.1889937 C14.1146768,8.07811521 13.6725853,6.57099669 13.6725853,4.99945421 C13.6725853,3.42791173 14.1146768,1.92079321 14.9015262,0.809914721 C15.0321375,0.624226841 15.0318053,0.324259444 14.9007835,0.139149733 C14.7697616,-0.0459599772 14.5574323,-0.0464440419 14.4259882,0.138067303 C13.5129748,1.42709611 13,3.17589075 13,4.99943758 C13,6.82298442 13.5129748,8.57177905 14.4259882,9.86080786 C14.4889789,9.95005402 14.5745517,10.0001479 14.6637622,9.99999967 Z" id="Path" stroke-width="0.1"></path>
                    <path d="M22.0783281,6.85941046 C22.1284539,6.9494259 22.1964547,7 22.2673617,7 C22.3382688,7 22.4062696,6.9494259 22.4563953,6.85941046 C23.1812016,5.55543564 23.1812016,3.44451167 22.4563953,2.14053685 C22.3519942,1.95315345 22.1827272,1.95315452 22.0783268,2.14053925 C21.9739264,2.32792397 21.973927,2.63173357 22.0783281,2.81911697 C22.5942561,3.74838035 22.5942561,5.25157177 22.0783281,6.18083514 C22.0281768,6.27080413 22,6.39285543 22,6.5201228 C22,6.64739018 22.0281768,6.76944148 22.0783281,6.85941046 Z" id="Path" stroke-width="0.1"></path>
                    <path d="M25.1649109,4.49847751 C25.1668802,5.52188692 24.7919364,6.5038236 24.1232855,7.22638062 C24.0171267,7.34067937 23.9755159,7.50781667 24.0142142,7.66448612 C24.0529125,7.82115558 24.1660018,7.94339854 24.3106474,7.98491319 C24.455293,8.02642784 24.6093751,7.98086556 24.7145321,7.86548392 C26.4284893,6.00521303 26.4284893,2.99174652 24.7145321,1.13147563 C24.5514871,0.955928878 24.2882127,0.956210936 24.1254881,1.1321067 C23.9627636,1.30800247 23.9617791,1.593369 24.1232855,1.77057893 C24.7920831,2.49302772 25.1670534,3.47503233 25.1649109,4.49847751 Z" id="Path" stroke-width="0.1"></path>
                    <path d="M25.5740814,0.139125179 C25.4427532,-0.0463759872 25.2298288,-0.0463749237 25.0985015,0.139127554 C24.9671742,0.324630032 24.9671749,0.625387909 25.0985032,0.810889075 C25.8853044,1.92172664 26.3273562,3.42866219 26.3273562,4.99999661 C26.3273562,6.57133103 25.8853044,8.07826658 25.0985032,9.18910415 C25.0135493,9.30910236 24.980371,9.48400357 25.0114663,9.64792418 C25.0425616,9.8118448 25.1332063,9.93988137 25.2492554,9.98380376 C25.3653046,10.0277262 25.4891276,9.98086151 25.5740814,9.86086329 C26.4870581,8.57189625 27,6.82330858 27,4.99999424 C27,3.17667989 26.4870581,1.42809222 25.5740814,0.139125179 Z" id="Path" stroke-width="0.1"></path>
                </g>
                <g id="Group" transform="translate(183.000000, 138.000000)" stroke="#000000" stroke-linecap="round" stroke-linejoin="round" stroke-width="0.2">
                    <path d="M0.525,0.482155556 L0.525,22.7351634" id="Path"></path>
                </g>
                <text id="vlan6" font-family="ArialMT, Arial" font-size="5" font-weight="normal" fill="#AF1E1E">
                    <tspan x="63.0234375" y="107">vlan6</tspan>
                </text>
                <text id="vlan6" font-family="ArialMT, Arial" font-size="5" font-weight="normal" fill="#AF1E1E">
                    <tspan x="57.0234375" y="140">vlan6</tspan>
                </text>
                <text id="HOST-Proxmox" font-family="ArialMT, Arial" font-size="5" font-weight="normal" fill="#000000">
                    <tspan x="31" y="155">HOST</tspan>
                    <tspan x="31" y="161">Proxmox</tspan>
                </text>
                <text id="ONT" font-family="ArialMT, Arial" font-size="5" font-weight="normal" fill="#000000">
                    <tspan x="50" y="90">ONT</tspan>
                </text>
                <text id="VM-router-+-firewall" font-family="ArialMT, Arial" font-size="5" font-weight="normal" fill="#000000">
                    <tspan x="58.3701172" y="217">VM router +</tspan>
                    <tspan x="63.720459" y="223">firewall</tspan>
                </text>
                <g id="Internet" transform="translate(65.000000, 13.000000)">
                    <g id="Nube-internet" transform="translate(0.000000, 0.400000)">
                        <path d="M14.2618268,17.8212045 C5.28927678,18.7717606 -1.03569906,25.1714823 0.140828706,32.1511674 C1.31789691,39.1304266 9.55465349,44.0228807 18.4982809,43.0955473 C27.4708309,42.1449912 33.7663437,35.7452695 32.5892755,28.7655843 C31.4127477,21.7863252 23.2049137,16.8934598 14.2618268,17.8212045 Z" id="path6175" fill="#FFE1E1"></path>
                        <path d="M14.2618268,17.8212045 C5.28927678,18.7717606 -1.03569906,25.1714823 0.140828706,32.1511674 C1.31789691,39.1304266 9.55465349,44.0228807 18.4982809,43.0955473 C27.4708309,42.1449912 33.7663437,35.7452695 32.5892755,28.7655843 C31.4127477,21.7863252 23.2049137,16.8934598 14.2618268,17.8212045" id="path6177" stroke="#000000" stroke-width="0.67880154" stroke-linejoin="round"></path>
                        <path d="M88.4134405,6.54114264 C77.2767435,7.76707019 69.2968672,15.1709041 70.5771528,23.0897435 C71.8574574,31.033121 81.9219995,36.4509979 93.0288746,35.2500433 C104.165043,34.0241158 112.145448,26.6202819 110.865162,18.7014425 C109.584877,10.7826032 99.5203156,5.33975322 88.4134405,6.54114264 Z" id="path6191" stroke="#000000" stroke-width="0.68" fill="#FFE1E1"></path>
                        <path d="M45.0116253,27.178983 C32.0999008,28.578208 22.4974485,34.9578553 23.5612849,41.4562219 C24.6546931,47.9550091 36.0002536,52.1289462 48.9114541,50.7297212 C61.8231787,49.3542341 71.4256123,42.9741661 70.3617946,36.4757995 C69.2683864,29.977448 57.9228259,25.8030752 45.0116253,27.178983 Z" id="path6179" fill="#FFE1E1"></path>
                        <path d="M45.0116253,27.178983 C32.0999008,28.578208 22.4974485,34.9578553 23.5612849,41.4562219 C24.6546931,47.9550091 36.0002536,52.1289462 48.9114541,50.7297212 C61.8231787,49.3542341 71.4256123,42.9741661 70.3617946,36.4757995 C69.2683864,29.977448 57.9228259,25.8030752 45.0116253,27.178983" id="path6181" stroke="#000000" stroke-width="0.67880154" stroke-linejoin="round"></path>
                        <path d="M77.6783311,22.1966257 C66.5065897,23.4292938 58.2021461,29.0496469 59.1281967,34.7933948 C60.0542284,40.5371428 69.8518619,44.1853331 80.994216,42.9773534 C92.1664873,41.7446853 100.470931,36.0996595 99.5448803,30.3558959 C98.6188486,24.6372735 88.8206852,20.9639732 77.6783311,22.1966257 Z" id="path6183" fill="#FFE1E1"></path>
                        <path d="M77.6783311,22.1966257 C66.5065897,23.4292938 58.2021461,29.0496469 59.1281967,34.7933948 C60.0542284,40.5371428 69.8518619,44.1853331 80.994216,42.9773534 C92.1664873,41.7446853 100.470931,36.0996595 99.5448803,30.3558959 C98.6188486,24.6372735 88.8206852,20.9639732 77.6783311,22.1966257 Z" id="path6183-copy" fill="#FFE1E1"></path>
                        <path d="M77.6783311,22.1966257 C66.5065897,23.4292938 58.2021461,29.0496469 59.1281967,34.7933948 C60.0542284,40.5371428 69.8518619,44.1853331 80.994216,42.9773534 C92.1664873,41.7446853 100.470931,36.0996595 99.5448803,30.3558959 C98.6188486,24.6372735 88.8206852,20.9639732 77.6783311,22.1966257" id="path6185" stroke="#000000" stroke-width="0.67880154" stroke-linejoin="round"></path>
                        <path d="M81.4278469,0 C68.9686852,0 58.8717254,3.83371482 57.0993475,9.30972882 C55.3269696,14.7857428 67.2110756,19.8333333 79.6702374,19.8333333 C92.1293991,19.8333333 104.255024,13.3226108 102.241146,9.30972882 C100.227269,5.29684684 93.8870086,0 81.4278469,0 Z" id="path6187" fill="#FFE1E1"></path>
                        <path d="M79.6922981,0 C67.1236572,0 56.9230769,4.76783902 56.9230769,10.625207 C56.9230769,16.506385 67.1236572,21.25 79.6922981,21.25 C92.2609389,21.25 102.461538,16.506385 102.461538,10.625207 C102.461538,4.76783902 92.2609389,0 79.6922981,0" id="path6189" stroke="#000000" stroke-width="0.67880154" stroke-linejoin="round"></path>
                        <path d="M86.2788251,6.54114264 C75.1421281,7.76707019 67.1622518,15.1709041 68.4425375,23.0897435 C69.722842,31.033121 79.7873841,36.4509979 90.8942592,35.2500433 C102.030428,34.0241158 110.010832,26.6202819 108.730547,18.7014425 C107.450261,10.7826032 97.3857002,5.33975322 86.2788251,6.54114264 Z" id="path6191" fill="#FFE1E1"></path>
                        <path d="M39.4641014,2.29914712 C28.3180292,3.45364775 20.2708173,10.0131847 21.4632835,16.9650022 C22.6552022,23.8940982 32.6392042,28.6054451 43.7858239,27.4509298 C54.9025952,26.3191362 62.979108,19.7595993 61.7871704,12.8077817 C60.5947231,5.85597877 50.5808915,1.14422221 39.4641014,2.29914712 Z" id="path6195" fill="#FFE1E1"></path>
                        <path d="M39.4641014,2.29914712 C28.3180292,3.45364775 20.2708173,10.0131847 21.4632835,16.9650022 C22.6552022,23.8940982 32.6392042,28.6054451 43.7858239,27.4509298 C54.9025952,26.3191362 62.979108,19.7595993 61.7871704,12.8077817 C60.5947231,5.85597877 50.5808915,1.14422221 39.4641014,2.29914712" id="path6197" stroke="#000000" stroke-width="0.67880154" stroke-linejoin="round"></path>
                        <path d="M21.7016495,8.5 C11.2759097,8.5 2.84615385,13.2410125 2.84615385,19.1247844 C2.84615385,25.0089875 11.2759097,29.75 21.7016495,29.75 C32.098122,29.75 40.5576923,25.0089875 40.5576923,19.1247844 C40.5576923,13.2410125 32.098122,8.5 21.7016495,8.5 Z" id="path6199" fill="#FFE1E1"></path>
                        <path d="M21.7016495,8.5 C11.2759097,8.5 2.84615385,13.2410125 2.84615385,19.1247844 C2.84615385,25.0089875 11.2759097,29.75 21.7016495,29.75 C32.098122,29.75 40.5576923,25.0089875 40.5576923,19.1247844 C40.5576923,13.2410125 32.098122,8.5 21.7016495,8.5" id="path6201" stroke="#000000" stroke-width="0.67880154" stroke-linejoin="round"></path>
                        <path d="M8.70457661,33.4942091 C10.9202665,42.0849215 34.1119096,45.6565991 60.5534072,41.4313527 C86.9949047,37.2290572 106.641429,26.8174585 104.425721,18.2267314 C102.239076,9.61265404 79.0178636,6.06434141 52.5769088,10.2662229 C26.1649807,14.4918834 6.51845624,24.880117 8.70457661,33.4942091 Z" id="path6203" fill="#FFE1E1"></path>
                    </g>
                    <text font-family="ArialMT, Arial" font-size="10" font-weight="normal" fill="#000000">
                        <tspan x="44" y="28.4">Internet</tspan>
                    </text>
                </g>
            </g>
        </g>
    </g>
</svg>