<?xml version="1.0" encoding="utf-8"?>
<svg height="100%" style="fill-rule:evenodd;clip-rule:evenodd;stroke-linecap:round;stroke-linejoin:round;" width="100%" version="1.1" viewBox="0 0 150 150" xmlns="http://www.w3.org/2000/svg" xmlns:bx="https://boxy-svg.com">
  <defs>
    <bx:grid x="0" y="0" width="15" height="15"/>
  </defs>
  <path d="M 120.132 104.118 C 119.944 104.43 119.693 104.805 119.555 104.941 C 119.332 105.179 119.318 105.167 118.595 104.455 C 117.721 103.58 117.583 103.605 117.171 104.729 C 116.996 105.192 116.784 105.516 116.608 105.617 C 116.359 105.742 116.234 105.704 115.611 105.255 C 114.56 104.518 114.375 104.629 114.174 106.066 C 114.124 106.428 114.024 106.691 113.9 106.74 C 113.798 106.779 113.375 106.653 112.974 106.453 C 111.951 105.965 111.8 106.078 111.788 107.265 C 111.788 107.751 111.725 108.214 111.664 108.276 C 111.576 108.364 111.251 108.339 110.64 108.19 C 109.44 107.902 109.365 107.977 109.653 109.175 C 109.803 109.788 109.827 110.113 109.74 110.2 C 109.678 110.263 109.216 110.326 108.728 110.326 C 107.53 110.338 107.43 110.487 107.93 111.511 C 108.415 112.535 108.291 112.835 107.342 112.96 C 105.943 113.16 105.856 113.335 106.629 114.372 C 107.254 115.196 107.217 115.322 106.18 115.695 C 105.07 116.12 105.045 116.258 105.918 117.133 C 106.629 117.856 106.644 117.869 106.406 118.093 C 106.268 118.232 105.893 118.481 105.581 118.667 C 104.807 119.117 104.807 119.418 105.581 119.867 C 105.893 120.054 106.268 120.305 106.406 120.441 C 106.644 120.666 106.629 120.679 105.918 121.403 C 105.045 122.277 105.07 122.415 106.194 122.827 C 106.656 123.002 106.98 123.214 107.079 123.389 C 107.204 123.638 107.167 123.763 106.717 124.387 C 105.981 125.436 106.094 125.624 107.53 125.825 C 107.892 125.874 108.154 125.974 108.203 126.099 C 108.241 126.2 108.117 126.624 107.917 127.023 C 107.43 128.047 107.543 128.198 108.728 128.21 C 109.216 128.21 109.678 128.273 109.74 128.334 C 109.827 128.422 109.803 128.747 109.653 129.359 C 109.365 130.558 109.44 130.633 110.64 130.346 C 111.251 130.195 111.576 130.17 111.664 130.258 C 111.725 130.321 111.788 130.783 111.788 131.27 C 111.8 132.469 111.951 132.569 112.974 132.069 C 114 131.582 114.299 131.707 114.424 132.657 C 114.623 134.055 114.797 134.142 115.835 133.368 C 116.659 132.743 116.784 132.781 117.159 133.818 C 117.583 134.929 117.709 134.953 118.608 134.067 C 119.481 133.217 119.406 133.205 120.13 134.429 C 120.58 135.191 120.881 135.191 121.33 134.429 C 122.054 133.205 121.979 133.217 122.853 134.067 C 123.753 134.953 123.878 134.929 124.289 133.805 C 124.465 133.343 124.676 133.019 124.852 132.919 C 125.101 132.794 125.227 132.831 125.851 133.28 C 126.9 134.018 127.088 133.905 127.286 132.469 C 127.336 132.107 127.436 131.845 127.562 131.794 C 127.662 131.757 128.087 131.881 128.487 132.082 C 129.511 132.569 129.66 132.456 129.673 131.27 C 129.673 130.783 129.735 130.321 129.798 130.258 C 129.885 130.17 130.21 130.195 130.822 130.346 C 132.021 130.633 132.096 130.558 131.809 129.359 C 131.659 128.747 131.634 128.422 131.721 128.334 C 131.784 128.273 132.245 128.21 132.732 128.21 C 133.931 128.198 134.032 128.047 133.533 127.023 C 133.045 125.999 133.169 125.699 134.119 125.574 C 135.517 125.374 135.605 125.2 134.831 124.163 C 134.207 123.339 134.243 123.214 135.281 122.839 C 136.392 122.415 136.417 122.289 135.531 121.39 C 134.681 120.516 134.668 120.591 135.893 119.868 C 136.28 119.63 136.467 119.442 136.467 119.267 C 136.467 119.092 136.28 118.905 135.893 118.667 C 134.668 117.944 134.681 118.019 135.531 117.144 C 136.417 116.244 136.392 116.12 135.269 115.708 C 134.806 115.532 134.481 115.321 134.381 115.146 C 134.256 114.897 134.294 114.771 134.744 114.146 C 135.48 113.097 135.369 112.91 133.931 112.71 C 133.57 112.661 133.307 112.559 133.257 112.435 C 133.219 112.335 133.345 111.911 133.545 111.511 C 134.032 110.487 133.919 110.338 132.732 110.324 C 132.247 110.324 131.784 110.263 131.721 110.2 C 131.634 110.113 131.659 109.788 131.809 109.175 C 132.096 107.977 132.021 107.902 130.822 108.19 C 130.21 108.339 129.885 108.364 129.798 108.276 C 129.735 108.214 129.672 107.751 129.672 107.265 C 129.66 106.066 129.511 105.965 128.486 106.465 C 127.462 106.953 127.163 106.828 127.038 105.88 C 126.837 104.479 126.663 104.392 125.626 105.167 C 124.802 105.792 124.676 105.752 124.302 104.717 C 123.878 103.605 123.74 103.58 122.865 104.455 C 122.142 105.167 122.129 105.179 121.904 104.941 C 121.767 104.805 121.517 104.43 121.33 104.118 C 121.092 103.718 120.904 103.531 120.731 103.531 C 120.555 103.531 120.369 103.718 120.132 104.118 Z M 121.354 106.653 C 121.492 106.79 121.604 107.066 121.604 107.277 C 121.604 107.489 121.492 107.764 121.354 107.902 C 120.818 108.439 119.856 108.04 119.856 107.277 C 119.856 106.802 120.256 106.404 120.731 106.404 C 120.944 106.404 121.217 106.515 121.354 106.653 Z M 119.431 108.776 C 120.643 109.95 120.818 109.95 122.029 108.776 L 122.928 107.902 L 123.803 108.151 C 124.802 108.427 126.351 109.09 126.351 109.25 C 126.351 109.3 125.177 112.698 123.74 116.783 C 122.305 120.865 121.054 124.438 120.979 124.726 C 120.894 125.024 120.781 125.262 120.731 125.262 C 120.681 125.262 120.58 125.049 120.518 124.801 C 120.443 124.538 119.207 120.941 117.757 116.794 C 116.296 112.647 115.111 109.225 115.111 109.2 C 115.111 109.05 117.882 107.977 118.47 107.914 C 118.507 107.902 118.932 108.289 119.431 108.776 Z M 115.048 121.365 C 116.821 126.336 118.233 130.421 118.195 130.457 C 118.107 130.558 116.784 130.17 116.221 129.872 C 115.772 129.646 115.76 129.621 115.598 128.56 C 115.498 127.873 115.347 127.373 115.198 127.172 C 114.948 126.86 114.91 126.86 114.061 126.948 C 112.188 127.16 112.263 127.186 111.526 126.2 C 110.726 125.137 109.977 123.65 109.616 122.389 C 109.403 121.69 109.329 120.991 109.279 119.642 L 109.216 117.831 L 110.339 117.232 C 111.851 116.445 111.888 116.307 111.115 114.771 C 110.552 113.661 110.552 113.722 111.277 112.673 C 111.476 112.373 111.688 112.174 111.738 112.237 C 111.788 112.285 113.274 116.394 115.048 121.365 Z M 130.546 113.222 L 130.858 113.747 L 130.348 114.759 C 129.572 116.307 129.61 116.445 131.109 117.232 L 132.222 117.818 L 132.222 119.23 C 132.222 120.865 131.996 122.139 131.459 123.502 C 131.046 124.538 130.223 125.911 129.561 126.687 L 129.135 127.186 L 128.149 127.036 C 127.612 126.948 127.013 126.885 126.826 126.885 C 126.301 126.885 126.039 127.348 125.863 128.571 L 125.702 129.659 L 125.04 129.945 C 124.277 130.283 123.353 130.558 123.265 130.457 C 123.215 130.407 128.524 115.347 129.622 112.398 L 129.748 112.087 L 129.998 112.398 C 130.135 112.559 130.385 112.935 130.546 113.222 Z M 109.927 114.958 C 110.514 115.532 110.165 116.394 109.341 116.394 C 108.816 116.394 108.49 116.082 108.49 115.57 C 108.49 114.746 109.354 114.371 109.927 114.958 Z M 132.508 114.784 C 132.87 114.983 132.97 115.133 132.97 115.57 C 132.97 116.07 132.644 116.394 132.134 116.394 C 131.297 116.394 130.933 115.545 131.534 114.958 C 131.872 114.608 132.096 114.571 132.508 114.784 Z M 114.486 128.646 C 114.935 129.721 113.4 130.382 112.901 129.322 C 112.713 128.934 112.713 128.872 112.913 128.571 C 113.337 127.923 114.212 127.961 114.486 128.646 Z M 128.336 128.309 C 128.649 128.56 128.737 128.997 128.537 129.384 C 128.024 130.382 126.538 129.671 126.975 128.646 C 127.2 128.086 127.849 127.923 128.336 128.309 Z" fill="#000000" stroke-width="1" style=""/>
  <rect x="27.069" y="15" width="60.344" height="20" fill="lightblue" stroke="black" style=""/>
  <text x="40.139" y="27.5" font-size="14" fill="black" style="white-space: pre; font-size: 7px;" transform="matrix(1.206885, 0, 0, 1, -4.349994, 0)">Cliente</text>
  <line x1="57.241" y1="34.999" x2="57.241" y2="55" stroke="black" stroke-width="2" style=""/>
  <polygon points="54.224 52.5 57.241 57.5 60.258 52.5" fill="black" style=""/>
  <rect x="15" y="55" width="84.483" height="30" fill="lightgray" stroke="black" style=""/>
  <text x="31.278" y="75.912" font-size="14" fill="black" style="white-space: pre; font-size: 7px;">Servidor NGINX</text>
  <line x1="57.241" y1="85" x2="57.241" y2="105" stroke="black" stroke-width="2" style=""/>
  <polygon points="54.224 102.5 57.241 107.5 60.258 102.5" fill="black" style=""/>
  <rect x="15" y="105" width="84.483" height="30" fill="lightgreen" stroke="black" style=""/>
  <text x="23.594" y="126.431" font-size="14" fill="black" style="white-space: pre; font-size: 7px;">Servidor Vaultwarden</text>
  <text style="font-size: 5px; white-space: pre;" x="33.916" y="116.088">(192.168.X.Y:8080)</text>
  <g transform="matrix(0.280508, 0, 0, 0.280508, 102.258812, 49.309204)" style="">
    <path d="M 67.319 15 L 67.597 15 C 69.025 15.681 70.417 16.436 71.763 17.263 C 87.279 26.187 102.79 35.11 118.301 44.034 C 119.532 44.69 120.234 46.031 120.076 47.411 C 120.042 66.223 120.076 85.03 120.054 103.833 C 119.853 104.733 119.304 105.513 118.529 106.006 C 102.036 115.504 85.539 124.998 69.037 134.483 C 68.219 135.108 67.104 135.173 66.221 134.641 C 49.707 125.173 33.206 115.688 16.722 106.182 C 15.629 105.667 14.951 104.54 15.007 103.327 C 15.007 84.52 15.007 65.717 15.007 46.91 C 14.926 45.705 15.582 44.57 16.666 44.038 C 32.16 35.132 47.654 26.217 63.144 17.293 C 64.524 16.504 65.879 15.669 67.319 15" style="fill: rgb(1, 150, 57);"/>
    <path d="M 36.54 51.594 C 36.54 67.11 36.54 82.621 36.54 98.137 C 36.502 99.873 37.162 101.553 38.371 102.796 C 40.741 105.136 44.418 105.505 47.2 103.679 C 49.039 102.431 50.136 100.357 50.136 98.137 C 50.136 86.907 50.114 75.678 50.136 64.448 C 60.375 76.707 70.636 88.948 80.914 101.171 C 83.816 104.116 88.016 105.376 92.058 104.523 C 94.942 103.957 97.12 101.574 97.42 98.647 C 97.445 82.814 97.445 66.986 97.42 51.153 C 96.965 45.954 91.055 43.198 86.777 46.19 C 85.136 47.338 84.086 49.156 83.91 51.153 C 83.91 62.562 83.841 73.959 83.91 85.364 C 73.855 73.509 63.924 61.551 53.908 49.653 C 51.22 46.207 46.878 44.484 42.554 45.144 C 39.232 45.517 36.678 48.256 36.54 51.594 Z" style="fill: rgb(255, 255, 255);"/>
  </g>
  <text style="font-size: 6px; white-space: pre;" x="24.975" y="65.512">https://bitwarden.tld.com</text>
</svg>