<?xml version="1.0" encoding="UTF-8"?>
<svg width="30px" height="44px" viewBox="0 0 30 44" version="1.1" xmlns="http://www.w3.org/2000/svg" xmlns:xlink="http://www.w3.org/1999/xlink">
    <!-- Generator: Sketch 52.6 (67491) - http://www.bohemiancoding.com/sketch -->
    <title>drjal</title>
    <desc>Created with Sketch.</desc>
    <g id="Page-1" stroke="none" stroke-width="1" fill="none" fill-rule="evenodd">
        <g id="drjal" transform="translate(-7.000000, -1.000000)">
            <g id="Drjal-Bold-64" transform="translate(8.437500, 2.109375)" stroke="#1B1918" stroke-linecap="round">
                <path d="M1.03159308,17.578125 C0.451250721,15.6947708 0.803783498,13.74864 0.865918532,13.1208744 C1.30137354,9.58451822 1.9025031,7.9520416 3.91331064,5.37820233 C6.17294151,2.49048022 9.8424203,-8.12485138e-16 13.7193746,-8.12485138e-16 C17.5750885,-8.12485138e-16 21.244624,2.49048022 23.5044814,5.37820233 C25.5156854,7.95209877 26.1165884,9.58451822 26.55227,13.1208744 C26.6144617,13.74864 26.9667112,15.6947708 26.4070428,17.578125" id="Shape"></path>
                <path d="M1.5068349,15.46875 C1.44324515,17.4120491 0.661166248,17.641952 0.217308606,18.8329142 C0.00597807734,19.4389856 -0.0364150924,20.0241619 0.0270013931,20.588386 C0.238562947,21.988299 1.18975247,23.2004988 1.84511391,24.1407772 C2.77516461,25.4991855 3.02888831,28.1947073 3.49388478,30.367681 C4.76221449,36.2395398 6.34762663,41.484375 13.70417,41.484375 C21.0821987,41.484375 22.6465875,36.2395398 23.9149172,30.367681 C24.3799714,28.1947073 24.6546607,25.4991855 25.5846536,24.1407772 C26.2189918,23.2004988 27.170239,21.988299 27.3815696,20.588386 C27.4663559,20.0241619 27.423905,19.4390427 27.1916667,18.8329142 C26.7690056,17.641952 25.9865224,17.4120491 25.9019093,15.46875" id="Shape"></path>
                <path d="M8.4375,16.171875 C8.89780732,15.4198992 9.40013747,14.8288724 10.0698157,14.7752228 C10.9067849,14.6945648 11.4927605,15.1244225 11.953125,15.9839911" id="Shape"></path>
                <path d="M18.984375,16.171875 C18.5237818,15.4198992 18.0215088,14.8288724 17.3520021,14.7752228 C16.5148042,14.6945648 15.9290001,15.1244225 15.46875,15.9839911" id="Shape"></path>
                <path d="M15.46875,21.796875 C15.013816,22.6904317 14.4554314,23.2332286 13.6694669,23.2018329 C12.8836718,23.1698267 12.4080025,22.786363 11.953125,21.796875" id="Shape"></path>
                <path d="M23.90625,21.796875 C23.6303756,21.2530622 23.4713826,20.8363311 23.1661867,20.5312743 C22.6757096,20.0518212 22.122242,19.8712378 21.796875,19.6875" id="Shape"></path>
                <path d="M3.515625,21.796875 C3.7770655,21.2861216 3.90773475,20.8642952 4.2620514,20.5312743 C4.74754733,20.0429043 5.30755839,19.8651718 5.625,19.6875" id="Shape"></path>
                <path d="M23.203125,20.4122738 C22.5673487,21.7945514 21.9952484,22.873864 21.7621941,24.3852674 C20.1306981,34.4248156 17.99072,36.5625 13.7108217,36.5625 C9.43098132,36.5625 7.31195843,34.4248746 5.68069402,24.3852674 C5.42639507,22.873864 4.87559731,21.7945514 4.21875,20.390625 C6.69760041,24.1692515 9.26142938,25.6806549 13.4777674,25.7668371 C17.715408,25.8317245 20.7450561,23.8237559 23.203125,20.4122738 L23.203125,20.4122738 Z" id="Shape"></path>
            </g>
            <rect id="Rectangle" x="0" y="0" width="45" height="45"></rect>
        </g>
    </g>
</svg>