<?xml version="1.0" encoding="utf-8"?>
<svg height="100%" style="fill-rule:evenodd;clip-rule:evenodd;stroke-linecap:round;stroke-linejoin:round;" width="100%" version="1.1" viewBox="0 0 150 150" xmlns="http://www.w3.org/2000/svg" xmlns:bx="https://boxy-svg.com">
  <defs>
    <bx:grid x="0" y="0" width="15" height="15"/>
  </defs>
  <rect width="120" height="120" style="fill: none; stroke-width: 0.2px; stroke: rgb(84, 84, 84); pointer-events: none; visibility: hidden;" x="15" y="15"/>
  <g transform="matrix(1, 0, 0, 1, 7.450848, 0)">
    <path d="M 67.319 15 L 67.597 15 C 69.025 15.681 70.417 16.436 71.763 17.263 C 87.279 26.187 102.79 35.11 118.301 44.034 C 119.532 44.69 120.234 46.031 120.076 47.411 C 120.042 66.223 120.076 85.03 120.054 103.833 C 119.853 104.733 119.304 105.513 118.529 106.006 C 102.036 115.504 85.539 124.998 69.037 134.483 C 68.219 135.108 67.104 135.173 66.221 134.641 C 49.707 125.173 33.206 115.688 16.722 106.182 C 15.629 105.667 14.951 104.54 15.007 103.327 C 15.007 84.52 15.007 65.717 15.007 46.91 C 14.926 45.705 15.582 44.57 16.666 44.038 C 32.16 35.132 47.654 26.217 63.144 17.293 C 64.524 16.504 65.879 15.669 67.319 15" style="fill: rgb(1, 150, 57);"/>
    <path d="M 36.54 51.594 C 36.54 67.11 36.54 82.621 36.54 98.137 C 36.502 99.873 37.162 101.553 38.371 102.796 C 40.741 105.136 44.418 105.505 47.2 103.679 C 49.039 102.431 50.136 100.357 50.136 98.137 C 50.136 86.907 50.114 75.678 50.136 64.448 C 60.375 76.707 70.636 88.948 80.914 101.171 C 83.816 104.116 88.016 105.376 92.058 104.523 C 94.942 103.957 97.12 101.574 97.42 98.647 C 97.445 82.814 97.445 66.986 97.42 51.153 C 96.965 45.954 91.055 43.198 86.777 46.19 C 85.136 47.338 84.086 49.156 83.91 51.153 C 83.91 62.562 83.841 73.959 83.91 85.364 C 73.855 73.509 63.924 61.551 53.908 49.653 C 51.22 46.207 46.878 44.484 42.554 45.144 C 39.232 45.517 36.678 48.256 36.54 51.594 Z" style="fill: rgb(255, 255, 255);"/>
  </g>
</svg>