<?xml version="1.0" encoding="utf-8"?>
<svg height="100%" style="fill-rule:evenodd;clip-rule:evenodd;stroke-linecap:round;stroke-linejoin:round;" width="100%" version="1.1" viewBox="0 0 150 150" xmlns="http://www.w3.org/2000/svg" xmlns:bx="https://boxy-svg.com">
  <defs>
    <bx:grid x="0" y="0" width="15" height="15"/>
  </defs>
  <rect width="120" height="120" style="fill: none; stroke-width: 0.2px; stroke: rgb(84, 84, 84); pointer-events: none; visibility: hidden;" x="15" y="15" bx:origin="0.5 0.5"/>
  <g id="Page-1" stroke="none" stroke-width="1" fill="none" fill-rule="evenodd" style="" transform="matrix(0.839979, 0, 0, 0.839979, 14.995505, 27.121197)">
    <g id="rsync" fill="#000000">
      <path d="M141.814286,47.35275 C140.421429,45.963375 138.157143,45.963375 136.764286,47.35275 L128.557143,55.539375 C128.192857,40.861875 122.285714,27.110625 111.835714,16.693875 C101.042857,5.928 86.6928571,1.77635684e-15 71.4285714,1.77635684e-15 C50.1857143,1.77635684e-15 30.8142857,11.649375 20.8785714,30.39525 C19.9571429,32.13375 20.6214286,34.292625 22.3642857,35.21175 C24.1071429,36.130875 26.2714286,35.46825 27.1928571,33.72975 C35.8857143,17.320875 52.8357143,7.125 71.4285714,7.125 C98.4928571,7.125 120.607143,28.692375 121.407143,55.496625 L113.242857,47.35275 C111.85,45.963375 109.585714,45.963375 108.192857,47.35275 C106.8,48.742125 106.8,51.00075 108.192857,52.390125 L122.478571,66.640125 C123.178571,67.338375 124.092857,67.680375 125.007143,67.680375 C125.921429,67.680375 126.835714,67.33125 127.535714,66.640125 L141.821429,52.390125 C143.214286,51.00075 143.214286,48.742125 141.821429,47.35275 L141.814286,47.35275 Z" id="Path"/>
      <path d="M120.492857,78.78825 C118.75,77.869125 116.585714,78.53175 115.664286,80.27025 C106.971429,96.679125 90.0214286,106.875 71.4285714,106.875 C44.3642857,106.875 22.25,85.307625 21.45,58.503375 L29.6142857,66.64725 C30.3142857,67.3455 31.2285714,67.6875 32.1428571,67.6875 C33.0571429,67.6875 33.9714286,67.338375 34.6714286,66.64725 C36.0642857,65.257875 36.0642857,62.99925 34.6714286,61.609875 L20.3857143,47.359875 C18.9928571,45.9705 16.7285714,45.9705 15.3357143,47.359875 L1.05,61.609875 C-0.342857143,62.99925 -0.342857143,65.257875 1.05,66.64725 C2.44285714,68.036625 4.70714286,68.036625 6.1,66.64725 L14.3071429,58.460625 C14.6714286,73.138125 20.5785714,86.889375 31.0285714,97.306125 C41.8214286,108.072 56.1714286,114 71.4357143,114 C92.6785714,114 112.05,102.350625 121.985714,83.60475 C122.907143,81.86625 122.242857,79.707375 120.5,78.78825 L120.492857,78.78825 Z" id="Path"/>
    </g>
  </g>
</svg>