<?xml version="1.0" encoding="utf-8"?>
<svg height="100%" style="fill-rule:evenodd;clip-rule:evenodd;stroke-linecap:round;stroke-linejoin:round;" width="100%" version="1.1" viewBox="0 0 150 150" xmlns="http://www.w3.org/2000/svg" xmlns:bx="https://boxy-svg.com">
  <defs>
    <bx:grid x="0" y="0" width="15" height="15"/>
    <radialGradient gradientUnits="userSpaceOnUse" cx="75" cy="75" r="57.228" id="gradient-0" gradientTransform="matrix(1, 0, 0, 1, 0, 0)">
      <stop offset="0" style="stop-color: rgba(0, 0, 0, 1)"/>
      <stop offset="1" style="stop-color: rgba(0, 0, 0, 1)"/>
    </radialGradient>
    <radialGradient gradientUnits="userSpaceOnUse" cx="75" cy="75" r="57.228" id="gradient-1" gradientTransform="matrix(1, 0, 0, 1, 0, 0)">
      <stop offset="0" style="stop-color: rgba(0, 0, 0, 1)"/>
      <stop offset="1" style="stop-color: rgba(0, 0, 0, 1)"/>
    </radialGradient>
  </defs>
  <rect x="15.21" y="15.21" width="119.58" height="119.58" style="fill: rgb(85, 187, 218); stroke-width: 5px;" rx="36.124" ry="36.124"/>
  <rect width="120" height="120" style="fill: none; stroke-width: 0.2px; stroke: rgb(84, 84, 84); pointer-events: none; visibility: hidden;" x="15" y="15" bx:origin="0.5 0.5"/>
  <g style="" transform="matrix(0.962416, 0, 0, 0.962416, 2.818796, 2.818815)">
    <path d="M 99.363 45.883 C 75.442 46.258 61.834 60.333 54.702 74.007 C 48.448 85.946 47.13 96.237 46.801 99.048 L 17.772 99.336 L 17.772 104.054 L 48.776 103.767 C 49.984 103.743 50.978 102.809 51.08 101.606 C 51.08 101.606 52.288 88.908 58.87 76.192 C 65.016 64.318 75.771 52.776 95.175 50.965 C 83.214 74.822 96.382 102.475 96.382 102.475 C 96.761 103.287 97.57 103.814 98.468 103.836 L 132.228 104.118 L 132.228 99.4 L 100.13 99.114 C 98.592 95.514 88.39 69.937 101.338 49.505 C 102.309 47.968 101.252 45.957 99.437 45.885 C 99.411 45.883 99.389 45.883 99.363 45.883 Z" style="stroke-width: 9px; stroke: url(#gradient-0); fill: url(#gradient-1); stroke-opacity: 0.08;"/>
    <path d="M 99.363 45.883 C 75.442 46.258 61.834 60.333 54.702 74.007 C 48.448 85.946 47.13 96.237 46.801 99.048 L 17.772 99.336 L 17.772 104.054 L 48.776 103.767 C 49.984 103.743 50.978 102.809 51.08 101.606 C 51.08 101.606 52.288 88.908 58.87 76.192 C 65.016 64.318 75.771 52.776 95.175 50.965 C 83.214 74.822 96.382 102.475 96.382 102.475 C 96.761 103.287 97.57 103.814 98.468 103.836 L 132.228 104.118 L 132.228 99.4 L 100.13 99.114 C 98.592 95.514 88.39 69.937 101.338 49.505 C 102.309 47.968 101.252 45.957 99.437 45.885 C 99.411 45.883 99.389 45.883 99.363 45.883 Z" style="stroke-opacity: 0.99; fill: rgb(255, 255, 255); stroke: rgb(255, 255, 255); stroke-width: 5px;"/>
  </g>
</svg>