<?xml version="1.0" encoding="utf-8"?>
<svg height="100%" style="fill-rule:evenodd;clip-rule:evenodd;stroke-linecap:round;stroke-linejoin:round;" width="100%" version="1.1" viewBox="0 0 150 150" xmlns="http://www.w3.org/2000/svg" xmlns:bx="https://boxy-svg.com">
  <defs>
    <bx:grid x="0" y="0" width="15" height="15"/>
  </defs>
  <rect width="120" height="120" style="fill: none; stroke-width: 0.2px; stroke: rgb(84, 84, 84); pointer-events: none; visibility: hidden;" x="15" y="15"/>
  <path d="M 74.615 46.829 L 48.085 20.302 C 46.56 18.775 44.082 18.775 42.553 20.302 L 37.043 25.812 L 44.032 32.8 C 45.657 32.252 47.517 32.619 48.812 33.914 C 50.113 35.216 50.479 37.095 49.916 38.724 L 56.652 45.459 C 58.28 44.898 60.161 45.26 61.462 46.564 C 63.28 48.382 63.28 51.329 61.462 53.149 C 59.643 54.968 56.696 54.968 54.875 53.149 C 53.508 51.779 53.169 49.769 53.862 48.083 L 47.581 41.803 L 47.581 58.332 C 48.024 58.553 48.441 58.843 48.812 59.213 C 50.631 61.031 50.631 63.977 48.812 65.798 C 46.994 67.618 44.046 67.618 42.228 65.798 C 40.41 63.977 40.41 61.031 42.228 59.213 C 42.677 58.765 43.199 58.424 43.752 58.197 L 43.752 41.515 C 43.199 41.287 42.677 40.951 42.227 40.497 C 40.85 39.122 40.519 37.1 41.226 35.407 L 34.337 28.518 L 16.147 46.708 C 14.617 48.237 14.617 50.715 16.147 52.243 L 42.676 78.77 C 44.202 80.3 46.681 80.3 48.21 78.77 L 74.615 52.368 C 76.145 50.839 76.145 48.36 74.615 46.833" id="Path" fill="#F05133" style=""/>
  <path d="M 93.364 19.129 C 89.328 19.129 86.055 22.401 86.055 26.438 L 86.055 81.953 L 57.427 81.953 C 53.392 81.953 50.119 85.225 50.119 89.261 L 50.119 123.48 C 50.119 127.515 53.392 130.788 57.427 130.788 L 83.563 130.788 C 83.925 130.844 84.293 130.872 84.669 130.872 L 127.608 130.872 C 129.647 130.872 131.492 130.037 132.817 128.69 C 134.164 127.364 135 125.519 135 123.48 L 135 89.261 C 135 88.886 134.972 88.516 134.916 88.158 L 134.916 26.438 C 134.916 22.401 131.645 19.129 127.608 19.129 L 93.364 19.129 Z M 105.435 99.538 L 105.435 51.365 C 105.435 49.112 107.261 47.286 109.512 47.286 C 111.765 47.286 113.589 49.112 113.589 51.365 L 113.589 107.701 L 87.717 107.701 L 90.347 110.329 C 91.938 111.921 91.938 114.504 90.345 116.095 C 88.753 117.69 86.17 117.69 84.578 116.097 L 72.127 103.648 L 84.583 91.192 C 86.176 89.599 88.758 89.599 90.351 91.192 C 91.941 92.784 91.941 95.366 90.349 96.959 L 87.769 99.538 L 105.435 99.538 Z" style=""/>
</svg>