<?xml version="1.0" encoding="utf-8"?>
<svg id="svg1" viewBox="0 0 49.949 55.686" version="1.1" xmlns="http://www.w3.org/2000/svg">
  <path id="path1098" style="stroke-linejoin: round; stroke: rgb(51, 51, 51); stroke-width: 3.125; stroke-linecap: round; fill: none;" d="M 24.565 39.968 L 24.565 47.149 M 6.097 47.355 L 43.853 47.355"/>
  <path id="path1099" style="fill-rule: evenodd; stroke: rgb(51, 51, 51); stroke-width: 1pt; fill: rgb(51, 51, 51);" d="M 27.435 46.842 C 27.435 48.974 25.127 50.307 23.28 49.241 C 22.423 48.746 21.895 47.832 21.895 46.842 C 21.895 44.709 24.203 43.376 26.05 44.443 C 26.907 44.938 27.435 45.852 27.435 46.842 Z"/>
  <path id="path741" style="stroke-linejoin: round; fill-rule: evenodd; stroke: rgb(51, 51, 51); stroke-width: 3.2048; fill: rgb(238, 238, 238);" d="M 42.064 23.639 C 42.064 36.883 27.727 45.161 16.257 38.539 C 10.934 35.465 7.655 29.786 7.655 23.639 C 7.655 10.395 21.992 2.117 33.462 8.739 C 38.785 11.812 42.064 17.492 42.064 23.639 Z"/>
  <path id="path743" style="stroke-linejoin: round; stroke: rgb(76, 76, 76); stroke-width: 5; stroke-linecap: round; fill: none;" d="M 24.771 23.459 L 24.771 10.751"/>
  <path id="path744" style="stroke-linejoin: round; stroke: rgb(76, 76, 76); stroke-width: 5; stroke-linecap: round; fill: none;" d="M 25.519 23.699 L 34.023 28.608"/>
  <path id="path742" style="stroke-linejoin: round; fill-rule: evenodd; stroke: rgb(51, 51, 51); stroke-linecap: round; stroke-width: 3.0256; fill: rgb(51, 51, 51);" d="M 26.418 23.638 C 26.418 24.838 25.12 25.588 24.081 24.988 C 23.598 24.71 23.301 24.195 23.301 23.638 C 23.301 22.439 24.6 21.689 25.639 22.289 C 26.121 22.567 26.418 23.082 26.418 23.638 Z"/>
</svg>