<?xml version="1.0" encoding="utf-8"?>
<svg height="100%" style="fill-rule:evenodd;clip-rule:evenodd;stroke-linecap:round;stroke-linejoin:round;" width="100%" version="1.1" viewBox="0 0 150 150" xmlns="http://www.w3.org/2000/svg" xmlns:bx="https://boxy-svg.com">
  <defs>
    <bx:grid x="0" y="0" width="15" height="15"/>
  </defs>
  <g>
    <rect width="120" height="120" style="fill: none; stroke-width: 0.2px; stroke: rgb(84, 84, 84); pointer-events: none; visibility: hidden;" x="15" y="15" bx:origin="0.5 0.5"/>
    <g transform="matrix(0.282745, 0, 0, 0.282745, 38.384491, 14.760812)" fill-rule="nonzero" style="">
      <path d="M39.804 116.54s21.156-18.392 83.77-18.392c57.44 0 73.584 13.013 89.98 18.392l-85.536 41.74z" fill="#c9781f"/>
      <path d="M30.873 171.897c.388 7.978 8.368 4.287 11.983 1.793 3.43-2.368 4.435-.4 4.736-5.073.197-3.07.552-6.143.377-9.227-5.19-.47-10.833.764-15.087 3.85-2.19 1.6-6.3 6.665-2 8.657" fill="#f6d2a2"/>
      <path d="M30.873 171.897c1.162-.43 2.393-.738 3.18-1.787" fill="#c6b198"/>
      <path d="M49.317 76.853c-30.583-8.6-7.842-47.443 16.717-31.462zm135.88-34.378c24.208-16.98 46.083 21.33 17.95 30.97z" fill="#37abc8"/>
      <path d="M190.405 270.087c6.15 3.8 17.388 15.288 8.164 20.86-8.863 8.104-13.823-8.895-21.602-11.25 3.35-4.543 7.596-8.686 13.438-9.608zM80.552 283.07c-7.217 1.115-11.28 7.618-17.296 10.92-5.67 3.376-7.838-1.08-8.35-1.986-.9-.405-.814.377-2.186-1.002-5.256-8.284 5.476-14.34 11.065-18.454 7.784-1.572 12.662 5.167 16.766 10.522z" fill="#f6d2a2"/>
      <path d="M50.594 66.12C46.56 64 43.6 61.095 46.067 56.434c2.285-4.314 6.53-3.846 10.565-1.715zm146.18-4.05c4.035-2.13 6.995-5.026 4.527-9.687-2.285-4.315-6.53-3.846-10.565-1.715z" fill="#077e91"/>
      <path d="M224.547 170.884c-.388 7.978-8.368 4.287-11.983 1.793-3.43-2.368-4.435-.4-4.736-5.073-.197-3.07-.552-6.143-.377-9.227 5.19-.47 10.833.764 15.087 3.85 2.19 1.6 6.3 6.665 2 8.657" fill="#f6d2a2"/>
      <path d="M224.547 170.884c-1.162-.43-2.393-.738-3.18-1.787" fill="#c6b198"/>
      <path d="M124.646 26.337c30.618 0 59.32 4.373 74.282 33.75 13.43 32.927 8.654 68.434 10.702 103.233 1.76 29.88 5.66 64.402-8.222 92.093-14.602 29.133-51.09 36.46-81.154 35.387-23.613-.844-52.138-8.537-65.465-30.082-15.635-25.275-8.233-62.86-7.098-90.983 1.345-33.315-9.036-66.73 1.923-99.33 11.37-33.816 42.03-41.46 75.03-44.066" fill="#37abc8"/>
      <path d="M130.05 67.384c5.497 31.913 57.732 23.475 50.23-8.7-6.727-28.862-52.056-20.873-50.23 8.7m-62.42 5.16c7.125 27.783 51.666 20.67 49.988-7.2-2-33.378-56.8-26.937-49.988 7.2m72.56 32.04c.024 4.265 1 8.433.158 13.22-1.06 2.002-3.14 2.214-4.935 3.022a7.26 7.26 0 0 1-5.561-4.332c-.637-5.038.237-9.916.398-14.956z" fill="#fff"/>
      <ellipse cx="79.916" cy="68.015" rx="7.521" ry="8.136" fill="#000"/>
      <ellipse cx="83.337" cy="69.85" rx="1.773" ry="2.068" fill="#fff"/>
      <ellipse cx="142.935" cy="65.988" rx="7.396" ry="8.136" fill="#000"/>
      <ellipse cx="146.3" cy="67.824" rx="1.744" ry="2.068" fill="#fff"/>
      <path d="M118.697 105.226c-3.282 7.943 1.83 23.825 10.734 12.1-.637-5.038.237-9.916.398-14.956z" fill="#fff"/>
      <path d="M118.175 89.93c-6.116.52-11.116 7.783-7.936 13.53 4.212 7.6 13.612-.673 19.466.103 6.738.138 12.26 7.115 17.67 1.26 6.02-6.51-2.592-12.852-9.32-15.687z" fill="#f6d2a2"/>
      <path d="M39.804 116.54s1.936 20.948 1.804 29.978 8.53 3.328 8.98 17.53-5.248 11.507-8.25 18.458-5.042 39.5-5.042 39.5 3.08 6.082 12.7 11.558 25.1 8.552 38.485 7.946 22.963-3.472 25.356-5.057 6.362-6.597 7.856-10.474 4.613-35.808 4.396-54.08-3.24-35.13-3.24-35.13z" fill="#ef9325"/>
      <path d="M124.655 205.505c-39.447 4.398-85.218-7.76-85.218-7.76s.672-12.33 3.633-16.67c41.027 12.694 82.417 8.67 82.417 8.67.614 5.756.18 10.332-.83 15.76zm-4.955 24.302c-39.447 4.398-82.394-8.248-82.394-8.248s-.138-11.843 1.43-17.044c41.027 12.694 84.847 9.53 84.847 9.53-.37 6.25-1.25 12.4-3.883 15.76z" fill="#e5e5e5"/>
      <path d="M213.553 116.54l-.133 29.978c.134 9.03-5.25 3.328-5.707 17.53s5.314 11.507 8.353 18.458 5.105 39.5 5.105 39.5-3.12 6.082-12.86 11.558-25.406 8.552-38.97 7.946-23.25-3.472-25.674-5.057-6.442-6.597-7.954-10.474-4.672-35.808-4.45-54.08 3.28-35.13 3.28-35.13z" fill="#ef9325"/>
      <path d="M132.715 205.505c39.943 4.398 86.3-7.76 86.3-7.76s-.68-12.33-3.678-16.67c-41.542 12.694-83.452 8.67-83.452 8.67-.622 5.756-.184 10.332.842 15.76zm5.027 24.302c39.943 4.398 83.43-8.248 83.43-8.248s.14-11.843-1.447-17.044c-41.542 12.694-85.913 9.53-85.913 9.53.374 6.25 1.265 12.4 3.932 15.76z" fill="#e5e5e5"/>
      <path d="M229.487 154.96c-1.24 2.34-3.698 3.468-5.487 2.52l-1.434-.758c-1.79-.947-2.235-3.61-.993-5.95l27.952-52.688c1.24-2.34 3.698-3.468 5.487-2.52l1.434.758c1.79.947 2.235 3.61.993 5.95z" fill="#d2e261"/>
      <path d="M216.286 179.843c-.723 1.363-2.76 1.7-4.55.753l-1.434-.758c-1.79-.947-2.655-2.82-1.93-4.182l13.114-24.72c.723-1.363 2.76-1.7 4.55-.753l1.434.758c1.79.947 2.655 2.82 1.93 4.182z" fill="#000"/>
      <path d="M227.946 150.042l-1.434-.758c-1.79-.947-3.62-.998-4.09-.115l-.838 1.58c.47-.884 2.3-.832 4.09.115l1.434.758c1.79.947 2.86 2.43 2.392 3.314l.838-1.58c.47-.883-.603-2.367-2.392-3.314z" fill="#9b9b9b"/>
      <ellipse transform="rotate(20.414 216.137 164.336)" cx="216.137" cy="164.336" rx="6.153" ry="4.754" fill="#f6d2a2"/>
      <path d="M26.943 155.81c1.132 2.394 3.535 3.634 5.366 2.77l1.467-.692c1.83-.864 2.398-3.505 1.266-5.898L9.538 98.078c-1.132-2.394-3.535-3.634-5.366-2.77L2.706 96c-1.83.864-2.398 3.505-1.266 5.898z" fill="#d2e261"/>
      <path d="M38.988 181.272c.66 1.394 2.68 1.824 4.5.96l1.467-.692c1.83-.864 2.78-2.695 2.12-4.09L35.12 152.158c-.66-1.394-2.68-1.824-4.5-.96l-1.467.692c-1.83.864-2.78 2.695-2.12 4.09z" fill="#000"/>
      <path d="M28.708 150.968l1.467-.692c1.83-.864 3.662-.832 4.1.072l.765 1.617c-.428-.904-2.26-.936-4.1-.073l-1.467.692c-1.83.864-2.97 2.297-2.542 3.2l-.765-1.617c-.427-.903.71-2.337 2.542-3.2z" fill="#9b9b9b"/>
      <ellipse transform="rotate(159.586 41.089 165.024)" cx="41.089" cy="165.024" rx="6.153" ry="4.754" fill="#f6d2a2"/>
      <path d="M52.905 88.827c-1.216 2.208-4.084 2.964-6.407 1.688l-2.672-1.467c-2.323-1.276-3.22-4.1-2.004-6.308l27.804-50.496c1.216-2.208 4.084-2.964 6.407-1.688l2.672 1.467c2.323 1.276 2.922 3.662 2.004 6.308-9.74 28.064-27.804 50.496-27.804 50.496z" fill="#960000"/>
      <path d="M60.26 59.985c8.455-15.356 14-28.563 12.687-30.06l.03-.056c-.036-.02-.075-.033-.11-.053l-.014-.007c-12.993-7.03-30.473-.068-39.108 15.616s-5.16 34.154 7.746 41.344l-.004.008c.054.02.085.047.12.066l.03-.056c1.975.314 10.166-11.446 18.62-26.8z" fill="#595959"/>
      <path d="M199.593 88.933c1.15 2.242 3.997 3.08 6.356 1.872l2.713-1.4c2.36-1.208 3.337-4.005 2.186-6.247l-26.333-51.276c-1.15-2.242-3.997-3.08-6.356-1.872l-2.713 1.4c-2.36 1.208-3.027 3.577-2.186 6.247 8.925 28.333 26.333 51.276 26.333 51.276z" fill="#960000"/>
      <path d="M193.074 59.9c-8.008-15.593-13.18-28.955-11.813-30.414l-.03-.057c.037-.02.076-.03.112-.05l.015-.006c13.2-6.653 30.462.8 38.64 16.737s4.17 34.288-8.937 41.104l.004.008c-.054.02-.086.044-.123.063l-.03-.057c-1.983.256-9.832-11.734-17.84-27.327z" fill="#595959"/>
      <path d="M219.147 53.314s-9.73-24.334-21.012-37.2-121.675-17.253-139.803 0-24.963 37.2-24.963 37.2v-5.4s8.385-23.69 24.963-37.2 125.518-12.8 139.572 0 21.243 37.2 21.243 37.2z" fill="#353535"/>
      <g fill="#960000">
        <ellipse transform="matrix(-.889823 .456306 -.456306 -.889823 411.322893 .104922)" cx="192.49" cy="46.096" rx="3.81" ry="9.294"/>
        <ellipse transform="matrix(.876281 .4818 -.4818 .876281 49.435695 2.495276)" cx="8.209" cy="45.461" rx="3.81" ry="9.294"/>
      </g>
      <g fill="#fff">
        <path d="M177.55 48.18H74.586c-18.487 0-18.423 49.06-1.066 51.887l35.89-2.305c4.34 0 13.004-16.784 14.63-18.103s6.98-1.48 9.087 0S140.03 96.07 144.37 96.07l35.89 3.996c16.765-7.704 12.538-51.887-2.7-51.887z" opacity=".6"/>
        <path d="M101.924 58.324c-11.34-.253-29.084-.15-38.777-.07-1.625 5.32-3.437 12.058-2.538 18.6l41.547.043c8.194 0 15.083 1.544 21.5 3.217.158-.2.29-.35.394-.434 1.626-1.32 6.98-1.48 9.087 0 .545.383 1.274 1.674 2.124 3.367 3.27.69 6.548 1.165 9.952 1.207l44.992.04c1.78-5.944.468-12.316.07-18.304-13.654 0-35.354-.308-45.758-.308-14.66-.001-27.458-7.02-42.582-7.357z" opacity=".5"/>
      </g>
      <path d="M117.405 89.612c-.453-10.582 19.75-11.905 22.136-3.047 2.38 8.837-21.14 10.9-22.136 3.047-.794-6.262 0 0 0 0z" fill="#000"/>
    </g>
    <g transform="matrix(1, 0, 0, 1, 15.002501, 93.505272)">
      <path d="M 29.565 40.267 C 28.487 40.267 27.63 39.92 26.993 39.227 C 26.356 38.524 26.037 37.445 26.037 35.992 L 26.037 27.892 L 24.322 27.892 C 24.012 27.892 23.774 27.817 23.605 27.667 C 23.445 27.517 23.365 27.315 23.365 27.062 C 23.365 26.818 23.445 26.622 23.605 26.472 C 23.765 26.312 23.999 26.232 24.308 26.232 L 26.038 26.232 L 26.375 22.238 C 26.395 21.938 26.525 21.68 26.769 21.464 C 27.022 21.248 27.299 21.141 27.599 21.141 C 27.86 21.133 28.112 21.229 28.302 21.408 C 28.489 21.578 28.582 21.825 28.582 22.153 L 28.582 26.233 L 31.169 26.233 C 31.479 26.233 31.709 26.313 31.859 26.473 C 32.019 26.633 32.099 26.839 32.099 27.093 C 32.099 27.627 31.789 27.895 31.171 27.895 L 28.58 27.895 L 28.58 35.56 C 28.58 36.526 28.716 37.224 28.988 37.656 C 29.26 38.078 29.691 38.289 30.281 38.289 L 30.436 38.289 L 31.392 38.247 L 31.476 38.247 C 31.786 38.247 32.029 38.345 32.206 38.542 C 32.383 38.739 32.473 38.969 32.473 39.232 C 32.473 39.466 32.421 39.659 32.318 39.809 C 32.215 39.949 32.056 40.053 31.84 40.119 C 31.634 40.185 31.422 40.227 31.207 40.246 C 31.001 40.266 30.729 40.274 30.392 40.274 L 29.565 40.267 Z M 36.705 40.07 C 36.358 40.07 36.063 39.967 35.819 39.76 C 35.575 39.553 35.454 39.263 35.454 38.888 L 35.454 27.286 C 35.454 26.911 35.581 26.626 35.834 26.428 C 36.088 26.222 36.407 26.112 36.734 26.119 C 37.081 26.119 37.376 26.222 37.62 26.429 C 37.873 26.626 38 26.903 38 27.259 L 37.986 28.947 C 38.211 28.089 38.703 27.326 39.392 26.767 C 40.104 26.177 40.957 25.881 41.95 25.881 C 42.25 25.881 42.484 25.994 42.653 26.219 C 42.831 26.444 42.92 26.707 42.92 27.007 C 42.926 27.271 42.841 27.529 42.681 27.738 C 42.521 27.935 42.291 28.033 41.991 28.033 C 40.726 28.033 39.741 28.361 39.039 29.018 C 38.346 29.674 37.999 30.551 37.999 31.648 L 37.999 38.891 C 37.999 39.266 37.869 39.557 37.605 39.763 C 37.351 39.969 37.032 40.079 36.705 40.072 L 36.705 40.07 Z M 71.091 40.07 C 70.761 40.077 70.441 39.962 70.191 39.747 C 69.947 39.522 69.826 39.213 69.826 38.819 L 69.826 27.9 L 67.986 27.9 C 67.676 27.9 67.446 27.825 67.296 27.675 C 67.146 27.515 67.065 27.303 67.071 27.084 C 67.071 26.84 67.146 26.639 67.296 26.479 C 67.446 26.319 67.676 26.239 67.986 26.239 L 69.826 26.239 L 69.826 24.453 C 69.826 22.775 70.182 21.583 70.894 20.881 C 71.606 20.168 72.59 19.811 73.846 19.811 L 75.561 19.811 C 75.833 19.811 76.044 19.909 76.194 20.106 C 76.354 20.294 76.434 20.519 76.434 20.781 C 76.434 21.043 76.354 21.269 76.194 21.456 C 76.044 21.644 75.829 21.736 75.547 21.736 L 74.352 21.736 C 73.949 21.736 73.635 21.774 73.41 21.849 C 73.185 21.915 72.984 22.069 72.806 22.313 C 72.636 22.547 72.52 22.89 72.456 23.34 C 72.4 23.78 72.372 24.38 72.372 25.14 L 72.372 26.237 L 74.748 26.237 C 75.058 26.237 75.282 26.317 75.423 26.477 C 75.573 26.637 75.648 26.837 75.648 27.082 C 75.648 27.626 75.348 27.898 74.748 27.898 L 72.37 27.898 L 72.37 38.82 C 72.37 39.214 72.243 39.523 71.99 39.748 C 71.737 39.964 71.437 40.071 71.09 40.071 L 71.091 40.07 Z M 79.961 22.84 C 79.464 22.84 79.066 22.7 78.766 22.418 C 78.466 22.128 78.316 21.752 78.316 21.293 C 78.316 20.834 78.466 20.459 78.766 20.168 C 79.076 19.878 79.478 19.732 79.976 19.732 C 80.463 19.732 80.856 19.877 81.156 20.168 C 81.456 20.448 81.606 20.824 81.606 21.293 C 81.606 21.753 81.456 22.128 81.156 22.418 C 80.856 22.698 80.458 22.84 79.961 22.84 L 79.961 22.84 Z M 79.947 40.07 C 79.621 40.078 79.305 39.963 79.061 39.747 C 78.817 39.522 78.696 39.203 78.696 38.791 L 78.696 27.356 C 78.696 26.962 78.823 26.653 79.076 26.428 C 79.328 26.206 79.654 26.086 79.99 26.09 C 80.314 26.085 80.627 26.206 80.862 26.428 C 81.115 26.653 81.242 26.962 81.242 27.356 L 81.242 38.8 C 81.242 39.194 81.112 39.508 80.848 39.742 C 80.602 39.965 80.28 40.085 79.948 40.08 L 79.947 40.07 Z M 86.707 40.07 C 86.381 40.078 86.065 39.963 85.821 39.747 C 85.577 39.522 85.456 39.203 85.456 38.791 L 85.456 21.251 C 85.456 20.857 85.583 20.548 85.836 20.323 C 86.088 20.101 86.414 19.981 86.75 19.985 C 87.074 19.98 87.387 20.101 87.622 20.323 C 87.875 20.548 88.002 20.857 88.002 21.251 L 88.002 32.011 L 94.384 26.161 C 94.59 25.983 94.81 25.894 95.044 25.894 C 95.344 25.894 95.606 26.011 95.831 26.246 C 96.065 26.48 96.181 26.743 96.181 27.034 C 96.181 27.297 96.069 27.536 95.844 27.751 L 90.741 32.321 L 96.321 38.201 C 96.518 38.394 96.629 38.657 96.63 38.932 C 96.63 39.232 96.508 39.499 96.265 39.734 C 96.031 39.968 95.759 40.086 95.45 40.086 C 95.122 40.086 94.84 39.956 94.607 39.692 L 88 32.66 L 88 38.8 C 88 39.203 87.87 39.517 87.606 39.742 C 87.36 39.965 87.038 40.085 86.706 40.08 L 86.707 40.07 Z" fill="#000"/>
      <path d="M 48.52 40.066 C 46.9 39.926 45.663 39.438 44.763 38.582 C 43.847 37.712 43.453 36.577 43.609 35.25 C 43.787 33.724 44.512 32.646 45.784 32.017 C 46.764 31.532 47.741 31.347 49.334 31.347 C 50.464 31.346 51.412 31.439 52.858 31.691 L 53.546 31.804 C 53.576 31.804 53.6 31.69 53.666 31.234 C 53.786 30.411 53.806 30.127 53.774 29.797 C 53.736 29.413 53.687 29.23 53.542 28.933 C 53.167 28.166 52.277 27.696 50.847 27.513 C 50.261 27.459 49.672 27.454 49.085 27.499 C 48.399 27.577 48.015 27.676 47.162 27.996 C 46.662 28.183 46.66 28.184 46.462 28.172 C 46.119 28.152 45.886 27.997 45.736 27.69 C 45.674 27.564 45.663 27.512 45.663 27.34 C 45.663 27.084 45.73 26.95 45.961 26.732 C 46.481 26.246 47.354 25.832 48.236 25.654 C 48.801 25.54 49.079 25.516 49.823 25.517 C 50.593 25.519 51.085 25.562 51.77 25.689 C 52.908 25.901 53.772 26.274 54.424 26.835 C 54.617 27.001 54.909 27.329 55.024 27.52 C 55.062 27.578 55.102 27.626 55.111 27.626 C 55.12 27.626 55.184 27.556 55.251 27.47 C 56.238 26.212 57.901 25.5 59.847 25.5 C 61.224 25.5 62.504 25.85 63.457 26.483 C 64.214 26.986 64.829 27.761 65.077 28.525 C 65.22 28.965 65.241 29.125 65.243 29.763 L 65.211 30.551 C 64.988 31.803 64.456 32.671 63.533 33.288 C 62.79 33.785 61.858 34.076 60.638 34.19 C 60.024 34.248 58.901 34.242 58.173 34.178 L 56.473 33.963 L 55.267 33.763 C 55.231 33.968 55.198 34.174 55.169 34.38 C 55.103 34.742 55.071 35.11 55.075 35.478 C 55.073 35.913 55.079 35.99 55.132 36.191 C 55.302 36.837 55.672 37.269 56.348 37.603 C 57.012 37.933 57.708 38.073 58.76 38.096 L 59.755 38.068 C 60.461 37.993 60.783 37.911 61.721 37.566 L 62.251 37.392 C 62.419 37.379 62.587 37.41 62.74 37.482 C 62.999 37.632 63.166 37.902 63.186 38.201 C 63.185 38.511 63.08 38.701 62.772 38.946 C 62.036 39.532 61.095 39.892 59.972 40.016 C 59.572 40.06 58.658 40.066 58.217 40.029 C 56.974 39.921 56.111 39.709 55.323 39.316 C 54.708 39.01 54.238 38.629 53.888 38.154 L 53.725 37.934 C 53.722 37.93 53.665 37.998 53.598 38.084 C 53.303 38.464 52.852 38.884 52.412 39.16 C 51.776 39.574 50.862 39.89 49.938 40.015 C 49.465 40.059 48.989 40.075 48.514 40.063 L 48.52 40.066 Z M 50.107 38.284 C 50.861 38.117 51.534 37.74 52.022 37.21 C 52.467 36.727 52.822 36.003 53.032 35.206 C 53.145 34.756 53.334 33.506 53.292 33.479 C 53.276 33.469 53.176 33.453 53.072 33.443 L 52.406 33.363 L 49.37 33.113 C 48.356 33.17 47.942 33.258 47.333 33.549 C 47.021 33.699 46.806 33.859 46.635 34.073 C 46.394 34.371 46.225 34.72 46.14 35.093 C 46.064 35.533 46.059 35.982 46.127 36.423 C 46.244 36.847 46.383 37.087 46.695 37.403 C 47.123 37.838 47.685 38.128 48.385 38.273 C 48.743 38.347 48.732 38.346 49.331 38.337 C 49.765 38.33 49.928 38.317 50.106 38.279 L 50.107 38.284 Z M 59.991 32.418 C 60.621 32.362 61.011 32.264 61.487 32.04 C 61.883 31.854 62.114 31.663 62.332 31.34 C 62.652 30.866 62.778 30.418 62.775 29.753 C 62.773 29.278 62.733 29.081 62.569 28.74 C 62.203 27.98 61.344 27.434 60.217 27.248 C 59.937 27.202 59.181 27.21 58.893 27.262 C 58.338 27.362 57.87 27.548 57.456 27.828 C 56.692 28.345 56.166 29.124 55.871 30.17 C 55.756 30.58 55.725 30.74 55.621 31.447 L 55.526 32.1 L 55.653 32.114 L 57.403 32.326 L 58.265 32.423 C 58.839 32.458 59.415 32.456 59.989 32.416 L 59.991 32.418 Z" fill="#37abc8"/>
    </g>
  </g>
</svg>