<?xml version="1.0" encoding="utf-8"?>
<!-- Svg Vector Icons : http://www.onlinewebfonts.com/icon -->
<!DOCTYPE svg PUBLIC "-//W3C//DTD SVG 1.1//EN" "http://www.w3.org/Graphics/SVG/1.1/DTD/svg11.dtd">
<svg version="1.1" xmlns="http://www.w3.org/2000/svg" xmlns:xlink="http://www.w3.org/1999/xlink" x="0px" y="0px" viewBox="0 0 1000 1000" enable-background="new 0 0 1000 1000" xml:space="preserve">
<metadata> Svg Vector Icons : http://www.onlinewebfonts.com/icon </metadata>
<g><path d="M499.9,990c-97.5,0-195.5-29.1-280.5-88.6l22.7-32.4C421,994.5,663.4,973.2,818.3,818.3C973.2,663.4,994.4,421.1,869,242.1l32.4-22.7c136.5,194.7,113.4,458.4-55.1,626.7C751.3,941.2,626,990,499.9,990z"/><path d="M98.7,780.6C-37.8,585.9-14.6,322.3,153.8,153.8c168.4-168.4,432-191.6,626.8-55.1L758,131C578.7,5.5,336.5,26.9,181.8,181.7C26.9,336.5,5.6,578.8,131.1,757.8L98.7,780.6z"/><path d="M675.3,141.4l-1.8-39.4l71.9-3.4l-28.8-64.1l36.1-16.2l52.4,117L675.3,141.4z"/><path d="M247.7,981.9l-54.9-117.8l128-7.6l2.4,39.5l-70.1,4l30.3,65.3L247.7,981.9z"/><path d="M629.5,665.8H370.8V494h39.5v132.3H590V435.1h91.6L500.1,239.2L318.4,435.7h77.4v39.5H228.1l272-294L772,474.5H629.5V665.8z"/><path d="M382.9,700.1H617v39.5H382.9V700.1z"/><path d="M382.9,770.3H617v39.5H382.9V770.3z"/></g>
</svg>