<?xml version="1.0" encoding="utf-8"?>
<svg width="150px" height="127px" viewBox="0 0 150 127" version="1.1" xmlns="http://www.w3.org/2000/svg">
  <title>ssh</title>
  <desc>Created with Sketch.</desc>
  <g id="Canvas" transform="matrix(2.239779, 0, 0, 2.239779, -3666.556152, -5489.828125)" style="">
    <g id="Group" style="mix-blend-mode:normal;">
      <g id="Group" style="mix-blend-mode:normal;">
        <g id="Group" style="mix-blend-mode:normal;">
          <g id="g" style="mix-blend-mode:normal;">
            <g id="path" style="mix-blend-mode:normal;">
              <g id="path9 fill" style="mix-blend-mode:normal;">
                <path d="M 1.74498 5.47533C 1.74498 7.03335 1.62034 7.54082 1.29983 7.91474C 0.943119 8.23595 0.480024 8.41358 0 8.41331L 0.124642 9.3036C 0.86884 9.31366 1.59095 9.05078 2.15452 8.56466C 2.45775 8.19487 2.6834 7.76781 2.818 7.30893C 2.95261 6.85005 2.99341 6.36876 2.93798 5.89377L 2.93798 0L 1.74498 0L 1.74498 5.43972L 1.74498 5.47533Z" transform="matrix(1, 0, 0, 1, 1640.5400390625, 2474.360107421875)" fill="#4E4E4E" style="mix-blend-mode: normal;"/>
              </g>
            </g>
            <g id="path" style="mix-blend-mode:normal;">
              <g id="path10 fill" style="mix-blend-mode:normal;">
                <path d="M 5.50204 4.76309C 5.50204 5.43081 5.50204 6.02731 5.55545 6.54368L 4.496 6.54368L 4.42478 5.48423C 4.20318 5.85909 3.88627 6.16858 3.50628 6.38125C 3.12628 6.59392 2.69675 6.70219 2.26135 6.69503C 1.22861 6.69503 0 6.13415 0 3.84608L 0 0.0445149L 1.193 0.0445149L 1.193 3.6057C 1.193 4.84322 1.57583 5.67119 2.65309 5.67119C 2.87472 5.67358 3.09459 5.63168 3.29982 5.54796C 3.50505 5.46424 3.69149 5.34039 3.84822 5.18366C 4.00494 5.02694 4.1288 4.84049 4.21252 4.63527C 4.29623 4.43004 4.33813 4.21016 4.33575 3.98853L 4.33575 0L 5.52874 0L 5.52874 4.72748L 5.50204 4.76309Z" transform="matrix(1, 0, 0, 1, 1645.6800537109375, 2474.3701171875)" fill="#4E4E4E" style="mix-blend-mode: normal;"/>
              </g>
            </g>
            <g id="path" style="mix-blend-mode:normal;">
              <g id="path11 fill" style="mix-blend-mode:normal;">
                <path d="M 0.0534178 2.27264C 0.0534178 1.44466 0.0534178 0.768036 0 0.153731L 1.06836 0.153731L 1.12177 1.2666C 1.3598 0.864535 1.70247 0.534594 2.11325 0.311954C 2.52404 0.0893145 2.98754 -0.0176786 3.45435 0.00238095C 5.03908 0.00238095 6.23208 1.32892 6.23208 3.30538C 6.23208 5.63796 4.7987 6.79535 3.24958 6.79535C 2.85309 6.81304 2.45874 6.7281 2.10469 6.54874C 1.75064 6.36937 1.44888 6.10166 1.22861 5.77151L 1.22861 5.77151L 1.22861 9.33269L 0.0534178 9.33269L 0.0534178 2.29935L 0.0534178 2.27264ZM 1.22861 4.00872C 1.23184 4.17026 1.24972 4.33117 1.28203 4.48948C 1.38304 4.88479 1.61299 5.23513 1.93548 5.48506C 2.25798 5.735 2.65461 5.87026 3.06262 5.86944C 4.31794 5.86944 5.05689 4.8456 5.05689 3.3588C 5.05689 2.05897 4.36246 0.946096 3.10714 0.946096C 2.61036 0.986777 2.14548 1.20726 1.79965 1.5662C 1.45382 1.92514 1.25079 2.3979 1.22861 2.89585L 1.22861 4.00872Z" transform="matrix(1, 0, 0, 1, 1653.3900146484375, 2474.260009765625)" fill="#4E4E4E" style="mix-blend-mode: normal;"/>
              </g>
            </g>
            <g id="path" style="mix-blend-mode:normal;">
              <g id="path12 fill" style="mix-blend-mode:normal;">
                <path d="M 1.31764 0.0178059L 2.75102 3.85499C 2.90237 4.28233 3.06262 4.7987 3.16946 5.18153C 3.2941 4.7898 3.42764 4.29123 3.5879 3.82828L 4.88773 0.0178059L 6.14305 0.0178059L 4.36246 4.64735C 3.47216 6.87309 2.92908 8.02158 2.11 8.71601C 1.69745 9.09283 1.19448 9.35658 0.649917 9.48166L 0.356119 8.48453C 0.736886 8.35942 1.09038 8.16304 1.39777 7.90584C 1.8321 7.55188 2.17678 7.10044 2.4038 6.5882C 2.45239 6.49949 2.48551 6.40314 2.50173 6.3033C 2.49161 6.19586 2.46457 6.0907 2.42161 5.9917L 0 0L 1.29983 0L 1.31764 0.0178059Z" transform="matrix(1, 0, 0, 1, 1660.4300537109375, 2474.389892578125)" fill="#4E4E4E" style="mix-blend-mode: normal;"/>
              </g>
            </g>
            <g id="path" style="mix-blend-mode:normal;">
              <g id="path13 fill" style="mix-blend-mode:normal;">
                <path d="M 2.19013 0L 2.19013 1.86962L 3.8995 1.86962L 3.8995 2.75992L 2.19013 2.75992L 2.19013 6.26769C 2.19013 7.06896 2.42161 7.53191 3.08043 7.53191C 3.31442 7.53574 3.54789 7.5088 3.77486 7.45179L 3.82828 8.34208C 3.48794 8.45999 3.12881 8.51431 2.76882 8.50234C 2.53042 8.51726 2.29161 8.48043 2.06878 8.39437C 1.84595 8.30831 1.64438 8.17506 1.47789 8.00377C 1.11525 7.51873 0.949826 6.91431 1.01494 6.31221L 1.01494 2.75102L 0 2.75102L 0 1.86072L 1.03274 1.86072L 1.03274 0.275992L 2.19013 0Z" transform="matrix(1, 0, 0, 1, 1667.550048828125, 2472.5400390625)" fill="#4E4E4E" style="mix-blend-mode: normal;"/>
              </g>
            </g>
            <g id="path" style="mix-blend-mode:normal;">
              <g id="path14 fill" style="mix-blend-mode:normal;">
                <path d="M 1.17716 3.57899C 1.153 3.88093 1.19468 4.18451 1.29933 4.46876C 1.40398 4.75301 1.5691 5.01114 1.78329 5.22532C 1.99747 5.43951 2.2556 5.60463 2.53985 5.70928C 2.8241 5.81393 3.12768 5.85561 3.42962 5.83145C 4.04033 5.84511 4.64706 5.72983 5.21021 5.49313L 5.41498 6.38343C 4.72393 6.66809 3.98085 6.80458 3.23375 6.78406C 2.79821 6.81388 2.36138 6.74914 1.95322 6.59427C 1.54505 6.43941 1.17522 6.19809 0.869071 5.88688C 0.562928 5.57566 0.327723 5.2019 0.179591 4.79125C 0.0314584 4.38059 -0.0260962 3.94276 0.0108748 3.50777C 0.0108748 1.54912 1.17716 0 3.0824 0C 5.21911 0 5.75329 1.86962 5.75329 3.06262C 5.76471 3.24644 5.76471 3.43079 5.75329 3.61461L 1.15046 3.61461L 1.17716 3.57899ZM 4.66713 2.6887C 4.70149 2.45067 4.68443 2.20805 4.61709 1.97718C 4.54976 1.74631 4.43372 1.53255 4.2768 1.35031C 4.11987 1.16808 3.92571 1.0216 3.70739 0.920744C 3.48907 0.81989 3.25166 0.767006 3.01118 0.765656C 2.52201 0.801064 2.06371 1.01788 1.72609 1.37362C 1.38847 1.72935 1.19588 2.19835 1.18607 2.6887L 4.66713 2.6887Z" transform="matrix(1, 0, 0, 1, 1672.469970703125, 2474.2900390625)" fill="#4E4E4E" style="mix-blend-mode: normal;"/>
              </g>
            </g>
            <g id="path" style="mix-blend-mode:normal;">
              <g id="path15 fill" style="mix-blend-mode:normal;">
                <path d="M 0.0534178 2.19228C 0.0534178 1.42663 0.0534178 0.767806 0 0.162404L 1.06836 0.162404L 1.06836 1.43553L 1.12177 1.43553C 1.23391 1.04259 1.4656 0.694314 1.78468 0.439049C 2.10376 0.183783 2.4944 0.034196 2.90237 0.0110538C 3.01466 -0.00368459 3.12839 -0.00368459 3.24068 0.0110538L 3.24068 1.12393C 3.10462 1.10817 2.9672 1.10817 2.83114 1.12393C 2.427 1.13958 2.04237 1.30182 1.7491 1.58035C 1.45583 1.85887 1.27398 2.23462 1.23751 2.63743C 1.20422 2.8196 1.18635 3.00425 1.1841 3.18941L 1.1841 6.65267L 0.00890297 6.65267L 0.00890297 2.20118L 0.0534178 2.19228Z" transform="matrix(1, 0, 0, 1, 1679.97998046875, 2474.239990234375)" fill="#4E4E4E" style="mix-blend-mode: normal;"/>
              </g>
            </g>
          </g>
        </g>
        <g id="g" style="mix-blend-mode:normal;">
          <g id="path" style="mix-blend-mode:normal;">
            <g id="path16 fill" style="mix-blend-mode:normal;">
              <path d="M 6.03059 2.83565C 6.06715 3.43376 5.92485 4.02921 5.6218 4.54615C 5.31875 5.0631 4.86869 5.47813 4.32893 5.73839C 3.78917 5.99864 3.18416 6.09233 2.59097 6.00753C 1.99778 5.92272 1.44326 5.66326 0.998048 5.26219C 0.552837 4.86113 0.23709 4.33661 0.0910307 3.75546C -0.0550287 3.17431 -0.0247891 2.56283 0.177897 1.99893C 0.380583 1.43503 0.746541 0.944221 1.22915 0.589037C 1.71176 0.233853 2.28918 0.0303686 2.88784 0.00450543C 3.28035 -0.0170932 3.67326 0.0391144 4.04396 0.169896C 4.41467 0.300677 4.75587 0.503453 5.04794 0.766561C 5.34 1.02967 5.57718 1.34792 5.74582 1.70301C 5.91446 2.0581 6.01124 2.44303 6.03059 2.83565L 6.03059 2.83565Z" transform="matrix(1, 0, 0, 1, 1673.47998046875, 2453.68994140625)" fill="#767677" style="mix-blend-mode: normal;"/>
            </g>
          </g>
          <g id="path" style="mix-blend-mode:normal;">
            <g id="path17 fill" style="mix-blend-mode:normal;">
              <path d="M 18.6962 7.12238C 10.6836 7.12238 3.64131 4.24672 0 0C 1.41284 3.82041 3.96215 7.1163 7.30479 9.44404C 10.6474 11.7718 14.623 13.0196 18.6962 13.0196C 22.7695 13.0196 26.745 11.7718 30.0877 9.44404C 33.4303 7.1163 35.9796 3.82041 37.3925 4.0486e-13C 33.7601 4.24672 26.7445 7.12238 18.6962 7.12238Z" transform="matrix(1, 0, 0, 1, 1643.2099609375, 2484.27001953125)" fill="#F37726" style="mix-blend-mode: normal;"/>
            </g>
          </g>
          <g id="path" style="mix-blend-mode:normal;">
            <g id="path18 fill" style="mix-blend-mode:normal;">
              <path d="M 18.6962 5.89725C 26.7089 5.89725 33.7512 8.77291 37.3925 13.0196C 35.9796 9.19922 33.4303 5.90333 30.0877 3.57559C 26.745 1.24785 22.7695 4.0486e-13 18.6962 0C 14.623 4.0486e-13 10.6474 1.24785 7.30479 3.57559C 3.96215 5.90333 1.41284 9.19922 0 13.0196C 3.64131 8.76401 10.648 5.89725 18.6962 5.89725Z" transform="matrix(1, 0, 0, 1, 1643.2099609375, 2457.8798828125)" fill="#F37726" style="mix-blend-mode: normal;"/>
            </g>
          </g>
          <g id="path" style="mix-blend-mode:normal;">
            <g id="path19 fill" style="mix-blend-mode:normal;">
              <path d="M 7.59576 3.56656C 7.64276 4.31992 7.46442 5.07022 7.08347 5.72186C 6.70251 6.3735 6.13619 6.89698 5.45666 7.22561C 4.77713 7.55424 4.01515 7.67314 3.26781 7.56716C 2.52046 7.46117 1.82158 7.13511 1.26021 6.63051C 0.698839 6.12591 0.300394 5.46561 0.115637 4.73375C -0.0691191 4.00188 -0.0318219 3.23159 0.222777 2.52099C 0.477376 1.8104 0.93775 1.19169 1.54524 0.743685C 2.15274 0.295678 2.87985 0.0386595 3.63394 0.00537589C 4.12793 -0.0210471 4.62229 0.0501173 5.08878 0.214803C 5.55526 0.37949 5.98473 0.63447 6.35264 0.965179C 6.72055 1.29589 7.01971 1.69584 7.233 2.1422C 7.4463 2.58855 7.56957 3.07256 7.59576 3.56656L 7.59576 3.56656Z" transform="matrix(1, 0, 0, 1, 1643.280029296875, 2496.090087890625)" fill="#9E9E9E" style="mix-blend-mode: normal;"/>
            </g>
          </g>
          <g id="path" style="mix-blend-mode:normal;">
            <g id="path20 fill" style="mix-blend-mode:normal;">
              <path d="M 2.25061 4.37943C 1.81886 4.39135 1.39322 4.27535 1.02722 4.04602C 0.661224 3.81668 0.371206 3.48424 0.193641 3.09052C 0.0160762 2.69679 -0.0411078 2.25935 0.0292804 1.83321C 0.0996686 1.40707 0.294486 1.01125 0.589233 0.695542C 0.883981 0.37983 1.2655 0.158316 1.68581 0.0588577C 2.10611 -0.0406005 2.54644 -0.0135622 2.95143 0.136572C 3.35641 0.286707 3.70796 0.553234 3.96186 0.902636C 4.21577 1.25204 4.3607 1.66872 4.37842 2.10027C 4.39529 2.6838 4.18131 3.25044 3.78293 3.67715C 3.38455 4.10387 2.83392 4.35623 2.25061 4.37943Z" transform="matrix(1, 0, 0, 1, 1641.8699951171875, 2458.429931640625)" fill="#616262" style="mix-blend-mode: normal;"/>
            </g>
          </g>
        </g>
      </g>
    </g>
  </g>
  <g transform="matrix(0.056904, 0, 0, 0.055312, 84.951324, 70.715012)" style="">
    <g transform="translate(0.000000,511.000000) scale(0.100000,-0.100000)">
      <path d="M2918.3,4119.3c-303-51.3-610.8-284.4-753-568.8c-102.6-212.1-125.9-359-125.9-822.9v-380h-533.8c-575.8,0-720.3-16.3-899.8-104.9c-237.8-116.6-454.6-410.3-491.9-669l-14-109.6l258.8-128.2l258.8-130.5H5000h4382.5l258.7,130.5l258.8,128.2l-14,109.6c-37.3,261.1-247.1,550.1-487.2,666.7c-184.2,90.9-324,107.2-904.5,107.2h-533.8v380c0,463.9-23.3,610.8-125.9,822.9c-142.2,286.7-435.9,508.2-757.6,568.8C6927.8,4147.2,3088.5,4147.2,2918.3,4119.3z M7158.6,3776.6c79.3-25.6,156.2-81.6,256.4-179.5c216.8-216.8,219.1-230.8,219.1-1102.6v-729.6H5000H2365.8v729.6c0,871.8,2.3,885.8,219.1,1102.6c233.1,230.8,51.3,214.5,2405.7,216.8C6850.9,3816.2,7053.7,3811.5,7158.6,3776.6z"/>
      <path d="M109.3-267.9l7-1382.3l74.6-153.8c90.9-184.2,258.7-349.7,445.2-435.9c130.5-60.6,146.9-62.9,692.3-74.6l559.5-11.7l14-338c11.7-275.1,23.3-361.3,65.3-466.2c163.2-401,484.9-671.4,909.1-757.6c146.9-32.6,452.2-35,2202.9-30.3c2030.4,7,2030.4,7,2184.3,58.3c363.7,123.5,643.4,396.3,773.9,752.9c37.3,95.6,51.3,209.8,60.6,454.6l14,326.4l559.5,11.7l561.8,11.7l153.9,76.9c191.2,93.2,366,277.4,442.9,466.2l53.6,132.9l7,1370.7l7,1370.7l-209.8-107.2l-212.1-104.9H5000H524.3l-212.1,104.9l-209.8,107.2L109.3-267.9z M1107,121.4c207.5-107.2,167.8-435.9-60.6-498.9c-104.9-28-186.5-7-263.4,69.9C701.4-225.9,678.1-121,720.1-20.8C785.4,137.7,955.5,200.7,1107,121.4z M7487.3-368.1c139.9-42,223.8-128.2,268.1-275.1c23.3-72.3,30.3-370.7,30.3-1181.9c0-1079.3,0-1084-53.6-1216.8c-76.9-188.8-251.8-373-442.9-466.2l-156.2-76.9H5000H2867l-156.2,76.9c-191.1,93.2-366,277.4-442.9,466.2c-53.6,130.6-53.6,149.2-60.6,1135.3c-7,1046.7,4.7,1244.8,88.6,1382.3c51.3,86.3,135.2,144.5,240.1,167.8c39.6,11.7,1144.6,18.7,2454.7,21C7053.7-333.2,7384.7-337.8,7487.3-368.1z M1125.7-766.7c65.3-44.3,121.2-151.5,121.2-230.8c0-79.3-55.9-186.5-121.2-230.8c-67.6-48.9-216.8-46.6-298.4,2.4c-172.5,100.2-167.8,368.3,4.7,466.2C906.6-720.1,1062.8-722.5,1125.7-766.7z"/>
      <path d="M3149.1-927.6c-60.6-62.9-67.6-130.5-18.7-195.8l44.3-60.6h1708.7h1708.7l44.3,60.6c48.9,65.3,42,132.9-18.7,195.8c-32.6,30.3-251.8,35-1734.4,35C3400.9-892.6,3181.7-897.3,3149.1-927.6z"/>
      <path d="M3149.1-1860c-60.6-62.9-67.6-130.5-18.7-195.8l44.3-60.6h1708.7h1708.7l44.3,60.6c48.9,65.3,42,132.9-18.7,195.8c-32.6,30.3-251.8,35-1734.4,35C3400.9-1825.1,3181.7-1829.7,3149.1-1860z"/>
      <path d="M3149.1-2792.5c-60.6-62.9-67.6-130.5-18.7-195.8l44.3-60.6h1708.7h1708.7l44.3,60.6c48.9,65.3,42,132.9-18.7,195.8c-32.6,30.3-251.8,35-1734.4,35C3400.9-2757.5,3181.7-2762.2,3149.1-2792.5z"/>
    </g>
  </g>
</svg>