<?xml version="1.0" encoding="utf-8"?>
<svg height="100%" style="fill-rule:evenodd;clip-rule:evenodd;stroke-linecap:round;stroke-linejoin:round;" width="100%" version="1.1" viewBox="0 0 150 150" xmlns="http://www.w3.org/2000/svg" xmlns:bx="https://boxy-svg.com">
  <defs>
    <bx:grid x="0" y="0" width="15" height="15"/>
  </defs>
  <rect width="120" height="120" style="fill: none; stroke-width: 0.2px; stroke: rgb(84, 84, 84); pointer-events: none; visibility: hidden;" x="15" y="15" bx:origin="0.5 0.5"/>
  <g transform="matrix(0.853809, 0, 0, 0.853809, -37.723179, 44.129997)" style="">
    <path d="M 151.54 24.4 C 151.744 24.42 151.97 24.42 152.175 24.44 C 153.794 24.543 155.351 24.932 156.786 25.691 C 157.831 26.224 158.733 26.92 159.553 27.761 C 160.435 28.663 161.172 29.667 161.725 30.814 C 162.136 31.654 162.423 32.535 162.607 33.438 C 162.853 34.544 162.935 35.672 162.873 36.819 C 162.791 38.644 162.401 40.385 161.541 42.005 C 160.947 43.132 160.167 44.115 159.226 44.996 C 157.729 46.411 155.987 47.313 153.999 47.743 C 153.261 47.906 152.503 47.989 151.744 48.03 C 151.704 48.03 151.682 48.05 151.642 48.05 C 151.335 48.05 151.048 48.05 150.741 48.05 C 150.556 48.03 150.351 48.03 150.166 48.01 C 147.851 47.846 145.72 47.129 143.895 45.673 C 142.44 44.525 141.313 43.111 140.534 41.431 C 140.145 40.57 139.878 39.668 139.694 38.746 C 139.489 37.701 139.427 36.635 139.489 35.568 C 139.591 33.335 140.186 31.244 141.497 29.4 C 143.014 27.228 145.002 25.691 147.564 24.954 C 148.343 24.727 149.142 24.584 149.962 24.523 C 150.228 24.502 150.474 24.502 150.741 24.481 C 150.781 24.481 150.823 24.461 150.863 24.461 C 151.089 24.4 151.314 24.4 151.54 24.4 Z M 151.171 44.976 C 151.99 44.976 152.789 44.895 153.569 44.709 C 155.269 44.279 156.684 43.398 157.811 42.045 C 158.959 40.672 159.553 39.074 159.718 37.291 C 159.779 36.676 159.779 36.082 159.737 35.467 C 159.697 34.811 159.615 34.155 159.43 33.52 C 158.876 31.532 157.77 29.933 156.049 28.786 C 154.758 27.925 153.323 27.535 151.786 27.453 C 150.945 27.412 150.106 27.453 149.285 27.597 C 147.83 27.863 146.559 28.457 145.432 29.421 C 144.347 30.363 143.588 31.512 143.096 32.863 C 142.727 33.888 142.584 34.934 142.563 36.02 C 142.543 36.86 142.604 37.68 142.788 38.5 C 143.116 39.975 143.773 41.287 144.818 42.394 C 145.739 43.377 146.827 44.075 148.097 44.505 C 149.121 44.853 150.146 44.976 151.171 44.976 Z" style=""/>
    <path d="M 193.492 47.476 C 193.411 47.682 193.329 47.722 193.103 47.722 C 192.324 47.722 191.545 47.722 190.766 47.722 C 190.5 47.722 190.397 47.62 190.397 47.354 C 190.397 39.914 190.397 32.495 190.397 25.055 C 190.397 24.768 190.5 24.666 190.787 24.666 C 191.566 24.666 192.344 24.666 193.123 24.666 C 193.225 24.666 193.329 24.708 193.411 24.748 C 193.451 24.789 193.472 24.871 193.513 24.932 C 193.492 32.454 193.492 39.975 193.492 47.476 Z" style=""/>
    <path d="M 129.979 34.032 C 130.369 34.544 130.758 35.077 131.148 35.59 C 131.968 36.696 132.808 37.783 133.628 38.89 C 134.693 40.303 135.758 41.717 136.804 43.111 C 137.85 44.484 138.874 45.878 139.919 47.251 C 140.001 47.354 140.022 47.456 139.98 47.578 C 139.919 47.702 139.817 47.743 139.694 47.743 C 139.633 47.743 139.571 47.743 139.53 47.743 C 138.567 47.743 137.603 47.743 136.661 47.743 C 136.497 47.743 136.374 47.682 136.271 47.559 C 134.467 45.14 132.644 42.722 130.84 40.303 C 129.815 38.93 128.79 37.557 127.745 36.184 C 127.745 36.164 127.725 36.164 127.705 36.142 C 127.581 36.266 127.459 36.368 127.335 36.491 C 126.496 37.27 125.675 38.048 124.836 38.828 C 124.384 39.258 123.913 39.689 123.462 40.119 C 123.401 40.181 123.38 40.221 123.38 40.303 C 123.38 42.64 123.38 44.976 123.38 47.313 C 123.38 47.333 123.38 47.374 123.38 47.394 C 123.38 47.6 123.257 47.722 123.053 47.722 C 122.232 47.722 121.412 47.722 120.593 47.722 C 120.388 47.722 120.285 47.6 120.265 47.394 C 120.265 47.374 120.265 47.354 120.265 47.313 C 120.265 39.893 120.265 32.475 120.265 25.055 C 120.265 25.055 120.265 25.035 120.265 25.035 C 120.265 24.748 120.367 24.646 120.654 24.646 C 121.392 24.646 122.15 24.646 122.888 24.646 C 122.929 24.646 122.991 24.646 123.031 24.646 C 123.257 24.646 123.36 24.768 123.36 24.973 C 123.36 25.014 123.36 25.035 123.36 25.076 C 123.36 28.663 123.36 32.27 123.36 35.856 C 123.36 35.897 123.36 35.938 123.36 36 C 123.545 35.836 123.708 35.672 123.872 35.508 C 124.855 34.585 125.839 33.663 126.824 32.741 C 128.115 31.532 129.406 30.323 130.696 29.114 C 131.784 28.089 132.869 27.084 133.956 26.059 C 134.406 25.629 134.878 25.199 135.328 24.768 C 135.431 24.686 135.534 24.625 135.656 24.625 C 136.804 24.625 137.952 24.625 139.079 24.625 C 139.263 24.625 139.387 24.686 139.427 24.85 C 139.469 24.973 139.407 25.055 139.325 25.138 C 138.997 25.445 138.669 25.773 138.342 26.081 C 137.746 26.634 137.173 27.187 136.579 27.74 C 135.758 28.499 134.959 29.278 134.14 30.036 C 133.3 30.814 132.479 31.614 131.64 32.393 C 131.106 32.966 130.553 33.499 129.979 34.032 Z" style=""/>
    <path d="M 166.439 36.204 C 166.439 32.495 166.439 28.806 166.439 25.096 C 166.439 25.055 166.439 25.035 166.439 24.994 C 166.439 24.789 166.541 24.666 166.768 24.666 C 166.787 24.666 166.787 24.666 166.808 24.666 C 169.985 24.666 173.162 24.666 176.338 24.666 C 177.794 24.666 179.187 24.994 180.52 25.589 C 181.687 26.1 182.692 26.838 183.573 27.74 C 185.007 29.216 185.971 30.978 186.442 32.987 C 186.709 34.155 186.832 35.323 186.79 36.512 C 186.75 38.11 186.483 39.668 185.868 41.143 C 185.356 42.373 184.638 43.48 183.737 44.464 C 182.343 45.96 180.642 46.944 178.654 47.436 C 177.794 47.64 176.933 47.743 176.031 47.743 C 172.957 47.743 169.882 47.743 166.808 47.743 C 166.747 47.743 166.706 47.743 166.644 47.722 C 166.522 47.702 166.46 47.64 166.439 47.518 C 166.439 47.456 166.419 47.394 166.419 47.333 C 166.439 43.644 166.439 39.914 166.439 36.204 Z M 169.533 44.771 C 169.595 44.771 169.636 44.771 169.677 44.771 C 171.747 44.771 173.817 44.771 175.887 44.771 C 176.256 44.771 176.625 44.751 176.995 44.73 C 177.752 44.669 178.49 44.464 179.187 44.136 C 180.109 43.726 180.867 43.111 181.523 42.353 C 182.138 41.656 182.63 40.878 182.978 39.996 C 183.368 39.074 183.573 38.11 183.634 37.127 C 183.695 36.225 183.675 35.323 183.531 34.422 C 183.368 33.356 183.019 32.372 182.486 31.429 C 181.892 30.405 181.134 29.502 180.15 28.826 C 178.982 28.007 177.67 27.618 176.236 27.618 C 174.022 27.597 171.809 27.618 169.595 27.618 C 169.555 27.618 169.513 27.618 169.473 27.618 C 169.533 33.356 169.533 39.053 169.533 44.771 Z" style=""/>
    <path class="st0" d="M 108.174 36.471 C 108.05 36.86 107.784 37.147 107.497 37.434 C 105.591 39.34 103.685 41.246 101.779 43.152 C 101.102 43.85 100.365 43.828 99.668 43.152 C 97.701 41.185 95.733 39.217 93.766 37.249 C 93.089 36.573 93.089 35.856 93.766 35.18 C 95.733 33.192 97.721 31.224 99.689 29.236 C 100.324 28.601 101.082 28.601 101.738 29.236 C 103.664 31.163 105.57 33.069 107.497 34.996 C 107.784 35.283 108.05 35.568 108.174 35.958 C 108.174 36.122 108.174 36.286 108.174 36.471 Z" style="fill: rgb(23, 178, 231);"/>
    <path class="st0" d="M 89.216 54.895 C 88.826 54.772 88.539 54.507 88.252 54.219 C 86.346 52.313 84.44 50.408 82.534 48.502 C 81.858 47.824 81.858 47.087 82.534 46.411 C 84.502 44.443 86.47 42.455 88.457 40.488 C 89.114 39.832 89.871 39.832 90.507 40.488 C 92.474 42.455 94.442 44.443 96.43 46.411 C 97.106 47.087 97.106 47.824 96.43 48.502 C 94.503 50.428 92.577 52.354 90.67 54.28 C 90.405 54.547 90.117 54.814 89.728 54.916 C 89.564 54.895 89.4 54.895 89.216 54.895 Z" style="fill: rgb(23, 178, 231);"/>
    <path class="st0" d="M 82.309 31.47 C 82.309 29.278 82.33 27.084 82.288 24.892 C 82.288 24.256 82.432 23.765 82.924 23.334 C 83.313 23.005 83.662 22.616 84.031 22.248 C 85.485 20.793 86.92 19.358 88.375 17.903 C 89.052 17.226 89.79 17.226 90.466 17.903 C 92.433 19.87 94.401 21.838 96.368 23.805 C 97.045 24.481 97.045 25.219 96.368 25.895 C 94.052 28.233 91.716 30.548 89.4 32.885 C 87.351 34.934 85.301 37.003 83.231 39.053 C 82.842 39.443 82.514 39.34 82.37 38.828 C 82.33 38.664 82.33 38.479 82.33 38.316 C 82.288 36.041 82.309 33.766 82.309 31.47 Z" style="fill: rgb(23, 178, 231);"/>
    <path class="st0" d="M 77.596 36.225 C 77.596 38.234 77.596 40.263 77.596 42.271 C 77.596 42.455 77.554 42.661 77.492 42.845 C 77.35 43.193 77.104 43.234 76.837 42.968 C 75.915 42.045 74.992 41.124 74.07 40.181 C 73.005 39.115 71.939 38.048 70.873 36.963 C 70.422 36.512 70.422 35.897 70.873 35.467 C 72.84 33.478 74.808 31.49 76.775 29.502 C 76.899 29.38 77.022 29.195 77.246 29.278 C 77.452 29.36 77.534 29.544 77.574 29.769 C 77.596 29.892 77.616 30.036 77.616 30.159 C 77.596 32.188 77.596 34.216 77.596 36.225 C 77.596 36.225 77.596 36.225 77.596 36.225 Z" style="fill: rgb(23, 178, 231);"/>
  </g>
</svg>