<?xml version="1.0" encoding="utf-8"?>
<svg height="100%" style="fill-rule:evenodd;clip-rule:evenodd;stroke-linecap:round;stroke-linejoin:round;" width="100%" version="1.1" viewBox="0 0 150 150" xmlns="http://www.w3.org/2000/svg" xmlns:bx="https://boxy-svg.com">
  <defs>
    <bx:grid x="0" y="0" width="15" height="15"/>
  </defs>
  <rect width="120" height="120" style="fill: none; stroke-width: 0.2px; stroke: rgb(84, 84, 84); pointer-events: none; visibility: hidden;" x="15" y="15" bx:origin="0.5 0.5"/>
  <path id="Cuboctahedron" class="st1" d="M 133.506 87.62 L 122.102 37.959 C 121.454 35.241 118.989 32.524 116.272 31.735 L 64.146 15.655 C 63.5 15.402 62.724 15.402 61.936 15.402 C 59.727 15.402 57.403 16.303 55.84 17.612 L 18.5 52.362 C 16.43 54.179 15.387 57.811 16.035 60.402 L 28.229 113.569 C 28.877 116.286 31.34 119.018 34.058 119.792 L 82.804 134.829 C 83.451 135.083 84.226 135.083 85.014 135.083 C 87.224 135.083 89.547 134.181 91.111 132.873 L 131.041 95.799 C 133.125 93.856 134.154 90.35 133.506 87.62 Z M 69.597 27.454 L 105.373 38.479 C 106.797 38.874 106.797 39.521 105.373 39.901 L 86.577 44.182 C 85.155 44.576 83.211 43.928 82.17 42.887 L 69.075 28.75 C 67.906 27.596 68.159 27.074 69.597 27.454 Z M 91.885 91.646 C 92.279 93.068 91.364 93.856 89.942 93.462 L 51.306 81.537 C 49.884 81.142 49.617 79.973 50.658 78.946 L 80.227 51.447 C 81.268 50.406 82.437 50.799 82.818 52.221 L 91.885 91.646 Z M 28.229 56.629 L 59.613 27.454 C 60.656 26.413 62.331 26.553 63.372 27.582 L 79.058 44.576 C 80.1 45.617 79.96 47.293 78.931 48.336 L 47.547 77.51 C 46.504 78.551 44.829 78.41 43.787 77.382 L 28.101 60.402 C 27.06 59.233 27.201 57.544 28.229 56.629 Z M 35.888 102.925 L 27.595 66.485 C 27.201 65.063 27.848 64.796 28.763 65.837 L 41.858 79.973 C 42.9 81.016 43.28 83.085 42.9 84.507 L 37.184 102.925 C 36.789 104.347 36.141 104.347 35.888 102.925 Z M 81.775 124.185 L 40.802 111.612 C 39.38 111.218 38.592 109.668 38.987 108.246 L 45.857 86.197 C 46.251 84.775 47.8 83.986 49.222 84.381 L 90.195 96.954 C 91.617 97.348 92.405 98.897 92.012 100.319 L 85.141 122.369 C 84.633 123.804 83.211 124.58 81.775 124.185 Z M 118.074 94.363 L 90.73 119.778 C 89.689 120.82 89.182 120.426 89.561 119.004 L 95.265 100.587 C 95.658 99.165 97.208 97.728 98.63 97.474 L 117.427 93.194 C 118.863 92.815 119.116 93.462 118.074 94.363 Z M 121.059 88.928 L 98.502 94.11 C 97.08 94.504 95.644 93.589 95.265 92.167 L 85.676 50.42 C 85.281 48.998 86.196 47.562 87.618 47.181 L 110.175 41.999 C 111.597 41.605 113.033 42.52 113.414 43.942 L 123.002 85.691 C 123.396 87.239 122.495 88.661 121.059 88.928 Z" style="fill: rgb(34, 173, 246);"/>
</svg>