<?xml version="1.0" encoding="utf-8"?>
<svg height="100%" style="fill-rule:evenodd;clip-rule:evenodd;stroke-linecap:round;stroke-linejoin:round;" width="100%" version="1.1" viewBox="0 0 150 150" xmlns="http://www.w3.org/2000/svg" xmlns:bx="https://boxy-svg.com">
  <defs>
    <bx:grid x="0" y="0" width="15" height="15"/>
    <linearGradient gradientUnits="userSpaceOnUse" x1="37.017" y1="54.722" x2="37.017" y2="93.212" id="gradient-0" spreadMethod="pad" gradientTransform="matrix(0.706287, -0.707926, 0.931032, 0.928874, -58.634209, 30.355392)">
      <stop offset="0" style="stop-color: rgb(243, 190, 0);"/>
      <stop offset="1" style="stop-color: rgb(236, 160, 0);"/>
    </linearGradient>
    <linearGradient gradientUnits="userSpaceOnUse" x1="37.017" y1="54.722" x2="37.017" y2="93.212" id="gradient-2" spreadMethod="pad" gradientTransform="matrix(0.450716, -0.892667, 0.431426, 0.217831, -21.635321, 103.447423)">
      <stop offset="0" style="stop-color: rgb(243, 190, 0);"/>
      <stop offset="1" style="stop-color: rgb(236, 160, 0);"/>
    </linearGradient>
    <linearGradient gradientUnits="userSpaceOnUse" x1="37.017" y1="54.722" x2="37.017" y2="93.212" id="gradient-3" spreadMethod="pad" gradientTransform="matrix(0.705746, -0.708465, 0.931683, 0.928105, -58.689789, 30.438875)">
      <stop offset="0" style="stop-color: rgb(243, 190, 0);"/>
      <stop offset="0.697" style="stop-color: rgb(216, 15, 15);"/>
      <stop offset="1" style="stop-color: rgb(126, 37, 4);"/>
    </linearGradient>
    <linearGradient gradientUnits="userSpaceOnUse" x1="37.215" y1="53.386" x2="37.215" y2="91.876" id="gradient-4" spreadMethod="pad" gradientTransform="matrix(0.578634, 0.815589, 0.412088, -0.292362, -23.858022, 75.00008)">
      <stop offset="0" style="stop-color: rgba(245, 234, 205, 0.5);"/>
      <stop offset="0.309" style="stop-color: rgb(240, 182, 21);"/>
      <stop offset="0.608" style="stop-color: rgb(206, 42, 9);"/>
      <stop offset="1" style="stop-color: rgb(106, 28, 0);"/>
    </linearGradient>
    <linearGradient gradientUnits="userSpaceOnUse" x1="37.017" y1="54.722" x2="37.017" y2="93.212" id="gradient-6" spreadMethod="pad" gradientTransform="matrix(0.450716, -0.892667, 0.431426, 0.217831, -21.635321, 103.447423)">
      <stop offset="0" style="stop-color: rgb(243, 190, 0);"/>
      <stop offset="1" style="stop-color: rgb(236, 160, 0);"/>
    </linearGradient>
    <linearGradient gradientUnits="userSpaceOnUse" x1="37.215" y1="53.386" x2="37.215" y2="91.876" id="gradient-7" spreadMethod="pad" gradientTransform="matrix(0.578634, 0.815589, 0.412088, -0.292362, -23.858022, 75.00008)">
      <stop offset="0" style="stop-color: rgba(245, 234, 205, 0.5);"/>
      <stop offset="0.309" style="stop-color: rgb(240, 182, 21);"/>
      <stop offset="0.608" style="stop-color: rgb(206, 42, 9);"/>
      <stop offset="1" style="stop-color: rgb(106, 28, 0);"/>
    </linearGradient>
    <radialGradient gradientUnits="userSpaceOnUse" cx="259.793" cy="292.739" r="228.876" id="gradient-1" gradientTransform="matrix(0.902503, -0.004852, 0.004937, 0.918154, 23.920311, 20.03079)">
      <stop offset="0" style="stop-color: rgb(5, 148, 210);"/>
      <stop offset="1" style="stop-color: rgb(85, 193, 241);"/>
    </radialGradient>
  </defs>
  <rect width="120" height="120" style="fill: none; stroke-width: 0.2px; stroke: rgb(84, 84, 84); pointer-events: none; visibility: hidden;" x="15" y="15" bx:origin="0.5 0.5"/>
  <g transform="matrix(1.076336, 0, 0, 1.076336, -2.875649, 32.420155)" style="">
    <g transform="matrix(1, 0, 0, 1, -1.220401, -70.981514)">
      <title>X</title>
      <path style="stroke-width: 0.2px; fill: url(#gradient-0);" d="M 17.792 54.784 C 17.792 54.784 23.792 54.742 27.965 54.722 C 29.169 54.949 29.153 54.862 29.837 55.803 C 35.546 63.664 56.292 93.339 56.292 93.339 L 17.792 54.784 Z"/>
      <path style="stroke-width: 0.2px; fill: url(#gradient-3); paint-order: fill; fill-rule: evenodd;" d="M 17.752 54.805 C 17.752 54.805 23.752 54.763 27.925 54.743 C 29.129 54.97 29.113 54.883 29.797 55.824 C 35.506 63.685 56.252 93.36 56.252 93.36 L 17.752 54.805 Z" transform="matrix(-1, 0, 0, -1, 74.004002, 148.103008)"/>
      <g>
        <title>Borde iza.</title>
        <path style="stroke-width: 0.2px; fill: url(#gradient-2);" d="M 17.674 82.92 C 17.674 82.92 25.61 83.137 29.916 83.168 C 31.12 83.395 31.143 83.281 31.788 84.249 C 36.022 90.604 37.357 92.593 37.357 92.593 L 17.674 82.92 Z" transform="matrix(-0.559193, 0.829038, -0.829038, -0.559193, 115.655409, 114.017922)"/>
        <path style="stroke-width: 0.2px; paint-order: fill; fill-rule: evenodd; fill: url(#gradient-4);" d="M 18.023 87.85 C 18.023 87.85 19.378 93.174 23.551 93.194 C 24.775 93.354 25.874 92.854 26.558 91.913 C 32.267 84.052 36.932 76.99 36.932 76.99 L 18.023 87.85 Z" transform="matrix(-1, 0, 0, -1, 54.955, 170.213493)"/>
      </g>
      <g transform="matrix(-1, 0, 0, -1, 74.30542, 147.990585)">
        <title>Borde dcha.</title>
        <path style="stroke-width: 0.2px; fill: url(#gradient-6);" d="M 17.674 82.92 C 17.674 82.92 25.61 83.137 29.916 83.168 C 31.12 83.395 31.143 83.281 31.788 84.249 C 36.022 90.604 37.357 92.593 37.357 92.593 L 17.674 82.92 Z" transform="matrix(-0.559193, 0.829038, -0.829038, -0.559193, 115.655409, 114.017922)"/>
        <path style="stroke-width: 0.2px; paint-order: fill; fill-rule: evenodd; fill: url(#gradient-7);" d="M 18.023 87.85 C 18.023 87.85 19.378 93.174 23.551 93.194 C 24.775 93.354 25.874 92.854 26.558 91.913 C 32.267 84.052 36.932 76.99 36.932 76.99 L 18.023 87.85 Z" transform="matrix(-1, 0, 0, -1, 54.955, 170.213493)"/>
      </g>
    </g>
    <g transform="matrix(0.050525, 0, 0, 0.050525, 57.680386, -4.044126)" style="">
      <title>SolaX Power</title>
      <path class="cls-1" d="M 92.71 229.75 C 66.16 229.75 39.6 229.49 13.06 229.91 C 5.22 230.04 1.74 228.53 2.37 219.76 C 3.11 208.025 3.11 196.255 2.37 184.52 C 1.96 177.04 4.62 175.47 11.68 175.52 C 62.94 175.81 114.2 175.66 165.46 175.69 C 173.33 175.69 181.25 175.43 186.65 168.74 C 191.42 162.83 191.6 155.85 188.88 148.94 C 186.03 141.68 179.5 139.68 172.72 139.53 C 156.13 139.16 139.53 139.53 122.94 139.32 C 102.31 139.03 81.64 140.5 61.05 138.38 C 22.74 134.44 -0.65 106.98 -0.02 66.87 C 0.52 32.77 26.45 5.17 62.8 4.15 C 117.34 2.63 171.94 3.55 226.51 3.23 C 231.69 3.23 232.58 5.28 232.51 9.75 C 232.29 22.6 231.94 35.48 232.62 48.3 C 233.04 56.17 230.41 58.01 222.79 57.95 C 174.12 57.62 125.44 57.78 76.79 57.78 C 69.71 57.78 62.52 57.65 58.15 64.71 C 51.23 75.88 57.8 89.55 71.25 90.19 C 89.64 91.07 108.1 90.57 126.53 90.74 C 144.96 90.91 163.44 90.26 181.79 91.6 C 228.38 95 247.54 128.53 242.26 170.32 C 237.5 207.96 211.66 229.23 172.38 229.7 C 145.82 230.01 119.26 229.75 92.71 229.75 Z" style="fill: rgb(50, 44, 43);">
        <title>S</title>
      </path>
      <g>
        <title>O</title>
        <path class="cls-1" d="M 393.31 3.38 C 411.71 3.52 430.31 1.96 448.31 6.73 C 491.05 18.04 518.49 44.96 526.92 88.38 C 535.25 131.27 526.28 170.1 493.43 201.38 C 478.64 215.47 461.04 224.92 440.93 227.53 C 409.08 231.66 376.67 232.78 345.08 227.4 C 295.34 218.93 259.22 175.08 256.8 124.28 C 254.23 70.21 278.8 28.46 323.41 11.1 C 346.05 2.3 369.69 3 393.31 3.38 Z M 420.72 175.62 C 452.83 174.23 475.97 148.86 475.61 115.76 C 475.25 83.07 453.2 59.12 421.45 57.94 C 402.33 57.21 383.14 57.16 364.03 57.94 C 333.91 59.18 313.88 80.28 311.3 112.28 C 308.89 142.2 326.8 167.57 354.61 174.05 C 367.39 177.02 380.29 174.85 390.88 175.65 C 402.31 175.65 411.52 175.99 420.72 175.62 Z" style="fill: rgb(50, 44, 43);"/>
      </g>
      <path class="cls-1" d="M 547.88 115.68 C 547.88 81.9 548.25 48.12 547.64 14.36 C 547.48 4.93 550.45 2.49 559.39 3.14 C 570.044 3.873 580.736 3.873 591.39 3.14 C 599.78 2.59 602.46 4.8 602.39 13.72 C 601.91 64.38 602.39 115.04 601.94 165.72 C 601.87 174 603.94 175.99 612.19 175.9 C 652.73 175.43 693.28 175.9 733.82 175.51 C 741.38 175.44 744.14 177.15 743.67 185.1 C 742.97 197.17 743.23 209.32 743.6 221.42 C 743.78 227.33 742.44 229.92 735.8 229.89 C 675.72 229.683 615.643 229.683 555.57 229.89 C 547.57 229.89 547.77 225.89 547.79 220.28 C 547.88 185.42 547.88 150.55 547.88 115.68 Z" style="fill: rgb(50, 44, 43);">
        <title>L</title>
      </path>
      <path class="cls-1" d="M 1059.29 229.73 C 1039.63 229.73 1019.87 229.63 1000.12 229.81 C 995.31 229.81 993.93 226.32 992.12 223.33 C 984.52 210.78 976.8 198.28 969.8 185.4 C 966.59 179.49 962.87 177.26 956.02 177.4 C 927.66 177.8 899.3 177.57 868.55 177.57 C 878.12 161.37 886.85 146.4 895.8 131.57 C 897.63 128.57 901.18 129.83 903.99 129.79 C 914.16 129.68 924.32 129.79 936.25 129.79 C 925.77 112.21 916.25 96.25 905.83 78.79 C 896.45 94.45 887.63 109.07 878.9 123.79 C 859.62 156.25 840.22 188.64 821.27 221.3 C 817.47 227.83 813.18 230.36 805.57 230.09 C 788.79 229.5 771.98 229.91 753.02 229.91 C 766.91 206.73 779.6 185.45 792.39 164.23 C 821.37 116.19 850.37 68.163 879.39 20.15 C 895.31 -6.23 918.39 -6.57 934.16 19.5 C 974.967 86.96 1015.737 154.443 1056.47 221.95 C 1057.77 223.9 1059.78 225.72 1059.29 229.73 Z" style="fill: rgb(50, 44, 43);">
        <title>A</title>
      </path>
      <path class="cls-2" d="M 1191.3 112.51 L 1077.96 3.36 C 1104.55 3.36 1127.96 3.36 1151.33 3.36 C 1155.71 3.36 1157.67 6.71 1160.23 9.17 C 1181.48 29.53 1202.92 49.7 1223.68 70.54 C 1229.46 76.34 1232.68 75.18 1237.61 70.27 C 1257.87 49.95 1278.5 29.98 1298.67 9.56 C 1303.18 4.99 1307.67 3.09 1314.11 3.21 C 1334.66 3.56 1355.21 3.34 1375.88 3.34 C 1361.07 18.72 1347.01 33.93 1332.29 48.47 C 1311.883 68.63 1291.17 88.473 1270.15 108 C 1265.59 112.23 1267.1 114.11 1270.48 117.32 C 1299.813 145.207 1329.067 173.157 1358.24 201.17 C 1367.39 210 1375.93 219.47 1385.88 229.83 C 1361.08 229.83 1337.23 229.83 1313.39 229.83 C 1309.17 229.83 1307.05 226.44 1304.46 223.93 C 1280.7 200.87 1256.75 178.01 1233.4 154.55 C 1227.58 148.7 1224.69 149.94 1219.6 155.06 C 1196.76 178 1173.49 200.52 1150.42 223.24 C 1146.99 226.61 1143.87 229.94 1138.33 229.9 C 1116.64 229.72 1094.95 229.82 1070.07 229.82 Z" style="fill: rgb(242, 189, 0);">
        <title>X</title>
      </path>
      <path class="cls-3" d="M 753.03 322.33 C 753.03 308.33 753.31 294.42 752.9 280.49 C 752.72 274.18 753.9 271.2 761.2 271.35 C 782.94 271.79 804.7 271.15 826.43 271.61 C 849.91 272.11 863.71 286.68 863.03 309.25 C 862.35 331.82 847.94 345.35 824.63 345.44 C 813.2 345.44 801.75 344.97 790.36 345.61 C 782.36 346.06 783.69 341.23 783.65 336.56 C 783.61 331.89 782.56 327.13 790.48 327.62 C 801.48 328.31 812.59 327.93 823.64 327.76 C 836.93 327.57 844.85 320.57 845.12 309.12 C 845.4 297.19 837.5 290.12 823.24 290.02 C 808.98 289.92 794.47 290.33 780.12 289.83 C 773.36 289.59 771.29 291.51 771.42 298.37 C 771.85 320.75 771.2 343.16 771.79 365.54 C 772 373.54 768.69 374.16 762.16 374.33 C 755.09 374.51 752.53 372.76 752.85 365.28 C 753.47 350.99 753.03 336.65 753.03 322.33 Z" style="fill: rgb(51, 45, 44);">
        <title>P</title>
      </path>
      <g>
        <title>O</title>
        <path class="cls-1" d="M 933.66 271.51 C 938.08 271.51 942.5 271.4 946.92 271.51 C 976.02 272.4 995.48 291.77 995.86 320.16 C 996.26 350.42 976.86 372.31 947.86 373.79 C 937.561 374.395 927.234 374.355 916.94 373.67 C 889.44 371.67 869.45 348.55 870.34 320.51 C 871.25 291.83 890.63 272.38 919.24 271.51 C 924.07 271.39 928.88 271.51 933.66 271.51 Z M 920.17 290.04 C 901.59 290.67 889.74 303.11 889.64 321.99 C 889.54 341.8 900.98 354.5 919.98 355.26 C 928.08 355.54 936.2 355.41 944.31 355.26 C 964.72 354.88 977.39 342.16 977.31 322.16 C 977.24 302.98 964.38 290.33 944.46 289.98 C 940.78 289.92 937.09 289.98 933.4 289.98 C 928.98 289.98 924.55 289.85 920.17 290.04 Z" style="fill: rgb(50, 44, 43);"/>
      </g>
      <path class="cls-1" d="M 1076.19 340.63 C 1070.81 350.76 1066.57 359.16 1061.93 367.34 C 1056 377.82 1046.48 378.34 1040.79 368.02 C 1023.47 336.63 1006.58 305.02 989.47 273.38 C 1006.99 268.59 1009.72 269.66 1017.47 284.21 C 1028.58 305.21 1039.64 326.21 1051.69 349 C 1056.69 340.18 1060.69 332.67 1065.13 325.42 C 1067.41 321.7 1065.13 319.26 1063.64 316.42 C 1056.1 301.93 1048.54 287.42 1040.84 272.67 C 1061.67 269.67 1061.67 269.67 1070.25 286.74 C 1080.45 307.01 1090.64 327.29 1101.63 349.12 C 1113.86 326.12 1126.2 304.67 1136.82 282.37 C 1141.58 272.37 1147.98 270.45 1157.57 271.37 C 1162.83 271.87 1162.86 273.57 1160.71 277.5 C 1144.22 307.72 1128.02 338.1 1111.32 368.2 C 1105.87 378.02 1096.57 377.68 1090.91 367.9 C 1086.11 359.69 1081.88 351.23 1076.19 340.63 Z" style="fill: rgb(50, 44, 43);">
        <title>W</title>
      </path>
      <g>
        <title>E</title>
        <path class="cls-4" d="M 1173.64 322.88 C 1173.64 308.55 1173.86 294.23 1173.53 279.88 C 1173.4 274.07 1174.53 271.25 1181.27 271.34 C 1207.08 271.66 1232.89 271.73 1258.7 271.34 C 1267.12 271.21 1265.79 276.24 1266.02 281.34 C 1266.26 286.83 1265.6 290.25 1258.5 290.09 C 1239.34 289.66 1220.16 290.17 1200.99 289.82 C 1194.66 289.71 1191.75 290.77 1191.99 298.09 C 1192.58 313.86 1192.55 329.67 1191.99 345.45 C 1191.73 353.02 1193.8 355.66 1201.74 355.45 C 1220.15 354.88 1238.61 355.61 1257.03 355.11 C 1264.61 354.9 1266.26 357.74 1266.1 364.66 C 1265.96 371.05 1265.49 374.49 1257.4 374.31 C 1232.34 373.74 1207.26 373.89 1182.19 374.25 C 1175.63 374.34 1173.12 372.92 1173.41 365.82 C 1174.05 351.54 1173.64 337.23 1173.64 322.88 Z" style="fill: rgb(52, 46, 45);">
          <title>E</title>
        </path>
        <path class="cls-5" d="M 1233.52 314.23 C 1239.75 314.23 1245.99 314.23 1252.23 314.23 C 1257.08 314.23 1262.23 312.51 1262.23 321.23 C 1262.23 329.23 1258.94 329.99 1252.48 329.81 C 1238.91 329.45 1225.31 329.33 1211.75 329.81 C 1204.86 330.08 1204.24 327.01 1204.12 321.4 C 1204 315.79 1205.68 313.66 1211.53 314.04 C 1218.81 314.56 1226.18 314.23 1233.52 314.23 Z" style="fill: rgb(53, 47, 46);"/>
      </g>
      <path class="cls-3" d="M 1398.59 372.87 C 1381.7 376.52 1368.69 374.4 1359.92 360.09 C 1352.21 347.52 1340.92 342.81 1326.37 345.37 C 1323.51 345.88 1320.49 345.37 1317.54 345.47 C 1312.2 345.69 1308.01 346.19 1307.98 337.99 C 1307.95 329.79 1311.5 329.33 1317.81 329.54 C 1328.48 329.89 1339.19 329.91 1349.81 329.54 C 1364.3 329.05 1370.86 322.02 1370.44 308.2 C 1370.05 295.58 1363.88 290.12 1349.44 289.99 C 1334.33 289.86 1319.21 290.24 1304.12 289.83 C 1297.83 289.66 1295.98 291.64 1296.12 297.83 C 1296.46 320.21 1296 342.61 1296.4 364.99 C 1296.52 371.99 1294.84 374.4 1287.33 374.35 C 1279.82 374.3 1277.33 372.5 1277.5 364.64 C 1278 336.76 1277.88 308.86 1277.57 280.97 C 1277.49 274.25 1278.67 271.11 1286.43 271.29 C 1308.16 271.77 1329.91 271.29 1351.65 271.52 C 1369.52 271.72 1381.31 279.52 1386.24 293.59 C 1392.44 311.35 1388.42 328.75 1374.24 339.09 C 1368.51 343.26 1370.15 345.04 1373.92 348.61 C 1381.88 356.23 1389.65 364.07 1398.59 372.87 Z" style="fill: rgb(51, 45, 44);">
        <title>R</title>
      </path>
    </g>
  </g>
  <g transform="matrix(0.139901, 0, 0, 0.139901, 38.649593, 66.383186)" style="">
    <rect x="30.953" y="32.714" width="457.753" height="457.753" style="fill: url(#gradient-1);" rx="29.051" ry="29.051"/>
    <path fill-rule="evenodd" clip-rule="evenodd" d="M 248.747 96.066 C 255.018 89.72 265.261 89.634 271.637 95.872 C 271.694 95.927 271.749 95.983 271.805 96.038 L 351.994 176.789 L 351.994 173.408 C 351.994 166.426 357.676 160.814 364.626 160.814 L 394.373 160.814 C 401.323 160.814 407.004 166.426 407.004 173.408 L 407.004 232.468 L 443.587 269.78 C 449.022 275.324 448.909 284.212 443.338 289.619 C 440.71 292.168 437.19 293.59 433.532 293.59 L 407.004 293.59 L 407.004 410.123 C 407.004 417.106 401.323 422.719 394.373 422.719 L 126.16 422.719 C 119.212 422.719 113.529 417.106 113.529 410.123 L 113.529 293.59 L 87.125 293.59 C 79.387 293.59 73.066 287.342 73.066 279.575 C 73.066 275.891 74.522 272.358 77.11 269.739 L 248.747 96.066 Z" style="fill: rgb(255, 255, 255);"/>
    <path d="M 308.781 266.656 C 309.638 264.865 310.117 262.856 310.117 260.738 C 310.117 253.155 303.972 247.01 296.391 247.01 C 288.81 247.01 282.665 253.155 282.665 260.738 C 282.665 268.319 288.81 274.465 296.391 274.465 C 298.511 274.465 300.517 273.985 302.309 273.127 L 322.015 292.834 L 322.015 311.921 L 297.306 336.63 L 297.306 318.526 C 302.637 316.642 306.458 311.557 306.458 305.579 C 306.458 297.999 300.311 291.853 292.731 291.853 C 285.15 291.853 279.005 297.999 279.005 305.579 C 279.005 311.557 282.823 316.642 288.154 318.526 L 288.154 345.782 L 265.278 368.661 L 265.278 234.263 L 284.067 215.472 C 285.859 216.33 287.865 216.811 289.986 216.811 C 297.566 216.811 303.712 210.665 303.712 203.083 C 303.712 195.502 297.566 189.356 289.986 189.356 C 282.405 189.356 276.26 195.502 276.26 203.083 C 276.26 205.203 276.739 207.21 277.596 209.003 L 260.702 225.897 L 243.808 209.003 C 244.666 207.21 245.146 205.203 245.146 203.083 C 245.146 195.502 238.999 189.356 231.419 189.356 C 223.839 189.356 217.693 195.502 217.693 203.083 C 217.693 210.665 223.839 216.811 231.419 216.811 C 233.539 216.811 235.544 216.33 237.338 215.472 L 256.127 234.263 L 256.127 330.224 L 223.183 297.278 L 223.183 270.938 C 228.515 269.054 232.334 263.97 232.334 257.993 C 232.334 250.411 226.188 244.265 218.608 244.265 C 211.027 244.265 204.882 250.411 204.882 257.993 C 204.882 263.97 208.702 269.054 214.032 270.938 L 214.032 288.128 L 188.409 262.504 L 188.409 237.078 C 193.741 235.194 197.56 230.108 197.56 224.132 C 197.56 216.55 191.415 210.404 183.834 210.404 C 176.252 210.404 170.107 216.55 170.107 224.132 C 170.107 230.108 173.927 235.194 179.258 237.078 L 179.258 266.294 L 207.562 294.598 L 191.289 294.598 C 189.404 289.266 184.32 285.448 178.342 285.448 C 170.762 285.448 164.616 291.593 164.616 299.174 C 164.616 306.756 170.762 312.901 178.342 312.901 C 184.32 312.901 189.404 309.082 191.289 303.75 L 216.712 303.75 L 256.127 343.166 L 256.127 411.673 L 235.08 390.624 L 235.08 364.283 C 240.41 362.399 244.23 357.314 244.23 351.337 C 244.23 343.757 238.086 337.61 230.503 337.61 C 222.923 337.61 216.778 343.757 216.778 351.337 C 216.778 357.314 220.597 362.399 225.928 364.283 L 225.928 381.473 L 195.307 350.85 C 196.165 349.057 196.645 347.051 196.645 344.931 C 196.645 337.35 190.5 331.205 182.919 331.205 C 175.337 331.205 169.192 337.35 169.192 344.931 C 169.192 352.512 175.337 358.658 182.919 358.658 C 185.037 358.658 187.045 358.178 188.836 357.322 L 219.457 387.944 L 203.185 387.944 C 201.3 382.612 196.217 378.792 190.24 378.792 C 182.659 378.792 176.513 384.938 176.513 392.52 C 176.513 400.1 182.659 406.246 190.24 406.246 C 196.217 406.246 201.3 402.427 203.185 397.094 L 228.609 397.094 L 254.232 422.719 L 267.173 422.719 L 293.711 396.18 L 318.219 396.18 C 320.104 401.512 325.188 405.33 331.165 405.33 C 338.747 405.33 344.891 399.185 344.891 391.603 C 344.891 384.023 338.747 377.877 331.165 377.877 C 325.188 377.877 320.104 381.697 318.219 387.028 L 289.92 387.028 L 265.278 411.673 L 265.278 381.603 L 294.627 352.252 L 342.012 352.252 C 343.897 357.584 348.981 361.404 354.957 361.404 C 362.538 361.404 368.684 355.258 368.684 347.677 C 368.684 340.096 362.538 333.951 354.957 333.951 C 348.981 333.951 343.897 337.769 342.012 343.1 L 303.777 343.1 L 331.165 315.711 L 331.165 292.834 L 350.869 273.127 C 352.662 273.985 354.669 274.465 356.788 274.465 C 364.368 274.465 370.514 268.319 370.514 260.738 C 370.514 253.155 364.368 247.01 356.788 247.01 C 349.207 247.01 343.061 253.155 343.061 260.738 C 343.061 262.856 343.542 264.865 344.4 266.656 L 331.165 279.891 L 331.165 237.994 C 336.495 236.108 340.317 231.024 340.317 225.048 C 340.317 217.467 334.171 211.321 326.589 211.321 C 319.009 211.321 312.863 217.467 312.863 225.048 C 312.863 231.024 316.683 236.108 322.015 237.994 L 322.015 279.891 L 308.781 266.656 Z M 190.24 398.01 C 187.208 398.01 184.748 395.551 184.748 392.52 C 184.748 389.487 187.208 387.028 190.24 387.028 C 193.271 387.028 195.73 389.487 195.73 392.52 C 195.73 395.551 193.271 398.01 190.24 398.01 Z M 230.503 356.828 C 227.472 356.828 225.013 354.371 225.013 351.337 C 225.013 348.305 227.472 345.846 230.503 345.846 C 233.536 345.846 235.993 348.305 235.993 351.337 C 235.993 354.371 233.536 356.828 230.503 356.828 Z M 182.919 350.423 C 179.887 350.423 177.429 347.965 177.429 344.931 C 177.429 341.898 179.887 339.442 182.919 339.442 C 185.951 339.442 188.409 341.898 188.409 344.931 C 188.409 347.965 185.951 350.423 182.919 350.423 Z M 178.342 304.665 C 175.311 304.665 172.852 302.207 172.852 299.174 C 172.852 296.142 175.311 293.683 178.342 293.683 C 181.377 293.683 183.834 296.142 183.834 299.174 C 183.834 302.207 181.377 304.665 178.342 304.665 Z M 292.731 311.071 C 289.698 311.071 287.24 308.613 287.24 305.579 C 287.24 302.548 289.698 300.089 292.731 300.089 C 295.763 300.089 298.221 302.548 298.221 305.579 C 298.221 308.613 295.763 311.071 292.731 311.071 Z M 354.957 353.168 C 351.925 353.168 349.467 350.71 349.467 347.677 C 349.467 344.644 351.925 342.186 354.957 342.186 C 357.991 342.186 360.448 344.644 360.448 347.677 C 360.448 350.71 357.991 353.168 354.957 353.168 Z M 331.165 397.094 C 328.132 397.094 325.675 394.638 325.675 391.603 C 325.675 388.571 328.132 386.113 331.165 386.113 C 334.197 386.113 336.656 388.571 336.656 391.603 C 336.656 394.638 334.197 397.094 331.165 397.094 Z M 356.788 266.229 C 353.755 266.229 351.297 263.77 351.297 260.738 C 351.297 257.706 353.755 255.248 356.788 255.248 C 359.82 255.248 362.278 257.706 362.278 260.738 C 362.278 263.77 359.82 266.229 356.788 266.229 Z M 326.589 230.538 C 323.558 230.538 321.098 228.079 321.098 225.048 C 321.098 222.015 323.558 219.556 326.589 219.556 C 329.622 219.556 332.08 222.015 332.08 225.048 C 332.08 228.079 329.622 230.538 326.589 230.538 Z M 289.986 208.575 C 286.953 208.575 284.496 206.116 284.496 203.083 C 284.496 200.052 286.953 197.592 289.986 197.592 C 293.018 197.592 295.476 200.052 295.476 203.083 C 295.476 206.116 293.018 208.575 289.986 208.575 Z M 231.419 208.575 C 228.387 208.575 225.928 206.116 225.928 203.083 C 225.928 200.052 228.387 197.592 231.419 197.592 C 234.452 197.592 236.909 200.052 236.909 203.083 C 236.909 206.116 234.452 208.575 231.419 208.575 Z M 183.834 229.623 C 180.801 229.623 178.342 227.164 178.342 224.132 C 178.342 221.1 180.801 218.641 183.834 218.641 C 186.866 218.641 189.324 221.1 189.324 224.132 C 189.324 227.164 186.866 229.623 183.834 229.623 Z M 218.608 263.483 C 215.575 263.483 213.117 261.025 213.117 257.993 C 213.117 254.96 215.575 252.501 218.608 252.501 C 221.64 252.501 224.098 254.96 224.098 257.993 C 224.098 261.025 221.64 263.483 218.608 263.483 Z M 296.391 266.229 C 293.359 266.229 290.9 263.77 290.9 260.738 C 290.9 257.706 293.359 255.248 296.391 255.248 C 299.424 255.248 301.881 257.706 301.881 260.738 C 301.881 263.77 299.424 266.229 296.391 266.229 Z" style="fill: rgb(75, 191, 243);"/>
  </g>
</svg>