<?xml version="1.0" encoding="utf-8"?>
<svg height="100%" style="fill-rule:evenodd;clip-rule:evenodd;stroke-linecap:round;stroke-linejoin:round;" width="100%" version="1.1" viewBox="0 0 150 150" xmlns="http://www.w3.org/2000/svg" xmlns:bx="https://boxy-svg.com">
  <defs>
    <bx:grid x="0" y="0" width="15" height="15"/>
  </defs>
  <rect width="120" height="120" style="fill: none; stroke-width: 0.2px; stroke: rgb(84, 84, 84); pointer-events: none; visibility: hidden;" x="15" y="15"/>
  <g transform="matrix(1.024628, 0, 0, 1.024628, 10.89599, -8.084481)" style="">
    <g id="vlpb" transform="matrix(0.591916, 0, 0, 0.591916, 15.209917, 15.209924)">
      <title>Logo</title>
      <g id="vlpc" fill="#1BB91F">
        <path d="m0 116h160v29c0 8.286-6.722 15-15 15h-130c-8.283 0-15-6.707-15-15v-29zm0 0h160v30h-160v-30z"/>
      </g>
      <path id="vlpd" d="m83 70v-70h-6v146h6v-70h77v-6h-77zm-83-54.99c0-8.288 6.722-15.01 15-15.01h130c8.283 0 15 6.725 15 15.01v131h-160v-131z" fill="#3C3C3C"/>
    </g>
    <path id="vlpe" d="M 30.318 146.93 C 27.944 146.93 26.159 146.307 24.958 145.06 C 23.758 143.813 23.159 141.965 23.159 139.518 L 23.159 128.259 L 18.843 128.259 L 18.843 125.021 L 23.159 125.021 L 23.159 117.825 L 26.756 117.825 L 26.756 125.021 L 34.672 125.021 L 34.672 128.259 L 26.756 128.259 L 26.756 139.556 C 26.756 140.971 27.104 142.008 27.8 142.667 C 28.495 143.327 29.407 143.657 30.533 143.657 C 31.061 143.657 31.648 143.597 32.296 143.477 C 32.943 143.357 33.603 143.176 34.274 142.937 L 34.994 146.103 C 34.179 146.391 33.381 146.601 32.602 146.733 C 31.822 146.865 31.061 146.93 30.318 146.93 Z M 41.829 146.606 L 38.232 146.606 L 38.232 125.022 L 41.829 125.022 L 41.829 128.619 C 41.829 128.619 44.017 126.46 45.084 125.741 C 46.152 125.022 47.404 124.662 48.844 124.662 C 50.115 124.662 51.201 125.016 52.099 125.723 C 52.998 126.431 53.64 127.396 54.024 128.62 C 54.024 128.62 56.446 126.461 57.549 125.743 C 58.651 125.025 59.958 124.663 61.47 124.663 C 63.148 124.663 64.493 125.281 65.499 126.517 C 66.506 127.751 67.01 129.413 67.01 131.498 L 67.01 146.607 L 63.414 146.607 L 63.414 132.075 C 63.414 130.636 63.138 129.611 62.586 128.999 C 62.034 128.388 61.243 128.082 60.211 128.082 C 59.18 128.082 58.155 128.394 57.136 129.017 C 56.117 129.641 55.211 130.468 54.421 131.499 L 54.421 146.607 L 50.824 146.607 L 50.824 132.075 C 50.824 130.636 50.548 129.611 49.996 129.001 C 49.445 128.389 48.653 128.083 47.622 128.083 C 46.591 128.083 45.565 128.394 44.547 129.018 C 43.528 129.641 42.622 130.469 41.831 131.499 L 41.831 146.608 L 41.829 146.606 Z M 73.186 144.951 C 71.915 143.608 71.28 141.822 71.28 139.591 L 71.28 125.022 L 74.876 125.022 L 74.876 138.871 C 74.876 140.406 75.235 141.57 75.955 142.362 C 76.675 143.153 77.73 143.549 79.121 143.549 C 80.225 143.549 81.322 143.231 82.413 142.595 C 83.506 141.96 84.59 141.018 85.669 139.77 L 85.669 125.02 L 89.265 125.02 L 89.265 146.605 L 85.669 146.605 L 85.669 143.008 C 85.669 143.008 83.229 145.167 82.09 145.885 C 80.95 146.605 79.674 146.965 78.258 146.965 C 76.148 146.965 74.457 146.293 73.185 144.951 L 73.186 144.951 Z M 105.739 146.606 L 100.487 138.475 L 95.56 146.606 L 91.568 146.606 L 98.763 135.777 L 91.819 125.022 L 95.85 125.022 L 100.851 132.791 L 105.924 125.022 L 109.916 125.022 L 102.649 135.562 L 109.773 146.606 L 105.744 146.606 L 105.739 146.606 Z" fill="#1BB91F" style="">
      <title>tmux</title>
    </path>
  </g>
</svg>