<?xml version="1.0" encoding="utf-8"?>
<svg height="100%" style="fill-rule:evenodd;clip-rule:evenodd;stroke-linecap:round;stroke-linejoin:round;" width="100%" version="1.1" viewBox="0 0 150 150" xmlns="http://www.w3.org/2000/svg" xmlns:bx="https://boxy-svg.com">
  <defs>
    <bx:grid x="0" y="0" width="15" height="15"/>
  </defs>
  <rect width="120" height="120" style="fill: none; stroke-width: 0.2px; stroke: rgb(84, 84, 84); pointer-events: none; visibility: hidden;" x="15" y="15" bx:origin="0.5 0.5"/>
  <g style="" transform="matrix(0.930149, 0, 0, 0.930149, -4.149522, 5.760167)">
    <g>
      <path d="M 78.342 109.017 C 78.602 109.043 78.889 109.043 79.149 109.069 C 81.205 109.199 83.182 109.693 85.003 110.656 C 86.33 111.333 87.475 112.217 88.516 113.284 C 89.635 114.429 90.571 115.704 91.274 117.161 C 91.794 118.228 92.158 119.346 92.393 120.491 C 92.705 121.897 92.809 123.327 92.731 124.784 C 92.627 127.1 92.132 129.311 91.039 131.367 C 90.285 132.799 89.296 134.047 88.099 135.166 C 86.201 136.961 83.989 138.106 81.465 138.653 C 80.528 138.861 79.566 138.964 78.602 139.017 C 78.551 139.017 78.524 139.043 78.473 139.043 C 78.082 139.043 77.718 139.043 77.327 139.043 C 77.094 139.017 76.833 139.017 76.599 138.991 C 73.659 138.782 70.953 137.872 68.637 136.025 C 66.79 134.568 65.359 132.772 64.37 130.639 C 63.876 129.546 63.538 128.401 63.303 127.23 C 63.043 125.903 62.965 124.55 63.043 123.198 C 63.173 120.361 63.928 117.707 65.593 115.365 C 67.518 112.608 70.042 110.656 73.295 109.719 C 74.283 109.433 75.299 109.251 76.339 109.173 C 76.677 109.147 76.989 109.147 77.327 109.121 C 77.38 109.121 77.432 109.095 77.483 109.095 C 77.77 109.017 78.056 109.017 78.342 109.017 Z M 77.874 135.14 C 78.914 135.14 79.93 135.036 80.918 134.801 C 83.078 134.256 84.873 133.137 86.304 131.419 C 87.761 129.676 88.516 127.647 88.724 125.383 C 88.802 124.602 88.802 123.848 88.75 123.067 C 88.697 122.235 88.594 121.402 88.359 120.595 C 87.657 118.071 86.252 116.042 84.066 114.585 C 82.427 113.492 80.606 112.997 78.654 112.894 C 77.588 112.841 76.521 112.894 75.48 113.076 C 73.633 113.414 72.02 114.169 70.589 115.392 C 69.209 116.589 68.247 118.046 67.623 119.763 C 67.154 121.064 66.972 122.391 66.946 123.769 C 66.92 124.837 66.998 125.877 67.232 126.918 C 67.649 128.791 68.481 130.457 69.808 131.862 C 70.979 133.11 72.358 133.995 73.971 134.541 C 75.272 134.983 76.573 135.14 77.874 135.14 Z" style=""/>
      <path d="M 131.603 138.314 C 131.499 138.575 131.395 138.626 131.109 138.626 C 130.12 138.626 129.131 138.626 128.143 138.626 C 127.805 138.626 127.674 138.496 127.674 138.158 C 127.674 128.713 127.674 119.294 127.674 109.849 C 127.674 109.485 127.805 109.355 128.169 109.355 C 129.157 109.355 130.147 109.355 131.135 109.355 C 131.265 109.355 131.395 109.407 131.499 109.459 C 131.551 109.511 131.577 109.615 131.629 109.693 C 131.603 119.243 131.603 128.791 131.603 138.314 Z" style=""/>
      <path d="M 50.971 121.245 C 51.465 121.897 51.959 122.573 52.454 123.223 C 53.495 124.628 54.561 126.008 55.602 127.412 C 56.954 129.208 58.307 131.003 59.634 132.772 C 60.962 134.515 62.262 136.285 63.589 138.028 C 63.694 138.158 63.719 138.288 63.668 138.444 C 63.589 138.6 63.459 138.653 63.303 138.653 C 63.225 138.653 63.147 138.653 63.095 138.653 C 61.873 138.653 60.649 138.653 59.452 138.653 C 59.245 138.653 59.088 138.575 58.958 138.418 C 56.669 135.348 54.353 132.278 52.063 129.208 C 50.762 127.464 49.461 125.721 48.134 123.978 C 48.134 123.952 48.108 123.952 48.082 123.925 C 47.926 124.082 47.77 124.212 47.614 124.368 C 46.547 125.356 45.507 126.346 44.439 127.334 C 43.867 127.88 43.269 128.427 42.696 128.973 C 42.618 129.051 42.593 129.104 42.593 129.208 C 42.593 132.174 42.593 135.14 42.593 138.106 C 42.593 138.132 42.593 138.184 42.593 138.21 C 42.593 138.47 42.436 138.626 42.176 138.626 C 41.135 138.626 40.095 138.626 39.054 138.626 C 38.794 138.626 38.663 138.47 38.638 138.21 C 38.638 138.184 38.638 138.158 38.638 138.106 C 38.638 128.688 38.638 119.268 38.638 109.849 C 38.638 109.849 38.638 109.823 38.638 109.823 C 38.638 109.459 38.767 109.329 39.132 109.329 C 40.069 109.329 41.031 109.329 41.968 109.329 C 42.02 109.329 42.097 109.329 42.15 109.329 C 42.436 109.329 42.567 109.485 42.567 109.745 C 42.567 109.798 42.567 109.823 42.567 109.875 C 42.567 114.429 42.567 119.008 42.567 123.561 C 42.567 123.613 42.567 123.666 42.567 123.743 C 42.8 123.536 43.009 123.327 43.217 123.119 C 44.466 121.948 45.714 120.777 46.963 119.606 C 48.603 118.071 50.242 116.536 51.881 115.001 C 53.26 113.7 54.639 112.426 56.018 111.124 C 56.59 110.578 57.189 110.031 57.762 109.485 C 57.891 109.381 58.021 109.303 58.178 109.303 C 59.634 109.303 61.092 109.303 62.523 109.303 C 62.757 109.303 62.913 109.381 62.965 109.589 C 63.017 109.745 62.939 109.849 62.835 109.954 C 62.419 110.343 62.002 110.76 61.586 111.151 C 60.832 111.853 60.103 112.555 59.348 113.258 C 58.307 114.221 57.293 115.209 56.252 116.172 C 55.185 117.161 54.145 118.175 53.078 119.164 C 52.401 119.893 51.699 120.569 50.971 121.245 Z" style=""/>
      <path d="M 97.259 124.004 C 97.259 119.294 97.259 114.611 97.259 109.902 C 97.259 109.849 97.259 109.823 97.259 109.772 C 97.259 109.511 97.388 109.355 97.674 109.355 C 97.701 109.355 97.701 109.355 97.726 109.355 C 101.759 109.355 105.792 109.355 109.825 109.355 C 111.673 109.355 113.442 109.772 115.133 110.526 C 116.616 111.177 117.891 112.113 119.01 113.258 C 120.831 115.132 122.054 117.369 122.653 119.919 C 122.991 121.402 123.147 122.885 123.095 124.394 C 123.043 126.423 122.704 128.401 121.924 130.275 C 121.273 131.835 120.363 133.241 119.218 134.489 C 117.448 136.389 115.29 137.637 112.766 138.262 C 111.673 138.522 110.58 138.653 109.435 138.653 C 105.532 138.653 101.629 138.653 97.726 138.653 C 97.648 138.653 97.597 138.653 97.518 138.626 C 97.362 138.6 97.284 138.522 97.259 138.366 C 97.259 138.288 97.232 138.21 97.232 138.132 C 97.259 133.449 97.259 128.713 97.259 124.004 Z M 101.187 134.88 C 101.265 134.88 101.317 134.88 101.369 134.88 C 103.997 134.88 106.625 134.88 109.253 134.88 C 109.721 134.88 110.189 134.854 110.658 134.827 C 111.62 134.75 112.557 134.489 113.442 134.073 C 114.613 133.553 115.575 132.772 116.408 131.809 C 117.189 130.925 117.813 129.936 118.255 128.817 C 118.749 127.647 119.01 126.423 119.088 125.175 C 119.166 124.03 119.14 122.885 118.958 121.741 C 118.749 120.387 118.307 119.138 117.631 117.942 C 116.877 116.64 115.914 115.495 114.665 114.637 C 113.182 113.596 111.517 113.102 109.695 113.102 C 106.885 113.076 104.075 113.102 101.265 113.102 C 101.213 113.102 101.161 113.102 101.109 113.102 C 101.187 120.387 101.187 127.621 101.187 134.88 Z" style=""/>
    </g>
    <g>
      <path class="st0" d="M 131.629 57.005 C 131.325 57.968 130.666 58.678 129.957 59.387 C 125.244 64.1 120.531 68.813 115.818 73.526 C 114.145 75.249 112.321 75.199 110.598 73.526 C 105.733 68.661 100.867 63.796 96.002 58.931 C 94.33 57.259 94.33 55.485 96.002 53.812 C 100.867 48.897 105.783 44.031 110.648 39.116 C 112.219 37.545 114.095 37.545 115.716 39.116 C 120.48 43.879 125.193 48.592 129.957 53.356 C 130.666 54.066 131.325 54.775 131.629 55.738 C 131.629 56.144 131.629 56.549 131.629 57.005 Z" style="fill: rgb(23, 178, 231);"/>
      <path class="st0" d="M 84.752 102.565 C 83.789 102.261 83.079 101.602 82.37 100.893 C 77.657 96.18 72.943 91.467 68.23 86.754 C 66.558 85.081 66.558 83.257 68.23 81.584 C 73.096 76.719 77.961 71.803 82.877 66.938 C 84.498 65.316 86.373 65.316 87.944 66.938 C 92.81 71.803 97.675 76.719 102.591 81.584 C 104.263 83.257 104.263 85.081 102.591 86.754 C 97.827 91.517 93.063 96.281 88.35 101.045 C 87.691 101.704 86.981 102.363 86.019 102.616 C 85.613 102.565 85.208 102.565 84.752 102.565 Z" style="fill: rgb(23, 178, 231);"/>
      <path class="st0" d="M 67.673 44.64 C 67.673 39.217 67.724 33.794 67.622 28.372 C 67.622 26.801 67.977 25.584 69.193 24.52 C 70.156 23.709 71.018 22.746 71.93 21.834 C 75.528 18.236 79.076 14.688 82.674 11.09 C 84.346 9.418 86.171 9.418 87.843 11.09 C 92.708 15.955 97.573 20.821 102.438 25.686 C 104.111 27.358 104.111 29.183 102.438 30.855 C 96.712 36.632 90.934 42.359 85.208 48.136 C 80.14 53.204 75.072 58.323 69.953 63.391 C 68.991 64.354 68.18 64.1 67.825 62.833 C 67.724 62.428 67.724 61.972 67.724 61.566 C 67.622 55.941 67.673 50.316 67.673 44.64 Z" style="fill: rgb(23, 178, 231);"/>
      <path class="st0" d="M 56.017 56.397 C 56.017 61.364 56.017 66.381 56.017 71.347 C 56.017 71.803 55.915 72.31 55.763 72.766 C 55.409 73.628 54.801 73.729 54.142 73.07 C 51.861 70.79 49.581 68.509 47.3 66.178 C 44.665 63.543 42.029 60.907 39.394 58.221 C 38.279 57.107 38.279 55.586 39.394 54.522 C 44.259 49.606 49.125 44.69 53.99 39.774 C 54.294 39.47 54.598 39.014 55.155 39.217 C 55.662 39.42 55.865 39.876 55.966 40.433 C 56.017 40.737 56.067 41.092 56.067 41.396 C 56.017 46.413 56.017 51.43 56.017 56.397 C 56.017 56.397 56.017 56.397 56.017 56.397 Z" style="fill: rgb(23, 178, 231);"/>
    </g>
  </g>
</svg>