<?xml version="1.0" encoding="utf-8"?>
<svg height="100%" style="fill-rule:evenodd;clip-rule:evenodd;stroke-linecap:round;stroke-linejoin:round;" width="100%" version="1.1" viewBox="0 0 150 150" xmlns="http://www.w3.org/2000/svg" xmlns:bx="https://boxy-svg.com">
  <defs>
    <bx:grid x="0" y="0" width="15" height="15"/>
    <linearGradient x1="23.962%" y1="46.043%" x2="68.784%" y2="55.602%" id="a">
      <stop stop-color="#919191" offset="0"/>
      <stop stop-color="#FFF" offset="1"/>
    </linearGradient>
    <linearGradient x1="26.427%" y1="42.381%" x2="67.132%" y2="51.906%" id="b">
      <stop stop-color="#900" offset="0"/>
      <stop stop-color="#E80000" offset="1"/>
    </linearGradient>
    <linearGradient x1="50%" y1="99.822%" x2="50%" y2="-.044%" id="c">
      <stop stop-color="#1A1A1A" offset="0"/>
      <stop stop-color="#4A4A4C" offset="0.4026"/>
      <stop stop-color="#333" offset="1"/>
    </linearGradient>
  </defs>
  <rect width="120" height="120" style="fill: none; stroke-width: 0.2px; stroke: rgb(84, 84, 84); pointer-events: none; visibility: hidden;" x="15" y="15" bx:origin="0.5 0.5"/>
  <g>
    <g style="" transform="matrix(1.11365, -0.70162, 0.70162, 1.11365, -64.783684, 46.282364)">
      <path d="M 122.106 51.871 C 122.084 51.963 122.084 52.056 122.106 52.148 C 122.106 52.148 122.406 54.109 122.061 54.986 L 107.846 91.976 C 106.831 94.699 108.192 97.721 110.915 98.76 C 113.638 99.798 116.661 98.46 117.745 95.76 L 131.96 58.771 C 132.236 58.055 133.829 56.647 133.829 56.647 C 133.898 56.578 133.967 56.509 134.013 56.44 L 134.013 56.416 C 134.013 56.394 134.036 56.394 134.036 56.371 C 134.406 55.425 132.029 53.625 128.753 52.356 C 125.475 51.086 122.499 50.833 122.13 51.802 C 122.13 51.802 122.106 51.825 122.106 51.871 Z" opacity=".1" style=""/>
      <path d="M 121.691 51.548 C 121.668 51.64 121.668 51.733 121.691 51.825 C 121.691 51.825 121.991 53.786 121.645 54.663 L 107.431 91.653 C 106.416 94.375 107.777 97.398 110.5 98.436 C 113.223 99.475 116.245 98.137 117.33 95.437 L 131.545 58.448 C 131.821 57.732 133.414 56.324 133.414 56.324 C 133.483 56.255 133.553 56.186 133.598 56.117 L 133.598 56.094 C 133.598 56.071 133.621 56.071 133.621 56.048 C 133.99 55.102 131.614 53.302 128.337 52.032 C 125.06 50.763 122.084 50.51 121.714 51.479 C 121.714 51.502 121.714 51.525 121.691 51.548 Z" fill="url(#a)" style=""/>
      <path d="M 126.168 68.278 L 115.9 94.952 C 115.138 96.867 112.946 97.859 110.985 97.099 C 109.023 96.336 107.985 94.098 108.701 92.183 L 115.253 75.13 C 115.253 75.13 116.061 73.816 117.677 72.87 C 119.291 71.923 120.607 72.131 122.384 71.346 C 124.183 70.562 126.168 68.278 126.168 68.278 Z" fill="url(#b)" style=""/>
      <path d="M 131.147 55.276 C 131.352 54.742 129.88 53.677 127.859 52.897 C 125.838 52.117 124.035 51.917 123.831 52.451 C 123.626 52.985 125.098 54.049 127.118 54.83 C 129.139 55.61 130.943 55.81 131.147 55.276 Z" fill="#333" style=""/>
      <path d="M 121.596 51.822 C 121.596 51.822 121.894 53.778 121.55 54.653 L 107.428 91.538 C 106.42 94.253 107.773 97.267 110.477 98.302 C 110.936 98.486 111.417 98.601 111.898 98.624 C 110.041 97.207 109.325 94.743 110.133 92.55 L 123.98 56.401 C 123.98 56.401 122.077 54.629 121.596 51.822 Z" opacity=".3" fill="#FFF" style=""/>
      <g transform="matrix(0.231201, 0, 0, 0.231201, 113.021599, 75.039246)" fill="#FFF" opacity=".5" style="">
        <ellipse cx="17.451" cy="2.488" rx="1.785" ry="1.791"/>
        <ellipse cx="29.052" cy="15.327" rx="2.677" ry="2.687"/>
        <ellipse cx="11.303" cy="30.653" rx="5.057" ry="5.076"/>
        <ellipse cx="3.173" cy="40.009" rx="2.677" ry="2.687"/>
        <ellipse cx="13.782" cy="59.913" rx="1.785" ry="1.791"/>
      </g>
    </g>
    <path d="M 34.627 80.051 C 35.447 80.716 36.935 80.322 37.937 79.23 C 39.002 78.08 39.151 76.596 38.332 75.93 C 37.511 75.263 36.023 75.658 35.022 76.809 C 33.957 77.959 33.777 79.412 34.627 80.051 Z M 32.166 82.199 C 31.954 82.199 31.559 82.594 31.893 82.746 C 32.348 82.895 32.561 83.29 32.561 83.835 C 32.166 86.106 29.342 88.682 28.251 89.559 C 27.975 89.832 28.371 90.437 28.643 90.225 C 29.251 89.74 30.526 88.74 31.559 87.41 C 29.858 91.194 26.517 96.101 25.242 97.828 C 20.262 104.702 12.698 111.034 7.503 111.034 C 3.343 111.034 -0.18 108.215 -0.94 104.097 C -1 103.642 -1.608 103.551 -1.486 104.157 C -0.544 109.821 3.829 112.031 9.115 112.031 C 14.915 112.031 21.718 107.852 25.483 103.551 C 31.559 96.617 35.477 88.62 34.445 84.109 C 34.02 82.442 32.834 82.17 32.166 82.199 Z M 69.494 97.313 C 71.103 96.918 72.409 96.042 72.409 94.648 C 72.409 94.496 72.138 94.496 72.138 94.648 C 72.138 95.466 71.195 96.161 70.132 96.312 C 67.641 96.707 62.722 93.798 60.414 90.802 C 62.904 91.74 67.976 90.378 70.375 88.651 C 72.592 87.045 73.474 85.291 73.626 83.866 C 73.899 81.502 71.316 80.11 67.702 81.502 C 65.395 82.442 62.63 84.47 59.745 88.286 C 62.782 83.29 68.765 75.111 74.626 69.903 C 81.764 63.573 85.893 64.783 79.486 71.509 C 76.843 74.264 71.862 77.837 68.43 79.383 C 67.368 79.836 67.884 80.443 68.644 80.109 C 72.29 78.505 77.148 75.204 80.094 72.447 C 88.779 64.118 81.52 57.848 71.924 66.663 C 65.395 72.659 61.14 78.928 57.436 87.076 C 56.162 88.62 55.219 89.892 54.065 90.861 C 53.913 90.982 53.822 91.103 53.731 91.227 C 50.542 93.95 45.53 97.646 42.402 97.675 C 40.186 97.737 39.244 96.07 39.639 93.922 C 40.245 90.558 43.737 86.59 46.716 85.227 C 50.572 83.47 52.851 86.894 47.779 89.62 C 45.835 90.619 43.525 91.164 42.583 91.164 C 41.492 91.164 41.582 91.619 42.525 91.65 C 44.074 91.709 46.563 91.043 48.204 90.286 C 53.396 87.804 53.731 83.169 48.082 83.018 C 41.946 82.804 34.597 88.015 34.658 94.587 C 34.718 97.555 37.087 99.16 40.338 99.16 C 45.773 99.1 50.602 94.979 54.58 91.346 C 55.159 90.861 55.705 90.347 56.251 89.802 C 54.854 93.315 54.156 96.586 54.49 99.01 C 54.702 100.766 55.705 101.582 56.494 102.249 C 56.646 102.371 56.981 102.249 56.768 101.916 C 55.614 100.553 55.947 96.465 57.528 92.499 C 58.863 95.162 64.057 98.524 69.494 97.313 Z M 62.964 85.833 C 69.313 80.17 71.802 85.227 67.763 88.317 C 65.668 89.922 61.506 91.134 60.201 90.347 L 59.927 90.196 C 59.774 89.922 59.594 89.649 59.472 89.378 C 60.534 88.075 61.749 86.924 62.964 85.833 Z M 98.255 79.383 C 100.805 79.654 99.745 76.566 97.162 77.355 C 96.009 77.687 94.885 79.898 94.064 81.806 C 91.514 85.593 87.26 90.771 84.284 93.496 C 81.644 95.769 79.214 96.373 82.189 92.135 C 83.404 90.437 84.953 88.62 85.834 86.802 C 87.929 82.229 83.465 80.2 79.85 82.956 C 77.756 84.562 74.93 87.862 72.714 89.68 C 72.107 90.165 72.259 90.891 72.866 90.407 C 74.626 88.984 77.726 85.714 80.398 83.805 C 82.614 82.108 83.495 83.199 82.22 84.622 C 80.458 86.652 77.361 90.196 76.571 92.436 C 75.476 95.799 76.783 97.282 79.001 97.282 C 82.037 97.282 86.562 92.558 89.601 88.802 C 90.601 87.53 91.695 86.046 92.636 84.622 C 89.994 89.74 87.231 94.919 83.8 99.614 C 78.939 106.217 72.866 111.183 67.094 111.183 C 62.934 111.183 59.349 108.367 58.59 104.247 C 58.53 103.794 57.982 103.702 58.044 104.308 C 58.985 109.972 63.357 112.183 68.644 112.183 C 74.445 112.183 80.033 108.821 83.95 104.702 C 91.847 96.373 92.787 87.014 95.218 81.775 C 96.371 79.383 97.405 79.293 98.255 79.383 Z M 130.391 71.386 C 131.543 69.417 131.483 67.875 128.779 67.875 C 126.744 67.934 123.039 69.358 121.308 70.69 C 120.914 71.084 121.096 71.298 121.581 71.084 C 121.915 70.963 122.311 70.751 122.675 70.598 C 124.618 69.54 123.828 71.75 123.404 72.568 C 121.096 76.595 116.995 82.26 114.84 85.077 C 113.816 86.454 112.712 87.77 111.53 89.015 C 109.464 90.982 105.363 94.465 102.235 95.616 C 92.181 99.371 104.999 82.289 106.061 80.898 C 108.429 77.93 113.746 72.749 115.355 70.146 C 116.509 68.178 116.448 66.632 113.746 66.632 C 111.712 66.692 108.007 68.116 106.273 69.448 C 105.879 69.842 106.061 70.053 106.546 69.842 C 106.882 69.722 107.275 69.509 107.64 69.358 C 109.583 68.298 108.795 70.508 108.37 71.325 C 106.061 75.355 101.962 81.018 99.804 83.834 C 98.044 86.198 95.888 88.558 94.217 89.892 C 93.548 90.437 93.945 90.952 94.611 90.498 C 95.218 90.103 96.098 89.226 97.102 88.195 C 95.278 91.829 93.792 96.949 98.589 97.555 C 102.689 98.1 107.549 93.95 110.708 90.861 L 111.833 89.74 L 112.106 89.469 C 110.283 93.102 108.795 98.221 113.593 98.827 C 118.848 99.554 125.378 92.498 127.899 89.892 C 128.385 89.407 128.233 88.558 127.412 89.407 C 125.924 90.952 120.884 95.525 117.237 96.887 C 107.186 100.643 120.002 83.562 121.065 82.17 C 123.465 79.14 128.779 73.962 130.391 71.387 Z" opacity=".1" style="" transform="matrix(0.846084, -0.533049, 0.533049, 0.846084, -36.554594, 47.976098)"/>
    <path d="M 33.887 79.895 C 34.707 80.563 36.196 80.167 37.198 79.078 C 38.261 77.928 38.411 76.443 37.591 75.776 C 36.772 75.109 35.284 75.503 34.282 76.654 C 33.219 77.805 33.067 79.23 33.887 79.895 Z M 31.458 82.046 C 31.245 82.046 30.851 82.439 31.184 82.591 C 31.64 82.743 31.851 83.135 31.851 83.683 C 31.458 85.955 28.634 88.526 27.541 89.405 C 27.266 89.679 27.662 90.285 27.934 90.071 C 28.541 89.588 29.818 88.587 30.851 87.255 C 29.15 91.042 25.807 95.947 24.533 97.674 C 19.554 104.549 11.989 110.878 6.794 110.878 C 2.635 110.878 -0.889 108.063 -1.648 103.944 C -1.709 103.489 -2.315 103.398 -2.194 104.005 C -1.252 109.668 3.119 111.879 8.406 111.879 C 14.206 111.879 21.01 107.701 24.775 103.398 C 30.851 96.463 34.768 88.468 33.735 83.956 C 33.281 82.259 32.124 81.986 31.458 82.046 Z M 68.756 97.158 C 70.365 96.765 71.67 95.887 71.67 94.494 C 71.67 94.343 71.397 94.343 71.397 94.494 C 71.397 95.313 70.456 96.009 69.392 96.16 C 66.902 96.553 61.981 93.645 59.673 90.647 C 62.164 91.588 67.237 90.223 69.635 88.498 C 71.852 86.892 72.734 85.136 72.885 83.712 C 73.159 81.349 70.576 79.957 66.964 81.349 C 64.655 82.287 61.891 84.318 59.005 88.134 C 62.043 83.135 68.026 74.957 73.887 69.75 C 81.025 63.42 85.156 64.633 78.747 71.356 C 76.105 74.111 71.123 77.686 67.691 79.23 C 66.629 79.685 67.145 80.291 67.905 79.957 C 71.548 78.352 76.407 75.051 79.355 72.292 C 88.041 63.966 80.782 57.696 71.186 66.509 C 64.655 72.476 60.402 78.775 56.698 86.923 C 55.421 88.468 54.481 89.739 53.326 90.708 C 53.173 90.829 53.084 90.951 52.99 91.071 C 49.803 93.797 44.792 97.491 41.662 97.522 C 39.446 97.583 38.504 95.918 38.899 93.768 C 39.506 90.405 42.999 86.437 45.975 85.075 C 49.834 83.318 52.111 86.74 47.039 89.466 C 45.094 90.467 42.787 91.011 41.844 91.011 C 40.751 91.011 40.843 91.466 41.785 91.494 C 43.333 91.556 45.823 90.89 47.463 90.133 C 52.659 87.65 52.99 83.016 47.343 82.863 C 41.206 82.653 33.859 87.861 33.918 94.436 C 33.979 97.404 36.348 99.007 39.599 99.007 C 45.034 98.946 49.863 94.826 53.842 91.193 C 54.419 90.708 54.966 90.195 55.512 89.649 C 54.114 93.163 53.418 96.434 53.751 98.855 C 53.964 100.612 54.966 101.43 55.755 102.097 C 55.907 102.217 56.242 102.097 56.028 101.762 C 54.875 100.399 55.208 96.31 56.787 92.345 C 58.155 95.01 63.348 98.371 68.756 97.158 Z M 62.225 85.651 C 68.572 79.987 71.064 85.044 67.023 88.134 C 64.928 89.739 60.766 90.951 59.461 90.164 L 59.188 90.011 C 59.035 89.739 58.853 89.467 58.731 89.195 C 59.796 87.922 61.011 86.74 62.225 85.651 Z M 97.516 79.23 C 100.068 79.503 99.005 76.415 96.422 77.201 C 95.268 77.534 94.144 79.746 93.324 81.653 C 90.774 85.439 86.521 90.618 83.545 93.343 C 80.902 95.616 78.475 96.221 81.451 91.981 C 82.666 90.285 84.215 88.468 85.094 86.652 C 87.192 82.076 82.725 80.049 79.11 82.804 C 77.017 84.409 74.19 87.709 71.973 89.528 C 71.367 90.012 71.518 90.739 72.125 90.254 C 73.887 88.831 76.986 85.558 79.658 83.652 C 81.875 81.955 82.757 83.046 81.481 84.469 C 79.72 86.499 76.621 90.043 75.831 92.284 C 74.738 95.645 76.044 97.129 78.26 97.129 C 81.299 97.129 85.824 92.405 88.86 88.648 C 89.861 87.377 90.955 85.894 91.897 84.469 C 89.256 89.589 86.492 94.766 83.062 99.461 C 78.201 106.063 72.125 111.032 66.356 111.032 C 62.195 111.032 58.612 108.214 57.852 104.094 C 57.79 103.642 57.244 103.55 57.304 104.156 C 58.246 109.819 62.619 112.03 67.905 112.03 C 73.707 112.03 79.294 108.669 83.212 104.549 C 91.108 96.221 92.05 86.863 94.479 81.622 C 95.633 79.23 96.697 79.108 97.516 79.23 Z M 129.651 71.204 C 130.803 69.235 130.744 67.69 128.041 67.69 C 126.006 67.751 122.3 69.174 120.569 70.507 C 120.176 70.902 120.355 71.112 120.843 70.902 C 121.176 70.779 121.572 70.568 121.936 70.415 C 123.88 69.357 123.09 71.566 122.666 72.386 C 120.355 76.415 116.256 82.076 114.1 84.893 C 113.076 86.271 111.971 87.585 110.789 88.83 C 108.724 90.8 104.624 94.284 101.496 95.434 C 91.442 99.188 104.259 82.107 105.322 80.715 C 107.69 77.747 113.007 72.567 114.615 69.963 C 115.77 67.992 115.707 66.448 113.007 66.448 C 110.971 66.509 107.266 67.934 105.534 69.265 C 105.14 69.659 105.322 69.87 105.807 69.659 C 106.142 69.538 106.537 69.326 106.901 69.174 C 108.845 68.115 108.056 70.326 107.631 71.143 C 105.322 75.171 101.221 80.835 99.064 83.652 C 97.303 86.013 95.148 88.376 93.477 89.707 C 92.809 90.254 93.204 90.77 93.872 90.313 C 94.479 89.921 95.36 89.043 96.362 88.012 C 94.539 91.647 93.052 96.765 97.85 97.372 C 101.949 97.916 106.811 93.768 109.97 90.677 L 111.093 89.556 L 111.366 89.284 C 109.545 92.92 108.056 98.037 112.855 98.643 C 118.109 99.371 124.64 92.315 127.16 89.707 C 127.644 89.226 127.493 88.376 126.672 89.226 C 125.186 90.77 120.144 95.341 116.498 96.706 C 106.447 100.459 119.262 83.38 120.325 81.986 C 122.756 78.957 128.041 73.778 129.65 71.204 Z" fill="url(#c)" style="" transform="matrix(0.846084, -0.533049, 0.533049, 0.846084, -36.584512, 47.566798)"/>
  </g>
</svg>