<?xml version="1.0" encoding="utf-8"?>
<svg height="100%" style="fill-rule:evenodd;clip-rule:evenodd;stroke-linecap:round;stroke-linejoin:round;" width="100%" version="1.1" viewBox="0 0 150 150" xmlns="http://www.w3.org/2000/svg" xmlns:bx="https://boxy-svg.com">
  <defs>
    <bx:grid x="0" y="0" width="15" height="15"/>
  </defs>
  <rect width="120" height="120" style="fill: none; stroke-width: 0.2px; stroke: rgb(84, 84, 84); pointer-events: none; visibility: hidden;" x="15" y="15" bx:origin="0.5 0.5"/>
  <g style="" transform="matrix(1.077868, 0, 0, 1.077868, -5.839692, -1.168604)">
    <path d="M 87.588 57.11 L 76.701 67.997 C 75.68 69.018 74.319 69.018 73.639 67.997 L 62.751 57.11 C 61.73 56.089 61.73 54.728 62.751 54.048 L 73.639 43.16 C 74.66 42.139 76.021 42.139 76.701 43.16 L 87.588 54.048 C 88.609 54.728 88.609 56.089 87.588 57.11 Z" fill="#fa7e00" style=""/>
    <path d="M 41.317 46.564 L 38.255 49.625 L 37.576 50.306 L 35.875 52.006 C 34.173 53.708 34.173 56.43 35.875 58.131 L 37.576 59.831 L 38.255 60.511 L 56.968 79.224 L 57.989 79.224 L 57.989 63.574 L 50.843 56.43 C 49.822 55.409 49.822 54.048 50.843 53.367 L 57.989 46.564 Z M 66.155 89.09 L 69.216 92.152 L 69.897 92.833 L 71.597 94.534 C 73.299 96.235 76.021 96.235 77.722 94.534 L 79.422 92.833 L 80.102 92.152 L 98.815 73.44 L 98.815 72.419 L 83.165 72.419 L 76.021 79.564 C 75 80.585 73.639 80.585 72.958 79.564 L 66.155 72.419 Z M 108.681 64.254 L 111.743 61.193 L 112.424 60.511 L 114.125 58.81 C 115.826 57.11 115.826 54.388 114.125 52.687 L 112.424 50.986 L 111.743 50.306 L 93.031 31.594 L 92.01 31.594 L 92.01 47.243 L 99.155 54.388 C 100.176 55.409 100.176 56.77 99.155 57.45 L 92.01 64.254 L 92.01 64.594 L 108.681 64.594 Z M 83.845 21.726 L 80.784 18.664 L 80.102 17.985 L 78.401 16.284 C 76.701 14.582 73.979 14.582 72.278 16.284 L 70.577 17.985 L 69.897 18.664 L 50.504 37.377 L 50.504 38.398 L 66.155 38.398 L 73.299 31.252 C 74.319 30.231 75.68 30.231 76.361 31.252 L 83.845 38.398 L 84.185 38.398 L 84.185 21.726 Z" fill="#00bcfb" style=""/>
    <path d="M 56.627 126.185 L 41.707 126.185 L 41.707 124.045 L 49.257 115.665 C 50.157 114.665 50.857 113.808 51.357 113.095 C 51.864 112.382 52.217 111.735 52.417 111.155 C 52.624 110.575 52.727 109.975 52.727 109.355 C 52.727 108.202 52.377 107.232 51.677 106.445 C 50.984 105.665 49.987 105.275 48.687 105.275 C 47.34 105.275 46.29 105.678 45.537 106.485 C 44.777 107.298 44.397 108.448 44.397 109.935 L 41.407 109.935 L 41.377 109.845 C 41.344 108.512 41.624 107.315 42.217 106.255 C 42.81 105.195 43.667 104.358 44.787 103.745 C 45.914 103.125 47.25 102.815 48.797 102.815 C 50.257 102.815 51.51 103.092 52.557 103.645 C 53.604 104.198 54.414 104.955 54.987 105.915 C 55.554 106.875 55.837 107.978 55.837 109.225 C 55.837 110.072 55.67 110.912 55.337 111.745 C 55.01 112.578 54.527 113.432 53.887 114.305 C 53.247 115.178 52.48 116.102 51.587 117.075 L 45.527 123.665 L 45.557 123.745 L 53.737 123.745 L 53.987 121.105 L 56.627 121.105 L 56.627 126.185 ZM 67.319 126.515 C 65.066 126.515 63.279 125.732 61.959 124.165 C 60.639 122.592 59.979 120.338 59.979 117.405 L 59.979 111.945 C 59.979 109.012 60.636 106.758 61.949 105.185 C 63.256 103.605 65.036 102.815 67.289 102.815 C 69.556 102.815 71.349 103.605 72.669 105.185 C 73.989 106.758 74.649 109.012 74.649 111.945 L 74.649 117.405 C 74.649 120.345 73.996 122.598 72.689 124.165 C 71.383 125.732 69.593 126.515 67.319 126.515 Z M 67.319 124.085 C 68.706 124.085 69.756 123.578 70.469 122.565 C 71.176 121.552 71.529 120.042 71.529 118.035 L 71.529 111.285 C 71.529 109.292 71.169 107.792 70.449 106.785 C 69.729 105.778 68.676 105.275 67.289 105.275 C 65.929 105.275 64.893 105.778 64.179 106.785 C 63.459 107.792 63.099 109.292 63.099 111.285 L 63.099 118.035 C 63.099 120.028 63.463 121.535 64.189 122.555 C 64.916 123.575 65.959 124.085 67.319 124.085 ZM 88.677 126.185 L 78.457 126.185 L 78.457 124.195 L 82.017 123.745 L 82.017 106.485 L 78.397 106.555 L 78.397 104.605 L 85.137 103.155 L 85.137 123.745 L 88.677 124.195 L 88.677 126.185 ZM 98.159 126.515 C 96.859 126.515 95.696 126.278 94.669 125.805 C 93.643 125.332 92.839 124.628 92.259 123.695 C 91.679 122.762 91.403 121.605 91.429 120.225 L 91.469 120.125 L 94.279 120.125 C 94.279 121.372 94.643 122.342 95.369 123.035 C 96.089 123.735 97.019 124.085 98.159 124.085 C 99.479 124.085 100.503 123.618 101.229 122.685 C 101.956 121.758 102.319 120.488 102.319 118.875 C 102.319 117.388 101.953 116.172 101.219 115.225 C 100.486 114.285 99.469 113.815 98.169 113.815 C 96.949 113.815 96.063 113.998 95.509 114.365 C 94.956 114.738 94.553 115.302 94.299 116.055 L 91.699 115.795 L 93.029 103.155 L 105.199 103.155 L 105.199 107.705 L 102.859 107.705 L 102.559 105.915 L 95.669 105.915 L 94.929 112.385 C 95.249 112.145 95.593 111.932 95.959 111.745 C 96.326 111.565 96.729 111.415 97.169 111.295 C 97.609 111.182 98.086 111.118 98.599 111.105 C 100.013 111.098 101.233 111.408 102.259 112.035 C 103.279 112.662 104.063 113.558 104.609 114.725 C 105.163 115.892 105.439 117.265 105.439 118.845 C 105.439 120.385 105.159 121.728 104.599 122.875 C 104.046 124.028 103.229 124.925 102.149 125.565 C 101.069 126.198 99.739 126.515 98.159 126.515 Z" transform="matrix(1, 0, 0, 1, 0, 0)" style="fill: rgb(51, 51, 51); white-space: pre;"/>
  </g>
</svg>