<?xml version="1.0" encoding="utf-8"?>
<svg height="100%" style="fill-rule:evenodd;clip-rule:evenodd;stroke-linecap:round;stroke-linejoin:round;" width="100%" version="1.1" viewBox="0 0 150 150" xmlns="http://www.w3.org/2000/svg" xmlns:bx="https://boxy-svg.com">
  <defs>
    <bx:grid x="0" y="0" width="15" height="15"/>
  </defs>
  <rect width="120" height="120" style="fill: none; stroke-width: 0.2px; stroke: rgb(84, 84, 84); pointer-events: none; visibility: hidden;" x="15" y="15" bx:origin="0.5 0.5"/>
  <g style="" transform="matrix(0.949779, 0, 0, 0.949779, -5.819901, 4.298925)">
    <g style="" transform="matrix(1.357511, 0, 0, 1.357511, -30.42182, -1.887915)">
      <path class="st0" d="M 131.629 57.005 C 131.325 57.968 130.666 58.678 129.957 59.387 C 125.244 64.1 120.531 68.813 115.818 73.526 C 114.145 75.249 112.321 75.199 110.598 73.526 C 105.733 68.661 100.867 63.796 96.002 58.931 C 94.33 57.259 94.33 55.485 96.002 53.812 C 100.867 48.897 105.783 44.031 110.648 39.116 C 112.219 37.545 114.095 37.545 115.716 39.116 C 120.48 43.879 125.193 48.592 129.957 53.356 C 130.666 54.066 131.325 54.775 131.629 55.738 C 131.629 56.144 131.629 56.549 131.629 57.005 Z" style="fill: rgb(23, 178, 231);"/>
      <path class="st0" d="M 84.752 102.565 C 83.789 102.261 83.079 101.602 82.37 100.893 C 77.657 96.18 72.943 91.467 68.23 86.754 C 66.558 85.081 66.558 83.257 68.23 81.584 C 73.096 76.719 77.961 71.803 82.877 66.938 C 84.498 65.316 86.373 65.316 87.944 66.938 C 92.81 71.803 97.675 76.719 102.591 81.584 C 104.263 83.257 104.263 85.081 102.591 86.754 C 97.827 91.517 93.063 96.281 88.35 101.045 C 87.691 101.704 86.981 102.363 86.019 102.616 C 85.613 102.565 85.208 102.565 84.752 102.565 Z" style="fill: rgb(23, 178, 231);"/>
      <path class="st0" d="M 67.673 44.64 C 67.673 39.217 67.724 33.794 67.622 28.372 C 67.622 26.801 67.977 25.584 69.193 24.52 C 70.156 23.709 71.018 22.746 71.93 21.834 C 75.528 18.236 79.076 14.688 82.674 11.09 C 84.346 9.418 86.171 9.418 87.843 11.09 C 92.708 15.955 97.573 20.821 102.438 25.686 C 104.111 27.358 104.111 29.183 102.438 30.855 C 96.712 36.632 90.934 42.359 85.208 48.136 C 80.14 53.204 75.072 58.323 69.953 63.391 C 68.991 64.354 68.18 64.1 67.825 62.833 C 67.724 62.428 67.724 61.972 67.724 61.566 C 67.622 55.941 67.673 50.316 67.673 44.64 Z" style="fill: rgb(23, 178, 231);"/>
      <path class="st0" d="M 56.017 56.397 C 56.017 61.364 56.017 66.381 56.017 71.347 C 56.017 71.803 55.915 72.31 55.763 72.766 C 55.409 73.628 54.801 73.729 54.142 73.07 C 51.861 70.79 49.581 68.509 47.3 66.178 C 44.665 63.543 42.029 60.907 39.394 58.221 C 38.279 57.107 38.279 55.586 39.394 54.522 C 44.259 49.606 49.125 44.69 53.99 39.774 C 54.294 39.47 54.598 39.014 55.155 39.217 C 55.662 39.42 55.865 39.876 55.966 40.433 C 56.017 40.737 56.067 41.092 56.067 41.396 C 56.017 46.413 56.017 51.43 56.017 56.397 C 56.017 56.397 56.017 56.397 56.017 56.397 Z" style="fill: rgb(23, 178, 231);"/>
    </g>
  </g>
</svg>