<?xml version="1.0" encoding="utf-8"?>
<svg width="150px" height="152px" viewBox="0 0 150 152" version="1.1" xmlns="http://www.w3.org/2000/svg">
  <title>logo-python</title>
  <desc>Created with Sketch.</desc>
  <defs>
    <linearGradient x1="1.06341021e-07%" y1="9.14856165e-08%" x2="74.5209927%" y2="64.1103734%" id="linearGradient-1">
      <stop stop-color="#5A9FD4" offset="0"/>
      <stop stop-color="#306998" offset="1"/>
    </linearGradient>
    <linearGradient x1="49.9999998%" y1="82.2756107%" x2="23.4426562%" y2="44.914431%" id="linearGradient-2">
      <stop stop-color="#FFD43B" offset="0"/>
      <stop stop-color="#FFE873" offset="1"/>
    </linearGradient>
  </defs>
  <g id="Page-1" stroke="none" stroke-width="1" fill="none" fill-rule="evenodd" transform="matrix(1.006667, 0, 0, 0.99567, -0.002588, 0.003321)">
    <g id="logo-python" fill-rule="nonzero">
      <path d="M74.0042808,0.768357183 C67.8601066,0.796906164 61.9925579,1.32091589 56.829719,2.23447832 C41.6206429,4.92142267 38.8592641,10.5454276 38.8592628,20.9170507 L38.8592628,34.614811 L74.8001753,34.614811 L74.8001753,39.180731 L38.8592628,39.180731 L25.3709484,39.180731 C14.9255185,39.180731 5.77920121,45.4590364 2.91835015,57.4025223 C-0.381605354,71.0925294 -0.527976319,79.6353167 2.91835015,93.9298831 C5.47315862,104.570205 11.5743872,112.151672 22.0198143,112.151674 L34.3771211,112.151674 L34.3771211,95.7311178 C34.3771211,83.8682346 44.6411674,73.40419 56.829719,73.4041873 L92.7287422,73.4041873 C102.721758,73.4041873 110.699202,65.1762632 110.699198,55.1405068 L110.699198,20.9170507 C110.699198,11.1768603 102.482245,3.8600767 92.7287422,2.23447832 C86.5546303,1.20671862 80.1484551,0.7398078 74.0042808,0.768357183 Z M54.5677035,11.7852104 C58.2801528,11.7852104 61.3118607,14.8664387 61.3118607,18.6550352 C61.3118582,22.4302029 58.2801528,25.4829707 54.5677035,25.4829707 C50.8419449,25.4829694 47.8235463,22.4302016 47.8235463,18.6550352 C47.823545,14.8664401 50.8419449,11.7852104 54.5677035,11.7852104 Z" id="path1948" fill="url(#linearGradient-1)"/>
      <path d="M115.18134,39.180731 L115.18134,55.1405068 C115.18134,67.5139057 104.691091,77.9282168 92.7287422,77.9282183 L56.829719,77.9282183 C46.9963752,77.9282183 38.8592641,86.3442334 38.8592628,96.1918986 L38.8592628,130.415351 C38.8592628,140.155543 47.3290368,145.884615 56.829719,148.679031 C68.2065925,152.024281 79.1164184,152.628853 92.7287422,148.679031 C101.777012,146.059262 110.699202,140.786963 110.699198,130.415351 L110.699198,116.717594 L74.8001753,116.717594 L74.8001753,112.151674 L110.699198,112.151674 L128.66966,112.151674 C139.115091,112.151674 143.007487,104.865762 146.640102,93.9298831 C150.392475,82.6715661 150.232813,71.8448697 146.640102,57.4025223 C144.058684,47.0040325 139.128375,39.180731 128.66966,39.180731 L115.18134,39.180731 Z M94.9907577,125.849435 C98.7165191,125.849439 101.734915,128.902207 101.734915,132.677366 C101.734912,136.465957 98.716515,139.547191 94.9907577,139.547191 C91.2783044,139.547191 88.2466005,136.465957 88.2466005,132.677366 C88.2466032,128.902207 91.2783004,125.849435 94.9907577,125.849435 Z" id="path1950" fill="url(#linearGradient-2)"/>
    </g>
  </g>
</svg>