<?xml version="1.0" encoding="utf-8"?>
<svg height="100%" style="fill-rule:evenodd;clip-rule:evenodd;stroke-linecap:round;stroke-linejoin:round;" width="100%" version="1.1" viewBox="0 0 150 150" xmlns="http://www.w3.org/2000/svg" xmlns:bx="https://boxy-svg.com">
  <defs>
    <bx:grid x="0" y="0" width="15" height="15"/>
    <radialGradient gradientUnits="userSpaceOnUse" cx="75" cy="75" r="75" id="gradient-0" gradientTransform="matrix(0.8796, 0.007533, -0.008563, 0.999963, 9.672265, -0.562199)">
      <stop offset="0" style="stop-color: rgb(245, 245, 245);"/>
      <stop offset="1" style="stop-color: rgba(91, 91, 91, 1)"/>
    </radialGradient>
  </defs>
  <rect width="120" height="120" style="fill: none; stroke-width: 0.2px; stroke: rgb(84, 84, 84); pointer-events: none; visibility: hidden;" x="15" y="15" bx:origin="0.5 0.5"/>
  <rect width="150" height="150" style="fill: url(#gradient-0); stroke: rgb(255, 255, 255);"/>
  <g style="" transform="matrix(0.949896, 0, 0, 0.975673, 0.000005, 0.364911)">
    <g>
      <rect style="fill-opacity: 1; fill-rule: evenodd; stroke-width: 4.99999; stroke-linecap: round; stroke-linejoin: round; stop-color: rgb(0, 0, 0);" id="rect7555" width="15.467" height="7.405" x="16.845" y="15"/>
      <rect style="fill-rule: evenodd; stroke-width: 4.99999; stroke-linecap: round; stroke-linejoin: round; stop-color: rgb(0, 0, 0); paint-order: fill;" id="rect7637" width="15.467" height="7.405" x="33.69" y="15"/>
      <rect style="fill-opacity: 1; fill-rule: evenodd; stroke-width: 4.99999; stroke-linecap: round; stroke-linejoin: round; stop-color: rgb(0, 0, 0);" id="rect7639" width="15.467" height="7.405" x="50.535" y="15"/>
      <rect style="fill-opacity: 1; fill-rule: evenodd; stroke-width: 4.99999; stroke-linecap: round; stroke-linejoin: round; stop-color: rgb(0, 0, 0);" id="rect7641" width="15.467" height="7.405" x="67.38" y="15"/>
      <rect style="fill-opacity: 1; fill-rule: evenodd; stroke-width: 4.99999; stroke-linecap: round; stroke-linejoin: round; stop-color: rgb(0, 0, 0);" id="rect7643" width="15.467" height="7.405" x="84.225" y="15"/>
      <rect style="fill-opacity: 1; fill-rule: evenodd; stroke-width: 4.99999; stroke-linecap: round; stroke-linejoin: round; stop-color: rgb(0, 0, 0);" id="rect7645" width="15.467" height="7.405" x="101.07" y="15"/>
      <rect style="fill-opacity: 1; fill-rule: evenodd; stroke-width: 4.99999; stroke-linecap: round; stroke-linejoin: round; stop-color: rgb(0, 0, 0);" id="rect7647" width="15.467" height="7.405" x="117.915" y="15"/>
      <rect style="fill-opacity: 1; fill-rule: evenodd; stroke-width: 4.99999; stroke-linecap: round; stroke-linejoin: round; stop-color: rgb(0, 0, 0);" id="rect7649" width="15.467" height="7.405" x="134.76" y="15"/>
      <rect style="fill-opacity: 1; fill-rule: evenodd; stroke-width: 4.99999; stroke-linecap: round; stroke-linejoin: round; stop-color: rgb(0, 0, 0);" id="rect7651" width="15.467" height="7.405" y="15"/>
    </g>
    <g transform="matrix(1, 0, 0, 1, 7.685062, 9)" bx:origin="0.5 0.502622">
      <rect style="fill-opacity: 1; fill-rule: evenodd; stroke-width: 4.99999; stroke-linecap: round; stroke-linejoin: round; stop-color: rgb(0, 0, 0);" id="rect-1" width="15.467" height="7.405" x="16.845" y="15"/>
      <rect style="fill-rule: evenodd; stroke-width: 4.99999; stroke-linecap: round; stroke-linejoin: round; stop-color: rgb(0, 0, 0); paint-order: fill;" id="rect-2" width="15.467" height="7.405" x="33.69" y="15"/>
      <rect style="fill-opacity: 1; fill-rule: evenodd; stroke-width: 4.99999; stroke-linecap: round; stroke-linejoin: round; stop-color: rgb(0, 0, 0);" id="rect-3" width="15.467" height="7.405" x="50.535" y="15"/>
      <rect style="fill-opacity: 1; fill-rule: evenodd; stroke-width: 4.99999; stroke-linecap: round; stroke-linejoin: round; stop-color: rgb(0, 0, 0);" id="rect-4" width="15.467" height="7.405" x="67.38" y="15"/>
      <rect style="fill-opacity: 1; fill-rule: evenodd; stroke-width: 4.99999; stroke-linecap: round; stroke-linejoin: round; stop-color: rgb(0, 0, 0);" id="rect-5" width="15.467" height="7.405" x="84.225" y="15"/>
      <rect style="fill-opacity: 1; fill-rule: evenodd; stroke-width: 4.99999; stroke-linecap: round; stroke-linejoin: round; stop-color: rgb(0, 0, 0);" id="rect-6" width="15.467" height="7.405" x="101.07" y="15"/>
      <rect style="fill-opacity: 1; fill-rule: evenodd; stroke-width: 4.99999; stroke-linecap: round; stroke-linejoin: round; stop-color: rgb(0, 0, 0);" id="rect-7" width="15.467" height="7.405" x="117.915" y="15"/>
      <rect style="fill-opacity: 1; fill-rule: evenodd; stroke-width: 4.99999; stroke-linecap: round; stroke-linejoin: round; stop-color: rgb(0, 0, 0);" id="rect-8" width="15.467" height="7.405" x="134.76" y="15"/>
      <rect style="fill-opacity: 1; fill-rule: evenodd; stroke-width: 4.99999; stroke-linecap: round; stroke-linejoin: round; stop-color: rgb(0, 0, 0);" id="rect-9" width="15.467" height="7.405" y="15"/>
    </g>
    <g transform="matrix(1, 0, 0, 1, -0.000005, 17.748461)">
      <rect style="fill-opacity: 1; fill-rule: evenodd; stroke-width: 4.99999; stroke-linecap: round; stroke-linejoin: round; stop-color: rgb(0, 0, 0);" id="rect-10" width="15.467" height="7.405" x="16.845" y="15"/>
      <rect style="fill-rule: evenodd; stroke-width: 4.99999; stroke-linecap: round; stroke-linejoin: round; stop-color: rgb(0, 0, 0); paint-order: fill;" id="rect-11" width="15.467" height="7.405" x="33.69" y="15"/>
      <rect style="fill-opacity: 1; fill-rule: evenodd; stroke-width: 4.99999; stroke-linecap: round; stroke-linejoin: round; stop-color: rgb(0, 0, 0);" id="rect-12" width="15.467" height="7.405" x="50.535" y="15"/>
      <rect style="fill-opacity: 1; fill-rule: evenodd; stroke-width: 4.99999; stroke-linecap: round; stroke-linejoin: round; stop-color: rgb(0, 0, 0);" id="rect-13" width="15.467" height="7.405" x="67.38" y="15"/>
      <rect style="fill-opacity: 1; fill-rule: evenodd; stroke-width: 4.99999; stroke-linecap: round; stroke-linejoin: round; stop-color: rgb(0, 0, 0);" id="rect-14" width="15.467" height="7.405" x="84.225" y="15"/>
      <rect style="fill-opacity: 1; fill-rule: evenodd; stroke-width: 4.99999; stroke-linecap: round; stroke-linejoin: round; stop-color: rgb(0, 0, 0);" id="rect-15" width="15.467" height="7.405" x="101.07" y="15"/>
      <rect style="fill-opacity: 1; fill-rule: evenodd; stroke-width: 4.99999; stroke-linecap: round; stroke-linejoin: round; stop-color: rgb(0, 0, 0);" id="rect-16" width="15.467" height="7.405" x="117.915" y="15"/>
      <rect style="fill-opacity: 1; fill-rule: evenodd; stroke-width: 4.99999; stroke-linecap: round; stroke-linejoin: round; stop-color: rgb(0, 0, 0);" id="rect-17" width="15.467" height="7.405" x="134.76" y="15"/>
      <rect style="fill-opacity: 1; fill-rule: evenodd; stroke-width: 4.99999; stroke-linecap: round; stroke-linejoin: round; stop-color: rgb(0, 0, 0);" id="rect-18" width="15.467" height="7.405" y="15"/>
    </g>
    <g transform="matrix(1, 0, 0, 1, 7.685061, 26.748461)" bx:origin="0.5 0.502622">
      <rect style="fill-opacity: 1; fill-rule: evenodd; stroke-width: 4.99999; stroke-linecap: round; stroke-linejoin: round; stop-color: rgb(0, 0, 0);" id="rect-19" width="15.467" height="7.405" x="16.845" y="15"/>
      <rect style="fill-rule: evenodd; stroke-width: 4.99999; stroke-linecap: round; stroke-linejoin: round; stop-color: rgb(0, 0, 0); paint-order: fill;" id="rect-20" width="15.467" height="7.405" x="33.69" y="15"/>
      <rect style="fill-opacity: 1; fill-rule: evenodd; stroke-width: 4.99999; stroke-linecap: round; stroke-linejoin: round; stop-color: rgb(0, 0, 0);" id="rect-21" width="15.467" height="7.405" x="50.535" y="15"/>
      <rect style="fill-opacity: 1; fill-rule: evenodd; stroke-width: 4.99999; stroke-linecap: round; stroke-linejoin: round; stop-color: rgb(0, 0, 0);" id="rect-22" width="15.467" height="7.405" x="67.38" y="15"/>
      <rect style="fill-opacity: 1; fill-rule: evenodd; stroke-width: 4.99999; stroke-linecap: round; stroke-linejoin: round; stop-color: rgb(0, 0, 0);" id="rect-23" width="15.467" height="7.405" x="84.225" y="15"/>
      <rect style="fill-opacity: 1; fill-rule: evenodd; stroke-width: 4.99999; stroke-linecap: round; stroke-linejoin: round; stop-color: rgb(0, 0, 0);" id="rect-24" width="15.467" height="7.405" x="101.07" y="15"/>
      <rect style="fill-opacity: 1; fill-rule: evenodd; stroke-width: 4.99999; stroke-linecap: round; stroke-linejoin: round; stop-color: rgb(0, 0, 0);" id="rect-25" width="15.467" height="7.405" x="117.915" y="15"/>
      <rect style="fill-opacity: 1; fill-rule: evenodd; stroke-width: 4.99999; stroke-linecap: round; stroke-linejoin: round; stop-color: rgb(0, 0, 0);" id="rect-26" width="15.467" height="7.405" x="134.76" y="15"/>
      <rect style="fill-opacity: 1; fill-rule: evenodd; stroke-width: 4.99999; stroke-linecap: round; stroke-linejoin: round; stop-color: rgb(0, 0, 0);" id="rect-27" width="15.467" height="7.405" y="15"/>
    </g>
    <g transform="matrix(1, 0, 0, 1, 0.000002, 35.387081)">
      <rect style="fill-opacity: 1; fill-rule: evenodd; stroke-width: 4.99999; stroke-linecap: round; stroke-linejoin: round; stop-color: rgb(0, 0, 0);" id="rect-28" width="15.467" height="7.405" x="16.845" y="15"/>
      <rect style="fill-rule: evenodd; stroke-width: 4.99999; stroke-linecap: round; stroke-linejoin: round; stop-color: rgb(0, 0, 0); paint-order: fill;" id="rect-29" width="15.467" height="7.405" x="33.69" y="15"/>
      <rect style="fill-opacity: 1; fill-rule: evenodd; stroke-width: 4.99999; stroke-linecap: round; stroke-linejoin: round; stop-color: rgb(0, 0, 0);" id="rect-30" width="15.467" height="7.405" x="50.535" y="15"/>
      <rect style="fill-opacity: 1; fill-rule: evenodd; stroke-width: 4.99999; stroke-linecap: round; stroke-linejoin: round; stop-color: rgb(0, 0, 0);" id="rect-31" width="15.467" height="7.405" x="67.38" y="15"/>
      <rect style="fill-opacity: 1; fill-rule: evenodd; stroke-width: 4.99999; stroke-linecap: round; stroke-linejoin: round; stop-color: rgb(0, 0, 0);" id="rect-32" width="15.467" height="7.405" x="84.225" y="15"/>
      <rect style="fill-opacity: 1; fill-rule: evenodd; stroke-width: 4.99999; stroke-linecap: round; stroke-linejoin: round; stop-color: rgb(0, 0, 0);" id="rect-33" width="15.467" height="7.405" x="101.07" y="15"/>
      <rect style="fill-opacity: 1; fill-rule: evenodd; stroke-width: 4.99999; stroke-linecap: round; stroke-linejoin: round; stop-color: rgb(0, 0, 0);" id="rect-34" width="15.467" height="7.405" x="117.915" y="15"/>
      <rect style="fill-opacity: 1; fill-rule: evenodd; stroke-width: 4.99999; stroke-linecap: round; stroke-linejoin: round; stop-color: rgb(0, 0, 0);" id="rect-35" width="15.467" height="7.405" x="134.76" y="15"/>
      <rect style="fill-opacity: 1; fill-rule: evenodd; stroke-width: 4.99999; stroke-linecap: round; stroke-linejoin: round; stop-color: rgb(0, 0, 0);" id="rect-36" width="15.467" height="7.405" y="15"/>
    </g>
    <g transform="matrix(1, 0, 0, 1, 7.685061, 44.387081)" bx:origin="0.5 0.502622">
      <rect style="fill-opacity: 1; fill-rule: evenodd; stroke-width: 4.99999; stroke-linecap: round; stroke-linejoin: round; stop-color: rgb(0, 0, 0);" id="rect-37" width="15.467" height="7.405" x="16.845" y="15"/>
      <rect style="fill-rule: evenodd; stroke-width: 4.99999; stroke-linecap: round; stroke-linejoin: round; stop-color: rgb(0, 0, 0); paint-order: fill;" id="rect-38" width="15.467" height="7.405" x="33.69" y="15"/>
      <rect style="fill-opacity: 1; fill-rule: evenodd; stroke-width: 4.99999; stroke-linecap: round; stroke-linejoin: round; stop-color: rgb(0, 0, 0);" id="rect-39" width="15.467" height="7.405" x="50.535" y="15"/>
      <rect style="fill-opacity: 1; fill-rule: evenodd; stroke-width: 4.99999; stroke-linecap: round; stroke-linejoin: round; stop-color: rgb(0, 0, 0);" id="rect-40" width="15.467" height="7.405" x="67.38" y="15"/>
      <rect style="fill-opacity: 1; fill-rule: evenodd; stroke-width: 4.99999; stroke-linecap: round; stroke-linejoin: round; stop-color: rgb(0, 0, 0);" id="rect-41" width="15.467" height="7.405" x="84.225" y="15"/>
      <rect style="fill-opacity: 1; fill-rule: evenodd; stroke-width: 4.99999; stroke-linecap: round; stroke-linejoin: round; stop-color: rgb(0, 0, 0);" id="rect-42" width="15.467" height="7.405" x="101.07" y="15"/>
      <rect style="fill-opacity: 1; fill-rule: evenodd; stroke-width: 4.99999; stroke-linecap: round; stroke-linejoin: round; stop-color: rgb(0, 0, 0);" id="rect-43" width="15.467" height="7.405" x="117.915" y="15"/>
      <rect style="fill-opacity: 1; fill-rule: evenodd; stroke-width: 4.99999; stroke-linecap: round; stroke-linejoin: round; stop-color: rgb(0, 0, 0);" id="rect-44" width="15.467" height="7.405" x="134.76" y="15"/>
      <rect style="fill-opacity: 1; fill-rule: evenodd; stroke-width: 4.99999; stroke-linecap: round; stroke-linejoin: round; stop-color: rgb(0, 0, 0);" id="rect-45" width="15.467" height="7.405" y="15"/>
    </g>
    <g transform="matrix(1, 0, 0, 1, -0.000005, 53.13554)">
      <rect style="fill-opacity: 1; fill-rule: evenodd; stroke-width: 4.99999; stroke-linecap: round; stroke-linejoin: round; stop-color: rgb(0, 0, 0);" id="rect-46" width="15.467" height="7.405" x="16.845" y="15"/>
      <rect style="fill-rule: evenodd; stroke-width: 4.99999; stroke-linecap: round; stroke-linejoin: round; stop-color: rgb(0, 0, 0); paint-order: fill;" id="rect-47" width="15.467" height="7.405" x="33.69" y="15"/>
      <rect style="fill-opacity: 1; fill-rule: evenodd; stroke-width: 4.99999; stroke-linecap: round; stroke-linejoin: round; stop-color: rgb(0, 0, 0);" id="rect-48" width="15.467" height="7.405" x="50.535" y="15"/>
      <rect style="fill-opacity: 1; fill-rule: evenodd; stroke-width: 4.99999; stroke-linecap: round; stroke-linejoin: round; stop-color: rgb(0, 0, 0);" id="rect-49" width="15.467" height="7.405" x="67.38" y="15"/>
      <rect style="fill-opacity: 1; fill-rule: evenodd; stroke-width: 4.99999; stroke-linecap: round; stroke-linejoin: round; stop-color: rgb(0, 0, 0);" id="rect-50" width="15.467" height="7.405" x="84.225" y="15"/>
      <rect style="fill-opacity: 1; fill-rule: evenodd; stroke-width: 4.99999; stroke-linecap: round; stroke-linejoin: round; stop-color: rgb(0, 0, 0);" id="rect-51" width="15.467" height="7.405" x="101.07" y="15"/>
      <rect style="fill-opacity: 1; fill-rule: evenodd; stroke-width: 4.99999; stroke-linecap: round; stroke-linejoin: round; stop-color: rgb(0, 0, 0);" id="rect-52" width="15.467" height="7.405" x="117.915" y="15"/>
      <rect style="fill-opacity: 1; fill-rule: evenodd; stroke-width: 4.99999; stroke-linecap: round; stroke-linejoin: round; stop-color: rgb(0, 0, 0);" id="rect-53" width="15.467" height="7.405" x="134.76" y="15"/>
      <rect style="fill-opacity: 1; fill-rule: evenodd; stroke-width: 4.99999; stroke-linecap: round; stroke-linejoin: round; stop-color: rgb(0, 0, 0);" id="rect-54" width="15.467" height="7.405" y="15"/>
    </g>
    <g transform="matrix(1, 0, 0, 1, 7.685061, 62.135544)" bx:origin="0.5 0.502622">
      <rect style="fill-opacity: 1; fill-rule: evenodd; stroke-width: 4.99999; stroke-linecap: round; stroke-linejoin: round; stop-color: rgb(0, 0, 0);" id="rect-55" width="15.467" height="7.405" x="16.845" y="15"/>
      <rect style="fill-rule: evenodd; stroke-width: 4.99999; stroke-linecap: round; stroke-linejoin: round; stop-color: rgb(0, 0, 0); paint-order: fill;" id="rect-56" width="15.467" height="7.405" x="33.69" y="15"/>
      <rect style="fill-opacity: 1; fill-rule: evenodd; stroke-width: 4.99999; stroke-linecap: round; stroke-linejoin: round; stop-color: rgb(0, 0, 0);" id="rect-57" width="15.467" height="7.405" x="50.535" y="15"/>
      <rect style="fill-opacity: 1; fill-rule: evenodd; stroke-width: 4.99999; stroke-linecap: round; stroke-linejoin: round; stop-color: rgb(0, 0, 0);" id="rect-58" width="15.467" height="7.405" x="67.38" y="15"/>
      <rect style="fill-opacity: 1; fill-rule: evenodd; stroke-width: 4.99999; stroke-linecap: round; stroke-linejoin: round; stop-color: rgb(0, 0, 0);" id="rect-59" width="15.467" height="7.405" x="84.225" y="15"/>
      <rect style="fill-opacity: 1; fill-rule: evenodd; stroke-width: 4.99999; stroke-linecap: round; stroke-linejoin: round; stop-color: rgb(0, 0, 0);" id="rect-60" width="15.467" height="7.405" x="101.07" y="15"/>
      <rect style="fill-opacity: 1; fill-rule: evenodd; stroke-width: 4.99999; stroke-linecap: round; stroke-linejoin: round; stop-color: rgb(0, 0, 0);" id="rect-61" width="15.467" height="7.405" x="117.915" y="15"/>
      <rect style="fill-opacity: 1; fill-rule: evenodd; stroke-width: 4.99999; stroke-linecap: round; stroke-linejoin: round; stop-color: rgb(0, 0, 0);" id="rect-62" width="15.467" height="7.405" x="134.76" y="15"/>
      <rect style="fill-opacity: 1; fill-rule: evenodd; stroke-width: 4.99999; stroke-linecap: round; stroke-linejoin: round; stop-color: rgb(0, 0, 0);" id="rect-63" width="15.467" height="7.405" y="15"/>
    </g>
    <g transform="matrix(1, 0, 0, 1, 0.00001, 71.199997)">
      <rect style="fill-opacity: 1; fill-rule: evenodd; stroke-width: 4.99999; stroke-linecap: round; stroke-linejoin: round; stop-color: rgb(0, 0, 0);" id="rect-64" width="15.467" height="7.405" x="16.845" y="15"/>
      <rect style="fill-rule: evenodd; stroke-width: 4.99999; stroke-linecap: round; stroke-linejoin: round; stop-color: rgb(0, 0, 0); paint-order: fill;" id="rect-65" width="15.467" height="7.405" x="33.69" y="15"/>
      <rect style="fill-opacity: 1; fill-rule: evenodd; stroke-width: 4.99999; stroke-linecap: round; stroke-linejoin: round; stop-color: rgb(0, 0, 0);" id="rect-66" width="15.467" height="7.405" x="50.535" y="15"/>
      <rect style="fill-opacity: 1; fill-rule: evenodd; stroke-width: 4.99999; stroke-linecap: round; stroke-linejoin: round; stop-color: rgb(0, 0, 0);" id="rect-67" width="15.467" height="7.405" x="67.38" y="15"/>
      <rect style="fill-opacity: 1; fill-rule: evenodd; stroke-width: 4.99999; stroke-linecap: round; stroke-linejoin: round; stop-color: rgb(0, 0, 0);" id="rect-68" width="15.467" height="7.405" x="84.225" y="15"/>
      <rect style="fill-opacity: 1; fill-rule: evenodd; stroke-width: 4.99999; stroke-linecap: round; stroke-linejoin: round; stop-color: rgb(0, 0, 0);" id="rect-69" width="15.467" height="7.405" x="101.07" y="15"/>
      <rect style="fill-opacity: 1; fill-rule: evenodd; stroke-width: 4.99999; stroke-linecap: round; stroke-linejoin: round; stop-color: rgb(0, 0, 0);" id="rect-70" width="15.467" height="7.405" x="117.915" y="15"/>
      <rect style="fill-opacity: 1; fill-rule: evenodd; stroke-width: 4.99999; stroke-linecap: round; stroke-linejoin: round; stop-color: rgb(0, 0, 0);" id="rect-71" width="15.467" height="7.405" x="134.76" y="15"/>
      <rect style="fill-opacity: 1; fill-rule: evenodd; stroke-width: 4.99999; stroke-linecap: round; stroke-linejoin: round; stop-color: rgb(0, 0, 0);" id="rect-72" width="15.467" height="7.405" y="15"/>
    </g>
    <g transform="matrix(1, 0, 0, 1, 7.685068, 80.200005)" bx:origin="0.5 0.502622">
      <rect style="fill-opacity: 1; fill-rule: evenodd; stroke-width: 4.99999; stroke-linecap: round; stroke-linejoin: round; stop-color: rgb(0, 0, 0);" id="rect-73" width="15.467" height="7.405" x="16.845" y="15"/>
      <rect style="fill-rule: evenodd; stroke-width: 4.99999; stroke-linecap: round; stroke-linejoin: round; stop-color: rgb(0, 0, 0); paint-order: fill;" id="rect-74" width="15.467" height="7.405" x="33.69" y="15"/>
      <rect style="fill-opacity: 1; fill-rule: evenodd; stroke-width: 4.99999; stroke-linecap: round; stroke-linejoin: round; stop-color: rgb(0, 0, 0);" id="rect-75" width="15.467" height="7.405" x="50.535" y="15"/>
      <rect style="fill-opacity: 1; fill-rule: evenodd; stroke-width: 4.99999; stroke-linecap: round; stroke-linejoin: round; stop-color: rgb(0, 0, 0);" id="rect-76" width="15.467" height="7.405" x="67.38" y="15"/>
      <rect style="fill-opacity: 1; fill-rule: evenodd; stroke-width: 4.99999; stroke-linecap: round; stroke-linejoin: round; stop-color: rgb(0, 0, 0);" id="rect-77" width="15.467" height="7.405" x="84.225" y="15"/>
      <rect style="fill-opacity: 1; fill-rule: evenodd; stroke-width: 4.99999; stroke-linecap: round; stroke-linejoin: round; stop-color: rgb(0, 0, 0);" id="rect-78" width="15.467" height="7.405" x="101.07" y="15"/>
      <rect style="fill-opacity: 1; fill-rule: evenodd; stroke-width: 4.99999; stroke-linecap: round; stroke-linejoin: round; stop-color: rgb(0, 0, 0);" id="rect-79" width="15.467" height="7.405" x="117.915" y="15"/>
      <rect style="fill-opacity: 1; fill-rule: evenodd; stroke-width: 4.99999; stroke-linecap: round; stroke-linejoin: round; stop-color: rgb(0, 0, 0);" id="rect-80" width="15.467" height="7.405" x="134.76" y="15"/>
      <rect style="fill-opacity: 1; fill-rule: evenodd; stroke-width: 4.99999; stroke-linecap: round; stroke-linejoin: round; stop-color: rgb(0, 0, 0);" id="rect-81" width="15.467" height="7.405" y="15"/>
    </g>
    <g transform="matrix(1, 0, 0, 1, 0.000002, 88.948463)">
      <rect style="fill-opacity: 1; fill-rule: evenodd; stroke-width: 4.99999; stroke-linecap: round; stroke-linejoin: round; stop-color: rgb(0, 0, 0);" id="rect-82" width="15.467" height="7.405" x="16.845" y="15"/>
      <rect style="fill-rule: evenodd; stroke-width: 4.99999; stroke-linecap: round; stroke-linejoin: round; stop-color: rgb(0, 0, 0); paint-order: fill;" id="rect-83" width="15.467" height="7.405" x="33.69" y="15"/>
      <rect style="fill-opacity: 1; fill-rule: evenodd; stroke-width: 4.99999; stroke-linecap: round; stroke-linejoin: round; stop-color: rgb(0, 0, 0);" id="rect-84" width="15.467" height="7.405" x="50.535" y="15"/>
      <rect style="fill-opacity: 1; fill-rule: evenodd; stroke-width: 4.99999; stroke-linecap: round; stroke-linejoin: round; stop-color: rgb(0, 0, 0);" id="rect-85" width="15.467" height="7.405" x="67.38" y="15"/>
      <rect style="fill-opacity: 1; fill-rule: evenodd; stroke-width: 4.99999; stroke-linecap: round; stroke-linejoin: round; stop-color: rgb(0, 0, 0);" id="rect-86" width="15.467" height="7.405" x="84.225" y="15"/>
      <rect style="fill-opacity: 1; fill-rule: evenodd; stroke-width: 4.99999; stroke-linecap: round; stroke-linejoin: round; stop-color: rgb(0, 0, 0);" id="rect-87" width="15.467" height="7.405" x="101.07" y="15"/>
      <rect style="fill-opacity: 1; fill-rule: evenodd; stroke-width: 4.99999; stroke-linecap: round; stroke-linejoin: round; stop-color: rgb(0, 0, 0);" id="rect-88" width="15.467" height="7.405" x="117.915" y="15"/>
      <rect style="fill-opacity: 1; fill-rule: evenodd; stroke-width: 4.99999; stroke-linecap: round; stroke-linejoin: round; stop-color: rgb(0, 0, 0);" id="rect-89" width="15.467" height="7.405" x="134.76" y="15"/>
      <rect style="fill-opacity: 1; fill-rule: evenodd; stroke-width: 4.99999; stroke-linecap: round; stroke-linejoin: round; stop-color: rgb(0, 0, 0);" id="rect-90" width="15.467" height="7.405" y="15"/>
    </g>
    <g transform="matrix(1, 0, 0, 1, 7.685068, 97.948463)" bx:origin="0.5 0.502622">
      <rect style="fill-opacity: 1; fill-rule: evenodd; stroke-width: 4.99999; stroke-linecap: round; stroke-linejoin: round; stop-color: rgb(0, 0, 0);" id="rect-91" width="15.467" height="7.405" x="16.845" y="15"/>
      <rect style="fill-rule: evenodd; stroke-width: 4.99999; stroke-linecap: round; stroke-linejoin: round; stop-color: rgb(0, 0, 0); paint-order: fill;" id="rect-92" width="15.467" height="7.405" x="33.69" y="15"/>
      <rect style="fill-opacity: 1; fill-rule: evenodd; stroke-width: 4.99999; stroke-linecap: round; stroke-linejoin: round; stop-color: rgb(0, 0, 0);" id="rect-93" width="15.467" height="7.405" x="50.535" y="15"/>
      <rect style="fill-opacity: 1; fill-rule: evenodd; stroke-width: 4.99999; stroke-linecap: round; stroke-linejoin: round; stop-color: rgb(0, 0, 0);" id="rect-94" width="15.467" height="7.405" x="67.38" y="15"/>
      <rect style="fill-opacity: 1; fill-rule: evenodd; stroke-width: 4.99999; stroke-linecap: round; stroke-linejoin: round; stop-color: rgb(0, 0, 0);" id="rect-95" width="15.467" height="7.405" x="84.225" y="15"/>
      <rect style="fill-opacity: 1; fill-rule: evenodd; stroke-width: 4.99999; stroke-linecap: round; stroke-linejoin: round; stop-color: rgb(0, 0, 0);" id="rect-96" width="15.467" height="7.405" x="101.07" y="15"/>
      <rect style="fill-opacity: 1; fill-rule: evenodd; stroke-width: 4.99999; stroke-linecap: round; stroke-linejoin: round; stop-color: rgb(0, 0, 0);" id="rect-97" width="15.467" height="7.405" x="117.915" y="15"/>
      <rect style="fill-opacity: 1; fill-rule: evenodd; stroke-width: 4.99999; stroke-linecap: round; stroke-linejoin: round; stop-color: rgb(0, 0, 0);" id="rect-98" width="15.467" height="7.405" x="134.76" y="15"/>
      <rect style="fill-opacity: 1; fill-rule: evenodd; stroke-width: 4.99999; stroke-linecap: round; stroke-linejoin: round; stop-color: rgb(0, 0, 0);" id="rect-99" width="15.467" height="7.405" y="15"/>
    </g>
    <g transform="matrix(1, 0, 0, 1, 0.00001, 106.587082)">
      <rect style="fill-opacity: 1; fill-rule: evenodd; stroke-width: 4.99999; stroke-linecap: round; stroke-linejoin: round; stop-color: rgb(0, 0, 0);" id="rect-100" width="15.467" height="7.405" x="16.845" y="15"/>
      <rect style="fill-rule: evenodd; stroke-width: 4.99999; stroke-linecap: round; stroke-linejoin: round; stop-color: rgb(0, 0, 0); paint-order: fill;" id="rect-101" width="15.467" height="7.405" x="33.69" y="15"/>
      <rect style="fill-opacity: 1; fill-rule: evenodd; stroke-width: 4.99999; stroke-linecap: round; stroke-linejoin: round; stop-color: rgb(0, 0, 0);" id="rect-102" width="15.467" height="7.405" x="50.535" y="15"/>
      <rect style="fill-opacity: 1; fill-rule: evenodd; stroke-width: 4.99999; stroke-linecap: round; stroke-linejoin: round; stop-color: rgb(0, 0, 0);" id="rect-103" width="15.467" height="7.405" x="67.38" y="15"/>
      <rect style="fill-opacity: 1; fill-rule: evenodd; stroke-width: 4.99999; stroke-linecap: round; stroke-linejoin: round; stop-color: rgb(0, 0, 0);" id="rect-104" width="15.467" height="7.405" x="84.225" y="15"/>
      <rect style="fill-opacity: 1; fill-rule: evenodd; stroke-width: 4.99999; stroke-linecap: round; stroke-linejoin: round; stop-color: rgb(0, 0, 0);" id="rect-105" width="15.467" height="7.405" x="101.07" y="15"/>
      <rect style="fill-opacity: 1; fill-rule: evenodd; stroke-width: 4.99999; stroke-linecap: round; stroke-linejoin: round; stop-color: rgb(0, 0, 0);" id="rect-106" width="15.467" height="7.405" x="117.915" y="15"/>
      <rect style="fill-opacity: 1; fill-rule: evenodd; stroke-width: 4.99999; stroke-linecap: round; stroke-linejoin: round; stop-color: rgb(0, 0, 0);" id="rect-107" width="15.467" height="7.405" x="134.76" y="15"/>
      <rect style="fill-opacity: 1; fill-rule: evenodd; stroke-width: 4.99999; stroke-linecap: round; stroke-linejoin: round; stop-color: rgb(0, 0, 0);" id="rect-108" width="15.467" height="7.405" y="15"/>
    </g>
    <g transform="matrix(1, 0, 0, 1, 7.685068, 115.587082)" bx:origin="0.5 0.502622">
      <rect style="fill-opacity: 1; fill-rule: evenodd; stroke-width: 4.99999; stroke-linecap: round; stroke-linejoin: round; stop-color: rgb(0, 0, 0);" id="rect-109" width="15.467" height="7.405" x="16.845" y="15"/>
      <rect style="fill-rule: evenodd; stroke-width: 4.99999; stroke-linecap: round; stroke-linejoin: round; stop-color: rgb(0, 0, 0); paint-order: fill;" id="rect-110" width="15.467" height="7.405" x="33.69" y="15"/>
      <rect style="fill-opacity: 1; fill-rule: evenodd; stroke-width: 4.99999; stroke-linecap: round; stroke-linejoin: round; stop-color: rgb(0, 0, 0);" id="rect-111" width="15.467" height="7.405" x="50.535" y="15"/>
      <rect style="fill-opacity: 1; fill-rule: evenodd; stroke-width: 4.99999; stroke-linecap: round; stroke-linejoin: round; stop-color: rgb(0, 0, 0);" id="rect-112" width="15.467" height="7.405" x="67.38" y="15"/>
      <rect style="fill-opacity: 1; fill-rule: evenodd; stroke-width: 4.99999; stroke-linecap: round; stroke-linejoin: round; stop-color: rgb(0, 0, 0);" id="rect-113" width="15.467" height="7.405" x="84.225" y="15"/>
      <rect style="fill-opacity: 1; fill-rule: evenodd; stroke-width: 4.99999; stroke-linecap: round; stroke-linejoin: round; stop-color: rgb(0, 0, 0);" id="rect-114" width="15.467" height="7.405" x="101.07" y="15"/>
      <rect style="fill-opacity: 1; fill-rule: evenodd; stroke-width: 4.99999; stroke-linecap: round; stroke-linejoin: round; stop-color: rgb(0, 0, 0);" id="rect-115" width="15.467" height="7.405" x="117.915" y="15"/>
      <rect style="fill-opacity: 1; fill-rule: evenodd; stroke-width: 4.99999; stroke-linecap: round; stroke-linejoin: round; stop-color: rgb(0, 0, 0);" id="rect-116" width="15.467" height="7.405" x="134.76" y="15"/>
      <rect style="fill-opacity: 1; fill-rule: evenodd; stroke-width: 4.99999; stroke-linecap: round; stroke-linejoin: round; stop-color: rgb(0, 0, 0);" id="rect-117" width="15.467" height="7.405" y="15"/>
    </g>
  </g>
  <path id="path4465" d="M 107.622 49.222 C 106.221 49.355 106.239 49.317 106.287 52.299 C 106.337 55.336 106.24 55.192 108.273 55.291 L 109.767 55.362 L 109.811 55.865 C 109.895 56.837 109.681 59.872 109.509 60.138 C 109.369 60.355 109.115 60.406 107.992 60.449 C 106.787 60.492 106.626 60.529 106.502 60.79 C 106.408 60.988 106.378 62.329 106.408 64.915 C 106.432 67.022 106.408 68.824 106.352 68.921 C 106.175 69.23 109.347 69.394 107.517 69.489 C 105.454 69.593 105.24 69.523 105.039 68.681 C 104.894 68.074 104.329 67.437 103.806 67.287 C 103.631 67.238 102.76 67.23 101.873 67.271 C 100.606 67.328 100.1 67.414 99.525 67.668 C 98.849 67.968 98.718 67.982 97.91 67.831 C 97.174 67.695 96.722 67.711 95.141 67.945 C 92.345 68.357 92.002 68.376 83.692 68.611 C 70.991 68.969 63.811 69.096 55.84 69.099 C 47.482 69.104 47.504 69.107 46.254 68.21 C 45.454 67.638 44.503 66.422 43.775 65.042 C 43.013 63.604 41.446 61.223 40.485 60.05 C 38.034 57.057 36.197 57.37 32.356 57.141 C 29.155 56.949 24.278 58.097 22.031 60.657 C 20.26 62.672 19.23 64.615 18.269 67.745 C 17.476 70.333 17.259 71.694 17.255 74.088 C 17.254 75.216 17.184 76.594 17.099 77.153 C 16.966 78.03 16.976 78.299 17.165 79.134 C 17.285 79.664 17.385 80.618 17.388 81.25 C 17.393 82.982 17.632 83.925 18.648 86.211 C 20.722 90.883 22.233 92.851 24.836 94.272 C 26.435 95.144 27.452 95.496 28.977 95.706 C 31.971 96.117 35.056 95.071 37.582 92.785 C 39.46 91.088 43.545 89.087 45.429 85.863 C 46.501 84.029 47.081 83.386 48.1 82.905 C 48.835 82.558 50.95 82.512 58.164 82.682 C 64.541 82.836 67.243 82.917 78.107 83.281 C 80.595 83.366 85.44 83.495 88.876 83.566 C 93.535 83.666 95.38 83.756 96.148 83.919 C 96.798 84.059 97.73 84.126 98.695 84.104 C 99.992 84.073 100.377 84.119 101.3 84.419 C 102.071 84.669 100.973 83.683 101.743 83.682 C 103.239 83.682 105.376 84.548 105.812 83.509 C 106.064 82.904 106.235 82.679 106.496 82.603 C 106.996 82.457 109.641 82.465 125.271 82.658 C 135.237 82.782 139.38 82.789 139.733 82.679 C 140.998 82.285 141.982 77.662 141.988 73.891 C 141.993 71.804 141.968 71.537 141.719 71.014 C 141.39 70.324 140.974 69.865 140.488 69.658 C 140.261 69.56 138.603 69.504 135.957 69.504 C 132.553 69.504 129.401 71.788 129.199 71.62 C 128.964 71.426 132.29 66.887 132.29 63.018 C 132.29 57.872 129.946 60.183 128.113 60.183 C 127.571 60.183 127.195 60.115 127.115 60.002 C 127.044 59.903 126.927 58.981 126.856 57.955 C 126.75 56.435 126.758 56.015 126.901 55.705 C 127.13 55.201 127.296 55.144 128.543 55.144 C 129.371 55.144 129.638 55.093 129.776 54.907 C 129.908 54.728 129.952 54.108 129.952 52.377 L 129.952 50.084 L 129.593 49.736 C 129.306 49.456 129.096 49.389 128.51 49.39 C 128.111 49.39 126.567 49.314 125.08 49.219 L 122.375 49.045 L 122.066 49.371 C 121.871 49.58 121.726 49.939 121.67 50.354 C 121.62 50.739 121.465 51.141 121.296 51.333 C 121.027 51.636 120.928 51.654 119.809 51.588 C 118.525 51.512 118.291 51.377 118.291 50.724 C 118.291 50.539 118.21 50.172 118.114 49.91 C 117.962 49.499 117.857 49.419 117.381 49.341 C 116.495 49.196 108.713 49.119 107.622 49.222 Z M 31.782 65.186 C 33.705 66.011 35.979 69.381 37.428 73.552 C 38.029 75.284 38.083 75.623 37.904 76.538 C 37.48 78.688 35.872 82.625 34.585 84.661 C 33.123 86.978 32.279 87.64 30.207 88.097 C 29.362 88.283 29.303 88.278 28.268 87.879 C 27.119 87.439 26.439 86.885 25.355 85.507 C 24.611 84.56 24.487 84.213 24.499 83.097 C 24.51 82.11 24.583 81.905 25.978 79.059 L 26.84 77.299 L 26.709 76.455 C 26.585 75.665 26.155 74.554 24.98 71.99 L 24.497 70.936 L 24.72 69.905 C 24.967 68.765 25.563 67.371 26.18 66.492 C 26.642 65.835 27.491 65.23 28.332 64.959 C 29.157 64.695 30.908 64.81 31.782 65.186 Z" style="stroke-width: 3px; fill: rgb(105, 105, 105);" transform="matrix(0.820586, 0.571523, -0.571523, 0.820586, 56.014323, -31.594985)"/>
  <path d="M 0 0 H 150 V 150 H 0 V 0 Z M 15 15 V 135 H 135 V 15 H 15 Z" style="fill: rgb(255, 255, 255); stroke: rgb(255, 255, 255);" bx:shape="frame 0 0 150 150 15 15 0 0 0 0 1@d8d241ec"/>
  <path id="path-1" d="M 110.286 56.44 C 108.912 56.545 108.929 56.515 108.976 58.872 C 109.025 61.272 108.93 61.158 110.926 61.236 L 112.392 61.292 L 112.435 61.69 C 112.517 62.458 112.307 64.856 112.139 65.066 C 112.001 65.238 111.751 65.278 110.649 65.312 C 109.467 65.346 109.308 65.375 109.187 65.582 C 109.095 65.738 109.065 66.798 109.095 68.841 C 109.119 70.506 109.095 71.93 109.04 72.007 C 108.867 72.251 108.054 72.381 106.257 72.456 C 104.233 72.538 104.022 72.483 103.825 71.817 C 103.683 71.338 103.129 70.834 102.615 70.716 C 102.444 70.677 101.589 70.671 100.718 70.703 C 99.475 70.748 98.979 70.816 98.414 71.017 C 97.751 71.254 97.622 71.265 96.828 71.146 C 96.107 71.038 95.663 71.051 94.111 71.236 C 91.368 71.561 91.031 71.576 82.875 71.762 C 70.41 72.045 63.363 72.145 55.54 72.148 C 47.338 72.152 47.359 72.154 46.132 71.445 C 45.347 70.993 44.413 70.032 43.699 68.942 C 42.951 67.805 41.413 65.924 40.47 64.997 C 38.064 62.632 34.928 61.339 31.159 61.158 C 28.018 61.006 25.546 61.873 23.34 63.896 C 21.602 65.488 20.591 67.024 19.648 69.497 C 18.87 71.542 18.656 72.618 18.653 74.51 C 18.652 75.401 18.583 76.49 18.5 76.932 C 18.369 77.625 18.378 77.837 18.564 78.497 C 18.682 78.916 18.781 79.67 18.783 80.169 C 18.788 81.538 19.023 82.283 20.019 84.09 C 22.055 87.782 23.538 89.337 26.092 90.46 C 27.663 91.149 28.66 91.427 30.157 91.593 C 33.096 91.918 36.123 91.091 38.602 89.285 C 40.445 87.944 42.764 85.501 44.612 82.953 C 45.665 81.504 46.234 80.996 47.233 80.616 C 47.955 80.342 50.031 80.305 57.111 80.44 C 63.369 80.561 66.022 80.625 76.684 80.913 C 79.126 80.98 83.881 81.082 87.253 81.138 C 91.826 81.217 93.636 81.288 94.39 81.417 C 95.028 81.528 95.943 81.581 96.89 81.563 C 98.163 81.539 98.54 81.575 99.446 81.812 C 100.203 82.01 100.817 82.092 101.572 82.091 C 103.04 82.091 103.446 81.914 103.874 81.093 C 104.122 80.615 104.289 80.437 104.546 80.377 C 105.037 80.262 107.632 80.268 122.972 80.421 C 132.753 80.519 136.82 80.524 137.166 80.437 C 138.407 80.126 138.769 79.168 138.776 76.188 C 138.78 74.539 138.755 74.328 138.511 73.915 C 138.188 73.369 137.781 73.007 137.303 72.843 C 137.08 72.766 135.453 72.721 132.856 72.721 C 129.515 72.721 128.716 72.692 128.518 72.559 C 128.287 72.406 128.276 72.234 128.276 69.176 C 128.276 65.11 128.27 65.102 126.471 65.102 C 125.939 65.102 125.57 65.048 125.492 64.959 C 125.422 64.881 125.307 64.152 125.237 63.341 C 125.133 62.14 125.141 61.808 125.281 61.563 C 125.507 61.165 125.67 61.12 126.893 61.12 C 127.706 61.12 127.968 61.08 128.103 60.933 C 128.233 60.791 128.276 60.301 128.276 58.933 L 128.276 57.121 L 127.924 56.846 C 127.642 56.625 127.436 56.572 126.861 56.573 C 126.47 56.573 124.954 56.513 123.495 56.438 L 120.839 56.3 L 120.537 56.558 C 120.345 56.723 120.202 57.007 120.148 57.335 C 120.098 57.639 119.947 57.957 119.781 58.108 C 119.517 58.348 119.419 58.362 118.321 58.31 C 117.061 58.25 116.832 58.143 116.832 57.627 C 116.832 57.481 116.752 57.191 116.658 56.984 C 116.509 56.659 116.406 56.596 115.938 56.534 C 115.068 56.42 111.357 56.359 110.286 56.44 Z M 32.91 67.475 C 34.797 68.127 37.029 70.79 38.451 74.086 C 39.041 75.455 39.094 75.723 38.918 76.446 C 38.502 78.145 36.924 81.256 35.661 82.865 C 34.226 84.696 33.398 85.219 31.365 85.58 C 30.535 85.727 30.477 85.723 29.461 85.408 C 28.334 85.06 27.666 84.622 26.602 83.533 C 25.872 82.785 25.75 82.511 25.762 81.629 C 25.773 80.849 25.845 80.687 27.213 78.438 L 28.059 77.047 L 27.931 76.38 C 27.809 75.756 27.387 74.878 26.234 72.852 L 25.76 72.019 L 25.979 71.204 C 26.221 70.303 26.807 69.202 27.412 68.507 C 27.865 67.988 28.699 67.51 29.524 67.296 C 30.334 67.087 32.052 67.178 32.91 67.475 Z" style="fill: rgb(255, 246, 10); stroke-width: 3px;" transform="matrix(0.820586, 0.571523, -0.571523, 0.820586, 56.382772, -31.645005)"/>
</svg>