<?xml version="1.0" encoding="utf-8"?>
<svg version="1.1" id="layer" x="0px" y="0px" style="enable-background:new 0 0 652 652;" viewBox="0 0 150 150" xmlns="http://www.w3.org/2000/svg" xmlns:bx="https://boxy-svg.com">
  <defs>
    <bx:grid x="0" y="0" width="29.97" height="30.684"/>
  </defs>
  <style type="text/css">
	.st0{fill:#17B2E7;}
</style>
  <path d="M 94.516 63.244 C 94.72 63.264 94.946 63.264 95.151 63.284 C 96.77 63.387 98.327 63.776 99.762 64.535 C 100.807 65.068 101.709 65.764 102.529 66.605 C 103.411 67.507 104.148 68.511 104.701 69.658 C 105.112 70.498 105.399 71.379 105.583 72.282 C 105.829 73.388 105.911 74.516 105.849 75.663 C 105.767 77.488 105.377 79.229 104.517 80.849 C 103.923 81.976 103.143 82.959 102.202 83.84 C 100.705 85.255 98.963 86.157 96.975 86.587 C 96.237 86.75 95.479 86.833 94.72 86.874 C 94.68 86.874 94.658 86.894 94.618 86.894 C 94.311 86.894 94.024 86.894 93.717 86.894 C 93.532 86.874 93.327 86.874 93.142 86.854 C 90.827 86.69 88.696 85.973 86.871 84.517 C 85.416 83.369 84.289 81.955 83.51 80.275 C 83.121 79.414 82.854 78.512 82.67 77.59 C 82.465 76.545 82.403 75.479 82.465 74.412 C 82.567 72.179 83.162 70.088 84.473 68.244 C 85.99 66.072 87.978 64.535 90.54 63.798 C 91.319 63.571 92.118 63.428 92.938 63.367 C 93.204 63.346 93.45 63.346 93.717 63.325 C 93.757 63.325 93.799 63.305 93.839 63.305 C 94.065 63.244 94.29 63.244 94.516 63.244 Z M 94.147 83.82 C 94.966 83.82 95.765 83.739 96.545 83.553 C 98.245 83.123 99.66 82.242 100.787 80.889 C 101.935 79.516 102.529 77.918 102.694 76.135 C 102.755 75.52 102.755 74.926 102.713 74.311 C 102.673 73.655 102.591 72.999 102.406 72.364 C 101.852 70.376 100.746 68.777 99.025 67.63 C 97.734 66.769 96.299 66.379 94.762 66.297 C 93.921 66.256 93.082 66.297 92.261 66.441 C 90.806 66.707 89.535 67.301 88.408 68.265 C 87.323 69.207 86.564 70.356 86.072 71.707 C 85.703 72.732 85.56 73.778 85.539 74.864 C 85.519 75.704 85.58 76.524 85.764 77.344 C 86.092 78.819 86.749 80.131 87.794 81.238 C 88.715 82.221 89.803 82.919 91.073 83.349 C 92.097 83.697 93.122 83.82 94.147 83.82 Z" style=""/>
  <path d="M 136.468 86.32 C 136.387 86.526 136.305 86.566 136.079 86.566 C 135.3 86.566 134.521 86.566 133.742 86.566 C 133.476 86.566 133.373 86.464 133.373 86.198 C 133.373 78.758 133.373 71.339 133.373 63.899 C 133.373 63.612 133.476 63.51 133.763 63.51 C 134.542 63.51 135.32 63.51 136.099 63.51 C 136.201 63.51 136.305 63.552 136.387 63.592 C 136.427 63.633 136.448 63.715 136.489 63.776 C 136.468 71.298 136.468 78.819 136.468 86.32 Z" style=""/>
  <path d="M 72.955 72.876 C 73.345 73.388 73.734 73.921 74.124 74.434 C 74.944 75.54 75.784 76.627 76.604 77.734 C 77.669 79.147 78.734 80.561 79.78 81.955 C 80.826 83.328 81.85 84.722 82.895 86.095 C 82.977 86.198 82.998 86.3 82.956 86.422 C 82.895 86.546 82.793 86.587 82.67 86.587 C 82.609 86.587 82.547 86.587 82.506 86.587 C 81.543 86.587 80.579 86.587 79.637 86.587 C 79.473 86.587 79.35 86.526 79.247 86.403 C 77.443 83.984 75.62 81.566 73.816 79.147 C 72.791 77.774 71.766 76.401 70.721 75.028 C 70.721 75.008 70.701 75.008 70.681 74.986 C 70.557 75.11 70.435 75.212 70.311 75.335 C 69.472 76.114 68.651 76.892 67.812 77.672 C 67.36 78.102 66.889 78.533 66.438 78.963 C 66.377 79.025 66.356 79.065 66.356 79.147 C 66.356 81.484 66.356 83.82 66.356 86.157 C 66.356 86.177 66.356 86.218 66.356 86.238 C 66.356 86.444 66.233 86.566 66.029 86.566 C 65.208 86.566 64.388 86.566 63.569 86.566 C 63.364 86.566 63.261 86.444 63.241 86.238 C 63.241 86.218 63.241 86.198 63.241 86.157 C 63.241 78.737 63.241 71.319 63.241 63.899 C 63.241 63.899 63.241 63.879 63.241 63.879 C 63.241 63.592 63.343 63.49 63.63 63.49 C 64.368 63.49 65.126 63.49 65.864 63.49 C 65.905 63.49 65.967 63.49 66.007 63.49 C 66.233 63.49 66.336 63.612 66.336 63.817 C 66.336 63.858 66.336 63.879 66.336 63.92 C 66.336 67.507 66.336 71.114 66.336 74.7 C 66.336 74.741 66.336 74.782 66.336 74.844 C 66.521 74.68 66.684 74.516 66.848 74.352 C 67.831 73.429 68.815 72.507 69.8 71.585 C 71.091 70.376 72.382 69.167 73.672 67.958 C 74.76 66.933 75.845 65.928 76.932 64.903 C 77.382 64.473 77.854 64.043 78.304 63.612 C 78.407 63.53 78.51 63.469 78.632 63.469 C 79.78 63.469 80.928 63.469 82.055 63.469 C 82.239 63.469 82.363 63.53 82.403 63.694 C 82.445 63.817 82.383 63.899 82.301 63.982 C 81.973 64.289 81.645 64.617 81.318 64.925 C 80.722 65.478 80.149 66.031 79.555 66.584 C 78.734 67.343 77.935 68.122 77.116 68.88 C 76.276 69.658 75.455 70.458 74.616 71.237 C 74.082 71.81 73.529 72.343 72.955 72.876 Z" style=""/>
  <path d="M 109.415 75.048 C 109.415 71.339 109.415 67.65 109.415 63.94 C 109.415 63.899 109.415 63.879 109.415 63.838 C 109.415 63.633 109.517 63.51 109.744 63.51 C 109.763 63.51 109.763 63.51 109.784 63.51 C 112.961 63.51 116.138 63.51 119.314 63.51 C 120.77 63.51 122.163 63.838 123.496 64.433 C 124.663 64.944 125.668 65.682 126.549 66.584 C 127.983 68.06 128.947 69.822 129.418 71.831 C 129.685 72.999 129.808 74.167 129.766 75.356 C 129.726 76.954 129.459 78.512 128.844 79.987 C 128.332 81.217 127.614 82.324 126.713 83.308 C 125.319 84.804 123.618 85.788 121.63 86.28 C 120.77 86.484 119.909 86.587 119.007 86.587 C 115.933 86.587 112.858 86.587 109.784 86.587 C 109.723 86.587 109.682 86.587 109.62 86.566 C 109.498 86.546 109.436 86.484 109.415 86.362 C 109.415 86.3 109.395 86.238 109.395 86.177 C 109.415 82.488 109.415 78.758 109.415 75.048 Z M 112.509 83.615 C 112.571 83.615 112.612 83.615 112.653 83.615 C 114.723 83.615 116.793 83.615 118.863 83.615 C 119.232 83.615 119.601 83.595 119.971 83.574 C 120.728 83.513 121.466 83.308 122.163 82.98 C 123.085 82.57 123.843 81.955 124.499 81.197 C 125.114 80.5 125.606 79.722 125.954 78.84 C 126.344 77.918 126.549 76.954 126.61 75.971 C 126.671 75.069 126.651 74.167 126.507 73.266 C 126.344 72.2 125.995 71.216 125.462 70.273 C 124.868 69.249 124.11 68.346 123.126 67.67 C 121.958 66.851 120.646 66.462 119.212 66.462 C 116.998 66.441 114.785 66.462 112.571 66.462 C 112.531 66.462 112.489 66.462 112.449 66.462 C 112.509 72.2 112.509 77.897 112.509 83.615 Z" style=""/>
  <path class="st0" d="M 51.15 75.315 C 51.026 75.704 50.76 75.991 50.473 76.278 C 48.567 78.184 46.661 80.09 44.755 81.996 C 44.078 82.694 43.341 82.672 42.644 81.996 C 40.677 80.029 38.709 78.061 36.742 76.093 C 36.065 75.417 36.065 74.7 36.742 74.024 C 38.709 72.036 40.697 70.068 42.665 68.08 C 43.3 67.445 44.058 67.445 44.714 68.08 C 46.64 70.007 48.546 71.913 50.473 73.84 C 50.76 74.127 51.026 74.412 51.15 74.802 C 51.15 74.966 51.15 75.13 51.15 75.315 Z" style=""/>
  <path class="st0" d="M 32.192 93.739 C 31.802 93.616 31.515 93.351 31.228 93.063 C 29.322 91.157 27.416 89.252 25.51 87.346 C 24.834 86.668 24.834 85.931 25.51 85.255 C 27.478 83.287 29.446 81.299 31.433 79.332 C 32.09 78.676 32.847 78.676 33.483 79.332 C 35.45 81.299 37.418 83.287 39.406 85.255 C 40.082 85.931 40.082 86.668 39.406 87.346 C 37.479 89.272 35.553 91.198 33.646 93.124 C 33.381 93.391 33.093 93.658 32.704 93.76 C 32.54 93.739 32.376 93.739 32.192 93.739 Z" style=""/>
  <path class="st0" d="M 25.285 70.314 C 25.285 68.122 25.306 65.928 25.264 63.736 C 25.264 63.1 25.408 62.609 25.9 62.178 C 26.289 61.849 26.638 61.46 27.007 61.092 C 28.461 59.637 29.896 58.202 31.351 56.747 C 32.028 56.07 32.766 56.07 33.442 56.747 C 35.409 58.714 37.377 60.682 39.344 62.649 C 40.021 63.325 40.021 64.063 39.344 64.739 C 37.028 67.077 34.692 69.392 32.376 71.729 C 30.327 73.778 28.277 75.847 26.207 77.897 C 25.818 78.287 25.49 78.184 25.346 77.672 C 25.306 77.508 25.306 77.323 25.306 77.16 C 25.264 74.885 25.285 72.61 25.285 70.314 Z" style=""/>
  <path class="st0" d="M 20.572 75.069 C 20.572 77.078 20.572 79.107 20.572 81.115 C 20.572 81.299 20.53 81.505 20.468 81.689 C 20.326 82.037 20.08 82.078 19.813 81.812 C 18.891 80.889 17.968 79.968 17.046 79.025 C 15.981 77.959 14.915 76.892 13.849 75.807 C 13.398 75.356 13.398 74.741 13.849 74.311 C 15.816 72.322 17.784 70.334 19.751 68.346 C 19.875 68.224 19.998 68.039 20.222 68.122 C 20.428 68.204 20.51 68.388 20.55 68.613 C 20.572 68.736 20.592 68.88 20.592 69.003 C 20.572 71.032 20.572 73.06 20.572 75.069 C 20.572 75.069 20.572 75.069 20.572 75.069 Z" style=""/>
</svg>