<?xml version="1.0" encoding="utf-8"?>
<svg height="100%" style="fill-rule:evenodd;clip-rule:evenodd;stroke-linecap:round;stroke-linejoin:round;" width="100%" version="1.1" viewBox="0 0 150 150" xmlns="http://www.w3.org/2000/svg" xmlns:bx="https://boxy-svg.com">
  <defs>
    <bx:grid x="0" y="0" width="15" height="15"/>
  </defs>
  <rect width="120" height="120" style="fill: none; stroke-width: 0.2px; stroke: rgb(84, 84, 84); pointer-events: none; visibility: hidden;" x="15" y="15" bx:origin="0.5 0.5"/>
  <g>
    <path d="M 136 75.767 C 136 42.606 108.917 14 75.5 14 C 42.098 14 15 42.606 15 75.767 C 15 97.797 26.993 116.993 44.802 127.456 L 58.773 102.253 C 34.494 89.658 37.275 43.313 75.5 42.841 C 111.199 42.4 117.775 89.658 90.625 102.523 L 106.057 127.542 C 123.948 117.104 136 97.865 136 75.767 Z" style="fill: rgba(255, 178, 36, 0.43);">
      <title>Círculo Brillo</title>
    </path>
    <path d="M 134.5 76.73 C 134.5 43.857 107.641 15.5 74.5 15.5 C 41.374 15.5 14.5 43.857 14.5 76.73 C 14.5 98.568 26.394 117.598 44.056 127.97 L 57.911 102.986 C 33.833 90.5 36.591 44.558 74.5 44.09 C 109.904 43.653 116.426 90.5 89.5 103.253 L 104.804 128.055 C 122.548 117.708 134.5 98.636 134.5 76.73 Z" style="fill: rgb(122, 49, 0);">
      <title>Círculo sombra</title>
    </path>
    <path d="M 135 76.23 C 135 43.357 108.141 15 75 15 C 41.874 15 15 43.357 15 76.23 C 15 98.068 26.894 117.098 44.556 127.47 L 58.411 102.486 C 34.333 90 37.091 44.058 75 43.59 C 110.404 43.153 116.926 90 90 102.753 L 105.304 127.555 C 123.048 117.208 135 98.136 135 76.23 Z" fill="#ff7a24" style="">
      <title>Círculo</title>
    </path>
    <path d="M 82.419 92.817 C 82.419 92.817 86.185 119.008 88.321 132.56 C 80.093 134.968 70.625 134.968 61.549 132.523 C 64.458 119.008 68.809 92.886 68.809 92.886 C 61.63 90.117 56.5 83.114 56.5 74.848 C 56.5 64.161 65.02 55.5 75.516 55.5 C 86.03 55.5 94.534 64.161 94.534 74.848 C 94.534 83.045 89.501 90.004 82.419 92.817 Z" style="fill: rgb(112, 179, 230);">
      <title>Cerradura brillo</title>
    </path>
    <path d="M 81.419 93.817 C 81.419 93.817 85.185 120.008 87.321 133.56 C 79.093 135.968 69.625 135.968 60.549 133.523 C 63.458 120.008 67.809 93.886 67.809 93.886 C 60.63 91.117 55.5 84.114 55.5 75.848 C 55.5 65.161 64.02 56.5 74.516 56.5 C 85.03 56.5 93.534 65.161 93.534 75.848 C 93.534 84.045 88.501 91.004 81.419 93.817 Z" style="fill: rgb(6, 18, 35);">
      <title>Cerradura sombra</title>
    </path>
    <path d="M 81.902 92.849 C 81.902 92.849 85.668 119.04 87.804 132.592 C 79.576 135 70.108 135 61.032 132.555 C 63.941 119.04 68.292 92.918 68.292 92.918 C 61.113 90.149 55.983 83.146 55.983 74.88 C 55.983 64.193 64.503 55.532 74.999 55.532 C 85.513 55.532 94.017 64.193 94.017 74.88 C 94.017 83.077 88.984 90.036 81.902 92.849 Z" fill="#123467" style="">
      <title>Cerradura</title>
    </path>
  </g>
</svg>