<?xml version="1.0" encoding="utf-8"?>
<svg height="100%" style="fill-rule:evenodd;clip-rule:evenodd;stroke-linecap:round;stroke-linejoin:round;" width="100%" version="1.1" viewBox="0 0 150 150" xmlns="http://www.w3.org/2000/svg" xmlns:bx="https://boxy-svg.com">
  <defs>
    <bx:grid x="0" y="0" width="15" height="15"/>
  </defs>
  <rect width="120" height="120" style="fill: none; stroke-width: 0.2px; stroke: rgb(84, 84, 84); pointer-events: none; visibility: hidden;" x="15" y="15" bx:origin="0.5 0.5"/>
  <g transform="matrix(0.034024, 0, 0, 0.034024, -10.058531, -8.654326)" style="">
    <polygon class="cls-6" points="2500 2351.57 2841.18 2188.62 2500 2025.68 2158.82 2188.62 2500 2351.57" style="fill: rgb(110, 110, 110);"/>
    <path class="cls-7" d="M 3258.86 2614.71 C 3281.98 2510.962 3281.98 2403.398 3258.86 2299.65 L 3116.29 2282.73 C 3102.955 2234.547 3083.98 2188.106 3059.76 2144.37 L 3148.29 2032.07 C 3091.385 1942.321 3015.331 1866.271 2925.58 1809.37 L 2814.58 1897.05 C 2770.375 1872.062 2723.332 1852.465 2674.46 1838.68 L 2658 1698.79 C 2554.248 1675.68 2446.682 1675.68 2342.93 1698.79 L 2326.6 1838.38 C 2277.567 1852.141 2230.362 1871.738 2186 1896.75 L 2075.41 1809.37 C 1985.653 1866.261 1909.601 1942.313 1852.71 2032.07 L 1940.71 2143.57 C 1916.266 2187.602 1897.132 2234.379 1883.71 2282.92 L 1742.16 2299.65 C 1719.03 2403.396 1719.03 2510.964 1742.16 2614.71 L 1885.53 2631.8 C 1899.183 2679.259 1918.315 2724.966 1942.54 2768 L 1852.68 2882.31 C 1909.567 2972.067 1985.62 3048.117 2075.38 3105 L 2190.96 3014.3 C 2233.489 3037.779 2278.57 3056.303 2325.32 3069.51 L 2343 3215.57 C 2446.745 3238.68 2554.305 3238.68 2658.05 3215.57 L 2675.74 3069.2 C 2722.309 3055.963 2767.211 3037.443 2809.57 3014 L 2925.57 3105 C 3015.324 3048.106 3091.378 2972.059 3148.28 2882.31 L 3057.9 2767.22 C 3081.896 2724.484 3100.869 2679.116 3114.44 2632.02 L 3258.86 2614.71 Z M 2997.39 2749.3 L 2500 2986.86 L 2002.61 2749.3 L 2002.61 2159 L 2500 1921.4 L 2997.39 2159 L 2997.39 2749.3 Z" style="fill: rgb(0, 140, 233);"/>
    <path class="cls-6" d="M 2096.71 2651.3 L 2190.94 2606.3 L 2222.74 2672.87 L 2141.83 2711.52 L 2453 2860.1 L 2453 2562.91 L 2428.9 2574.42 L 2397.1 2507.86 L 2453 2481.15 L 2453 2433.37 L 2096.76 2263.23 L 2096.71 2651.3 Z M 2350.51 2530.09 L 2382.31 2596.65 L 2269.31 2650.65 L 2237.53 2584.08 L 2350.51 2530.09 Z M 2903.3 2651.3 L 2903.3 2263.23 L 2547 2433.39 L 2547 2481.15 L 2602.91 2507.86 L 2571.11 2574.42 L 2547 2562.91 L 2547 2860.1 L 2858.15 2711.5 L 2777.23 2672.86 L 2809.01 2606.29 L 2903.3 2651.3 Z M 2730.73 2650.64 L 2617.73 2596.64 L 2649.53 2530.08 L 2762.53 2584.08 L 2730.73 2650.64 Z" style="fill: rgb(110, 110, 110);"/>
    <polygon class="cls-6" points="2499.99 942.28 2758.63 818.76 2499.99 695.23 2241.35 818.76 2499.99 942.28" style="fill: rgb(110, 110, 110);"/>
    <polygon class="cls-6" points="2534.33 1002.01 2534.33 1313.49 2794.38 1189.3 2794.38 877.81 2534.33 1002.01" style="fill: rgb(110, 110, 110);"/>
    <polygon class="cls-6" points="2465.65 1002 2205.61 877.81 2205.61 1189.3 2465.65 1313.49 2465.65 1002" style="fill: rgb(110, 110, 110);"/>
    <path class="cls-7" d="M 2496.19 1370.26 L 2508.43 1386.32 L 2399.73 1552.06 L 2435.73 1552.06 L 2435.73 1631.16 C 2457.13 1629.5 2478.73 1628.39 2500.51 1628.39 C 2522.29 1628.39 2543.82 1629.5 2565.17 1631.15 L 2565.17 1552.15 L 2651.76 1552.15 L 2500.55 1330.32 L 2349.11 1552.1 L 2375.26 1552.1 L 2496.19 1370.26 Z" style="fill: rgb(0, 140, 233);"/>
    <polygon class="cls-6" points="1427.74 1386.43 1523.28 1116.2 1253.05 1211.74 1157.51 1481.97 1427.74 1386.43" style="fill: rgb(110, 110, 110);"/>
    <polygon class="cls-6" points="1494.26 1404.38 1714.51 1624.63 1810.57 1352.93 1590.31 1132.67 1494.26 1404.38" style="fill: rgb(110, 110, 110);"/>
    <polygon class="cls-6" points="1445.68 1452.94 1173.99 1549 1394.25 1769.25 1665.94 1673.2 1445.68 1452.94" style="fill: rgb(110, 110, 110);"/>
    <path class="cls-7" d="M 1727.68 1691.75 L 1747.68 1694.45 L 1788 1888.51 L 1813.44 1863.07 L 1869.37 1919 C 1883.37 1902.7 1897.78 1886.67 1913.22 1871.24 C 1928.66 1855.81 1944.62 1841.4 1960.89 1827.46 L 1905 1771.57 L 1966.22 1710.35 L 1702.45 1660.42 L 1752.19 1924.32 L 1770.68 1905.83 L 1727.68 1691.75 Z" style="fill: rgb(0, 140, 233);"/>
    <polygon class="cls-6" points="983.6 2458.69 860.08 2200.05 736.55 2458.69 860.08 2717.33 983.6 2458.69" style="fill: rgb(110, 110, 110);"/>
    <polygon class="cls-6" points="1043.33 2424.35 1354.81 2424.35 1230.61 2164.3 919.13 2164.3 1043.33 2424.35" style="fill: rgb(110, 110, 110);"/>
    <polygon class="cls-6" points="1043.32 2493.03 919.13 2753.07 1230.61 2753.07 1354.81 2493.03 1043.32 2493.03" style="fill: rgb(110, 110, 110);"/>
    <path class="cls-7" d="M 1411.58 2462.49 L 1427.64 2450.25 L 1593.38 2559 L 1593.38 2523 L 1672.48 2523 C 1670.82 2501.6 1669.71 2480.05 1669.71 2458.22 C 1669.71 2436.39 1670.82 2414.92 1672.47 2393.56 L 1593.47 2393.56 L 1593.47 2307 L 1371.6 2458.16 L 1593.38 2609.6 L 1593.38 2583.45 L 1411.58 2462.49 Z" style="fill: rgb(0, 140, 233);"/>
    <polygon class="cls-6" points="1427.75 3530.94 1157.52 3435.4 1253.06 3705.63 1523.29 3801.17 1427.75 3530.94" style="fill: rgb(110, 110, 110);"/>
    <polygon class="cls-6" points="1445.7 3464.43 1665.95 3244.18 1394.25 3148.11 1173.99 3368.37 1445.7 3464.43" style="fill: rgb(110, 110, 110);"/>
    <polygon class="cls-6" points="1494.26 3513 1590.32 3784.69 1810.57 3564.44 1714.51 3292.74 1494.26 3513" style="fill: rgb(110, 110, 110);"/>
    <path class="cls-7" d="M 1733.06 3231 L 1735.77 3211 L 1929.83 3170.67 L 1904.39 3145.23 L 1960.32 3089.3 C 1944.02 3075.3 1927.99 3060.89 1912.56 3045.46 C 1897.13 3030.03 1882.72 3014.05 1868.78 2997.78 L 1812.89 3053.67 L 1751.66 2992.45 L 1701.74 3256.22 L 1965.64 3206.48 L 1947.15 3188 L 1733.06 3231 Z" style="fill: rgb(0, 140, 233);"/>
    <polygon class="cls-6" points="2500.01 3975.08 2241.37 4098.6 2500.01 4222.13 2758.65 4098.6 2500.01 3975.08" style="fill: rgb(110, 110, 110);"/>
    <polygon class="cls-6" points="2465.67 3915.35 2465.67 3603.87 2205.62 3728.07 2205.62 4039.56 2465.67 3915.35" style="fill: rgb(110, 110, 110);"/>
    <polygon class="cls-6" points="2534.35 3915.36 2794.39 4039.56 2794.39 3728.07 2534.35 3603.87 2534.35 3915.36" style="fill: rgb(110, 110, 110);"/>
    <path class="cls-7" d="M 2503.81 3547.1 L 2491.57 3531 L 2600.27 3365.26 L 2564.27 3365.26 L 2564.27 3286.16 C 2542.87 3287.82 2521.27 3288.93 2499.49 3288.93 C 2477.71 3288.93 2456.18 3287.82 2434.83 3286.18 L 2434.83 3365.18 L 2348.24 3365.18 L 2499.45 3587 L 2650.89 3365.22 L 2624.74 3365.22 L 2503.81 3547.1 Z" style="fill: rgb(0, 140, 233);"/>
    <polygon class="cls-6" points="3572.26 3530.93 3476.72 3801.16 3746.95 3705.62 3842.49 3435.39 3572.26 3530.93" style="fill: rgb(110, 110, 110);"/>
    <polygon class="cls-6" points="3505.74 3512.98 3285.49 3292.73 3189.43 3564.43 3409.69 3784.69 3505.74 3512.98" style="fill: rgb(110, 110, 110);"/>
    <polygon class="cls-6" points="3554.32 3464.42 3826.01 3368.37 3605.75 3148.11 3334.06 3244.17 3554.32 3464.42" style="fill: rgb(110, 110, 110);"/>
    <path class="cls-7" d="M 3272.32 3225.62 L 3252.32 3222.92 L 3212 3028.85 L 3186.56 3054.29 L 3130.63 2998.36 C 3116.63 3014.66 3102.22 3030.69 3086.78 3046.12 C 3071.34 3061.55 3055.38 3075.96 3039.11 3089.9 L 3095 3145.79 L 3033.76 3207 L 3297.53 3257 L 3247.79 2993 L 3229.3 3011.49 L 3272.32 3225.62 Z" style="fill: rgb(0, 140, 233);"/>
    <polygon class="cls-6" points="4016.4 2458.68 4139.92 2717.31 4263.45 2458.68 4139.92 2200.04 4016.4 2458.68" style="fill: rgb(110, 110, 110);"/>
    <polygon class="cls-6" points="3956.67 2493.02 3645.19 2493.02 3769.39 2753.07 4080.88 2753.07 3956.67 2493.02" style="fill: rgb(110, 110, 110);"/>
    <polygon class="cls-6" points="3956.68 2424.33 4080.88 2164.29 3769.39 2164.29 3645.19 2424.33 3956.68 2424.33" style="fill: rgb(110, 110, 110);"/>
    <path class="cls-7" d="M 3588.42 2454.87 L 3572.36 2467.11 L 3406.62 2358.41 L 3406.62 2394.41 L 3327.52 2394.41 C 3329.18 2415.81 3330.29 2437.41 3330.29 2459.19 C 3330.29 2480.97 3329.18 2502.5 3327.53 2523.86 L 3406.53 2523.86 L 3406.53 2610.44 L 3628.4 2459.2 L 3406.62 2307.77 L 3406.62 2333.92 L 3588.42 2454.87 Z" style="fill: rgb(0, 140, 233);"/>
    <polygon class="cls-6" points="3572.25 1386.42 3842.48 1481.96 3746.94 1211.73 3476.71 1116.19 3572.25 1386.42" style="fill: rgb(110, 110, 110);"/>
    <polygon class="cls-6" points="3554.3 1452.94 3334.05 1673.19 3605.75 1769.25 3826.01 1548.99 3554.3 1452.94" style="fill: rgb(110, 110, 110);"/>
    <polygon class="cls-6" points="3505.74 1404.37 3409.68 1132.67 3189.43 1352.93 3285.49 1624.62 3505.74 1404.37" style="fill: rgb(110, 110, 110);"/>
    <path class="cls-7" d="M 3266.94 1686.36 L 3264.23 1706.36 L 3070.17 1746.69 L 3095.61 1772.13 L 3039.68 1828.06 C 3055.98 1842.06 3072.01 1856.48 3087.44 1871.91 C 3102.87 1887.34 3117.28 1903.31 3131.22 1919.58 L 3187.11 1863.69 L 3248.34 1924.92 L 3298.26 1661.14 L 3034.36 1710.88 L 3052.85 1729.37 L 3266.94 1686.36 Z" style="fill: rgb(0, 140, 233);"/>
  </g>
</svg>