<?xml version="1.0" encoding="utf-8"?>
<svg height="100%" style="fill-rule:evenodd;clip-rule:evenodd;stroke-linecap:round;stroke-linejoin:round;" width="100%" version="1.1" viewBox="0 0 150 150" xmlns="http://www.w3.org/2000/svg" xmlns:bx="https://boxy-svg.com">
  <defs>
    <bx:grid x="0" y="0" width="15" height="15"/>
    <filter id="b" width="1.5" height="1.5" x="-.25" y="-.25" color-interpolation-filters="sRGB">
      <feGaussianBlur in="SourceAlpha" result="blur" stdDeviation="2.5"/>
      <feColorMatrix result="bluralpha" values="1 0 0 0 0 0 1 0 0 0 0 0 1 0 0 0 0 0 0.500000 0"/>
      <feOffset dx="2.7" dy="2.6" in="bluralpha" result="offsetBlur"/>
      <feMerge>
        <feMergeNode in="offsetBlur"/>
        <feMergeNode in="SourceGraphic"/>
      </feMerge>
    </filter>
    <linearGradient id="c" x1="30.564501" x2="32.937" y1="-8.8144999" y2="32.715599" gradientUnits="userSpaceOnUse" href="#gradient-1"/>
  </defs>
  <rect width="120" height="120" style="fill: none; stroke-width: 0.2px; stroke: rgb(84, 84, 84); pointer-events: none; visibility: hidden;" x="15" y="15"/>
  <g transform="matrix(1, 0, 0, 1, 1.572346, 0)">
    <g filter="url(#b)" transform="matrix(0.678958, 0, 0, 0.678958, 47.375618, 105.377876)" style="">
      <path fill="#6700ad" d="M54.997 12.151C50.083 9.132 43.29 7.266 35.791 7.266c-7.5 0-14.29 1.866-19.204 4.885-4.915 3.016-7.956 7.184-7.956 11.789 0 4.604 3.041 8.772 7.956 11.788 4.914 3.02 11.704-4.271 19.204-4.271 7.499 0 14.292 7.291 19.206 4.271 4.914-3.016 7.955-7.185 7.955-11.788 0-4.606-3.041-8.773-7.955-11.789zM24.996 24.318c-2.698 0-4.885-.922-4.885-2.061 0-1.14 2.187-2.063 4.885-2.063 2.697 0 4.885.924 4.885 2.063 0 1.139-2.188 2.061-4.885 2.061zm21.501.191c-2.686 0-4.861-.856-4.861-1.912 0-1.054 2.176-1.911 4.861-1.911 2.685 0 4.863.857 4.863 1.911 0 1.056-2.178 1.912-4.863 1.912z"/>
      <path fill="none" stroke="#ffb616" stroke-width="1.51689994" d="M54.997 12.151C50.083 9.132 43.29 7.266 35.791 7.266c-7.5 0-14.29 1.866-19.204 4.885-4.915 3.016-7.956 7.184-7.956 11.789 0 4.604 3.041 8.772 7.956 11.788 4.914 3.02 11.704-4.271 19.204-4.271 7.499 0 14.292 7.291 19.206 4.271 4.914-3.016 7.955-7.185 7.955-11.788 0-4.606-3.041-8.773-7.955-11.789zM24.996 24.318c-2.698 0-4.885-.922-4.885-2.061 0-1.14 2.187-2.063 4.885-2.063 2.697 0 4.885.924 4.885 2.063 0 1.139-2.188 2.061-4.885 2.061zm21.501.191c-2.686 0-4.861-.856-4.861-1.912 0-1.054 2.176-1.911 4.861-1.911 2.685 0 4.863.857 4.863 1.911 0 1.056-2.178 1.912-4.863 1.912z"/>
      <linearGradient id="gradient-1" x1="30.564501" x2="32.937" y1="-8.8144999" y2="32.715599" gradientUnits="userSpaceOnUse">
        <stop offset="0" stop-color="#fff" stop-opacity=".73"/>
        <stop offset="1" stop-color="#fff" stop-opacity="0"/>
      </linearGradient>
      <path fill="url(#c)" d="M54.1 15.361c-.924 1.078-2.782 1.265-3.857 1.06C38 14.083 22.75 12.75 16.027 23.031c-1.169 1.788-4.035 2.359-5.734.856-1.662-1.47 2.812-8.083 7.353-10.854C22.194 10.252 28.474 8.53 35.41 8.53s13.215 1.722 17.756 4.502c.731.442 1.627 1.52.934 2.329z"/>
    </g>
    <g transform="matrix(1.063451, 0, 0, 1.063451, -23.297485, 7.385922)" style="">
      <g transform="matrix(0.82363, 0, 0, 0.82363, -35.326775, 12.905759)">
        <ellipse style="stroke: rgb(0, 0, 0); fill: none;" cx="107.982" cy="96.676" rx="12.018" ry="12.018"/>
        <ellipse style="stroke: rgb(0, 0, 0); fill: none;" cx="107.982" cy="96.676" rx="6.515" ry="12.018"/>
        <path d="M 118.643 91.175 C 116.638 92.593 112.616 93.561 107.982 93.561 C 103.348 93.561 99.326 92.593 97.321 91.175" style="stroke: rgb(0, 0, 0); fill: none;"/>
        <line style="fill: rgb(216, 216, 216); stroke: rgb(0, 0, 0); transform-box: fill-box; transform-origin: 50% 50%;" x1="107.719" y1="108.694" x2="107.843" y2="84.691" transform="matrix(-1, 0, 0, -1, -0.000014, -0.000009)"/>
      </g>
      <rect x="41.048" y="91.529" width="24.709" height="23.285" rx="5" ry="5" style="stroke: rgb(0, 0, 0); fill: rgb(255, 255, 255);"/>
      <ellipse style="stroke: rgb(0, 0, 0); fill: none; stroke-width: 0.7px;" cx="44.893" cy="96.781" rx="1.338" ry="1.338"/>
      <ellipse style="stroke: rgb(0, 0, 0); fill: none; stroke-width: 0.7px;" cx="48.548" cy="96.781" rx="1.338" ry="1.338"/>
      <line style="fill: rgb(216, 216, 216); stroke: rgb(0, 0, 0);" x1="60.949" y1="95.16" x2="60.847" y2="98.119"/>
      <line style="fill: rgb(216, 216, 216); stroke: rgb(0, 0, 0);" x1="63.509" y1="95.16" x2="63.407" y2="98.119"/>
      <text style="fill: rgb(51, 51, 51); font-family: &quot;Baloo Bhaijaan&quot;; font-size: 8.9px; white-space: pre;" x="45.072" y="110.82">DNS</text>
      <line style="fill: rgb(216, 216, 216); stroke: rgb(0, 0, 0);" x1="41.24" y1="101.118" x2="65.125" y2="101.271"/>
      <line style="fill: rgb(216, 216, 216); stroke: rgb(0, 0, 0);" x1="53.513" y1="115.072" x2="53.403" y2="118.738"/>
      <line style="fill: rgb(216, 216, 216); stroke: rgb(0, 0, 0);" x1="40.222" y1="118.535" x2="67.111" y2="118.738"/>
      <ellipse style="stroke: rgb(0, 0, 0); stroke-width: 0.7px; fill: rgb(255, 255, 255);" cx="53.412" cy="118.306" rx="1.694" ry="1.694"/>
    </g>
    <g transform="matrix(1.063451, 0, 0, 1.063451, -1.904018, 7.385922)" style="">
      <g transform="matrix(0.82363, 0, 0, 0.82363, 19.131798, 12.905859)">
        <ellipse style="stroke: rgb(0, 0, 0); fill: none;" cx="107.982" cy="96.676" rx="12.018" ry="12.018"/>
        <ellipse style="stroke: rgb(0, 0, 0); fill: none;" cx="107.982" cy="96.676" rx="6.515" ry="12.018"/>
        <path d="M 118.643 91.175 C 116.638 92.593 112.616 93.561 107.982 93.561 C 103.348 93.561 99.326 92.593 97.321 91.175" style="stroke: rgb(0, 0, 0); fill: none;"/>
        <line style="fill: rgb(216, 216, 216); stroke: rgb(0, 0, 0); transform-box: fill-box; transform-origin: 50% 50%;" x1="107.719" y1="108.694" x2="107.843" y2="84.691" transform="matrix(-1, 0, 0, -1, -0.000014, -0.000009)"/>
      </g>
      <rect x="95.507" y="91.529" width="24.709" height="23.285" rx="5" ry="5" style="stroke: rgb(0, 0, 0); fill: rgb(255, 255, 255);"/>
      <ellipse style="stroke: rgb(0, 0, 0); fill: none; stroke-width: 0.7px;" cx="99.352" cy="96.781" rx="1.338" ry="1.338"/>
      <ellipse style="stroke: rgb(0, 0, 0); fill: none; stroke-width: 0.7px;" cx="103.007" cy="96.781" rx="1.338" ry="1.338"/>
      <line style="fill: rgb(216, 216, 216); stroke: rgb(0, 0, 0);" x1="115.407" y1="95.16" x2="115.305" y2="98.119"/>
      <line style="fill: rgb(216, 216, 216); stroke: rgb(0, 0, 0);" x1="117.967" y1="95.16" x2="117.865" y2="98.119"/>
      <text style="fill: rgb(51, 51, 51); font-family: &quot;Baloo Bhaijaan&quot;; font-size: 8.9px; white-space: pre;" x="97.059" y="110.82">DHCP</text>
      <line style="fill: rgb(216, 216, 216); stroke: rgb(0, 0, 0);" x1="95.699" y1="101.118" x2="119.583" y2="101.271"/>
      <line style="fill: rgb(216, 216, 216); stroke: rgb(0, 0, 0);" x1="107.972" y1="115.072" x2="107.861" y2="118.738"/>
      <line style="fill: rgb(216, 216, 216); stroke: rgb(0, 0, 0);" x1="94.681" y1="118.535" x2="121.569" y2="118.738"/>
      <ellipse style="stroke: rgb(0, 0, 0); stroke-width: 0.7px; fill: rgb(255, 255, 255);" cx="107.87" cy="118.306" rx="1.694" ry="1.694"/>
    </g>
  </g>
  <linearGradient id="a" gradientUnits="userSpaceOnUse" x1="7.925993107" x2="204.05312733504" y1="58.61002299265" y2="58.61002299265">
    <stop offset="0" stop-color="#12b212"/>
    <stop offset="1" stop-color="#0f0"/>
  </linearGradient>
  <g stroke-width="2.924652" transform="matrix(0.211215, 0, 0, 0.211215, 47.721008, 15.000001)" style="">
    <path d="m106.92545 116.78134c-47.437847-5.05965-95.226656-40.915875-98.9994567-116.78134 73.6134837 0 112.9792967 43.57731 116.7813467 112.62834 13.92134-82.826139 79.17032-73.116296 79.17032-73.116296 3.10013 46.94066-35.44678 75.397526-79.17032 77.766486-12.28354-25.883164-85.867778-89.377353-85.867778-89.377353a.20472562.20472562 0 0 0 -.321712.233972s71.01054 61.856384 68.4076 88.646191" fill="url(#a)"/>
    <path d="m129.15281 380c-4.59171-.26322-47.437854-1.90103-50.040794-50.0408-2.10575-29.24651 20.998994-50.8012 20.998994-79.19956-5.235122-70.80582-100.11082279-62.03187-100.11082279 0a58.317555 58.317555 0 0 0 17.05071979 41.35457l70.688831 70.71808a58.317555 58.317555 0 0 0 41.354572 17.05072" fill="#980200"/>
    <path d="m258.30543 250.78888c-.26322 4.59171-1.90103 47.43785-50.0408 50.04079-29.24651 2.10575-50.83044-20.999-79.19956-20.999-70.805821 5.23513-62.031866 100.08159 0 100.08159a58.317555 58.317555 0 0 0 41.35457-17.05072l70.74733-70.68884a58.317555 58.317555 0 0 0 17.05072-41.35457" fill="#f00"/>
    <path d="m129.15281 121.63626c4.5917.26322 47.43785 1.90103 50.04079 50.04079 2.10575 29.24652-20.999 50.8012-20.999 79.19957 5.23512 70.80582 100.08158 62.03187 100.08158 0a58.317555 58.317555 0 0 0 -17.05072-41.35457l-70.71808-70.74733a58.317555 58.317555 0 0 0 -41.35457-17.05072" fill="#980200"/>
    <path d="m.23415935 250.78888c.26321865-4.5917 1.90102365-47.43785 50.04079065-50.04079 29.246517-2.10575 50.83045 20.999 79.19957 20.999 70.80582-5.32286 62.03186-100.08158 0-100.08158a58.317555 58.317555 0 0 0 -41.354577 17.05072l-70.747325 70.71808a58.317555 58.317555 0 0 0 -17.0507191 41.35457" fill="#f00"/>
  </g>
</svg>