<?xml version="1.0" encoding="utf-8"?>
<svg height="100%" style="fill-rule:evenodd;clip-rule:evenodd;stroke-linecap:round;stroke-linejoin:round;" width="100%" version="1.1" viewBox="0 0 150 150" xmlns="http://www.w3.org/2000/svg" xmlns:bx="https://boxy-svg.com">
  <defs>
    <bx:grid x="0" y="0" width="15" height="15"/>
  </defs>
  <rect width="120" height="120" style="fill: none; stroke-width: 0.2px; stroke: rgb(84, 84, 84); pointer-events: none; visibility: hidden;" x="15" y="15" bx:origin="0.5 0.5"/>
  <g transform="matrix(0.203387, 0, 0, 0.203387, -18.070566, 105.247871)" style="">
    <path d="M 200.154 107.834 L 175.279 80.475 C 176.249 79.506 177.366 78.756 178.644 78.198 C 179.922 77.64 181.304 77.36 182.773 77.36 C 184.345 77.375 185.77 77.684 187.078 78.286 C 188.386 78.889 189.517 79.726 190.472 80.784 L 200.14 91.348 L 209.749 80.784 C 210.748 79.726 211.909 78.889 213.216 78.286 C 214.539 77.684 215.964 77.375 217.507 77.36 C 218.976 77.375 220.357 77.654 221.635 78.198 C 222.914 78.756 224.045 79.506 225 80.475 L 200.154 107.834 M 200.154 112.006 L 175.279 139.364 C 176.249 140.334 177.366 141.083 178.644 141.642 C 179.922 142.2 181.304 142.479 182.773 142.479 C 184.316 142.465 185.741 142.156 187.063 141.554 C 188.386 140.951 189.546 140.114 190.531 139.056 L 200.14 128.492 L 209.808 139.056 C 210.763 140.114 211.894 140.951 213.202 141.554 C 214.509 142.156 215.935 142.465 217.507 142.479 C 218.976 142.465 220.357 142.185 221.635 141.642 C 222.914 141.083 224.045 140.334 225 139.364 L 200.154 112.006" style=""/>
    <path d="M 198.053 109.883 L 179.32 89.342 C 178.232 88.182 176.969 87.271 175.514 86.595 C 174.074 85.934 172.502 85.596 170.827 85.581 C 169.211 85.596 167.698 85.904 166.302 86.507 C 164.891 87.109 163.672 87.946 162.614 88.99 L 181.612 109.883 L 162.599 130.776 C 163.657 131.863 164.891 132.716 166.287 133.333 C 167.698 133.95 169.196 134.258 170.813 134.258 C 172.502 134.244 174.074 133.906 175.529 133.245 C 176.984 132.583 178.247 131.658 179.305 130.497 L 198.053 109.883 M 202.226 109.883 L 220.959 130.497 C 222.017 131.658 223.281 132.569 224.735 133.245 C 226.19 133.906 227.762 134.244 229.452 134.258 C 231.068 134.244 232.581 133.935 233.977 133.333 C 235.388 132.716 236.607 131.878 237.665 130.776 L 218.667 109.883 L 237.68 88.99 C 236.622 87.932 235.388 87.109 233.992 86.507 C 232.581 85.904 231.083 85.596 229.466 85.581 C 227.791 85.596 226.219 85.934 224.779 86.595 C 223.34 87.256 222.061 88.182 220.974 89.342 L 202.226 109.883" style="fill: rgb(229, 112, 0);"/>
  </g>
  <g id="text3223" style="font: 387.522px / 125% Helion; text-align: start; letter-spacing: 0px; word-spacing: 0px; writing-mode: lr-tb; text-anchor: start; fill: rgb(0, 0, 0); fill-opacity: 1; stroke: none;" transform="matrix(0.045854, 0, 0, 0.045854, 72.060143, 133.55072)">
    <path id="path3354" d="m -686.1811,-262.38737 -177.87034,0 c -6.9834,0.19403 -12.87689,2.71288 -17.68048,7.55658 -4.8036,4.84422 -7.30631,10.85073 -7.50813,18.01955 l 0,245.6858223 c 19.0852,-0.4763289 34.97338,-7.080262 47.6646,-19.8118193 12.69112,-12.731517 19.2789,-28.732724 19.76337,-48.003669 l 135.63098,0 c 19.28682,-0.476261 35.35261,-7.080194 48.19742,-19.811819 12.84432,-12.73145 19.51284,-28.732655 20.00558,-48.003665 l 0,-67.42798 c -0.49274,-19.28682 -7.16125,-35.35262 -20.00557,-48.19744 -12.84482,-12.84432 -28.91061,-19.51283 -48.19743,-20.00556 z m -135.63098,144.15635 0,-75.95335 118.96774,0 c 0.69411,-0.34694 3.47131,0.34736 8.33161,2.08291 4.85991,1.73595 7.63712,6.59605 8.33163,14.58033 l 0,42.23936 c 0.34694,0.7106 -0.34736,3.55238 -2.08291,8.52538 -1.73595,4.97326 -6.59606,7.81505 -14.58033,8.52537 z"/>
    <path id="path3356" d="m -308.04521,-143.41963 0,-50.76474 c -0.4766,-19.28682 -7.08053,-35.35262 -19.81182,-48.19744 -12.73179,-12.84432 -28.733,-19.51283 -48.00367,-20.00556 l -177.87034,0 c -7.15293,0.19403 -13.09485,2.71288 -17.82578,7.55658 -4.73095,4.84422 -7.18522,10.85073 -7.36283,18.01955 l 0,245.6858223 c 19.10135,-0.4763289 35.05412,-7.080262 47.85836,-19.8118193 12.80414,-12.731517 19.45651,-28.732724 19.95713,-48.003669 l 0,-17.050751 77.1159,0 39.13922,55.802459 c 6.28082,9.009794 14.16033,16.0819732 23.63854,21.2165595 9.47781,5.1346021 20.06993,7.7503397 31.77641,7.8472208 5.64296,-0.00808 11.11663,-0.6700872 16.42102,-1.9860337 5.30388,-1.3159425 10.29316,-3.2373765 14.96786,-5.7643078 l -54.63991,-77.8909318 c 15.83952,-3.431052 28.82133,-11.197535 38.94546,-23.299469 10.12362,-12.10172 15.3551,-26.55286 15.69445,-43.35347 z m -203.05895,8.13786 0,-58.9026 118.19271,0 c 0.71026,-0.34694 3.55205,0.34736 8.52537,2.08291 4.97294,1.73595 7.81473,6.59605 8.52538,14.58033 l 0,25.57613 c 0.35502,0.69445 -0.35543,3.47166 -2.13135,8.33161 -1.77632,4.86025 -6.74945,7.63746 -14.9194,8.33162 z"/>
    <path id="path3358" d="m -66.297193,-262.38737 -135.243457,0 c -19.27095,0.49275 -35.27217,7.16126 -48.00368,20.00558 -12.73156,12.84481 -19.33549,28.91061 -19.81181,48.19742 l 0,135.243464 c 0.47632,19.270945 7.08025,35.272154 19.81181,48.003675 12.73152,12.731561 28.73273,19.3354921 48.00368,19.8118133 l 135.243457,0 C -47.026519,8.3982534 -31.02531,1.7943203 -18.293518,-10.937237 -5.5622279,-23.668754 1.0417033,-39.669961 1.5182953,-58.940906 l 0,-135.243464 c -0.4765997,-19.28682 -7.0805328,-35.35262 -19.8118193,-48.19744 -12.731788,-12.84432 -28.732995,-19.51283 -48.003669,-20.00556 z m 0,186.395713 c 0.355023,0.710536 -0.355427,3.552325 -2.13135,8.525376 -1.776324,4.973203 -6.749453,7.814992 -14.919401,8.525375 l -101.141956,0 c -0.71053,0.355294 -3.55232,-0.355156 -8.52538,-2.13135 -4.97321,-1.776054 -7.815,-6.749182 -8.52537,-14.919401 l 0,-101.529473 c -0.3553,-0.69411 0.35515,-3.47132 2.13134,-8.33162 1.77604,-4.85992 6.74918,-7.63712 14.91941,-8.33162 l 101.141956,0 c 0.710265,-0.34694 3.552054,0.34736 8.525376,2.08291 4.972932,1.73595 7.814721,6.59605 8.525375,14.58033 z"/>
    <path id="path3360" style="fill:#e57000;fill-opacity:1" d="m 343.24581,-243.01152 c -5.87764,-5.87708 -12.72377,-10.49499 -20.5384,-13.85374 -7.8152,-3.35821 -16.2114,-5.06974 -25.18861,-5.13459 -9.55093,0.0729 -18.35079,1.96208 -26.3996,5.66744 -8.04928,3.70589 -15.00843,8.79205 -20.87749,15.25848 l -58.51508,64.32783 -58.90259,-64.32783 c -6.02275,-6.63598 -12.96576,-11.77058 -20.82905,-15.40381 -7.86343,-3.6327 -16.550262,-5.47341 -26.060517,-5.52211 -8.977519,0.0649 -17.373714,1.77639 -25.18861,5.1346 -7.814936,3.35874 -14.661064,7.97665 -20.538405,13.85373 L 145.99962,-126.75639 40.207458,-10.501271 c 5.877333,6.0630371 12.723461,10.79396706 20.538405,14.1928038 7.814904,3.398847 16.211099,5.1265285 25.18861,5.1830495 9.381091,-0.072659 18.132507,-1.9618037 26.254287,-5.6674401 8.12163,-3.70562508 15.12923,-8.7917806 21.0228,-15.2584822 l 58.51507,-64.327834 58.51508,64.327834 c 5.86906,6.4667016 12.82821,11.55285519 20.87749,15.2584764 8.04881,3.7056326 16.84867,5.5947793 26.3996,5.6674459 8.97721,-0.056513 17.3734,-1.7841929 25.18861,-5.1830438 7.81464,-3.39884052 14.66077,-8.1297724 20.5384,-14.1928095 L 237.45365,-126.75639 z"/>
    <path id="path3362" d="m 695.81803,-262.38737 -42.62688,0 c -13.94281,0.19403 -26.35949,3.97232 -37.25008,11.33487 -10.89107,7.36308 -19.14194,17.14787 -24.75266,29.35442 l 0.38752,-0.77503 -39.91426,87.57886 -39.52674,-87.57886 0,0.77503 c -5.44152,-12.20655 -13.64395,-21.99134 -24.60734,-29.35442 -10.96359,-7.36256 -23.42871,-11.14084 -37.39539,-11.33487 l -42.23936,0 c -7.33862,0.19403 -13.39357,2.71288 -18.16487,7.55658 -4.77131,4.84422 -7.24173,10.85073 -7.41126,18.01955 l 0,245.6858223 c 19.10135,-0.4763289 35.05411,-7.080262 47.85835,-19.8118193 12.80415,-12.731517 19.45652,-28.732724 19.95714,-48.003669 l 0,-129.818224 c 0.0241,-1.76784 0.55699,-3.17259 1.59851,-4.21425 1.04138,-1.04125 2.44613,-1.57408 4.21425,-1.5985 1.00908,0.0325 1.99402,0.35542 2.95482,0.96878 0.96064,0.61377 1.65494,1.32422 2.0829,2.13135 l 75.17831,165.857313 c 1.42074,2.962919 3.51979,5.368749 6.29715,7.217496 2.77705,1.848803 5.84489,2.801451 9.20353,2.857948 3.33409,-0.04034 6.35349,-0.928394 9.05821,-2.664177 2.70436,-1.73573 4.85185,-4.076977 6.44248,-7.02375 l 75.17831,-166.24483 c 0.58909,-0.80712 1.34797,-1.51757 2.27666,-2.13135 0.92817,-0.61337 1.97769,-0.9363 3.14858,-0.96878 1.5821,0.0244 2.87382,0.55726 3.87517,1.59851 1.00081,1.04165 1.5175,2.4464 1.55007,4.21424 l 0,129.818224 c 0.50027,19.270945 7.15264,35.272154 19.95712,48.003675 12.8039,12.731561 28.75667,19.3354921 47.85836,19.8118133 l 0,-245.6858223 c -0.17794,-7.16882 -2.63221,-13.17533 -7.36282,-18.01955 -4.73127,-4.8437 -10.67319,-7.36255 -17.82578,-7.55658 z"/>
    <path id="path3364" d="m 963.0584,-262.38737 -135.24346,0 c -19.27095,0.49275 -35.27216,7.16126 -48.00368,20.00558 -12.73156,12.84481 -19.33549,28.91061 -19.81181,48.19742 l 0,135.243464 c 0.47632,19.270945 7.08025,35.272154 19.81181,48.003675 12.73153,12.731561 28.73273,19.3354921 48.00368,19.8118133 l 135.24346,0 c 19.27067,-0.4763289 35.27188,-7.080262 48.0037,-19.8118193 12.7313,-12.731517 19.3352,-28.732724 19.8118,-48.003669 l 0,-135.243464 c -0.4766,-19.28682 -7.0805,-35.35262 -19.8118,-48.19744 -12.73182,-12.84432 -28.73303,-19.51283 -48.0037,-20.00556 z m 0,186.395713 c 0.35502,0.710536 -0.35543,3.552325 -2.13135,8.525376 -1.77633,4.973203 -6.74946,7.814992 -14.9194,8.525375 l -101.14196,0 c -0.71053,0.355294 -3.55232,-0.355156 -8.52538,-2.13135 -4.97321,-1.776054 -7.815,-6.749182 -8.52537,-14.919401 l 0,-101.529473 c -0.35529,-0.69411 0.35515,-3.47132 2.13134,-8.33162 1.77604,-4.85992 6.74918,-7.63712 14.91941,-8.33162 l 101.14196,0 c 0.71026,-0.34694 3.55205,0.34736 8.52537,2.08291 4.97293,1.73595 7.81472,6.59605 8.52538,14.58033 z"/>
    <path id="path3366" style="fill:#e57000;fill-opacity:1" d="m 1372.6013,-243.01152 c -5.8777,-5.87708 -12.7238,-10.49499 -20.5384,-13.85374 -7.8152,-3.35821 -16.2114,-5.06974 -25.1886,-5.13459 -9.551,0.0729 -18.3508,1.96208 -26.3996,5.66744 -8.0493,3.70589 -15.0085,8.79205 -20.8775,15.25848 l -58.5151,64.32783 -58.9026,-64.32783 c -6.0227,-6.63598 -12.9658,-11.77058 -20.829,-15.40381 -7.8635,-3.6327 -16.5503,-5.47341 -26.0606,-5.52211 -8.9775,0.0649 -17.3737,1.77639 -25.1886,5.1346 -7.8149,3.35874 -14.661,7.97665 -20.5384,13.85373 l 105.7922,116.25513 -105.7922,116.255119 c 5.8774,6.0630371 12.7235,10.79396706 20.5384,14.1928038 7.8149,3.398847 16.2111,5.1265285 25.1886,5.1830495 9.3811,-0.072659 18.1326,-1.9618037 26.2543,-5.6674401 8.1217,-3.70562508 15.1293,-8.7917806 21.0228,-15.2584822 l 58.5151,-64.327834 58.5151,64.327834 c 5.869,6.4667016 12.8282,11.55285519 20.8775,15.2584764 8.0488,3.7056326 16.8486,5.5947793 26.3996,5.6674459 8.9772,-0.056513 17.3734,-1.7841929 25.1886,-5.1830438 7.8146,-3.39884052 14.6607,-8.1297724 20.5384,-14.1928095 L 1266.8091,-126.75639 z"/>
  </g>
  <linearGradient id="gradient-1" gradientUnits="userSpaceOnUse" x1="75.5039" y1="11.96" x2="85.5969" y2="36.3307" gradientTransform="matrix(1, 0, 0, 1, 0, 0)">
    <stop offset="0" style="stop-color:#F99D77"/>
    <stop offset="1" style="stop-color:#F7804E"/>
  </linearGradient>
  <linearGradient id="gradient-2" gradientUnits="userSpaceOnUse" x1="37.6743" y1="25.6035" x2="37.6743" y2="47.5006" gradientTransform="matrix(1, 0, 0, 1, 0, 0)">
    <stop offset="0" style="stop-color:#FCB462"/>
    <stop offset="1" style="stop-color:#FCAF55"/>
  </linearGradient>
  <g transform="matrix(0.474304, 0, 0, 0.474304, 14.99996, 29.288544)" style="">
    <path style="opacity:0.2;fill-rule:evenodd;clip-rule:evenodd;fill:#141414;" d="M 51.868 84.936 C 45.459 79.297 41.784 71.221 41.784 62.78 C 41.784 54.276 45.498 46.164 51.974 40.523 C 52.339 40.204 52.419 39.667 52.16 39.256 L 42.036 23.192 C 41.888 22.958 41.648 22.796 41.375 22.748 C 41.102 22.7 40.819 22.769 40.602 22.937 C 32.334 29.305 26.119 38.265 23.1 48.167 C 22.982 48.554 23.112 48.974 23.431 49.226 C 27.586 52.517 30.066 57.583 30.066 62.779 C 30.066 67.975 27.585 73.043 23.429 76.334 C 23.112 76.585 22.98 77.004 23.098 77.392 C 26.093 87.211 32.238 96.12 40.404 102.474 C 40.623 102.645 40.903 102.715 41.177 102.667 C 41.45 102.62 41.691 102.459 41.84 102.226 L 52.049 86.204 C 52.309 85.794 52.232 85.256 51.868 84.936 Z M 12.803 50.223 C 5.732 50.223 0 55.951 0 63.016 C 0 70.081 5.732 75.81 12.803 75.81 C 19.874 75.81 25.606 70.081 25.606 63.016 C 25.606 55.951 19.874 50.223 12.803 50.223 Z M 58.779 35.162 C 59.036 35.57 59.551 35.732 59.996 35.545 C 63.75 33.958 67.65 33.153 71.586 33.153 C 86.064 33.153 98.693 43.887 100.963 58.122 C 101.039 58.6 101.451 58.951 101.934 58.951 L 121.014 58.98 C 121.292 58.98 121.557 58.863 121.744 58.657 C 121.931 58.451 122.021 58.178 121.995 57.9 C 120.967 47.338 116.471 37.15 109.336 29.215 C 109.014 28.855 108.477 28.783 108.07 29.046 C 105.193 30.904 101.925 31.888 98.623 31.888 C 88.99 31.888 81.154 24.098 81.153 14.524 C 81.154 14.519 81.172 14.158 81.172 14.142 C 81.172 13.665 80.829 13.254 80.356 13.172 C 77.344 12.65 74.394 12.284 71.586 12.284 C 63.875 12.284 56.084 14.221 49.054 17.695 C 48.804 17.819 48.618 18.043 48.543 18.311 C 48.467 18.579 48.509 18.866 48.657 19.102 L 58.779 35.162 Z M 98 27.5 C 104.908 27.5 110.51 21.902 110.51 15 C 110.51 8.096 104.908 2.5 98 2.5 C 91.092 2.5 85.49 8.096 85.49 15 C 85.49 21.902 91.092 27.5 98 27.5 Z M 120.994 66.733 L 101.916 66.795 C 101.435 66.796 101.024 67.147 100.947 67.621 C 98.646 81.75 86.024 92.405 71.586 92.405 C 67.604 92.405 63.66 91.581 59.864 89.955 C 59.42 89.766 58.906 89.925 58.645 90.33 L 48.442 106.345 C 48.293 106.58 48.25 106.867 48.324 107.136 C 48.398 107.404 48.583 107.629 48.832 107.753 C 55.917 111.3 63.786 113.174 71.586 113.174 C 74.479 113.174 77.492 112.901 80.541 112.36 C 80.969 112.285 81.297 111.936 81.348 111.505 C 82.364 102.73 89.791 96.112 98.623 96.112 C 101.361 96.112 104.147 96.81 106.679 98.13 C 107.064 98.331 107.533 98.257 107.838 97.946 C 115.823 89.803 120.846 79.104 121.978 67.817 C 122.006 67.54 121.915 67.264 121.727 67.057 C 121.539 66.85 121.272 66.732 120.994 66.733 Z M 98.486 100.545 C 91.415 100.545 85.682 106.242 85.682 113.273 C 85.682 120.302 91.414 126.001 98.486 126.001 C 105.556 126.001 111.289 120.303 111.289 113.273 C 111.289 106.242 105.557 100.545 98.486 100.545 Z"/>
    <path style="opacity:0.2;fill-rule:evenodd;clip-rule:evenodd;fill:#141414;" d="M 51.868 85.936 C 45.459 80.297 41.784 72.221 41.784 63.78 C 41.784 55.276 45.498 47.164 51.974 41.523 C 52.339 41.204 52.419 40.667 52.16 40.256 L 42.036 24.192 C 41.888 23.958 41.648 23.796 41.375 23.748 C 41.102 23.7 40.819 23.769 40.602 23.937 C 32.334 30.305 26.119 39.265 23.1 49.167 C 22.982 49.554 23.112 49.974 23.431 50.226 C 27.586 53.517 30.066 58.583 30.066 63.779 C 30.066 68.975 27.585 74.043 23.429 77.334 C 23.112 77.585 22.98 78.004 23.098 78.392 C 26.093 88.211 32.238 97.12 40.404 103.474 C 40.623 103.645 40.903 103.715 41.177 103.667 C 41.45 103.62 41.691 103.459 41.84 103.226 L 52.049 87.204 C 52.309 86.794 52.232 86.256 51.868 85.936 Z M 12.803 51.223 C 5.732 51.223 0 56.951 0 64.016 C 0 71.081 5.732 76.81 12.803 76.81 C 19.874 76.81 25.606 71.081 25.606 64.016 C 25.606 56.951 19.874 51.223 12.803 51.223 Z M 58.779 36.162 C 59.036 36.57 59.551 36.732 59.996 36.545 C 63.75 34.958 67.65 34.153 71.586 34.153 C 86.064 34.153 98.693 44.887 100.963 59.122 C 101.039 59.6 101.451 59.951 101.934 59.951 L 121.014 59.98 C 121.292 59.98 121.557 59.863 121.744 59.657 C 121.931 59.451 122.021 59.178 121.995 58.9 C 120.967 48.338 116.471 38.15 109.336 30.215 C 109.014 29.855 108.477 29.783 108.07 30.046 C 105.193 31.904 101.925 32.888 98.623 32.888 C 88.99 32.888 81.154 25.098 81.153 15.524 C 81.154 15.519 81.172 15.158 81.172 15.142 C 81.172 14.665 80.829 14.254 80.356 14.172 C 77.344 13.65 74.394 13.284 71.586 13.284 C 63.875 13.284 56.084 15.221 49.054 18.695 C 48.804 18.819 48.618 19.043 48.543 19.311 C 48.467 19.579 48.509 19.866 48.657 20.102 L 58.779 36.162 Z M 98 28.5 C 104.908 28.5 110.51 22.902 110.51 16 C 110.51 9.096 104.908 3.5 98 3.5 C 91.092 3.5 85.49 9.096 85.49 16 C 85.49 22.902 91.092 28.5 98 28.5 Z M 120.994 67.733 L 101.916 67.795 C 101.435 67.796 101.024 68.147 100.947 68.621 C 98.646 82.75 86.024 93.405 71.586 93.405 C 67.604 93.405 63.66 92.581 59.864 90.955 C 59.42 90.766 58.906 90.925 58.645 91.33 L 48.442 107.345 C 48.293 107.58 48.25 107.867 48.324 108.136 C 48.398 108.404 48.583 108.629 48.832 108.753 C 55.917 112.3 63.786 114.174 71.586 114.174 C 74.479 114.174 77.492 113.901 80.541 113.36 C 80.969 113.285 81.297 112.936 81.348 112.505 C 82.364 103.73 89.791 97.112 98.623 97.112 C 101.361 97.112 104.147 97.81 106.679 99.13 C 107.064 99.331 107.533 99.257 107.838 98.946 C 115.823 90.803 120.846 80.104 121.978 68.817 C 122.006 68.54 121.915 68.264 121.727 68.057 C 121.539 67.85 121.272 67.732 120.994 67.733 Z M 98.486 101.545 C 91.415 101.545 85.682 107.242 85.682 114.273 C 85.682 121.302 91.414 127.001 98.486 127.001 C 105.556 127.001 111.289 121.303 111.289 114.273 C 111.289 107.242 105.557 101.545 98.486 101.545 Z"/>
    <path style="opacity:0.2;fill-rule:evenodd;clip-rule:evenodd;fill:#141414;" d="M 51.868 86.936 C 45.459 81.297 41.784 73.221 41.784 64.78 C 41.784 56.276 45.498 48.164 51.974 42.523 C 52.339 42.204 52.419 41.667 52.16 41.256 L 42.036 25.192 C 41.888 24.958 41.648 24.796 41.375 24.748 C 41.102 24.7 40.819 24.769 40.602 24.937 C 32.334 31.305 26.119 40.265 23.1 50.167 C 22.982 50.554 23.112 50.974 23.431 51.226 C 27.586 54.517 30.066 59.583 30.066 64.779 C 30.066 69.975 27.585 75.043 23.429 78.334 C 23.112 78.585 22.98 79.004 23.098 79.392 C 26.093 89.211 32.238 98.12 40.404 104.474 C 40.623 104.645 40.903 104.715 41.177 104.667 C 41.45 104.62 41.691 104.459 41.84 104.226 L 52.049 88.204 C 52.309 87.794 52.232 87.256 51.868 86.936 Z M 12.803 52.223 C 5.732 52.223 0 57.951 0 65.016 C 0 72.081 5.732 77.81 12.803 77.81 C 19.874 77.81 25.606 72.081 25.606 65.016 C 25.606 57.951 19.874 52.223 12.803 52.223 Z M 58.779 37.162 C 59.036 37.57 59.551 37.732 59.996 37.545 C 63.75 35.958 67.65 35.153 71.586 35.153 C 86.064 35.153 98.693 45.887 100.963 60.122 C 101.039 60.6 101.451 60.951 101.934 60.951 L 121.014 60.98 C 121.292 60.98 121.557 60.863 121.744 60.657 C 121.931 60.451 122.021 60.178 121.995 59.9 C 120.967 49.338 116.471 39.15 109.336 31.215 C 109.014 30.855 108.477 30.783 108.07 31.046 C 105.193 32.904 101.925 33.888 98.623 33.888 C 88.99 33.888 81.154 26.098 81.153 16.524 C 81.154 16.519 81.172 16.158 81.172 16.142 C 81.172 15.665 80.829 15.254 80.356 15.172 C 77.344 14.65 74.394 14.284 71.586 14.284 C 63.875 14.284 56.084 16.221 49.054 19.695 C 48.804 19.819 48.618 20.043 48.543 20.311 C 48.467 20.579 48.509 20.866 48.657 21.102 L 58.779 37.162 Z M 98 29.5 C 104.908 29.5 110.51 23.902 110.51 17 C 110.51 10.096 104.908 4.5 98 4.5 C 91.092 4.5 85.49 10.096 85.49 17 C 85.49 23.902 91.092 29.5 98 29.5 Z M 120.994 68.733 L 101.916 68.795 C 101.435 68.796 101.024 69.147 100.947 69.621 C 98.646 83.75 86.024 94.405 71.586 94.405 C 67.604 94.405 63.66 93.581 59.864 91.955 C 59.42 91.766 58.906 91.925 58.645 92.33 L 48.442 108.345 C 48.293 108.58 48.25 108.867 48.324 109.136 C 48.398 109.404 48.583 109.629 48.832 109.753 C 55.917 113.3 63.786 115.174 71.586 115.174 C 74.479 115.174 77.492 114.901 80.541 114.36 C 80.969 114.285 81.297 113.936 81.348 113.505 C 82.364 104.73 89.791 98.112 98.623 98.112 C 101.361 98.112 104.147 98.81 106.679 100.13 C 107.064 100.331 107.533 100.257 107.838 99.946 C 115.823 91.803 120.846 81.104 121.978 69.817 C 122.006 69.54 121.915 69.264 121.727 69.057 C 121.539 68.85 121.272 68.732 120.994 68.733 Z M 98.486 102.545 C 91.415 102.545 85.682 108.242 85.682 115.273 C 85.682 122.302 91.414 128.001 98.486 128.001 C 105.556 128.001 111.289 122.303 111.289 115.273 C 111.289 108.242 105.557 102.545 98.486 102.545 Z"/>
    <path style="fill:#F97A00;" d="M 40.602 21.938 C 32.334 28.306 26.119 37.266 23.1 47.168 C 22.982 47.555 23.112 47.975 23.431 48.227 C 27.586 51.518 30.066 56.584 30.066 61.78 C 30.066 66.976 27.585 72.044 23.429 75.335 C 23.112 75.586 22.98 76.005 23.098 76.393 C 26.093 86.212 32.238 95.121 40.404 101.475 C 40.623 101.646 40.903 101.716 41.177 101.668 C 41.45 101.621 41.691 101.46 41.84 101.227 L 52.049 85.205 C 52.31 84.796 52.234 84.258 51.869 83.937 C 45.46 78.298 41.785 70.222 41.785 61.781 C 41.785 53.277 45.499 45.165 51.975 39.524 C 52.34 39.205 52.42 38.668 52.161 38.257 L 42.036 22.192 C 41.888 21.958 41.648 21.796 41.375 21.748 C 41.102 21.7 40.819 21.769 40.602 21.938 Z"/>
    <path style="fill:#FB8B00;" d="M 24.042 47.455 C 28.431 50.932 31.051 56.219 31.051 61.779 C 31.051 67.339 28.43 72.628 24.04 76.104 C 26.991 85.785 32.981 94.45 41.008 100.697 C 42.028 99.097 50.449 85.879 51.217 84.674 C 44.602 78.854 40.799 70.574 40.799 61.779 C 40.799 52.92 44.642 44.603 51.327 38.78 C 50.565 37.572 42.215 24.322 41.203 22.717 C 33.076 28.978 27.018 37.694 24.042 47.455 Z"/>
    <ellipse style="fill-rule:evenodd;clip-rule:evenodd;fill:#F83011;" cx="12.803" cy="62.016" rx="12.803" ry="12.794"/>
    <path style="fill-rule:evenodd;clip-rule:evenodd;fill:#F83011;" d="M 0.984 62.016 C 0.984 68.528 6.286 73.827 12.802 73.827 C 19.318 73.827 24.62 68.528 24.62 62.016 C 24.62 55.504 19.318 50.206 12.802 50.206 C 6.286 50.206 0.984 55.504 0.984 62.016 Z"/>
    <path style="fill:#F13B00;" d="M 49.054 16.696 C 48.804 16.82 48.618 17.044 48.543 17.312 C 48.467 17.58 48.509 17.867 48.657 18.103 L 58.779 34.162 C 59.036 34.57 59.551 34.732 59.996 34.545 C 63.75 32.958 67.65 32.153 71.586 32.153 C 86.064 32.153 98.693 42.887 100.963 57.122 C 101.039 57.6 101.451 57.951 101.934 57.951 L 121.014 57.98 C 121.292 57.98 121.557 57.863 121.744 57.657 C 121.931 57.451 122.021 57.178 121.995 56.9 C 120.967 46.338 116.471 36.15 109.336 28.215 C 109.014 27.855 108.477 27.783 108.07 28.046 C 105.193 29.904 101.925 30.888 98.623 30.888 C 88.99 30.888 81.154 23.098 81.153 13.524 C 81.154 13.519 81.172 13.158 81.172 13.142 C 81.172 12.665 80.829 12.254 80.356 12.172 C 77.344 11.65 74.394 11.284 71.586 11.284 C 63.875 11.285 56.084 13.222 49.054 16.696 Z"/>
    <path style="fill:#F13B00;" d="M 49.491 17.578 C 50.527 19.223 58.856 32.437 59.613 33.639 C 63.439 32.022 67.458 31.17 71.587 31.17 C 86.704 31.17 99.583 42.205 101.937 56.968 C 103.373 56.97 119.109 56.993 121.017 56.996 C 120.004 46.605 115.636 36.693 108.606 28.873 C 105.609 30.81 102.191 31.872 98.625 31.872 C 88.449 31.872 80.17 23.641 80.17 13.523 C 80.17 13.523 80.18 13.313 80.189 13.142 C 77.356 12.65 74.471 12.268 71.588 12.268 C 63.928 12.269 56.327 14.199 49.491 17.578 Z"/>
    <ellipse style="fill-rule:evenodd;clip-rule:evenodd;fill:#E00916;" cx="98" cy="14" rx="12.51" ry="12.5"/>
    <path style="fill-rule:evenodd;clip-rule:evenodd;fill:#E56363;" d="M 86.992 14 C 86.992 20.065 91.93 25 98 25 C 104.07 25 109.008 20.065 109.008 14 C 109.008 7.935 104.07 3 98 3 C 91.93 3 86.992 7.935 86.992 14 Z"/>
    <path style="fill:#D40000;" d="M 120.994 65.733 L 101.916 65.795 C 101.435 65.796 101.024 66.147 100.947 66.621 C 98.646 80.75 86.024 91.405 71.586 91.405 C 67.604 91.405 63.66 90.581 59.864 88.955 C 59.42 88.766 58.906 88.925 58.645 89.33 L 48.442 105.345 C 48.293 105.58 48.25 105.867 48.324 106.136 C 48.398 106.404 48.583 106.629 48.832 106.753 C 55.917 110.3 63.786 112.174 71.586 112.174 C 74.479 112.174 77.492 111.901 80.541 111.36 C 80.969 111.285 81.297 110.936 81.348 110.505 C 82.364 101.73 89.791 95.112 98.623 95.112 C 101.361 95.112 104.147 95.81 106.679 97.13 C 107.064 97.331 107.533 97.257 107.838 96.946 C 115.823 88.803 120.846 78.104 121.978 66.817 C 122.006 66.54 121.915 66.264 121.727 66.057 C 121.539 65.85 121.272 65.732 120.994 65.733 Z"/>
    <ellipse style="fill-rule:evenodd;clip-rule:evenodd;fill:#FF7516;" cx="98.486" cy="112.272" rx="12.803" ry="12.728"/>
    <path style="fill-rule:evenodd;clip-rule:evenodd;fill:#FB9200;" d="M 86.844 112.272 C 86.844 118.651 92.067 123.841 98.487 123.841 C 104.907 123.841 110.13 118.651 110.13 112.272 C 110.13 105.893 104.907 100.703 98.487 100.703 C 92.067 100.703 86.844 105.894 86.844 112.272 Z"/>
    <path style="fill-rule: evenodd; clip-rule: evenodd; fill: url(#gradient-1);" d="M 49.785 17.67 C 50.008 18.024 59.527 33.127 59.695 33.395 C 63.548 31.791 67.547 30.969 71.586 30.969 C 78.265 30.969 84.635 33.086 90.02 37.08 C 90.155 37.07 103.667 36.099 103.667 36.099 C 103.667 36.099 112.654 35.447 113.294 35.4 C 111.865 33.167 110.392 31.264 108.67 29.337 C 105.639 31.256 102.097 32.173 98.623 32.173 C 88.337 32.173 79.969 23.752 79.969 13.525 C 79.969 13.519 79.973 13.418 79.979 13.318 C 77.094 12.827 74.27 12.47 71.586 12.47 C 64.13 12.469 56.6 14.34 49.785 17.67 Z"/>
    <path style="fill-rule: evenodd; clip-rule: evenodd; fill: url(#gradient-2);" d="M 24.274 47.396 C 26.599 49.268 28.451 51.682 29.658 54.398 C 34.14 51.488 38.459 49.95 43.889 47.772 C 45.598 44.761 48.481 41.04 51.074 38.755 C 50.915 38.503 41.39 23.39 41.155 23.017 C 33.202 29.201 27.214 37.844 24.274 47.396 Z"/>
    <path style="fill-rule:evenodd;clip-rule:evenodd;fill:#F88657;" d="M 23.732 58.691 C 22.313 53.996 17.948 50.566 12.794 50.566 C 6.493 50.566 1.367 55.689 1.367 61.985 C 1.367 66.015 3.469 69.565 6.633 71.597 C 11.926 67.035 17.919 62.755 23.732 58.691 Z"/>
  </g>
  <g fill="#D70751" transform="matrix(0.241015, 0, 0, 0.241015, 100.053192, 46.744778)" style="">
    <path d="M64.525 62.053c-4.125.058.78 2.125 6.165 2.954 1.488-1.161 2.838-2.336 4.04-3.479-3.354.821-6.765.838-10.205.525m22.14-5.52c2.457-3.389 4.246-7.102 4.878-10.939-.551 2.736-2.035 5.099-3.435 7.592-7.711 4.854-.726-2.883-.004-5.824-8.29 10.436-1.138 6.257-1.439 9.171m8.174-21.265c.497-7.428-1.462-5.08-2.121-2.245.766.4 1.377 5.237 2.121 2.245M48.883-66.264c2.201.395 4.757.698 4.398 1.224 2.407-.528 2.954-1.015-4.398-1.224"/>
    <path d="m53.281-65.04-1.556.32 1.448-.127.108-.193"/>
    <path d="M121.93 38.085c.247 6.671-1.95 9.907-3.932 15.637l-3.564 1.781c-2.919 5.666.282 3.598-1.807 8.105-4.556 4.049-13.823 12.67-16.789 13.457-2.163-.047 1.469-2.554 1.943-3.537-6.097 4.188-4.894 6.285-14.217 8.83l-.273-.607C60.29 92.569 28.344 71.129 28.765 41.875c-.246 1.857-.698 1.393-1.208 2.144-1.186-15.052 6.952-30.17 20.675-36.343 13.427-6.646 29.163-3.918 38.78 5.044C81.73 5.8 71.217-1.534 58.757-.848c-12.208.193-23.625 7.95-27.436 16.369-6.253 3.938-6.979 15.177-9.704 17.233-3.665 26.943 6.896 38.583 24.762 52.275 2.812 1.896.792 2.184 1.173 3.627-5.936-2.779-11.372-6.976-15.841-12.114 2.372 3.473 4.931 6.847 8.239 9.499-5.596-1.897-13.074-13.563-15.256-14.038 9.647 17.274 39.142 30.295 54.587 23.836-7.146.263-16.226.146-24.256-2.822-3.371-1.734-7.958-5.331-7.14-6.003 21.079 7.875 42.854 5.965 61.09-8.655 4.641-3.614 9.709-9.761 11.173-9.846-2.206 3.317.377 1.596-1.318 4.523 4.625-7.456-2.008-3.035 4.779-12.877l2.507 3.453c-.931-6.188 7.687-13.704 6.813-23.492 1.975-2.994 2.206 3.22.107 10.107 2.912-7.64.767-8.867 1.516-15.171.81 2.118 1.867 4.37 2.412 6.606-1.895-7.382 1.948-12.433 2.898-16.724-.937-.415-2.928 3.264-3.383-5.457.065-3.788 1.054-1.985 1.435-2.917-.744-.427-2.694-3.33-3.88-8.9.86-1.308 2.3 3.393 3.47 3.586-.753-4.429-2.049-7.805-2.103-11.202-3.421-7.149-1.211.953-3.985-3.069-3.641-11.357 3.021-2.637 3.47-7.796 5.52 7.995 8.667 20.387 10.11 25.519-1.103-6.258-2.883-12.32-5.058-18.185 1.677.705-2.699-12.875 2.18-3.882-5.21-19.172-22.302-37.087-38.025-45.493 1.924 1.76 4.354 3.971 3.481 4.317-7.819-4.656-6.444-5.018-7.565-6.985-6.369-2.591-6.788.208-11.007.004-12.005-6.368-14.318-5.69-25.368-9.681l.502 2.349c-7.953-2.649-9.265 1.005-17.862.009-.523-.409 2.753-1.479 5.452-1.871-7.69 1.015-7.329-1.515-14.854.279 1.855-1.301 3.815-2.162 5.793-3.269-6.271.381-14.971 3.649-12.286.677C20.144-62.46 1.976-56.053-8.218-46.494l-.321-2.142c-4.672 5.608-20.371 16.748-21.622 24.011l-1.249.291c-2.431 4.116-4.004 8.781-5.932 13.016-3.18 5.417-4.661 2.085-4.208 2.934-6.253 12.679-9.359 23.332-12.043 32.069 1.912 2.858.046 17.206.769 28.688-3.141 56.709 39.8 111.77 86.737 124.48 6.88 2.459 17.11 2.364 25.813 2.618-10.268-2.937-11.595-1.556-21.595-5.044-7.215-3.398-8.797-7.277-13.907-11.711l2.022 3.573c-10.021-3.547-5.829-4.39-13.982-6.972l2.16-2.82c-3.249-.246-8.604-5.475-10.069-8.371l-3.553.14c-4.27-5.269-6.545-9.063-6.379-12.005l-1.148 2.047c-1.301-2.235-15.709-19.759-8.234-15.679-1.389-1.271-3.235-2.067-5.237-5.703l1.522-1.739c-3.597-4.627-6.621-10.562-6.391-12.536 1.919 2.592 3.25 3.075 4.568 3.52-9.083-22.539-9.593-1.242-16.474-22.942l1.456-.116c-1.116-1.682-1.793-3.506-2.69-5.298l.633-6.313c-6.541-7.562-1.829-32.151-.887-45.637.655-5.485 5.459-11.322 9.114-20.477l-2.227-.384C-27.316-2.419-7.271-24.81 2.011-23.658c4.499-5.649-.892-.02-1.772-1.443 9.878-10.223 12.984-7.222 19.65-9.061 7.19-4.268-6.17 1.664-2.761-1.628 12.427-3.174 8.808-7.216 25.021-8.828 1.71.973-3.969 1.503-5.395 2.766 10.354-5.066 32.769-3.914 47.326 2.811 16.895 7.896 35.873 31.232 36.622 53.189l.852.229c-.431 8.729 1.336 18.822-1.727 28.094l2.1-4.385"/>
    <path d="m19.5 67.715-.578 2.893c2.71 3.683 4.861 7.673 8.323 10.552-2.49-4.863-4.341-6.872-7.745-13.445m6.409-.251c-1.435-1.587-2.284-3.497-3.235-5.4.909 3.345 2.771 6.219 4.504 9.143l-1.269-3.743m113.411-24.65-.605 1.52c-1.111 7.892-3.511 15.701-7.189 22.941 4.06-7.639 6.69-15.995 7.79-24.461M49.698-68.243c2.789-1.022 6.855-.56 9.814-1.233-3.855.324-7.693.517-11.484 1.005l1.67.228m-97.917 52.067c.642 5.951-4.477 8.26 1.134 4.337 3.007-6.773-1.175-1.87-1.134-4.337m-6.593 27.538c1.292-3.967 1.526-6.349 2.02-8.645-3.571 4.566-1.643 5.539-2.02 8.645"/>
  </g>
</svg>