<?xml version="1.0" encoding="utf-8"?>
<svg height="100%" style="fill-rule:evenodd;clip-rule:evenodd;stroke-linecap:round;stroke-linejoin:round;" width="100%" version="1.1" viewBox="0 0 150 150" xmlns="http://www.w3.org/2000/svg" xmlns:bx="https://boxy-svg.com">
  <defs>
    <bx:grid x="0" y="0" width="15" height="15"/>
  </defs>
  <rect width="120" height="120" style="fill: none; stroke-width: 0.2px; stroke: rgb(84, 84, 84); pointer-events: none; visibility: hidden;" x="15" y="15"/>
  <g transform="matrix(0.392062, 0, 0, 0.392062, 24.815741, 15.401999)" style="">
    <path d="M256,66.2798805 C255.732226,29.407965 224.97426,0 188.102344,0 L67.9587024,0 C31.3658737,0 0.718243862,28.9471472 0.0107911615,65.5529567 C-0.311290753,83.4942468 6.58801396,100.81275 19.1587608,113.617825 C31.7295076,126.422901 48.9176477,133.640851 66.8618262,133.650147 L120.537366,133.650147 C122.336578,133.703566 123.864732,134.983121 124.233453,136.744956 C124.602173,138.506791 123.715367,140.291754 122.08857,141.062174 L39.803383,177.129281 C15.4634407,187.918888 -0.163474983,212.112443 0.0107911615,238.73608 C0.289878007,275.614486 31.0283733,305.048412 67.9132696,305.048412 L96.068589,305.048412 C133.213101,305.048412 164.139818,275.257514 164.081404,238.113002 C164.005483,210.900319 147.457442,186.443911 122.224868,176.253078 C120.793328,175.662566 119.854038,174.272824 119.839884,172.724338 C119.825729,171.175852 120.739458,169.769172 122.159964,169.15259 L216.270644,127.886679 C240.586348,117.078867 256.185616,92.8886603 256,66.2798805 Z" fill="#000000"/>
  </g>
</svg>