<?xml version="1.0" encoding="utf-8"?>
<svg height="100%" style="fill-rule:evenodd;clip-rule:evenodd;stroke-linecap:round;stroke-linejoin:round;" width="100%" version="1.1" viewBox="0 0 150 150" xmlns="http://www.w3.org/2000/svg" xmlns:bx="https://boxy-svg.com">
  <defs>
    <bx:grid x="0" y="0" width="15" height="15"/>
  </defs>
  <rect width="120" height="120" style="fill: none; stroke-width: 0.2px; stroke: rgb(84, 84, 84); pointer-events: none; visibility: hidden;" x="15" y="15" bx:origin="0.5 0.5"/>
  <g transform="matrix(1.413279, 0, 0, 1.413279, -121.42318, 26.02676)" style="">
    <path d="M 148.566 24.246 L 140.279 32.533 C 139.502 33.31 138.466 33.31 137.948 32.533 L 129.66 24.246 C 128.883 23.469 128.883 22.433 129.66 21.915 L 137.948 13.627 C 138.725 12.85 139.761 12.85 140.279 13.627 L 148.566 21.915 C 149.343 22.433 149.343 23.469 148.566 24.246 Z" fill="#fa7e00" style=""/>
    <path d="M 113.345 16.218 L 111.014 18.548 L 110.497 19.067 L 109.202 20.361 C 107.907 21.656 107.907 23.728 109.202 25.023 L 110.497 26.317 L 111.014 26.835 L 125.258 41.079 L 126.035 41.079 L 126.035 29.166 L 120.596 23.728 C 119.819 22.951 119.819 21.915 120.596 21.397 L 126.035 16.218 Z M 132.251 48.589 L 134.581 50.92 L 135.1 51.438 L 136.394 52.733 C 137.689 54.028 139.761 54.028 141.056 52.733 L 142.35 51.438 L 142.868 50.92 L 157.112 36.676 L 157.112 35.899 L 145.199 35.899 L 139.761 41.338 C 138.984 42.115 137.948 42.115 137.43 41.338 L 132.251 35.899 Z M 164.622 29.684 L 166.953 27.354 L 167.471 26.835 L 168.766 25.54 C 170.061 24.246 170.061 22.174 168.766 20.879 L 167.471 19.584 L 166.953 19.067 L 152.709 4.823 L 151.932 4.823 L 151.932 16.735 L 157.371 22.174 C 158.148 22.951 158.148 23.987 157.371 24.505 L 151.932 29.684 L 151.932 29.943 L 164.622 29.943 Z M 145.717 -2.688 L 143.387 -5.019 L 142.868 -5.536 L 141.573 -6.831 C 140.279 -8.126 138.207 -8.126 136.912 -6.831 L 135.617 -5.536 L 135.1 -5.019 L 120.338 9.225 L 120.338 10.002 L 132.251 10.002 L 137.689 4.563 C 138.466 3.786 139.502 3.786 140.02 4.563 L 145.717 10.002 L 145.976 10.002 L 145.976 -2.688 Z" fill="#00bcfb" style=""/>
    <path d="M 125.017 76.826 L 113.647 76.826 L 113.647 75.196 L 119.397 68.806 C 120.084 68.039 120.62 67.386 121.007 66.846 C 121.394 66.306 121.66 65.813 121.807 65.366 C 121.96 64.926 122.037 64.469 122.037 63.996 C 122.037 63.116 121.774 62.376 121.247 61.776 C 120.714 61.183 119.954 60.886 118.967 60.886 C 117.934 60.886 117.13 61.193 116.557 61.806 C 115.984 62.426 115.697 63.303 115.697 64.436 L 113.417 64.436 L 113.397 64.366 C 113.37 63.353 113.584 62.443 114.037 61.636 C 114.484 60.829 115.137 60.189 115.997 59.716 C 116.85 59.249 117.867 59.016 119.047 59.016 C 120.16 59.016 121.117 59.226 121.917 59.646 C 122.717 60.066 123.334 60.643 123.767 61.376 C 124.2 62.109 124.417 62.949 124.417 63.896 C 124.417 64.543 124.29 65.183 124.037 65.816 C 123.784 66.449 123.414 67.099 122.927 67.766 C 122.44 68.433 121.857 69.136 121.177 69.876 L 116.557 74.906 L 116.577 74.966 L 122.817 74.966 L 123.007 72.956 L 125.017 72.956 L 125.017 76.826 ZM 133.177 77.076 C 131.451 77.076 130.087 76.479 129.087 75.286 C 128.081 74.086 127.577 72.369 127.577 70.136 L 127.577 65.976 C 127.577 63.736 128.074 62.016 129.067 60.816 C 130.067 59.616 131.427 59.016 133.147 59.016 C 134.874 59.016 136.241 59.616 137.247 60.816 C 138.254 62.016 138.757 63.736 138.757 65.976 L 138.757 70.136 C 138.757 72.376 138.257 74.093 137.257 75.286 C 136.264 76.479 134.904 77.076 133.177 77.076 Z M 133.177 75.226 C 134.231 75.226 135.027 74.839 135.567 74.066 C 136.107 73.293 136.377 72.143 136.377 70.616 L 136.377 65.466 C 136.377 63.946 136.104 62.803 135.557 62.036 C 135.004 61.269 134.201 60.886 133.147 60.886 C 132.114 60.886 131.324 61.269 130.777 62.036 C 130.231 62.803 129.957 63.946 129.957 65.466 L 129.957 70.616 C 129.957 72.136 130.234 73.283 130.787 74.056 C 131.341 74.836 132.137 75.226 133.177 75.226 ZM 149.454 76.826 L 141.664 76.826 L 141.664 75.306 L 144.374 74.966 L 144.374 61.806 L 141.614 61.856 L 141.614 60.376 L 146.754 59.266 L 146.754 74.966 L 149.454 75.306 L 149.454 76.826 ZM 157.793 77.076 C 156.646 77.076 155.626 76.799 154.733 76.246 C 153.833 75.686 153.126 74.869 152.613 73.796 C 152.1 72.729 151.843 71.436 151.843 69.916 L 151.843 67.556 C 151.843 65.696 152.123 64.133 152.683 62.866 C 153.243 61.599 154.013 60.639 154.993 59.986 C 155.98 59.339 157.113 59.016 158.393 59.016 C 158.986 59.016 159.58 59.083 160.173 59.216 C 160.76 59.356 161.246 59.529 161.633 59.736 L 161.173 61.506 C 160.8 61.326 160.386 61.176 159.933 61.056 C 159.486 60.943 158.973 60.886 158.393 60.886 C 157.16 60.886 156.18 61.349 155.453 62.276 C 154.726 63.203 154.34 64.603 154.293 66.476 L 154.343 66.526 C 154.79 66.106 155.34 65.776 155.993 65.536 C 156.646 65.289 157.35 65.166 158.103 65.166 C 159.15 65.166 160.056 65.413 160.823 65.906 C 161.596 66.399 162.196 67.079 162.623 67.946 C 163.043 68.819 163.253 69.809 163.253 70.916 C 163.253 72.129 163.026 73.199 162.573 74.126 C 162.126 75.053 161.493 75.776 160.673 76.296 C 159.853 76.816 158.893 77.076 157.793 77.076 Z M 157.793 75.226 C 158.44 75.226 158.993 75.036 159.453 74.656 C 159.913 74.276 160.263 73.763 160.503 73.116 C 160.75 72.463 160.873 71.729 160.873 70.916 C 160.873 69.756 160.583 68.803 160.003 68.056 C 159.416 67.309 158.61 66.936 157.583 66.936 C 157.043 66.936 156.553 67.009 156.113 67.156 C 155.68 67.309 155.303 67.519 154.983 67.786 C 154.663 68.053 154.403 68.369 154.203 68.736 L 154.203 70.146 C 154.203 71.779 154.543 73.033 155.223 73.906 C 155.903 74.786 156.76 75.226 157.793 75.226 Z" transform="matrix(1, 0, 0, 1, 0, 0)" style="fill: rgb(51, 51, 51); white-space: pre;"/>
  </g>
</svg>