<?xml version="1.0" encoding="utf-8"?>
<svg height="100%" style="fill-rule:evenodd;clip-rule:evenodd;stroke-linecap:round;stroke-linejoin:round;" width="100%" version="1.1" viewBox="0 0 150 150" xmlns="http://www.w3.org/2000/svg" xmlns:bx="https://boxy-svg.com">
  <defs>
    <bx:grid x="0" y="0" width="15" height="15"/>
  </defs>
  <rect width="120" height="120" style="fill: none; stroke-width: 0.2px; stroke: rgb(84, 84, 84); pointer-events: none; visibility: hidden;" x="15" y="15" bx:origin="0.5 0.5"/>
  <g transform="matrix(1.382085, 0, 0, 1.382085, -201.609818, -91.918106)" style="">
    <path d="M 200.154 107.834 L 175.279 80.475 C 176.249 79.506 177.366 78.756 178.644 78.198 C 179.922 77.64 181.304 77.36 182.773 77.36 C 184.345 77.375 185.77 77.684 187.078 78.286 C 188.386 78.889 189.517 79.726 190.472 80.784 L 200.14 91.348 L 209.749 80.784 C 210.748 79.726 211.909 78.889 213.216 78.286 C 214.539 77.684 215.964 77.375 217.507 77.36 C 218.976 77.375 220.357 77.654 221.635 78.198 C 222.914 78.756 224.045 79.506 225 80.475 L 200.154 107.834 M 200.154 112.006 L 175.279 139.364 C 176.249 140.334 177.366 141.083 178.644 141.642 C 179.922 142.2 181.304 142.479 182.773 142.479 C 184.316 142.465 185.741 142.156 187.063 141.554 C 188.386 140.951 189.546 140.114 190.531 139.056 L 200.14 128.492 L 209.808 139.056 C 210.763 140.114 211.894 140.951 213.202 141.554 C 214.509 142.156 215.935 142.465 217.507 142.479 C 218.976 142.465 220.357 142.185 221.635 141.642 C 222.914 141.083 224.045 140.334 225 139.364 L 200.154 112.006" style=""/>
    <path d="M 198.053 109.883 L 179.32 89.342 C 178.232 88.182 176.969 87.271 175.514 86.595 C 174.074 85.934 172.502 85.596 170.827 85.581 C 169.211 85.596 167.698 85.904 166.302 86.507 C 164.891 87.109 163.672 87.946 162.614 88.99 L 181.612 109.883 L 162.599 130.776 C 163.657 131.863 164.891 132.716 166.287 133.333 C 167.698 133.95 169.196 134.258 170.813 134.258 C 172.502 134.244 174.074 133.906 175.529 133.245 C 176.984 132.583 178.247 131.658 179.305 130.497 L 198.053 109.883 M 202.226 109.883 L 220.959 130.497 C 222.017 131.658 223.281 132.569 224.735 133.245 C 226.19 133.906 227.762 134.244 229.452 134.258 C 231.068 134.244 232.581 133.935 233.977 133.333 C 235.388 132.716 236.607 131.878 237.665 130.776 L 218.667 109.883 L 237.68 88.99 C 236.622 87.932 235.388 87.109 233.992 86.507 C 232.581 85.904 231.083 85.596 229.466 85.581 C 227.791 85.596 226.219 85.934 224.779 86.595 C 223.34 87.256 222.061 88.182 220.974 89.342 L 202.226 109.883" style="fill: rgb(229, 112, 0);"/>
  </g>
  <g id="text3223" style="font: 387.522px / 125% Helion; text-align: start; letter-spacing: 0px; word-spacing: 0px; writing-mode: lr-tb; text-anchor: start; fill: rgb(0, 0, 0); fill-opacity: 1; stroke: none;" transform="matrix(0.053054, 0, 0, 0.053054, 62.177891, 134.52916)">
    <path id="path3354" d="m -686.1811,-262.38737 -177.87034,0 c -6.9834,0.19403 -12.87689,2.71288 -17.68048,7.55658 -4.8036,4.84422 -7.30631,10.85073 -7.50813,18.01955 l 0,245.6858223 c 19.0852,-0.4763289 34.97338,-7.080262 47.6646,-19.8118193 12.69112,-12.731517 19.2789,-28.732724 19.76337,-48.003669 l 135.63098,0 c 19.28682,-0.476261 35.35261,-7.080194 48.19742,-19.811819 12.84432,-12.73145 19.51284,-28.732655 20.00558,-48.003665 l 0,-67.42798 c -0.49274,-19.28682 -7.16125,-35.35262 -20.00557,-48.19744 -12.84482,-12.84432 -28.91061,-19.51283 -48.19743,-20.00556 z m -135.63098,144.15635 0,-75.95335 118.96774,0 c 0.69411,-0.34694 3.47131,0.34736 8.33161,2.08291 4.85991,1.73595 7.63712,6.59605 8.33163,14.58033 l 0,42.23936 c 0.34694,0.7106 -0.34736,3.55238 -2.08291,8.52538 -1.73595,4.97326 -6.59606,7.81505 -14.58033,8.52537 z"/>
    <path id="path3356" d="m -308.04521,-143.41963 0,-50.76474 c -0.4766,-19.28682 -7.08053,-35.35262 -19.81182,-48.19744 -12.73179,-12.84432 -28.733,-19.51283 -48.00367,-20.00556 l -177.87034,0 c -7.15293,0.19403 -13.09485,2.71288 -17.82578,7.55658 -4.73095,4.84422 -7.18522,10.85073 -7.36283,18.01955 l 0,245.6858223 c 19.10135,-0.4763289 35.05412,-7.080262 47.85836,-19.8118193 12.80414,-12.731517 19.45651,-28.732724 19.95713,-48.003669 l 0,-17.050751 77.1159,0 39.13922,55.802459 c 6.28082,9.009794 14.16033,16.0819732 23.63854,21.2165595 9.47781,5.1346021 20.06993,7.7503397 31.77641,7.8472208 5.64296,-0.00808 11.11663,-0.6700872 16.42102,-1.9860337 5.30388,-1.3159425 10.29316,-3.2373765 14.96786,-5.7643078 l -54.63991,-77.8909318 c 15.83952,-3.431052 28.82133,-11.197535 38.94546,-23.299469 10.12362,-12.10172 15.3551,-26.55286 15.69445,-43.35347 z m -203.05895,8.13786 0,-58.9026 118.19271,0 c 0.71026,-0.34694 3.55205,0.34736 8.52537,2.08291 4.97294,1.73595 7.81473,6.59605 8.52538,14.58033 l 0,25.57613 c 0.35502,0.69445 -0.35543,3.47166 -2.13135,8.33161 -1.77632,4.86025 -6.74945,7.63746 -14.9194,8.33162 z"/>
    <path id="path3358" d="m -66.297193,-262.38737 -135.243457,0 c -19.27095,0.49275 -35.27217,7.16126 -48.00368,20.00558 -12.73156,12.84481 -19.33549,28.91061 -19.81181,48.19742 l 0,135.243464 c 0.47632,19.270945 7.08025,35.272154 19.81181,48.003675 12.73152,12.731561 28.73273,19.3354921 48.00368,19.8118133 l 135.243457,0 C -47.026519,8.3982534 -31.02531,1.7943203 -18.293518,-10.937237 -5.5622279,-23.668754 1.0417033,-39.669961 1.5182953,-58.940906 l 0,-135.243464 c -0.4765997,-19.28682 -7.0805328,-35.35262 -19.8118193,-48.19744 -12.731788,-12.84432 -28.732995,-19.51283 -48.003669,-20.00556 z m 0,186.395713 c 0.355023,0.710536 -0.355427,3.552325 -2.13135,8.525376 -1.776324,4.973203 -6.749453,7.814992 -14.919401,8.525375 l -101.141956,0 c -0.71053,0.355294 -3.55232,-0.355156 -8.52538,-2.13135 -4.97321,-1.776054 -7.815,-6.749182 -8.52537,-14.919401 l 0,-101.529473 c -0.3553,-0.69411 0.35515,-3.47132 2.13134,-8.33162 1.77604,-4.85992 6.74918,-7.63712 14.91941,-8.33162 l 101.141956,0 c 0.710265,-0.34694 3.552054,0.34736 8.525376,2.08291 4.972932,1.73595 7.814721,6.59605 8.525375,14.58033 z"/>
    <path id="path3360" style="fill:#e57000;fill-opacity:1" d="m 343.24581,-243.01152 c -5.87764,-5.87708 -12.72377,-10.49499 -20.5384,-13.85374 -7.8152,-3.35821 -16.2114,-5.06974 -25.18861,-5.13459 -9.55093,0.0729 -18.35079,1.96208 -26.3996,5.66744 -8.04928,3.70589 -15.00843,8.79205 -20.87749,15.25848 l -58.51508,64.32783 -58.90259,-64.32783 c -6.02275,-6.63598 -12.96576,-11.77058 -20.82905,-15.40381 -7.86343,-3.6327 -16.550262,-5.47341 -26.060517,-5.52211 -8.977519,0.0649 -17.373714,1.77639 -25.18861,5.1346 -7.814936,3.35874 -14.661064,7.97665 -20.538405,13.85373 L 145.99962,-126.75639 40.207458,-10.501271 c 5.877333,6.0630371 12.723461,10.79396706 20.538405,14.1928038 7.814904,3.398847 16.211099,5.1265285 25.18861,5.1830495 9.381091,-0.072659 18.132507,-1.9618037 26.254287,-5.6674401 8.12163,-3.70562508 15.12923,-8.7917806 21.0228,-15.2584822 l 58.51507,-64.327834 58.51508,64.327834 c 5.86906,6.4667016 12.82821,11.55285519 20.87749,15.2584764 8.04881,3.7056326 16.84867,5.5947793 26.3996,5.6674459 8.97721,-0.056513 17.3734,-1.7841929 25.18861,-5.1830438 7.81464,-3.39884052 14.66077,-8.1297724 20.5384,-14.1928095 L 237.45365,-126.75639 z"/>
    <path id="path3362" d="m 695.81803,-262.38737 -42.62688,0 c -13.94281,0.19403 -26.35949,3.97232 -37.25008,11.33487 -10.89107,7.36308 -19.14194,17.14787 -24.75266,29.35442 l 0.38752,-0.77503 -39.91426,87.57886 -39.52674,-87.57886 0,0.77503 c -5.44152,-12.20655 -13.64395,-21.99134 -24.60734,-29.35442 -10.96359,-7.36256 -23.42871,-11.14084 -37.39539,-11.33487 l -42.23936,0 c -7.33862,0.19403 -13.39357,2.71288 -18.16487,7.55658 -4.77131,4.84422 -7.24173,10.85073 -7.41126,18.01955 l 0,245.6858223 c 19.10135,-0.4763289 35.05411,-7.080262 47.85835,-19.8118193 12.80415,-12.731517 19.45652,-28.732724 19.95714,-48.003669 l 0,-129.818224 c 0.0241,-1.76784 0.55699,-3.17259 1.59851,-4.21425 1.04138,-1.04125 2.44613,-1.57408 4.21425,-1.5985 1.00908,0.0325 1.99402,0.35542 2.95482,0.96878 0.96064,0.61377 1.65494,1.32422 2.0829,2.13135 l 75.17831,165.857313 c 1.42074,2.962919 3.51979,5.368749 6.29715,7.217496 2.77705,1.848803 5.84489,2.801451 9.20353,2.857948 3.33409,-0.04034 6.35349,-0.928394 9.05821,-2.664177 2.70436,-1.73573 4.85185,-4.076977 6.44248,-7.02375 l 75.17831,-166.24483 c 0.58909,-0.80712 1.34797,-1.51757 2.27666,-2.13135 0.92817,-0.61337 1.97769,-0.9363 3.14858,-0.96878 1.5821,0.0244 2.87382,0.55726 3.87517,1.59851 1.00081,1.04165 1.5175,2.4464 1.55007,4.21424 l 0,129.818224 c 0.50027,19.270945 7.15264,35.272154 19.95712,48.003675 12.8039,12.731561 28.75667,19.3354921 47.85836,19.8118133 l 0,-245.6858223 c -0.17794,-7.16882 -2.63221,-13.17533 -7.36282,-18.01955 -4.73127,-4.8437 -10.67319,-7.36255 -17.82578,-7.55658 z"/>
    <path id="path3364" d="m 963.0584,-262.38737 -135.24346,0 c -19.27095,0.49275 -35.27216,7.16126 -48.00368,20.00558 -12.73156,12.84481 -19.33549,28.91061 -19.81181,48.19742 l 0,135.243464 c 0.47632,19.270945 7.08025,35.272154 19.81181,48.003675 12.73153,12.731561 28.73273,19.3354921 48.00368,19.8118133 l 135.24346,0 c 19.27067,-0.4763289 35.27188,-7.080262 48.0037,-19.8118193 12.7313,-12.731517 19.3352,-28.732724 19.8118,-48.003669 l 0,-135.243464 c -0.4766,-19.28682 -7.0805,-35.35262 -19.8118,-48.19744 -12.73182,-12.84432 -28.73303,-19.51283 -48.0037,-20.00556 z m 0,186.395713 c 0.35502,0.710536 -0.35543,3.552325 -2.13135,8.525376 -1.77633,4.973203 -6.74946,7.814992 -14.9194,8.525375 l -101.14196,0 c -0.71053,0.355294 -3.55232,-0.355156 -8.52538,-2.13135 -4.97321,-1.776054 -7.815,-6.749182 -8.52537,-14.919401 l 0,-101.529473 c -0.35529,-0.69411 0.35515,-3.47132 2.13134,-8.33162 1.77604,-4.85992 6.74918,-7.63712 14.91941,-8.33162 l 101.14196,0 c 0.71026,-0.34694 3.55205,0.34736 8.52537,2.08291 4.97293,1.73595 7.81472,6.59605 8.52538,14.58033 z"/>
    <path id="path3366" style="fill:#e57000;fill-opacity:1" d="m 1372.6013,-243.01152 c -5.8777,-5.87708 -12.7238,-10.49499 -20.5384,-13.85374 -7.8152,-3.35821 -16.2114,-5.06974 -25.1886,-5.13459 -9.551,0.0729 -18.3508,1.96208 -26.3996,5.66744 -8.0493,3.70589 -15.0085,8.79205 -20.8775,15.25848 l -58.5151,64.32783 -58.9026,-64.32783 c -6.0227,-6.63598 -12.9658,-11.77058 -20.829,-15.40381 -7.8635,-3.6327 -16.5503,-5.47341 -26.0606,-5.52211 -8.9775,0.0649 -17.3737,1.77639 -25.1886,5.1346 -7.8149,3.35874 -14.661,7.97665 -20.5384,13.85373 l 105.7922,116.25513 -105.7922,116.255119 c 5.8774,6.0630371 12.7235,10.79396706 20.5384,14.1928038 7.8149,3.398847 16.2111,5.1265285 25.1886,5.1830495 9.3811,-0.072659 18.1326,-1.9618037 26.2543,-5.6674401 8.1217,-3.70562508 15.1293,-8.7917806 21.0228,-15.2584822 l 58.5151,-64.327834 58.5151,64.327834 c 5.869,6.4667016 12.8282,11.55285519 20.8775,15.2584764 8.0488,3.7056326 16.8486,5.5947793 26.3996,5.6674459 8.9772,-0.056513 17.3734,-1.7841929 25.1886,-5.1830438 7.8146,-3.39884052 14.6607,-8.1297724 20.5384,-14.1928095 L 1266.8091,-126.75639 z"/>
  </g>
</svg>