<?xml version="1.0" encoding="utf-8"?>
<svg height="100%" style="fill-rule:evenodd;clip-rule:evenodd;stroke-linecap:round;stroke-linejoin:round;" width="100%" version="1.1" viewBox="0 0 150 150" xmlns="http://www.w3.org/2000/svg" xmlns:bx="https://boxy-svg.com">
  <defs>
    <bx:grid x="0" y="0" width="15" height="15"/>
  </defs>
  <rect width="120" height="120" style="fill: none; stroke-width: 0.2px; stroke: rgb(84, 84, 84); pointer-events: none; visibility: hidden;" x="15" y="15"/>
  <g style="" transform="matrix(0.791798, 0, 0, 0.791798, 9.779382, 16.001921)">
    <g transform="matrix(1.079555, 0, 0, 1.079555, -6.81495, 1.870597)" style="">
      <path style="fill: none; stroke: rgb(13, 145, 4); stroke-width: 4.49892px;" d="M 55.533 95.314 C 3.89 95.292 -2.148 38.152 57.289 38.177"/>
      <path style="fill: none; stroke: rgb(8, 0, 255); stroke-width: 4.49892px; transform-box: fill-box; transform-origin: 50% 50%;" d="M 148.191 38.177 C 94.976 38.199 88.754 95.34 150 95.314" transform="matrix(-1, 0, 0, -1, 0.000026, -0.00002)"/>
    </g>
    <g transform="matrix(1, 0, 0, 1, 0.000158, 0)">
      <g transform="matrix(0.547528, 0, 0, 0.547528, -5.146966, 84.088982)" style="">
        <title>Señor</title>
        <path d="M 81.745 69.573 C 101.5 69.569 113.851 90.95 103.978 108.059 C 102.855 110.006 101.481 111.795 99.892 113.384 C 95.139 118.285 88.572 121.007 81.745 120.903 C 61.989 120.903 49.64 99.516 59.519 82.405 C 64.104 74.466 72.577 69.573 81.745 69.573 Z M 68.379 84.819 C 74.394 78.191 81.328 74.586 86.524 80.484 C 87.866 80.514 89.152 81.041 90.129 81.963 C 92.598 84.277 92.636 88.917 91.099 92.026 L 91.099 92.819 C 91.426 92.993 91.696 93.256 91.876 93.58 L 91.905 93.626 C 92.151 94.089 92.302 94.598 92.347 95.121 C 92.405 95.667 92.394 96.219 92.314 96.762 L 92.314 96.788 C 92.106 98.124 91.478 99.39 90.367 99.804 L 90.284 99.887 C 89.127 101.094 86.783 103.534 86.441 105.226 C 86.315 105.844 86.608 106.358 87.694 106.58 C 89.168 106.876 90.514 107.08 91.67 107.257 C 95.69 107.857 97.594 108.146 98.249 111.17 C 110.519 98.469 104.439 77.247 87.304 72.973 C 70.168 68.697 54.832 84.574 59.697 101.551 C 60.731 105.164 62.638 108.465 65.25 111.17 C 65.898 108.183 67.777 107.891 71.721 107.29 C 72.693 107.139 73.808 106.968 75.061 106.721 C 76.734 106.391 77.23 105.773 77.088 105.051 C 76.812 103.626 74.92 101.671 73.483 100.183 L 73.12 99.812 C 71.945 99.394 71.232 98.271 70.956 97.029 C 70.836 96.472 70.802 95.898 70.856 95.33 C 70.898 94.783 71.056 94.252 71.319 93.771 C 71.438 93.563 71.586 93.37 71.758 93.204 L 71.119 92.819 C 70.885 90.209 71.57 85.677 68.391 84.819 L 68.379 84.819 Z M 86.061 85.029 C 82.978 86.967 81.433 86.507 78.893 86.925 C 76.804 87.272 75.05 88.003 73.988 89.29 C 73.988 89.424 73.988 89.562 73.988 89.708 L 73.988 93.441 C 73.988 93.879 73.633 94.236 73.196 94.236 L 73.124 94.236 C 72.94 94.263 72.783 94.383 72.706 94.551 C 72.553 94.837 72.458 95.149 72.43 95.471 C 72.392 95.876 72.421 96.283 72.509 96.681 C 72.673 97.423 73.044 98.091 73.617 98.295 C 73.803 98.315 73.975 98.402 74.102 98.537 L 74.624 99.076 C 76.202 100.71 78.279 102.837 78.646 104.737 C 78.968 106.382 78.208 107.72 75.368 108.275 C 74.064 108.53 72.932 108.693 71.945 108.856 C 68.538 109.378 67.058 109.604 66.666 112.523 C 75.308 120.058 88.184 120.058 96.826 112.523 C 96.408 109.574 94.92 109.345 91.438 108.823 C 90.314 108.651 88.997 108.454 87.385 108.124 C 85.15 107.669 84.583 106.454 84.879 104.908 C 85.321 102.766 87.882 100.109 89.148 98.813 L 89.391 98.558 C 89.516 98.432 89.681 98.347 89.858 98.322 C 90.322 98.124 90.622 97.381 90.748 96.566 C 90.809 96.16 90.818 95.748 90.777 95.339 C 90.754 95.029 90.67 94.731 90.53 94.456 L 90.53 94.423 C 90.477 94.335 90.426 94.285 90.384 94.285 C 89.955 94.312 89.582 93.989 89.549 93.559 L 89.549 89.72 C 89.549 87.561 88.538 86.817 86.671 85.451 L 86.567 85.376 C 86.412 85.259 86.253 85.151 86.094 85.045 L 86.061 85.029 Z" style=""/>
      </g>
      <text style="fill: rgb(13, 145, 4); font-family: 'Arial Black'; font-size: 15.6px; white-space: pre;" x="64.687" y="143.092">Personal</text>
    </g>
    <g transform="matrix(1, 0, 0, 1, -5.619427, 0)">
      <text style="fill: rgb(8, 0, 255); font-family: 'Arial Black'; font-size: 15.6px; white-space: pre;" x="20.861" y="18.274">Profesional</text>
      <g transform="matrix(0.547528, 0, 0, 0.547528, 96.28582, -39.358494)" style="">
        <title>Señor</title>
        <path d="M 81.745 69.573 C 101.5 69.569 113.851 90.95 103.978 108.059 C 102.855 110.006 101.481 111.795 99.892 113.384 C 95.139 118.285 88.572 121.007 81.745 120.903 C 61.989 120.903 49.64 99.516 59.519 82.405 C 64.104 74.466 72.577 69.573 81.745 69.573 Z M 68.379 84.819 C 74.394 78.191 81.328 74.586 86.524 80.484 C 87.866 80.514 89.152 81.041 90.129 81.963 C 92.598 84.277 92.636 88.917 91.099 92.026 L 91.099 92.819 C 91.426 92.993 91.696 93.256 91.876 93.58 L 91.905 93.626 C 92.151 94.089 92.302 94.598 92.347 95.121 C 92.405 95.667 92.394 96.219 92.314 96.762 L 92.314 96.788 C 92.106 98.124 91.478 99.39 90.367 99.804 L 90.284 99.887 C 89.127 101.094 86.783 103.534 86.441 105.226 C 86.315 105.844 86.608 106.358 87.694 106.58 C 89.168 106.876 90.514 107.08 91.67 107.257 C 95.69 107.857 97.594 108.146 98.249 111.17 C 110.519 98.469 104.439 77.247 87.304 72.973 C 70.168 68.697 54.832 84.574 59.697 101.551 C 60.731 105.164 62.638 108.465 65.25 111.17 C 65.898 108.183 67.777 107.891 71.721 107.29 C 72.693 107.139 73.808 106.968 75.061 106.721 C 76.734 106.391 77.23 105.773 77.088 105.051 C 76.812 103.626 74.92 101.671 73.483 100.183 L 73.12 99.812 C 71.945 99.394 71.232 98.271 70.956 97.029 C 70.836 96.472 70.802 95.898 70.856 95.33 C 70.898 94.783 71.056 94.252 71.319 93.771 C 71.438 93.563 71.586 93.37 71.758 93.204 L 71.119 92.819 C 70.885 90.209 71.57 85.677 68.391 84.819 L 68.379 84.819 Z M 86.061 85.029 C 82.978 86.967 81.433 86.507 78.893 86.925 C 76.804 87.272 75.05 88.003 73.988 89.29 C 73.988 89.424 73.988 89.562 73.988 89.708 L 73.988 93.441 C 73.988 93.879 73.633 94.236 73.196 94.236 L 73.124 94.236 C 72.94 94.263 72.783 94.383 72.706 94.551 C 72.553 94.837 72.458 95.149 72.43 95.471 C 72.392 95.876 72.421 96.283 72.509 96.681 C 72.673 97.423 73.044 98.091 73.617 98.295 C 73.803 98.315 73.975 98.402 74.102 98.537 L 74.624 99.076 C 76.202 100.71 78.279 102.837 78.646 104.737 C 78.968 106.382 78.208 107.72 75.368 108.275 C 74.064 108.53 72.932 108.693 71.945 108.856 C 68.538 109.378 67.058 109.604 66.666 112.523 C 75.308 120.058 88.184 120.058 96.826 112.523 C 96.408 109.574 94.92 109.345 91.438 108.823 C 90.314 108.651 88.997 108.454 87.385 108.124 C 85.15 107.669 84.583 106.454 84.879 104.908 C 85.321 102.766 87.882 100.109 89.148 98.813 L 89.391 98.558 C 89.516 98.432 89.681 98.347 89.858 98.322 C 90.322 98.124 90.622 97.381 90.748 96.566 C 90.809 96.16 90.818 95.748 90.777 95.339 C 90.754 95.029 90.67 94.731 90.53 94.456 L 90.53 94.423 C 90.477 94.335 90.426 94.285 90.384 94.285 C 89.955 94.312 89.582 93.989 89.549 93.559 L 89.549 89.72 C 89.549 87.561 88.538 86.817 86.671 85.451 L 86.567 85.376 C 86.412 85.259 86.253 85.151 86.094 85.045 L 86.061 85.029 Z" style=""/>
      </g>
    </g>
  </g>
  <g transform="matrix(0.84194, 0, 0, 0.84194, -79.307396, 51.55125)" style="">
    <path style="fill: rgb(240, 80, 51); fill-opacity: 1; stroke-width: 2.24708;" d="M 183.222 0 C 182.341 0 181.46 0.336 180.788 1.008 L 175.942 5.854 L 182.089 12.001 C 183.518 11.519 185.156 11.842 186.294 12.981 C 187.439 14.127 187.76 15.779 187.265 17.213 L 193.19 23.137 C 194.623 22.644 196.276 22.963 197.421 24.109 C 199.021 25.709 199.021 28.301 197.421 29.901 C 195.821 31.501 193.229 31.501 191.628 29.901 C 190.424 28.697 190.127 26.929 190.736 25.447 L 185.211 19.921 L 185.211 34.461 C 185.601 34.654 185.969 34.912 186.294 35.236 C 187.894 36.835 187.894 39.427 186.294 41.029 C 184.694 42.628 182.101 42.628 180.503 41.029 C 178.903 39.427 178.903 36.835 180.503 35.236 C 180.898 34.841 181.355 34.542 181.843 34.342 L 181.843 19.667 C 181.355 19.468 180.898 19.171 180.502 18.773 C 179.29 17.562 178.998 15.784 179.62 14.296 L 173.561 8.235 L 157.56 24.236 C 156.216 25.581 156.216 27.761 157.56 29.105 L 165.425 36.97 L 165.425 33.97 C 163.875 32.813 162.748 31.114 162.257 29.245 C 160.678 24.145 165.091 18.354 170.406 18.445 C 172.575 18.374 174.743 19.197 176.36 20.636 C 180.282 23.845 180.091 30.552 176.174 33.681 L 175.639 33.962 L 175.685 36.565 L 173.981 38.286 L 173.981 45.526 L 180.896 52.44 C 182.239 53.785 184.418 53.785 185.764 52.44 L 208.992 29.215 C 210.336 27.87 210.336 25.69 208.992 24.346 L 208.992 24.343 L 185.655 1.008 C 184.983 0.336 184.103 0 183.222 0 Z" id="path8"/>
    <path style="fill: rgb(77, 77, 77); fill-opacity: 1; stroke: none; stroke-width: 4.12109; stroke-opacity: 1;" d="M 170.61 19.695 C 166.536 19.695 163.233 22.998 163.233 27.072 C 163.234 29.605 164.534 31.961 166.678 33.311 L 166.678 48.96 L 167.93 50.108 L 170.54 50.108 L 173.045 47.603 L 173.045 45.202 L 171.793 43.844 L 173.045 42.487 L 171.793 41.13 L 173.045 39.878 L 171.793 38.729 L 174.403 36.119 L 174.403 33.389 C 176.623 32.058 177.983 29.661 177.987 27.072 C 177.986 22.998 174.684 19.696 170.61 19.695 Z M 170.494 22.757 C 171.531 22.757 172.373 23.599 172.373 24.636 C 172.373 25.674 171.531 26.515 170.494 26.515 C 169.456 26.515 168.614 25.674 168.614 24.636 C 168.614 23.599 169.456 22.757 170.494 22.757 Z M 167.93 35.076 L 169.183 36.119 L 169.183 48.96 L 167.93 47.603 L 167.93 35.076 Z" id="path831"/>
  </g>
</svg>