<?xml version="1.0" encoding="utf-8"?>
<svg height="100%" style="fill-rule:evenodd;clip-rule:evenodd;stroke-linecap:round;stroke-linejoin:round;" width="100%" version="1.1" viewBox="0 0 150 150" xmlns="http://www.w3.org/2000/svg" xmlns:xlink="http://www.w3.org/1999/xlink" xmlns:bx="https://boxy-svg.com">
  <defs>
    <bx:grid x="0" y="0" width="15" height="15"/>
    <linearGradient id="vlpd" x1="783.9" x2="1100" y1="-313.5" y2="1341" gradientTransform="matrix(1.237 0 0 1.237 -1037 -1010)" gradientUnits="userSpaceOnUse" xlink:href="#vlpa"/>
    <linearGradient id="vlpa">
      <stop style="stop-color:#fff" offset="0"/>
      <stop style="stop-color:#fff" offset="0.3421"/>
      <stop style="stop-color:#bebdf3" offset="0.52"/>
      <stop style="stop-color:#8f82f9" offset="0.7541"/>
      <stop style="stop-color:#9f99c7" offset="0.8711"/>
      <stop style="stop-color:#524c76" offset="1"/>
    </linearGradient>
    <linearGradient id="vlpe" x1="464" x2="368.6" y1="697.4" y2="269.7" gradientTransform="matrix(1.237 0 0 1.237 -161.1 -377.3)" gradientUnits="userSpaceOnUse" xlink:href="#vlpa"/>
    <radialGradient id="vlpb" cx="49.53" cy="320.1" r="31.95" gradientTransform="matrix(3.287 0 0 2.52 111.7 -642.7)" gradientUnits="userSpaceOnUse" xlink:href="#vlpa"/>
    <radialGradient id="vlpc" cx="332.7" cy="590.6" r="218" gradientTransform="matrix(-.06604 4.19 -3.574 -.05627 2168 -1171)" gradientUnits="userSpaceOnUse" xlink:href="#vlpa"/>
  </defs>
  <rect width="120" height="120" style="fill: none; stroke-width: 0.2px; stroke: rgb(84, 84, 84); pointer-events: none; visibility: hidden;" x="15" y="15" bx:origin="0.5 0.5"/>
  <g style="" transform="matrix(0.589025, 0, 0, 0.589025, -1.518988, 30.823092)">
    <title>Raspberry</title>
    <path d="M 53.466 15.037 C 52.859 15.056 52.206 15.28 51.466 15.865 C 49.651 15.165 47.892 14.922 46.318 16.346 C 43.89 16.031 43.099 16.682 42.501 17.441 C 41.968 17.43 38.51 16.893 36.924 19.258 C 32.94 18.786 31.68 21.602 33.107 24.227 C 32.293 25.487 31.45 26.732 33.353 29.133 C 32.68 30.471 33.097 31.922 34.683 33.679 C 34.265 35.559 35.087 36.886 36.563 37.92 C 36.287 40.493 38.923 41.99 39.71 42.523 C 40.012 44.022 40.642 45.437 43.653 46.22 C 44.15 48.454 45.959 48.84 47.711 49.309 C 41.92 52.675 36.954 57.104 36.987 67.971 L 36.139 69.484 C 29.498 73.523 23.524 86.503 32.866 97.054 C 33.477 100.356 34.5 102.728 35.411 105.353 C 36.774 115.931 45.669 120.885 48.015 121.47 C 51.453 124.089 55.114 126.574 60.069 128.314 C 64.74 133.132 69.8 134.968 74.888 134.964 C 74.962 134.964 75.038 134.965 75.113 134.964 C 80.201 134.968 85.261 133.132 89.931 128.314 C 94.886 126.574 98.548 124.089 101.985 121.47 C 104.331 120.885 113.226 115.931 114.589 105.353 C 115.5 102.728 116.524 100.356 117.134 97.054 C 126.476 86.503 120.502 73.523 113.861 69.484 L 113.013 67.971 C 113.047 57.104 108.08 52.675 102.289 49.309 C 104.041 48.84 105.851 48.454 106.347 46.22 C 109.358 45.437 109.988 44.022 110.29 42.523 C 111.077 41.99 113.713 40.493 113.437 37.92 C 114.913 36.886 115.736 35.559 115.317 33.679 C 116.903 31.922 117.32 30.471 116.647 29.133 C 118.55 26.732 117.707 25.487 116.893 24.227 C 118.32 21.602 117.061 18.786 113.076 19.258 C 111.49 16.893 108.033 17.43 107.499 17.441 C 106.901 16.682 106.111 16.031 103.682 16.346 C 102.108 14.922 100.349 15.165 98.535 15.865 C 96.38 14.164 94.954 15.527 93.325 16.043 C 90.715 15.19 90.119 16.358 88.837 16.833 C 85.993 16.232 85.128 17.541 83.763 18.923 L 82.177 18.891 C 77.885 21.42 75.753 26.57 74.998 29.217 C 74.242 26.569 72.114 21.42 67.824 18.891 L 66.237 18.923 C 64.872 17.541 64.008 16.232 61.163 16.833 C 59.882 16.358 59.285 15.19 56.676 16.043 C 55.607 15.704 54.624 15.001 53.466 15.037 Z" style="fill: rgb(0, 0, 0);"/>
    <path d="M 44.923 26.163 C 56.308 32.033 62.927 36.782 66.553 40.826 C 64.696 48.268 55.009 48.608 51.467 48.399 C 52.192 48.062 52.797 47.657 53.012 47.036 C 52.123 46.404 48.971 46.969 46.771 45.733 C 47.616 45.558 48.012 45.388 48.407 44.764 C 46.328 44.101 44.089 43.53 42.772 42.431 C 43.483 42.44 44.146 42.59 45.075 41.947 C 43.213 40.943 41.226 40.148 39.682 38.614 C 40.645 38.591 41.683 38.605 41.985 38.251 C 40.28 37.195 38.843 36.021 37.652 34.737 C 39 34.899 39.569 34.759 39.894 34.525 C 38.606 33.205 36.976 32.091 36.198 30.465 C 37.199 30.81 38.114 30.942 38.773 30.435 C 38.336 29.447 36.46 28.865 35.38 26.557 C 36.433 26.659 37.55 26.787 37.774 26.557 C 37.284 24.565 36.445 23.446 35.623 22.286 C 37.876 22.252 41.291 22.294 41.136 22.104 L 39.743 20.68 C 41.944 20.087 44.197 20.775 45.832 21.286 C 46.566 20.707 45.819 19.974 44.923 19.226 C 46.794 19.476 48.484 19.906 50.012 20.498 C 50.829 19.761 49.482 19.024 48.831 18.287 C 51.721 18.835 52.946 19.606 54.163 20.377 C 55.046 19.531 54.213 18.812 53.617 18.075 C 55.797 18.882 56.919 19.924 58.101 20.953 C 58.502 20.412 59.119 20.016 58.374 18.711 C 59.921 19.603 61.086 20.654 61.948 21.831 C 62.906 21.222 62.519 20.388 62.524 19.62 C 64.132 20.928 65.153 22.32 66.402 23.679 C 66.653 23.496 66.874 22.875 67.068 21.892 C 70.905 25.614 76.325 34.988 68.462 38.705 C 61.773 33.184 53.781 29.173 44.923 26.163 Z" style="fill: rgb(117, 169, 40);"/>
    <path d="M 105.335 26.163 C 93.949 32.033 87.331 36.782 83.705 40.826 C 85.561 48.268 95.249 48.608 98.791 48.399 C 98.066 48.062 97.461 47.657 97.246 47.036 C 98.135 46.404 101.286 46.969 103.487 45.733 C 102.641 45.558 102.246 45.388 101.851 44.764 C 103.929 44.101 106.169 43.53 107.485 42.431 C 106.775 42.44 106.111 42.59 105.183 41.947 C 107.045 40.943 109.032 40.148 110.575 38.614 C 109.613 38.591 108.575 38.605 108.273 38.251 C 109.977 37.195 111.415 36.021 112.605 34.737 C 111.258 34.899 110.689 34.759 110.363 34.525 C 111.652 33.205 113.282 32.091 114.059 30.465 C 113.059 30.81 112.144 30.942 111.484 30.435 C 111.922 29.447 113.798 28.865 114.877 26.557 C 113.824 26.659 112.707 26.787 112.484 26.557 C 112.974 24.565 113.812 23.446 114.635 22.286 C 112.381 22.252 108.967 22.294 109.121 22.104 L 110.515 20.68 C 108.314 20.087 106.061 20.775 104.426 21.286 C 103.692 20.707 104.439 19.974 105.335 19.226 C 103.464 19.476 101.773 19.906 100.245 20.498 C 99.429 19.761 100.775 19.024 101.427 18.287 C 98.536 18.835 97.312 19.606 96.095 20.377 C 95.212 19.531 96.044 18.812 96.64 18.075 C 94.461 18.882 93.338 19.924 92.157 20.953 C 91.756 20.412 91.139 20.016 91.884 18.711 C 90.337 19.603 89.171 20.654 88.309 21.831 C 87.352 21.222 87.739 20.388 87.734 19.62 C 86.126 20.928 85.105 22.32 83.856 23.679 C 83.604 23.496 83.384 22.875 83.19 21.892 C 79.353 25.614 73.932 34.988 81.796 38.705 C 88.485 33.184 96.477 29.173 105.335 26.163 Z" style="fill: rgb(117, 169, 40);"/>
    <path d="M 88.917 101.952 C 88.917 111.633 77.552 117.684 68.46 112.843 C 64.241 110.597 61.641 106.445 61.641 101.952 C 61.641 92.272 73.006 86.221 82.098 91.061 C 86.318 93.308 88.917 97.459 88.917 101.952 Z" style="fill: rgb(188, 17, 66);"/>
    <path d="M 73.862 78.067 C 73.899 87.483 61.896 93.368 52.256 88.66 C 47.782 86.475 45.016 82.437 44.999 78.067 C 44.961 68.651 56.965 62.765 66.604 67.473 C 71.078 69.659 73.845 73.697 73.862 78.067 Z" style="fill: rgb(188, 17, 66);" transform="matrix(0.551318, -0.834295, 0.834295, 0.551318, -38.465173, 84.609644)"/>
    <path d="M 105.028 77.397 C 105.066 67.981 93.062 62.096 83.423 66.804 C 78.949 68.989 76.182 73.027 76.165 77.397 C 76.128 86.814 88.131 92.699 97.771 87.991 C 102.245 85.806 105.011 81.768 105.028 77.397 Z" style="fill: rgb(188, 17, 66);" transform="matrix(-0.551318, -0.834295, 0.834295, -0.551318, 75.971629, 195.652355)"/>
    <path d="M 39.145 72.081 C 45.247 70.446 41.205 97.321 36.241 95.116 C 30.781 90.724 29.022 77.862 39.145 72.081 Z" style="fill: rgb(188, 17, 66);"/>
    <path d="M 109.65 71.745 C 103.548 70.111 107.59 96.986 112.554 94.781 C 118.015 90.389 119.773 77.526 109.65 71.745 Z" style="fill: rgb(188, 17, 66);"/>
    <path d="M 88.921 51.733 C 99.45 49.955 108.21 56.21 107.858 67.627 C 107.511 72.004 85.043 52.384 88.921 51.733 Z" style="fill: rgb(188, 17, 66);"/>
    <path d="M 59.831 51.398 C 49.302 49.62 40.542 55.875 40.894 67.292 C 41.241 71.669 63.709 52.049 59.831 51.398 Z" style="fill: rgb(188, 17, 66);"/>
    <path d="M 74.955 48.734 C 68.671 48.57 62.64 53.398 62.625 56.198 C 62.608 59.6 67.594 63.083 74.998 63.172 C 82.558 63.226 87.383 60.383 87.407 56.872 C 87.435 52.895 80.531 48.672 74.955 48.734 Z" style="fill: rgb(188, 17, 66);"/>
    <path d="M 75.338 118.5 C 80.817 118.261 88.169 120.265 88.183 122.923 C 88.274 125.504 81.516 131.336 74.975 131.224 C 68.201 131.516 61.558 125.675 61.645 123.65 C 61.544 120.682 69.894 118.364 75.338 118.5 Z" style="fill: rgb(188, 17, 66);"/>
    <path d="M 55.102 102.747 C 59.003 107.446 60.781 115.703 57.525 118.136 C 54.446 119.994 46.967 119.229 41.651 111.593 C 38.066 105.185 38.528 98.664 41.045 96.749 C 44.81 94.456 50.625 97.553 55.102 102.747 Z" style="fill: rgb(188, 17, 66);"/>
    <path d="M 94.794 101.257 C 90.574 106.2 88.224 115.217 91.303 118.121 C 94.246 120.377 102.149 120.062 107.986 111.962 C 112.225 106.522 110.804 97.437 108.383 95.026 C 104.787 92.244 99.624 95.804 94.794 101.257 Z" style="fill: rgb(188, 17, 66);"/>
  </g>
  <g transform="matrix(0.10968, 0, 0, 0.10968, 66.962105, 38.606747)" style="">
    <path d="m25.76 521.9c0.06818-26.26 22.39-62.92 54.11-96.23 21.2-22.26 42.73-41.8 89.66-81.81-32.46-17.81-82.95-39.3-108.3-67.45-9.374-10.41-26.36-34.01-23.07-65.53 6.716-64.25 86.01-161.7 198.7-182.4 37.5-6.859 80.56-1.908 116 14.02 111.2 49.98 247.1 174.2 263.9 234.8 5.888 21.34 4.757 55.36-5.395 74.32-12.58 23.5-56.14 71.22-115.7 120.5-93.5 77.27-224.5 160.2-322.4 174.2-31.61 4.511-63.91-0.194-86.57-12.98-35.46-20.01-47.23-46.72-51.37-54.73-11-21.29-9.637-48.27-9.613-56.73zm263.1-295c1.207-14.89 59.59-0.06577 55.9 11.73-3.892 12.44-57.29 5.355-55.9-11.73z" style="fill-rule:evenodd;fill:url(#vlpd)"/>
    <path d="m201.1 319.3c-30.72 25.94-51.15 43.43-76.76 66.84-61.68 56.37-103.6 99.28-81.98 157.9 24.92 67.66 79.56 64.23 143.6 51.65 165.1-32.57 436.6-241.3 422.8-318.3-11.2-62.37-162.9-186.4-252.6-230.5-28.05-13.79-60.38-20.91-92.81-19.39-123.5 5.828-219.9 118.2-215 179.2 4.792 59.26 154.6 110.9 152.8 112.7zm-18.53-206.9c-37.15 41.34-13.4 121.3 48.21 164.9 72.1 51.01 188.8 60.24 212.1 20.91 43.34-73.37-3.98-151-74.61-185.6-69.8-34.2-162.5-26.01-185.7-0.245z" style="fill-rule:evenodd;fill:url(#vlpe)"/>
    <path d="m309.3 275.6c52.16 7.25 97.12-13.64 104.1-65.14 5.355-39.23-54.69-82.1-90.79-91.99-30.15-8.256-95.6 2.36-100 59.38-4.587 59.27 56.24 93.53 86.65 97.75zm-25.54-98.58c-34.28 53.1 49.77 69.43 62.64 59.75 55.48-41.75-47.54-83.14-62.64-59.75z" style="fill-rule:evenodd;fill:url(#vlpb)"/>
    <path d="m253.4 41.57c-60.63 6.39-72.25 14.19-127.2 55.75-18.41 13.93-52.29 47.82-60.98 88.03-3.307 15.31 0.6019 28.53 11.63 37.8 35.31 29.69 94.42 53.77 142.9 77.06 14.2 6.82 4.799 19.19-18.1 39.01-57.79 50.03-135.9 110.9-141.4 157.3-2.57 21.87 4.916 51.58 31.46 66.79 31.01 17.76 95.37 6.17 138.4-9.835 62.81-23.39 145.3-75 210.8-125.7 68.11-52.76 131.4-119.8 134.6-130.7 3.847-13.42 3.463-25.82-3.96-40.07-11.66-22.38-27.24-39.01-43.98-57.63-44.9-47.34-92.41-88.93-149.3-120.8-41.05-23.02-77.16-42.03-124.9-37zm89.07 106.1c43.81 21.18 88.79 76.81-0.3904 108.8-24.25 8.706-101.2-21.38-98.8-62.44 3.433-60.66 45.71-72.24 99.19-46.38z" style="fill-rule:evenodd;fill:url(#vlpc)"/>
  </g>
</svg>