<?xml version="1.0" encoding="UTF-8"?>
<svg width="148px" height="66px" viewBox="0 0 148 66" version="1.1" xmlns="http://www.w3.org/2000/svg" xmlns:xlink="http://www.w3.org/1999/xlink">
    <!-- Generator: Sketch 52.6 (67491) - http://www.bohemiancoding.com/sketch -->
    <title>logo-AFP</title>
    <desc>Created with Sketch.</desc>
    <defs>
        <path d="M81.6518181,41.4440636 L76.705787,27.0495604 L71.4492427,41.4440636 L81.6518181,41.4440636 Z M74.3991177,22.2144269 L79.3895079,22.2144269 L91.2111877,54.7961297 L86.3760541,54.7961297 L83.0713068,45.0371445 L70.1850105,45.0371445 L66.6584681,54.7961297 L62.1338477,54.7961297 L74.3991177,22.2144269 Z M95.64709,22.2144269 L118.248013,22.2144269 L118.248013,26.206739 L100.060813,26.206739 L100.060813,36.0988013 L116.052241,36.0988013 L116.052241,39.9802158 L100.060813,39.9802158 L100.060813,54.7961297 L95.64709,54.7961297 L95.64709,22.2144269 Z M123.393659,22.2144269 L138.054317,22.2144269 C140.952454,22.2144269 143.288673,23.0313641 145.063042,24.6652629 C146.837412,26.2991618 147.724584,28.5947183 147.724584,31.5520013 C147.724584,34.0952647 146.933522,36.3094972 145.351376,38.1947651 C143.76923,40.0800331 141.336901,41.0226529 138.054317,41.0226529 L127.807382,41.0226529 L127.807382,54.7961297 L123.393659,54.7961297 L123.393659,22.2144269 Z M143.266502,31.5741809 C143.266502,29.1787816 142.37933,27.5523003 140.60496,26.6946883 C139.629057,26.2363094 138.290907,26.0071234 136.590469,26.0071234 L127.807382,26.0071234 L127.807382,37.2964949 L136.590469,37.2964949 C138.571848,37.2964949 140.179847,36.8750884 141.414513,36.0322627 C142.649178,35.1894371 143.266502,33.7034246 143.266502,31.5741809 Z" id="path-1"></path>
    </defs>
    <g id="Page-1" stroke="none" stroke-width="1" fill="none" fill-rule="evenodd">
        <g id="logo-AFP">
            <path d="M45.8532427,62.6549686 C42.3122385,66.0914749 38.4053347,65.5556485 34.6812238,63.9356172 C30.7220711,62.282636 27.1024582,62.1779812 22.9212866,63.9356172 C17.7141213,66.1829498 14.9505753,65.5296025 11.8145397,62.6549686 C-5.89079498,44.4269874 -3.27740586,16.6600418 16.8451883,15.614749 C21.7256799,15.8761506 25.1425732,18.313023 28.0172071,18.5155858 C32.2901674,17.6466527 36.3800209,15.1573745 40.953295,15.4840481 C46.4479079,15.9283996 50.5573745,18.0974372 53.3013075,21.9979079 C41.9985879,28.7924686 44.6774059,43.6885983 55.0589435,47.8699268 C52.9812238,53.3253138 50.3157427,58.715272 45.8468096,62.7006276 L45.8532427,62.6549686 Z M27.6252615,15.4187762 C27.096182,7.31736402 33.6621339,0.65334728 41.2146967,0 C42.2533996,9.34283473 32.7213389,16.3333682 27.6252615,15.4187762 Z" id="Shape" fill="#000000" fill-rule="nonzero"></path>
            <g id="AFP">
                <use fill="#000000" xlink:href="#path-1"></use>
                <use fill="#333333" xlink:href="#path-1"></use>
            </g>
        </g>
    </g>
</svg>