<?xml version="1.0" encoding="utf-8"?>
<svg height="100%" style="fill-rule:evenodd;clip-rule:evenodd;stroke-linecap:round;stroke-linejoin:round;" width="100%" version="1.1" viewBox="0 0 150 150" xmlns="http://www.w3.org/2000/svg" xmlns:bx="https://boxy-svg.com">
  <defs>
    <bx:grid x="0" y="0" width="15" height="15"/>
  </defs>
  <rect width="120" height="120" style="fill: none; stroke-width: 0.2px; stroke: rgb(84, 84, 84); pointer-events: none; visibility: hidden;" x="15" y="15" bx:origin="0.5 0.5"/>
  <path d="M 54.379 40.044 C 54.379 40.044 33.758 57.523 26.884 63.349 C 13.137 75 13.137 75 26.884 86.653 C 33.758 92.479 36.716 95.117 47.504 104.13 C 54.379 109.956 61.251 115.784 68.127 98.305 C 81.873 51.696 68.127 98.305 81.873 51.696 C 88.747 34.218 95.621 40.044 102.495 45.87 C 109.369 51.696 116.242 57.523 123.116 63.349 C 136.864 75 136.864 75 123.116 86.653 C 116.242 92.479 102.495 104.13 95.621 109.956" style="fill: none; stroke: rgb(0, 0, 0); stroke-width: 2px;"/>
</svg>