<?xml version="1.0" encoding="utf-8"?>
<svg height="100%" style="fill-rule:evenodd;clip-rule:evenodd;stroke-linecap:round;stroke-linejoin:round;" width="100%" version="1.1" viewBox="0 0 150 150" xmlns="http://www.w3.org/2000/svg" xmlns:bx="https://boxy-svg.com">
  <defs>
    <bx:grid x="0" y="0" width="15" height="15"/>
  </defs>
  <rect width="120" height="120" style="fill: none; stroke-width: 0.2px; stroke: rgb(84, 84, 84); pointer-events: none; visibility: hidden;" x="15" y="15" bx:origin="0.5 0.5"/>
  <path d="M 75.293 43 L 116 103 L 34.586 103 L 75.293 43 Z" style="stroke: rgb(0, 0, 0); fill: none;" bx:shape="triangle 34.586 43 81.414 60 0.5 0 1@1ba24b8a"/>
  <rect x="30" y="90" width="22.423" height="21.428" style="fill: rgb(255, 255, 255);"/>
  <rect x="97.577" y="90" width="22.423" height="21.428" style="fill: rgb(255, 255, 255);"/>
  <g style="" transform="matrix(0.999247, 0, 0, 0.999247, 0.011287, 0.101578)">
    <g style="" transform="matrix(0.428572, 0, 0, 0.428572, 8.57151, 77.142845)">
      <g transform="matrix(1.382085, 0, 0, 1.382085, -201.609818, -91.918106)" style="">
        <path d="M 200.154 107.834 L 175.279 80.475 C 176.249 79.506 177.366 78.756 178.644 78.198 C 179.922 77.64 181.304 77.36 182.773 77.36 C 184.345 77.375 185.77 77.684 187.078 78.286 C 188.386 78.889 189.517 79.726 190.472 80.784 L 200.14 91.348 L 209.749 80.784 C 210.748 79.726 211.909 78.889 213.216 78.286 C 214.539 77.684 215.964 77.375 217.507 77.36 C 218.976 77.375 220.357 77.654 221.635 78.198 C 222.914 78.756 224.045 79.506 225 80.475 L 200.154 107.834 M 200.154 112.006 L 175.279 139.364 C 176.249 140.334 177.366 141.083 178.644 141.642 C 179.922 142.2 181.304 142.479 182.773 142.479 C 184.316 142.465 185.741 142.156 187.063 141.554 C 188.386 140.951 189.546 140.114 190.531 139.056 L 200.14 128.492 L 209.808 139.056 C 210.763 140.114 211.894 140.951 213.202 141.554 C 214.509 142.156 215.935 142.465 217.507 142.479 C 218.976 142.465 220.357 142.185 221.635 141.642 C 222.914 141.083 224.045 140.334 225 139.364 L 200.154 112.006" style=""/>
        <path d="M 198.053 109.883 L 179.32 89.342 C 178.232 88.182 176.969 87.271 175.514 86.595 C 174.074 85.934 172.502 85.596 170.827 85.581 C 169.211 85.596 167.698 85.904 166.302 86.507 C 164.891 87.109 163.672 87.946 162.614 88.99 L 181.612 109.883 L 162.599 130.776 C 163.657 131.863 164.891 132.716 166.287 133.333 C 167.698 133.95 169.196 134.258 170.813 134.258 C 172.502 134.244 174.074 133.906 175.529 133.245 C 176.984 132.583 178.247 131.658 179.305 130.497 L 198.053 109.883 M 202.226 109.883 L 220.959 130.497 C 222.017 131.658 223.281 132.569 224.735 133.245 C 226.19 133.906 227.762 134.244 229.452 134.258 C 231.068 134.244 232.581 133.935 233.977 133.333 C 235.388 132.716 236.607 131.878 237.665 130.776 L 218.667 109.883 L 237.68 88.99 C 236.622 87.932 235.388 87.109 233.992 86.507 C 232.581 85.904 231.083 85.596 229.466 85.581 C 227.791 85.596 226.219 85.934 224.779 86.595 C 223.34 87.256 222.061 88.182 220.974 89.342 L 202.226 109.883" style="fill: rgb(229, 112, 0);"/>
      </g>
      <g id="text3223" style="font: 387.522px / 125% Helion; text-align: start; letter-spacing: 0px; word-spacing: 0px; writing-mode: lr-tb; text-anchor: start; fill: rgb(0, 0, 0); fill-opacity: 1; stroke: none;" transform="matrix(0.053054, 0, 0, 0.053054, 62.177891, 134.52916)">
        <path id="path3354" d="m -686.1811,-262.38737 -177.87034,0 c -6.9834,0.19403 -12.87689,2.71288 -17.68048,7.55658 -4.8036,4.84422 -7.30631,10.85073 -7.50813,18.01955 l 0,245.6858223 c 19.0852,-0.4763289 34.97338,-7.080262 47.6646,-19.8118193 12.69112,-12.731517 19.2789,-28.732724 19.76337,-48.003669 l 135.63098,0 c 19.28682,-0.476261 35.35261,-7.080194 48.19742,-19.811819 12.84432,-12.73145 19.51284,-28.732655 20.00558,-48.003665 l 0,-67.42798 c -0.49274,-19.28682 -7.16125,-35.35262 -20.00557,-48.19744 -12.84482,-12.84432 -28.91061,-19.51283 -48.19743,-20.00556 z m -135.63098,144.15635 0,-75.95335 118.96774,0 c 0.69411,-0.34694 3.47131,0.34736 8.33161,2.08291 4.85991,1.73595 7.63712,6.59605 8.33163,14.58033 l 0,42.23936 c 0.34694,0.7106 -0.34736,3.55238 -2.08291,8.52538 -1.73595,4.97326 -6.59606,7.81505 -14.58033,8.52537 z"/>
        <path id="path3356" d="m -308.04521,-143.41963 0,-50.76474 c -0.4766,-19.28682 -7.08053,-35.35262 -19.81182,-48.19744 -12.73179,-12.84432 -28.733,-19.51283 -48.00367,-20.00556 l -177.87034,0 c -7.15293,0.19403 -13.09485,2.71288 -17.82578,7.55658 -4.73095,4.84422 -7.18522,10.85073 -7.36283,18.01955 l 0,245.6858223 c 19.10135,-0.4763289 35.05412,-7.080262 47.85836,-19.8118193 12.80414,-12.731517 19.45651,-28.732724 19.95713,-48.003669 l 0,-17.050751 77.1159,0 39.13922,55.802459 c 6.28082,9.009794 14.16033,16.0819732 23.63854,21.2165595 9.47781,5.1346021 20.06993,7.7503397 31.77641,7.8472208 5.64296,-0.00808 11.11663,-0.6700872 16.42102,-1.9860337 5.30388,-1.3159425 10.29316,-3.2373765 14.96786,-5.7643078 l -54.63991,-77.8909318 c 15.83952,-3.431052 28.82133,-11.197535 38.94546,-23.299469 10.12362,-12.10172 15.3551,-26.55286 15.69445,-43.35347 z m -203.05895,8.13786 0,-58.9026 118.19271,0 c 0.71026,-0.34694 3.55205,0.34736 8.52537,2.08291 4.97294,1.73595 7.81473,6.59605 8.52538,14.58033 l 0,25.57613 c 0.35502,0.69445 -0.35543,3.47166 -2.13135,8.33161 -1.77632,4.86025 -6.74945,7.63746 -14.9194,8.33162 z"/>
        <path id="path3358" d="m -66.297193,-262.38737 -135.243457,0 c -19.27095,0.49275 -35.27217,7.16126 -48.00368,20.00558 -12.73156,12.84481 -19.33549,28.91061 -19.81181,48.19742 l 0,135.243464 c 0.47632,19.270945 7.08025,35.272154 19.81181,48.003675 12.73152,12.731561 28.73273,19.3354921 48.00368,19.8118133 l 135.243457,0 C -47.026519,8.3982534 -31.02531,1.7943203 -18.293518,-10.937237 -5.5622279,-23.668754 1.0417033,-39.669961 1.5182953,-58.940906 l 0,-135.243464 c -0.4765997,-19.28682 -7.0805328,-35.35262 -19.8118193,-48.19744 -12.731788,-12.84432 -28.732995,-19.51283 -48.003669,-20.00556 z m 0,186.395713 c 0.355023,0.710536 -0.355427,3.552325 -2.13135,8.525376 -1.776324,4.973203 -6.749453,7.814992 -14.919401,8.525375 l -101.141956,0 c -0.71053,0.355294 -3.55232,-0.355156 -8.52538,-2.13135 -4.97321,-1.776054 -7.815,-6.749182 -8.52537,-14.919401 l 0,-101.529473 c -0.3553,-0.69411 0.35515,-3.47132 2.13134,-8.33162 1.77604,-4.85992 6.74918,-7.63712 14.91941,-8.33162 l 101.141956,0 c 0.710265,-0.34694 3.552054,0.34736 8.525376,2.08291 4.972932,1.73595 7.814721,6.59605 8.525375,14.58033 z"/>
        <path id="path3360" style="fill:#e57000;fill-opacity:1" d="m 343.24581,-243.01152 c -5.87764,-5.87708 -12.72377,-10.49499 -20.5384,-13.85374 -7.8152,-3.35821 -16.2114,-5.06974 -25.18861,-5.13459 -9.55093,0.0729 -18.35079,1.96208 -26.3996,5.66744 -8.04928,3.70589 -15.00843,8.79205 -20.87749,15.25848 l -58.51508,64.32783 -58.90259,-64.32783 c -6.02275,-6.63598 -12.96576,-11.77058 -20.82905,-15.40381 -7.86343,-3.6327 -16.550262,-5.47341 -26.060517,-5.52211 -8.977519,0.0649 -17.373714,1.77639 -25.18861,5.1346 -7.814936,3.35874 -14.661064,7.97665 -20.538405,13.85373 L 145.99962,-126.75639 40.207458,-10.501271 c 5.877333,6.0630371 12.723461,10.79396706 20.538405,14.1928038 7.814904,3.398847 16.211099,5.1265285 25.18861,5.1830495 9.381091,-0.072659 18.132507,-1.9618037 26.254287,-5.6674401 8.12163,-3.70562508 15.12923,-8.7917806 21.0228,-15.2584822 l 58.51507,-64.327834 58.51508,64.327834 c 5.86906,6.4667016 12.82821,11.55285519 20.87749,15.2584764 8.04881,3.7056326 16.84867,5.5947793 26.3996,5.6674459 8.97721,-0.056513 17.3734,-1.7841929 25.18861,-5.1830438 7.81464,-3.39884052 14.66077,-8.1297724 20.5384,-14.1928095 L 237.45365,-126.75639 z"/>
        <path id="path3362" d="m 695.81803,-262.38737 -42.62688,0 c -13.94281,0.19403 -26.35949,3.97232 -37.25008,11.33487 -10.89107,7.36308 -19.14194,17.14787 -24.75266,29.35442 l 0.38752,-0.77503 -39.91426,87.57886 -39.52674,-87.57886 0,0.77503 c -5.44152,-12.20655 -13.64395,-21.99134 -24.60734,-29.35442 -10.96359,-7.36256 -23.42871,-11.14084 -37.39539,-11.33487 l -42.23936,0 c -7.33862,0.19403 -13.39357,2.71288 -18.16487,7.55658 -4.77131,4.84422 -7.24173,10.85073 -7.41126,18.01955 l 0,245.6858223 c 19.10135,-0.4763289 35.05411,-7.080262 47.85835,-19.8118193 12.80415,-12.731517 19.45652,-28.732724 19.95714,-48.003669 l 0,-129.818224 c 0.0241,-1.76784 0.55699,-3.17259 1.59851,-4.21425 1.04138,-1.04125 2.44613,-1.57408 4.21425,-1.5985 1.00908,0.0325 1.99402,0.35542 2.95482,0.96878 0.96064,0.61377 1.65494,1.32422 2.0829,2.13135 l 75.17831,165.857313 c 1.42074,2.962919 3.51979,5.368749 6.29715,7.217496 2.77705,1.848803 5.84489,2.801451 9.20353,2.857948 3.33409,-0.04034 6.35349,-0.928394 9.05821,-2.664177 2.70436,-1.73573 4.85185,-4.076977 6.44248,-7.02375 l 75.17831,-166.24483 c 0.58909,-0.80712 1.34797,-1.51757 2.27666,-2.13135 0.92817,-0.61337 1.97769,-0.9363 3.14858,-0.96878 1.5821,0.0244 2.87382,0.55726 3.87517,1.59851 1.00081,1.04165 1.5175,2.4464 1.55007,4.21424 l 0,129.818224 c 0.50027,19.270945 7.15264,35.272154 19.95712,48.003675 12.8039,12.731561 28.75667,19.3354921 47.85836,19.8118133 l 0,-245.6858223 c -0.17794,-7.16882 -2.63221,-13.17533 -7.36282,-18.01955 -4.73127,-4.8437 -10.67319,-7.36255 -17.82578,-7.55658 z"/>
        <path id="path3364" d="m 963.0584,-262.38737 -135.24346,0 c -19.27095,0.49275 -35.27216,7.16126 -48.00368,20.00558 -12.73156,12.84481 -19.33549,28.91061 -19.81181,48.19742 l 0,135.243464 c 0.47632,19.270945 7.08025,35.272154 19.81181,48.003675 12.73153,12.731561 28.73273,19.3354921 48.00368,19.8118133 l 135.24346,0 c 19.27067,-0.4763289 35.27188,-7.080262 48.0037,-19.8118193 12.7313,-12.731517 19.3352,-28.732724 19.8118,-48.003669 l 0,-135.243464 c -0.4766,-19.28682 -7.0805,-35.35262 -19.8118,-48.19744 -12.73182,-12.84432 -28.73303,-19.51283 -48.0037,-20.00556 z m 0,186.395713 c 0.35502,0.710536 -0.35543,3.552325 -2.13135,8.525376 -1.77633,4.973203 -6.74946,7.814992 -14.9194,8.525375 l -101.14196,0 c -0.71053,0.355294 -3.55232,-0.355156 -8.52538,-2.13135 -4.97321,-1.776054 -7.815,-6.749182 -8.52537,-14.919401 l 0,-101.529473 c -0.35529,-0.69411 0.35515,-3.47132 2.13134,-8.33162 1.77604,-4.85992 6.74918,-7.63712 14.91941,-8.33162 l 101.14196,0 c 0.71026,-0.34694 3.55205,0.34736 8.52537,2.08291 4.97293,1.73595 7.81472,6.59605 8.52538,14.58033 z"/>
        <path id="path3366" style="fill:#e57000;fill-opacity:1" d="m 1372.6013,-243.01152 c -5.8777,-5.87708 -12.7238,-10.49499 -20.5384,-13.85374 -7.8152,-3.35821 -16.2114,-5.06974 -25.1886,-5.13459 -9.551,0.0729 -18.3508,1.96208 -26.3996,5.66744 -8.0493,3.70589 -15.0085,8.79205 -20.8775,15.25848 l -58.5151,64.32783 -58.9026,-64.32783 c -6.0227,-6.63598 -12.9658,-11.77058 -20.829,-15.40381 -7.8635,-3.6327 -16.5503,-5.47341 -26.0606,-5.52211 -8.9775,0.0649 -17.3737,1.77639 -25.1886,5.1346 -7.8149,3.35874 -14.661,7.97665 -20.5384,13.85373 l 105.7922,116.25513 -105.7922,116.255119 c 5.8774,6.0630371 12.7235,10.79396706 20.5384,14.1928038 7.8149,3.398847 16.2111,5.1265285 25.1886,5.1830495 9.3811,-0.072659 18.1326,-1.9618037 26.2543,-5.6674401 8.1217,-3.70562508 15.1293,-8.7917806 21.0228,-15.2584822 l 58.5151,-64.327834 58.5151,64.327834 c 5.869,6.4667016 12.8282,11.55285519 20.8775,15.2584764 8.0488,3.7056326 16.8486,5.5947793 26.3996,5.6674459 8.9772,-0.056513 17.3734,-1.7841929 25.1886,-5.1830438 7.8146,-3.39884052 14.6607,-8.1297724 20.5384,-14.1928095 L 1266.8091,-126.75639 z"/>
      </g>
    </g>
    <g style="" transform="matrix(0.428572, 0, 0, 0.428572, 77.142891, 77.142845)">
      <g transform="matrix(1.382085, 0, 0, 1.382085, -201.609818, -91.918106)" style="">
        <path d="M 200.154 107.834 L 175.279 80.475 C 176.249 79.506 177.366 78.756 178.644 78.198 C 179.922 77.64 181.304 77.36 182.773 77.36 C 184.345 77.375 185.77 77.684 187.078 78.286 C 188.386 78.889 189.517 79.726 190.472 80.784 L 200.14 91.348 L 209.749 80.784 C 210.748 79.726 211.909 78.889 213.216 78.286 C 214.539 77.684 215.964 77.375 217.507 77.36 C 218.976 77.375 220.357 77.654 221.635 78.198 C 222.914 78.756 224.045 79.506 225 80.475 L 200.154 107.834 M 200.154 112.006 L 175.279 139.364 C 176.249 140.334 177.366 141.083 178.644 141.642 C 179.922 142.2 181.304 142.479 182.773 142.479 C 184.316 142.465 185.741 142.156 187.063 141.554 C 188.386 140.951 189.546 140.114 190.531 139.056 L 200.14 128.492 L 209.808 139.056 C 210.763 140.114 211.894 140.951 213.202 141.554 C 214.509 142.156 215.935 142.465 217.507 142.479 C 218.976 142.465 220.357 142.185 221.635 141.642 C 222.914 141.083 224.045 140.334 225 139.364 L 200.154 112.006" style=""/>
        <path d="M 198.053 109.883 L 179.32 89.342 C 178.232 88.182 176.969 87.271 175.514 86.595 C 174.074 85.934 172.502 85.596 170.827 85.581 C 169.211 85.596 167.698 85.904 166.302 86.507 C 164.891 87.109 163.672 87.946 162.614 88.99 L 181.612 109.883 L 162.599 130.776 C 163.657 131.863 164.891 132.716 166.287 133.333 C 167.698 133.95 169.196 134.258 170.813 134.258 C 172.502 134.244 174.074 133.906 175.529 133.245 C 176.984 132.583 178.247 131.658 179.305 130.497 L 198.053 109.883 M 202.226 109.883 L 220.959 130.497 C 222.017 131.658 223.281 132.569 224.735 133.245 C 226.19 133.906 227.762 134.244 229.452 134.258 C 231.068 134.244 232.581 133.935 233.977 133.333 C 235.388 132.716 236.607 131.878 237.665 130.776 L 218.667 109.883 L 237.68 88.99 C 236.622 87.932 235.388 87.109 233.992 86.507 C 232.581 85.904 231.083 85.596 229.466 85.581 C 227.791 85.596 226.219 85.934 224.779 86.595 C 223.34 87.256 222.061 88.182 220.974 89.342 L 202.226 109.883" style="fill: rgb(229, 112, 0);"/>
      </g>
      <g id="g-1" style="font: 387.522px / 125% Helion; text-align: start; letter-spacing: 0px; word-spacing: 0px; writing-mode: lr-tb; text-anchor: start; fill: rgb(0, 0, 0); fill-opacity: 1; stroke: none;" transform="matrix(0.053054, 0, 0, 0.053054, 62.177891, 134.52916)">
        <path id="path-1" d="m -686.1811,-262.38737 -177.87034,0 c -6.9834,0.19403 -12.87689,2.71288 -17.68048,7.55658 -4.8036,4.84422 -7.30631,10.85073 -7.50813,18.01955 l 0,245.6858223 c 19.0852,-0.4763289 34.97338,-7.080262 47.6646,-19.8118193 12.69112,-12.731517 19.2789,-28.732724 19.76337,-48.003669 l 135.63098,0 c 19.28682,-0.476261 35.35261,-7.080194 48.19742,-19.811819 12.84432,-12.73145 19.51284,-28.732655 20.00558,-48.003665 l 0,-67.42798 c -0.49274,-19.28682 -7.16125,-35.35262 -20.00557,-48.19744 -12.84482,-12.84432 -28.91061,-19.51283 -48.19743,-20.00556 z m -135.63098,144.15635 0,-75.95335 118.96774,0 c 0.69411,-0.34694 3.47131,0.34736 8.33161,2.08291 4.85991,1.73595 7.63712,6.59605 8.33163,14.58033 l 0,42.23936 c 0.34694,0.7106 -0.34736,3.55238 -2.08291,8.52538 -1.73595,4.97326 -6.59606,7.81505 -14.58033,8.52537 z"/>
        <path id="path-2" d="m -308.04521,-143.41963 0,-50.76474 c -0.4766,-19.28682 -7.08053,-35.35262 -19.81182,-48.19744 -12.73179,-12.84432 -28.733,-19.51283 -48.00367,-20.00556 l -177.87034,0 c -7.15293,0.19403 -13.09485,2.71288 -17.82578,7.55658 -4.73095,4.84422 -7.18522,10.85073 -7.36283,18.01955 l 0,245.6858223 c 19.10135,-0.4763289 35.05412,-7.080262 47.85836,-19.8118193 12.80414,-12.731517 19.45651,-28.732724 19.95713,-48.003669 l 0,-17.050751 77.1159,0 39.13922,55.802459 c 6.28082,9.009794 14.16033,16.0819732 23.63854,21.2165595 9.47781,5.1346021 20.06993,7.7503397 31.77641,7.8472208 5.64296,-0.00808 11.11663,-0.6700872 16.42102,-1.9860337 5.30388,-1.3159425 10.29316,-3.2373765 14.96786,-5.7643078 l -54.63991,-77.8909318 c 15.83952,-3.431052 28.82133,-11.197535 38.94546,-23.299469 10.12362,-12.10172 15.3551,-26.55286 15.69445,-43.35347 z m -203.05895,8.13786 0,-58.9026 118.19271,0 c 0.71026,-0.34694 3.55205,0.34736 8.52537,2.08291 4.97294,1.73595 7.81473,6.59605 8.52538,14.58033 l 0,25.57613 c 0.35502,0.69445 -0.35543,3.47166 -2.13135,8.33161 -1.77632,4.86025 -6.74945,7.63746 -14.9194,8.33162 z"/>
        <path id="path-3" d="m -66.297193,-262.38737 -135.243457,0 c -19.27095,0.49275 -35.27217,7.16126 -48.00368,20.00558 -12.73156,12.84481 -19.33549,28.91061 -19.81181,48.19742 l 0,135.243464 c 0.47632,19.270945 7.08025,35.272154 19.81181,48.003675 12.73152,12.731561 28.73273,19.3354921 48.00368,19.8118133 l 135.243457,0 C -47.026519,8.3982534 -31.02531,1.7943203 -18.293518,-10.937237 -5.5622279,-23.668754 1.0417033,-39.669961 1.5182953,-58.940906 l 0,-135.243464 c -0.4765997,-19.28682 -7.0805328,-35.35262 -19.8118193,-48.19744 -12.731788,-12.84432 -28.732995,-19.51283 -48.003669,-20.00556 z m 0,186.395713 c 0.355023,0.710536 -0.355427,3.552325 -2.13135,8.525376 -1.776324,4.973203 -6.749453,7.814992 -14.919401,8.525375 l -101.141956,0 c -0.71053,0.355294 -3.55232,-0.355156 -8.52538,-2.13135 -4.97321,-1.776054 -7.815,-6.749182 -8.52537,-14.919401 l 0,-101.529473 c -0.3553,-0.69411 0.35515,-3.47132 2.13134,-8.33162 1.77604,-4.85992 6.74918,-7.63712 14.91941,-8.33162 l 101.141956,0 c 0.710265,-0.34694 3.552054,0.34736 8.525376,2.08291 4.972932,1.73595 7.814721,6.59605 8.525375,14.58033 z"/>
        <path id="path-4" style="fill:#e57000;fill-opacity:1" d="m 343.24581,-243.01152 c -5.87764,-5.87708 -12.72377,-10.49499 -20.5384,-13.85374 -7.8152,-3.35821 -16.2114,-5.06974 -25.18861,-5.13459 -9.55093,0.0729 -18.35079,1.96208 -26.3996,5.66744 -8.04928,3.70589 -15.00843,8.79205 -20.87749,15.25848 l -58.51508,64.32783 -58.90259,-64.32783 c -6.02275,-6.63598 -12.96576,-11.77058 -20.82905,-15.40381 -7.86343,-3.6327 -16.550262,-5.47341 -26.060517,-5.52211 -8.977519,0.0649 -17.373714,1.77639 -25.18861,5.1346 -7.814936,3.35874 -14.661064,7.97665 -20.538405,13.85373 L 145.99962,-126.75639 40.207458,-10.501271 c 5.877333,6.0630371 12.723461,10.79396706 20.538405,14.1928038 7.814904,3.398847 16.211099,5.1265285 25.18861,5.1830495 9.381091,-0.072659 18.132507,-1.9618037 26.254287,-5.6674401 8.12163,-3.70562508 15.12923,-8.7917806 21.0228,-15.2584822 l 58.51507,-64.327834 58.51508,64.327834 c 5.86906,6.4667016 12.82821,11.55285519 20.87749,15.2584764 8.04881,3.7056326 16.84867,5.5947793 26.3996,5.6674459 8.97721,-0.056513 17.3734,-1.7841929 25.18861,-5.1830438 7.81464,-3.39884052 14.66077,-8.1297724 20.5384,-14.1928095 L 237.45365,-126.75639 z"/>
        <path id="path-5" d="m 695.81803,-262.38737 -42.62688,0 c -13.94281,0.19403 -26.35949,3.97232 -37.25008,11.33487 -10.89107,7.36308 -19.14194,17.14787 -24.75266,29.35442 l 0.38752,-0.77503 -39.91426,87.57886 -39.52674,-87.57886 0,0.77503 c -5.44152,-12.20655 -13.64395,-21.99134 -24.60734,-29.35442 -10.96359,-7.36256 -23.42871,-11.14084 -37.39539,-11.33487 l -42.23936,0 c -7.33862,0.19403 -13.39357,2.71288 -18.16487,7.55658 -4.77131,4.84422 -7.24173,10.85073 -7.41126,18.01955 l 0,245.6858223 c 19.10135,-0.4763289 35.05411,-7.080262 47.85835,-19.8118193 12.80415,-12.731517 19.45652,-28.732724 19.95714,-48.003669 l 0,-129.818224 c 0.0241,-1.76784 0.55699,-3.17259 1.59851,-4.21425 1.04138,-1.04125 2.44613,-1.57408 4.21425,-1.5985 1.00908,0.0325 1.99402,0.35542 2.95482,0.96878 0.96064,0.61377 1.65494,1.32422 2.0829,2.13135 l 75.17831,165.857313 c 1.42074,2.962919 3.51979,5.368749 6.29715,7.217496 2.77705,1.848803 5.84489,2.801451 9.20353,2.857948 3.33409,-0.04034 6.35349,-0.928394 9.05821,-2.664177 2.70436,-1.73573 4.85185,-4.076977 6.44248,-7.02375 l 75.17831,-166.24483 c 0.58909,-0.80712 1.34797,-1.51757 2.27666,-2.13135 0.92817,-0.61337 1.97769,-0.9363 3.14858,-0.96878 1.5821,0.0244 2.87382,0.55726 3.87517,1.59851 1.00081,1.04165 1.5175,2.4464 1.55007,4.21424 l 0,129.818224 c 0.50027,19.270945 7.15264,35.272154 19.95712,48.003675 12.8039,12.731561 28.75667,19.3354921 47.85836,19.8118133 l 0,-245.6858223 c -0.17794,-7.16882 -2.63221,-13.17533 -7.36282,-18.01955 -4.73127,-4.8437 -10.67319,-7.36255 -17.82578,-7.55658 z"/>
        <path id="path-6" d="m 963.0584,-262.38737 -135.24346,0 c -19.27095,0.49275 -35.27216,7.16126 -48.00368,20.00558 -12.73156,12.84481 -19.33549,28.91061 -19.81181,48.19742 l 0,135.243464 c 0.47632,19.270945 7.08025,35.272154 19.81181,48.003675 12.73153,12.731561 28.73273,19.3354921 48.00368,19.8118133 l 135.24346,0 c 19.27067,-0.4763289 35.27188,-7.080262 48.0037,-19.8118193 12.7313,-12.731517 19.3352,-28.732724 19.8118,-48.003669 l 0,-135.243464 c -0.4766,-19.28682 -7.0805,-35.35262 -19.8118,-48.19744 -12.73182,-12.84432 -28.73303,-19.51283 -48.0037,-20.00556 z m 0,186.395713 c 0.35502,0.710536 -0.35543,3.552325 -2.13135,8.525376 -1.77633,4.973203 -6.74946,7.814992 -14.9194,8.525375 l -101.14196,0 c -0.71053,0.355294 -3.55232,-0.355156 -8.52538,-2.13135 -4.97321,-1.776054 -7.815,-6.749182 -8.52537,-14.919401 l 0,-101.529473 c -0.35529,-0.69411 0.35515,-3.47132 2.13134,-8.33162 1.77604,-4.85992 6.74918,-7.63712 14.91941,-8.33162 l 101.14196,0 c 0.71026,-0.34694 3.55205,0.34736 8.52537,2.08291 4.97293,1.73595 7.81472,6.59605 8.52538,14.58033 z"/>
        <path id="path-7" style="fill:#e57000;fill-opacity:1" d="m 1372.6013,-243.01152 c -5.8777,-5.87708 -12.7238,-10.49499 -20.5384,-13.85374 -7.8152,-3.35821 -16.2114,-5.06974 -25.1886,-5.13459 -9.551,0.0729 -18.3508,1.96208 -26.3996,5.66744 -8.0493,3.70589 -15.0085,8.79205 -20.8775,15.25848 l -58.5151,64.32783 -58.9026,-64.32783 c -6.0227,-6.63598 -12.9658,-11.77058 -20.829,-15.40381 -7.8635,-3.6327 -16.5503,-5.47341 -26.0606,-5.52211 -8.9775,0.0649 -17.3737,1.77639 -25.1886,5.1346 -7.8149,3.35874 -14.661,7.97665 -20.5384,13.85373 l 105.7922,116.25513 -105.7922,116.255119 c 5.8774,6.0630371 12.7235,10.79396706 20.5384,14.1928038 7.8149,3.398847 16.2111,5.1265285 25.1886,5.1830495 9.3811,-0.072659 18.1326,-1.9618037 26.2543,-5.6674401 8.1217,-3.70562508 15.1293,-8.7917806 21.0228,-15.2584822 l 58.5151,-64.327834 58.5151,64.327834 c 5.869,6.4667016 12.8282,11.55285519 20.8775,15.2584764 8.0488,3.7056326 16.8486,5.5947793 26.3996,5.6674459 8.9772,-0.056513 17.3734,-1.7841929 25.1886,-5.1830438 7.8146,-3.39884052 14.6607,-8.1297724 20.5384,-14.1928095 L 1266.8091,-126.75639 z"/>
      </g>
    </g>
  </g>
  <g transform="matrix(0.38648, 0, 0, 0.38648, 46.014, 9.189014)" style="">
    <title>Raspberry</title>
    <path d="M 53.466 15.037 C 52.859 15.056 52.206 15.28 51.466 15.865 C 49.651 15.165 47.892 14.922 46.318 16.346 C 43.89 16.031 43.099 16.682 42.501 17.441 C 41.968 17.43 38.51 16.893 36.924 19.258 C 32.94 18.786 31.68 21.602 33.107 24.227 C 32.293 25.487 31.45 26.732 33.353 29.133 C 32.68 30.471 33.097 31.922 34.683 33.679 C 34.265 35.559 35.087 36.886 36.563 37.92 C 36.287 40.493 38.923 41.99 39.71 42.523 C 40.012 44.022 40.642 45.437 43.653 46.22 C 44.15 48.454 45.959 48.84 47.711 49.309 C 41.92 52.675 36.954 57.104 36.987 67.971 L 36.139 69.484 C 29.498 73.523 23.524 86.503 32.866 97.054 C 33.477 100.356 34.5 102.728 35.411 105.353 C 36.774 115.931 45.669 120.885 48.015 121.47 C 51.453 124.089 55.114 126.574 60.069 128.314 C 64.74 133.132 69.8 134.968 74.888 134.964 C 74.962 134.964 75.038 134.965 75.113 134.964 C 80.201 134.968 85.261 133.132 89.931 128.314 C 94.886 126.574 98.548 124.089 101.985 121.47 C 104.331 120.885 113.226 115.931 114.589 105.353 C 115.5 102.728 116.524 100.356 117.134 97.054 C 126.476 86.503 120.502 73.523 113.861 69.484 L 113.013 67.971 C 113.047 57.104 108.08 52.675 102.289 49.309 C 104.041 48.84 105.851 48.454 106.347 46.22 C 109.358 45.437 109.988 44.022 110.29 42.523 C 111.077 41.99 113.713 40.493 113.437 37.92 C 114.913 36.886 115.736 35.559 115.317 33.679 C 116.903 31.922 117.32 30.471 116.647 29.133 C 118.55 26.732 117.707 25.487 116.893 24.227 C 118.32 21.602 117.061 18.786 113.076 19.258 C 111.49 16.893 108.033 17.43 107.499 17.441 C 106.901 16.682 106.111 16.031 103.682 16.346 C 102.108 14.922 100.349 15.165 98.535 15.865 C 96.38 14.164 94.954 15.527 93.325 16.043 C 90.715 15.19 90.119 16.358 88.837 16.833 C 85.993 16.232 85.128 17.541 83.763 18.923 L 82.177 18.891 C 77.885 21.42 75.753 26.57 74.998 29.217 C 74.242 26.569 72.114 21.42 67.824 18.891 L 66.237 18.923 C 64.872 17.541 64.008 16.232 61.163 16.833 C 59.882 16.358 59.285 15.19 56.676 16.043 C 55.607 15.704 54.624 15.001 53.466 15.037 Z" style="fill: rgb(0, 0, 0);"/>
    <path d="M 44.923 26.163 C 56.308 32.033 62.927 36.782 66.553 40.826 C 64.696 48.268 55.009 48.608 51.467 48.399 C 52.192 48.062 52.797 47.657 53.012 47.036 C 52.123 46.404 48.971 46.969 46.771 45.733 C 47.616 45.558 48.012 45.388 48.407 44.764 C 46.328 44.101 44.089 43.53 42.772 42.431 C 43.483 42.44 44.146 42.59 45.075 41.947 C 43.213 40.943 41.226 40.148 39.682 38.614 C 40.645 38.591 41.683 38.605 41.985 38.251 C 40.28 37.195 38.843 36.021 37.652 34.737 C 39 34.899 39.569 34.759 39.894 34.525 C 38.606 33.205 36.976 32.091 36.198 30.465 C 37.199 30.81 38.114 30.942 38.773 30.435 C 38.336 29.447 36.46 28.865 35.38 26.557 C 36.433 26.659 37.55 26.787 37.774 26.557 C 37.284 24.565 36.445 23.446 35.623 22.286 C 37.876 22.252 41.291 22.294 41.136 22.104 L 39.743 20.68 C 41.944 20.087 44.197 20.775 45.832 21.286 C 46.566 20.707 45.819 19.974 44.923 19.226 C 46.794 19.476 48.484 19.906 50.012 20.498 C 50.829 19.761 49.482 19.024 48.831 18.287 C 51.721 18.835 52.946 19.606 54.163 20.377 C 55.046 19.531 54.213 18.812 53.617 18.075 C 55.797 18.882 56.919 19.924 58.101 20.953 C 58.502 20.412 59.119 20.016 58.374 18.711 C 59.921 19.603 61.086 20.654 61.948 21.831 C 62.906 21.222 62.519 20.388 62.524 19.62 C 64.132 20.928 65.153 22.32 66.402 23.679 C 66.653 23.496 66.874 22.875 67.068 21.892 C 70.905 25.614 76.325 34.988 68.462 38.705 C 61.773 33.184 53.781 29.173 44.923 26.163 Z" style="fill: rgb(117, 169, 40);"/>
    <path d="M 105.335 26.163 C 93.949 32.033 87.331 36.782 83.705 40.826 C 85.561 48.268 95.249 48.608 98.791 48.399 C 98.066 48.062 97.461 47.657 97.246 47.036 C 98.135 46.404 101.286 46.969 103.487 45.733 C 102.641 45.558 102.246 45.388 101.851 44.764 C 103.929 44.101 106.169 43.53 107.485 42.431 C 106.775 42.44 106.111 42.59 105.183 41.947 C 107.045 40.943 109.032 40.148 110.575 38.614 C 109.613 38.591 108.575 38.605 108.273 38.251 C 109.977 37.195 111.415 36.021 112.605 34.737 C 111.258 34.899 110.689 34.759 110.363 34.525 C 111.652 33.205 113.282 32.091 114.059 30.465 C 113.059 30.81 112.144 30.942 111.484 30.435 C 111.922 29.447 113.798 28.865 114.877 26.557 C 113.824 26.659 112.707 26.787 112.484 26.557 C 112.974 24.565 113.812 23.446 114.635 22.286 C 112.381 22.252 108.967 22.294 109.121 22.104 L 110.515 20.68 C 108.314 20.087 106.061 20.775 104.426 21.286 C 103.692 20.707 104.439 19.974 105.335 19.226 C 103.464 19.476 101.773 19.906 100.245 20.498 C 99.429 19.761 100.775 19.024 101.427 18.287 C 98.536 18.835 97.312 19.606 96.095 20.377 C 95.212 19.531 96.044 18.812 96.64 18.075 C 94.461 18.882 93.338 19.924 92.157 20.953 C 91.756 20.412 91.139 20.016 91.884 18.711 C 90.337 19.603 89.171 20.654 88.309 21.831 C 87.352 21.222 87.739 20.388 87.734 19.62 C 86.126 20.928 85.105 22.32 83.856 23.679 C 83.604 23.496 83.384 22.875 83.19 21.892 C 79.353 25.614 73.932 34.988 81.796 38.705 C 88.485 33.184 96.477 29.173 105.335 26.163 Z" style="fill: rgb(117, 169, 40);"/>
    <path d="M 88.917 101.952 C 88.917 111.633 77.552 117.684 68.46 112.843 C 64.241 110.597 61.641 106.445 61.641 101.952 C 61.641 92.272 73.006 86.221 82.098 91.061 C 86.318 93.308 88.917 97.459 88.917 101.952 Z" style="fill: rgb(188, 17, 66);"/>
    <path d="M 73.862 78.067 C 73.899 87.483 61.896 93.368 52.256 88.66 C 47.782 86.475 45.016 82.437 44.999 78.067 C 44.961 68.651 56.965 62.765 66.604 67.473 C 71.078 69.659 73.845 73.697 73.862 78.067 Z" style="fill: rgb(188, 17, 66);" transform="matrix(0.551318, -0.834295, 0.834295, 0.551318, -38.465173, 84.609644)"/>
    <path d="M 105.028 77.397 C 105.066 67.981 93.062 62.096 83.423 66.804 C 78.949 68.989 76.182 73.027 76.165 77.397 C 76.128 86.814 88.131 92.699 97.771 87.991 C 102.245 85.806 105.011 81.768 105.028 77.397 Z" style="fill: rgb(188, 17, 66);" transform="matrix(-0.551318, -0.834295, 0.834295, -0.551318, 75.971629, 195.652355)"/>
    <path d="M 39.145 72.081 C 45.247 70.446 41.205 97.321 36.241 95.116 C 30.781 90.724 29.022 77.862 39.145 72.081 Z" style="fill: rgb(188, 17, 66);"/>
    <path d="M 109.65 71.745 C 103.548 70.111 107.59 96.986 112.554 94.781 C 118.015 90.389 119.773 77.526 109.65 71.745 Z" style="fill: rgb(188, 17, 66);"/>
    <path d="M 88.921 51.733 C 99.45 49.955 108.21 56.21 107.858 67.627 C 107.511 72.004 85.043 52.384 88.921 51.733 Z" style="fill: rgb(188, 17, 66);"/>
    <path d="M 59.831 51.398 C 49.302 49.62 40.542 55.875 40.894 67.292 C 41.241 71.669 63.709 52.049 59.831 51.398 Z" style="fill: rgb(188, 17, 66);"/>
    <path d="M 74.955 48.734 C 68.671 48.57 62.64 53.398 62.625 56.198 C 62.608 59.6 67.594 63.083 74.998 63.172 C 82.558 63.226 87.383 60.383 87.407 56.872 C 87.435 52.895 80.531 48.672 74.955 48.734 Z" style="fill: rgb(188, 17, 66);"/>
    <path d="M 75.338 118.5 C 80.817 118.261 88.169 120.265 88.183 122.923 C 88.274 125.504 81.516 131.336 74.975 131.224 C 68.201 131.516 61.558 125.675 61.645 123.65 C 61.544 120.682 69.894 118.364 75.338 118.5 Z" style="fill: rgb(188, 17, 66);"/>
    <path d="M 55.102 102.747 C 59.003 107.446 60.781 115.703 57.525 118.136 C 54.446 119.994 46.967 119.229 41.651 111.593 C 38.066 105.185 38.528 98.664 41.045 96.749 C 44.81 94.456 50.625 97.553 55.102 102.747 Z" style="fill: rgb(188, 17, 66);"/>
    <path d="M 94.794 101.257 C 90.574 106.2 88.224 115.217 91.303 118.121 C 94.246 120.377 102.149 120.062 107.986 111.962 C 112.225 106.522 110.804 97.437 108.383 95.026 C 104.787 92.244 99.624 95.804 94.794 101.257 Z" style="fill: rgb(188, 17, 66);"/>
  </g>
</svg>