<?xml version="1.0" encoding="utf-8"?>
<svg height="100%" style="fill-rule:evenodd;clip-rule:evenodd;stroke-linecap:round;stroke-linejoin:round;" width="100%" version="1.1" viewBox="0 0 150 150" xmlns="http://www.w3.org/2000/svg" xmlns:bx="https://boxy-svg.com">
  <defs>
    <bx:grid x="0" y="0" width="15" height="15"/>
  </defs>
  <rect width="120" height="120" style="fill: none; stroke-width: 0.2px; stroke: rgb(84, 84, 84); pointer-events: none; visibility: hidden;" x="15" y="15" bx:origin="0.5 0.5"/>
  <g transform="matrix(0.122453, 0, 0, 0.122453, 13.771651, 13.771649)" style="">
    <path d="M499.9,990c-97.5,0-195.5-29.1-280.5-88.6l22.7-32.4C421,994.5,663.4,973.2,818.3,818.3C973.2,663.4,994.4,421.1,869,242.1l32.4-22.7c136.5,194.7,113.4,458.4-55.1,626.7C751.3,941.2,626,990,499.9,990z"/>
    <path d="M98.7,780.6C-37.8,585.9-14.6,322.3,153.8,153.8c168.4-168.4,432-191.6,626.8-55.1L758,131C578.7,5.5,336.5,26.9,181.8,181.7C26.9,336.5,5.6,578.8,131.1,757.8L98.7,780.6z"/>
    <path d="M675.3,141.4l-1.8-39.4l71.9-3.4l-28.8-64.1l36.1-16.2l52.4,117L675.3,141.4z"/>
    <path d="M247.7,981.9l-54.9-117.8l128-7.6l2.4,39.5l-70.1,4l30.3,65.3L247.7,981.9z"/>
    <path d="M629.5,665.8H370.8V494h39.5v132.3H590V435.1h91.6L500.1,239.2L318.4,435.7h77.4v39.5H228.1l272-294L772,474.5H629.5V665.8z"/>
    <path d="M382.9,700.1H617v39.5H382.9V700.1z"/>
    <path d="M382.9,770.3H617v39.5H382.9V770.3z"/>
  </g>
</svg>