<?xml version="1.0" encoding="utf-8"?>
<svg height="100%" style="fill-rule:evenodd;clip-rule:evenodd;stroke-linecap:round;stroke-linejoin:round;" width="100%" version="1.1" viewBox="0 0 150 150" xmlns="http://www.w3.org/2000/svg" xmlns:bx="https://boxy-svg.com">
  <defs>
    <bx:grid x="0" y="0" width="15" height="15"/>
    <linearGradient id="a" x1="6.5" y1="214.85" x2="893.04" y2="214.85" gradientUnits="userSpaceOnUse" gradientTransform="matrix(1, 0, 0, 1, 0, 0)">
      <stop offset="0" stop-color="#3d3f43"/>
      <stop offset="0.01" stop-color="#414347"/>
      <stop offset="0.02" stop-color="#4d4f53"/>
      <stop offset="0.03" stop-color="#616367"/>
      <stop offset="0.04" stop-color="#7d7e82"/>
      <stop offset="0.05" stop-color="#939498"/>
      <stop offset="0.06" stop-color="#a6a7ab"/>
      <stop offset="0.07" stop-color="#adaeb3"/>
      <stop offset="0.1" stop-color="#84858a"/>
      <stop offset="0.11" stop-color="#7a7b80"/>
      <stop offset="0.14" stop-color="#6d6e73"/>
      <stop offset="0.16" stop-color="#68696e"/>
      <stop offset="0.18" stop-color="#65666b"/>
      <stop offset="0.27" stop-color="#5f6064"/>
      <stop offset="0.5" stop-color="#5d5e62"/>
      <stop offset="0.73" stop-color="#5f6064"/>
      <stop offset="0.82" stop-color="#65666b"/>
      <stop offset="0.84" stop-color="#68696e"/>
      <stop offset="0.86" stop-color="#6d6e73"/>
      <stop offset="0.89" stop-color="#7a7b80"/>
      <stop offset="0.9" stop-color="#84858a"/>
      <stop offset="0.93" stop-color="#adaeb3"/>
      <stop offset="0.94" stop-color="#a6a7ab"/>
      <stop offset="0.95" stop-color="#939498"/>
      <stop offset="0.96" stop-color="#7d7e82"/>
      <stop offset="0.97" stop-color="#616367"/>
      <stop offset="0.98" stop-color="#4d4f53"/>
      <stop offset="0.99" stop-color="#414347"/>
      <stop offset="1" stop-color="#3d3f43"/>
    </linearGradient>
    <radialGradient id="b" cx="736.98" cy="269.67" r="4.33" gradientUnits="userSpaceOnUse" gradientTransform="matrix(1, 0, 0, 1, 0, 0)">
      <stop offset="0.66" stop-color="#fff"/>
      <stop offset="0.69" stop-color="#fff" stop-opacity="0.97"/>
      <stop offset="0.73" stop-color="#fff" stop-opacity="0.9"/>
      <stop offset="0.78" stop-color="#fff" stop-opacity="0.77"/>
      <stop offset="0.84" stop-color="#fff" stop-opacity="0.6"/>
      <stop offset="0.91" stop-color="#fff" stop-opacity="0.38"/>
      <stop offset="0.97" stop-color="#fff" stop-opacity="0.11"/>
      <stop offset="1" stop-color="#fff" stop-opacity="0"/>
    </radialGradient>
    <radialGradient id="c" cx="449.77" cy="78.5" r="443.77" gradientTransform="matrix(1, 0, 0, 0.48, 0, 41.200001)" gradientUnits="userSpaceOnUse">
      <stop offset="0" stop-color="#88898e"/>
      <stop offset="0.52" stop-color="#797a7f"/>
      <stop offset="1" stop-color="#68696d"/>
    </radialGradient>
    <linearGradient id="d" x1="452.37" y1="86.2" x2="452.37" y2="44.38" gradientUnits="userSpaceOnUse" gradientTransform="matrix(1, 0, 0, 1, 0, 0)">
      <stop offset="0" stop-color="#3a3c40"/>
      <stop offset="0.32" stop-color="#2c2d31"/>
      <stop offset="0.93" stop-color="#070709"/>
      <stop offset="1" stop-color="#020204"/>
    </linearGradient>
  </defs>
  <rect width="120" height="120" style="fill: none; stroke-width: 0.2px; stroke: rgb(84, 84, 84); pointer-events: none; visibility: hidden;" x="15" y="15" bx:origin="0.5 0.5"/>
  <path d="M 52.805 15 C 52.805 15 32.184 32.479 25.31 38.305 C 11.563 49.956 11.563 49.956 25.31 61.609 C 32.184 67.435 35.142 70.073 45.93 79.086 C 52.805 84.912 59.677 90.74 66.553 73.261 C 80.299 26.652 66.553 73.261 80.299 26.652 C 87.173 9.174 94.047 15 100.921 20.826 C 107.795 26.652 114.668 32.479 121.542 38.305 C 135.29 49.956 135.29 49.956 121.542 61.609 C 114.668 67.435 100.921 79.086 94.047 84.912" style="fill: none; stroke: rgb(0, 0, 0); stroke-width: 2px;"/>
  <g transform="matrix(0.125297, 0, 0, 0.125297, 18.618851, 96.032623)" style="">
    <path class="a" d="M 6.5 130.21 L 6.5 266.52 C 6.495 266.563 6.495 266.607 6.5 266.65 C 6.5 266.79 6.5 266.93 6.5 267.07 L 6.5 267.6 L 6.56 268.07 C 6.56 268.23 6.56 268.39 6.63 268.54 L 6.72 269.04 C 6.72 269.18 6.79 269.33 6.82 269.47 L 7 270 L 7.12 270.38 C 7.18 270.57 7.25 270.75 7.32 270.94 L 7.45 271.25 C 7.53 271.45 7.62 271.65 7.71 271.86 L 7.81 272.05 C 8.382 273.192 9.087 274.263 9.91 275.24 C 10.11 275.49 10.32 275.72 10.54 275.96 L 10.65 276.08 C 10.86 276.31 11.08 276.53 11.31 276.75 L 11.46 276.91 L 12.15 277.55 C 12.218 277.601 12.281 277.658 12.34 277.72 L 13.08 278.34 L 13.29 278.51 L 14.08 279.13 L 14.28 279.27 C 14.57 279.48 14.86 279.7 15.16 279.9 L 15.31 280 C 17.168 281.26 19.113 282.386 21.13 283.37 L 21.45 283.52 L 22.45 284 L 22.96 284.24 L 23.96 284.66 L 24.59 284.94 L 25.52 285.33 L 26.27 285.63 L 27.17 285.98 L 28.03 286.31 L 28.9 286.63 L 29.9 286.98 L 30.7 287.26 L 31.92 287.67 L 32.57 287.89 L 34.28 288.42 L 34.51 288.49 C 36.57 289.117 38.74 289.72 41.02 290.3 L 41.21 290.3 L 43.33 290.82 L 43.58 290.88 L 45.72 291.37 L 45.98 291.43 L 48.21 291.92 L 48.42 291.92 L 50.83 292.41 L 50.9 292.41 C 65.56 295.31 83.65 297.41 104.9 298.47 L 105.26 298.47 L 108.53 298.63 L 109.24 298.63 L 112.24 298.76 L 113.24 298.76 L 116.01 298.86 L 117.14 298.86 L 119.83 298.95 L 121.05 298.95 L 123.7 299.02 L 125.01 299.02 L 127.64 299.07 L 129.01 299.07 L 131.81 299.07 L 133.02 299.07 L 137.02 299.07 L 137 299.07 C 138.58 299.07 140.16 299.07 141.75 299.07 L 757.75 299.07 C 759.34 299.07 760.93 299.07 762.51 299.07 L 762.58 299.07 L 766.58 299.07 L 767.79 299.07 L 770.59 299.07 L 771.96 299.07 L 774.59 299.02 L 775.9 299.02 L 778.55 298.95 L 779.77 298.95 L 782.46 298.86 L 783.59 298.86 L 786.36 298.76 L 787.36 298.76 L 790.36 298.63 L 791.07 298.63 L 794.34 298.47 L 794.7 298.47 C 815.93 297.38 834.02 295.31 848.7 292.41 L 848.78 292.41 L 851.19 291.92 L 851.4 291.92 L 853.63 291.43 L 853.89 291.37 L 856.03 290.88 L 856.28 290.82 L 858.4 290.3 L 858.59 290.3 C 860.87 289.72 863.04 289.117 865.1 288.49 L 865.33 288.42 L 867.04 287.89 L 867.69 287.67 L 868.91 287.26 L 869.71 286.98 L 870.71 286.63 L 871.58 286.31 L 872.44 285.98 L 873.34 285.63 L 874.09 285.33 L 875.02 284.94 L 875.65 284.66 L 876.65 284.24 L 877.16 284 L 878.16 283.52 L 878.47 283.37 C 880.456 282.382 882.371 281.256 884.2 280 L 884.35 279.9 C 884.65 279.7 884.94 279.48 885.23 279.27 L 885.43 279.13 L 886.22 278.51 L 886.43 278.34 L 887.17 277.72 C 887.229 277.658 887.292 277.601 887.36 277.55 L 888.05 276.91 L 888.21 276.75 C 888.43 276.53 888.65 276.31 888.86 276.08 L 889 276 C 889.22 275.76 889.43 275.53 889.63 275.28 C 890.448 274.303 891.153 273.236 891.73 272.1 L 891.83 271.9 C 891.92 271.7 892.01 271.49 892.09 271.29 C 892.17 271.09 892.18 271.08 892.22 270.98 C 892.26 270.88 892.36 270.61 892.42 270.42 L 892.54 270.04 L 892.69 269.52 C 892.69 269.38 892.76 269.23 892.79 269.09 L 892.88 268.59 C 892.88 268.44 892.88 268.28 892.95 268.12 L 893.01 267.65 L 893.01 267.12 C 893.01 266.98 893.01 266.84 893.01 266.7 L 893.01 130.21" style="fill: url(#a);"/>
    <circle class="b" cx="736.98" cy="269.67" r="4.33" style="fill: url(#b);"/>
    <path class="c" d="M 821.33 21.2 C 821.139 20.928 820.932 20.668 820.71 20.42 C 810.47 7.81 761.33 0.3 691 0 L 208.55 0 C 137.77 0.3 89 7.89 78.83 20.42 C 78.608 20.665 78.404 20.926 78.22 21.2 L 8.56 124.36 C 8.319 124.71 8.105 125.077 7.92 125.46 C -2.63 144.3 46.27 156.49 137 157 L 142.49 157 L 757.05 157 L 762.56 157 C 853.83 156.51 902.11 144.2 891.62 125.47 C 891.433 125.094 891.222 124.73 890.99 124.38 L 821.33 21.2 Z" style="fill: url(#c);"/>
    <path class="d" d="M 539.53 76.56 C 535.939 78.267 532.208 79.665 528.38 80.74 C 523.523 82.23 518.59 83.455 513.6 84.41 C 507.172 85.575 500.652 86.157 494.12 86.15 C 489.12 86.15 483 85.86 475.92 85.28 C 468.84 84.7 462.32 84.41 456.39 84.41 C 450.163 84.41 443.473 84.7 436.32 85.28 C 429.167 85.86 423.367 86.163 418.92 86.19 C 412.211 86.257 405.512 85.661 398.92 84.41 C 393.678 83.414 388.491 82.146 383.38 80.61 C 377.822 79.142 372.485 76.939 367.51 74.06 C 363.25 71.393 361.303 68.85 361.67 66.43 C 362.083 63.657 365.497 61.287 371.91 59.32 C 378.317 57.472 384.882 56.227 391.52 55.6 C 400.129 54.67 408.781 54.206 417.44 54.21 C 422.51 54.21 429.13 54.51 437.37 55.1 C 445.61 55.69 450.9 55.99 453.22 55.99 C 454.96 55.99 460.83 55.64 470.78 54.94 C 480.16 54.3 488.08 54.03 494.59 54.13 C 512.23 54.397 525.64 55.73 534.82 58.13 C 519.22 60 511.62 62.59 512.13 66 C 512.55 68.667 517.773 70.89 527.8 72.67 C 532.37 73.5 537.44 74.15 543.06 74.61 C 541.96 75.29 540.79 75.95 539.53 76.61 L 539.53 76.56 Z M 495.11 45.16 C 495.257 47.12 491.563 48.96 484.03 50.68 C 473.328 52.953 462.398 53.98 451.46 53.74 C 451.302 53.514 451.214 53.246 451.21 52.97 C 451.21 51.05 455.59 48.97 463.34 47.35 C 468.182 46.373 473.077 45.679 478 45.27 C 483.92 44.73 489.52 44.433 494.8 44.38 C 494.959 44.612 495.055 44.88 495.08 45.16 L 495.11 45.16 Z" style="fill: url(#d);"/>
  </g>
</svg>