<?xml version="1.0" encoding="utf-8"?>
<svg height="100%" style="fill-rule:evenodd;clip-rule:evenodd;stroke-linecap:round;stroke-linejoin:round;" width="100%" version="1.1" viewBox="0 0 150 150" xmlns="http://www.w3.org/2000/svg" xmlns:bx="https://boxy-svg.com">
  <defs>
    <bx:grid x="0" y="0" width="15" height="15"/>
  </defs>
  <rect width="120" height="120" style="fill: none; stroke-width: 0.2px; stroke: rgb(84, 84, 84); pointer-events: none; visibility: hidden;" x="15" y="15" bx:origin="0.5 0.5"/>
  <g transform="matrix(0.519692, 0, 0, 0.519692, 4.885279, 1.135509)" style="">
    <g style="" transform="matrix(0.828672, 0, 0, 0.828672, 19.266453, 26.4814)">
      <path style="fill:#222220;" d="M241.512,21.047h-96.208c-0.017,0-0.033,0-0.05,0H37.609C16.872,21.047,0,37.918,0,58.656v161.809 c0,20.738,16.872,37.609,37.609,37.609h203.902c20.738,0,37.609-16.871,37.609-37.609V58.656 C279.121,37.918,262.25,21.047,241.512,21.047z M15,220.465V58.656c0-12.467,10.143-22.609,22.609-22.609h95.375L80.597,136.081 c-1.217,2.325-1.131,5.117,0.228,7.362c1.358,2.245,3.792,3.617,6.417,3.617h44.82v55.756c-9.79,0.509-19.426-0.318-28.877-2.495 c-20.731-4.774-32.857-14.615-33.01-14.741c-3.178-2.641-7.892-2.217-10.545,0.953c-2.659,3.176-2.24,7.906,0.936,10.565 c0.579,0.484,14.445,11.93,38.391,17.639c7.571,1.805,16.71,3.141,27.18,3.141c1.93,0,3.907-0.047,5.926-0.144v25.339H37.609 C25.143,243.074,15,232.932,15,220.465z M264.121,220.465c0,12.467-10.143,22.609-22.609,22.609h-94.451v-26.943 c15.182-2.509,32.242-7.998,50.702-18.222c3.624-2.007,4.934-6.57,2.927-10.194c-2.007-3.622-6.571-4.935-10.195-2.927 c-14.697,8.139-29.206,13.545-43.435,16.218v-61.445c0-4.143-3.358-7.5-7.5-7.5H99.635l50.283-96.014h91.594 c12.467,0,22.609,10.143,22.609,22.609V220.465z"/>
      <path style="fill:#222220;" d="M194.129,67.377c-4.142,0-7.5,3.357-7.5,7.5v33.972c0,4.143,3.358,7.5,7.5,7.5s7.5-3.357,7.5-7.5 V74.877C201.629,70.734,198.271,67.377,194.129,67.377z"/>
      <path style="fill:#222220;" d="M65.379,116.349c4.142,0,7.5-3.357,7.5-7.5V74.877c0-4.143-3.358-7.5-7.5-7.5s-7.5,3.357-7.5,7.5 v33.972C57.879,112.991,61.237,116.349,65.379,116.349z"/>
    </g>
    <g style="" transform="matrix(0.828672, 0, 0, 0.828672, 19.266453, 26.4814)"/>
    <g style="" transform="matrix(0.828672, 0, 0, 0.828672, 19.266453, 26.4814)"/>
    <g style="" transform="matrix(0.828672, 0, 0, 0.828672, 19.266453, 26.4814)"/>
    <g style="" transform="matrix(0.828672, 0, 0, 0.828672, 19.266453, 26.4814)"/>
    <g style="" transform="matrix(0.828672, 0, 0, 0.828672, 19.266453, 26.4814)"/>
    <g style="" transform="matrix(0.828672, 0, 0, 0.828672, 19.266453, 26.4814)"/>
    <g style="" transform="matrix(0.828672, 0, 0, 0.828672, 19.266453, 26.4814)"/>
    <g style="" transform="matrix(0.828672, 0, 0, 0.828672, 19.266453, 26.4814)"/>
    <g style="" transform="matrix(0.828672, 0, 0, 0.828672, 19.266453, 26.4814)"/>
    <g style="" transform="matrix(0.828672, 0, 0, 0.828672, 19.266453, 26.4814)"/>
    <g style="" transform="matrix(0.828672, 0, 0, 0.828672, 19.266453, 26.4814)"/>
    <g style="" transform="matrix(0.828672, 0, 0, 0.828672, 19.266453, 26.4814)"/>
    <g style="" transform="matrix(0.828672, 0, 0, 0.828672, 19.266453, 26.4814)"/>
    <g style="" transform="matrix(0.828672, 0, 0, 0.828672, 19.266453, 26.4814)"/>
    <g style="" transform="matrix(0.828672, 0, 0, 0.828672, 19.266453, 26.4814)"/>
  </g>
</svg>