<?xml version="1.0" encoding="utf-8"?>
<svg height="100%" style="fill-rule:evenodd;clip-rule:evenodd;stroke-linecap:round;stroke-linejoin:round;" width="100%" version="1.1" viewBox="0 0 150 150" xmlns="http://www.w3.org/2000/svg" xmlns:bx="https://boxy-svg.com">
  <defs>
    <bx:grid x="0" y="0" width="15" height="15"/>
  </defs>
  <rect width="120" height="120" style="fill: none; stroke-width: 0.2px; stroke: rgb(84, 84, 84); pointer-events: none; visibility: hidden;" x="15" y="15"/>
  <g style="" transform="matrix(0.791798, 0, 0, 0.791798, 9.779382, 16.001921)">
    <g transform="matrix(1.079555, 0, 0, 1.079555, -6.81495, 1.870597)" style="">
      <path style="fill: none; stroke: rgb(13, 145, 4); stroke-width: 4.49892px;" d="M 55.533 95.314 C 3.89 95.292 -2.148 38.152 57.289 38.177"/>
      <path style="fill: none; stroke: rgb(8, 0, 255); stroke-width: 4.49892px; transform-box: fill-box; transform-origin: 50% 50%;" d="M 148.191 38.177 C 94.976 38.199 88.754 95.34 150 95.314" transform="matrix(-1, 0, 0, -1, 0.000026, -0.00002)"/>
      <path d="M 82.369 15 C 68.521 15 57.288 26.228 57.288 40.079 C 57.288 51.162 64.475 60.565 74.441 63.879 C 75.692 64.111 76.154 63.336 76.154 62.673 C 76.154 62.074 76.133 60.097 76.121 58.003 C 69.144 59.521 67.672 55.043 67.672 55.043 C 66.531 52.146 64.886 51.374 64.886 51.374 C 62.608 49.816 65.056 49.85 65.056 49.85 C 67.573 50.028 68.901 52.434 68.901 52.434 C 71.14 56.268 74.768 55.159 76.197 54.52 C 76.425 52.898 77.074 51.79 77.792 51.166 C 72.222 50.53 66.364 48.38 66.364 38.769 C 66.364 36.032 67.344 33.793 68.951 32.037 C 68.689 31.406 67.832 28.856 69.194 25.403 C 69.194 25.403 71.301 24.727 76.093 27.972 C 78.093 27.415 80.237 27.139 82.369 27.128 C 84.502 27.139 86.648 27.415 88.654 27.972 C 93.441 24.727 95.545 25.403 95.545 25.403 C 96.91 28.856 96.051 31.409 95.791 32.039 C 97.399 33.797 98.371 36.034 98.371 38.771 C 98.371 48.403 92.502 50.527 86.918 51.147 C 87.818 51.925 88.619 53.451 88.619 55.791 C 88.619 59.149 88.592 61.848 88.592 62.674 C 88.592 63.342 89.042 64.125 90.313 63.877 C 100.275 60.557 107.451 51.16 107.451 40.079 C 107.451 26.228 96.223 15 82.369 15" fill="#5c6bc0" style=""/>
      <path d="M 81.745 69.573 C 101.5 69.569 113.851 90.95 103.978 108.059 C 102.855 110.006 101.481 111.795 99.892 113.384 C 95.139 118.285 88.572 121.007 81.745 120.903 C 61.989 120.903 49.64 99.516 59.519 82.405 C 64.104 74.466 72.577 69.573 81.745 69.573 Z M 68.379 84.819 C 74.394 78.191 81.328 74.586 86.524 80.484 C 87.866 80.514 89.152 81.041 90.129 81.963 C 92.598 84.277 92.636 88.917 91.099 92.026 L 91.099 92.819 C 91.426 92.993 91.696 93.256 91.876 93.58 L 91.905 93.626 C 92.151 94.089 92.302 94.598 92.347 95.121 C 92.405 95.667 92.394 96.219 92.314 96.762 L 92.314 96.788 C 92.106 98.124 91.478 99.39 90.367 99.804 L 90.284 99.887 C 89.127 101.094 86.783 103.534 86.441 105.226 C 86.315 105.844 86.608 106.358 87.694 106.58 C 89.168 106.876 90.514 107.08 91.67 107.257 C 95.69 107.857 97.594 108.146 98.249 111.17 C 110.519 98.469 104.439 77.247 87.304 72.973 C 70.168 68.697 54.832 84.574 59.697 101.551 C 60.731 105.164 62.638 108.465 65.25 111.17 C 65.898 108.183 67.777 107.891 71.721 107.29 C 72.693 107.139 73.808 106.968 75.061 106.721 C 76.734 106.391 77.23 105.773 77.088 105.051 C 76.812 103.626 74.92 101.671 73.483 100.183 L 73.12 99.812 C 71.945 99.394 71.232 98.271 70.956 97.029 C 70.836 96.472 70.802 95.898 70.856 95.33 C 70.898 94.783 71.056 94.252 71.319 93.771 C 71.438 93.563 71.586 93.37 71.758 93.204 L 71.119 92.819 C 70.885 90.209 71.57 85.677 68.391 84.819 L 68.379 84.819 Z M 86.061 85.029 C 82.978 86.967 81.433 86.507 78.893 86.925 C 76.804 87.272 75.05 88.003 73.988 89.29 C 73.988 89.424 73.988 89.562 73.988 89.708 L 73.988 93.441 C 73.988 93.879 73.633 94.236 73.196 94.236 L 73.124 94.236 C 72.94 94.263 72.783 94.383 72.706 94.551 C 72.553 94.837 72.458 95.149 72.43 95.471 C 72.392 95.876 72.421 96.283 72.509 96.681 C 72.673 97.423 73.044 98.091 73.617 98.295 C 73.803 98.315 73.975 98.402 74.102 98.537 L 74.624 99.076 C 76.202 100.71 78.279 102.837 78.646 104.737 C 78.968 106.382 78.208 107.72 75.368 108.275 C 74.064 108.53 72.932 108.693 71.945 108.856 C 68.538 109.378 67.058 109.604 66.666 112.523 C 75.308 120.058 88.184 120.058 96.826 112.523 C 96.408 109.574 94.92 109.345 91.438 108.823 C 90.314 108.651 88.997 108.454 87.385 108.124 C 85.15 107.669 84.583 106.454 84.879 104.908 C 85.321 102.766 87.882 100.109 89.148 98.813 L 89.391 98.558 C 89.516 98.432 89.681 98.347 89.858 98.322 C 90.322 98.124 90.622 97.381 90.748 96.566 C 90.809 96.16 90.818 95.748 90.777 95.339 C 90.754 95.029 90.67 94.731 90.53 94.456 L 90.53 94.423 C 90.477 94.335 90.426 94.285 90.384 94.285 C 89.955 94.312 89.582 93.989 89.549 93.559 L 89.549 89.72 C 89.549 87.561 88.538 86.817 86.671 85.451 L 86.567 85.376 C 86.412 85.259 86.253 85.151 86.094 85.045 L 86.061 85.029 Z" style=""/>
    </g>
    <text style="fill: rgb(13, 145, 4); font-family: 'Arial Black'; font-size: 15.6px; white-space: pre;" x="45.11" y="148.821">Personal</text>
    <text style="fill: rgb(8, 0, 255); font-family: 'Arial Black'; font-size: 15.6px; white-space: pre;" x="34.276" y="10.991">Profesional</text>
  </g>
</svg>