<?xml version="1.0" encoding="UTF-8" standalone="no"?> <!-- Created with Vectornator for iOS (http://vectornator.io/) --><!DOCTYPE svg PUBLIC "-//W3C//DTD SVG 1.1//EN" "http://www.w3.org/Graphics/SVG/1.1/DTD/svg11.dtd">
<svg height="100%" style="fill-rule:evenodd;clip-rule:evenodd;stroke-linecap:round;stroke-linejoin:round;" xmlns:xlink="http://www.w3.org/1999/xlink" xmlns="http://www.w3.org/2000/svg" xml:space="preserve" width="100%" xmlns:vectornator="http://vectornator.io" version="1.1" viewBox="0 0 360 360">
<metadata>
<vectornator:setting key="DimensionsVisible" value="0"/>
<vectornator:setting key="PencilOnly" value="0"/>
<vectornator:setting key="SnapToPoints" value="0"/>
<vectornator:setting key="OutlineMode" value="0"/>
<vectornator:setting key="CMYKEnabledKey" value="0"/>
<vectornator:setting key="RulersVisible" value="1"/>
<vectornator:setting key="SnapToEdges" value="0"/>
<vectornator:setting key="GuidesVisible" value="0"/>
<vectornator:setting key="DisplayWhiteBackground" value="0"/>
<vectornator:setting key="doHistoryDisabled" value="0"/>
<vectornator:setting key="SnapToGuides" value="1"/>
<vectornator:setting key="TimeLapseWatermarkDisabled" value="0"/>
<vectornator:setting key="Units" value="Points"/>
<vectornator:setting key="DynamicGuides" value="1"/>
<vectornator:setting key="IsolateActiveLayer" value="0"/>
<vectornator:setting key="SnapToGrid" value="0"/>
</metadata>
<defs/>
<g id="XMLID_910_" vectornator:layerName="XMLID_910_">
<path d="M311.592+135.029L271.716+135.029L271.716+98.5198L205.503+36.445L48.4079+36.445L48.4079+323.555L271.716+323.555L271.716+280.76L311.592+280.76L311.592+135.029ZM287.666+256.834L120.185+256.834L120.185+158.955L287.666+158.955L287.666+256.834Z" opacity="1" fill="#000000"/>
<path d="M182.412+231.858L203.62+177.498L192.519+177.498L177.972+218.613L163.271+177.498L152.17+177.498L173.531+231.858L182.412+231.858Z" opacity="1" fill="#000000"/>
<path d="M242.475+230.94C244.593+230.326+246.456+229.434+248.065+228.26C249.673+227.086+250.936+225.631+251.855+223.896C252.773+222.161+253.232+220.144+253.232+217.847C253.232+214.275+252.325+211.301+250.514+208.927C248.702+206.554+246.239+204.908+243.126+203.99C245.677+202.868+247.617+201.145+248.945+198.822C250.272+196.5+250.935+194.012+250.935+191.357C250.935+189.673+250.641+188.002+250.055+186.343C249.467+184.685+248.638+183.203+247.567+181.902C246.494+180.601+245.192+179.541+243.661+178.725C242.13+177.91+240.42+177.5+238.531+177.5L209.438+177.5L209.438+231.859L235.699+231.859C238.098+231.858+240.357+231.552+242.475+230.94ZM220.004+186.533L234.551+186.533C236.235+186.533+237.652+187.146+238.8+188.371C239.948+189.595+240.523+191.255+240.523+193.347C240.523+195.49+239.897+197.176+238.646+198.4C237.396+199.625+235.876+200.238+234.091+200.238L220.004+200.238L220.004+186.533ZM220.004+208.583L236.235+208.583C237.153+208.583+237.996+208.775+238.762+209.158C239.527+209.54+240.19+210.064+240.752+210.727C241.313+211.391+241.76+212.171+242.092+213.063C242.423+213.956+242.59+214.889+242.59+215.858C242.59+216.827+242.41+217.746+242.054+218.614C241.696+219.482+241.211+220.234+240.599+220.873C239.987+221.511+239.26+222.009+238.417+222.365C237.575+222.723+236.669+222.901+235.7+222.901L220.004+222.901L220.004+208.583Z" opacity="1" fill="#000000"/>
</g>
</svg>
