<?xml version="1.0" encoding="UTF-8"?>
<svg width="150px" height="127px" viewBox="0 0 150 127" version="1.1" xmlns="http://www.w3.org/2000/svg" xmlns:xlink="http://www.w3.org/1999/xlink">
    <!-- Generator: Sketch 52.6 (67491) - http://www.bohemiancoding.com/sketch -->
    <title>ssh</title>
    <desc>Created with Sketch.</desc>
    <g id="Page-1" stroke="none" stroke-width="1" fill="none" fill-rule="evenodd">
        <g id="ssh">
            <path d="M6.67073171,0 L143.182927,0 C146.864287,0.00672073763 149.846947,2.99339613 149.853659,6.67971154 L149.853659,119.746346 C149.846947,123.432662 146.864287,126.419337 143.182927,126.426058 L6.67073171,126.426058 C2.98937198,126.419337 0.00671170265,123.432662 0,119.746346 L0,6.67971154 C0.00671170265,2.99339613 2.98937198,0.00672073763 6.67073171,0 Z" id="Path" fill="#000000"></path>
            <path d="M149.853659,31.9820192 L149.853659,41.9222115 L118.621951,41.9222115 C116.848694,41.9222116 115.210137,40.9749166 114.323508,39.4371635 C113.436879,37.8994104 113.436879,36.0048204 114.323508,34.4670673 C115.210137,32.9293141 116.848694,31.9820192 118.621951,31.9820192 L149.853659,31.9820192 Z M0,41.9222115 L0,31.9820192 L53.8658537,31.9820192 C55.639111,31.9820192 57.2776683,32.9293141 58.164297,34.4670672 C59.0509257,36.0048204 59.0509257,37.8994104 58.164297,39.4371635 C57.2776683,40.9749167 55.639111,41.9222116 53.8658537,41.9222115 L0,41.9222115 Z" id="Shape" fill="#FFFFFF"></path>
            <path d="M19.304878,107.461538 L21.0609756,97.0939423 C24.4485394,97.9986319 27.9335711,98.4866191 31.4390244,98.5471154 C33.920082,98.5754495 36.4004935,98.4490188 38.8658537,98.1685577 L38.8658537,95.0668269 L33.2195122,94.5661538 C28.1219512,94.1021154 24.6219512,92.8809615 22.7195122,90.9026923 C20.8170732,88.9244231 19.8658537,85.9773718 19.8658537,82.0615385 C19.8658537,76.7128846 21.0284553,73.0290705 23.3536585,71.0100962 C25.6788618,68.9911218 29.6178862,67.9857051 35.1707317,67.9938462 C40.2320859,67.9523068 45.2814504,68.4931604 50.2195122,69.6057692 L48.6463415,79.6192308 C45.5614561,79.0646114 42.4382826,78.7502405 39.304878,78.6789423 C37.3167486,78.6576866 35.3292106,78.7596442 33.3536585,78.9842308 L33.3536585,82.0615385 L37.8658537,82.5011538 C43.3373984,83.0547436 47.1219512,84.3654487 49.2195122,86.4332692 C51.4060855,88.7566938 52.53981,91.8797374 52.3536585,95.0668269 C52.4164069,97.3410184 52.0523831,99.6068032 51.2804878,101.746538 C50.755673,103.294734 49.9028676,104.711047 48.7804878,105.898462 C47.5884308,106.950728 46.1560618,107.69304 44.6097561,108.059904 C43.0646236,108.512815 41.480435,108.819449 39.8780488,108.975769 C38.5121951,109.073462 36.7073171,109.134519 34.4512195,109.134519 C29.354958,109.162559 24.2725106,108.60118 19.304878,107.461538 Z M56.902439,107.461538 L58.6585366,97.0939423 C62.0461004,97.9986319 65.5311321,98.4866191 69.0365854,98.5471154 C71.517643,98.5754495 73.9980545,98.4490188 76.4634146,98.1685577 L76.4634146,95.0668269 L70.8170732,94.5661538 C65.7195122,94.1021154 62.2195122,92.8809615 60.3170732,90.9026923 C58.4146341,88.9244231 57.4634146,85.9773718 57.4634146,82.0615385 C57.4634146,76.7128846 58.6219512,73.0290705 60.9390244,71.0100962 C63.2560976,68.9911218 67.199187,67.9857051 72.7682927,67.9938462 C77.8255722,67.9532424 82.8707915,68.4940902 87.804878,69.6057692 L86.2439024,79.6192308 C83.1589427,79.0651442 80.0358106,78.7507775 76.902439,78.6789423 C74.9102615,78.6580843 72.9186907,78.7600399 70.9390244,78.9842308 L70.9390244,82.0615385 L75.4634146,82.5011538 C80.9430894,83.0547436 84.7235772,84.3654487 86.804878,86.4332692 C88.9965062,88.7535719 90.1310528,91.8788801 89.9390244,95.0668269 C89.9991271,97.3398201 89.6394348,99.6043785 88.8780488,101.746538 C88.337945,103.295841 87.4730591,104.7115 86.3414634,105.898462 C85.1477133,106.948247 83.7159929,107.690223 82.1707317,108.059904 C80.6253303,108.511704 79.0412465,108.818318 77.4390244,108.975769 C76.0731707,109.073462 74.2682927,109.134519 72.0121951,109.134519 C66.928162,109.159741 61.8581522,108.598379 56.902439,107.461538 Z M118.012195,108.145385 L118.012195,94.3097115 L108.597561,94.3097115 L108.597561,108.182019 L96.0609756,108.182019 L96.0609756,68.9463462 L108.597561,68.9463462 L108.597561,82.8186538 L118.012195,82.8186538 L118.012195,68.9463462 L130.54878,68.9463462 L130.54878,108.182019 L118.012195,108.145385 Z" id="Shape" fill="#FFFFFF" fill-rule="nonzero"></path>
            <path d="M20.0121951,9.69596154 C22.5201034,9.695981 24.7805974,11.2100621 25.7380379,13.5311366 C26.6954784,15.8522111 26.1609643,18.5223359 24.3841111,20.2945761 C22.6072578,22.0668164 19.9386349,22.5915128 17.6244756,21.6236349 C15.3103163,20.6557569 13.8071995,18.3862649 13.8170732,15.875 C13.8170732,12.4489228 16.5907237,9.67153846 20.0121951,9.67153846 L20.0121951,9.69596154 Z" id="Path" fill="#FFFFFF"></path>
            <path d="M43.4756098,9.69596154 C45.983518,9.695981 48.244012,11.2100621 49.2014525,13.5311366 C50.158893,15.8522111 49.624379,18.5223359 47.8475257,20.2945761 C46.0706725,22.0668164 43.4020495,22.5915128 41.0878902,21.6236349 C38.7737309,20.6557569 37.2706142,18.3862649 37.2804878,15.875 C37.2804878,12.4489228 40.0541384,9.67153846 43.4756098,9.67153846 L43.4756098,9.69596154 Z" id="Path" fill="#FFFFFF"></path>
            <path d="M79.0121951,14.12875 L95.8170732,31.5546154 L97.8170732,33.5450962 C98.1023217,33.827285 98.262865,34.212088 98.262865,34.6136058 C98.262865,35.0151235 98.1023217,35.3999265 97.8170732,35.6821154 L95.8536585,37.7092308 L78.8780488,55.7334615 C78.2838369,56.3232789 77.3259192,56.3232789 76.7317073,55.7334615 L71.9512195,51.0442308 C71.6531221,50.756522 71.4847166,50.3597738 71.4847166,49.9451923 C71.4847166,49.5306108 71.6531221,49.1338626 71.9512195,48.8461538 L85.8170732,34.6929808 L72.097561,21.0404808 C71.515083,20.4427856 71.515083,19.4889452 72.097561,18.89125 L76.8292683,14.1165385 C77.1110778,13.8309059 77.4953635,13.6701465 77.8963415,13.6701465 C78.2973195,13.6701465 78.6816051,13.8309059 78.9634146,14.1165385 L79.0121951,14.12875 Z" id="Path" fill="#FFFFFF"></path>
        </g>
    </g>
</svg>