<?xml version="1.0" standalone="no"?>
<!DOCTYPE svg PUBLIC "-//W3C//DTD SVG 20010904//EN"
 "http://www.w3.org/TR/2001/REC-SVG-20010904/DTD/svg10.dtd">
<svg version="1.0" xmlns="http://www.w3.org/2000/svg"
 width="700.000000pt" height="700.000000pt" viewBox="0 0 700.000000 700.000000"
 preserveAspectRatio="xMidYMid meet">
<metadata>
Created by potrace 1.14, written by Peter Selinger 2001-2017
</metadata>
<g transform="translate(0.000000,700.000000) scale(0.100000,-0.100000)"
fill="#000000" stroke="none">
<path d="M3428 6705 c-2 -1 -37 -5 -78 -8 -317 -25 -688 -189 -1005 -444 -228
-183 -486 -493 -622 -743 -73 -135 -148 -345 -178 -501 -7 -37 -44 -268 -50
-314 -4 -27 -9 -61 -11 -75 -28 -172 -23 -431 9 -558 l14 -51 -49 -83 c-73
-125 -93 -199 -92 -338 0 -92 5 -128 23 -180 39 -112 86 -201 194 -361 138
-207 170 -291 231 -609 14 -74 39 -207 56 -295 96 -501 219 -902 351 -1143
141 -257 345 -458 576 -568 113 -53 221 -86 398 -119 103 -19 361 -25 505 -12
341 32 610 148 820 356 190 187 312 402 427 751 34 104 129 463 139 530 3 19
8 38 10 41 2 3 6 19 8 35 6 28 10 52 21 104 2 14 7 39 10 55 4 26 76 394 91
463 9 43 66 207 86 246 11 21 59 98 108 170 163 242 214 373 215 546 0 128
-22 207 -91 324 -48 82 -49 89 -27 186 22 103 22 387 -1 505 -2 11 -9 63 -16
115 -7 52 -14 104 -16 115 -4 19 -19 104 -28 155 -13 76 -73 281 -103 350 -69
160 -194 364 -324 527 -86 107 -306 325 -409 405 -77 60 -205 146 -255 174
-316 171 -551 241 -837 249 -54 1 -99 1 -100 0z m277 -125 c431 -70 847 -319
1182 -705 64 -75 183 -234 224 -300 13 -22 30 -49 36 -60 81 -132 176 -384
199 -530 3 -22 8 -43 10 -46 6 -10 40 -241 50 -339 3 -36 8 -68 10 -72 9 -15
12 -274 4 -293 -6 -14 -9 -4 -9 36 -1 48 -5 59 -23 71 -32 19 -67 11 -80 -18
-9 -18 -9 -47 0 -108 14 -108 41 -182 101 -281 93 -153 124 -240 120 -343 -5
-139 -57 -261 -204 -482 -104 -156 -145 -241 -186 -381 -25 -87 -87 -374 -103
-479 -4 -30 -23 -128 -42 -219 -47 -229 -133 -545 -191 -701 -237 -641 -623
-918 -1283 -923 -213 -1 -298 8 -458 50 -115 30 -176 53 -270 104 -297 159
-507 462 -656 944 -52 169 -149 587 -181 781 -2 17 -18 100 -35 185 -69 346
-100 428 -244 637 -161 236 -201 333 -200 492 0 125 17 176 102 314 75 121
100 190 117 320 8 64 -1 101 -28 113 -23 11 -60 2 -71 -15 -3 -6 -7 -29 -8
-52 -1 -28 -4 -37 -10 -27 -8 15 -4 230 5 272 3 11 8 47 11 80 11 97 23 180
37 260 66 386 168 614 421 935 343 434 844 740 1289 786 35 3 65 7 67 9 7 6
236 -5 297 -15z"/>
<path d="M2908 4445 c-82 -21 -156 -85 -233 -202 -25 -38 -26 -46 -15 -72 23
-58 68 -48 120 27 93 133 150 166 250 142 55 -13 102 -52 143 -118 33 -51 59
-67 88 -52 52 28 37 85 -46 178 -82 91 -194 127 -307 97z"/>
<path d="M3923 4441 c-84 -28 -173 -111 -207 -191 -14 -35 -5 -79 18 -81 6 0
19 -2 29 -4 13 -2 34 18 72 69 59 80 100 107 172 111 79 6 138 -34 214 -146
41 -61 73 -78 101 -52 33 30 32 52 -7 110 -52 78 -127 151 -180 174 -62 27
-148 32 -212 10z"/>
<path d="M2166 3668 c-108 -57 -182 -131 -230 -232 -47 -99 -50 -112 -26 -136
41 -41 68 -24 117 74 l30 59 51 -120 c46 -108 95 -255 107 -323 11 -63 57
-327 61 -355 4 -23 54 -254 89 -406 2 -9 21 -79 44 -156 128 -448 295 -734
511 -877 158 -103 318 -145 570 -149 241 -3 439 48 597 154 64 42 168 148 225
229 195 275 354 794 474 1555 16 99 130 415 155 431 5 3 21 -19 34 -49 32 -69
56 -91 90 -83 49 12 50 47 2 144 -54 111 -122 182 -234 240 -93 49 -130 52
-150 12 -18 -37 0 -58 90 -105 42 -22 77 -45 77 -51 0 -5 -38 -55 -84 -110
-264 -314 -537 -491 -891 -578 -149 -37 -349 -48 -555 -33 -489 38 -807 218
-1114 633 -36 49 -64 90 -62 91 2 2 39 23 82 46 87 47 112 78 90 112 -22 33
-64 28 -150 -17z m2549 -518 c-14 -41 -47 -193 -59 -275 -4 -23 -9 -52 -11
-65 -5 -26 -11 -56 -19 -105 -3 -16 -15 -77 -27 -135 -11 -58 -23 -116 -25
-129 -12 -64 -96 -376 -124 -458 -129 -393 -292 -633 -499 -738 -46 -23 -158
-60 -210 -70 -50 -9 -176 -19 -251 -18 -182 0 -318 27 -441 89 -227 114 -398
387 -534 856 -32 108 -87 333 -99 403 -9 48 -15 75 -20 93 -3 9 -8 33 -11 52
-3 19 -10 60 -15 90 -6 30 -13 69 -15 85 -3 17 -10 53 -15 80 -5 28 -11 64
-14 80 -2 17 -13 62 -23 102 -11 39 -15 69 -11 67 5 -3 38 -33 74 -67 228
-215 518 -348 834 -382 30 -3 68 -8 85 -11 40 -7 326 -7 398 0 133 12 326 58
447 106 189 75 401 214 549 358 23 24 45 41 47 39 2 -2 -3 -23 -11 -47z"/>
<path d="M3206 3378 c-24 -22 -24 -25 -12 -60 37 -103 127 -198 213 -224 150
-46 282 10 378 161 41 63 49 89 36 113 -28 52 -71 34 -130 -53 -62 -94 -111
-127 -185 -126 -85 1 -144 40 -188 126 -24 48 -57 85 -74 85 -7 0 -24 -10 -38
-22z"/>
</g>
</svg>
